<?xml version="1.0" encoding="UTF-8" standalone="no"?>
<!-- Created with Inkscape (http://www.inkscape.org/) -->

<svg
   xmlns:dc="http://purl.org/dc/elements/1.1/"
   xmlns:cc="http://creativecommons.org/ns#"
   xmlns:rdf="http://www.w3.org/1999/02/22-rdf-syntax-ns#"
   xmlns:svg="http://www.w3.org/2000/svg"
   xmlns="http://www.w3.org/2000/svg"
   xmlns:sodipodi="http://sodipodi.sourceforge.net/DTD/sodipodi-0.dtd"
   xmlns:inkscape="http://www.inkscape.org/namespaces/inkscape"
   width="48"
   height="48"
   id="svg3892"
   version="1.1"
   inkscape:version="0.48+devel r12388"
   sodipodi:docname="archive-insert-directory.svg">
  <defs
     id="defs3894" />
  <sodipodi:namedview
     id="base"
     pagecolor="#ffffff"
     bordercolor="#666666"
     borderopacity="1.0"
     inkscape:pageopacity="0.0"
     inkscape:pageshadow="2"
     inkscape:zoom="8.290827"
     inkscape:cx="25.656486"
     inkscape:cy="23.9918"
     inkscape:document-units="px"
     inkscape:current-layer="layer1"
     showgrid="false"
     inkscape:window-width="1366"
     inkscape:window-height="714"
     inkscape:window-x="0"
     inkscape:window-y="30"
     inkscape:window-maximized="1" />
  <metadata
     id="metadata3897">
    <rdf:RDF>
      <cc:Work
         rdf:about="">
        <dc:format>image/svg+xml</dc:format>
        <dc:type
           rdf:resource="http://purl.org/dc/dcmitype/StillImage" />
        <dc:title />
      </cc:Work>
    </rdf:RDF>
  </metadata>
  <g
     inkscape:label="Capa 1"
     inkscape:groupmode="layer"
     id="layer1"
     transform="translate(0,-1004.3622)">
    <path
       style="fill:#1a1a1a;fill-opacity:1;stroke:none"
       d="m 16.753402,1013.3663 c -0.08523,0.016 -0.156988,0.064 -0.235213,0.094 -0.07822,0.031 -0.165713,0.082 -0.235213,0.125 -0.04604,0.029 -0.09274,0.06 -0.134408,0.094 -0.02405,0.02 -0.0448,0.04 -0.0672,0.062 -0.02464,0.024 -0.04466,0.01 -0.0672,0.031 -0.02704,0.03 -0.04341,0.092 -0.0672,0.125 -0.03698,0.049 -0.07212,0.1023 -0.100806,0.1562 -0.0091,0.018 -0.02541,0.012 -0.0336,0.031 -0.03263,0.071 -0.05025,0.1409 -0.0672,0.2188 -0.0014,0.01 0.0013,0.025 0,0.031 -0.01474,0.073 -0.0336,0.1411 -0.0336,0.2188 l 0,26.936 0,0.6562 c 0,0.084 0.01626,0.1396 0.0336,0.2188 0.01735,0.079 0.03422,0.1772 0.0672,0.2499 0.02629,0.059 0.065,0.1027 0.100805,0.1562 0.0192,0.029 0.04545,0.066 0.0672,0.094 0.0045,0.01 -0.0057,0.025 0,0.031 0.0092,0.011 0.02395,0.021 0.0336,0.031 0.02623,0.03 0.03813,0.035 0.0672,0.062 0.02751,0.026 0.06908,0.07 0.100805,0.094 0.0185,0.014 0.04787,0.018 0.0672,0.031 0.013,0.01 0.02024,0.022 0.0336,0.031 0.07419,0.047 0.151204,0.092 0.235213,0.125 0.07822,0.031 0.14999,0.047 0.235213,0.062 0.07902,0.014 0.185237,0.031 0.268815,0.031 l 24.858914,0 2.52014,0 c 0.247598,0 0.475852,-0.078 0.672037,-0.1875 0.09063,-0.051 0.194548,-0.1184 0.268815,-0.1875 0.111763,-0.1049 0.205102,-0.2373 0.268815,-0.375 0.0042,-0.01 -0.004,-0.022 0,-0.031 0.06026,-0.1393 0.100806,-0.2757 0.100806,-0.4374 l 0,-0.6562 0,-15.4054 0,-1.6249 0,-9.9057 c 0,-0.6732 -0.586503,-1.1874 -1.310473,-1.1874 l -4.469048,0 -22.910006,0 C 16.938637,1013.3663 16.832426,1013.3573 16.753402,1013.3663 z m 27.782697,12.9055 0,16.2178 c -0.197478,0.1118 -0.42191,0.1875 -0.672037,0.1875 l -4.133451,0 L 39.730611,1027.178 Z"
       id="rect2991-1"
       inkscape:connector-curvature="0"
       sodipodi:nodetypes="cccccccccccscsccccccccccccscsccccscccsscccccsccc" />
    <path
       inkscape:transform-center-x="0.40675684"
       transform="matrix(0.9842933,0,0,1.9951061,-7.7047436,1008.4143)"
       d="m 16.351319,10 -3.099427,1.789455 -3.099426,1.789455 0,-3.5789101 0,-3.5789095 L 13.251892,8.2105453 Z"
       inkscape:randomized="0"
       inkscape:rounded="0"
       inkscape:flatsided="false"
       sodipodi:arg2="1.0471976"
       sodipodi:arg1="0"
       sodipodi:r2="2.0662844"
       sodipodi:r1="4.1325688"
       sodipodi:cy="10"
       sodipodi:cx="12.21875"
       sodipodi:sides="3"
       id="path4258"
       style="fill:#1a1a1a;fill-opacity:1;stroke:none"
       sodipodi:type="star" />
  </g>
</svg>
