<?xml version="1.0" encoding="UTF-8" standalone="no"?>
<!-- Created with Inkscape (http://www.inkscape.org/) -->

<svg
   xmlns:dc="http://purl.org/dc/elements/1.1/"
   xmlns:cc="http://creativecommons.org/ns#"
   xmlns:rdf="http://www.w3.org/1999/02/22-rdf-syntax-ns#"
   xmlns:svg="http://www.w3.org/2000/svg"
   xmlns="http://www.w3.org/2000/svg"
   xmlns:sodipodi="http://sodipodi.sourceforge.net/DTD/sodipodi-0.dtd"
   xmlns:inkscape="http://www.inkscape.org/namespaces/inkscape"
   width="48"
   height="48"
   id="svg18107"
   version="1.1"
   inkscape:version="0.48+devel r12384"
   sodipodi:docname="document-import.svg">
  <defs
     id="defs18109" />
  <sodipodi:namedview
     id="base"
     pagecolor="#ffffff"
     bordercolor="#666666"
     borderopacity="1.0"
     inkscape:pageopacity="0.0"
     inkscape:pageshadow="2"
     inkscape:zoom="9.5122299"
     inkscape:cx="20.365044"
     inkscape:cy="28.756151"
     inkscape:document-units="px"
     inkscape:current-layer="layer1"
     showgrid="false"
     inkscape:window-width="1366"
     inkscape:window-height="714"
     inkscape:window-x="0"
     inkscape:window-y="30"
     inkscape:window-maximized="1" />
  <metadata
     id="metadata18112">
    <rdf:RDF>
      <cc:Work
         rdf:about="">
        <dc:format>image/svg+xml</dc:format>
        <dc:type
           rdf:resource="http://purl.org/dc/dcmitype/StillImage" />
        <dc:title></dc:title>
      </cc:Work>
    </rdf:RDF>
  </metadata>
  <g
     inkscape:label="Capa 1"
     inkscape:groupmode="layer"
     id="layer1"
     transform="translate(0,-1004.3622)">
    <g
       id="layer1-5"
       inkscape:label="Capa 1"
       transform="matrix(-1,0,0,1,53.714306,0)">
      <path
         style="fill:#151719;fill-rule:evenodd;clip-rule:evenodd"
         inkscape:connector-curvature="0"
         id="path7456"
         d="m 17.368146,1020.6258 13.263716,0 0,1.8941 -13.263716,0 L 17.368146,1020.6258 Z" />
      <path
         style="fill:#151719;fill-rule:evenodd;clip-rule:evenodd"
         inkscape:connector-curvature="0"
         id="path7458"
         d="m 17.368146,1027.2571 13.263716,0 0,1.8952 -13.263716,0 L 17.368146,1027.2571 Z" />
      <path
         style="fill:#151719;fill-rule:evenodd;clip-rule:evenodd"
         inkscape:connector-curvature="0"
         id="path7460"
         d="m 17.368146,1033.5728 13.263716,0 0,1.8946 -13.263716,0 L 17.368146,1033.5728 Z" />
      <path
         style="fill:#151719;fill-rule:evenodd;clip-rule:evenodd"
         inkscape:connector-curvature="0"
         id="path7462"
         d="m 35.684652,1013.3622 -23.369296,0 c -0.789823,0 -1.262909,0.4731 -1.262909,1.2629 l 0,27.4742 c 0,0.7898 0.473086,1.2629 1.262909,1.2629 l 23.369296,0 c 0.789823,0 1.262909,-0.4731 1.262909,-1.2629 l 0,-27.4742 C 36.948138,1013.8353 36.474475,1013.3622 35.684652,1013.3622 z m -0.631166,27.4742 c 0,0.3952 -0.23712,0.6311 -0.63232,0.6311 l -20.842324,0 c -0.3952,0 -0.631743,-0.2359 -0.631743,-0.6311 l 0,-24.9478 c 0,-0.3952 0.236543,-0.6323 0.631743,-0.6323 l 20.842324,0 c 0.3952,0 0.63232,0.2371 0.63232,0.6323 L 35.053486,1040.8364 Z" />
    </g>
    <path
       inkscape:transform-center-x="0.40675665"
       transform="matrix(-0.9842933,0,0,1.9951061,21.432635,1008.4111)"
       d="m 16.351319,10 -3.099427,1.789455 -3.099426,1.789455 0,-3.5789101 0,-3.5789095 L 13.251892,8.2105453 Z"
       inkscape:randomized="0"
       inkscape:rounded="0"
       inkscape:flatsided="false"
       sodipodi:arg2="1.0471976"
       sodipodi:arg1="0"
       sodipodi:r2="2.0662844"
       sodipodi:r1="4.1325688"
       sodipodi:cy="10"
       sodipodi:cx="12.21875"
       sodipodi:sides="3"
       id="path4258"
       style="fill:#1a1a1a;fill-opacity:1;stroke:none"
       sodipodi:type="star"
       inkscape:transform-center-y="1.544875e-05" />
  </g>
</svg>
