<?xml version="1.0" encoding="UTF-8" standalone="no"?>
<!-- Created with Inkscape (http://www.inkscape.org/) -->

<svg
   xmlns:dc="http://purl.org/dc/elements/1.1/"
   xmlns:cc="http://creativecommons.org/ns#"
   xmlns:rdf="http://www.w3.org/1999/02/22-rdf-syntax-ns#"
   xmlns:svg="http://www.w3.org/2000/svg"
   xmlns="http://www.w3.org/2000/svg"
   xmlns:sodipodi="http://sodipodi.sourceforge.net/DTD/sodipodi-0.dtd"
   xmlns:inkscape="http://www.inkscape.org/namespaces/inkscape"
   width="48"
   height="48"
   id="svg3979"
   version="1.1"
   inkscape:version="0.48+devel r12388"
   sodipodi:docname="document-preview-archive.svg">
  <defs
     id="defs3981">
    <linearGradient
       id="linearGradient1069-77">
      <stop
         id="stop1071-69"
         offset="0"
         style="stop-color:#ffffff;stop-opacity:1" />
      <stop
         id="stop1073-1"
         offset="1"
         style="stop-color:#e6e6e6;stop-opacity:1" />
    </linearGradient>
    <linearGradient
       id="linearGradient6707-4">
      <stop
         style="stop-color:#000000;stop-opacity:1;"
         offset="0"
         id="stop6709-7" />
      <stop
         style="stop-color:#ffffff;stop-opacity:1;"
         offset="1"
         id="stop6711-3" />
    </linearGradient>
    <linearGradient
       id="linearGradient4917">
      <stop
         style="stop-color:#f2f2f2;stop-opacity:1"
         offset="0"
         id="stop4919" />
      <stop
         style="stop-color:#ffffff;stop-opacity:1;"
         offset="1"
         id="stop4921" />
    </linearGradient>
    <linearGradient
       id="linearGradient3658">
      <stop
         id="stop3660"
         offset="0"
         style="stop-color:#999999;stop-opacity:1;" />
      <stop
         id="stop3662"
         offset="1"
         style="stop-color:#ffffff;stop-opacity:1;" />
    </linearGradient>
  </defs>
  <sodipodi:namedview
     id="base"
     pagecolor="#ffffff"
     bordercolor="#666666"
     borderopacity="1.0"
     inkscape:pageopacity="0.0"
     inkscape:pageshadow="2"
     inkscape:zoom="16.581654"
     inkscape:cx="17.450616"
     inkscape:cy="16.07982"
     inkscape:document-units="px"
     inkscape:current-layer="layer1"
     showgrid="false"
     fit-margin-top="0"
     fit-margin-left="0"
     fit-margin-right="0"
     fit-margin-bottom="0"
     inkscape:window-width="1366"
     inkscape:window-height="714"
     inkscape:window-x="0"
     inkscape:window-y="30"
     inkscape:window-maximized="1" />
  <metadata
     id="metadata3984">
    <rdf:RDF>
      <cc:Work
         rdf:about="">
        <dc:format>image/svg+xml</dc:format>
        <dc:type
           rdf:resource="http://purl.org/dc/dcmitype/StillImage" />
        <dc:title />
      </cc:Work>
    </rdf:RDF>
  </metadata>
  <g
     inkscape:label="Capa 1"
     inkscape:groupmode="layer"
     id="layer1"
     transform="translate(-601.71428,-491.21933)">
    <path
       style="fill:#1a1a1a;fill-opacity:1"
       d="M 9 20.25 L 9 39 L 39 39 L 39 20.25 L 9 20.25 z M 23.15625 22.125 C 23.2714 22.1249 23.38529 22.117 23.5 22.125 C 25.02946 22.23315 26.48816 23.1034 27.3125 24.53125 C 28.63143 26.8156 27.84694 29.7124 25.5625 31.03125 C 23.27803 32.3503 20.35018 31.5969 19.03125 29.3125 C 17.71231 27.028 18.49679 24.10025 20.78125 22.78125 C 21.53085 22.3485 22.35015 22.1258 23.15625 22.125 z M 23.09375 23.40625 C 22.52711 23.42075 21.93163 23.54045 21.40625 23.84375 C 19.72501 24.81455 19.15433 27.0062 20.125 28.6875 C 21.09566 30.36875 23.25625 30.9393 24.9375 29.96875 C 26.61874 28.998 27.18942 26.8374 26.21875 25.15625 C 25.55147 24.00045 24.3403 23.37385 23.09375 23.40625 z M 26.75 32.03125 C 27.1639 31.979391 27.590161 32.177397 27.8125 32.5625 L 29.46875 35.375 C 29.765202 35.88847 29.57597 36.547298 29.0625 36.84375 L 28.84375 36.96875 C 28.33028 37.265202 27.671452 37.10722 27.375 36.59375 L 25.75 33.75 C 25.453548 33.23653 25.61153 32.577702 26.125 32.28125 L 26.34375 32.15625 C 26.472118 32.082137 26.612033 32.048536 26.75 32.03125 z "
       transform="translate(601.71428,491.21933)"
       id="rect830-8" />
    <polygon
       style="fill:#1a1a1a;fill-opacity:1"
       points="32,8 28,0 18,0 18,8 "
       id="polygon832-7"
       transform="matrix(0.9375,0,0,0.9375,610.71427,500.21933)" />
    <polygon
       style="fill:#1a1a1a;fill-opacity:1"
       points="14,8 14,0 4,0 0,8 "
       id="polygon834-7"
       transform="matrix(0.9375,0,0,0.9375,610.71427,500.21933)" />
  </g>
</svg>
