<?xml version="1.0" encoding="UTF-8" standalone="no"?>
<!-- Created with Inkscape (http://www.inkscape.org/) -->

<svg
   xmlns:dc="http://purl.org/dc/elements/1.1/"
   xmlns:cc="http://creativecommons.org/ns#"
   xmlns:rdf="http://www.w3.org/1999/02/22-rdf-syntax-ns#"
   xmlns:svg="http://www.w3.org/2000/svg"
   xmlns="http://www.w3.org/2000/svg"
   xmlns:sodipodi="http://sodipodi.sourceforge.net/DTD/sodipodi-0.dtd"
   xmlns:inkscape="http://www.inkscape.org/namespaces/inkscape"
   width="48"
   height="48"
   id="svg3225"
   version="1.1"
   inkscape:version="0.48+devel r12388"
   sodipodi:docname="document-preview.svg">
  <defs
     id="defs3227" />
  <sodipodi:namedview
     id="base"
     pagecolor="#ffffff"
     bordercolor="#666666"
     borderopacity="1.0"
     inkscape:pageopacity="0.0"
     inkscape:pageshadow="2"
     inkscape:zoom="0.90219802"
     inkscape:cx="-121.23066"
     inkscape:cy="-33.163089"
     inkscape:document-units="px"
     inkscape:current-layer="layer1"
     showgrid="false"
     fit-margin-top="0"
     fit-margin-left="0"
     fit-margin-right="0"
     fit-margin-bottom="0"
     inkscape:window-width="1366"
     inkscape:window-height="714"
     inkscape:window-x="0"
     inkscape:window-y="30"
     inkscape:window-maximized="1" />
  <metadata
     id="metadata3230">
    <rdf:RDF>
      <cc:Work
         rdf:about="">
        <dc:format>image/svg+xml</dc:format>
        <dc:type
           rdf:resource="http://purl.org/dc/dcmitype/StillImage" />
        <dc:title />
      </cc:Work>
    </rdf:RDF>
  </metadata>
  <g
     inkscape:label="Capa 1"
     inkscape:groupmode="layer"
     id="layer1"
     transform="translate(-441.71429,-456.93361)">
    <g
       transform="translate(-20,-42.85714)"
       id="layer1-0"
       inkscape:label="Capa 1">
      <path
         style="fill:#1a1a1a;fill-rule:evenodd;clip-rule:evenodd"
         inkscape:connector-curvature="0"
         id="path7462"
         d="m 497.39894,508.79075 -23.3693,0 c -0.78982,0 -1.26291,0.47309 -1.26291,1.26291 l 0,27.47418 c 0,0.78982 0.47309,1.26291 1.26291,1.26291 l 23.3693,0 c 0.78982,0 1.26291,-0.47309 1.26291,-1.26291 l 0,-27.47418 C 498.66242,509.26384 498.18876,508.79075 497.39894,508.79075 z m -0.63117,27.47418 c 0,0.3952 -0.23712,0.63117 -0.63232,0.63117 l -20.84232,0 c -0.3952,0 -0.63174,-0.23597 -0.63174,-0.63117 l 0,-24.94779 c 0,-0.3952 0.23654,-0.63232 0.63174,-0.63232 l 20.84232,0 c 0.3952,0 0.63232,0.23712 0.63232,0.63232 L 496.76777,536.26493 Z" />
    </g>
    <g
       transform="matrix(0.6666685,0,0,0.6666685,54.284596,9.8337222)"
       id="layer1-3"
       inkscape:label="Capa 1">
      <g
         inkscape:label="Capa 1"
         id="layer1-1"
         transform="matrix(-1,0,0,1,641.14286,-321.71428)">
        <path
           style="fill:#1a1a1a;fill-opacity:1;stroke:none"
           d="m 25.697602,1013.3624 c -0.2303,-2e-4 -0.457615,0.01 -0.687046,0.026 -3.058921,0.2163 -5.961764,1.9009 -7.610428,4.7566 -2.63787,4.5687 -1.080791,10.4163 3.488098,13.054 4.568934,2.6381 10.389706,1.0806 13.027575,-3.4882 2.637888,-4.569 1.080811,-10.416 -3.488097,-13.054 C 28.928501,1013.7913 27.309796,1013.3637 25.697602,1013.3621 z m 0.132106,2.5368 c 1.133265,0.029 2.305234,0.3183 3.356002,0.9249 3.362473,1.9416 4.504577,6.2826 2.563224,9.6452 -1.94131,3.3625 -6.256219,4.5043 -9.618715,2.5632 -3.362473,-1.9415 -4.504574,-6.2565 -2.563239,-9.6188 C 20.901637,1017.1021 23.336603,1015.8344 25.829708,1015.8992 Z"
           id="path2983"
           inkscape:connector-curvature="0" />
        <rect
           style="fill:#1a1a1a;fill-opacity:1;stroke:none"
           id="rect2987"
           width="4.8050919"
           height="10.833299"
           x="531.27948"
           y="885.3316"
           ry="2.14045"
           transform="matrix(0.8660254,0.5,-0.5,0.8660254,0,0)" />
      </g>
    </g>
  </g>
</svg>
