<?xml version="1.0" encoding="UTF-8" standalone="no"?>
<!-- Created with Inkscape (http://www.inkscape.org/) -->

<svg
   xmlns:dc="http://purl.org/dc/elements/1.1/"
   xmlns:cc="http://creativecommons.org/ns#"
   xmlns:rdf="http://www.w3.org/1999/02/22-rdf-syntax-ns#"
   xmlns:svg="http://www.w3.org/2000/svg"
   xmlns="http://www.w3.org/2000/svg"
   xmlns:sodipodi="http://sodipodi.sourceforge.net/DTD/sodipodi-0.dtd"
   xmlns:inkscape="http://www.inkscape.org/namespaces/inkscape"
   width="48"
   height="48"
   id="svg3241"
   version="1.1"
   inkscape:version="0.48+devel r12240"
   sodipodi:docname="edit-cut.svg">
  <defs
     id="defs3243" />
  <sodipodi:namedview
     id="base"
     pagecolor="#ffffff"
     bordercolor="#666666"
     borderopacity="1.0"
     inkscape:pageopacity="0.0"
     inkscape:pageshadow="2"
     inkscape:zoom="5.8625"
     inkscape:cx="16.662762"
     inkscape:cy="26.467054"
     inkscape:document-units="px"
     inkscape:current-layer="layer1"
     showgrid="false"
     fit-margin-top="0"
     fit-margin-left="0"
     fit-margin-right="0"
     fit-margin-bottom="0"
     inkscape:window-width="1366"
     inkscape:window-height="716"
     inkscape:window-x="0"
     inkscape:window-y="28"
     inkscape:window-maximized="1" />
  <metadata
     id="metadata3246">
    <rdf:RDF>
      <cc:Work
         rdf:about="">
        <dc:format>image/svg+xml</dc:format>
        <dc:type
           rdf:resource="http://purl.org/dc/dcmitype/StillImage" />
        <dc:title />
      </cc:Work>
    </rdf:RDF>
  </metadata>
  <g
     inkscape:label="Capa 1"
     inkscape:groupmode="layer"
     id="layer1"
     transform="translate(-436,-408.36218)">
    <path
       style="fill:#1a1a1a"
       d="m 473.26589,443.16678 c -0.0297,-0.78202 -0.2493,-1.56464 -0.74715,-2.24138 -0.44312,-0.60919 -1.17815,-1.1322 -1.66667,-1.3793 -0.25287,-0.12735 -0.54021,-0.29887 -0.91953,-0.51728 -0.33909,-0.18969 -0.71263,-0.42009 -1.20688,-0.68962 -2.5862,-1.40864 -4.29945,-2.86152 -4.31037,-2.87355 -0.012,-0.012 -0.88503,-0.79316 -1.66667,-1.66667 2.09772,-4.88505 5.49423,-12.85059 5.68967,-13.6207 0.28737,-1.14945 -0.53963,-2.25288 -0.57471,-2.29887 l -0.34484,-0.51723 -0.34482,0.51723 -7.18393,11.78161 -7.12641,-11.78161 -0.34484,-0.51723 -0.34482,0.51723 c -0.0345,0.0462 -0.86206,1.14942 -0.57469,2.29887 0.18972,0.76438 3.59136,8.73566 5.68965,13.6207 -0.78794,0.87411 -1.66035,1.66146 -1.66667,1.66667 -0.0163,0.0164 -1.71838,1.46491 -4.31035,2.87355 -0.49425,0.26953 -0.86837,0.49426 -1.2069,0.68962 -0.37934,0.21326 -0.66671,0.39026 -0.91952,0.51728 -0.48912,0.24711 -1.21843,0.77011 -1.66668,1.3793 -1.32186,1.80458 -0.94314,4.36781 0.86207,5.68964 0.70056,0.51209 1.54596,0.74714 2.4138,0.74714 1.28103,0 2.50575,-0.58047 3.27585,-1.6092 0.3276,-0.4425 0.58047,-0.96033 0.68967,-1.43674 0.13785,-0.38566 0.17817,-0.66728 0.22986,-0.97706 0.0806,-0.46035 0.1552,-0.96552 0.57474,-2.01149 0.81606,-2.03447 2.32758,-3.76438 2.35627,-3.79309 0.41382,-0.49425 1.11438,-0.95401 2.06897,-1.37932 0.9598,0.42531 1.70116,0.87355 2.12649,1.37932 0.012,0.0163 1.54021,1.75289 2.35633,3.79309 0.41954,1.04537 0.49997,1.55114 0.57468,2.01149 0.0519,0.30978 0.10845,0.57476 0.22986,0.91953 0.1269,0.5167 0.36266,1.04024 0.68966,1.49427 0.77013,1.02298 1.99486,1.6092 3.27588,1.6092 0.86836,0 1.66092,-0.23563 2.35632,-0.74714 C 472.72568,445.78533 473.31522,444.47007 473.26589,443.16678 z m -2.29889,0.4023 c -0.0747,0.4661 -0.31608,0.87413 -0.68962,1.14939 -0.30402,0.22478 -0.66092,0.34484 -1.03449,0.34484 -0.55746,0 -1.10918,-0.24076 -1.43676,-0.68963 -0.27587,-0.37871 -0.36209,-0.85573 -0.28739,-1.32187 0.069,-0.45975 0.31035,-0.87351 0.68969,-1.14938 0.30403,-0.22417 0.66091,-0.34483 1.03446,-0.34483 0.55806,0 1.05175,0.2994 1.37932,0.74707 C 470.90439,442.68458 471.03656,443.10986 470.967,443.56909 z m -9.59766,-10.34485 c 0,0.75345 -0.62011,1.37935 -1.37935,1.37935 -0.75344,0 -1.32182,-0.6259 -1.32182,-1.37935 5.9e-4,-0.75916 0.56895,-1.37928 1.32182,-1.37928 C 460.74866,431.84495 461.36934,432.46507 461.36934,433.22423 z m -8.8506,9.82758 c 0.0679,0.44337 0,0.93135 -0.28737,1.32187 -0.32701,0.44887 -0.8793,0.68963 -1.43674,0.68963 -0.37361,0 -0.72989,-0.12015 -1.03451,-0.34484 -0.37926,-0.27526 -0.62127,-0.68329 -0.68967,-1.14939 -0.0752,-0.45922 0.0693,-0.8845 0.34484,-1.26441 0.32758,-0.44767 0.82132,-0.74707 1.37934,-0.74707 0.37354,0 0.72988,0.1209 1.03446,0.34484 C 452.21706,442.18688 452.45066,442.60851 452.51874,443.05181 Z"
       id="path5315"
       inkscape:connector-curvature="0"
       sodipodi:nodetypes="cccccccccccccccccccccccscccccccccccsccccscccsccsscssccscccscc" />
  </g>
</svg>
