<?xml version="1.0" encoding="UTF-8" standalone="no"?>
<!-- Created with Inkscape (http://www.inkscape.org/) -->

<svg
   xmlns:dc="http://purl.org/dc/elements/1.1/"
   xmlns:cc="http://creativecommons.org/ns#"
   xmlns:rdf="http://www.w3.org/1999/02/22-rdf-syntax-ns#"
   xmlns:svg="http://www.w3.org/2000/svg"
   xmlns="http://www.w3.org/2000/svg"
   xmlns:sodipodi="http://sodipodi.sourceforge.net/DTD/sodipodi-0.dtd"
   xmlns:inkscape="http://www.inkscape.org/namespaces/inkscape"
   width="48"
   height="48"
   id="svg21471"
   version="1.1"
   inkscape:version="0.48+devel r12240"
   sodipodi:docname="editcopy.svg">
  <defs
     id="defs21473" />
  <sodipodi:namedview
     id="base"
     pagecolor="#ffffff"
     bordercolor="#666666"
     borderopacity="1.0"
     inkscape:pageopacity="0.0"
     inkscape:pageshadow="2"
     inkscape:zoom="5.8625001"
     inkscape:cx="43.113301"
     inkscape:cy="17.132891"
     inkscape:document-units="px"
     inkscape:current-layer="layer1"
     showgrid="false"
     fit-margin-top="0"
     fit-margin-left="0"
     fit-margin-right="0"
     fit-margin-bottom="0"
     inkscape:window-width="1366"
     inkscape:window-height="716"
     inkscape:window-x="0"
     inkscape:window-y="28"
     inkscape:window-maximized="1" />
  <metadata
     id="metadata21476">
    <rdf:RDF>
      <cc:Work
         rdf:about="">
        <dc:format>image/svg+xml</dc:format>
        <dc:type
           rdf:resource="http://purl.org/dc/dcmitype/StillImage" />
        <dc:title />
      </cc:Work>
    </rdf:RDF>
  </metadata>
  <g
     inkscape:label="Capa 1"
     inkscape:groupmode="layer"
     id="layer1"
     transform="translate(-230.28572,-662.64789)">
    <g
       transform="matrix(0.57693417,0,0,0.57693417,-223.68347,435.10488)"
       id="Document_Stack">
      <rect
         style="fill:#151719"
         id="rect140"
         height="3.2839999"
         width="19.705999"
         y="439.55801"
         x="813.68402" />
      <rect
         style="fill:#151719"
         id="rect142"
         height="3.283"
         width="19.705999"
         y="429.70499"
         x="813.68402" />
      <rect
         style="fill:#151719"
         id="rect144"
         height="3.283"
         width="19.705999"
         y="419.853"
         x="813.68402" />
      <path
         style="fill:#151719"
         inkscape:connector-curvature="0"
         id="path146"
         d="m 849.811,417.663 -7.663,0 0,-5.475 c 0,-1.368 -0.82,-2.188 -2.189,-2.188 l -32.843,0 c -1.368,0 -2.189,0.82 -2.189,2.188 l 0,40.505 c 0,1.369 0.821,2.191 2.189,2.191 l 7.664,0 0,4.926 c 0,1.368 0.821,2.189 2.19,2.189 l 32.842,0 c 1.369,0 2.189,-0.821 2.189,-2.189 l 0,-39.958 C 852,418.483 851.18,417.663 849.811,417.663 z m -41.601,32.842 0,-36.127 c 0,-0.684 0.411,-1.095 1.095,-1.095 l 28.463,0 c 0.685,0 1.095,0.411 1.095,1.095 l 0,36.127 c 0,0.685 -0.41,1.095 -1.095,1.095 l -28.463,0 C 808.621,451.6 808.21,451.189 808.21,450.505 z m 40.506,7.115 c 0,0.685 -0.41,1.095 -1.095,1.095 l -27.916,0 c -0.684,0 -1.095,-0.41 -1.095,-1.095 l 0,-2.735 21.348,0 c 1.369,0 2.189,-0.822 2.189,-2.191 l 0,-31.199 5.474,0 c 0.685,0 1.095,0.41 1.095,1.095 L 848.716,457.62 Z" />
    </g>
  </g>
</svg>
