<?xml version="1.0" encoding="UTF-8" standalone="no"?>
<!-- Created with Inkscape (http://www.inkscape.org/) -->

<svg
   xmlns:dc="http://purl.org/dc/elements/1.1/"
   xmlns:cc="http://creativecommons.org/ns#"
   xmlns:rdf="http://www.w3.org/1999/02/22-rdf-syntax-ns#"
   xmlns:svg="http://www.w3.org/2000/svg"
   xmlns="http://www.w3.org/2000/svg"
   xmlns:sodipodi="http://sodipodi.sourceforge.net/DTD/sodipodi-0.dtd"
   xmlns:inkscape="http://www.inkscape.org/namespaces/inkscape"
   width="48"
   height="48"
   id="svg2"
   version="1.1"
   inkscape:version="0.48+devel r12381"
   sodipodi:docname="format-text-strikethrough.svg">
  <defs
     id="defs4" />
  <sodipodi:namedview
     id="base"
     pagecolor="#ffffff"
     bordercolor="#666666"
     borderopacity="1.0"
     inkscape:pageopacity="0.0"
     inkscape:pageshadow="2"
     inkscape:zoom="8.290827"
     inkscape:cx="-6.9036144"
     inkscape:cy="18.381411"
     inkscape:document-units="px"
     inkscape:current-layer="layer1"
     showgrid="false"
     inkscape:window-width="1366"
     inkscape:window-height="714"
     inkscape:window-x="0"
     inkscape:window-y="30"
     inkscape:window-maximized="1" />
  <metadata
     id="metadata7">
    <rdf:RDF>
      <cc:Work
         rdf:about="">
        <dc:format>image/svg+xml</dc:format>
        <dc:type
           rdf:resource="http://purl.org/dc/dcmitype/StillImage" />
        <dc:title />
      </cc:Work>
    </rdf:RDF>
  </metadata>
  <g
     inkscape:label="Capa 1"
     inkscape:groupmode="layer"
     id="layer1"
     transform="translate(0,-1004.3622)">
    <g
       style="fill:#1a1a1a;display:inline"
       id="g4051"
       transform="matrix(2.6666667,0,0,2.6666667,2.6666664,1007.0289)">
      <g
         id="layer1-8"
         inkscape:label="Calque 1"
         style="fill:#1a1a1a;display:inline">
        <path
           id="path4109"
           d="M 7.90625,2 C 5.4143628,2 2.9580413,2.8412889 2.75,5.71875 l 2.5,0 c 0.13764,-1.1898308 1.1148848,-1.75 2.5,-1.75 1.0128441,0 2.375,0.2634175 2.375,1.5625 0,0.073289 -0.02349,0.1222014 -0.03125,0.1875 l 2.375,0 0,-0.40625 C 12.46875,2.9125 10.130103,2 7.90625,2 z m -5.5625,8.28125 C 2.3336323,10.406496 2.3125,10.551603 2.3125,10.6875 2.3125,12.911353 4.1710436,14 6.21875,14 c 1.3431193,0 2.9466745,-0.406193 3.9375,-1.375 0.198165,1.034862 0.924656,1.375 1.9375,1.375 0.418348,0 1.219438,-0.14914 1.59375,-0.28125 l 0,-1.75 c -0.26422,0.04404 -0.470871,0.0625 -0.625,0.0625 -0.462385,0 -0.59375,-0.258486 -0.59375,-0.875 l 0,-0.875 -2.5625,0 c -0.2767732,1.263466 -1.7539099,1.75 -2.75,1.75 -0.880734,0 -2.3125,-0.345814 -2.3125,-1.46875 0,-0.106459 0.019117,-0.186432 0.03125,-0.28125 L 2.34375,10.28125 Z"
           style="font-size:22.01834869px;font-style:normal;font-variant:normal;font-weight:500;font-stretch:normal;text-align:start;line-height:125%;letter-spacing:0px;word-spacing:0px;writing-mode:lr-tb;text-anchor:start;fill:#1a1a1a;fill-opacity:1;stroke:none;font-family:Helvetica 65 Medium;-inkscape-font-specification:'Helvetica 65 Medium, Medium'"
           inkscape:connector-curvature="0" />
        <rect
           y="6.8098006"
           x="0.8588047"
           height="2.3803985"
           width="14.282391"
           id="rect4104"
           style="fill:#1a1a1a;fill-opacity:1;stroke:none" />
      </g>
    </g>
  </g>
</svg>
