<?xml version="1.0" encoding="UTF-8" standalone="no"?>
<!-- Created with Inkscape (http://www.inkscape.org/) -->

<svg
   xmlns:dc="http://purl.org/dc/elements/1.1/"
   xmlns:cc="http://creativecommons.org/ns#"
   xmlns:rdf="http://www.w3.org/1999/02/22-rdf-syntax-ns#"
   xmlns:svg="http://www.w3.org/2000/svg"
   xmlns="http://www.w3.org/2000/svg"
   xmlns:sodipodi="http://sodipodi.sourceforge.net/DTD/sodipodi-0.dtd"
   xmlns:inkscape="http://www.inkscape.org/namespaces/inkscape"
   width="48"
   height="48"
   id="svg3251"
   version="1.1"
   inkscape:version="0.48+devel r12240"
   sodipodi:docname="zoom-original.svg">
  <defs
     id="defs3253" />
  <sodipodi:namedview
     id="base"
     pagecolor="#ffffff"
     bordercolor="#666666"
     borderopacity="1.0"
     inkscape:pageopacity="0.0"
     inkscape:pageshadow="2"
     inkscape:zoom="8.290827"
     inkscape:cx="15.016403"
     inkscape:cy="25.892159"
     inkscape:document-units="px"
     inkscape:current-layer="layer1"
     showgrid="false"
     inkscape:window-width="1366"
     inkscape:window-height="716"
     inkscape:window-x="0"
     inkscape:window-y="28"
     inkscape:window-maximized="1" />
  <metadata
     id="metadata3256">
    <rdf:RDF>
      <cc:Work
         rdf:about="">
        <dc:format>image/svg+xml</dc:format>
        <dc:type
           rdf:resource="http://purl.org/dc/dcmitype/StillImage" />
        <dc:title />
      </cc:Work>
    </rdf:RDF>
  </metadata>
  <g
     inkscape:label="Capa 1"
     inkscape:groupmode="layer"
     id="layer1"
     transform="translate(0,-1004.3622)">
    <path
       style="color:#000000;color-interpolation:sRGB;color-interpolation-filters:linearRGB;fill:#1a1a1a;fill-opacity:1;fill-rule:nonzero;stroke:none;stroke-width:1;marker:none;visibility:visible;display:inline;overflow:visible;enable-background:accumulate;clip-rule:nonzero"
       d="M 9 9 L 9 17.125 L 12.03125 17.125 L 12.03125 12.03125 L 17.125 12.03125 L 17.125 9 L 9 9 z M 20.875 9 L 20.875 12.03125 L 27.125 12.03125 L 27.125 9 L 20.875 9 z M 30.875 9 L 30.875 12.03125 L 35.96875 12.03125 L 35.96875 17.125 L 39 17.125 L 39 9 L 30.875 9 z M 9 20.875 L 9 27.125 L 12.03125 27.125 L 12.03125 20.875 L 9 20.875 z M 35.96875 20.875 L 35.96875 27.125 L 39 27.125 L 39 20.875 L 35.96875 20.875 z M 9 30.875 L 9 39 L 17.125 39 L 17.125 35.96875 L 12.03125 35.96875 L 12.03125 30.875 L 9 30.875 z M 35.96875 30.875 L 35.96875 35.96875 L 30.875 35.96875 L 30.875 39 L 39 39 L 39 30.875 L 35.96875 30.875 z M 20.875 35.96875 L 20.875 39 L 27.125 39 L 27.125 35.96875 L 20.875 35.96875 z "
       transform="translate(0,1004.3622)"
       id="rect815" />
    <text
       xml:space="preserve"
       style="font-size:40px;font-style:normal;font-variant:normal;font-weight:normal;font-stretch:normal;text-align:start;line-height:125%;letter-spacing:0px;word-spacing:0px;writing-mode:lr-tb;text-anchor:start;fill:#000000;fill-opacity:1;stroke:none;font-family:Helvetica;-inkscape-font-specification:Helvetica"
       x="-5.5483003"
       y="25.444952"
       id="text822"
       sodipodi:linespacing="125%"
       transform="translate(0,1004.3622)"><tspan
         sodipodi:role="line"
         id="tspan824"></tspan></text>
  </g>
</svg>
