<?xml version="1.0" encoding="UTF-8" standalone="no"?>
<!-- Created with Inkscape (http://www.inkscape.org/) -->

<svg
   xmlns:dc="http://purl.org/dc/elements/1.1/"
   xmlns:cc="http://creativecommons.org/ns#"
   xmlns:rdf="http://www.w3.org/1999/02/22-rdf-syntax-ns#"
   xmlns:svg="http://www.w3.org/2000/svg"
   xmlns="http://www.w3.org/2000/svg"
   xmlns:sodipodi="http://sodipodi.sourceforge.net/DTD/sodipodi-0.dtd"
   xmlns:inkscape="http://www.inkscape.org/namespaces/inkscape"
   width="48"
   height="48"
   id="svg2"
   version="1.1"
   inkscape:version="0.48+devel r12381"
   sodipodi:docname="insert-text.svg">
  <defs
     id="defs4" />
  <sodipodi:namedview
     id="base"
     pagecolor="#ffffff"
     bordercolor="#666666"
     borderopacity="1.0"
     inkscape:pageopacity="0.0"
     inkscape:pageshadow="2"
     inkscape:zoom="5.8625"
     inkscape:cx="2.1967241"
     inkscape:cy="20.720291"
     inkscape:document-units="px"
     inkscape:current-layer="layer1"
     showgrid="false"
     inkscape:window-width="1366"
     inkscape:window-height="714"
     inkscape:window-x="0"
     inkscape:window-y="30"
     inkscape:window-maximized="1" />
  <metadata
     id="metadata7">
    <rdf:RDF>
      <cc:Work
         rdf:about="">
        <dc:format>image/svg+xml</dc:format>
        <dc:type
           rdf:resource="http://purl.org/dc/dcmitype/StillImage" />
        <dc:title />
      </cc:Work>
    </rdf:RDF>
  </metadata>
  <g
     inkscape:label="Capa 1"
     inkscape:groupmode="layer"
     id="layer1"
     transform="translate(0,-1004.3622)">
    <path
       transform="matrix(0,0.83172204,-1.6858529,0,40.858582,1030.7624)"
       d="m 16.351319,10 -3.099427,1.789455 -3.099426,1.789455 0,-3.5789101 0,-3.5789095 L 13.251892,8.2105453 Z"
       inkscape:randomized="0"
       inkscape:rounded="0"
       inkscape:flatsided="false"
       sodipodi:arg2="1.0471976"
       sodipodi:arg1="0"
       sodipodi:r2="2.0662844"
       sodipodi:r1="4.1325688"
       sodipodi:cy="10"
       sodipodi:cx="12.21875"
       sodipodi:sides="3"
       id="path4258"
       style="fill:#1a1a1a;fill-opacity:1;stroke:none"
       sodipodi:type="star"
       inkscape:transform-center-y="0.32219899" />
    <path
       d="m 19.636464,1030.1394 c 0,-1.8932 1.477657,-2.632 3.23226,-3.0476 1.70842,-0.4617 3.740129,-0.6003 4.848312,-1.2929 0.184737,4.9407 -1.061999,7.0648 -4.802127,7.0648 C 21.160226,1032.8637 19.636464,1032.0787 19.636464,1030.1394 z m 0.461763,-9.6967 c 0.369394,-2.0317 1.754683,-3.0014 3.924865,-3.0014 1.61613,0 3.786313,0.6927 3.786313,2.4935 0,1.4776 -0.738789,1.9393 -2.077893,2.2164 -5.448549,1.1081 -13.9447,0.5079 -13.9447,8.3114 0,4.9406 3.601655,7.2493 8.172941,7.2493 2.862787,0 5.864127,-0.8312 7.895836,-2.9551 0.09229,0.785 0.184658,1.5237 0.461684,2.2625 l 7.895915,0 c -0.923526,-1.8931 -0.923526,-4.1095 -0.923526,-6.1412 l 0,-10.4816 c 0,-6.7877 -5.494732,-8.0343 -11.174202,-8.0343 -2.724313,0 -5.494811,0.4617 -7.618809,1.6622 -2.124078,1.2467 -3.601656,3.2784 -3.740129,6.4183 L 20.098227,1020.4427 Z"
       style="font-size:22.5px;font-style:normal;font-variant:normal;font-weight:900;font-stretch:normal;text-align:start;line-height:125%;letter-spacing:0px;word-spacing:0px;writing-mode:lr-tb;text-anchor:start;fill:#1a1a1a;fill-opacity:1;stroke:none;font-family:Helvetica 65 Medium;-inkscape-font-specification:'Helvetica 65 Medium, Heavy'"
       id="path4267"
       inkscape:connector-curvature="0" />
  </g>
</svg>
