<?xml version="1.0" encoding="UTF-8" standalone="no"?>
<!-- Created with Inkscape (http://www.inkscape.org/) -->

<svg
   xmlns:dc="http://purl.org/dc/elements/1.1/"
   xmlns:cc="http://creativecommons.org/ns#"
   xmlns:rdf="http://www.w3.org/1999/02/22-rdf-syntax-ns#"
   xmlns:svg="http://www.w3.org/2000/svg"
   xmlns="http://www.w3.org/2000/svg"
   xmlns:sodipodi="http://sodipodi.sourceforge.net/DTD/sodipodi-0.dtd"
   xmlns:inkscape="http://www.inkscape.org/namespaces/inkscape"
   width="48"
   height="48"
   id="svg2"
   version="1.1"
   inkscape:version="0.48+devel r12381"
   sodipodi:docname="format-text-bold.svg">
  <defs
     id="defs4" />
  <sodipodi:namedview
     id="base"
     pagecolor="#ffffff"
     bordercolor="#666666"
     borderopacity="1.0"
     inkscape:pageopacity="0.0"
     inkscape:pageshadow="2"
     inkscape:zoom="5.6"
     inkscape:cx="3.7579044"
     inkscape:cy="24.162042"
     inkscape:document-units="px"
     inkscape:current-layer="layer1"
     showgrid="false"
     inkscape:window-width="1366"
     inkscape:window-height="714"
     inkscape:window-x="0"
     inkscape:window-y="30"
     inkscape:window-maximized="1" />
  <metadata
     id="metadata7">
    <rdf:RDF>
      <cc:Work
         rdf:about="">
        <dc:format>image/svg+xml</dc:format>
        <dc:type
           rdf:resource="http://purl.org/dc/dcmitype/StillImage" />
        <dc:title />
      </cc:Work>
    </rdf:RDF>
  </metadata>
  <g
     inkscape:label="Capa 1"
     inkscape:groupmode="layer"
     id="layer1"
     transform="translate(0,-1004.3622)">
    <g
       id="g4057"
       transform="matrix(2.6666663,0,0,2.6666663,2.666667,1007.0289)"
       style="fill:#1a1a1a">
      <g
         transform="translate(-521.0004,-17.00002)"
         style="fill:#1a1a1a;display:inline"
         inkscape:label="status"
         id="layer9" />
      <g
         transform="translate(-521.0004,-17.00002)"
         style="fill:#1a1a1a;display:inline"
         inkscape:label="devices"
         id="layer10" />
      <g
         transform="translate(-521.0004,-17.00002)"
         style="fill:#1a1a1a;display:inline"
         inkscape:label="apps"
         id="layer11" />
      <g
         transform="translate(-280.0002,-634.00002)"
         inkscape:label="places"
         id="layer1-9"
         style="fill:#1a1a1a" />
      <g
         transform="translate(-521.0004,-17.00002)"
         style="fill:#1a1a1a;display:inline"
         inkscape:label="mimetypes"
         id="layer14" />
      <g
         transform="translate(-521.0004,-17.00002)"
         style="fill:#1a1a1a;display:inline"
         inkscape:label="emblems"
         id="layer15" />
      <g
         transform="translate(-521.0004,-17.00002)"
         style="fill:#1a1a1a;display:inline"
         inkscape:label="emotes"
         id="g71291" />
      <g
         transform="translate(-521.0004,-17.00002)"
         style="fill:#1a1a1a;display:inline"
         inkscape:label="categories"
         id="g4953" />
      <g
         transform="translate(-521.0004,-17.00002)"
         style="fill:#1a1a1a;display:inline"
         inkscape:label="actions"
         id="layer12">
        <g
           id="text4262"
           style="font-size:22.5px;font-style:normal;font-variant:normal;font-weight:900;font-stretch:normal;text-align:start;line-height:125%;letter-spacing:0px;word-spacing:0px;writing-mode:lr-tb;text-anchor:start;fill:#1a1a1a;fill-opacity:1;stroke:none;font-family:Helvetica 65 Medium;-inkscape-font-specification:'Helvetica 65 Medium, Heavy'"
           transform="matrix(0.97146327,0,0,0.97146327,517.45456,17.952054)">
          <path
             inkscape:connector-curvature="0"
             id="path4267"
             style="fill:#1a1a1a;fill-opacity:1"
             d="m 9.75875,9.74125 c 0,-0.9225 0.72,-1.2825 1.575,-1.485 0.8325,-0.225 1.8225,-0.2925 2.3625,-0.63 0.09,2.4075 -0.5175,3.4425 -2.34,3.4425 C 10.50125,11.06875 9.75875,10.68625 9.75875,9.74125 z m 0.225,-4.725 c 0.18,-0.99 0.855,-1.4625 1.9125,-1.4625 0.7875,0 1.845,0.3375 1.845,1.215 0,0.72 -0.36,0.945 -1.0125,1.08 -2.655,0.54 -6.795,0.2475 -6.795,4.05 0,2.4075 1.755,3.5325 3.9825,3.5325 1.395,0 2.8575,-0.405 3.8475,-1.44 0.045,0.3825 0.09,0.7425 0.225,1.1025 l 3.8475,0 c -0.45,-0.9225 -0.45,-2.0025 -0.45,-2.9925 l 0,-5.1075 c 0,-3.3075 -2.6775,-3.915 -5.445,-3.915 -1.3275,0 -2.6775,0.225 -3.7125,0.81 -1.035,0.6075 -1.755,1.5975 -1.8225,3.1275 L 9.98375,5.01625 Z" />
        </g>
      </g>
    </g>
  </g>
</svg>
