<?xml version="1.0" encoding="UTF-8" standalone="no"?>
<!-- Created with Inkscape (http://www.inkscape.org/) -->

<svg
   xmlns:dc="http://purl.org/dc/elements/1.1/"
   xmlns:cc="http://creativecommons.org/ns#"
   xmlns:rdf="http://www.w3.org/1999/02/22-rdf-syntax-ns#"
   xmlns:svg="http://www.w3.org/2000/svg"
   xmlns="http://www.w3.org/2000/svg"
   xmlns:sodipodi="http://sodipodi.sourceforge.net/DTD/sodipodi-0.dtd"
   xmlns:inkscape="http://www.inkscape.org/namespaces/inkscape"
   width="48"
   height="48"
   id="svg3049"
   version="1.1"
   inkscape:version="0.48.4 r9939"
   sodipodi:docname="view-list-details.svg">
  <defs
     id="defs3051" />
  <sodipodi:namedview
     id="base"
     pagecolor="#ffffff"
     bordercolor="#666666"
     borderopacity="1.0"
     inkscape:pageopacity="0.0"
     inkscape:pageshadow="2"
     inkscape:zoom="17.229375"
     inkscape:cx="28.401903"
     inkscape:cy="23.154282"
     inkscape:document-units="px"
     inkscape:current-layer="layer1"
     showgrid="false"
     fit-margin-top="0"
     fit-margin-left="0"
     fit-margin-right="0"
     fit-margin-bottom="0"
     inkscape:window-width="1366"
     inkscape:window-height="719"
     inkscape:window-x="-4"
     inkscape:window-y="24"
     inkscape:window-maximized="1" />
  <metadata
     id="metadata3054">
    <rdf:RDF>
      <cc:Work
         rdf:about="">
        <dc:format>image/svg+xml</dc:format>
        <dc:type
           rdf:resource="http://purl.org/dc/dcmitype/StillImage" />
        <dc:title />
      </cc:Work>
    </rdf:RDF>
  </metadata>
  <g
     inkscape:label="Capa 1"
     inkscape:groupmode="layer"
     id="layer1"
     transform="translate(-421.71429,-499.79074)">
    <path
       style="fill:#1a1a1a;fill-opacity:1;fill-rule:nonzero;stroke:none"
       d="m 25.96875,29.40625 0,6.25 1.1875,0 2.875,0 1.8125,0 7.15625,0 0,-6.25 -7.15625,0 -1.8125,0 -2.875,0 z"
       transform="translate(421.71429,499.79074)"
       id="path3022"
       inkscape:connector-curvature="0"
       sodipodi:nodetypes="ccccccccccc" />
    <path
       style="fill:#1a1a1a;stroke:none"
       d="M 9 9 L 9 21.96875 L 21.96875 21.96875 L 21.96875 9 L 9 9 z M 11 11 L 19.96875 11 L 19.96875 19.96875 L 11 19.96875 L 11 11 z "
       transform="translate(421.71429,499.79074)"
       id="path3015" />
    <path
       style="fill:#1a1a1a;stroke:none"
       d="M 9 26.03125 L 9 39 L 21.96875 39 L 21.96875 26.03125 L 9 26.03125 z M 11 28.03125 L 19.96875 28.03125 L 19.96875 37 L 11 37 L 11 28.03125 z "
       transform="translate(421.71429,499.79074)"
       id="path3007" />
    <path
       id="path3027"
       d="m 447.68304,512.15012 0,6.25 1.1875,0 2.875,0 1.8125,0 7.15625,0 0,-6.25 -7.15625,0 -1.8125,0 -2.875,0 z"
       style="fill:#1a1a1a;fill-opacity:1;fill-rule:nonzero;stroke:none"
       inkscape:connector-curvature="0"
       sodipodi:nodetypes="ccccccccccc" />
  </g>
</svg>
