<?xml version="1.0" encoding="UTF-8" standalone="no"?>
<!-- Created with Inkscape (http://www.inkscape.org/) -->

<svg
   xmlns:dc="http://purl.org/dc/elements/1.1/"
   xmlns:cc="http://creativecommons.org/ns#"
   xmlns:rdf="http://www.w3.org/1999/02/22-rdf-syntax-ns#"
   xmlns:svg="http://www.w3.org/2000/svg"
   xmlns="http://www.w3.org/2000/svg"
   xmlns:sodipodi="http://sodipodi.sourceforge.net/DTD/sodipodi-0.dtd"
   xmlns:inkscape="http://www.inkscape.org/namespaces/inkscape"
   width="48"
   height="48"
   id="svg3049"
   version="1.1"
   inkscape:version="0.48.4 r9939"
   sodipodi:docname="view-list-tree.svg"
   inkscape:export-filename="/home/uri/.kde/share/icons/NITRUX-KDE/16x16/actions/view-list-tree.png"
   inkscape:export-xdpi="30"
   inkscape:export-ydpi="30">
  <defs
     id="defs3051" />
  <sodipodi:namedview
     id="base"
     pagecolor="#ffffff"
     bordercolor="#666666"
     borderopacity="1.0"
     inkscape:pageopacity="0.0"
     inkscape:pageshadow="2"
     inkscape:zoom="12.658906"
     inkscape:cx="13.91074"
     inkscape:cy="28.773665"
     inkscape:document-units="px"
     inkscape:current-layer="layer1"
     showgrid="false"
     fit-margin-top="0"
     fit-margin-left="0"
     fit-margin-right="0"
     fit-margin-bottom="0"
     inkscape:window-width="1366"
     inkscape:window-height="719"
     inkscape:window-x="-4"
     inkscape:window-y="24"
     inkscape:window-maximized="1"
     inkscape:showpageshadow="false"
     borderlayer="true" />
  <metadata
     id="metadata3054">
    <rdf:RDF>
      <cc:Work
         rdf:about="">
        <dc:format>image/svg+xml</dc:format>
        <dc:type
           rdf:resource="http://purl.org/dc/dcmitype/StillImage" />
        <dc:title />
      </cc:Work>
    </rdf:RDF>
  </metadata>
  <g
     inkscape:label="Capa 1"
     inkscape:groupmode="layer"
     id="layer1"
     transform="translate(-421.71429,-499.79074)">
    <g
       id="g850"
       style="fill:#1a1a1a"
       transform="matrix(0.96385542,0,0,0.96385542,-47.244448,17.004485)">
      <path
         id="path857"
         d="m 449.02679,510.22824 0,12 12,0 0,-12 -12,0 z"
         style="color:#000000;fill:#1a1a1a;fill-opacity:1;fill-rule:nonzero;stroke:none;stroke-width:1.39999998;marker:none;visibility:visible;display:inline;overflow:visible;enable-background:accumulate"
         inkscape:connector-curvature="0" />
      <path
         id="path877"
         d="m 449.02679,529.35324 0,12 12,0 0,-12 -12,0 z"
         style="color:#000000;fill:#1a1a1a;fill-opacity:1;fill-rule:nonzero;stroke:none;stroke-width:1.39999998;marker:none;visibility:visible;display:inline;overflow:visible;enable-background:accumulate"
         inkscape:connector-curvature="0" />
      <path
         inkscape:connector-curvature="0"
         style="color:#000000;fill:#1a1a1a;fill-opacity:1;fill-rule:nonzero;stroke:none;stroke-width:1.39999998;marker:none;visibility:visible;display:inline;overflow:visible;enable-background:accumulate"
         d="m 430.40179,516.28684 0,4.72252 14.78129,0 0,-4.72252 z"
         id="path889"
         sodipodi:nodetypes="ccccc" />
      <path
         inkscape:connector-curvature="0"
         style="color:#000000;fill:#1a1a1a;fill-opacity:1;fill-rule:nonzero;stroke:none;stroke-width:1.39999998;marker:none;visibility:visible;display:inline;overflow:visible;enable-background:accumulate"
         d="m 430.40179,537.65155 4.72253,0 0,-27.42331 -4.72253,0 0,27.42331 z"
         id="path891" />
      <path
         inkscape:connector-curvature="0"
         style="color:#000000;fill:#1a1a1a;fill-opacity:1;fill-rule:nonzero;stroke:none;stroke-width:1.39999998;marker:none;visibility:visible;display:inline;overflow:visible;enable-background:accumulate"
         d="m 430.40179,532.99198 0,4.72252 14.78129,0 0,-4.72252 z"
         id="path893"
         sodipodi:nodetypes="ccccc" />
    </g>
    <path
       inkscape:connector-curvature="0"
       style="fill:#1a1a1a;stroke:none"
       d="m 439.21429,508.79074 0,12.96875 12.96875,0 0,-12.96875 -12.96875,0 z m 2,2 8.96875,0 0,8.96875 -8.96875,0 0,-8.96875 z m -10.5,4.71875 0,6.25 2.71875,0 3.78125,0 0,-6.25 -3.78125,0 -2.71875,0 z m 23.46875,0 0,6.25 6.53125,0 0,-6.25 -6.53125,0 z m -23.46875,10.3125 0,12.96875 12.96875,0 0,-12.96875 -12.96875,0 z m 17.03125,0 0,12.96875 12.96875,0 0,-12.96875 -12.96875,0 z m -15.03125,2 8.96875,0 0,8.96875 -8.96875,0 0,-8.96875 z m 17.03125,0 8.96875,0 0,8.96875 -8.96875,0 0,-8.96875 z"
       id="path3050" />
  </g>
</svg>
