<?xml version="1.0" encoding="UTF-8" standalone="no"?>
<!-- Created with Inkscape (http://www.inkscape.org/) -->

<svg
   xmlns:dc="http://purl.org/dc/elements/1.1/"
   xmlns:cc="http://creativecommons.org/ns#"
   xmlns:rdf="http://www.w3.org/1999/02/22-rdf-syntax-ns#"
   xmlns:svg="http://www.w3.org/2000/svg"
   xmlns="http://www.w3.org/2000/svg"
   xmlns:xlink="http://www.w3.org/1999/xlink"
   xmlns:sodipodi="http://sodipodi.sourceforge.net/DTD/sodipodi-0.dtd"
   xmlns:inkscape="http://www.inkscape.org/namespaces/inkscape"
   width="48"
   height="48"
   id="svg865"
   version="1.1"
   inkscape:version="0.48+devel r12351"
   sodipodi:docname="folder-dropbox.svg">
  <defs
     id="defs867">
    <linearGradient
       inkscape:collect="always"
       xlink:href="#linearGradient1055"
       id="linearGradient966"
       x1="26.251339"
       y1="1038.0887"
       x2="26.251339"
       y2="1018.3586"
       gradientUnits="userSpaceOnUse"
       gradientTransform="matrix(1.0140651,0,0,1.0140651,-0.33756199,-14.323349)" />
    <linearGradient
       inkscape:collect="always"
       id="linearGradient1055">
      <stop
         style="stop-color:#cad9e5;stop-opacity:1"
         offset="0"
         id="stop1057" />
      <stop
         style="stop-color:#f3f6f9;stop-opacity:1"
         offset="1"
         id="stop1059" />
    </linearGradient>
    <linearGradient
       y2="-1004.4247"
       x2="23.875"
       y1="-1052.4872"
       x1="23.875"
       gradientTransform="translate(4.6955566e-6,-7.5935545e-6)"
       gradientUnits="userSpaceOnUse"
       id="linearGradient4565-7"
       xlink:href="#linearGradient1035-5-7-5"
       inkscape:collect="always" />
    <linearGradient
       id="linearGradient1035-5-7-5"
       inkscape:collect="always">
      <stop
         id="stop1037-0-2-5"
         offset="0"
         style="stop-color:#ffffff;stop-opacity:1" />
      <stop
         id="stop1039-8-8-8"
         offset="1"
         style="stop-color:#ececec;stop-opacity:1" />
    </linearGradient>
    <linearGradient
       inkscape:collect="always"
       xlink:href="#linearGradient1045-8"
       id="linearGradient2700-2"
       gradientUnits="userSpaceOnUse"
       x1="27.709515"
       y1="-1004.9823"
       x2="27.709515"
       y2="-1052.8083"
       gradientTransform="matrix(0.91666666,0,0,0.91666666,2.0000047,-85.696877)" />
    <linearGradient
       inkscape:collect="always"
       id="linearGradient1045-8">
      <stop
         style="stop-color:#000000;stop-opacity:1;"
         offset="0"
         id="stop1047-9" />
      <stop
         style="stop-color:#000000;stop-opacity:0;"
         offset="1"
         id="stop1049-8" />
    </linearGradient>
    <linearGradient
       inkscape:collect="always"
       xlink:href="#linearGradient2869-7"
       id="linearGradient2875-1"
       x1="-1050.2408"
       y1="33.41077"
       x2="-1006.7538"
       y2="33.41077"
       gradientUnits="userSpaceOnUse"
       gradientTransform="translate(584.57143,644.57143)" />
    <linearGradient
       inkscape:collect="always"
       id="linearGradient2869-7">
      <stop
         style="stop-color:#f9f9f9;stop-opacity:1"
         offset="0"
         id="stop2871-8" />
      <stop
         style="stop-color:#ffffff;stop-opacity:1"
         offset="1"
         id="stop2873-4" />
    </linearGradient>
    <linearGradient
       inkscape:collect="always"
       xlink:href="#linearGradient2476-2"
       id="linearGradient1043-8"
       gradientUnits="userSpaceOnUse"
       x1="48.023438"
       y1="-1026.1804"
       x2="-0.015625132"
       y2="-1026.1804"
       gradientTransform="matrix(0,1,0.63020833,0,663.20749,1004.3622)" />
    <linearGradient
       id="linearGradient2476-2"
       inkscape:collect="always">
      <stop
         id="stop2478-9"
         offset="0"
         style="stop-color:#2c2525;stop-opacity:1" />
      <stop
         id="stop2480-4"
         offset="1"
         style="stop-color:#3f3535;stop-opacity:1" />
    </linearGradient>
    <linearGradient
       inkscape:collect="always"
       xlink:href="#linearGradient1045-4-7-8"
       id="linearGradient2800-7-9-6"
       gradientUnits="userSpaceOnUse"
       gradientTransform="matrix(0,1,0.63020833,0,663.20749,1004.3622)"
       x1="29"
       y1="-1059.3043"
       x2="29"
       y2="-1045.8168" />
    <linearGradient
       inkscape:collect="always"
       id="linearGradient1045-4-7-8">
      <stop
         style="stop-color:#000000;stop-opacity:1;"
         offset="0"
         id="stop1047-7-1-3" />
      <stop
         style="stop-color:#000000;stop-opacity:0;"
         offset="1"
         id="stop1049-8-1-8" />
    </linearGradient>
  </defs>
  <sodipodi:namedview
     id="base"
     pagecolor="#ffffff"
     bordercolor="#666666"
     borderopacity="1.0"
     inkscape:pageopacity="0.0"
     inkscape:pageshadow="2"
     inkscape:zoom="4"
     inkscape:cx="93.911299"
     inkscape:cy="50.381731"
     inkscape:document-units="px"
     inkscape:current-layer="layer1"
     showgrid="false"
     inkscape:window-width="1366"
     inkscape:window-height="714"
     inkscape:window-x="0"
     inkscape:window-y="30"
     inkscape:window-maximized="1" />
  <metadata
     id="metadata870">
    <rdf:RDF>
      <cc:Work
         rdf:about="">
        <dc:format>image/svg+xml</dc:format>
        <dc:type
           rdf:resource="http://purl.org/dc/dcmitype/StillImage" />
        <dc:title />
      </cc:Work>
    </rdf:RDF>
  </metadata>
  <g
     inkscape:label="Capa 1"
     inkscape:groupmode="layer"
     id="layer1"
     transform="translate(0,-1004.3622)">
    <g
       id="g1136"
       transform="translate(0,1004.3622)">
      <g
         transform="translate(0,-1004.3622)"
         id="layer1-9"
         inkscape:label="Capa 1">
        <g
           id="layer1-0-1"
           inkscape:label="Capa 1">
          <rect
             style="fill:url(#linearGradient4565-7);fill-opacity:1;stroke:none"
             id="rect1041-7"
             width="48"
             height="48"
             x="-4.6955565e-06"
             y="-1052.3622"
             ry="1.9445436"
             transform="scale(1,-1)" />
          <rect
             transform="scale(1,-1)"
             ry="1.7824984"
             y="-1050.3622"
             x="1.9999954"
             height="44"
             width="44"
             id="rect2698-5"
             style="opacity:0.15;fill:url(#linearGradient2700-2);fill-opacity:1;stroke:none" />
          <g
             transform="translate(-643.72241,584.57146)"
             id="g4427">
            <rect
               transform="matrix(-2.3953356e-8,-1,1,0,0,0)"
               ry="0.94589925"
               y="665.22241"
               x="-465.79074"
               height="23.349005"
               width="44"
               id="rect2714-6"
               style="fill:#000000;fill-opacity:0.29411765;stroke:none" />
            <rect
               style="fill:url(#linearGradient2875-1);fill-opacity:1;stroke:none"
               id="rect2716-9"
               width="43.360767"
               height="22.689007"
               x="-465.47116"
               y="665.55243"
               ry="0.91916192"
               transform="matrix(-2.372795e-8,-1,1,0,0,0)" />
            <path
               style="fill:#000000;fill-opacity:0.04858303;stroke:none"
               d="m 687.54017,465.47826 c 0.0322,-0.096 0.0625,-0.2058 0.0625,-0.3125 l 0,-41.5 c 0,-0.5092 -0.39703,-0.9375 -0.90625,-0.9375 l -20.84375,0 c -0.0843,0 -0.17172,0.01 -0.25,0.031 0.12979,-0.3638 0.47244,-0.625 0.875,-0.625 l 20.84375,0 c 0.50922,0 0.90625,0.4282 0.90625,0.9375 l 0,41.5 C 688.22767,465.00076 687.93309,465.37156 687.54017,465.47826 Z"
               id="rect2837-5"
               inkscape:connector-curvature="0" />
          </g>
          <path
             sodipodi:nodetypes="cccsssscccc"
             inkscape:connector-curvature="0"
             id="rect2991-1-6"
             d="m 41.279309,1004.3622 -2.25,0 -1.625,0 -35.4668043,0 c -1.0773,0 -1.9375000044434,0.8602 -1.9375000044434,1.9375 l 0,44.125 c 0,1.0773 0.8602000044434,1.9375 1.9375000044434,1.9375 l 37.0914953,0 0,-25.875 L 41.279309,1024.2372 Z"
             style="fill:url(#linearGradient1043-8);fill-opacity:1;stroke:none" />
          <path
             sodipodi:nodetypes="ccccccccc"
             inkscape:connector-curvature="0"
             id="path1068-0"
             d="m 41.716809,1004.3622 -0.4375,0 0,19.875 -2.25,2.25 0,25.875 0.4375,0 0,-25.6875 L 41.716809,1024.4247 Z"
             style="fill:#000000;fill-opacity:0.23529412;stroke:none" />
          <path
             sodipodi:nodetypes="ccccccccc"
             inkscape:connector-curvature="0"
             style="fill:#000000;fill-opacity:0.07843137;stroke:none"
             d="m 42.154309,1004.3622 -0.4375,0 0,20.0625 -2.25,2.25 0,25.6875 0.4375,0 0,-25.5 L 42.154309,1024.6122 Z"
             id="path1080-4" />
          <path
             id="path1082-3"
             d="m 42.595709,1004.3622 -0.4375,0 0,20.2461 -2.25,2.25 0,25.5039 0.4375,0 0,-25.3164 L 42.595709,1024.7958 Z"
             style="fill:#000000;fill-opacity:0.01960784;stroke:none"
             inkscape:connector-curvature="0"
             sodipodi:nodetypes="ccccccccc" />
          <path
             sodipodi:nodetypes="ccccccccc"
             style="fill:#ffffff;fill-opacity:0.23529412;stroke:none"
             d="m 41.279409,1004.3622 -0.4375,0 0,19.6836 -2.2501,2.25 0,26.0664 0.4375,0 0,-25.8789 L 41.279309,1024.2333 Z"
             id="path1113-8"
             inkscape:connector-curvature="0" />
          <path
             sodipodi:nodetypes="ccccccccc"
             id="path1115-2"
             d="m 40.404359,1004.3622 0,19.5 -2.25,2.25 0,26.2188 0.4375,0 0,-26.0313 2.25,-2.25 L 40.841859,1004.3622 Z"
             style="fill:#ffffff;fill-opacity:0.1187944;stroke:none"
             inkscape:connector-curvature="0" />
          <path
             sodipodi:nodetypes="ccccccccc"
             style="fill:#ffffff;fill-opacity:0.02745098;stroke:none"
             d="m 40.409209,1004.3622 -0.4375,0 0,19.3008 -2.2501,2.25 0,26.4258 0.4375,0 0,-26.2383 L 40.409109,1023.8505 Z"
             id="path1117-7"
             inkscape:connector-curvature="0" />
          <path
             inkscape:connector-curvature="0"
             id="path2796-9"
             d="m 1.9375047,1004.3622 c -1.0773,0 -1.9375000044434,0.8602 -1.9375000044434,1.9375 l 0,44.125 c 0,1.0773 0.8602000044434,1.9375 1.9375000044434,1.9375 l 5.0625,0 0,-48 L 1.9375047,1004.3622 Z"
             style="opacity:0.34900004;fill:url(#linearGradient2800-7-9-6);fill-opacity:1;stroke:none" />
          <g
             transform="translate(4.6955566e-6,7.5935545e-6)"
             id="g1588">
            <g
               id="g2708"
               transform="translate(0.023437,8.6914063e-6)">
              <path
                 id="path7515-6"
                 d="m 2.5312499,1005.0185 c -0.9170885,0 -1.67114682,0.6395 -1.84375002,1.5 0.33561202,-0.2799 0.77451212,-0.4375 1.24999992,-0.4375 l 44.1250002,0 c 0.475488,0 0.914388,0.1576 1.25,0.4375 -0.172603,-0.8605 -0.926662,-1.5 -1.84375,-1.5 L 2.5312499,1005.0185 Z"
                 style="fill:#ffffff;fill-opacity:0.5372549;stroke:none"
                 inkscape:connector-curvature="0" />
              <path
                 id="rect846-3"
                 d="m 47.976563,1049.3622 0,1.0625 c 0,1.0773 -0.860223,1.9375 -1.9375,1.9375 l -44.1250005,0 c -1.077277,0 -1.9375,-0.8602 -1.9375,-1.9375 l 0,-1.0625 c 0,1.0773 0.860223,1.9375 1.9375,1.9375 l 44.1250005,0 C 47.11634,1051.2997 47.976563,1050.4395 47.976563,1049.3622 Z"
                 style="fill:#000000;fill-opacity:1;stroke:none"
                 inkscape:connector-curvature="0" />
            </g>
            <path
               inkscape:connector-curvature="0"
               style="fill:#000000;fill-opacity:0.39215686;stroke:none"
               d="m 1.9375,1004.3622 c -1.077277,0 -1.9375,0.8602 -1.9375,1.9375 l 0,43.0625 c 0,0.7934 0.480024,1.449 1.15625,1.75 -0.309342,-0.3333 -0.5,-0.7824 -0.5,-1.2812 l 0,-42.9375 c 0,-1.0482 0.826899,-1.875 1.875,-1.875 l 42.9375,0 c 1.048101,0 1.875,0.8268 1.875,1.875 l 0,42.9375 c 0,0.4988 -0.190658,0.9479 -0.5,1.2812 0.676226,-0.301 1.15625,-0.9566 1.15625,-1.75 l 0,-43.0625 c 0,-1.0773 -0.860223,-1.9375 -1.9375,-1.9375 L 1.9375,1004.3622 Z"
               id="rect4280-5" />
          </g>
        </g>
      </g>
      <g
         inkscape:label="Capa 2"
         id="layer2-9" />
    </g>
    <path
       sodipodi:nodetypes="ccccccccccccccccccccccccccccc"
       inkscape:connector-curvature="0"
       id="path1164"
       d="m 19.666867,1021.8263 -6.351675,4.2105 4.354068,3.4391 L 23.949159,1025.5762 z m -1.997607,7.6496 -4.354068,3.4329 6.351675,4.2105 L 23.949159,1033.3694 z m 10.663874,-7.6496 -4.282301,3.7499 6.279907,3.8997 L 34.684808,1026.0368 z m 1.997606,7.6496 -6.279907,3.8935 4.282301,3.7499 L 34.684808,1032.9088 z m -6.321769,4.5556 -4.330142,3.9487 -2.081342,-1.1602 0,1.1784 6.411484,3.8279 6.411483,-3.8279 0,-1.1784 L 28.333134,1037.9802 Z"
       style="fill:#000000;fill-opacity:0.05882353;stroke:none" />
    <path
       style="fill:#000000;fill-opacity:0.11764706;stroke:none"
       d="m 19.792325,1021.0915 -6.167774,4.1547 4.228004,3.3935 L 23.950631,1024.7917 z m -1.93977,7.5482 -4.228004,3.3874 6.167774,4.1546 L 23.950631,1032.4816 z m 10.355121,-7.5482 -4.158315,3.7002 6.098084,3.848 L 34.375449,1025.2462 z m 1.939769,7.5482 -6.098084,3.8419 4.158315,3.7001 L 34.375449,1032.0271 z m -6.138734,4.4952 -4.204771,3.8963 -2.02108,-1.1448 0,1.1628 6.225851,3.7771 6.22585,-3.7771 0,-1.1628 L 28.207676,1037.0312 Z"
       id="path1162"
       inkscape:connector-curvature="0"
       sodipodi:nodetypes="ccccccccccccccccccccccccccccc" />
    <path
       sodipodi:nodetypes="ccccccccccccccccccccccccccccc"
       inkscape:connector-curvature="0"
       id="path1160"
       d="m 19.666867,1019.8263 -6.351675,4.2105 4.354068,3.4391 L 23.949159,1023.5762 z m -1.997607,7.6496 -4.354068,3.4329 6.351675,4.2105 L 23.949159,1031.3694 z m 10.663874,-7.6496 -4.282301,3.7499 6.279907,3.8997 L 34.684808,1024.0368 z m 1.997606,7.6496 -6.279907,3.8935 4.282301,3.7499 L 34.684808,1030.9088 z m -6.321769,4.5556 -4.330142,3.9487 -2.081342,-1.1602 0,1.1784 6.411484,3.8279 6.411483,-3.8279 0,-1.1784 L 28.333134,1035.9802 Z"
       style="fill:#000000;fill-opacity:0.23529412;stroke:none" />
    <path
       style="fill:url(#linearGradient966);fill-opacity:1.0;stroke:none"
       d="m 19.666867,1018.3622 -6.351675,4.2105 4.354068,3.4391 L 23.949159,1022.1121 z m -1.997607,7.6496 -4.354068,3.4329 6.351675,4.2105 L 23.949159,1029.9053 z m 10.663874,-7.6496 -4.282301,3.7499 6.279907,3.8997 L 34.684808,1022.5727 z m 1.997606,7.6496 -6.279907,3.8935 4.282301,3.7499 L 34.684808,1029.4447 z m -6.321769,4.5556 -4.330142,3.9487 -2.081342,-1.1602 0,1.1784 6.411484,3.8279 6.411483,-3.8279 0,-1.1784 L 28.333134,1034.5161 Z"
       id="path899"
       inkscape:connector-curvature="0"
       sodipodi:nodetypes="ccccccccccccccccccccccccccccc" />
    <g
       transform="translate(67.570328,1004.3622)"
       id="layer2-1"
       inkscape:label="Capa 2" />
  </g>
  <g
     inkscape:groupmode="layer"
     id="layer2"
     inkscape:label="Capa 2" />
</svg>
