<?xml version="1.0" encoding="UTF-8" standalone="no"?>
<!-- Created with Inkscape (http://www.inkscape.org/) -->

<svg
   xmlns:dc="http://purl.org/dc/elements/1.1/"
   xmlns:cc="http://creativecommons.org/ns#"
   xmlns:rdf="http://www.w3.org/1999/02/22-rdf-syntax-ns#"
   xmlns:svg="http://www.w3.org/2000/svg"
   xmlns="http://www.w3.org/2000/svg"
   xmlns:xlink="http://www.w3.org/1999/xlink"
   xmlns:sodipodi="http://sodipodi.sourceforge.net/DTD/sodipodi-0.dtd"
   xmlns:inkscape="http://www.inkscape.org/namespaces/inkscape"
   width="48"
   height="48"
   id="svg3022"
   version="1.1"
   inkscape:version="0.48+devel r12347"
   sodipodi:docname="start-here.svg">
  <defs
     id="defs3024">
    <linearGradient
       inkscape:collect="always"
       id="linearGradient839">
      <stop
         style="stop-color:#282e3a;stop-opacity:1;"
         offset="0"
         id="stop841" />
      <stop
         style="stop-color:#485368;stop-opacity:1"
         offset="1"
         id="stop843" />
    </linearGradient>
    <linearGradient
       inkscape:collect="always"
       xlink:href="#linearGradient1081"
       id="linearGradient5113"
       gradientUnits="userSpaceOnUse"
       x1="1057.4393"
       y1="1410.5856"
       x2="1036.4791"
       y2="1324.2263"
       gradientTransform="matrix(0.09217992,0,0,0.09217992,-85.377231,914.6515)" />
    <linearGradient
       inkscape:collect="always"
       id="linearGradient1081">
      <stop
         style="stop-color:#00618e;stop-opacity:1"
         offset="0"
         id="stop1083" />
      <stop
         style="stop-color:#0086c6;stop-opacity:1"
         offset="1"
         id="stop1085" />
    </linearGradient>
    <linearGradient
       inkscape:collect="always"
       xlink:href="#linearGradient1052"
       id="linearGradient1930"
       gradientUnits="userSpaceOnUse"
       x1="1106.9368"
       y1="1061.2748"
       x2="1036.4791"
       y2="1324.2263"
       gradientTransform="matrix(0.09217992,0,0,0.09217992,-85.377231,914.6515)" />
    <linearGradient
       inkscape:collect="always"
       id="linearGradient1052">
      <stop
         style="stop-color:#000000;stop-opacity:1;"
         offset="0"
         id="stop1054" />
      <stop
         style="stop-color:#000000;stop-opacity:0;"
         offset="1"
         id="stop1056" />
    </linearGradient>
    <linearGradient
       inkscape:collect="always"
       xlink:href="#linearGradient1351"
       id="linearGradient5231"
       x1="1031.6688"
       y1="1691.4762"
       x2="1031.6688"
       y2="1457.2139"
       gradientUnits="userSpaceOnUse"
       gradientTransform="matrix(0.09217992,0,0,0.09217992,-80.781967,888.43902)" />
    <linearGradient
       id="linearGradient1351"
       inkscape:collect="always">
      <stop
         id="stop1353"
         offset="0"
         style="stop-color:#00618e;stop-opacity:1" />
      <stop
         id="stop1355"
         offset="1"
         style="stop-color:#05aeff;stop-opacity:1" />
    </linearGradient>
    <linearGradient
       inkscape:collect="always"
       xlink:href="#linearGradient1351"
       id="linearGradient1909"
       x1="1036.5625"
       y1="1406.3594"
       x2="1036.6875"
       y2="1406.3594"
       gradientUnits="userSpaceOnUse"
       gradientTransform="matrix(0.09217992,0,0,0.09217992,-85.377231,914.6515)" />
    <linearGradient
       inkscape:collect="always"
       xlink:href="#linearGradient1351"
       id="linearGradient1907"
       x1="1201.1835"
       y1="1225.0498"
       x2="1035.5745"
       y2="1059.4408"
       gradientUnits="userSpaceOnUse"
       gradientTransform="matrix(0.09217992,0,0,0.09217992,-85.377231,914.6515)" />
    <linearGradient
       inkscape:collect="always"
       xlink:href="#linearGradient1081"
       id="linearGradient1880"
       x1="1139.175"
       y1="1406.5023"
       x2="1139.175"
       y2="1290.7222"
       gradientUnits="userSpaceOnUse"
       gradientTransform="matrix(0.09217992,0,0,0.09217992,-85.377231,914.6515)" />
    <linearGradient
       inkscape:collect="always"
       xlink:href="#linearGradient1351"
       id="linearGradient5122"
       gradientUnits="userSpaceOnUse"
       x1="1241"
       y1="1320.7019"
       x2="1241"
       y2="1154.375"
       gradientTransform="matrix(0.09217992,0,0,0.09217992,-85.377231,914.6515)" />
    <linearGradient
       y2="1154.375"
       x2="1241"
       y1="1320.7019"
       x1="1241"
       gradientTransform="matrix(0.09217992,0,0,0.09217992,-85.377231,914.6515)"
       gradientUnits="userSpaceOnUse"
       id="linearGradient1198"
       xlink:href="#linearGradient1351"
       inkscape:collect="always" />
    <linearGradient
       inkscape:collect="always"
       xlink:href="#linearGradient839"
       id="linearGradient1429"
       x1="75.875"
       y1="-1051.6122"
       x2="75.875"
       y2="-1003.6122"
       gradientUnits="userSpaceOnUse"
       gradientTransform="translate(-52.000001,-0.75001738)" />
    <linearGradient
       inkscape:collect="always"
       xlink:href="#linearGradient1351"
       id="linearGradient2458"
       gradientUnits="userSpaceOnUse"
       gradientTransform="matrix(0.09217992,0,0,0.09217992,-85.377231,914.6515)"
       x1="1241"
       y1="1320.7019"
       x2="1241"
       y2="1154.375" />
    <linearGradient
       inkscape:collect="always"
       xlink:href="#linearGradient1351"
       id="linearGradient2460"
       gradientUnits="userSpaceOnUse"
       gradientTransform="matrix(0.09217992,0,0,0.09217992,-85.377231,914.6515)"
       x1="1241"
       y1="1320.7019"
       x2="1241"
       y2="1154.375" />
    <linearGradient
       inkscape:collect="always"
       xlink:href="#linearGradient1081"
       id="linearGradient2462"
       gradientUnits="userSpaceOnUse"
       gradientTransform="matrix(0.09217992,0,0,0.09217992,-85.377231,914.6515)"
       x1="1139.175"
       y1="1406.5023"
       x2="1139.175"
       y2="1290.7222" />
    <linearGradient
       inkscape:collect="always"
       xlink:href="#linearGradient1351"
       id="linearGradient2464"
       gradientUnits="userSpaceOnUse"
       gradientTransform="matrix(0.09217992,0,0,0.09217992,-85.377231,914.6515)"
       x1="1201.1835"
       y1="1225.0498"
       x2="1035.5745"
       y2="1059.4408" />
    <linearGradient
       inkscape:collect="always"
       xlink:href="#linearGradient1351"
       id="linearGradient2466"
       gradientUnits="userSpaceOnUse"
       gradientTransform="matrix(0.09217992,0,0,0.09217992,-85.377231,914.6515)"
       x1="1036.5625"
       y1="1406.3594"
       x2="1036.6875"
       y2="1406.3594" />
    <linearGradient
       inkscape:collect="always"
       xlink:href="#linearGradient1351"
       id="linearGradient2468"
       gradientUnits="userSpaceOnUse"
       gradientTransform="matrix(0.09217992,0,0,0.09217992,-80.781967,888.43902)"
       x1="1031.6688"
       y1="1691.4762"
       x2="1031.6688"
       y2="1457.2139" />
    <linearGradient
       inkscape:collect="always"
       xlink:href="#linearGradient1052"
       id="linearGradient2470"
       gradientUnits="userSpaceOnUse"
       gradientTransform="matrix(0.09217992,0,0,0.09217992,-85.377231,914.6515)"
       x1="1106.9368"
       y1="1061.2748"
       x2="1036.4791"
       y2="1324.2263" />
    <linearGradient
       inkscape:collect="always"
       xlink:href="#linearGradient1081"
       id="linearGradient2472"
       gradientUnits="userSpaceOnUse"
       gradientTransform="matrix(0.09217992,0,0,0.09217992,-85.377231,914.6515)"
       x1="1057.4393"
       y1="1410.5856"
       x2="1036.4791"
       y2="1324.2263" />
  </defs>
  <sodipodi:namedview
     id="base"
     pagecolor="#ffffff"
     bordercolor="#666666"
     borderopacity="1.0"
     inkscape:pageopacity="0.0"
     inkscape:pageshadow="2"
     inkscape:zoom="8"
     inkscape:cx="9.9540886"
     inkscape:cy="38.739567"
     inkscape:document-units="px"
     inkscape:current-layer="layer1"
     showgrid="false"
     inkscape:window-width="1366"
     inkscape:window-height="714"
     inkscape:window-x="0"
     inkscape:window-y="30"
     inkscape:window-maximized="1"
     showguides="false" />
  <metadata
     id="metadata3027">
    <rdf:RDF>
      <cc:Work
         rdf:about="">
        <dc:format>image/svg+xml</dc:format>
        <dc:type
           rdf:resource="http://purl.org/dc/dcmitype/StillImage" />
        <dc:title />
      </cc:Work>
    </rdf:RDF>
  </metadata>
  <g
     inkscape:label="Capa 1"
     inkscape:groupmode="layer"
     id="layer1"
     transform="translate(0,-1004.3622)">
    <rect
       style="fill:url(#linearGradient1429);fill-opacity:1;stroke:none"
       id="rect2991-1-7"
       width="48"
       height="48"
       x="6.8146974e-06"
       y="-1052.3622"
       ry="1.9445436"
       transform="scale(1,-1)" />
    <path
       inkscape:connector-curvature="0"
       style="fill:#000000;fill-opacity:1;stroke:none"
       d="m -6.8146973e-6,1049.3622 0,1.0625 c 0,1.0773 0.8602200046973,1.9375 1.9375000146973,1.9375 l 44.1249998,0 c 1.07728,0 1.9375,-0.8602 1.9375,-1.9375 l 0,-1.0625 c 0,1.0773 -0.86022,1.9375 -1.9375,1.9375 l -44.1249998,0 C 0.86021319,1051.2997 -6.8146973e-6,1050.4395 -6.8146973e-6,1049.3622 Z"
       id="rect846" />
    <path
       inkscape:connector-curvature="0"
       style="fill:#ffffff;fill-opacity:0.5372549;stroke:none"
       d="m 2.5312432,1005.0185 c -0.91709,0 -1.67115001,0.6395 -1.84375001,1.5 0.33561001,-0.2799 0.77451001,-0.4375 1.25000001,-0.4375 l 44.1249998,0 c 0.47549,0 0.91439,0.1576 1.25,0.4375 -0.1726,-0.8605 -0.92666,-1.5 -1.84375,-1.5 L 2.5312432,1005.0185 Z"
       id="path7515" />
    <path
       inkscape:connector-curvature="0"
       style="fill:#000000;fill-opacity:0.39215686;stroke:none"
       d="m 1.9374932,1004.3622 c -1.07728001,0 -1.9375000146973,0.8602 -1.9375000146973,1.9375 l 0,43.0625 c 0,0.7934 0.4800200046973,1.449 1.1562500146973,1.75 -0.30934001,-0.3333 -0.50000001,-0.7824 -0.50000001,-1.2812 l 0,-42.9375 c 0,-1.0482 0.82690001,-1.875 1.87500001,-1.875 l 42.9374998,0 c 1.0481,0 1.875,0.8268 1.875,1.875 l 0,42.9375 c 0,0.4988 -0.19066,0.9479 -0.5,1.2812 0.67623,-0.301 1.15625,-0.9566 1.15625,-1.75 l 0,-43.0625 c 0,-1.0773 -0.86022,-1.9375 -1.9375,-1.9375 L 1.9374932,1004.3622 Z"
       id="rect4280" />
    <g
       id="g2035"
       transform="matrix(0.9999625,0,0,0.9999625,9e-4,0.03796361)">
      <path
         id="path5344"
         d="m 10.184535,1012.3629 c 0,0.01 -9.22e-4,0.01 0,0.012 l -0.01152,-0.01 0,10.4019 0,0.4552 0,5.1073 0,0.063 0,15.5036 0,0.3888 0,0.011 0,0.052 0,0.01 c 0.04962,-0.049 0.09775,-0.098 0.146908,-0.1469 L 24,1036.3154 l 4.153857,-2.3996 0.495467,-0.2852 9.177664,-5.2975 -12.596966,-7.2707 c 8.85e-4,0 0.0022,-0.01 0.0029,-0.011 L 23.99999,1020.3395 10.184535,1012.3629 z m 13.201888,15.2155 c -0.05035,0.1298 -0.100863,0.2598 -0.152669,0.3888 C 23.285504,1027.8383 23.33612,1027.708 23.386423,1027.5784 z m -1.255951,2.8604 c -0.06574,0.1338 -0.131421,0.2676 -0.198759,0.4005 -0.06681,0.1317 -0.133274,0.2637 -0.201643,0.3946 -0.205608,0.3935 -0.42,0.7818 -0.639499,1.1667 0.219739,-0.3852 0.433661,-0.7729 0.639499,-1.1667 0.06861,-0.1312 0.134601,-0.2624 0.201643,-0.3946 C 21.998756,1030.707 22.065015,1030.5719 22.130472,1030.4388 z m -1.264589,2.3506 c -0.07426,0.1266 -0.148944,0.2519 -0.224689,0.3774 C 20.716791,1033.0415 20.79177,1032.9157 20.865883,1032.7894 z m -0.455139,0.7548 c -0.07761,0.1251 -0.15713,0.2503 -0.236211,0.3745 C 20.25379,1033.7943 20.332972,1033.6696 20.410744,1033.5442 Z"
         style="fill:url(#linearGradient2458);fill-opacity:1;stroke:none;display:inline"
         inkscape:connector-curvature="0" />
      <path
         inkscape:export-ydpi="90"
         inkscape:export-xdpi="90"
         inkscape:export-filename="/home/uri/logo.png"
         inkscape:connector-curvature="0"
         id="path5118"
         d="m 25.230022,1021.0617 c -1.042611,5.6866 -3.411607,10.907 -6.778101,15.3307 0.04503,-0.026 0.08955,-0.053 0.135394,-0.078 0.31697,-0.1722 0.638982,-0.3384 0.965004,-0.4955 0.326022,-0.1571 0.656358,-0.3049 0.990934,-0.4464 0.334576,-0.1415 0.674204,-0.275 1.016864,-0.4005 0.342624,-0.1254 0.689626,-0.2425 1.0399,-0.3514 0.350275,-0.1089 0.702651,-0.2105 1.060069,-0.3024 0.357419,-0.092 0.719013,-0.1762 1.083114,-0.2507 0.364102,-0.075 0.732969,-0.1393 1.103283,-0.1959 0.370305,-0.057 0.741616,-0.1029 1.117682,-0.1411 0.37602,-0.038 0.75652,-0.067 1.137841,-0.086 0.181585,-0.01 0.364618,-0.01 0.547318,-0.015 l 9.177664,-5.2971 L 25.230022,1021.0617 Z"
         style="fill:url(#linearGradient2460);fill-opacity:1;stroke:none;display:inline" />
      <path
         inkscape:export-ydpi="90"
         inkscape:export-xdpi="90"
         inkscape:export-filename="/home/uri/logo.png"
         inkscape:connector-curvature="0"
         id="path1872"
         d="m 28.649324,1033.6299 c -0.1827,0.01 -0.365733,0.01 -0.547318,0.015 -0.381321,0.019 -0.761793,0.048 -1.137841,0.086 -0.376057,0.038 -0.747377,0.084 -1.117682,0.1411 -0.370314,0.057 -0.739181,0.1214 -1.103283,0.1959 -0.364101,0.074 -0.725695,0.1586 -1.083114,0.2505 -0.357418,0.092 -0.709794,0.1936 -1.060069,0.3025 -0.350274,0.109 -0.697249,0.226 -1.0399,0.3515 -0.34266,0.1254 -0.682288,0.2588 -1.016864,0.4004 -0.334576,0.1415 -0.664912,0.2894 -0.990934,0.4465 -0.326022,0.1571 -0.648006,0.3233 -0.965004,0.4955 -0.317007,0.1722 -0.628695,0.3518 -0.936207,0.5387 -0.307512,0.1868 -0.609844,0.3808 -0.907392,0.5818 -0.297556,0.201 -0.588587,0.4104 -0.875709,0.6251 -0.287131,0.2147 -0.570676,0.4346 -0.846912,0.6626 -0.276226,0.2279 -0.547457,0.4621 -0.812326,0.7028 -0.264879,0.2408 -0.521849,0.4873 -0.774892,0.7403 -0.253043,0.2531 -0.502464,0.5129 -0.743201,0.7778 -0.240737,0.2649 -0.474901,0.5361 -0.702871,0.8124 -0.227971,0.2762 -0.44781,0.5569 -0.662544,0.844 -0.214733,0.2871 -0.424073,0.581 -0.625099,0.8785 -0.181945,0.2694 -0.356792,0.5435 -0.52715,0.821 L 24,1036.3146 28.649324,1033.6299 Z"
         style="fill:url(#linearGradient2462);fill-opacity:1;stroke:none;display:inline" />
      <path
         inkscape:connector-curvature="0"
         id="path5276"
         d="m 28.649324,1033.6299 c -0.1827,0.01 -0.365733,0.01 -0.547318,0.015 -0.381321,0.019 -0.761802,0.048 -1.137841,0.086 -0.376066,0.038 -0.747385,0.084 -1.117682,0.1411 -0.370314,0.057 -0.739181,0.1214 -1.103283,0.1959 -0.364101,0.074 -0.725695,0.1586 -1.083114,0.2505 -0.357418,0.092 -0.709794,0.1936 -1.060069,0.3025 -0.350274,0.109 -0.697258,0.226 -1.0399,0.3515 -0.34267,0.1254 -0.682288,0.2588 -1.016864,0.4004 -0.334576,0.1415 -0.664912,0.2894 -0.990934,0.4465 -0.326022,0.1571 -0.648016,0.3233 -0.965004,0.4955 -0.317016,0.1722 -0.628695,0.3518 -0.936207,0.5387 -0.307512,0.1868 -0.609853,0.3808 -0.907392,0.5818 -0.297565,0.201 -0.588596,0.4104 -0.875709,0.6251 -0.28714,0.2148 -0.570676,0.4346 -0.846912,0.6626 -0.276217,0.2279 -0.547465,0.4621 -0.812326,0.7028 -0.264879,0.2408 -0.521849,0.4873 -0.774892,0.7403 -0.253043,0.2531 -0.502464,0.5129 -0.743201,0.7778 -0.240737,0.2649 -0.474901,0.5361 -0.702871,0.8124 -0.227971,0.2762 -0.44781,0.5569 -0.662544,0.844 -0.214733,0.2871 -0.424064,0.581 -0.625099,0.8785 -0.181936,0.2694 -0.356792,0.5435 -0.52715,0.821 l 0.126748,-0.072 c 0.10114,-0.159 0.202833,-0.3164 0.308222,-0.4724 0.201035,-0.2976 0.410366,-0.5915 0.625099,-0.8786 0.214734,-0.2871 0.434573,-0.5678 0.662544,-0.844 0.22797,-0.2763 0.462134,-0.5475 0.702871,-0.8124 0.240737,-0.2649 0.490158,-0.5247 0.743201,-0.7778 0.253043,-0.253 0.510013,-0.4995 0.774892,-0.7403 0.264861,-0.2407 0.536109,-0.4749 0.812326,-0.7028 0.276236,-0.228 0.559772,-0.4478 0.846912,-0.6625 0.287113,-0.2148 0.578144,-0.4241 0.87571,-0.6252 0.297538,-0.201 0.599879,-0.395 0.907391,-0.5818 0.307513,-0.1869 0.619191,-0.3665 0.936207,-0.5387 0.316988,-0.1722 0.638982,-0.3384 0.965004,-0.4955 0.326022,-0.1571 0.656358,-0.305 0.990934,-0.4465 0.334576,-0.1415 0.674195,-0.2749 1.016864,-0.4004 0.342643,-0.1255 0.689626,-0.2425 1.0399,-0.3514 0.350275,-0.109 0.702651,-0.2106 1.060069,-0.3025 0.357419,-0.092 0.719013,-0.1761 1.083114,-0.2506 0.364102,-0.074 0.732969,-0.1393 1.103283,-0.1959 0.370297,-0.057 0.741616,-0.1029 1.117682,-0.1411 0.376039,-0.038 0.75652,-0.067 1.137841,-0.086 0.04779,-0.01 0.09606,-0.01 0.144031,-0.01 L 28.649324,1033.6299 Z"
         style="fill:#000000;fill-opacity:0.19607843;stroke:none;display:inline" />
      <path
         sodipodi:nodetypes="cccccccccccc"
         inkscape:connector-curvature="0"
         id="path1863"
         d="m 10.184535,1012.3622 c 0,0.01 -9.22e-4,0.01 0,0.012 l -0.01152,-0.01 0,15.9645 0,15.9557 0.0028,0 0.08353,-0.049 c 3.823447,-2.6567 7.109477,-6.0318 9.664493,-9.9296 0.01175,-0.02 0,0 0.01153,-0.02 2.583204,-3.9463 4.416441,-8.4252 5.29746,-13.2393 L 23.999973,1020.3387 Z"
         style="fill:url(#linearGradient2464);fill-opacity:1;stroke:none;display:inline" />
      <path
         sodipodi:nodetypes="cccccccccccccccc"
         inkscape:connector-curvature="0"
         id="path5271"
         d="m 25.120539,1020.9839 c -0.918831,4.5941 -2.705941,8.873 -5.18512,12.6604 -0.0028,-0.01 -0.0059,-0.01 -0.0087,-0.01 -0.0027,0.01 -0.006,0.01 -0.0087,0.011 -0.002,0 -0.0039,0.01 -0.0057,0.01 0.0032,0 0.0083,0.01 0.01153,0.01 -2.555025,3.8977 -5.841045,7.2728 -9.664493,9.9294 l -0.08353,0.05 -0.0028,0 0,0.6452 0.0028,0 0.08353,-0.049 c 3.823448,-2.6566 7.109468,-6.0317 9.664493,-9.9295 -0.0058,-0.01 0,0 0.01153,-0.02 C 22.518613,1030.3433 24.35186,1025.8643 25.232879,1021.0502 Z"
         style="fill:#000000;fill-opacity:0.03921569;stroke:none;display:inline" />
      <path
         inkscape:export-ydpi="90"
         inkscape:export-xdpi="90"
         inkscape:export-filename="/home/uri/logo.png"
         inkscape:connector-curvature="0"
         id="path1897"
         d="m 10.173012,1044.2882 0,0.011 c 0.0041,-0.01 0.0075,-0.014 0.01152,-0.021 C 10.18059,1044.2823 10.176958,1044.2854 10.173012,1044.2882 Z"
         style="fill:url(#linearGradient2466);fill-opacity:1;stroke:none;display:inline" />
      <path
         inkscape:connector-curvature="0"
         id="path5200"
         d="m 10.173012,1022.7689 0,5.6287 0,15.9558 0,0.01 c 1.712436,-1.6814 3.154194,-3.6356 4.257561,-5.793 0.602672,-1.5517 0.933321,-3.2388 0.933321,-5.0036 C 15.363894,1029.197 13.336416,1025.3028 10.173012,1022.7689 Z"
         style="fill:url(#linearGradient2468);fill-opacity:1;stroke:none;display:inline" />
      <path
         inkscape:export-ydpi="90"
         inkscape:export-xdpi="90"
         inkscape:export-filename="/home/uri/logo.png"
         inkscape:connector-curvature="0"
         id="path1926"
         d="m 10.173012,1012.368 0,15.9644 0,15.9558 c 0.004,-0.01 0.0076,-0.01 0.01152,-0.01 0.166514,-0.2707 0.338024,-0.5379 0.515627,-0.8008 0.201044,-0.2975 0.410366,-0.5915 0.625099,-0.8786 0.214734,-0.2871 0.434573,-0.5678 0.662544,-0.844 0.22797,-0.2762 0.462134,-0.5474 0.702872,-0.8123 0.240736,-0.2649 0.490157,-0.5248 0.7432,-0.7778 0.04763,-0.048 0.0961,-0.094 0.144032,-0.1411 2.090262,-3.4028 3.295432,-7.4062 3.295432,-11.6925 C 16.873341,1022.0803 14.307605,1016.4276 10.173012,1012.368 Z"
         style="fill:url(#linearGradient2470);fill-opacity:1;stroke:none;display:inline" />
      <path
         inkscape:connector-curvature="0"
         id="path5266"
         d="m 10.173012,1022.7699 0,0.4552 c 3.120936,2.4999 5.13445,6.3237 5.188006,10.6208 0.0018,-0.093 0.0029,-0.1856 0.0029,-0.2794 C 15.363894,1029.198 13.336416,1025.3038 10.173012,1022.7699 Z"
         style="fill:#000000;fill-opacity:0.23529412;stroke:none;display:inline" />
      <path
         inkscape:export-ydpi="90"
         inkscape:export-xdpi="90"
         inkscape:export-filename="/home/uri/logo.png"
         inkscape:connector-curvature="0"
         id="path5109"
         d="m 10.173012,1018.3827 0,9.9497 0,15.9558 c 0.0022,-0.01 0.0037,-0.01 0.0057,-0.01 1.539635,-4.0184 2.385155,-8.3798 2.385155,-12.9398 C 12.563929,1026.7762 11.716777,1022.4058 10.173012,1018.3827 Z"
         style="fill:url(#linearGradient2472);fill-opacity:1;stroke:none;display:inline" />
      <path
         inkscape:connector-curvature="0"
         id="path5261"
         d="m 12.54376,1030.1674 c 0.0059,0.2686 0.0087,0.5365 0.0087,0.8065 0,4.5546 -0.843271,8.911 -2.379394,12.9254 l 0,0.3889 c 0.0022,-0.01 0.0038,-0.01 0.0057,-0.01 1.539635,-4.0184 2.385155,-8.3798 2.385155,-12.9398 C 12.563929,1030.9493 12.556241,1030.5578 12.54376,1030.1674 Z"
         style="fill:#1a1a1a;fill-opacity:0.31372549;stroke:none;display:inline" />
      <path
         inkscape:connector-curvature="0"
         style="fill:url(#linearGradient1198);fill-opacity:1;stroke:none;display:inline"
         d="m 10.184535,1012.3629 c 0,0.01 -9.22e-4,0.01 0,0.012 l -0.01152,-0.01 0,10.4019 0,0.4552 0,5.1073 0,0.063 0,15.5036 0,0.3888 0,0.011 0,0.052 0,0.01 c 0.04962,-0.049 0.09775,-0.098 0.146908,-0.1469 L 24,1036.3154 l 4.153857,-2.3996 0.495467,-0.2852 9.177664,-5.2975 -12.596966,-7.2707 c 8.85e-4,0 0.0022,-0.01 0.0029,-0.011 L 23.99999,1020.3395 10.184535,1012.3629 z m 13.201888,15.2155 c -0.05035,0.1298 -0.100863,0.2598 -0.152669,0.3888 C 23.285504,1027.8383 23.33612,1027.708 23.386423,1027.5784 z m -1.255951,2.8604 c -0.06574,0.1338 -0.131421,0.2676 -0.198759,0.4005 -0.06681,0.1317 -0.133274,0.2637 -0.201643,0.3946 -0.205608,0.3935 -0.42,0.7818 -0.639499,1.1667 0.219739,-0.3852 0.433661,-0.7729 0.639499,-1.1667 0.06861,-0.1312 0.134601,-0.2624 0.201643,-0.3946 C 21.998756,1030.707 22.065015,1030.5719 22.130472,1030.4388 z m -1.264589,2.3506 c -0.07426,0.1266 -0.148944,0.2519 -0.224689,0.3774 C 20.716791,1033.0415 20.79177,1032.9157 20.865883,1032.7894 z m -0.455139,0.7548 c -0.07761,0.1251 -0.15713,0.2503 -0.236211,0.3745 C 20.25379,1033.7943 20.332972,1033.6696 20.410744,1033.5442 Z"
         id="path1449" />
      <path
         style="fill:url(#linearGradient5122);fill-opacity:1;stroke:none;display:inline"
         d="m 25.230022,1021.0617 c -1.042611,5.6866 -3.411607,10.907 -6.778101,15.3307 0.04503,-0.026 0.08955,-0.053 0.135394,-0.078 0.31697,-0.1722 0.638982,-0.3384 0.965004,-0.4955 0.326022,-0.1571 0.656358,-0.3049 0.990934,-0.4464 0.334576,-0.1415 0.674204,-0.275 1.016864,-0.4005 0.342624,-0.1254 0.689626,-0.2425 1.0399,-0.3514 0.350275,-0.1089 0.702651,-0.2105 1.060069,-0.3024 0.357419,-0.092 0.719013,-0.1762 1.083114,-0.2507 0.364102,-0.075 0.732969,-0.1393 1.103283,-0.1959 0.370305,-0.057 0.741616,-0.1029 1.117682,-0.1411 0.37602,-0.038 0.75652,-0.067 1.137841,-0.086 0.181585,-0.01 0.364618,-0.01 0.547318,-0.015 l 9.177664,-5.2971 L 25.230022,1021.0617 Z"
         id="path1451"
         inkscape:connector-curvature="0"
         inkscape:export-filename="/home/uri/logo.png"
         inkscape:export-xdpi="90"
         inkscape:export-ydpi="90" />
      <path
         style="fill:url(#linearGradient1880);fill-opacity:1;stroke:none;display:inline"
         d="m 28.649324,1033.6299 c -0.1827,0.01 -0.365733,0.01 -0.547318,0.015 -0.381321,0.019 -0.761793,0.048 -1.137841,0.086 -0.376057,0.038 -0.747377,0.084 -1.117682,0.1411 -0.370314,0.057 -0.739181,0.1214 -1.103283,0.1959 -0.364101,0.074 -0.725695,0.1586 -1.083114,0.2505 -0.357418,0.092 -0.709794,0.1936 -1.060069,0.3025 -0.350274,0.109 -0.697249,0.226 -1.0399,0.3515 -0.34266,0.1254 -0.682288,0.2588 -1.016864,0.4004 -0.334576,0.1415 -0.664912,0.2894 -0.990934,0.4465 -0.326022,0.1571 -0.648006,0.3233 -0.965004,0.4955 -0.317007,0.1722 -0.628695,0.3518 -0.936207,0.5387 -0.307512,0.1868 -0.609844,0.3808 -0.907392,0.5818 -0.297556,0.201 -0.588587,0.4104 -0.875709,0.6251 -0.287131,0.2147 -0.570676,0.4346 -0.846912,0.6626 -0.276226,0.2279 -0.547457,0.4621 -0.812326,0.7028 -0.264879,0.2408 -0.521849,0.4873 -0.774892,0.7403 -0.253043,0.2531 -0.502464,0.5129 -0.743201,0.7778 -0.240737,0.2649 -0.474901,0.5361 -0.702871,0.8124 -0.227971,0.2762 -0.44781,0.5569 -0.662544,0.844 -0.214733,0.2871 -0.424073,0.581 -0.625099,0.8785 -0.181945,0.2694 -0.356792,0.5435 -0.52715,0.821 L 24,1036.3146 28.649324,1033.6299 Z"
         id="path1453"
         inkscape:connector-curvature="0"
         inkscape:export-filename="/home/uri/logo.png"
         inkscape:export-xdpi="90"
         inkscape:export-ydpi="90" />
      <path
         style="fill:#000000;fill-opacity:0.19607843;stroke:none;display:inline"
         d="m 28.649324,1033.6299 c -0.1827,0.01 -0.365733,0.01 -0.547318,0.015 -0.381321,0.019 -0.761802,0.048 -1.137841,0.086 -0.376066,0.038 -0.747385,0.084 -1.117682,0.1411 -0.370314,0.057 -0.739181,0.1214 -1.103283,0.1959 -0.364101,0.074 -0.725695,0.1586 -1.083114,0.2505 -0.357418,0.092 -0.709794,0.1936 -1.060069,0.3025 -0.350274,0.109 -0.697258,0.226 -1.0399,0.3515 -0.34267,0.1254 -0.682288,0.2588 -1.016864,0.4004 -0.334576,0.1415 -0.664912,0.2894 -0.990934,0.4465 -0.326022,0.1571 -0.648016,0.3233 -0.965004,0.4955 -0.317016,0.1722 -0.628695,0.3518 -0.936207,0.5387 -0.307512,0.1868 -0.609853,0.3808 -0.907392,0.5818 -0.297565,0.201 -0.588596,0.4104 -0.875709,0.6251 -0.28714,0.2148 -0.570676,0.4346 -0.846912,0.6626 -0.276217,0.2279 -0.547465,0.4621 -0.812326,0.7028 -0.264879,0.2408 -0.521849,0.4873 -0.774892,0.7403 -0.253043,0.2531 -0.502464,0.5129 -0.743201,0.7778 -0.240737,0.2649 -0.474901,0.5361 -0.702871,0.8124 -0.227971,0.2762 -0.44781,0.5569 -0.662544,0.844 -0.214733,0.2871 -0.424064,0.581 -0.625099,0.8785 -0.181936,0.2694 -0.356792,0.5435 -0.52715,0.821 l 0.126748,-0.072 c 0.10114,-0.159 0.202833,-0.3164 0.308222,-0.4724 0.201035,-0.2976 0.410366,-0.5915 0.625099,-0.8786 0.214734,-0.2871 0.434573,-0.5678 0.662544,-0.844 0.22797,-0.2763 0.462134,-0.5475 0.702871,-0.8124 0.240737,-0.2649 0.490158,-0.5247 0.743201,-0.7778 0.253043,-0.253 0.510013,-0.4995 0.774892,-0.7403 0.264861,-0.2407 0.536109,-0.4749 0.812326,-0.7028 0.276236,-0.228 0.559772,-0.4478 0.846912,-0.6625 0.287113,-0.2148 0.578144,-0.4241 0.87571,-0.6252 0.297538,-0.201 0.599879,-0.395 0.907391,-0.5818 0.307513,-0.1869 0.619191,-0.3665 0.936207,-0.5387 0.316988,-0.1722 0.638982,-0.3384 0.965004,-0.4955 0.326022,-0.1571 0.656358,-0.305 0.990934,-0.4465 0.334576,-0.1415 0.674195,-0.2749 1.016864,-0.4004 0.342643,-0.1255 0.689626,-0.2425 1.0399,-0.3514 0.350275,-0.109 0.702651,-0.2106 1.060069,-0.3025 0.357419,-0.092 0.719013,-0.1761 1.083114,-0.2506 0.364102,-0.074 0.732969,-0.1393 1.103283,-0.1959 0.370297,-0.057 0.741616,-0.1029 1.117682,-0.1411 0.376039,-0.038 0.75652,-0.067 1.137841,-0.086 0.04779,-0.01 0.09606,-0.01 0.144031,-0.01 L 28.649324,1033.6299 Z"
         id="path1455"
         inkscape:connector-curvature="0" />
      <path
         style="fill:url(#linearGradient1907);fill-opacity:1;stroke:none;display:inline"
         d="m 10.184535,1012.3622 c 0,0.01 -9.22e-4,0.01 0,0.012 l -0.01152,-0.01 0,15.9645 0,15.9557 0.0028,0 0.08353,-0.049 c 3.823447,-2.6567 7.109477,-6.0318 9.664493,-9.9296 0.01175,-0.02 0,0 0.01153,-0.02 2.583204,-3.9463 4.416441,-8.4252 5.29746,-13.2393 L 23.999973,1020.3387 Z"
         id="path1457"
         inkscape:connector-curvature="0"
         sodipodi:nodetypes="cccccccccccc" />
      <path
         style="fill:#000000;fill-opacity:0.03921569;stroke:none;display:inline"
         d="m 25.120539,1020.9839 c -0.918831,4.5941 -2.705941,8.873 -5.18512,12.6604 -0.0028,-0.01 -0.0059,-0.01 -0.0087,-0.01 -0.0027,0.01 -0.006,0.01 -0.0087,0.011 -0.002,0 -0.0039,0.01 -0.0057,0.01 0.0032,0 0.0083,0.01 0.01153,0.01 -2.555025,3.8977 -5.841045,7.2728 -9.664493,9.9294 l -0.08353,0.05 -0.0028,0 0,0.6452 0.0028,0 0.08353,-0.049 c 3.823448,-2.6566 7.109468,-6.0317 9.664493,-9.9295 -0.0058,-0.01 0,0 0.01153,-0.02 C 22.518613,1030.3433 24.35186,1025.8643 25.232879,1021.0502 Z"
         id="path1459"
         inkscape:connector-curvature="0"
         sodipodi:nodetypes="cccccccccccccccc" />
      <path
         style="fill:url(#linearGradient1909);fill-opacity:1;stroke:none;display:inline"
         d="m 10.173012,1044.2882 0,0.011 c 0.0041,-0.01 0.0075,-0.014 0.01152,-0.021 C 10.18059,1044.2823 10.176958,1044.2854 10.173012,1044.2882 Z"
         id="path1461"
         inkscape:connector-curvature="0"
         inkscape:export-filename="/home/uri/logo.png"
         inkscape:export-xdpi="90"
         inkscape:export-ydpi="90" />
      <path
         style="fill:url(#linearGradient5231);fill-opacity:1;stroke:none;display:inline"
         d="m 10.173012,1022.7689 0,5.6287 0,15.9558 0,0.01 c 1.712436,-1.6814 3.154194,-3.6356 4.257561,-5.793 0.602672,-1.5517 0.933321,-3.2388 0.933321,-5.0036 C 15.363894,1029.197 13.336416,1025.3028 10.173012,1022.7689 Z"
         id="path1463"
         inkscape:connector-curvature="0" />
      <path
         style="fill:url(#linearGradient1930);fill-opacity:1;stroke:none;display:inline"
         d="m 10.173012,1012.368 0,15.9644 0,15.9558 c 0.004,-0.01 0.0076,-0.01 0.01152,-0.01 0.166514,-0.2707 0.338024,-0.5379 0.515627,-0.8008 0.201044,-0.2975 0.410366,-0.5915 0.625099,-0.8786 0.214734,-0.2871 0.434573,-0.5678 0.662544,-0.844 0.22797,-0.2762 0.462134,-0.5474 0.702872,-0.8123 0.240736,-0.2649 0.490157,-0.5248 0.7432,-0.7778 0.04763,-0.048 0.0961,-0.094 0.144032,-0.1411 2.090262,-3.4028 3.295432,-7.4062 3.295432,-11.6925 C 16.873341,1022.0803 14.307605,1016.4276 10.173012,1012.368 Z"
         id="path1465"
         inkscape:connector-curvature="0"
         inkscape:export-filename="/home/uri/logo.png"
         inkscape:export-xdpi="90"
         inkscape:export-ydpi="90" />
      <path
         style="fill:#000000;fill-opacity:0.23529412;stroke:none;display:inline"
         d="m 10.173012,1022.7699 0,0.4552 c 3.120936,2.4999 5.13445,6.3237 5.188006,10.6208 0.0018,-0.093 0.0029,-0.1856 0.0029,-0.2794 C 15.363894,1029.198 13.336416,1025.3038 10.173012,1022.7699 Z"
         id="path1467"
         inkscape:connector-curvature="0" />
      <path
         style="fill:url(#linearGradient5113);fill-opacity:1;stroke:none;display:inline"
         d="m 10.173012,1018.3827 0,9.9497 0,15.9558 c 0.0022,-0.01 0.0037,-0.01 0.0057,-0.01 1.539635,-4.0184 2.385155,-8.3798 2.385155,-12.9398 C 12.563929,1026.7762 11.716777,1022.4058 10.173012,1018.3827 Z"
         id="path1469"
         inkscape:connector-curvature="0"
         inkscape:export-filename="/home/uri/logo.png"
         inkscape:export-xdpi="90"
         inkscape:export-ydpi="90" />
      <path
         style="fill:#1a1a1a;fill-opacity:0.31372549;stroke:none;display:inline"
         d="m 12.54376,1030.1674 c 0.0059,0.2686 0.0087,0.5365 0.0087,0.8065 0,4.5546 -0.843271,8.911 -2.379394,12.9254 l 0,0.3889 c 0.0022,-0.01 0.0038,-0.01 0.0057,-0.01 1.539635,-4.0184 2.385155,-8.3798 2.385155,-12.9398 C 12.563929,1030.9493 12.556241,1030.5578 12.54376,1030.1674 Z"
         id="path1471"
         inkscape:connector-curvature="0" />
    </g>
  </g>
</svg>
