<?xml version="1.0" encoding="UTF-8" standalone="no"?>
<!-- Created with Inkscape (http://www.inkscape.org/) -->

<svg
   xmlns:dc="http://purl.org/dc/elements/1.1/"
   xmlns:cc="http://creativecommons.org/ns#"
   xmlns:rdf="http://www.w3.org/1999/02/22-rdf-syntax-ns#"
   xmlns:svg="http://www.w3.org/2000/svg"
   xmlns="http://www.w3.org/2000/svg"
   xmlns:xlink="http://www.w3.org/1999/xlink"
   xmlns:sodipodi="http://sodipodi.sourceforge.net/DTD/sodipodi-0.dtd"
   xmlns:inkscape="http://www.inkscape.org/namespaces/inkscape"
   width="48"
   height="48"
   id="svg865"
   version="1.1"
   inkscape:version="0.48+devel r12353"
   sodipodi:docname="folder-visiting.svg">
  <defs
     id="defs867">
    <linearGradient
       inkscape:collect="always"
       xlink:href="#linearGradient1035"
       id="linearGradient1033"
       x1="23.875"
       y1="-1052.4872"
       x2="23.875"
       y2="-1004.4247"
       gradientUnits="userSpaceOnUse"
       gradientTransform="translate(0,-8.6914063e-6)" />
    <linearGradient
       id="linearGradient1035"
       inkscape:collect="always">
      <stop
         id="stop1037"
         offset="0"
         style="stop-color:#ffffff;stop-opacity:1" />
      <stop
         id="stop1039"
         offset="1"
         style="stop-color:#ececec;stop-opacity:1" />
    </linearGradient>
    <linearGradient
       inkscape:collect="always"
       xlink:href="#linearGradient1045-6"
       id="linearGradient2700"
       gradientUnits="userSpaceOnUse"
       x1="27.709515"
       y1="-1004.9823"
       x2="27.709515"
       y2="-1052.8083"
       gradientTransform="matrix(0.91666666,0,0,0.91666666,2,-85.696855)" />
    <linearGradient
       inkscape:collect="always"
       xlink:href="#linearGradient2869"
       id="linearGradient2875"
       x1="-1050.2408"
       y1="33.41077"
       x2="-1006.7538"
       y2="33.41077"
       gradientUnits="userSpaceOnUse"
       gradientTransform="translate(-8.6914063e-6,0)" />
    <linearGradient
       inkscape:collect="always"
       id="linearGradient2869">
      <stop
         style="stop-color:#f9f9f9;stop-opacity:1"
         offset="0"
         id="stop2871" />
      <stop
         style="stop-color:#ffffff;stop-opacity:1"
         offset="1"
         id="stop2873" />
    </linearGradient>
    <linearGradient
       inkscape:collect="always"
       xlink:href="#linearGradient2476-8"
       id="linearGradient1043"
       gradientUnits="userSpaceOnUse"
       x1="48.003349"
       y1="-1026.1804"
       x2="-0.00085307506"
       y2="-1026.1804"
       gradientTransform="matrix(0,1,0.63020833,0,663.20743,1004.3622)" />
    <linearGradient
       id="linearGradient1045-6"
       inkscape:collect="always">
      <stop
         id="stop1047-5"
         offset="0"
         style="stop-color:#000000;stop-opacity:1;" />
      <stop
         id="stop1049-1"
         offset="1"
         style="stop-color:#000000;stop-opacity:0;" />
    </linearGradient>
    <linearGradient
       inkscape:collect="always"
       id="linearGradient2476-8">
      <stop
         style="stop-color:#bbbcc0;stop-opacity:1"
         offset="0"
         id="stop2478-4" />
      <stop
         style="stop-color:#ccd0d3;stop-opacity:1"
         offset="1"
         id="stop2480-9" />
    </linearGradient>
    <linearGradient
       y2="-1045.8168"
       x2="29"
       y1="-1059.3043"
       x1="29"
       gradientTransform="matrix(0,1,0.63020833,0,663.20749,1004.3622)"
       gradientUnits="userSpaceOnUse"
       id="linearGradient2800-7-9-0"
       xlink:href="#linearGradient1045-4-7-6"
       inkscape:collect="always" />
    <linearGradient
       id="linearGradient1045-4-7-6"
       inkscape:collect="always">
      <stop
         id="stop1047-7-1-0"
         offset="0"
         style="stop-color:#000000;stop-opacity:1;" />
      <stop
         id="stop1049-8-1-6"
         offset="1"
         style="stop-color:#000000;stop-opacity:0;" />
    </linearGradient>
  </defs>
  <sodipodi:namedview
     id="base"
     pagecolor="#ffffff"
     bordercolor="#666666"
     borderopacity="1.0"
     inkscape:pageopacity="0.0"
     inkscape:pageshadow="2"
     inkscape:zoom="1.979899"
     inkscape:cx="-75.811296"
     inkscape:cy="23.979064"
     inkscape:document-units="px"
     inkscape:current-layer="layer1"
     showgrid="false"
     inkscape:window-width="1366"
     inkscape:window-height="714"
     inkscape:window-x="0"
     inkscape:window-y="30"
     inkscape:window-maximized="1" />
  <metadata
     id="metadata870">
    <rdf:RDF>
      <cc:Work
         rdf:about="">
        <dc:format>image/svg+xml</dc:format>
        <dc:type
           rdf:resource="http://purl.org/dc/dcmitype/StillImage" />
        <dc:title></dc:title>
      </cc:Work>
    </rdf:RDF>
  </metadata>
  <g
     inkscape:label="Capa 1"
     inkscape:groupmode="layer"
     id="layer1"
     transform="translate(0,-1004.3622)">
    <rect
       transform="scale(1,-1)"
       ry="1.9445436"
       y="-1052.3622"
       x="5.7919461e-08"
       height="48"
       width="48"
       id="rect1041"
       style="fill:url(#linearGradient1033);fill-opacity:1;stroke:none" />
    <rect
       style="opacity:0.15000001;fill:url(#linearGradient2700);fill-opacity:1;stroke:none"
       id="rect2698"
       width="44"
       height="44"
       x="2"
       y="-1050.3622"
       ry="1.7824984"
       transform="scale(1,-1)" />
    <g
       id="g995"
       transform="translate(0.84898904,0)">
      <rect
         style="fill:#000000;fill-opacity:0.29411765;stroke:none"
         id="rect2714"
         width="44"
         height="23.349005"
         x="-1050.3622"
         y="20.650999"
         ry="0.94589925"
         transform="matrix(-2.3953356e-8,-1,1,0,0,0)" />
      <rect
         transform="matrix(-2.372795e-8,-1,1,0,0,0)"
         ry="0.91916192"
         y="20.980999"
         x="-1050.0426"
         height="22.689007"
         width="43.360767"
         id="rect2716"
         style="fill:url(#linearGradient2875);fill-opacity:1;stroke:none" />
      <path
         inkscape:connector-curvature="0"
         id="rect2837"
         d="m 42.96875,1050.0497 c 0.03222,-0.096 0.0625,-0.2058 0.0625,-0.3125 l 0,-41.5 c 0,-0.5092 -0.397034,-0.9375 -0.90625,-0.9375 l -20.84375,0 c -0.0843,0 -0.171716,0.01 -0.25,0.031 0.129788,-0.3638 0.472444,-0.625 0.875,-0.625 l 20.84375,0 c 0.509216,0 0.90625,0.4282 0.90625,0.9375 l 0,41.5 C 43.65625,1049.5722 43.361674,1049.943 42.96875,1050.0497 Z"
         style="fill:#000000;fill-opacity:0.04858303;stroke:none" />
    </g>
    <path
       style="fill:url(#linearGradient1043);fill-opacity:1.0;stroke:none"
       d="m 28.437454,1004.3622 -2.25,0 -1.625,0 -22.62495,0 c -1.0773,0 -1.9375,0.8602 -1.9375,1.9375 l 0,44.125 c 0,1.0773 0.8602,1.9375 1.9375,1.9375 l 24.24995,0 0,-25.875 L 28.437454,1024.2372 Z"
       id="rect2991-1"
       inkscape:connector-curvature="0"
       sodipodi:nodetypes="cccsssscccc" />
    <path
       style="fill:#000000;fill-opacity:0.23529412;stroke:none"
       d="m 28.874954,1004.3622 -0.4375,0 0,19.875 -2.25,2.25 0,25.875 0.4375,0 0,-25.6875 L 28.874954,1024.4247 Z"
       id="path1068"
       inkscape:connector-curvature="0"
       sodipodi:nodetypes="ccccccccc" />
    <path
       id="path1080"
       d="m 29.312454,1004.3622 -0.4375,0 0,20.0625 -2.25,2.25 0,25.6875 0.4375,0 0,-25.5 L 29.312454,1024.6122 Z"
       style="fill:#000000;fill-opacity:0.07843137;stroke:none"
       inkscape:connector-curvature="0"
       sodipodi:nodetypes="ccccccccc" />
    <path
       sodipodi:nodetypes="ccccccccc"
       inkscape:connector-curvature="0"
       style="fill:#000000;fill-opacity:0.01960784;stroke:none"
       d="m 29.753854,1004.3622 -0.4375,0 0,20.2461 -2.25,2.25 0,25.5039 0.4375,0 0,-25.3164 L 29.753854,1024.7958 Z"
       id="path1082" />
    <path
       inkscape:connector-curvature="0"
       id="path1113"
       d="m 28.437554,1004.3622 -0.4375,0 0,19.6836 -2.2501,2.25 0,26.0664 0.4375,0 0,-25.8789 L 28.437454,1024.2333 Z"
       style="fill:#ffffff;fill-opacity:0.23529412;stroke:none"
       sodipodi:nodetypes="ccccccccc" />
    <path
       style="fill:#ffffff;fill-opacity:0.1187944;stroke:none"
       d="m 27.5625,1004.3622 0,19.5 -2.25,2.25 0,26.2188 0.4375,0 0,-26.0313 2.25,-2.25 L 28,1004.3622 Z"
       id="path1115"
       inkscape:connector-curvature="0"
       sodipodi:nodetypes="ccccccccc" />
    <path
       inkscape:connector-curvature="0"
       id="path1117"
       d="m 27.567354,1004.3622 -0.4375,0 0,19.3008 -2.2501,2.25 0,26.4258 0.4375,0 0,-26.2383 L 27.567254,1023.8505 Z"
       style="fill:#ffffff;fill-opacity:0.02745098;stroke:none"
       sodipodi:nodetypes="ccccccccc" />
    <g
       id="g2708"
       transform="translate(0.02343725,8.6914063e-6)">
      <path
         id="path7515"
         d="m 2.5312499,1005.0185 c -0.9170885,0 -1.67114682,0.6395 -1.84375002,1.5 0.33561202,-0.2799 0.77451212,-0.4375 1.24999992,-0.4375 l 44.1250002,0 c 0.475488,0 0.914388,0.1576 1.25,0.4375 -0.172603,-0.8605 -0.926662,-1.5 -1.84375,-1.5 L 2.5312499,1005.0185 Z"
         style="fill:#ffffff;fill-opacity:0.5372549;stroke:none"
         inkscape:connector-curvature="0" />
      <path
         id="rect846"
         d="m 47.976563,1049.3622 0,1.0625 c 0,1.0773 -0.860223,1.9375 -1.9375,1.9375 l -44.1250005,0 c -1.077277,0 -1.9375,-0.8602 -1.9375,-1.9375 l 0,-1.0625 c 0,1.0773 0.860223,1.9375 1.9375,1.9375 l 44.1250005,0 C 47.11634,1051.2997 47.976563,1050.4395 47.976563,1049.3622 Z"
         style="fill:#000000;fill-opacity:1;stroke:none"
         inkscape:connector-curvature="0" />
    </g>
    <path
       inkscape:connector-curvature="0"
       style="fill:#000000;fill-opacity:0.39215686;stroke:none"
       d="m 1.9374999,1004.3622 c -1.07727698,0 -1.937499942500001,0.8602 -1.937499942500001,1.9375 l 0,43.0625 c 0,0.7934 0.480023562500001,1.449 1.156249942500001,1.75 -0.30934168,-0.3333 -0.49999998,-0.7824 -0.49999998,-1.2812 l 0,-42.9375 c 0,-1.0482 0.82689888,-1.875 1.87499998,-1.875 l 42.9375001,0 c 1.048101,0 1.875,0.8268 1.875,1.875 l 0,42.9375 c 0,0.4988 -0.190658,0.9479 -0.5,1.2812 0.676226,-0.301 1.15625,-0.9566 1.15625,-1.75 l 0,-43.0625 c 0,-1.0773 -0.860223,-1.9375 -1.9375,-1.9375 L 1.9374999,1004.3622 Z"
       id="rect4280" />
    <path
       inkscape:connector-curvature="0"
       id="path2796-9-4"
       d="m 1.9375047,1004.3622 c -1.0773,0 -1.9375000044434,0.8602 -1.9375000044434,1.9375 l 0,44.125 c 0,1.0773 0.8602000044434,1.9375 1.9375000044434,1.9375 l 5.0625,0 0,-48 L 1.9375047,1004.3622 Z"
       style="opacity:0.34900004;fill:url(#linearGradient2800-7-9-0);fill-opacity:1;stroke:none" />
  </g>
</svg>
