<?xml version="1.0" encoding="UTF-8" standalone="no"?>
<!-- Created with Inkscape (http://www.inkscape.org/) -->

<svg
   xmlns:dc="http://purl.org/dc/elements/1.1/"
   xmlns:cc="http://creativecommons.org/ns#"
   xmlns:rdf="http://www.w3.org/1999/02/22-rdf-syntax-ns#"
   xmlns:svg="http://www.w3.org/2000/svg"
   xmlns="http://www.w3.org/2000/svg"
   xmlns:xlink="http://www.w3.org/1999/xlink"
   xmlns:sodipodi="http://sodipodi.sourceforge.net/DTD/sodipodi-0.dtd"
   xmlns:inkscape="http://www.inkscape.org/namespaces/inkscape"
   width="48"
   height="48"
   id="svg2"
   version="1.1"
   inkscape:version="0.48+devel r12274"
   sodipodi:docname="adobeflashplugin.svg">
  <defs
     id="defs4">
    <linearGradient
       id="linearGradient868">
      <stop
         style="stop-color:#aa0000;stop-opacity:1"
         offset="0"
         id="stop870" />
      <stop
         style="stop-color:#ff5555;stop-opacity:1"
         offset="1"
         id="stop872" />
    </linearGradient>
    <linearGradient
       inkscape:collect="always"
       xlink:href="#linearGradient868"
       id="linearGradient1403"
       x1="91.081619"
       y1="-1057.2456"
       x2="91.081619"
       y2="-1009.2728"
       gradientUnits="userSpaceOnUse" />
  </defs>
  <sodipodi:namedview
     id="base"
     pagecolor="#ffffff"
     bordercolor="#666666"
     borderopacity="1.0"
     inkscape:pageopacity="0.0"
     inkscape:pageshadow="2"
     inkscape:zoom="5.6568545"
     inkscape:cx="2.5902197"
     inkscape:cy="23.973394"
     inkscape:document-units="px"
     inkscape:current-layer="layer1"
     showgrid="false"
     inkscape:window-width="1366"
     inkscape:window-height="716"
     inkscape:window-x="0"
     inkscape:window-y="28"
     inkscape:window-maximized="1" />
  <metadata
     id="metadata7">
    <rdf:RDF>
      <cc:Work
         rdf:about="">
        <dc:format>image/svg+xml</dc:format>
        <dc:type
           rdf:resource="http://purl.org/dc/dcmitype/StillImage" />
        <dc:title />
      </cc:Work>
    </rdf:RDF>
  </metadata>
  <g
     inkscape:label="Capa 1"
     inkscape:groupmode="layer"
     id="layer1"
     transform="translate(0,-1004.3622)">
    <g
       id="g1405"
       transform="translate(-67.039993,-4.9080818)">
      <rect
         transform="scale(1,-1)"
         ry="1.9445436"
         y="-1057.2703"
         x="67.039993"
         height="48"
         width="48"
         id="rect2991-1"
         style="fill:url(#linearGradient1403);fill-opacity:1;stroke:none" />
      <path
         id="rect846"
         d="m 67.039994,1054.2703 0,1.0625 c 0,1.0773 0.860223,1.9375 1.9375,1.9375 l 44.124996,0 c 1.07728,0 1.9375,-0.8602 1.9375,-1.9375 l 0,-1.0625 c 0,1.0773 -0.86022,1.9375 -1.9375,1.9375 l -44.124996,0 C 67.900217,1056.2078 67.039994,1055.3476 67.039994,1054.2703 Z"
         style="fill:#000000;fill-opacity:1;stroke:none"
         inkscape:connector-curvature="0" />
      <path
         id="path7515"
         d="m 69.571244,1009.9266 c -0.917088,0 -1.671147,0.6395 -1.84375,1.5 0.335612,-0.2799 0.774512,-0.4375 1.25,-0.4375 l 44.124996,0 c 0.47549,0 0.91439,0.1576 1.25,0.4375 -0.1726,-0.8605 -0.92666,-1.5 -1.84375,-1.5 L 69.571244,1009.9266 Z"
         style="fill:#ffffff;fill-opacity:0.5372549;stroke:none"
         inkscape:connector-curvature="0" />
      <path
         id="rect4280-0"
         d="m 68.977494,1009.2703 c -1.077277,0 -1.9375,0.8602 -1.9375,1.9375 l 0,43.0625 c 0,0.7934 0.480024,1.449 1.15625,1.75 -0.309342,-0.3333 -0.5,-0.7824 -0.5,-1.2812 l 0,-42.9375 c 0,-1.0482 0.826899,-1.875 1.875,-1.875 l 42.937496,0 c 1.04811,0 1.875,0.8268 1.875,1.875 l 0,42.9375 c 0,0.4988 -0.19065,0.9479 -0.5,1.2812 0.67623,-0.301 1.15625,-0.9566 1.15625,-1.75 l 0,-43.0625 c 0,-1.0773 -0.86022,-1.9375 -1.9375,-1.9375 L 68.977494,1009.2703 Z"
         style="fill:#000000;fill-opacity:0.39215686;stroke:none"
         inkscape:connector-curvature="0" />
    </g>
    <path
       style="fill:#000000;fill-opacity:0.23531093;stroke:none"
       d="m 35.703697,1019.3436 c -5.870961,0.1029 -7.33622,5.8233 -7.33622,5.8233 l 0.199819,0 c 0.518563,-1.4104 2.352013,-5.1971 7.136401,-5.281 L 35.703697,1019.3436 z m -9.762596,11.7037 c -4.129572,12.7402 -13.644798,11.5895 -13.644798,11.5895 l 0,0.5709 c 0,0 9.515226,1.1507 13.644798,-11.5895 l 6.87949,0 0,-0.5709 L 25.941101,1031.0473 Z"
       id="path817"
       inkscape:connector-curvature="0" />
    <path
       inkscape:connector-curvature="0"
       id="path822"
       d="m 35.703697,1019.9145 c -5.870961,0.1029 -7.33622,5.8233 -7.33622,5.8233 l 0.199819,0 c 0.518563,-1.4104 2.352013,-5.1971 7.136401,-5.281 L 35.703697,1019.9145 z m -9.762596,11.7037 c -4.129572,12.7402 -13.644798,11.5895 -13.644798,11.5895 l 0,0.5709 c 0,0 9.515226,1.1507 13.644798,-11.5895 l 6.87949,0 0,-0.5709 L 25.941101,1031.6182 Z"
       style="fill:#000000;fill-opacity:0.11795002;stroke:none" />
    <path
       style="fill:#000000;fill-opacity:0.06008582;stroke:none"
       d="m 35.703697,1020.4711 c -5.870961,0.103 -7.33622,5.8233 -7.33622,5.8233 l 0.199819,0 c 0.518563,-1.4103 2.352013,-5.197 7.136401,-5.281 L 35.703697,1020.4711 z m -9.762596,11.7037 c -4.129572,12.7402 -13.644798,11.5895 -13.644798,11.5895 l 0,0.571 c 0,0 9.515226,1.1506 13.644798,-11.5896 l 6.87949,0 0,-0.5709 L 25.941101,1032.1748 Z"
       id="path824"
       inkscape:connector-curvature="0" />
    <path
       style="fill:#ffffff;fill-opacity:0.23642177;stroke:none"
       d="m 35.246967,1013.057 c -2.049559,0.031 -10.479192,0.9266 -13.844617,13.2166 -3.074727,11.2287 -9.106047,10.1051 -9.106047,10.1051 l 0,0.3712 c 0,0 6.03132,1.1235 9.106047,-10.1052 3.8462,-14.0457 14.301347,-13.2166 14.301347,-13.2166 l 0,-0.3711 C 35.703697,1013.057 35.539761,1013.0526 35.246967,1013.057 z m -6.765308,11.7322 c -0.07088,0.209 -0.114182,0.3426 -0.114182,0.3426 l 4.453114,0 0,-0.3426 L 28.481659,1024.7892 Z"
       id="path826"
       inkscape:connector-curvature="0" />
    <path
       inkscape:connector-curvature="0"
       id="path831"
       d="m 35.246967,1012.7139 c -2.049559,0.031 -10.479192,0.9266 -13.844617,13.2165 -3.074727,11.2287 -9.106047,10.1052 -9.106047,10.1052 l 0,0.3711 c 0,0 6.03132,1.1236 9.106047,-10.1051 3.8462,-14.0458 14.301347,-13.2167 14.301347,-13.2167 l 0,-0.371 C 35.703697,1012.7139 35.539761,1012.7094 35.246967,1012.7139 z m -6.765308,11.7321 c -0.07088,0.209 -0.114182,0.3426 -0.114182,0.3426 l 4.453114,0 0,-0.3426 L 28.481659,1024.446 Z"
       style="fill:#ffffff;fill-opacity:0.11699069;stroke:none" />
    <path
       style="fill:#ffffff;fill-opacity:0.05882353;stroke:none"
       d="m 35.246967,1012.3642 c -2.049559,0.031 -10.479192,0.9266 -13.844617,13.2165 -3.074727,11.2287 -9.106047,10.1052 -9.106047,10.1052 l 0,0.3711 c 0,0 6.03132,1.1236 9.106047,-10.1051 3.8462,-14.0457 14.301347,-13.2167 14.301347,-13.2167 l 0,-0.371 C 35.703697,1012.3642 35.539761,1012.3597 35.246967,1012.3642 z m -6.765308,11.7322 c -0.07088,0.209 -0.114182,0.3425 -0.114182,0.3425 l 4.453114,0 0,-0.3425 L 28.481659,1024.0964 Z"
       id="path833"
       inkscape:connector-curvature="0" />
    <path
       style="fill:#ffffff;fill-opacity:1;stroke:none"
       id="path3727"
       inkscape:connector-curvature="0"
       d="m 35.692166,1013.4299 0,5.8805 c -5.870961,0.1029 -7.313824,5.8286 -7.313824,5.8286 l 4.428097,0 0,5.8804 -6.866037,0 c -4.129572,12.7402 -13.632568,11.6057 -13.632568,11.6057 l 0,-5.8804 c 0,0 6.030237,1.1188 9.104964,-10.1099 C 25.258998,1012.5891 35.692166,1013.4299 35.692166,1013.4299 Z" />
  </g>
</svg>
