<?xml version="1.0" encoding="UTF-8" standalone="no"?>
<!-- Created with Inkscape (http://www.inkscape.org/) -->

<svg
   xmlns:dc="http://purl.org/dc/elements/1.1/"
   xmlns:cc="http://creativecommons.org/ns#"
   xmlns:rdf="http://www.w3.org/1999/02/22-rdf-syntax-ns#"
   xmlns:svg="http://www.w3.org/2000/svg"
   xmlns="http://www.w3.org/2000/svg"
   xmlns:xlink="http://www.w3.org/1999/xlink"
   xmlns:sodipodi="http://sodipodi.sourceforge.net/DTD/sodipodi-0.dtd"
   xmlns:inkscape="http://www.inkscape.org/namespaces/inkscape"
   width="48"
   height="48"
   id="svg5453"
   version="1.1"
   inkscape:version="0.48+devel r12272"
   sodipodi:docname="anki.svg">
  <defs
     id="defs5455">
    <linearGradient
       inkscape:collect="always"
       id="linearGradient1430">
      <stop
         style="stop-color:#094b7f;stop-opacity:1"
         offset="0"
         id="stop1432" />
      <stop
         style="stop-color:#2caaec;stop-opacity:1"
         offset="1"
         id="stop1434" />
    </linearGradient>
    <linearGradient
       inkscape:collect="always"
       id="linearGradient1359">
      <stop
         style="stop-color:#000000;stop-opacity:1"
         offset="0"
         id="stop1361" />
      <stop
         style="stop-color:#333333;stop-opacity:1"
         offset="1"
         id="stop1363" />
    </linearGradient>
    <linearGradient
       inkscape:collect="always"
       xlink:href="#linearGradient1359"
       id="linearGradient1365"
       x1="413.24423"
       y1="-547.77808"
       x2="413.24423"
       y2="-499.77106"
       gradientUnits="userSpaceOnUse" />
    <linearGradient
       inkscape:collect="always"
       xlink:href="#linearGradient1430"
       id="linearGradient1436"
       x1="408.90109"
       y1="567.62219"
       x2="408.90109"
       y2="458.13864"
       gradientUnits="userSpaceOnUse"
       gradientTransform="matrix(0.21790764,0,0,0.21790764,320.69599,411.93011)" />
  </defs>
  <sodipodi:namedview
     id="base"
     pagecolor="#21a44a"
     bordercolor="#666666"
     borderopacity="1.0"
     inkscape:pageopacity="0"
     inkscape:pageshadow="2"
     inkscape:zoom="6.2777282"
     inkscape:cx="-2.2619143"
     inkscape:cy="25.839057"
     inkscape:document-units="px"
     inkscape:current-layer="layer1"
     showgrid="false"
     fit-margin-top="0"
     fit-margin-left="0"
     fit-margin-right="0"
     fit-margin-bottom="0"
     inkscape:window-width="1366"
     inkscape:window-height="716"
     inkscape:window-x="0"
     inkscape:window-y="28"
     inkscape:window-maximized="1" />
  <metadata
     id="metadata5458">
    <rdf:RDF>
      <cc:Work
         rdf:about="">
        <dc:format>image/svg+xml</dc:format>
        <dc:type
           rdf:resource="http://purl.org/dc/dcmitype/StillImage" />
        <dc:title></dc:title>
      </cc:Work>
    </rdf:RDF>
  </metadata>
  <g
     inkscape:label="Capa 1"
     inkscape:groupmode="layer"
     id="layer1"
     transform="translate(-384.57143,-499.798)">
    <rect
       style="fill:url(#linearGradient1365);fill-opacity:1;stroke:none"
       id="rect2991-1-7"
       width="48"
       height="48"
       x="384.57144"
       y="-547.79797"
       ry="1.9445436"
       transform="scale(1,-1)" />
    <path
       inkscape:connector-curvature="0"
       style="fill:#000000;fill-opacity:1;stroke:none"
       d="m 384.57143,544.79799 0,1.0625 c 0,1.0773 0.86022,1.9375 1.9375,1.9375 l 44.125,0 c 1.07728,0 1.9375,-0.8602 1.9375,-1.9375 l 0,-1.0625 c 0,1.0773 -0.86022,1.9375 -1.9375,1.9375 l -44.125,0 C 385.43165,546.73549 384.57143,545.87529 384.57143,544.79799 Z"
       id="rect846" />
    <path
       inkscape:connector-curvature="0"
       style="fill:#ffffff;fill-opacity:0.5372549;stroke:none"
       d="m 387.10268,500.45429 c -0.91709,0 -1.67115,0.6395 -1.84375,1.5 0.33561,-0.2799 0.77451,-0.4375 1.25,-0.4375 l 44.125,0 c 0.47549,0 0.91439,0.1576 1.25,0.4375 -0.1726,-0.8605 -0.92666,-1.5 -1.84375,-1.5 L 387.10268,500.45429 Z"
       id="path7515" />
    <path
       inkscape:connector-curvature="0"
       style="fill:#000000;fill-opacity:0.39215686;stroke:none"
       d="m 386.50893,499.79799 c -1.07728,0 -1.9375,0.8602 -1.9375,1.9375 l 0,43.0625 c 0,0.7934 0.48002,1.449 1.15625,1.75 -0.30934,-0.3333 -0.5,-0.7824 -0.5,-1.2812 l 0,-42.9375 c 0,-1.0482 0.8269,-1.875 1.875,-1.875 l 42.9375,0 c 1.0481,0 1.875,0.8268 1.875,1.875 l 0,42.9375 c 0,0.4988 -0.19066,0.9479 -0.5,1.2812 0.67623,-0.301 1.15625,-0.9566 1.15625,-1.75 l 0,-43.0625 c 0,-1.0773 -0.86022,-1.9375 -1.9375,-1.9375 L 386.50893,499.79799 Z"
       id="rect4280" />
    <g
       id="g2027">
      <path
         inkscape:connector-curvature="0"
         id="path1438"
         style="fill:#ffffff;fill-opacity:1;fill-rule:nonzero;stroke:none"
         d="m 408.57095,508.63419 4.02961,11.34317 10.81775,0 -8.82697,6.66382 3.15436,11.68787 -9.17475,-7.00853 -9.17482,7.00853 3.15539,-11.68787 -8.82697,-6.66382 10.81776,0 4.02864,-11.34317" />
      <path
         d="m 408.57103,511.70533 3.25284,9.15658 8.73247,0 -7.12544,5.37927 2.54631,9.43483 -7.40617,-5.65751 -7.40623,5.65751 2.54715,-9.43483 -7.12544,-5.37927 8.73248,0 3.25204,-9.15658"
         style="fill:url(#linearGradient1436);fill-opacity:1;fill-rule:nonzero;stroke:none"
         id="path162"
         inkscape:connector-curvature="0" />
      <path
         inkscape:connector-curvature="0"
         id="path1459"
         d="m 408.57143,511.70807 -3.24787,9.16365 -8.72867,0 7.10473,5.36479 -0.81197,3.07389 c 2.45104,-3.18198 5.81118,-6.06518 9.13465,-8.43868 l -0.20299,0 L 408.57143,511.70807 Z"
         style="fill:#ffffff;fill-opacity:0.14559386;fill-rule:nonzero;stroke:none" />
      <path
         inkscape:connector-curvature="0"
         id="path1466"
         d="m 393.724,520.71185 8.64167,6.55375 0.17399,-0.60898 -7.8587,-5.94477 L 393.724,520.71185 z m 28.7379,0 -7.8587,5.94477 0.17399,0.60898 8.64167,-6.55375 L 422.4619,520.71185 z m -13.89047,10.61359 -8.93166,6.84374 -0.23199,0.89897 9.16365,-7.01773 9.16365,7.01773 -0.23199,-0.89897 L 408.57143,531.32544 Z"
         style="fill:#ffffff;fill-opacity:0.11764706;fill-rule:nonzero;stroke:none" />
      <path
         style="fill:#ffffff;fill-opacity:0.05882353;fill-rule:nonzero;stroke:none"
         d="m 393.724,521.4417 8.64167,6.55375 0.17399,-0.60897 -7.8587,-5.94478 L 393.724,521.4417 z m 28.7379,0 -7.8587,5.94478 0.17399,0.60897 8.64167,-6.55375 L 422.4619,521.4417 z m -13.89047,10.6136 -8.93166,6.84373 -0.23199,0.89897 9.16365,-7.01773 9.16365,7.01773 -0.23199,-0.89897 L 408.57143,532.0553 Z"
         id="path1471"
         inkscape:connector-curvature="0" />
      <path
         inkscape:connector-curvature="0"
         id="path1473"
         d="m 408.57143,507.798 -4.03084,11.33857 -10.81659,0 1.10196,0.84096 9.71463,0 4.03084,-11.33856 4.03085,11.33856 9.71462,0 1.10196,-0.84096 -10.81658,0 L 408.57143,507.798 z m -6.20576,18.70428 -2.95789,10.99058 0.28999,-0.20299 2.84189,-10.64259 L 402.36567,526.50228 z m 12.41152,0 -0.17399,0.145 2.84189,10.64259 0.28999,0.20299 L 414.77719,526.50228 Z"
         style="fill:#000000;fill-opacity:0.35294118;fill-rule:nonzero;stroke:none" />
    </g>
  </g>
</svg>
