<?xml version="1.0" encoding="UTF-8" standalone="no"?>
<!-- Created with Inkscape (http://www.inkscape.org/) -->

<svg
   xmlns:dc="http://purl.org/dc/elements/1.1/"
   xmlns:cc="http://creativecommons.org/ns#"
   xmlns:rdf="http://www.w3.org/1999/02/22-rdf-syntax-ns#"
   xmlns:svg="http://www.w3.org/2000/svg"
   xmlns="http://www.w3.org/2000/svg"
   xmlns:xlink="http://www.w3.org/1999/xlink"
   xmlns:sodipodi="http://sodipodi.sourceforge.net/DTD/sodipodi-0.dtd"
   xmlns:inkscape="http://www.inkscape.org/namespaces/inkscape"
   width="48"
   height="48"
   id="svg2"
   version="1.1"
   inkscape:version="0.48+devel r12399"
   sodipodi:docname="beryl.svg">
  <defs
     id="defs4">
    <linearGradient
       id="linearGradient4160"
       inkscape:collect="always">
      <stop
         id="stop4162"
         offset="0"
         style="stop-color:#ffffff;stop-opacity:1;" />
      <stop
         id="stop4164"
         offset="1"
         style="stop-color:#ffffff;stop-opacity:0;" />
    </linearGradient>
    <linearGradient
       id="linearGradient4132"
       inkscape:collect="always">
      <stop
         id="stop4134"
         offset="0"
         style="stop-color:#000000;stop-opacity:1;" />
      <stop
         id="stop4136"
         offset="1"
         style="stop-color:#000000;stop-opacity:0;" />
    </linearGradient>
    <linearGradient
       id="linearGradient1414-8">
      <stop
         id="stop1416-7"
         offset="0"
         style="stop-color:#4d0823;stop-opacity:1" />
      <stop
         style="stop-color:#580e28;stop-opacity:1"
         offset="1"
         id="stop1418-9" />
    </linearGradient>
    <linearGradient
       gradientTransform="translate(-52.721087,-8.3501237)"
       gradientUnits="userSpaceOnUse"
       y2="-996.32404"
       x2="76.279137"
       y1="-1044.454"
       x1="76.279137"
       id="linearGradient1398-5"
       xlink:href="#linearGradient1414-8"
       inkscape:collect="always" />
    <linearGradient
       gradientUnits="userSpaceOnUse"
       y2="22.319525"
       x2="-49.757126"
       y1="23.239002"
       x1="-52.408283"
       id="linearGradient4118"
       xlink:href="#linearGradient4132"
       inkscape:collect="always" />
    <linearGradient
       gradientTransform="matrix(1.7566979,0,0,1.7566979,71.673557,-775.15804)"
       gradientUnits="userSpaceOnUse"
       y2="1028.3947"
       x2="-22.692749"
       y1="1027.0389"
       x1="-25.367456"
       id="linearGradient4128"
       xlink:href="#linearGradient4132"
       inkscape:collect="always" />
    <linearGradient
       gradientTransform="matrix(1.7566979,0,0,1.7566979,71.673557,-775.15804)"
       gradientUnits="userSpaceOnUse"
       y2="1028.2322"
       x2="-31.687223"
       y1="1030.9722"
       x1="-34.471455"
       id="linearGradient4138"
       xlink:href="#linearGradient4132"
       inkscape:collect="always" />
    <linearGradient
       gradientTransform="matrix(1.7566979,0,0,1.7566979,71.673557,-775.15804)"
       gradientUnits="userSpaceOnUse"
       y2="1021.6915"
       x2="-28.549437"
       y1="1021.6915"
       x1="-31.33367"
       id="linearGradient4156"
       xlink:href="#linearGradient4132"
       inkscape:collect="always" />
    <linearGradient
       gradientTransform="matrix(1.7566979,0,0,1.7566979,71.673557,-775.15804)"
       gradientUnits="userSpaceOnUse"
       y2="1021.3967"
       x2="-31.844225"
       y1="1021.9124"
       x1="-29.919456"
       id="linearGradient4166"
       xlink:href="#linearGradient4160"
       inkscape:collect="always" />
    <linearGradient
       gradientTransform="matrix(1.7566979,0,0,1.7566979,71.673557,-775.15804)"
       gradientUnits="userSpaceOnUse"
       y2="1020.6486"
       x2="-22.788845"
       y1="1021.4604"
       x1="-24.538263"
       id="linearGradient4176"
       xlink:href="#linearGradient4132"
       inkscape:collect="always" />
  </defs>
  <sodipodi:namedview
     id="base"
     pagecolor="#ffffff"
     bordercolor="#666666"
     borderopacity="1.0"
     inkscape:pageopacity="0.0"
     inkscape:pageshadow="2"
     inkscape:zoom="7.9254886"
     inkscape:cx="16.865951"
     inkscape:cy="32.571838"
     inkscape:document-units="px"
     inkscape:current-layer="layer1"
     showgrid="false"
     inkscape:window-width="1366"
     inkscape:window-height="714"
     inkscape:window-x="0"
     inkscape:window-y="30"
     inkscape:window-maximized="1">
    <inkscape:grid
       type="xygrid"
       id="grid3043" />
  </sodipodi:namedview>
  <metadata
     id="metadata7">
    <rdf:RDF>
      <cc:Work
         rdf:about="">
        <dc:format>image/svg+xml</dc:format>
        <dc:type
           rdf:resource="http://purl.org/dc/dcmitype/StillImage" />
        <dc:title />
      </cc:Work>
    </rdf:RDF>
  </metadata>
  <g
     inkscape:label="Capa 1"
     inkscape:groupmode="layer"
     id="layer1"
     transform="translate(0,-1004.3622)">
    <rect
       style="fill:url(#linearGradient1398-5);fill-opacity:1;stroke:none"
       id="rect2991-1-9"
       width="48"
       height="48"
       x="-2.8513184e-06"
       y="-1052.3622"
       ry="1.9445436"
       transform="scale(1,-1)" />
    <path
       inkscape:connector-curvature="0"
       style="fill:#000000;fill-opacity:1;stroke:none"
       d="m -2.4460449e-6,1049.3622 0,1.0625 c 0,1.0773 0.8602229960449,1.9375 1.9375000460449,1.9375 l 44.1250004,0 c 1.077277,0 1.937505,-0.8602 1.937505,-1.9375 l 0,-1.0625 c 0,1.0773 -0.860228,1.9375 -1.937505,1.9375 l -44.1250004,0 C 0.86022055,1051.2997 -2.4460449e-6,1050.4395 -2.4460449e-6,1049.3622 Z"
       id="rect846-9" />
    <path
       inkscape:connector-curvature="0"
       style="fill:#ffffff;fill-opacity:0.5372549;stroke:none"
       d="m 2.5312476,1005.0185 c -0.917088,0 -1.67114705,0.6395 -1.84375005,1.5 0.33561205,-0.2799 0.77451205,-0.4375 1.25000005,-0.4375 l 44.1250004,0 c 0.475488,0 0.914388,0.1576 1.250005,0.4375 -0.172608,-0.8605 -0.926667,-1.5 -1.843755,-1.5 L 2.5312476,1005.0185 Z"
       id="path7515-3" />
    <path
       inkscape:connector-curvature="0"
       style="fill:#000000;fill-opacity:0.39215686;stroke:none"
       d="m 1.9374976,1004.3622 c -1.07727705,0 -1.9375000460449,0.8602 -1.9375000460449,1.9375 l 0,43.0625 c 0,0.7934 0.4800239960449,1.449 1.1562500460449,1.75 -0.30934205,-0.3333 -0.50000005,-0.7824 -0.50000005,-1.2812 l 0,-42.9375 c 0,-1.0482 0.82689905,-1.875 1.87500005,-1.875 l 42.9375004,0 c 1.048101,0 1.875005,0.8268 1.875005,1.875 l 0,42.9375 c 0,0.4988 -0.190663,0.9479 -0.500005,1.2812 0.676225,-0.301 1.156255,-0.9566 1.156255,-1.75 l 0,-43.0625 c 0,-1.0773 -0.860228,-1.9375 -1.937505,-1.9375 L 1.9374976,1004.3622 Z"
       id="rect4280-0-0" />
    <g
       id="g4194">
      <path
         inkscape:connector-curvature="0"
         id="path4105"
         d="m 12.876169,1012.3622 -8.1014834,9.7457 10.1206054,0 4.4e-5,-0.01 17.9711,0 7.8e-5,0 -3.6e-5,0.01 10.120607,0 -8.101485,-9.7457 -5.817383,0.019 0.0033,9e-4 -0.003,0 -10.392423,0.044 0.01736,-0.044 L 12.876169,1012.3622 Z"
         style="opacity:0.17000002;fill:#000000;fill-opacity:1;stroke:none" />
      <path
         style="opacity:0.17000002;fill:#000000;fill-opacity:1;stroke:none"
         d="m 13.4076,1013.1736 -7.7102531,9.2752 9.6318691,0 4.2e-5,-0.01 17.103254,0 7.4e-5,0 -3.4e-5,0.01 9.631871,0 -7.710255,-9.2752 -5.536454,0.019 0.0032,9e-4 -0.0028,0 -9.890561,0.042 0.01653,-0.042 L 13.4076,1013.1736 Z"
         id="path4103"
         inkscape:connector-curvature="0" />
      <path
         inkscape:connector-curvature="0"
         id="path4092"
         d="m 13.939031,1013.9573 -7.3190228,8.8046 9.1431328,0 4e-5,-0.01 16.235408,0 7.1e-5,0 -3.2e-5,0.01 9.143133,0 -7.319023,-8.8046 -5.255528,0.018 0.003,9e-4 -0.0026,0 -9.388699,0.04 0.01568,-0.04 L 13.939031,1013.9573 Z"
         style="opacity:0.17000002;fill:#000000;fill-opacity:1;stroke:none" />
      <path
         inkscape:connector-curvature="0"
         id="path4073"
         d="m 13.894314,1014.8423 -7.2742981,8.8197 -2.77e-5,0 1.58e-5,0 1.75e-5,0 17.2608725,17.4367 17.260869,-17.4367 2e-5,0 -1.3e-5,0 -7.274297,-8.8197 L 13.894314,1014.8423 Z"
         style="fill:#50d991;fill-opacity:1;stroke:none" />
      <path
         sodipodi:type="star"
         style="fill:#d54747;fill-opacity:1;stroke:none"
         id="path4086"
         sodipodi:sides="3"
         sodipodi:cx="-49.460674"
         sodipodi:cy="21.597841"
         sodipodi:r1="3.4418893"
         sodipodi:r2="1.7209446"
         sodipodi:arg1="1.5707963"
         sodipodi:arg2="2.6179939"
         inkscape:flatsided="true"
         inkscape:rounded="0"
         inkscape:randomized="0"
         d="M -49.460674,25.039731 -52.441438,19.876897 -46.479911,19.876897 Z"
         transform="matrix(2.7233873,0,0,3.3773877,158.58145,956.52999)"
         inkscape:transform-center-y="2.9061396" />
      <path
         inkscape:connector-curvature="0"
         id="path4091"
         d="m 15.767963,1023.6551 -0.0049,0 0.0081,0 L 15.767963,1023.6551 z m -0.0049,0 -9.1431323,0 17.2463013,17.4057 L 15.763111,1023.662 Z"
         style="fill:#e86363;fill-opacity:1;stroke:none" />
      <path
         inkscape:connector-curvature="0"
         style="fill:#c54c4c;fill-opacity:1;stroke:none"
         d="m 31.993738,1023.6551 0.0049,0 -0.0081,0 L 31.993738,1023.6551 z m 0.0049,0 9.143133,0 L 23.89544,1041.0608 31.998589,1023.662 Z"
         id="path4096" />
      <path
         sodipodi:nodetypes="ccccc"
         inkscape:connector-curvature="0"
         id="path4098"
         d="m 19.176296,1014.8947 -3.413185,8.7389 16.235549,0 L 28.570159,1014.8555 Z"
         style="fill:#e97070;fill-opacity:1;stroke:none" />
      <path
         sodipodi:nodetypes="cccccccccc"
         id="path4102"
         d="m 31.993738,1023.6416 0.0049,0 L 31.990576,1023.6416 z m 0.0049,0 9.143133,0 -7.319023,-8.8045 -5.255527,0.018 L 31.998589,1023.6336 Z"
         style="fill:#dd5b5b;fill-opacity:1;stroke:none"
         inkscape:connector-curvature="0" />
      <path
         inkscape:connector-curvature="0"
         style="fill:#f79898;fill-opacity:1;stroke:none"
         d="m 15.768031,1023.6416 -0.0049,0 L 15.771192,1023.6416 z m -0.0049,0 -9.143133,0 7.319023,-8.8045 5.255529,0.018 L 15.763181,1023.6336 Z"
         id="path4107"
         sodipodi:nodetypes="cccccccccc" />
      <g
         transform="translate(0.11914915,0)"
         id="g4186">
        <path
           sodipodi:type="star"
           style="opacity:0.17000002;fill:url(#linearGradient4118);fill-opacity:1;stroke:none"
           id="path4110"
           sodipodi:sides="3"
           sodipodi:cx="-49.460674"
           sodipodi:cy="21.597841"
           sodipodi:r1="3.4418893"
           sodipodi:r2="1.7209446"
           sodipodi:arg1="1.5707963"
           sodipodi:arg2="2.6179939"
           inkscape:flatsided="true"
           inkscape:rounded="0"
           inkscape:randomized="0"
           d="M -49.460674,25.039731 -52.441438,19.876897 -46.479911,19.876897 Z"
           transform="matrix(2.7233873,0,0,3.3773877,158.58145,956.52999)"
           inkscape:transform-center-y="2.9061396" />
        <path
           inkscape:connector-curvature="0"
           style="opacity:0.31000001;fill:url(#linearGradient4128);fill-opacity:1;stroke:none"
           d="m 31.993738,1023.6551 0.0049,0 L 31.990576,1023.6551 z m 0.0049,0 6.502178,0 L 23.89544,1041.0608 31.998589,1023.662 Z"
           id="path4120"
           sodipodi:nodetypes="ccccccccc" />
        <path
           inkscape:connector-curvature="0"
           id="path4130"
           d="m 15.767963,1023.6551 -0.0049,0 0.0081,0 L 15.767963,1023.6551 z m -0.0049,0 -9.1431323,0 17.2463013,17.4057 L 15.763111,1023.662 Z"
           style="fill:url(#linearGradient4138);fill-opacity:1;stroke:none" />
        <path
           sodipodi:nodetypes="ccccc"
           inkscape:connector-curvature="0"
           id="path4140"
           d="m 19.176296,1014.8947 -3.413185,8.7389 16.235549,0 L 28.570159,1014.8555 Z"
           style="opacity:0.17000002;fill:url(#linearGradient4156);fill-opacity:1;stroke:none" />
        <path
           inkscape:connector-curvature="0"
           style="fill:url(#linearGradient4166);fill-opacity:1;stroke:none"
           d="m 15.768031,1023.6416 -0.0049,0 L 15.771192,1023.6416 z m -0.0049,0 -9.143133,0 7.319023,-8.8045 5.255529,0.018 L 15.763181,1023.6336 Z"
           id="path4158"
           sodipodi:nodetypes="cccccccccc" />
        <path
           sodipodi:nodetypes="cccccccccc"
           id="path4168"
           d="m 31.993738,1023.6416 0.0049,0 L 31.990576,1023.6416 z m 0.0049,0 9.143133,0 -7.319023,-8.8045 -5.255527,0.018 L 31.998589,1023.6336 Z"
           style="opacity:0.18000004;fill:url(#linearGradient4176);fill-opacity:1;stroke:none"
           inkscape:connector-curvature="0" />
      </g>
      <path
         inkscape:connector-curvature="0"
         id="path4067"
         d="m 40.643126,1024.1466 -16.762248,16.9332 -16.7622511,-16.9332 -0.498628,0.6045 5.5e-6,0 17.2608736,17.437 17.260868,-17.437 2e-5,0 L 40.643126,1024.1466 Z"
         style="fill:#ffffff;fill-opacity:0.23529412;stroke:none" />
      <path
         style="fill:#ffffff;fill-opacity:0.11764706;stroke:none"
         d="m 40.643126,1025.2513 -16.762248,16.9332 -16.7622511,-16.9332 -0.498628,0.6046 5.5e-6,0 17.2608736,17.437 17.260868,-17.437 2e-5,0 L 40.643126,1025.2513 Z"
         id="path4072"
         inkscape:connector-curvature="0" />
      <path
         inkscape:connector-curvature="0"
         id="path4074"
         d="m 40.006059,1027.0064 -16.125179,16.2895 -16.1251799,-16.2895 -0.4796769,0.5816 5.4e-6,0 16.6048514,16.7742 16.604849,-16.7742 1.9e-5,0 L 40.006059,1027.0064 Z"
         style="fill:#ffffff;fill-opacity:0.05882353;stroke:none" />
    </g>
  </g>
</svg>
