<?xml version="1.0" encoding="UTF-8" standalone="no"?>
<!-- Created with Inkscape (http://www.inkscape.org/) -->

<svg
   xmlns:dc="http://purl.org/dc/elements/1.1/"
   xmlns:cc="http://creativecommons.org/ns#"
   xmlns:rdf="http://www.w3.org/1999/02/22-rdf-syntax-ns#"
   xmlns:svg="http://www.w3.org/2000/svg"
   xmlns="http://www.w3.org/2000/svg"
   xmlns:xlink="http://www.w3.org/1999/xlink"
   xmlns:sodipodi="http://sodipodi.sourceforge.net/DTD/sodipodi-0.dtd"
   xmlns:inkscape="http://www.inkscape.org/namespaces/inkscape"
   width="48"
   height="48"
   id="svg2"
   version="1.1"
   inkscape:version="0.48+devel r12272"
   sodipodi:docname="chromium.svg">
  <defs
     id="defs4">
    <linearGradient
       id="linearGradient1005"
       inkscape:collect="always">
      <stop
         id="stop1007"
         offset="0"
         style="stop-color:#008add;stop-opacity:1" />
      <stop
         id="stop1009"
         offset="1"
         style="stop-color:#59e8ff;stop-opacity:1" />
    </linearGradient>
    <linearGradient
       inkscape:collect="always"
       id="linearGradient999">
      <stop
         style="stop-color:#0078bf;stop-opacity:1"
         offset="0"
         id="stop1001" />
      <stop
         style="stop-color:#00cded;stop-opacity:1"
         offset="1"
         id="stop1003" />
    </linearGradient>
    <linearGradient
       id="linearGradient1234"
       inkscape:collect="always">
      <stop
         id="stop1236"
         offset="0"
         style="stop-color:#ffffff;stop-opacity:1;" />
      <stop
         id="stop1238"
         offset="1"
         style="stop-color:#ffffff;stop-opacity:0;" />
    </linearGradient>
    <linearGradient
       id="linearGradient1208"
       inkscape:collect="always">
      <stop
         id="stop1210"
         offset="0"
         style="stop-color:#ffffff;stop-opacity:1;" />
      <stop
         id="stop1212"
         offset="1"
         style="stop-color:#ffffff;stop-opacity:0;" />
    </linearGradient>
    <linearGradient
       id="linearGradient1197"
       inkscape:collect="always">
      <stop
         id="stop1199"
         offset="0"
         style="stop-color:#81ddfc;stop-opacity:1" />
      <stop
         id="stop1201"
         offset="1"
         style="stop-color:#3ab7e3;stop-opacity:0" />
    </linearGradient>
    <linearGradient
       inkscape:collect="always"
       id="linearGradient1185">
      <stop
         style="stop-color:#0e4e8e;stop-opacity:1"
         offset="0"
         id="stop1187" />
      <stop
         style="stop-color:#099ef7;stop-opacity:1"
         offset="1"
         id="stop1189" />
    </linearGradient>
    <linearGradient
       id="linearGradient1175"
       inkscape:collect="always">
      <stop
         id="stop1177"
         offset="0"
         style="stop-color:#05335d;stop-opacity:1" />
      <stop
         id="stop1179"
         offset="1"
         style="stop-color:#035680;stop-opacity:1" />
    </linearGradient>
    <linearGradient
       inkscape:collect="always"
       id="linearGradient860">
      <stop
         style="stop-color:#f9f9f9;stop-opacity:1"
         offset="0"
         id="stop862" />
      <stop
         style="stop-color:#ffffff;stop-opacity:1"
         offset="1"
         id="stop864" />
    </linearGradient>
    <linearGradient
       inkscape:collect="always"
       id="linearGradient4178">
      <stop
         style="stop-color:#81ddfc;stop-opacity:1"
         offset="0"
         id="stop4180" />
      <stop
         style="stop-color:#3ab7e3;stop-opacity:1"
         offset="1"
         id="stop4182" />
    </linearGradient>
    <linearGradient
       id="linearGradient4164"
       inkscape:collect="always">
      <stop
         id="stop4166"
         offset="0"
         style="stop-color:#004b77;stop-opacity:1" />
      <stop
         id="stop4168"
         offset="1"
         style="stop-color:#00addc;stop-opacity:1" />
    </linearGradient>
    <linearGradient
       gradientTransform="translate(44.859651,1.7261308)"
       gradientUnits="userSpaceOnUse"
       y2="-1005.87"
       x2="-20.506096"
       y1="-1053.7349"
       x1="-20.506096"
       id="linearGradient858"
       xlink:href="#linearGradient860"
       inkscape:collect="always" />
    <linearGradient
       gradientUnits="userSpaceOnUse"
       y2="53.568306"
       x2="85.108788"
       y1="115.0866"
       x1="85.108788"
       id="linearGradient966"
       xlink:href="#linearGradient4178"
       inkscape:collect="always" />
    <linearGradient
       y2="1014.34"
       x2="80.891861"
       y1="1029.6227"
       x1="80.891861"
       gradientTransform="matrix(1.5973985,0,0,1.5973985,-112.67331,-615.9699)"
       gradientUnits="userSpaceOnUse"
       id="linearGradient1037"
       xlink:href="#linearGradient4164"
       inkscape:collect="always" />
    <linearGradient
       y2="1014.34"
       x2="80.245941"
       y1="1044.4238"
       x1="80.245941"
       gradientTransform="matrix(1.5973985,0,0,1.5973985,-112.67331,-615.9699)"
       gradientUnits="userSpaceOnUse"
       id="linearGradient1039"
       xlink:href="#linearGradient999"
       inkscape:collect="always" />
    <linearGradient
       y2="1024.7751"
       x2="95.11834"
       y1="1044.4238"
       x1="95.11834"
       gradientTransform="matrix(1.5973985,0,0,1.5973985,-112.67331,-615.9699)"
       gradientUnits="userSpaceOnUse"
       id="linearGradient1041"
       xlink:href="#linearGradient1005"
       inkscape:collect="always" />
    <linearGradient
       y2="117.20849"
       x2="96.07547"
       y1="53.705807"
       x1="96.07547"
       gradientUnits="userSpaceOnUse"
       id="linearGradient1133"
       xlink:href="#linearGradient1175"
       inkscape:collect="always" />
    <linearGradient
       y2="117.20849"
       x2="96.07547"
       y1="53.705807"
       x1="96.07547"
       gradientUnits="userSpaceOnUse"
       id="linearGradient1183"
       xlink:href="#linearGradient1185"
       inkscape:collect="always" />
    <radialGradient
       gradientUnits="userSpaceOnUse"
       r="31.236"
       fy="95.128075"
       fx="84.716156"
       cy="95.128075"
       cx="84.716156"
       id="radialGradient1195"
       xlink:href="#linearGradient1197"
       inkscape:collect="always" />
    <linearGradient
       gradientUnits="userSpaceOnUse"
       y2="28"
       x2="24"
       y1="36.5"
       x1="24"
       id="linearGradient1214"
       xlink:href="#linearGradient1208"
       inkscape:collect="always"
       gradientTransform="translate(1.25e-7,1004.3622)" />
    <linearGradient
       gradientUnits="userSpaceOnUse"
       y2="70.275642"
       x2="84.550667"
       y1="116.29674"
       x1="84.550667"
       id="linearGradient1240"
       xlink:href="#linearGradient1234"
       inkscape:collect="always" />
    <radialGradient
       inkscape:collect="always"
       xlink:href="#linearGradient1197"
       id="radialGradient963"
       gradientUnits="userSpaceOnUse"
       cx="84.716156"
       cy="95.128075"
       fx="84.716156"
       fy="95.128075"
       r="31.236" />
  </defs>
  <sodipodi:namedview
     id="base"
     pagecolor="#ffffff"
     bordercolor="#666666"
     borderopacity="1.0"
     inkscape:pageopacity="0.0"
     inkscape:pageshadow="2"
     inkscape:zoom="5.6568542"
     inkscape:cx="1.1131511"
     inkscape:cy="42.515933"
     inkscape:document-units="px"
     inkscape:current-layer="layer1"
     showgrid="false"
     inkscape:window-width="1366"
     inkscape:window-height="716"
     inkscape:window-x="0"
     inkscape:window-y="28"
     inkscape:window-maximized="1" />
  <metadata
     id="metadata7">
    <rdf:RDF>
      <cc:Work
         rdf:about="">
        <dc:format>image/svg+xml</dc:format>
        <dc:type
           rdf:resource="http://purl.org/dc/dcmitype/StillImage" />
        <dc:title />
      </cc:Work>
    </rdf:RDF>
  </metadata>
  <g
     inkscape:label="Capa 1"
     inkscape:groupmode="layer"
     id="layer1"
     transform="translate(0,-1004.3622)">
    <rect
       style="fill:url(#linearGradient858);fill-opacity:1;stroke:none"
       id="rect2991-1-0"
       width="48"
       height="48"
       x="1.2167969e-06"
       y="-1052.3622"
       ry="1.9445436"
       transform="scale(1,-1)" />
    <path
       inkscape:connector-curvature="0"
       style="fill:url(#linearGradient1037);fill-opacity:1.0"
       d="m 1.9375001,1004.3622 c -1.07727713,0 -1.937499975,0.8602 -1.937499975,1.9375 l 0,10.3438 9.468749975,16.4062 c -1.7735453,-5.6373 -0.071459,-7.5659 3.8749999,-9.0937 l 1.15625,2 c 1.095403,-4.2575 4.931854,-7.4063 9.53125,-7.4063 2.624764,0 5.013183,1.0478 6.78125,2.7188 l 7.53125,0 9.65625,0 0,-14.9688 c 0,-1.0773 -0.860223,-1.9375 -1.9375,-1.9375 L 1.9375001,1004.3622 Z"
       id="path1023" />
    <path
       inkscape:connector-curvature="0"
       style="fill:url(#linearGradient1039);fill-opacity:1.0"
       d="m 1.9375001,1004.3622 c -1.07727713,0 -1.937499975,0.8602 -1.937499975,1.9375 l 0,44.125 c 0,0.1347 0.005431625,0.2482 0.031249995,0.375 0.14434579,0.7737 0.73059422,1.3755 1.49999998,1.5313 0.00946,0 0.021739,-0 0.03125,0 0.1175874,0.022 0.2506379,0.031 0.375,0.031 l 25.2187499,0 6.75,-11.4687 -0.40625,-1.5 c -1.676858,0.4391 -3.613438,-0.3883 -5.625,-1.875 -1.180849,0.4994 -2.480966,0.7812 -3.84375,0.7812 -5.451136,0 -9.875,-4.4239 -9.875,-9.875 0,-0.8864 0.155884,-1.7453 0.375,-2.5625 L 2.2187501,1004.3622 1.9375001,1004.3622 Z"
       id="path1025" />
    <path
       inkscape:connector-curvature="0"
       style="fill:url(#linearGradient1041);fill-opacity:1"
       d="m 30.8125,1021.2685 c 1.903872,1.7993 3.09375,4.3298 3.09375,7.1562 0,4.6222 -3.179137,8.4893 -7.46875,9.5625 l -8.46875,14.375 28.09375,0 c 1.077277,0 1.9375,-0.8602 1.9375,-1.9375 l 0,-29.1562 -9.65625,0 L 30.8125,1021.2685 Z"
       id="path1027" />
    <path
       style="fill:#ffffff;fill-opacity:0.34099618"
       d="m 1.4062501,1006.1747 c -0.2672405,0.072 -0.513511,0.1726 -0.71874997,0.3438 -0.0246576,0.1229 -0.03125,0.2439 -0.03125,0.375 l 0,42.9375 c 0,0.4988 0.19065895,0.9479 0.49999997,1.2812 -0.16905624,-0.075 -0.32865349,-0.1651 -0.46874997,-0.2812 0.15382083,0.759 0.74065567,1.3462 1.49999997,1.5 l 0.03125,0 c 0.1175874,0.022 0.2506379,0.031 0.375,0.031 l 0.75,0 c -0.1243621,0 -0.2574126,-0.01 -0.375,-0.031 l -0.03125,0 c -0.7694058,-0.1558 -1.3556542,-0.7576 -1.5,-1.5313 -0.025818,-0.1268 -0.03125,-0.2403 -0.03125,-0.375 l 0,-44.125 C 1.4062501,1006.2577 1.4037287,1006.2161 1.4062501,1006.1747 z m 45.1874999,0 c 0.0025,0.041 0,0.083 0,0.125 l 0,44.125 c 0,0.1347 -0.0054,0.2482 -0.03125,0.375 -0.144346,0.7737 -0.730594,1.3755 -1.5,1.5313 l -0.03125,0 c -0.117587,0.021 -0.250638,0.031 -0.375,0.031 l 0.75,0 c 0.124362,0 0.257413,-0.01 0.375,-0.031 l 0.03125,0 c 0.759345,-0.1538 1.346179,-0.741 1.5,-1.5 -0.140096,0.1161 -0.299694,0.206 -0.46875,0.2812 0.309342,-0.3333 0.5,-0.7824 0.5,-1.2812 l 0,-42.9375 c 0,-0.1311 -0.0066,-0.2521 -0.03125,-0.375 C 47.107257,1006.3473 46.860989,1006.2463 46.59375,1006.1747 Z"
       id="path1347"
       inkscape:connector-curvature="0"
       sodipodi:nodetypes="ccssccccsccccssccssccccsccccsscc" />
    <g
       id="g1342"
       style="fill:#000000;fill-opacity:0.15686275"
       transform="translate(1.25e-7,8.691406e-6)">
      <path
         inkscape:connector-curvature="0"
         id="path1326"
         transform="translate(0,1004.3622)"
         d="m 2.21875,0 12.3125,21.5 c 0.07919,-0.295477 0.176312,-0.591107 0.28125,-0.875 L 3,0 2.21875,0 Z M 24.8125,14.1875 c -0.169225,0 -0.332955,0.02282 -0.5,0.03125 2.512156,0.07296 4.796289,1.07733 6.5,2.6875 l 0.78125,0 C 29.825683,15.23525 27.437264,14.1875 24.8125,14.1875 Z"
         style="fill:#000000;fill-opacity:0.15686275" />
      <path
         inkscape:connector-curvature="0"
         transform="translate(0,1004.3622)"
         id="path1311"
         d="M 1.9375,0 C 1.8234354,0 1.7021843,0.01272544 1.59375,0.03125 L 13.90625,21.5 c -0.219116,0.8172 -0.375,1.6761 -0.375,2.5625 0,5.4511 4.423864,9.875 9.875,9.875 0.0959,0 0.185952,-0.02815 0.28125,-0.03125 -5.289008,-0.184786 -9.53125,-4.509935 -9.53125,-9.84375 0,-0.886375 0.155884,-1.745264 0.375,-2.5625 L 2.21875,0 1.9375,0 z m 24.5,33.625 C 26.214749,33.68116 25.978662,33.70755 25.75,33.75 L 17.34375,48 17.96875,48 26.4375,33.625 Z"
         style="fill:#000000;fill-opacity:0.15686275" />
      <path
         inkscape:connector-curvature="0"
         id="path1321"
         transform="translate(0,1004.3622)"
         d="m 30.8125,16.90625 c 0.237984,0.224918 0.472758,0.471833 0.6875,0.71875 0.01927,0.02206 0.04357,0.04033 0.0625,0.0625 1.468106,1.719117 2.34375,3.934351 2.34375,6.375 0,0.171354 -0.02262,0.330826 -0.03125,0.5 9.1e-4,0.03159 -0.0046,0.06319 0,0.09375 -0.01277,0.211105 -0.03673,0.417685 -0.0625,0.625 -0.0038,0.03086 0.0041,0.06298 0,0.09375 -0.01666,0.124117 -0.04126,0.252406 -0.0625,0.375 -0.02408,0.138561 -0.06398,0.26974 -0.09375,0.40625 -0.05691,0.260975 -0.110469,0.528456 -0.1875,0.78125 -0.07703,0.252794 -0.184981,0.506287 -0.28125,0.75 -0.09627,0.243713 -0.197878,0.485017 -0.3125,0.71875 -0.189408,0.386235 -0.388677,0.769275 -0.625,1.125 -0.0497,0.07482 -0.104579,0.145393 -0.15625,0.21875 -0.148677,0.211075 -0.304372,0.395354 -0.46875,0.59375 -0.123628,0.148925 -0.242948,0.296155 -0.375,0.4375 -0.04851,0.05225 -0.106627,0.10507 -0.15625,0.15625 -0.135026,0.138169 -0.263347,0.276163 -0.40625,0.40625 -0.04887,0.04489 -0.106471,0.0811 -0.15625,0.125 -0.193128,0.170341 -0.387573,0.313786 -0.59375,0.46875 -0.08247,0.06199 -0.16554,0.128075 -0.25,0.1875 -0.09419,0.06599 -0.184685,0.124748 -0.28125,0.1875 -0.155734,0.101202 -0.307108,0.219987 -0.46875,0.3125 -0.07222,0.04134 -0.145396,0.08545 -0.21875,0.125 -0.02835,0.01536 -0.06523,0.01616 -0.09375,0.03125 -0.209551,0.110274 -0.406883,0.217145 -0.625,0.3125 -0.02174,0.0096 -0.04068,0.02185 -0.0625,0.03125 -0.07919,0.03397 -0.169761,0.0618 -0.25,0.09375 -0.405482,0.16202 -0.81973,0.298603 -1.25,0.40625 L 17.96875,48 l 0.46875,0 0.25,0 8.0625,-13.6875 c 2.009885,-0.575701 3.767159,-1.749421 5.03125,-3.34375 1.75296,-1.777703 2.84375,-4.209967 2.84375,-6.90625 0,-2.440673 -0.875644,-4.655905 -2.34375,-6.375 l 6.0625,0 9.65625,0 0,-0.78125 -9.65625,0 -6.8125,0 L 30.8125,16.90625 Z"
         style="fill:#000000;fill-opacity:0.15686275" />
    </g>
    <path
       inkscape:connector-curvature="0"
       style="fill:#000000;fill-opacity:0.39215686;stroke:none"
       d="m 1.9374969,1004.3622 c -1.07727603,0 -1.937499025,0.8602 -1.937499025,1.9375 l 0,43.0625 c 0,0.7934 0.480023995,1.449 1.156249025,1.75 -0.30934103,-0.3333 -0.49999903,-0.7824 -0.49999903,-1.2812 l 0,-42.9375 c 0,-1.0482 0.82689793,-1.875 1.87499903,-1.875 l 42.9375001,0 c 1.048101,0 1.875005,0.8268 1.875005,1.875 l 0,42.9375 c 0,0.4988 -0.190663,0.9479 -0.500005,1.2812 0.676225,-0.301 1.156255,-0.9566 1.156255,-1.75 l 0,-43.0625 c 0,-1.0773 -0.860228,-1.9375 -1.937505,-1.9375 L 1.9374969,1004.3622 Z"
       id="rect4280-0" />
    <path
       style="fill:#000000"
       d=""
       id="path906"
       inkscape:connector-curvature="0" />
    <circle
       d="m 116.55,85.711998 c 0,17.251162 -13.98483,31.236002 -31.235997,31.236002 -17.251166,0 -31.236,-13.98484 -31.236,-31.236002 0,-17.251166 13.984834,-31.236 31.236,-31.236 C 102.56517,54.475998 116.55,68.460832 116.55,85.711998 Z"
       id="circle53_1_"
       cx="85.314003"
       cy="85.711998"
       r="31.236"
       sodipodi:cx="85.314003"
       sodipodi:cy="85.711998"
       sodipodi:rx="31.236"
       sodipodi:ry="31.236"
       style="fill:url(#linearGradient966);fill-opacity:1"
       transform="matrix(0.18792918,0,0,-0.18792918,8.0055744,1044.5308)" />
    <circle
       d="m 116.55,85.711998 c 0,17.251162 -13.98483,31.236002 -31.235997,31.236002 -17.251166,0 -31.236,-13.98484 -31.236,-31.236002 0,-17.251166 13.984834,-31.236 31.236,-31.236 C 102.56517,54.475998 116.55,68.460832 116.55,85.711998 Z"
       transform="matrix(0.2839722,0,0,-0.2839722,-0.18824068,1052.7628)"
       style="fill:url(#linearGradient1133);fill-opacity:1"
       sodipodi:ry="31.236"
       sodipodi:rx="31.236"
       sodipodi:cy="85.711998"
       sodipodi:cx="85.314003"
       r="31.236"
       cy="85.711998"
       cx="85.314003"
       id="circle1107" />
    <circle
       d="m 116.55,85.711998 c 0,17.251162 -13.98483,31.236002 -31.235997,31.236002 -17.251166,0 -31.236,-13.98484 -31.236,-31.236002 0,-17.251166 13.984834,-31.236 31.236,-31.236 C 102.56517,54.475998 116.55,68.460832 116.55,85.711998 Z"
       id="circle1181"
       cx="85.314003"
       cy="85.711998"
       r="31.236"
       sodipodi:cx="85.314003"
       sodipodi:cy="85.711998"
       sodipodi:rx="31.236"
       sodipodi:ry="31.236"
       style="fill:url(#linearGradient1183);fill-opacity:1"
       transform="matrix(0.25195786,0,0,-0.25195786,2.543031,1050.0188)" />
    <circle
       d="m 116.55,85.711998 c 0,17.251162 -13.98483,31.236002 -31.235997,31.236002 -17.251166,0 -31.236,-13.98484 -31.236,-31.236002 0,-17.251166 13.984834,-31.236 31.236,-31.236 C 102.56517,54.475998 116.55,68.460832 116.55,85.711998 Z"
       transform="matrix(0.2839722,0,0,-0.2839722,-0.18824068,1052.7628)"
       style="fill:url(#radialGradient963);fill-opacity:1"
       sodipodi:ry="31.236"
       sodipodi:rx="31.236"
       sodipodi:cy="85.711998"
       sodipodi:cx="85.314003"
       r="31.236"
       cy="85.711998"
       cx="85.314003"
       id="circle1191" />
    <path
       inkscape:connector-curvature="0"
       style="opacity:0.35;fill:url(#linearGradient1214);fill-opacity:1"
       d="m 32.875,1029.1435 c -1.610437,3.263 -4.958753,5.5312 -8.84375,5.5312 -3.872885,0 -7.196216,-2.2534 -8.8125,-5.5 0.382201,4.5464 4.167287,8.125 8.8125,8.125 C 28.687195,1037.2997 32.507811,1033.7049 32.875,1029.1435 Z"
       id="circle1203" />
    <circle
       d="m 116.55,85.711998 c 0,17.251162 -13.98483,31.236002 -31.235997,31.236002 -17.251166,0 -31.236,-13.98484 -31.236,-31.236002 0,-17.251166 13.984834,-31.236 31.236,-31.236 C 102.56517,54.475998 116.55,68.460832 116.55,85.711998 Z"
       id="circle1218"
       cx="85.314003"
       cy="85.711998"
       r="31.236"
       sodipodi:cx="85.314003"
       sodipodi:cy="85.711998"
       sodipodi:rx="31.236"
       sodipodi:ry="31.236"
       style="fill:url(#radialGradient1195);fill-opacity:1"
       transform="matrix(0.2839722,0,0,-0.2839722,-0.18824068,1052.7628)" />
    <circle
       d="m 116.55,85.711998 c 0,17.251162 -13.98483,31.236002 -31.235997,31.236002 -17.251166,0 -31.236,-13.98484 -31.236,-31.236002 0,-17.251166 13.984834,-31.236 31.236,-31.236 C 102.56517,54.475998 116.55,68.460832 116.55,85.711998 Z"
       transform="matrix(0.21119441,0,0,-0.17107709,6.0207245,1040.37)"
       style="opacity:0.62999998;fill:url(#linearGradient1240);fill-opacity:1"
       sodipodi:ry="31.236"
       sodipodi:rx="31.236"
       sodipodi:cy="85.711998"
       sodipodi:cx="85.314003"
       r="31.236"
       cy="85.711998"
       cx="85.314003"
       id="circle1224" />
    <path
       inkscape:connector-curvature="0"
       style="fill:#000000;fill-opacity:1;stroke:none"
       d="m -2.125e-6,1049.3622 0,1.0625 c 0,1.0773 0.860222995,1.9375 1.937499025,1.9375 l 44.1250001,0 c 1.077277,0 1.937505,-0.8602 1.937505,-1.9375 l 0,-1.0625 c 0,1.0773 -0.860228,1.9375 -1.937505,1.9375 l -44.1250001,0 C 0.86022087,1051.2997 -2.125e-6,1050.4395 -2.125e-6,1049.3622 Z"
       id="rect846-6" />
    <path
       inkscape:connector-curvature="0"
       style="fill:#ffffff;fill-opacity:0.5372549;stroke:none"
       d="m 2.5312469,1005.0185 c -0.917088,0 -1.67114603,0.6395 -1.84374903,1.5 0.33561093,-0.2799 0.77451093,-0.4375 1.24999903,-0.4375 l 44.1250001,0 c 0.475488,0 0.914388,0.1576 1.250005,0.4375 -0.172608,-0.8605 -0.926667,-1.5 -1.843755,-1.5 L 2.5312469,1005.0185 Z"
       id="path7515-7" />
    <path
       style="fill:#000000;fill-opacity:0.12643678"
       d="m 26.4375,1037.9872 c -0.769832,0.1941 -1.577307,0.3125 -2.40625,0.3125 -0.817105,0 -1.615498,-0.094 -2.375,-0.2812 L 18.275,1051.8935 18.28125,1051.8935 Z"
       id="path63_1_"
       inkscape:connector-curvature="0"
       sodipodi:nodetypes="cscccc" />
    <path
       style="fill:#000000;fill-opacity:0.12643678"
       d="m 30.8125,1021.2685 c 0.941737,0.89 1.683995,1.9611 2.21875,3.1562 0.0058,0.013 0.02551,0.018 0.03125,0.031 0.121831,0.137 0.260576,0.2614 0.375,0.4062 l 14.5625,-3.55 0,-0.044 L 38.34375,1021.2685 Z"
       id="path65_1_"
       inkscape:connector-curvature="0"
       sodipodi:nodetypes="cccccccc" />
    <path
       style="fill:#000000;fill-opacity:0.12643678"
       d="m 2.2187501,1004.3622 8.6874999,15.25 3.625,6.2813 c 0.366816,-1.3854 1.026703,-2.6427 1.90625,-3.7188 0.01325,-0.041 0.01538,-0.085 0.03125,-0.125 L 2.2370001,1004.3622 Z"
       id="path1297"
       inkscape:connector-curvature="0"
       sodipodi:nodetypes="ccccccc" />
  </g>
</svg>
