<?xml version="1.0" encoding="UTF-8" standalone="no"?>
<!-- Created with Inkscape (http://www.inkscape.org/) -->

<svg
   xmlns:dc="http://purl.org/dc/elements/1.1/"
   xmlns:cc="http://creativecommons.org/ns#"
   xmlns:rdf="http://www.w3.org/1999/02/22-rdf-syntax-ns#"
   xmlns:svg="http://www.w3.org/2000/svg"
   xmlns="http://www.w3.org/2000/svg"
   xmlns:xlink="http://www.w3.org/1999/xlink"
   xmlns:sodipodi="http://sodipodi.sourceforge.net/DTD/sodipodi-0.dtd"
   xmlns:inkscape="http://www.inkscape.org/namespaces/inkscape"
   width="48"
   height="48"
   id="svg2"
   version="1.1"
   inkscape:version="0.48+devel r12399"
   sodipodi:docname="empathy.svg">
  <defs
     id="defs4">
    <linearGradient
       id="linearGradient4202"
       inkscape:collect="always">
      <stop
         id="stop4204"
         offset="0"
         style="stop-color:#b7fb5e;stop-opacity:1" />
      <stop
         id="stop4206"
         offset="1"
         style="stop-color:#87d645;stop-opacity:0" />
    </linearGradient>
    <linearGradient
       id="linearGradient4192"
       inkscape:collect="always">
      <stop
         id="stop4194"
         offset="0"
         style="stop-color:#257b0c;stop-opacity:1" />
      <stop
         id="stop4196"
         offset="1"
         style="stop-color:#93e62f;stop-opacity:1" />
    </linearGradient>
    <linearGradient
       inkscape:collect="always"
       id="linearGradient853">
      <stop
         style="stop-color:#36b512;stop-opacity:1"
         offset="0"
         id="stop855" />
      <stop
         style="stop-color:#93e62f;stop-opacity:1"
         offset="1"
         id="stop857" />
    </linearGradient>
    <linearGradient
       inkscape:collect="always"
       xlink:href="#linearGradient979"
       id="linearGradient1027"
       gradientUnits="userSpaceOnUse"
       gradientTransform="matrix(0.83524224,0,0,0.76128591,3.9541856,1010.0784)"
       x1="19.578018"
       y1="-3.1429415"
       x2="19.578018"
       y2="4.3699422" />
    <linearGradient
       inkscape:collect="always"
       id="linearGradient979">
      <stop
         style="stop-color:#000000;stop-opacity:1;"
         offset="0"
         id="stop981" />
      <stop
         style="stop-color:#000000;stop-opacity:0;"
         offset="1"
         id="stop983" />
    </linearGradient>
    <linearGradient
       inkscape:collect="always"
       xlink:href="#linearGradient845"
       id="linearGradient851"
       x1="25.102289"
       y1="1046.4266"
       x2="25.102289"
       y2="1007.2967"
       gradientUnits="userSpaceOnUse"
       gradientTransform="matrix(0.83524224,0,0,0.76128591,3.9541856,245.72079)" />
    <linearGradient
       inkscape:collect="always"
       id="linearGradient845">
      <stop
         style="stop-color:#8eda68;stop-opacity:1"
         offset="0"
         id="stop847" />
      <stop
         id="stop4243"
         offset="0.5"
         style="stop-color:#d5f2c4;stop-opacity:1;" />
      <stop
         style="stop-color:#f0fbe5;stop-opacity:1"
         offset="1"
         id="stop849" />
    </linearGradient>
    <linearGradient
       inkscape:collect="always"
       xlink:href="#linearGradient979"
       id="linearGradient930"
       x1="19.578018"
       y1="-3.1429415"
       x2="19.578018"
       y2="4.3699422"
       gradientUnits="userSpaceOnUse"
       gradientTransform="matrix(0.83524224,0,0,0.76128591,3.9541856,1010.3274)" />
    <linearGradient
       inkscape:collect="always"
       xlink:href="#linearGradient907"
       id="linearGradient945"
       x1="26.625"
       y1="40.875"
       x2="26.625"
       y2="31.875"
       gradientUnits="userSpaceOnUse"
       gradientTransform="matrix(0.84442195,0,0,0.84442195,3.7338728,5.7161)" />
    <linearGradient
       inkscape:collect="always"
       id="linearGradient907">
      <stop
         style="stop-color:#ffffff;stop-opacity:1;"
         offset="0"
         id="stop909" />
      <stop
         style="stop-color:#ffffff;stop-opacity:0;"
         offset="1"
         id="stop911" />
    </linearGradient>
    <linearGradient
       y2="-1004.358"
       x2="27.930716"
       y1="-1052.3662"
       x1="27.930716"
       gradientUnits="userSpaceOnUse"
       id="linearGradient1166"
       xlink:href="#linearGradient853"
       inkscape:collect="always"
       gradientTransform="translate(-2e-6,-1.8531406e-5)" />
    <linearGradient
       inkscape:collect="always"
       xlink:href="#linearGradient4192"
       id="linearGradient4174"
       x1="24.5625"
       y1="1027.8146"
       x2="24.5625"
       y2="1022.7059"
       gradientUnits="userSpaceOnUse"
       gradientTransform="matrix(1.0666667,0,0,1.0666667,-1.5999999,-67.490813)" />
    <linearGradient
       inkscape:collect="always"
       xlink:href="#linearGradient907"
       id="linearGradient4190"
       x1="14.157954"
       y1="1022.7135"
       x2="14.157954"
       y2="1025.1577"
       gradientUnits="userSpaceOnUse"
       gradientTransform="matrix(0.71116058,0,0,0.49741786,3.3990514,515.27503)" />
    <linearGradient
       inkscape:collect="always"
       xlink:href="#linearGradient4202"
       id="linearGradient4200"
       gradientUnits="userSpaceOnUse"
       gradientTransform="matrix(0.71116058,0,0,-0.49741786,3.3990514,1537.3082)"
       x1="14.157954"
       y1="1022.7135"
       x2="14.157954"
       y2="1026.3898" />
    <linearGradient
       inkscape:collect="always"
       xlink:href="#linearGradient4202"
       id="linearGradient4218"
       gradientUnits="userSpaceOnUse"
       gradientTransform="matrix(0.71116058,0,0,-0.49741786,13.999811,1537.3082)"
       x1="14.157954"
       y1="1022.7135"
       x2="14.157954"
       y2="1026.3898" />
    <linearGradient
       inkscape:collect="always"
       xlink:href="#linearGradient907"
       id="linearGradient4220"
       gradientUnits="userSpaceOnUse"
       gradientTransform="matrix(0.71116058,0,0,0.49741786,13.999811,515.27503)"
       x1="14.157954"
       y1="1022.7135"
       x2="14.157954"
       y2="1025.1577" />
    <linearGradient
       inkscape:collect="always"
       xlink:href="#linearGradient907"
       id="linearGradient4226"
       gradientUnits="userSpaceOnUse"
       gradientTransform="matrix(0.71116058,0,0,0.49741786,24.600569,515.27503)"
       x1="14.157954"
       y1="1022.7135"
       x2="14.157954"
       y2="1025.1577" />
    <linearGradient
       inkscape:collect="always"
       xlink:href="#linearGradient4202"
       id="linearGradient4228"
       gradientUnits="userSpaceOnUse"
       gradientTransform="matrix(0.71116058,0,0,-0.49741786,24.600569,1537.3082)"
       x1="14.157954"
       y1="1022.7135"
       x2="14.157954"
       y2="1026.3898" />
    <linearGradient
       inkscape:collect="always"
       xlink:href="#linearGradient4192"
       id="linearGradient4234"
       gradientUnits="userSpaceOnUse"
       x1="24.5625"
       y1="1027.8146"
       x2="24.5625"
       y2="1022.7059"
       gradientTransform="matrix(1.0666667,0,0,1.0666667,-1.5999999,-67.490813)" />
    <linearGradient
       inkscape:collect="always"
       xlink:href="#linearGradient4192"
       id="linearGradient4236"
       gradientUnits="userSpaceOnUse"
       x1="24.5625"
       y1="1027.8146"
       x2="24.5625"
       y2="1022.7059"
       gradientTransform="matrix(1.0666667,0,0,1.0666667,-1.5999999,-67.490813)" />
  </defs>
  <sodipodi:namedview
     id="base"
     pagecolor="#ffffff"
     bordercolor="#666666"
     borderopacity="1.0"
     inkscape:pageopacity="0.0"
     inkscape:pageshadow="2"
     inkscape:zoom="2.8284271"
     inkscape:cx="4.6274601"
     inkscape:cy="33.770051"
     inkscape:document-units="px"
     inkscape:current-layer="layer1"
     showgrid="false"
     inkscape:window-width="1366"
     inkscape:window-height="714"
     inkscape:window-x="0"
     inkscape:window-y="30"
     inkscape:window-maximized="1">
    <inkscape:grid
       type="xygrid"
       id="grid3850"
       empspacing="5"
       visible="true"
       enabled="true"
       snapvisiblegridlinesonly="true" />
  </sodipodi:namedview>
  <metadata
     id="metadata7">
    <rdf:RDF>
      <cc:Work
         rdf:about="">
        <dc:format>image/svg+xml</dc:format>
        <dc:type
           rdf:resource="http://purl.org/dc/dcmitype/StillImage" />
        <dc:title />
      </cc:Work>
    </rdf:RDF>
  </metadata>
  <g
     inkscape:label="Capa 1"
     inkscape:groupmode="layer"
     id="layer1"
     transform="translate(0,-1004.3622)">
    <rect
       style="fill:url(#linearGradient1166);fill-opacity:1;stroke:none"
       id="rect2991-1-8"
       width="48"
       height="48"
       x="-1.8146973e-06"
       y="-1052.3622"
       ry="1.9445436"
       transform="scale(1,-1)" />
    <path
       inkscape:connector-curvature="0"
       style="fill:#ffffff;fill-opacity:0.5372549;stroke:none"
       d="m 2.531248,1005.0185 c -0.917089,0 -1.671147,0.6395 -1.84375,1.5 0.335612,-0.2799 0.774512,-0.4375 1.25,-0.4375 l 44.125004,0 c 0.47548,0 0.91438,0.1576 1.25,0.4375 -0.17261,-0.8605 -0.92667,-1.5 -1.84375,-1.5 L 2.531248,1005.0185 Z"
       id="path7515-2" />
    <path
       inkscape:connector-curvature="0"
       style="fill:#000000;fill-opacity:0.39215686;stroke:none"
       d="m 1.937498,1004.3622 c -1.077277,0 -1.9375,0.8602 -1.9375,1.9375 l 0,43.0625 c 0,0.7934 0.480023,1.449 1.15625,1.75 -0.309342,-0.3333 -0.5,-0.7824 -0.5,-1.2812 l 0,-42.9375 c 0,-1.0482 0.826899,-1.875 1.875,-1.875 l 42.937504,0 c 1.0481,0 1.875,0.8268 1.875,1.875 l 0,42.9375 c 0,0.4988 -0.19066,0.9479 -0.5,1.2812 0.67622,-0.301 1.15625,-0.9566 1.15625,-1.75 l 0,-43.0625 c 0,-1.0773 -0.86023,-1.9375 -1.9375,-1.9375 L 1.937498,1004.3622 Z"
       id="rect4280" />
    <path
       inkscape:connector-curvature="0"
       style="fill:#000000;fill-opacity:1;stroke:none"
       d="m -2e-6,1049.3622 0,1.0625 c 0,1.0773 0.860223,1.9375 1.9375,1.9375 l 44.125004,0 c 1.07727,0 1.9375,-0.8602 1.9375,-1.9375 l 0,-1.0625 c 0,1.0773 -0.86023,1.9375 -1.9375,1.9375 l -44.125004,0 C 0.860221,1051.2997 -2e-6,1050.4395 -2e-6,1049.3622 Z"
       id="rect846-5" />
    <g
       id="g4363">
      <path
         sodipodi:nodetypes="csscccsscscccsc"
         inkscape:connector-curvature="0"
         id="path4156"
         d="m 6.2250005,1037.2649 0,2.6883 c 0,0.9057 0.8073053,1.6176 1.8009912,1.6176 l 12.8679503,0 3.106058,2.7914 3.106057,-2.7914 12.867952,0 c 0.993684,0 1.800989,-0.7119 1.800989,-1.6176 l 0,-2.6883 c 0,0.9055 -0.807305,1.6177 -1.800989,1.6177 l -12.867952,0 -3.106057,2.7913 -3.106058,-2.7913 -12.8679503,0 C 7.0323058,1038.8826 6.2250005,1038.1704 6.2250005,1037.2649 Z"
         style="fill:#000000;fill-opacity:0.05882353;stroke:none" />
      <path
         sodipodi:nodetypes="csscccsscscccsc"
         style="fill:#000000;fill-opacity:0.11764706;stroke:none"
         d="m 6.2250005,1036.6323 0,2.6882 c 0,0.9057 0.8073053,1.6176 1.8009912,1.6176 l 12.8679503,0 3.106058,2.7914 3.106057,-2.7914 12.867952,0 c 0.993684,0 1.800989,-0.7119 1.800989,-1.6176 l 0,-2.6882 c 0,0.9055 -0.807305,1.6176 -1.800989,1.6176 l -12.867952,0 -3.106057,2.7912 -3.106058,-2.7912 -12.8679503,0 C 7.0323058,1038.2499 6.2250005,1037.5378 6.2250005,1036.6323 Z"
         id="path4154"
         inkscape:connector-curvature="0" />
      <path
         style="opacity:0.35200004;fill:url(#linearGradient1027);fill-opacity:1;stroke:none"
         d="m 8.0259917,1012.3622 c -0.9936859,0 -1.8009912,0.7597 -1.8009912,1.6653 l 0,1.0468 c 0,-0.9056 0.8073053,-1.6652 1.8009912,-1.6652 l 31.9480163,0 c 0.993685,0 1.80099,0.7596 1.80099,1.6652 l 0,-1.0468 c 0,-0.9056 -0.807305,-1.6653 -1.80099,-1.6653 L 8.0259917,1012.3622 Z"
         id="path1025"
         inkscape:connector-curvature="0" />
      <path
         sodipodi:nodetypes="csscccsscscccsc"
         inkscape:connector-curvature="0"
         id="path866"
         d="m 6.2250005,1036.0521 0,2.6883 c 0,0.9057 0.8073053,1.6176 1.8009912,1.6176 l 12.8679503,0 3.106058,2.7914 3.106057,-2.7914 12.867952,0 c 0.993684,0 1.800989,-0.7119 1.800989,-1.6176 l 0,-2.6883 c 0,0.9055 -0.807305,1.6177 -1.800989,1.6177 l -12.867952,0 L 24,1040.461 l -3.106058,-2.7912 -12.8679503,0 C 7.0323058,1037.6698 6.2250005,1036.9576 6.2250005,1036.0521 Z"
         style="fill:#000000;fill-opacity:0.23529412;stroke:none" />
      <path
         sodipodi:nodetypes="sssscccsssss"
         inkscape:connector-curvature="0"
         id="rect840"
         d="m 8.0308647,1012.6115 c -0.9936859,0 -1.8159848,0.7493 -1.8159848,1.655 l 0,23.7771 c 0,0.9056 0.8222989,1.6289 1.8159848,1.6289 l 12.8560163,0 3.113118,2.7796 3.113117,-2.7796 12.856018,0 c 0.993686,0 1.815984,-0.7233 1.815984,-1.6289 l 0,-23.7771 C 41.785118,1013.3608 40.96282,1012.6115 39.969134,1012.6115 Z"
         style="fill:url(#linearGradient851);fill-opacity:1.0;stroke:none" />
      <path
         inkscape:connector-curvature="0"
         id="path919"
         d="m 8.0259917,1012.6115 c -0.9936859,0 -1.8009912,0.7596 -1.8009912,1.6652 l 0,1.0468 c 0,-0.9056 0.8073053,-1.6653 1.8009912,-1.6653 l 31.9480163,0 c 0.993685,0 1.80099,0.7597 1.80099,1.6653 l 0,-1.0468 c 0,-0.9056 -0.807305,-1.6652 -1.80099,-1.6652 L 8.0259917,1012.6115 Z"
         style="opacity:0.35200004;fill:url(#linearGradient930);fill-opacity:1;stroke:none" />
      <path
         id="path934"
         transform="translate(0,1004.3622)"
         d="M 6.2143622 32.5385 L 6.2143622 33.6875 C 6.2143622 34.5931 7.0414612 35.2971 8.0351473 35.2971 L 20.886195 35.2971 L 24 38.0983 L 27.113806 35.2971 L 39.964851 35.2971 C 40.958539 35.2971 41.785638 34.5931 41.785638 33.6875 L 41.785638 32.5385 C 41.785638 33.4441 40.958539 34.1481 39.964851 34.1481 L 27.113806 34.1481 L 24 36.9493 L 20.886195 34.1481 L 8.0351473 34.1481 C 7.0414612 34.1481 6.2143622 33.4441 6.2143622 32.5385 z "
         style="opacity:0.88999999;fill:url(#linearGradient945);fill-opacity:1;stroke:none" />
      <path
         inkscape:connector-curvature="0"
         id="path4216"
         d="m 13.399241,1023.433 c -1.495793,0 -2.705402,1.2096 -2.705402,2.7055 0,1.4957 1.209609,2.7053 2.705402,2.7053 1.495794,0 2.705402,-1.2096 2.705402,-2.7053 C 16.104643,1024.6426 14.895035,1023.433 13.399241,1023.433 Z"
         style="fill:url(#linearGradient4174);fill-opacity:1;stroke:none" />
      <path
         inkscape:connector-curvature="0"
         id="path4214"
         d="m 23.999999,1023.433 c -1.495793,0 -2.705401,1.2096 -2.705401,2.7055 0,1.4957 1.209608,2.7053 2.705401,2.7053 1.495794,0 2.705402,-1.2096 2.705402,-2.7053 C 26.705401,1024.6426 25.495793,1023.433 23.999999,1023.433 Z"
         style="fill:url(#linearGradient4236);fill-opacity:1;stroke:none" />
      <path
         inkscape:connector-curvature="0"
         id="path997"
         d="m 34.600757,1023.433 c -1.495793,0 -2.705401,1.2096 -2.705401,2.7055 0,1.4957 1.209608,2.7053 2.705401,2.7053 1.495795,0 2.705402,-1.2096 2.705402,-2.7053 C 37.306159,1024.6426 36.096552,1023.433 34.600757,1023.433 Z"
         style="fill:url(#linearGradient4234);fill-opacity:1;stroke:none" />
      <path
         inkscape:connector-curvature="0"
         id="path1004"
         d="m 10.693839,1026.2213 c -8.27e-4,0.027 0,0.056 0,0.083 0,1.4958 1.209609,2.7054 2.705402,2.7054 1.495794,0 2.705402,-1.2096 2.705402,-2.7054 0,-0.027 8.27e-4,-0.055 0,-0.083 -0.04376,1.4573 -1.237378,2.6225 -2.705402,2.6225 C 11.931216,1028.8438 10.737605,1027.6786 10.693839,1026.2213 z m 10.600759,0 c -8.28e-4,0.027 0,0.056 0,0.083 0,1.4958 1.209608,2.7054 2.705401,2.7054 1.495794,0 2.705402,-1.2096 2.705402,-2.7054 0,-0.027 8.28e-4,-0.055 0,-0.083 -0.04376,1.4573 -1.237377,2.6225 -2.705402,2.6225 C 22.531975,1028.8438 21.338363,1027.6786 21.294598,1026.2213 z m 10.600758,0 c -8.28e-4,0.027 0,0.056 0,0.083 0,1.4958 1.209608,2.7054 2.705401,2.7054 1.495795,0 2.705402,-1.2096 2.705402,-2.7054 0,-0.027 8.28e-4,-0.055 0,-0.083 -0.04375,1.4573 -1.237378,2.6225 -2.705402,2.6225 C 33.132732,1028.8438 31.939121,1027.6786 31.895356,1026.2213 Z"
         style="fill:#ffffff;fill-opacity:0.627451;stroke:none" />
      <path
         style="fill:#ffffff;fill-opacity:0.39215687;stroke:none"
         d="m 10.693839,1026.3869 c -8.27e-4,0.027 0,0.055 0,0.083 0,1.4959 1.209609,2.7055 2.705402,2.7055 1.495794,0 2.705402,-1.2096 2.705402,-2.7055 0,-0.027 8.27e-4,-0.055 0,-0.083 -0.04376,1.4574 -1.237378,2.6227 -2.705402,2.6227 C 11.931216,1029.0096 10.737605,1027.8443 10.693839,1026.3869 z m 10.600759,0 c -8.28e-4,0.027 0,0.055 0,0.083 0,1.4959 1.209608,2.7055 2.705401,2.7055 1.495794,0 2.705402,-1.2096 2.705402,-2.7055 0,-0.027 8.28e-4,-0.055 0,-0.083 -0.04376,1.4574 -1.237377,2.6227 -2.705402,2.6227 C 22.531975,1029.0096 21.338363,1027.8443 21.294598,1026.3869 z m 10.600758,0 c -8.28e-4,0.027 0,0.055 0,0.083 0,1.4959 1.209608,2.7055 2.705401,2.7055 1.495795,0 2.705402,-1.2096 2.705402,-2.7055 0,-0.027 8.28e-4,-0.055 0,-0.083 -0.04375,1.4574 -1.237378,2.6227 -2.705402,2.6227 C 33.132732,1029.0096 31.939121,1027.8443 31.895356,1026.3869 Z"
         id="path1009"
         inkscape:connector-curvature="0" />
      <path
         inkscape:connector-curvature="0"
         id="path1011"
         d="m 10.693839,1026.5525 c -8.27e-4,0.027 0,0.055 0,0.083 0,1.4957 1.209609,2.7053 2.705402,2.7053 1.495794,0 2.705402,-1.2096 2.705402,-2.7053 0,-0.027 8.27e-4,-0.055 0,-0.083 -0.04376,1.4574 -1.237378,2.6226 -2.705402,2.6226 C 11.931216,1029.1751 10.737605,1028.0099 10.693839,1026.5525 z m 10.600759,0 c -8.28e-4,0.027 0,0.055 0,0.083 0,1.4957 1.209608,2.7053 2.705401,2.7053 1.495794,0 2.705402,-1.2096 2.705402,-2.7053 0,-0.027 8.28e-4,-0.055 0,-0.083 -0.04376,1.4574 -1.237377,2.6226 -2.705402,2.6226 C 22.531975,1029.1751 21.338363,1028.0099 21.294598,1026.5525 z m 10.600758,0 c -8.28e-4,0.027 0,0.055 0,0.083 0,1.4957 1.209608,2.7053 2.705401,2.7053 1.495795,0 2.705402,-1.2096 2.705402,-2.7053 0,-0.027 8.28e-4,-0.055 0,-0.083 -0.04375,1.4574 -1.237378,2.6226 -2.705402,2.6226 C 33.132732,1029.1751 31.939121,1028.0099 31.895356,1026.5525 Z"
         style="fill:#ffffff;fill-opacity:0.3137255;stroke:none" />
      <path
         inkscape:connector-curvature="0"
         id="path4158"
         d="m 39.969134,1012.6115 -31.9382693,0 c -0.9936858,0 -1.8159847,0.7493 -1.8159847,1.655 l 0,0.8 c 0,-0.9057 0.8222989,-1.655 1.8159847,-1.655 l 31.9382693,0 c 0.993686,0 1.815984,0.7493 1.815984,1.655 l 0,-0.8 C 41.785118,1013.3608 40.96282,1012.6115 39.969134,1012.6115 Z"
         style="fill:#ffffff;fill-opacity:0.50196078;stroke:none" />
      <path
         inkscape:connector-curvature="0"
         id="path4163"
         d="m 13.399241,1023.433 c -1.495793,0 -2.705402,1.2096 -2.705402,2.7055 0,0.069 0.01513,0.1328 0.02012,0.2 0.103904,-1.4005 1.258015,-2.5055 2.685282,-2.5055 1.427268,0 2.581378,1.105 2.685282,2.5055 0.005,-0.067 0.02012,-0.1315 0.02012,-0.2 C 16.104643,1024.6426 14.895035,1023.433 13.399241,1023.433 z m 10.600758,0 c -1.495793,0 -2.705401,1.2096 -2.705401,2.7055 0,0.069 0.01513,0.1328 0.02012,0.2 0.103904,-1.4005 1.258015,-2.5055 2.685282,-2.5055 1.427269,0 2.581378,1.105 2.685282,2.5055 0.005,-0.067 0.02012,-0.1315 0.02012,-0.2 C 26.705401,1024.6426 25.495793,1023.433 23.999999,1023.433 z m 10.600758,0 c -1.495793,0 -2.705401,1.2096 -2.705401,2.7055 0,0.069 0.01513,0.1328 0.02012,0.2 0.103904,-1.4005 1.258013,-2.5055 2.685281,-2.5055 1.427269,0 2.581379,1.105 2.685283,2.5055 0.005,-0.067 0.02012,-0.1315 0.02012,-0.2 C 37.306159,1024.6426 36.096552,1023.433 34.600757,1023.433 Z"
         style="fill:#000000;fill-opacity:0.23529412;stroke:none" />
      <path
         inkscape:connector-curvature="0"
         id="path4182"
         d="m 13.399241,1024.0048 c -0.997265,0 -1.803727,0.564 -1.803727,1.2616 0,0.6975 0.806462,1.2616 1.803727,1.2616 0.997265,0 1.803727,-0.5641 1.803727,-1.2616 C 15.202968,1024.5688 14.396506,1024.0048 13.399241,1024.0048 Z"
         style="fill:url(#linearGradient4190);fill-opacity:1;stroke:none" />
      <path
         style="fill:url(#linearGradient4200);fill-opacity:1;stroke:none"
         d="m 13.399241,1028.5785 c -0.997265,0 -1.803727,-0.564 -1.803727,-1.2616 0,-0.6975 0.806462,-1.2616 1.803727,-1.2616 0.997265,0 1.803727,0.5641 1.803727,1.2616 C 15.202968,1028.0145 14.396506,1028.5785 13.399241,1028.5785 Z"
         id="path4198"
         inkscape:connector-curvature="0" />
      <path
         style="fill:url(#linearGradient4220);fill-opacity:1;stroke:none"
         d="m 23.999999,1024.0048 c -0.997265,0 -1.803727,0.564 -1.803727,1.2616 0,0.6975 0.806462,1.2616 1.803727,1.2616 0.997265,0 1.803727,-0.5641 1.803727,-1.2616 C 25.803726,1024.5688 24.997264,1024.0048 23.999999,1024.0048 Z"
         id="path4208"
         inkscape:connector-curvature="0" />
      <path
         inkscape:connector-curvature="0"
         id="path4210"
         d="m 23.999999,1028.5785 c -0.997265,0 -1.803727,-0.564 -1.803727,-1.2616 0,-0.6975 0.806462,-1.2616 1.803727,-1.2616 0.997265,0 1.803727,0.5641 1.803727,1.2616 C 25.803726,1028.0145 24.997264,1028.5785 23.999999,1028.5785 Z"
         style="fill:url(#linearGradient4218);fill-opacity:1;stroke:none" />
      <path
         inkscape:connector-curvature="0"
         id="path4222"
         d="m 34.600758,1024.0048 c -0.997265,0 -1.803727,0.564 -1.803727,1.2616 0,0.6975 0.806462,1.2616 1.803727,1.2616 0.997265,0 1.803727,-0.5641 1.803727,-1.2616 C 36.404485,1024.5688 35.598023,1024.0048 34.600758,1024.0048 Z"
         style="fill:url(#linearGradient4226);fill-opacity:1;stroke:none" />
      <path
         style="fill:url(#linearGradient4228);fill-opacity:1;stroke:none"
         d="m 34.600758,1028.5785 c -0.997265,0 -1.803727,-0.564 -1.803727,-1.2616 0,-0.6975 0.806462,-1.2616 1.803727,-1.2616 0.997265,0 1.803727,0.5641 1.803727,1.2616 C 36.404485,1028.0145 35.598023,1028.5785 34.600758,1028.5785 Z"
         id="path4224"
         inkscape:connector-curvature="0" />
    </g>
  </g>
</svg>
