<?xml version="1.0" encoding="UTF-8" standalone="no"?>
<!-- Created with Inkscape (http://www.inkscape.org/) -->

<svg
   xmlns:dc="http://purl.org/dc/elements/1.1/"
   xmlns:cc="http://creativecommons.org/ns#"
   xmlns:rdf="http://www.w3.org/1999/02/22-rdf-syntax-ns#"
   xmlns:svg="http://www.w3.org/2000/svg"
   xmlns="http://www.w3.org/2000/svg"
   xmlns:xlink="http://www.w3.org/1999/xlink"
   xmlns:sodipodi="http://sodipodi.sourceforge.net/DTD/sodipodi-0.dtd"
   xmlns:inkscape="http://www.inkscape.org/namespaces/inkscape"
   width="48"
   height="48.000019"
   id="svg2"
   version="1.1"
   inkscape:version="0.48+devel r12388"
   sodipodi:docname="footnote.svg">
  <defs
     id="defs4">
    <linearGradient
       id="linearGradient14081"
       inkscape:collect="always">
      <stop
         id="stop14083"
         offset="0"
         style="stop-color:#ffe6a9;stop-opacity:1" />
      <stop
         id="stop14085"
         offset="1"
         style="stop-color:#fff2d3;stop-opacity:1" />
    </linearGradient>
    <linearGradient
       id="linearGradient69"
       inkscape:collect="always">
      <stop
         id="stop71"
         offset="0"
         style="stop-color:#3b2a1c;stop-opacity:1" />
      <stop
         id="stop73"
         offset="1"
         style="stop-color:#966b4f;stop-opacity:1" />
    </linearGradient>
    <linearGradient
       inkscape:collect="always"
       xlink:href="#linearGradient14081"
       id="linearGradient46"
       x1="379.23444"
       y1="-487.90109"
       x2="379.23444"
       y2="-439.78378"
       gradientUnits="userSpaceOnUse" />
    <linearGradient
       inkscape:collect="always"
       xlink:href="#linearGradient69"
       id="linearGradient66"
       gradientUnits="userSpaceOnUse"
       x1="364.25262"
       y1="-462.26846"
       x2="353.13626"
       y2="-462.26846"
       gradientTransform="matrix(0,1,1,0,840.9336,86.64788)" />
  </defs>
  <sodipodi:namedview
     id="base"
     pagecolor="#ffffff"
     bordercolor="#666666"
     borderopacity="1.0"
     inkscape:pageopacity="0.0"
     inkscape:pageshadow="2"
     inkscape:zoom="2.8284271"
     inkscape:cx="78.319366"
     inkscape:cy="17.551496"
     inkscape:document-units="px"
     inkscape:current-layer="layer1"
     showgrid="false"
     fit-margin-top="0"
     fit-margin-left="0"
     fit-margin-right="0"
     fit-margin-bottom="0"
     inkscape:window-width="1366"
     inkscape:window-height="714"
     inkscape:window-x="0"
     inkscape:window-y="30"
     inkscape:window-maximized="1">
    <inkscape:grid
       type="xygrid"
       id="grid894" />
  </sodipodi:namedview>
  <metadata
     id="metadata7">
    <rdf:RDF>
      <cc:Work
         rdf:about="">
        <dc:format>image/svg+xml</dc:format>
        <dc:type
           rdf:resource="http://purl.org/dc/dcmitype/StillImage" />
        <dc:title></dc:title>
      </cc:Work>
    </rdf:RDF>
  </metadata>
  <g
     inkscape:label="Capa 1"
     inkscape:groupmode="layer"
     id="layer1"
     transform="translate(-353.14286,-439.79074)">
    <rect
       style="fill:url(#linearGradient46);fill-opacity:1;stroke:none"
       id="rect2991-1-7"
       width="48"
       height="48"
       x="353.14288"
       y="-487.79074"
       ry="1.9445436"
       transform="scale(1,-1)" />
    <path
       style="fill:#231b09;fill-opacity:0.28735632;stroke:none"
       d="M 0 15.28125 L 0 15.78125 L 48 15.78125 L 48 15.28125 L 0 15.28125 z M 0 23.59375 L 0 24.09375 L 48 24.09375 L 48 23.59375 L 0 23.59375 z M 0 31.90625 L 0 32.40625 L 48 32.40625 L 48 31.90625 L 0 31.90625 z M 0 40.21875 L 0 40.71875 L 48 40.71875 L 48 40.21875 L 0 40.21875 z "
       transform="translate(353.14286,439.79074)"
       id="rect4090" />
    <rect
       style="fill:#d55051;fill-opacity:0.36781609;stroke:none"
       id="rect4086"
       width="0.5"
       height="48"
       x="357.89285"
       y="439.79074"
       ry="0" />
    <rect
       ry="0"
       y="439.79074"
       x="360.43576"
       height="48"
       width="0.5"
       id="rect4088"
       style="fill:#d55051;fill-opacity:0.36781609;stroke:none" />
    <path
       style="fill:url(#linearGradient66);fill-opacity:1;stroke:none"
       d="m 401.14286,441.72824 c 0,-1.07728 -0.86022,-1.9375 -1.9375,-1.9375 l -44.125,0 c -1.07727,0 -1.9375,0.86022 -1.9375,1.9375 l 0,9.1875 48,0 L 401.14286,441.72824 Z"
       id="rect48"
       inkscape:connector-curvature="0" />
    <g
       id="g885"
       transform="matrix(0,1,-1,0,840.9336,86.64787)">
      <path
         id="rect75"
         transform="translate(353.14286,439.79074)"
         d="m 11.125,0 0,48 0.59375,0 0,-48 L 11.125,0 Z"
         style="fill:#ffffff;fill-opacity:0.19607843"
         inkscape:connector-curvature="0" />
      <path
         id="rect877"
         transform="translate(353.14286,439.79074)"
         d="m 10.53125,0 0,48 0.59375,0 0,-48 L 10.53125,0 Z"
         style="fill:#000000;fill-opacity:0.19607843"
         inkscape:connector-curvature="0" />
    </g>
    <path
       inkscape:connector-curvature="0"
       style="fill:#000000;fill-opacity:1;stroke:none"
       d="m 353.14285,484.79076 0,1.0625 c 0,1.0773 0.86022,1.9375 1.9375,1.9375 l 44.125,0 c 1.07728,0 1.9375,-0.8602 1.9375,-1.9375 l 0,-1.0625 c 0,1.0773 -0.86022,1.9375 -1.9375,1.9375 l -44.125,0 C 354.00307,486.72826 353.14285,485.86806 353.14285,484.79076 Z"
       id="rect846" />
    <path
       inkscape:connector-curvature="0"
       style="fill:#ffffff;fill-opacity:0.5372549;stroke:none"
       d="m 355.6741,440.44706 c -0.91709,0 -1.67115,0.6395 -1.84375,1.5 0.33561,-0.2799 0.77451,-0.4375 1.25,-0.4375 l 44.125,0 c 0.47549,0 0.91439,0.1576 1.25,0.4375 -0.1726,-0.8605 -0.92666,-1.5 -1.84375,-1.5 L 355.6741,440.44706 Z"
       id="path7515" />
    <path
       inkscape:connector-curvature="0"
       style="fill:#000000;fill-opacity:0.39215686;stroke:none"
       d="m 355.08035,439.79076 c -1.07728,0 -1.9375,0.8602 -1.9375,1.9375 l 0,43.0625 c 0,0.7934 0.48002,1.449 1.15625,1.75 -0.30934,-0.3333 -0.5,-0.7824 -0.5,-1.2812 l 0,-42.9375 c 0,-1.0482 0.8269,-1.875 1.875,-1.875 l 42.9375,0 c 1.0481,0 1.875,0.8268 1.875,1.875 l 0,42.9375 c 0,0.4988 -0.19066,0.9479 -0.5,1.2812 0.67623,-0.301 1.15625,-0.9566 1.15625,-1.75 l 0,-43.0625 c 0,-1.0773 -0.86022,-1.9375 -1.9375,-1.9375 L 355.08035,439.79076 Z"
       id="rect4280" />
    <g
       id="g1112"
       transform="matrix(1.9471732,0,0,1.9471732,343.06733,-1532.1235)">
      <g
         style="fill:#000000;fill-opacity:0.45562134"
         transform="matrix(0.10416666,0,0,0.10416666,10.833334,924.08878)"
         id="layer1-2">
        <path
           d="m 64,940.36218 c -26.509667,0 -48,21.49034 -48,48 0,26.50972 21.490333,48.00002 48,48.00002 26.509664,0 48,-21.4903 48,-48.00002 C 112,961.85252 90.509664,940.36218 64,940.36218 z m 0,4 c 20.15479,0 37.14462,13.55176 42.355,32.04 -4.4877,9.25637 -10.873381,17.59038 -18.650002,24.32502 -3.735795,3.2352 -7.814534,6.1193 -12.32,8.15 -4.505465,2.0307 -9.461145,3.1829 -14.394998,2.9 -3.706902,-0.2126 -7.368725,-1.2452 -10.615,-3.045 8.603218,-4.6618 16.365742,-10.87737 22.720002,-18.32002 4.170803,-4.88521 7.819942,-10.43709 9.224998,-16.705 0.702528,-3.13395 0.821581,-6.4161 0.164998,-9.56 -0.656582,-3.1439 -2.110188,-6.1399 -4.309996,-8.48 -2.149082,-2.28613 -4.97033,-3.90553 -7.995002,-4.74 -3.024672,-0.83446 -6.24345,-0.89907 -9.33,-0.335 -6.173101,1.12814 -11.684554,4.71584 -16.105,9.17 -7.79168,7.8511 -12.608581,18.92915 -11.725,29.955 0.441789,5.51292 2.289248,10.93012 5.455,15.46502 0.706642,1.0122 1.483501,1.9764 2.315,2.89 -4.611828,1.614 -9.386995,2.7629 -14.23,3.41 C 22.40195,1004.7634 20,996.8442 20,988.36218 20,964.06165 39.69947,944.36218 64,944.36218 z m 0.28,8.89 c 3.093024,0.004 6.207066,0.94057 8.675002,2.805 2.223488,1.67977 3.871027,4.06951 4.804998,6.695 0.933971,2.62549 1.173658,5.47662 0.855002,8.245 -0.637319,5.53677 -3.430458,10.61442 -6.804999,15.05 -5.975053,7.85375 -13.917093,14.13972 -22.750003,18.54002 -0.904118,0.4504 -1.822565,0.8785 -2.745,1.29 -1.921973,-1.6819 -3.569314,-3.6768 -4.825,-5.90002 -2.623798,-4.64556 -3.489056,-10.16402 -2.98,-15.475 0.509056,-5.31097 2.331648,-10.42962 4.78,-15.17 2.838755,-5.49625 6.70822,-10.70239 12.125,-13.69 C 58.12339,954.14838 61.186973,953.24799 64.28,953.25218 z m 43.325,29.22 c 0.25778,1.9268 0.395,3.89265 0.395,5.89 0,24.30052 -19.699469,44.00002 -44,44.00002 -13.647425,0 -25.844438,-6.2128 -33.915,-15.965 4.98138,-1.1314 9.850072,-2.7565 14.52,-4.825 2.042194,1.5553 4.297558,2.8309 6.695,3.75 6.904163,2.6469 14.742694,2.2639 21.730003,-0.155 6.987303,-2.4189 13.183469,-6.7606 18.584999,-11.81 C 98.049619,997.34198 103.47485,990.25205 107.605,982.47218 Z"
           inkscape:connector-curvature="0"
           id="path2993"
           style="fill:#000000;fill-opacity:0.45562134;stroke:none" />
      </g>
      <path
         inkscape:connector-curvature="0"
         id="path1016"
         d="m 17.5,1022.4716 c -2.267105,0 -4.131702,1.6504 -4.5,3.8125 0.427377,-2.0885 2.285108,-3.6563 4.5,-3.6563 2.064019,0 3.800941,1.374 4.375,3.25 0.01062,-0.021 0.02083,-0.041 0.03125,-0.062 C 21.363502,1023.8894 19.599457,1022.4716 17.5,1022.4716 z m 0.03125,0.9375 c -0.32219,-4e-4 -0.655376,0.094 -0.9375,0.25 -0.564247,0.3112 -0.954297,0.8337 -1.25,1.4062 -0.255037,0.4938 -0.44697,1.0406 -0.5,1.5938 -0.0051,0.053 0.0024,0.1027 0,0.1562 0.05303,-0.5532 0.244963,-1.0999 0.5,-1.5937 0.295703,-0.5726 0.685753,-1.0951 1.25,-1.4063 0.282124,-0.1556 0.61531,-0.2505 0.9375,-0.25 0.32219,4e-4 0.649173,0.087 0.90625,0.2813 0.231613,0.1749 0.402712,0.414 0.5,0.6875 0.04865,0.1367 0.0795,0.293 0.09375,0.4375 -0.0038,-0.1972 -0.02773,-0.4082 -0.09375,-0.5938 -0.09729,-0.2735 -0.268387,-0.5125 -0.5,-0.6875 C 18.180423,1023.4961 17.85344,1023.4095 17.53125,1023.4091 z m 1.9375,1.6875 c -0.007,0.1465 -0.03041,0.2943 -0.0625,0.4375 -0.14636,0.6529 -0.534291,1.2411 -0.96875,1.75 -0.661902,0.7752 -1.447581,1.4206 -2.34375,1.9062 0.04952,0.027 0.104992,0.039 0.15625,0.062 0.83336,-0.4748 1.564661,-1.0829 2.1875,-1.8125 0.434459,-0.5089 0.82239,-1.0971 0.96875,-1.75 C 19.449674,1025.4966 19.472309,1025.2949 19.46875,1025.0966 z m 2.5625,1.3437 c -0.430223,0.8104 -0.985985,1.5607 -1.65625,2.1875 -0.56266,0.526 -1.209655,0.9668 -1.9375,1.2188 -0.727844,0.2518 -1.530817,0.3069 -2.25,0.031 -0.249734,-0.096 -0.506022,-0.2442 -0.71875,-0.4062 -0.486451,0.2155 -0.981106,0.3822 -1.5,0.5 0.03648,0.044 0.08692,0.082 0.125,0.125 0.475938,-0.116 0.927162,-0.2705 1.375,-0.4688 0.212728,0.162 0.469016,0.3106 0.71875,0.4063 0.719183,0.2757 1.522156,0.2205 2.25,-0.031 0.727845,-0.252 1.37484,-0.6927 1.9375,-1.2187 0.670265,-0.6266 1.226027,-1.3771 1.65625,-2.1875 C 22.026168,1026.5464 22.037896,1026.49 22.03125,1026.4403 z m -7.75,0.75 c 0.0017,0.055 -0.0044,0.1011 0,0.1563 0.04602,0.5743 0.232734,1.1526 0.5625,1.625 0.03909,0.056 0.08203,0.1031 0.125,0.1562 0.03981,-0.013 0.08542,-0.017 0.125,-0.031 -0.08661,-0.095 -0.17639,-0.1759 -0.25,-0.2813 C 14.513984,1028.3429 14.32727,1027.7645 14.28125,1027.1903 z m -1.75,0.375 c 0.18138,2.5964 2.326192,4.6563 4.96875,4.6563 2.642558,0 4.78737,-2.0599 4.96875,-4.6563 -0.25605,2.5213 -2.379916,4.5 -4.96875,4.5 C 14.911166,1032.0653 12.7873,1030.0866 12.53125,1027.5653 Z"
         style="fill:#ffffff;fill-opacity:0.70414201;stroke:none" />
      <path
         inkscape:connector-curvature="0"
         id="path1027"
         d="m 17.5,1021.9503 c -2.091778,0 -3.847754,1.3017 -4.59375,3.125 0.759041,-1.7946 2.522683,-3.0313 4.59375,-3.0313 2.071067,0 3.834709,1.2367 4.59375,3.0313 C 21.347753,1023.252 19.591778,1021.9503 17.5,1021.9503 z m 0.15625,1.0312 c -0.163396,-0.01 -0.307992,0 -0.46875,0.031 -0.643031,0.1175 -1.227037,0.4735 -1.6875,0.9375 -0.630355,0.6351 -1.063976,1.4943 -1.1875,2.375 0.140336,-0.8475 0.578775,-1.6679 1.1875,-2.2813 0.460463,-0.464 1.044469,-0.82 1.6875,-0.9375 0.321516,-0.059 0.65368,-0.056 0.96875,0.031 0.31507,0.087 0.588637,0.2619 0.8125,0.5 0.229147,0.2438 0.40036,0.5475 0.46875,0.875 -0.005,-0.031 0.0064,-0.063 0,-0.094 -0.06839,-0.3275 -0.239603,-0.6312 -0.46875,-0.875 -0.223863,-0.2381 -0.49743,-0.4131 -0.8125,-0.5 C 17.998715,1023.0005 17.819646,1022.9868 17.65625,1022.9815 z m 1.375,2.1563 c -0.06639,0.5768 -0.367235,1.1005 -0.71875,1.5625 -0.622401,0.8181 -1.454905,1.4791 -2.375,1.9375 -0.09418,0.047 -0.185163,0.082 -0.28125,0.125 -0.200206,-0.1751 -0.3692,-0.3623 -0.5,-0.5938 -0.125938,-0.223 -0.229183,-0.4681 -0.28125,-0.7187 0.05007,0.2733 0.144593,0.5392 0.28125,0.7812 0.1308,0.2315 0.299794,0.4498 0.5,0.625 0.09609,-0.043 0.18707,-0.078 0.28125,-0.125 0.920095,-0.4584 1.752599,-1.1194 2.375,-1.9375 0.351515,-0.462 0.65236,-0.9858 0.71875,-1.5625 C 19.034807,1025.2006 19.029046,1025.1688 19.03125,1025.1378 z m 2.84375,0.5937 c -0.466412,0.9486 -1.10715,1.808 -1.90625,2.5 -0.389146,0.337 -0.81193,0.6323 -1.28125,0.8438 -0.469319,0.2116 -0.986057,0.342 -1.5,0.3125 -0.353006,-0.02 -0.684328,-0.1224 -1,-0.2813 -0.03245,0.018 -0.06106,0.045 -0.09375,0.062 0.338154,0.1875 0.707614,0.2905 1.09375,0.3125 0.513943,0.029 1.030681,-0.1009 1.5,-0.3125 0.46932,-0.2115 0.892104,-0.5067 1.28125,-0.8437 0.810064,-0.7015 1.470031,-1.5671 1.9375,-2.5313 C 21.900072,1025.7721 21.881495,1025.7533 21.875,1025.7315 z m 0.125,2.125 c -0.427379,2.0886 -2.285108,3.6563 -4.5,3.6563 -1.39076,0 -2.628188,-0.6158 -3.46875,-1.5938 -0.0219,0.01 -0.04056,0.026 -0.0625,0.031 0.840683,1.0158 2.109644,1.6562 3.53125,1.6562 C 19.747278,1031.6065 21.608751,1029.9907 22,1027.8565 z m -8.90625,0.375 c 0.116826,0.4259 0.273023,0.852 0.5,1.2188 0.50448,-0.067 1.019601,-0.2069 1.5,-0.375 -0.02031,-0.022 -0.04284,-0.04 -0.0625,-0.062 -0.460674,0.1566 -0.955217,0.2793 -1.4375,0.3437 C 13.377185,1029.0066 13.210442,1028.6357 13.09375,1028.2315 Z"
         style="fill:#000000;fill-opacity:0.27218939;stroke:none" />
    </g>
  </g>
</svg>
