<?xml version="1.0" encoding="UTF-8" standalone="no"?>
<!-- Created with Inkscape (http://www.inkscape.org/) -->

<svg
   xmlns:dc="http://purl.org/dc/elements/1.1/"
   xmlns:cc="http://creativecommons.org/ns#"
   xmlns:rdf="http://www.w3.org/1999/02/22-rdf-syntax-ns#"
   xmlns:svg="http://www.w3.org/2000/svg"
   xmlns="http://www.w3.org/2000/svg"
   xmlns:xlink="http://www.w3.org/1999/xlink"
   xmlns:sodipodi="http://sodipodi.sourceforge.net/DTD/sodipodi-0.dtd"
   xmlns:inkscape="http://www.inkscape.org/namespaces/inkscape"
   width="48"
   height="48"
   id="svg2"
   version="1.1"
   inkscape:version="0.48+devel r12399"
   sodipodi:docname="gajim.svg">
  <defs
     id="defs4">
    <linearGradient
       inkscape:collect="always"
       id="linearGradient4139">
      <stop
         style="stop-color:#ffffff;stop-opacity:1;"
         offset="0"
         id="stop4141" />
      <stop
         style="stop-color:#ffffff;stop-opacity:0;"
         offset="1"
         id="stop4143" />
    </linearGradient>
    <linearGradient
       inkscape:collect="always"
       id="linearGradient4129">
      <stop
         style="stop-color:#cde5fc;stop-opacity:1"
         offset="0"
         id="stop4131" />
      <stop
         style="stop-color:#dbeffd;stop-opacity:1"
         offset="1"
         id="stop4133" />
    </linearGradient>
    <linearGradient
       id="linearGradient850">
      <stop
         id="stop852"
         offset="0"
         style="stop-color:#0768ad;stop-opacity:1" />
      <stop
         id="stop854"
         offset="1"
         style="stop-color:#0987e3;stop-opacity:1" />
    </linearGradient>
    <linearGradient
       inkscape:collect="always"
       xlink:href="#linearGradient850"
       id="linearGradient4579"
       x1="-29.87195"
       y1="-1050.6622"
       x2="-29.87195"
       y2="-1002.6563"
       gradientUnits="userSpaceOnUse"
       gradientTransform="translate(53.206474,-1.6973112)" />
    <linearGradient
       inkscape:collect="always"
       xlink:href="#linearGradient4129"
       id="linearGradient4135"
       x1="-26.3125"
       y1="48.4375"
       x2="-26.3125"
       y2="29.918522"
       gradientUnits="userSpaceOnUse"
       gradientTransform="matrix(1.6272307,0,0,1.6272307,68.874409,963.73991)" />
    <linearGradient
       inkscape:collect="always"
       xlink:href="#linearGradient4139"
       id="linearGradient4145"
       x1="25.875"
       y1="1044.8622"
       x2="25.875"
       y2="1038.6747"
       gradientUnits="userSpaceOnUse" />
  </defs>
  <sodipodi:namedview
     id="base"
     pagecolor="#ffffff"
     bordercolor="#666666"
     borderopacity="1.0"
     inkscape:pageopacity="0.0"
     inkscape:pageshadow="2"
     inkscape:zoom="5.6568543"
     inkscape:cx="15.476398"
     inkscape:cy="28.313866"
     inkscape:document-units="px"
     inkscape:current-layer="layer1"
     showgrid="false"
     inkscape:window-width="1366"
     inkscape:window-height="714"
     inkscape:window-x="0"
     inkscape:window-y="30"
     inkscape:window-maximized="1"
     showguides="false">
    <inkscape:grid
       type="xygrid"
       id="grid3850"
       empspacing="5"
       visible="true"
       enabled="true"
       snapvisiblegridlinesonly="true" />
  </sodipodi:namedview>
  <metadata
     id="metadata7">
    <rdf:RDF>
      <cc:Work
         rdf:about="">
        <dc:format>image/svg+xml</dc:format>
        <dc:type
           rdf:resource="http://purl.org/dc/dcmitype/StillImage" />
        <dc:title />
      </cc:Work>
    </rdf:RDF>
  </metadata>
  <g
     inkscape:label="Capa 1"
     inkscape:groupmode="layer"
     id="layer1"
     transform="translate(0,-1004.3622)">
    <rect
       style="fill:url(#linearGradient4579);fill-opacity:1;stroke:none"
       id="rect2991-1"
       width="48"
       height="48"
       x="-1.520996e-07"
       y="-1052.3622"
       ry="1.9445436"
       transform="scale(1,-1)" />
    <path
       inkscape:connector-curvature="0"
       style="fill:#000000;fill-opacity:1;stroke:none"
       d="m 1.5209961e-7,1049.3623 0,1.0625 c 0,1.0773 0.86022299790039,1.9375 1.93750004790039,1.9375 l 44.1249998,0 c 1.077277,0 1.9375,-0.8602 1.9375,-1.9375 l 0,-1.0625 c 0,1.0773 -0.860223,1.9375 -1.9375,1.9375 l -44.1249998,0 C 0.86022315,1051.2998 1.5209961e-7,1050.4396 1.5209961e-7,1049.3623 Z"
       id="rect846" />
    <path
       inkscape:connector-curvature="0"
       style="fill:#ffffff;fill-opacity:0.5372549;stroke:none"
       d="m 2.5312502,1005.0186 c -0.917089,0 -1.67114705,0.6395 -1.84375005,1.5 0.33561205,-0.2799 0.77451205,-0.4375 1.25000005,-0.4375 l 44.1249998,0 c 0.475488,0 0.914388,0.1576 1.25,0.4375 -0.172603,-0.8605 -0.926662,-1.5 -1.84375,-1.5 L 2.5312502,1005.0186 Z"
       id="path7515" />
    <path
       inkscape:connector-curvature="0"
       style="fill:#000000;fill-opacity:0.39215686;stroke:none"
       d="m 1.9375002,1004.3623 c -1.07727705,0 -1.93750004790039,0.8602 -1.93750004790039,1.9375 l 0,43.0625 c 0,0.7934 0.48002299790039,1.449 1.15625004790039,1.75 -0.30934205,-0.3333 -0.50000005,-0.7824 -0.50000005,-1.2812 l 0,-42.9375 c 0,-1.0482 0.82689905,-1.875 1.87500005,-1.875 l 42.9374998,0 c 1.048101,0 1.875,0.8268 1.875,1.875 l 0,42.9375 c 0,0.4988 -0.190658,0.9479 -0.5,1.2812 0.676226,-0.301 1.15625,-0.9566 1.15625,-1.75 l 0,-43.0625 c 0,-1.0773 -0.860223,-1.9375 -1.9375,-1.9375 L 1.9375002,1004.3623 Z"
       id="rect4280-6" />
    <g
       id="g4158">
      <path
         style="fill:#000000;fill-opacity:0.11764706;stroke:none"
         d="m 9.0600222,1028.3262 c -0.0029,0.1204 -0.01816,0.2382 -0.01816,0.3596 0,8.2611 6.6969848,14.9581 14.9581358,14.9581 3.614254,0 6.929116,-1.2817 9.514765,-3.4157 1.460721,0.8073 2.92671,1.8946 4.447871,3.4157 0.665033,-1.1517 0.937778,-2.5355 0.952324,-3.9797 -0.0942,1.1822 -0.397995,2.3006 -0.952324,3.2607 -1.521161,-1.5212 -2.98715,-2.6086 -4.447871,-3.4159 -2.585649,2.1339 -5.900511,3.4157 -9.514765,3.4157 C 15.86025,1042.9247 9.2528672,1036.4197 9.0600222,1028.3262 z m 29.8800598,0 c -0.04574,1.8845 -0.43069,3.684 -1.111091,5.334 0.04913,0.1139 0.08652,0.2332 0.132766,0.3483 0.633017,-1.6564 0.996381,-3.446 0.996381,-5.3248 C 38.958138,1028.565 38.942925,1028.4482 38.940082,1028.3283 Z"
         id="path4101"
         inkscape:connector-curvature="0" />
      <path
         inkscape:connector-curvature="0"
         id="path4093"
         d="m 9.0600222,1027.6079 c -0.0029,0.1204 -0.01816,0.2382 -0.01816,0.3596 0,8.2611 6.6969848,14.9582 14.9581358,14.9582 3.614254,0 6.929116,-1.2818 9.514765,-3.4157 1.460721,0.8072 2.92671,1.8945 4.447871,3.4157 0.665033,-1.1518 0.937778,-2.5356 0.952324,-3.9797 -0.0942,1.1821 -0.397995,2.3005 -0.952324,3.2606 -1.521161,-1.5211 -2.98715,-2.6086 -4.447871,-3.4159 -2.585649,2.134 -5.900511,3.4157 -9.514765,3.4157 C 15.86025,1042.2064 9.2528672,1035.7014 9.0600222,1027.6079 z m 29.8800598,0 c -0.04574,1.8845 -0.43069,3.6841 -1.111091,5.3341 0.04913,0.1139 0.08652,0.2332 0.132766,0.3482 0.633017,-1.6564 0.996381,-3.446 0.996381,-5.3248 C 38.958138,1027.8468 38.942925,1027.7299 38.940082,1027.61 Z"
         style="fill:#000000;fill-opacity:0.23529412;stroke:none" />
      <path
         inkscape:connector-curvature="0"
         id="path4103"
         d="m 9.0600222,1029.0444 c -0.0029,0.1204 -0.01816,0.2383 -0.01816,0.3596 0,8.2612 6.6969848,14.9582 14.9581358,14.9582 3.614254,0 6.929116,-1.2818 9.514765,-3.4157 1.460721,0.8072 2.92671,1.8946 4.447871,3.4157 0.665033,-1.1518 0.937778,-2.5356 0.952324,-3.9797 -0.0942,1.1822 -0.397995,2.3006 -0.952324,3.2606 -1.521161,-1.5211 -2.98715,-2.6086 -4.447871,-3.4159 -2.585649,2.134 -5.900511,3.4158 -9.514765,3.4158 C 15.86025,1043.643 9.2528672,1037.1379 9.0600222,1029.0444 z m 29.8800598,0 c -0.04574,1.8845 -0.43069,3.6841 -1.111091,5.3341 0.04913,0.1139 0.08652,0.2332 0.132766,0.3482 0.633017,-1.6563 0.996381,-3.446 0.996381,-5.3248 C 38.958138,1029.2833 38.942925,1029.1665 38.940082,1029.0465 Z"
         style="fill:#000000;fill-opacity:0.05882353;stroke:none" />
      <path
         inkscape:connector-curvature="0"
         id="path4067"
         d="m 24,1012.3622 c -8.261151,0 -14.9581358,6.697 -14.9581358,14.9581 0,8.2612 6.6969848,14.9582 14.9581358,14.9582 3.614253,0 6.929116,-1.2819 9.514765,-3.4157 1.460721,0.8072 2.926709,1.8946 4.447871,3.4157 1.478208,-2.5604 1.174824,-6.2463 -0.133638,-9.2624 0.724217,-1.7563 1.12914,-3.678 1.12914,-5.6958 C 38.958138,1019.0592 32.261151,1012.3622 24,1012.3622 z m -7.766724,12.5173 c 1.348042,0 2.440847,1.0928 2.440847,2.4409 0,1.348 -1.092805,2.4408 -2.440847,2.4408 -1.348041,0 -2.440846,-1.0928 -2.440846,-2.4408 C 13.79243,1025.9723 14.885235,1024.8795 16.233276,1024.8795 z m 7.766724,0 c 1.348042,0 2.440846,1.0928 2.440846,2.4409 0,1.348 -1.092804,2.4408 -2.440846,2.4408 -1.348042,0 -2.440846,-1.0928 -2.440846,-2.4408 C 21.559154,1025.9723 22.651958,1024.8795 24,1024.8795 z m 7.766723,0 c 1.348044,0 2.440846,1.0928 2.440846,2.4409 0,1.348 -1.092802,2.4408 -2.440846,2.4408 -1.348042,0 -2.440846,-1.0928 -2.440846,-2.4408 C 29.325877,1025.9723 30.418681,1024.8795 31.766723,1024.8795 Z"
         style="fill:url(#linearGradient4135);fill-opacity:1;stroke:none" />
      <path
         inkscape:connector-curvature="0"
         id="path4105"
         d="m 31.766723,1024.8795 c -1.348042,0 -2.440846,1.0928 -2.440846,2.4409 0,0.068 0.01452,0.1314 0.01994,0.1978 0.102319,-1.2539 1.140617,-2.2431 2.420906,-2.2431 1.280291,0 2.318589,0.9892 2.420908,2.2431 0.0054,-0.066 0.01994,-0.1301 0.01994,-0.1978 C 34.207569,1025.9723 33.114767,1024.8795 31.766723,1024.8795 Z"
         style="fill:#000000;fill-opacity:0.31372549;stroke:none" />
      <path
         inkscape:connector-curvature="0"
         style="fill:#000000;fill-opacity:0.31372549;stroke:none"
         d="m 24,1024.8795 c -1.348042,0 -2.440846,1.0929 -2.440846,2.4409 0,0.068 0.01448,0.1318 0.01993,0.1978 0.102321,-1.2539 1.140617,-2.2431 2.420906,-2.2431 1.280291,0 2.318589,0.9892 2.420908,2.2431 0.0054,-0.067 0.01993,-0.1301 0.01993,-0.1978 C 26.440846,1025.9724 25.348043,1024.8795 24,1024.8795 Z"
         id="path4110" />
      <path
         id="path4112"
         d="m 16.233281,1024.8795 c -1.348042,0 -2.440846,1.0929 -2.440846,2.4409 0,0.068 0.01448,0.1318 0.01993,0.1978 0.10232,-1.2539 1.140617,-2.2431 2.420906,-2.2431 1.28029,0 2.318589,0.9892 2.420907,2.2431 0.0054,-0.067 0.01993,-0.1301 0.01993,-0.1978 C 18.674127,1025.9724 17.581325,1024.8795 16.233281,1024.8795 Z"
         style="fill:#000000;fill-opacity:0.31372549;stroke:none"
         inkscape:connector-curvature="0" />
      <path
         sodipodi:nodetypes="csscccccsc"
         inkscape:connector-curvature="0"
         id="path4114"
         d="m 9.0709132,1026.745 c -0.0073,0.1925 -0.02905,0.3811 -0.02905,0.5753 0,8.2612 6.6969848,14.9582 14.9581358,14.9582 3.614254,0 6.929116,-1.2819 9.514765,-3.4157 1.460721,0.8072 2.926709,1.8946 4.447871,3.4157 0.731466,-1.2669 0.999251,-2.8106 0.952324,-4.4112 -0.0942,1.182 -0.397995,2.3004 -0.952324,3.2606 -1.521162,-1.5211 -2.98715,-2.6084 -4.447871,-3.4157 -2.585649,2.1338 -5.900511,3.4157 -9.514765,3.4157 C 15.933067,1041.1279 9.3756301,1034.7374 9.0709132,1026.745 Z"
         style="fill:url(#linearGradient4145);fill-opacity:1;stroke:none" />
      <path
         inkscape:connector-curvature="0"
         id="path4122"
         d="m 24,1012.3622 c -5.349658,0 -10.030096,2.8174 -12.674067,7.0402 2.867423,-3.6966 7.468889,-6.1054 12.674068,-6.1054 5.205176,0 9.80664,2.4088 12.674063,6.1054 C 34.030092,1015.1796 29.349656,1012.3622 24,1012.3622 Z"
         style="fill:#ffffff;fill-opacity:0.53725493;stroke:none" />
    </g>
  </g>
</svg>
