<?xml version="1.0" encoding="UTF-8" standalone="no"?>
<!-- Created with Inkscape (http://www.inkscape.org/) -->

<svg
   xmlns:dc="http://purl.org/dc/elements/1.1/"
   xmlns:cc="http://creativecommons.org/ns#"
   xmlns:rdf="http://www.w3.org/1999/02/22-rdf-syntax-ns#"
   xmlns:svg="http://www.w3.org/2000/svg"
   xmlns="http://www.w3.org/2000/svg"
   xmlns:xlink="http://www.w3.org/1999/xlink"
   xmlns:sodipodi="http://sodipodi.sourceforge.net/DTD/sodipodi-0.dtd"
   xmlns:inkscape="http://www.inkscape.org/namespaces/inkscape"
   width="48"
   height="48"
   id="svg2"
   version="1.1"
   inkscape:version="0.48+devel r12240"
   sodipodi:docname="facebook.svg">
  <defs
     id="defs4">
    <linearGradient
       id="linearGradient3700-8">
      <stop
         id="stop3702-1"
         style="stop-color:#2e4f84;stop-opacity:1"
         offset="0" />
      <stop
         id="stop3704-8"
         style="stop-color:#4c77c5;stop-opacity:1"
         offset="1" />
    </linearGradient>
    <linearGradient
       inkscape:collect="always"
       xlink:href="#linearGradient3700-8"
       id="linearGradient835"
       x1="86.749992"
       y1="-1079.6122"
       x2="86.749992"
       y2="-1032.3622"
       gradientUnits="userSpaceOnUse" />
  </defs>
  <sodipodi:namedview
     id="base"
     pagecolor="#ffffff"
     bordercolor="#666666"
     borderopacity="1.0"
     inkscape:pageopacity="0.0"
     inkscape:pageshadow="2"
     inkscape:zoom="5.6568543"
     inkscape:cx="-3.759825"
     inkscape:cy="30.971428"
     inkscape:document-units="px"
     inkscape:current-layer="layer1"
     showgrid="false"
     inkscape:window-width="1366"
     inkscape:window-height="716"
     inkscape:window-x="0"
     inkscape:window-y="28"
     inkscape:window-maximized="1">
    <inkscape:grid
       type="xygrid"
       id="grid3850" />
  </sodipodi:namedview>
  <metadata
     id="metadata7">
    <rdf:RDF>
      <cc:Work
         rdf:about="">
        <dc:format>image/svg+xml</dc:format>
        <dc:type
           rdf:resource="http://purl.org/dc/dcmitype/StillImage" />
        <dc:title />
      </cc:Work>
    </rdf:RDF>
  </metadata>
  <g
     inkscape:label="Capa 1"
     inkscape:groupmode="layer"
     id="layer1"
     transform="translate(0,-1004.3622)">
    <g
       id="g837"
       transform="translate(-62.749998,-27.749991)">
      <rect
         transform="scale(1,-1)"
         ry="1.9445436"
         y="-1080.1122"
         x="62.749996"
         height="48"
         width="48"
         id="rect2991-1"
         style="fill:url(#linearGradient835);fill-opacity:1;stroke:none" />
      <path
         id="rect846"
         d="m 62.749996,1077.1122 0,1.0625 c 0,1.0773 0.860223,1.9375 1.9375,1.9375 l 44.125004,0 c 1.07727,0 1.9375,-0.8602 1.9375,-1.9375 l 0,-1.0625 c 0,1.0773 -0.86023,1.9375 -1.9375,1.9375 l -44.125004,0 C 63.610219,1079.0497 62.749996,1078.1895 62.749996,1077.1122 Z"
         style="fill:#000000;fill-opacity:1;stroke:none"
         inkscape:connector-curvature="0" />
      <path
         id="path7515"
         d="m 65.281246,1032.7685 c -0.917089,0 -1.671147,0.6395 -1.84375,1.5 0.335612,-0.2799 0.774512,-0.4375 1.25,-0.4375 l 44.125004,0 c 0.47548,0 0.91438,0.1576 1.25,0.4375 -0.17261,-0.8605 -0.92667,-1.5 -1.84375,-1.5 L 65.281246,1032.7685 Z"
         style="fill:#ffffff;fill-opacity:0.5372549;stroke:none"
         inkscape:connector-curvature="0" />
      <path
         id="rect4280-6"
         d="m 64.687496,1032.1122 c -1.077277,0 -1.9375,0.8602 -1.9375,1.9375 l 0,43.0625 c 0,0.7934 0.480023,1.449 1.15625,1.75 -0.309342,-0.3333 -0.5,-0.7824 -0.5,-1.2812 l 0,-42.9375 c 0,-1.0482 0.826899,-1.875 1.875,-1.875 l 42.937504,0 c 1.0481,0 1.875,0.8268 1.875,1.875 l 0,42.9375 c 0,0.4988 -0.19066,0.9479 -0.5,1.2812 0.67622,-0.301 1.15625,-0.9566 1.15625,-1.75 l 0,-43.0625 c 0,-1.0773 -0.86023,-1.9375 -1.9375,-1.9375 L 64.687496,1032.1122 Z"
         style="fill:#000000;fill-opacity:0.39215686;stroke:none"
         inkscape:connector-curvature="0" />
    </g>
    <g
       id="g838"
       transform="translate(2.244707,-0.4365)">
      <path
         d="m 34.618741,1044.3748 -6.79733,0 0,-14.6254 -3.655935,0 0,-5.9392 3.655935,0 0,-3.1348 c 0,-4.6255 1.917216,-7.376 7.365703,-7.376 l 4.536359,0 0,5.6708 -2.835412,0 c -2.121342,0 -2.26097,0.7923 -2.26097,2.2715 l -0.0084,2.5685 5.136602,0 -0.601003,5.9392 L 34.618741,1029.7494 Z"
         inkscape:connector-curvature="0"
         id="path3835"
         style="fill:#ffffff" />
      <path
         inkscape:connector-curvature="0"
         id="path821"
         d="m 36.902023,1018.9734 c -2.121341,0 -2.276031,0.7968 -2.276031,2.276 l 0,0.4248 c 0,-1.4792 0.15469,-2.276 2.276031,-2.276 l 2.822279,0 0,-0.4248 L 36.902023,1018.9734 z m 2.822279,5.25 -0.576595,5.5231 -4.521715,0 0,0.4249 4.521715,0 0.606942,-5.948 L 39.724302,1024.2234 z m -15.568052,5.5231 0,0.4249 3.671997,0 0,-0.4249 L 24.15625,1029.7465 z m 3.671997,14.6273 0,0.4249 6.797745,0 0,-0.4249 L 27.828247,1044.3738 Z"
         style="fill:#ffffff;fill-opacity:0.5372549" />
      <path
         style="fill:#ffffff"
         id="path826"
         inkscape:connector-curvature="0"
         d="m 34.618741,1044.3748 -6.79733,0 0,-14.6254 -3.655935,0 0,-5.9392 3.655935,0 0,-3.1348 c 0,-4.6255 1.917216,-7.376 7.365703,-7.376 l 4.536359,0 0,5.6708 -2.835412,0 c -2.121342,0 -2.26097,0.7923 -2.26097,2.2715 l -0.0084,2.5685 5.136602,0 -0.601003,5.9392 L 34.618741,1029.7494 Z" />
      <path
         inkscape:connector-curvature="0"
         id="path832"
         d="m 35.17224,1012.7987 c -5.448488,0 -7.343993,2.7487 -7.343993,7.3743 l 0,0.4855 c 0,-4.6255 1.895505,-7.3742 7.343993,-7.3742 l 4.552062,0 0,-0.4856 L 35.17224,1012.7987 z m -11.01599,10.5001 0,0.4855 3.671997,0 0,-0.4855 L 24.15625,1023.2988 z m 10.469742,0 0,0.4855 5.067963,0 0.06069,-0.4855 L 34.625992,1023.2988 Z"
         style="fill:#000000;fill-opacity:0.5372549" />
    </g>
  </g>
</svg>
