<?xml version="1.0" encoding="UTF-8" standalone="no"?>
<!-- Created with Inkscape (http://www.inkscape.org/) -->

<svg
   xmlns:dc="http://purl.org/dc/elements/1.1/"
   xmlns:cc="http://creativecommons.org/ns#"
   xmlns:rdf="http://www.w3.org/1999/02/22-rdf-syntax-ns#"
   xmlns:svg="http://www.w3.org/2000/svg"
   xmlns="http://www.w3.org/2000/svg"
   xmlns:xlink="http://www.w3.org/1999/xlink"
   xmlns:sodipodi="http://sodipodi.sourceforge.net/DTD/sodipodi-0.dtd"
   xmlns:inkscape="http://www.inkscape.org/namespaces/inkscape"
   width="48"
   height="48"
   id="svg2"
   version="1.1"
   inkscape:version="0.48+devel r12180"
   sodipodi:docname="google-chrome.svg">
  <defs
     id="defs4">
    <linearGradient
       inkscape:collect="always"
       id="linearGradient1234">
      <stop
         style="stop-color:#ffffff;stop-opacity:1;"
         offset="0"
         id="stop1236" />
      <stop
         style="stop-color:#ffffff;stop-opacity:0;"
         offset="1"
         id="stop1238" />
    </linearGradient>
    <linearGradient
       inkscape:collect="always"
       id="linearGradient1208">
      <stop
         style="stop-color:#ffffff;stop-opacity:1;"
         offset="0"
         id="stop1210" />
      <stop
         style="stop-color:#ffffff;stop-opacity:0;"
         offset="1"
         id="stop1212" />
    </linearGradient>
    <linearGradient
       inkscape:collect="always"
       id="linearGradient1197">
      <stop
         style="stop-color:#81ddfc;stop-opacity:1"
         offset="0"
         id="stop1199" />
      <stop
         style="stop-color:#3ab7e3;stop-opacity:0"
         offset="1"
         id="stop1201" />
    </linearGradient>
    <linearGradient
       id="linearGradient1185"
       inkscape:collect="always">
      <stop
         id="stop1187"
         offset="0"
         style="stop-color:#0e4e8e;stop-opacity:1" />
      <stop
         id="stop1189"
         offset="1"
         style="stop-color:#099ef7;stop-opacity:1" />
    </linearGradient>
    <linearGradient
       inkscape:collect="always"
       id="linearGradient1175">
      <stop
         style="stop-color:#05335d;stop-opacity:1"
         offset="0"
         id="stop1177" />
      <stop
         style="stop-color:#035680;stop-opacity:1"
         offset="1"
         id="stop1179" />
    </linearGradient>
    <linearGradient
       id="linearGradient860"
       inkscape:collect="always">
      <stop
         id="stop862"
         offset="0"
         style="stop-color:#f9f9f9;stop-opacity:1" />
      <stop
         id="stop864"
         offset="1"
         style="stop-color:#ffffff;stop-opacity:1" />
    </linearGradient>
    <linearGradient
       id="linearGradient4178"
       inkscape:collect="always">
      <stop
         id="stop4180"
         offset="0"
         style="stop-color:#81ddfc;stop-opacity:1" />
      <stop
         id="stop4182"
         offset="1"
         style="stop-color:#3ab7e3;stop-opacity:1" />
    </linearGradient>
    <linearGradient
       inkscape:collect="always"
       id="linearGradient4164">
      <stop
         style="stop-color:#f66201;stop-opacity:1"
         offset="0"
         id="stop4166" />
      <stop
         style="stop-color:#fef2a4;stop-opacity:1"
         offset="1"
         id="stop4168" />
    </linearGradient>
    <linearGradient
       id="linearGradient4150"
       inkscape:collect="always">
      <stop
         id="stop4152"
         offset="0"
         style="stop-color:#c90e0d;stop-opacity:1" />
      <stop
         id="stop4154"
         offset="1"
         style="stop-color:#ef6881;stop-opacity:1" />
    </linearGradient>
    <linearGradient
       inkscape:collect="always"
       id="linearGradient4132">
      <stop
         style="stop-color:#128300;stop-opacity:1"
         offset="0"
         id="stop4134" />
      <stop
         style="stop-color:#4ed451;stop-opacity:1"
         offset="1"
         id="stop4136" />
    </linearGradient>
    <linearGradient
       inkscape:collect="always"
       xlink:href="#linearGradient860"
       id="linearGradient858"
       x1="-20.506096"
       y1="-1053.7349"
       x2="-20.506096"
       y2="-1005.87"
       gradientUnits="userSpaceOnUse"
       gradientTransform="translate(44.859651,1.7261395)" />
    <linearGradient
       inkscape:collect="always"
       xlink:href="#linearGradient4178"
       id="linearGradient966"
       x1="85.108788"
       y1="115.0866"
       x2="85.108788"
       y2="53.568306"
       gradientUnits="userSpaceOnUse" />
    <linearGradient
       inkscape:collect="always"
       xlink:href="#linearGradient4150"
       id="linearGradient1037"
       gradientUnits="userSpaceOnUse"
       gradientTransform="matrix(1.5973985,0,0,1.5973985,-112.67331,-1620.3321)"
       x1="80.891861"
       y1="1029.6227"
       x2="80.891861"
       y2="1014.34" />
    <linearGradient
       inkscape:collect="always"
       xlink:href="#linearGradient4132"
       id="linearGradient1039"
       gradientUnits="userSpaceOnUse"
       gradientTransform="matrix(1.5973985,0,0,1.5973985,-112.67331,-1620.3321)"
       x1="80.245941"
       y1="1044.4238"
       x2="80.245941"
       y2="1014.34" />
    <linearGradient
       inkscape:collect="always"
       xlink:href="#linearGradient4164"
       id="linearGradient1041"
       gradientUnits="userSpaceOnUse"
       gradientTransform="matrix(1.5973985,0,0,1.5973985,-112.67331,-1620.3321)"
       x1="95.11834"
       y1="1044.4238"
       x2="95.11834"
       y2="1024.7751" />
    <linearGradient
       inkscape:collect="always"
       xlink:href="#linearGradient1175"
       id="linearGradient1133"
       gradientUnits="userSpaceOnUse"
       x1="96.07547"
       y1="53.705807"
       x2="96.07547"
       y2="117.20849" />
    <linearGradient
       inkscape:collect="always"
       xlink:href="#linearGradient1185"
       id="linearGradient1183"
       gradientUnits="userSpaceOnUse"
       x1="96.07547"
       y1="53.705807"
       x2="96.07547"
       y2="117.20849" />
    <radialGradient
       inkscape:collect="always"
       xlink:href="#linearGradient1197"
       id="radialGradient1195"
       cx="84.716156"
       cy="95.128075"
       fx="84.716156"
       fy="95.128075"
       r="31.236"
       gradientUnits="userSpaceOnUse" />
    <linearGradient
       inkscape:collect="always"
       xlink:href="#linearGradient1208"
       id="linearGradient1214"
       x1="24"
       y1="36.5"
       x2="24"
       y2="28"
       gradientUnits="userSpaceOnUse" />
    <linearGradient
       inkscape:collect="always"
       xlink:href="#linearGradient1234"
       id="linearGradient1240"
       x1="84.550667"
       y1="116.29674"
       x2="84.550667"
       y2="70.275642"
       gradientUnits="userSpaceOnUse" />
  </defs>
  <sodipodi:namedview
     id="base"
     pagecolor="#ffffff"
     bordercolor="#666666"
     borderopacity="1.0"
     inkscape:pageopacity="0.0"
     inkscape:pageshadow="2"
     inkscape:zoom="8"
     inkscape:cx="11.363622"
     inkscape:cy="28.23319"
     inkscape:document-units="px"
     inkscape:current-layer="layer1"
     showgrid="false"
     inkscape:window-width="1366"
     inkscape:window-height="716"
     inkscape:window-x="0"
     inkscape:window-y="28"
     inkscape:window-maximized="1"
     showguides="true"
     inkscape:guide-bbox="true">
    <sodipodi:guide
       orientation="0,1"
       position="36.424371,48.026965"
       id="guide1146" />
    <sodipodi:guide
       orientation="0,1"
       position="44.031046,-0.028939235"
       id="guide1148" />
    <sodipodi:guide
       orientation="0,1"
       position="23.84593,23.614416"
       id="guide1156" />
  </sodipodi:namedview>
  <metadata
     id="metadata7">
    <rdf:RDF>
      <cc:Work
         rdf:about="">
        <dc:format>image/svg+xml</dc:format>
        <dc:type
           rdf:resource="http://purl.org/dc/dcmitype/StillImage" />
        <dc:title />
      </cc:Work>
    </rdf:RDF>
  </metadata>
  <g
     inkscape:label="Capa 1"
     inkscape:groupmode="layer"
     id="layer1"
     transform="translate(0,-1004.3622)">
    <rect
       style="fill:url(#linearGradient858);fill-opacity:1;stroke:none"
       id="rect2991-1"
       width="48"
       height="48"
       x="1.0917969e-06"
       y="-1052.3622"
       ry="1.9445436"
       transform="scale(1,-1)" />
    <path
       style="fill:url(#linearGradient1037);fill-opacity:1"
       d="M 1.9375 0 C 0.86022285 0 0 0.86022285 0 1.9375 L 0 12.28125 L 9.46875 28.6875 C 7.6952047 23.050188 9.3972905 21.121627 13.34375 19.59375 L 14.5 21.59375 C 15.595403 17.336262 19.431854 14.1875 24.03125 14.1875 C 26.656014 14.1875 29.044433 15.235258 30.8125 16.90625 L 38.34375 16.90625 L 48 16.90625 L 48 1.9375 C 48 0.86022285 47.139777 0 46.0625 0 L 1.9375 0 z "
       transform="translate(0,1004.3622)"
       id="path1023" />
    <path
       style="fill:url(#linearGradient1039);fill-opacity:1"
       d="M 1.9375 0 C 0.86022285 0 0 0.86022285 0 1.9375 L 0 46.0625 C 0 46.19716 0.0054316262 46.310687 0.03125 46.4375 C 0.17559579 47.21118 0.76184421 47.813036 1.53125 47.96875 C 1.5407091 47.970824 1.552989 47.966814 1.5625 47.96875 C 1.6800874 47.990688 1.8131379 48 1.9375 48 L 27.15625 48 L 33.90625 36.53125 L 33.5 35.03125 C 31.823142 35.470441 29.886562 34.642993 27.875 33.15625 C 26.694151 33.655707 25.394034 33.9375 24.03125 33.9375 C 18.580114 33.9375 14.15625 29.513636 14.15625 24.0625 C 14.15625 23.176125 14.312134 22.317236 14.53125 21.5 L 2.21875 0 L 1.9375 0 z "
       transform="translate(0,1004.3622)"
       id="path1025" />
    <path
       style="fill:url(#linearGradient1041);fill-opacity:1"
       d="M 30.8125 16.90625 C 32.716372 18.70559 33.90625 21.236128 33.90625 24.0625 C 33.90625 28.684693 30.727113 32.551805 26.4375 33.625 L 17.96875 48 L 46.0625 48 C 47.139777 48 48 47.139777 48 46.0625 L 48 16.90625 L 38.34375 16.90625 L 30.8125 16.90625 z "
       transform="translate(0,1004.3622)"
       id="path1027" />
    <path
       style="fill:#ffffff;fill-opacity:0.34099618"
       d="M 1.40625,1.8125 C 1.1390095,1.8841211 0.89273897,1.9850804 0.6875,2.15625 0.66284244,2.2791738 0.65625,2.400225 0.65625,2.53125 l 0,42.9375 c 0,0.4988 0.19065895,0.94795 0.5,1.28125 -0.16905626,-0.07525 -0.32865351,-0.165063 -0.46875,-0.28125 0.15382084,0.759098 0.7406557,1.346237 1.5,1.5 l 0.03125,0 C 2.3363374,47.99075 2.4693879,48 2.59375,48 l 0.75,0 c -0.1243621,0 -0.2574126,-0.01025 -0.375,-0.03125 l -0.03125,0 C 2.1680942,47.81295 1.5818458,47.2112 1.4375,46.4375 1.411682,46.3107 1.40625,46.1972 1.40625,46.0625 l 0,-44.125 C 1.40625,1.8954926 1.4037286,1.8538644 1.40625,1.8125 z m 45.1875,0 c 0.0025,0.041364 0,0.082993 0,0.125 l 0,44.125 c 0,0.1347 -0.0054,0.2482 -0.03125,0.375 -0.144346,0.7737 -0.730594,1.37545 -1.5,1.53125 l -0.03125,0 C 44.913663,47.98975 44.780612,48 44.65625,48 l 0.75,0 c 0.124362,0 0.257413,-0.0093 0.375,-0.03125 l 0.03125,0 c 0.759345,-0.153763 1.346179,-0.740902 1.5,-1.5 -0.140096,0.116188 -0.299694,0.206 -0.46875,0.28125 0.309342,-0.3333 0.5,-0.78245 0.5,-1.28125 l 0,-42.9375 c 0,-0.131025 -0.0066,-0.2520762 -0.03125,-0.375 C 47.107257,1.9850804 46.860989,1.8841211 46.59375,1.8125 Z"
       id="path1347"
       transform="translate(0,1004.3622)"
       inkscape:connector-curvature="0"
       sodipodi:nodetypes="ccssccccsccccssccssccccsccccsscc" />
    <g
       id="g1342"
       style="fill:#000000;fill-opacity:0.15686275">
      <path
         id="path1326"
         transform="translate(0,1004.3622)"
         d="M 2.21875 0 L 14.53125 21.5 C 14.610442 21.204523 14.707562 20.908893 14.8125 20.625 L 3 0 L 2.21875 0 z M 24.8125 14.1875 C 24.643275 14.1875 24.479545 14.210321 24.3125 14.21875 C 26.824656 14.291706 29.108789 15.29608 30.8125 16.90625 L 31.59375 16.90625 C 29.825683 15.23525 27.437264 14.1875 24.8125 14.1875 z "
         style="fill:#000000;fill-opacity:0.15686275" />
      <path
         transform="translate(0,1004.3622)"
         id="path1311"
         d="M 1.9375 0 C 1.8234354 0 1.7021843 0.012725435 1.59375 0.03125 L 13.90625 21.5 C 13.687134 22.3172 13.53125 23.1761 13.53125 24.0625 C 13.53125 29.5136 17.955114 33.9375 23.40625 33.9375 C 23.502147 33.9375 23.592202 33.909353 23.6875 33.90625 C 18.398492 33.721464 14.15625 29.396315 14.15625 24.0625 C 14.15625 23.176125 14.312134 22.317236 14.53125 21.5 L 2.21875 0 L 1.9375 0 z M 26.4375 33.625 C 26.214749 33.68116 25.978662 33.707548 25.75 33.75 L 17.34375 48 L 17.96875 48 L 26.4375 33.625 z "
         style="fill:#000000;fill-opacity:0.15686275" />
      <path
         id="path1321"
         transform="translate(0,1004.3622)"
         d="M 30.8125 16.90625 C 31.050484 17.131168 31.285258 17.378083 31.5 17.625 C 31.519267 17.647061 31.543567 17.66533 31.5625 17.6875 C 33.030606 19.406617 33.90625 21.621851 33.90625 24.0625 C 33.90625 24.233854 33.883633 24.393326 33.875 24.5625 C 33.87591 24.59409 33.870448 24.625693 33.875 24.65625 C 33.862231 24.867355 33.838267 25.073935 33.8125 25.28125 C 33.808664 25.31211 33.816618 25.344229 33.8125 25.375 C 33.79584 25.499117 33.771236 25.627406 33.75 25.75 C 33.725921 25.888561 33.686018 26.01974 33.65625 26.15625 C 33.59934 26.417225 33.545781 26.684706 33.46875 26.9375 C 33.391719 27.190294 33.283769 27.443787 33.1875 27.6875 C 33.091231 27.931213 32.989622 28.172517 32.875 28.40625 C 32.685592 28.792485 32.486323 29.175525 32.25 29.53125 C 32.200297 29.606065 32.145421 29.676643 32.09375 29.75 C 31.945073 29.961075 31.789378 30.145354 31.625 30.34375 C 31.501372 30.492675 31.382052 30.639905 31.25 30.78125 C 31.201489 30.833497 31.143373 30.88632 31.09375 30.9375 C 30.958724 31.075669 30.830403 31.213663 30.6875 31.34375 C 30.638625 31.388639 30.581029 31.424845 30.53125 31.46875 C 30.338122 31.639091 30.143677 31.782536 29.9375 31.9375 C 29.855029 31.999486 29.77196 32.065575 29.6875 32.125 C 29.593311 32.19099 29.502815 32.249748 29.40625 32.3125 C 29.250516 32.413702 29.099142 32.532487 28.9375 32.625 C 28.865277 32.666336 28.792104 32.710447 28.71875 32.75 C 28.690398 32.765363 28.65352 32.766158 28.625 32.78125 C 28.415449 32.891524 28.218117 32.998395 28 33.09375 C 27.978263 33.103306 27.95932 33.115597 27.9375 33.125 C 27.858313 33.158975 27.767739 33.186796 27.6875 33.21875 C 27.282018 33.38077 26.86777 33.517353 26.4375 33.625 L 17.96875 48 L 18.4375 48 L 18.6875 48 L 26.75 34.3125 C 28.759885 33.736799 30.517159 32.563079 31.78125 30.96875 C 33.53421 29.191047 34.625 26.758783 34.625 24.0625 C 34.625 21.621827 33.749356 19.406595 32.28125 17.6875 L 38.34375 17.6875 L 48 17.6875 L 48 16.90625 L 38.34375 16.90625 L 31.53125 16.90625 L 30.8125 16.90625 z "
         style="fill:#000000;fill-opacity:0.15686275" />
    </g>
    <path
       inkscape:connector-curvature="0"
       style="fill:#000000;fill-opacity:0.39215686;stroke:none"
       d="m 1.9374968,1004.3622 c -1.07727605,0 -1.93749905,0.8602 -1.93749905,1.9375 l 0,43.0625 c 0,0.7934 0.480024,1.449 1.15624905,1.75 -0.30934105,-0.3333 -0.49999905,-0.7824 -0.49999905,-1.2812 l 0,-42.9375 c 0,-1.0482 0.82689795,-1.875 1.87499905,-1.875 l 42.9375002,0 c 1.048101,0 1.875005,0.8268 1.875005,1.875 l 0,42.9375 c 0,0.4988 -0.190663,0.9479 -0.500005,1.2812 0.676225,-0.301 1.156255,-0.9566 1.156255,-1.75 l 0,-43.0625 c 0,-1.0773 -0.860228,-1.9375 -1.937505,-1.9375 L 1.9374968,1004.3622 Z"
       id="rect4280-0" />
    <path
       style="fill:#000000"
       d=""
       id="path906"
       inkscape:connector-curvature="0" />
    <circle
       id="circle53_1_"
       cx="85.314003"
       cy="85.711998"
       r="31.236"
       sodipodi:cx="85.314003"
       sodipodi:cy="85.711998"
       sodipodi:rx="31.236"
       sodipodi:ry="31.236"
       style="fill:url(#linearGradient966);fill-opacity:1"
       transform="matrix(0.18792918,0,0,-0.18792918,8.0055743,1044.5308)" />
    <circle
       transform="matrix(0.2839722,0,0,-0.2839722,-0.1882408,1052.7628)"
       style="fill:url(#linearGradient1133);fill-opacity:1"
       sodipodi:ry="31.236"
       sodipodi:rx="31.236"
       sodipodi:cy="85.711998"
       sodipodi:cx="85.314003"
       r="31.236"
       cy="85.711998"
       cx="85.314003"
       id="circle1107" />
    <circle
       id="circle1181"
       cx="85.314003"
       cy="85.711998"
       r="31.236"
       sodipodi:cx="85.314003"
       sodipodi:cy="85.711998"
       sodipodi:rx="31.236"
       sodipodi:ry="31.236"
       style="fill:url(#linearGradient1183);fill-opacity:1"
       transform="matrix(0.25195786,0,0,-0.25195786,2.5430309,1050.0188)" />
    <circle
       transform="matrix(0.2839722,0,0,-0.2839722,-0.1882408,1052.7628)"
       style="fill:url(#radialGradient1195);fill-opacity:1"
       sodipodi:ry="31.236"
       sodipodi:rx="31.236"
       sodipodi:cy="85.711998"
       sodipodi:cx="85.314003"
       r="31.236"
       cy="85.711998"
       cx="85.314003"
       id="circle1191" />
    <path
       style="fill:url(#linearGradient1214);fill-opacity:1;opacity:0.35"
       d="M 32.875 24.78125 C 31.264563 28.044325 27.916247 30.3125 24.03125 30.3125 C 20.158365 30.3125 16.835034 28.059059 15.21875 24.8125 C 15.600951 29.358901 19.386037 32.9375 24.03125 32.9375 C 28.687195 32.9375 32.507811 29.34266 32.875 24.78125 z "
       transform="translate(0,1004.3622)"
       id="circle1203" />
    <circle
       id="circle1218"
       cx="85.314003"
       cy="85.711998"
       r="31.236"
       sodipodi:cx="85.314003"
       sodipodi:cy="85.711998"
       sodipodi:rx="31.236"
       sodipodi:ry="31.236"
       style="fill:url(#radialGradient1195);fill-opacity:1"
       transform="matrix(0.2839722,0,0,-0.2839722,-0.1882408,1052.7628)" />
    <circle
       transform="matrix(0.21119441,0,0,-0.17107709,6.0207244,1040.37)"
       style="fill:url(#linearGradient1240);fill-opacity:1;opacity:0.63"
       sodipodi:ry="31.236"
       sodipodi:rx="31.236"
       sodipodi:cy="85.711998"
       sodipodi:cx="85.314003"
       r="31.236"
       cy="85.711998"
       cx="85.314003"
       id="circle1224" />
    <path
       inkscape:connector-curvature="0"
       style="fill:#000000;fill-opacity:1;stroke:none"
       d="m -2.25e-6,1049.3622 0,1.0625 c 0,1.0773 0.860223,1.9375 1.93749905,1.9375 l 44.1250002,0 c 1.077277,0 1.937505,-0.8602 1.937505,-1.9375 l 0,-1.0625 c 0,1.0773 -0.860228,1.9375 -1.937505,1.9375 l -44.1250002,0 C 0.86022075,1051.2997 -2.25e-6,1050.4395 -2.25e-6,1049.3622 Z"
       id="rect846" />
    <path
       inkscape:connector-curvature="0"
       style="fill:#ffffff;fill-opacity:0.5372549;stroke:none"
       d="m 2.5312468,1005.0185 c -0.917088,0 -1.67114605,0.6395 -1.84374905,1.5 0.33561095,-0.2799 0.77451095,-0.4375 1.24999905,-0.4375 l 44.1250002,0 c 0.475488,0 0.914388,0.1576 1.250005,0.4375 -0.172608,-0.8605 -0.926667,-1.5 -1.843755,-1.5 L 2.5312468,1005.0185 Z"
       id="path7515" />
    <path
       style="fill:#000000;fill-opacity:0.12643678"
       d="m 26.4375,33.625 c -0.769832,0.194091 -1.577307,0.3125 -2.40625,0.3125 -0.817105,0 -1.615498,-0.09389 -2.375,-0.28125 L 18.275,47.53125 18.28125,47.53125 Z"
       transform="translate(0,1004.3622)"
       id="path63_1_"
       inkscape:connector-curvature="0"
       sodipodi:nodetypes="cscccc" />
    <path
       style="fill:#000000;fill-opacity:0.12643678"
       d="m 30.8125,16.90625 c 0.941737,0.890031 1.683995,1.961103 2.21875,3.15625 0.0058,0.01294 0.02551,0.01828 0.03125,0.03125 0.121831,0.137076 0.260576,0.261431 0.375,0.40625 L 48,16.95 48,16.90625 38.34375,16.90625 Z"
       transform="translate(0,1004.3622)"
       id="path65_1_"
       inkscape:connector-curvature="0"
       sodipodi:nodetypes="cccccccc" />
    <path
       style="fill:#000000;fill-opacity:0.12643678"
       d="m 2.21875,0 8.6875,15.25 3.625,6.28125 c 0.366816,-1.385366 1.026703,-2.642626 1.90625,-3.71875 0.01325,-0.04079 0.01538,-0.08515 0.03125,-0.125 L 2.237,0 Z"
       transform="translate(0,1004.3622)"
       id="path1297"
       inkscape:connector-curvature="0"
       sodipodi:nodetypes="ccccccc" />
  </g>
</svg>
