<?xml version="1.0" encoding="UTF-8" standalone="no"?>
<!-- Created with Inkscape (http://www.inkscape.org/) -->

<svg
   xmlns:dc="http://purl.org/dc/elements/1.1/"
   xmlns:cc="http://creativecommons.org/ns#"
   xmlns:rdf="http://www.w3.org/1999/02/22-rdf-syntax-ns#"
   xmlns:svg="http://www.w3.org/2000/svg"
   xmlns="http://www.w3.org/2000/svg"
   xmlns:xlink="http://www.w3.org/1999/xlink"
   xmlns:sodipodi="http://sodipodi.sourceforge.net/DTD/sodipodi-0.dtd"
   xmlns:inkscape="http://www.inkscape.org/namespaces/inkscape"
   width="48"
   height="48"
   id="svg2"
   version="1.1"
   inkscape:version="0.48+devel r12397"
   sodipodi:docname="googleplus.svg">
  <defs
     id="defs4">
    <linearGradient
       inkscape:collect="always"
       id="linearGradient5555">
      <stop
         style="stop-color:#d73628;stop-opacity:1"
         offset="0"
         id="stop5557" />
      <stop
         style="stop-color:#da4336;stop-opacity:1"
         offset="1"
         id="stop5559" />
    </linearGradient>
    <linearGradient
       inkscape:collect="always"
       xlink:href="#linearGradient5555"
       id="linearGradient5561"
       x1="27.223612"
       y1="-1052.3843"
       x2="27.223612"
       y2="-1004.3317"
       gradientUnits="userSpaceOnUse" />
  </defs>
  <sodipodi:namedview
     id="base"
     pagecolor="#ffffff"
     bordercolor="#666666"
     borderopacity="1.0"
     inkscape:pageopacity="0.0"
     inkscape:pageshadow="2"
     inkscape:zoom="8"
     inkscape:cx="5.9744731"
     inkscape:cy="35.135962"
     inkscape:document-units="px"
     inkscape:current-layer="layer1"
     showgrid="false"
     inkscape:window-width="1366"
     inkscape:window-height="714"
     inkscape:window-x="0"
     inkscape:window-y="30"
     inkscape:window-maximized="1"
     showguides="false" />
  <metadata
     id="metadata7">
    <rdf:RDF>
      <cc:Work
         rdf:about="">
        <dc:format>image/svg+xml</dc:format>
        <dc:type
           rdf:resource="http://purl.org/dc/dcmitype/StillImage" />
        <dc:title></dc:title>
      </cc:Work>
    </rdf:RDF>
  </metadata>
  <g
     inkscape:label="Capa 1"
     inkscape:groupmode="layer"
     id="layer1"
     transform="translate(0,-1004.3622)">
    <rect
       style="fill:url(#linearGradient5561);fill-opacity:1;stroke:none"
       id="rect2991-1-7"
       width="48"
       height="48"
       x="5.7610227e-06"
       y="-1052.3622"
       ry="1.9445436"
       transform="scale(1,-1)" />
    <path
       inkscape:connector-curvature="0"
       style="fill:#000000;fill-opacity:1;stroke:none"
       d="m -5.761023e-6,1049.3622 0,1.0625 c 0,1.0773 0.860220001023,1.9375 1.937499961023,1.9375 l 44.1249998,0 c 1.07728,0 1.9375,-0.8602 1.9375,-1.9375 l 0,-1.0625 c 0,1.0773 -0.86022,1.9375 -1.9375,1.9375 l -44.1249998,0 C 0.86021424,1051.2997 -5.761023e-6,1050.4395 -5.761023e-6,1049.3622 Z"
       id="rect846" />
    <path
       inkscape:connector-curvature="0"
       style="fill:#ffffff;fill-opacity:0.5372549;stroke:none"
       d="m 2.5312442,1005.0185 c -0.91709,0 -1.67114996,0.6395 -1.84374996,1.5 0.33560996,-0.2799 0.77450996,-0.4375 1.24999996,-0.4375 l 44.1249998,0 c 0.47549,0 0.91439,0.1576 1.25,0.4375 -0.1726,-0.8605 -0.92666,-1.5 -1.84375,-1.5 L 2.5312442,1005.0185 Z"
       id="path7515" />
    <path
       inkscape:connector-curvature="0"
       style="fill:#000000;fill-opacity:0.39215686;stroke:none"
       d="m 1.9374942,1004.3622 c -1.07727996,0 -1.937499961023,0.8602 -1.937499961023,1.9375 l 0,43.0625 c 0,0.7934 0.480020001023,1.449 1.156249961023,1.75 -0.30933996,-0.3333 -0.49999996,-0.7824 -0.49999996,-1.2812 l 0,-42.9375 c 0,-1.0482 0.82689996,-1.875 1.87499996,-1.875 l 42.9374998,0 c 1.0481,0 1.875,0.8268 1.875,1.875 l 0,42.9375 c 0,0.4988 -0.19066,0.9479 -0.5,1.2812 0.67623,-0.301 1.15625,-0.9566 1.15625,-1.75 l 0,-43.0625 c 0,-1.0773 -0.86022,-1.9375 -1.9375,-1.9375 L 1.9374942,1004.3622 Z"
       id="rect4280" />
    <path
       inkscape:connector-curvature="0"
       id="path5568"
       d="m 28.163039,1012.6886 -2.094937,1.2145 -2.277105,0 c 0.005,0.014 0.21093,0.2184 0.303614,0.3036 l 1.973491,0 2.611081,-1.5181 L 28.163039,1012.6886 z m -10.292515,1.093 c -0.799015,-0.01 -1.366263,0.2429 -1.366263,0.2429 -0.728922,0.4568 -2.399074,0.7548 -2.428912,4.0077 0.117089,-3 1.720629,-3.2602 2.428912,-3.7041 0,0 0.567248,-0.2484 1.366263,-0.2429 1.331685,0.01 3.325025,0.6846 4.523849,4.281 0.367571,1.1028 0.554844,2.0303 0.576867,2.8236 0.01227,-0.85 -0.165584,-1.863 -0.576867,-3.0969 C 21.195549,1014.4965 19.202209,1013.7913 17.870524,1013.7816 z m 8.652999,6.2545 c -0.01347,0.2475 -0.04068,0.5136 -0.121445,0.759 -0.268123,0.8148 -0.467439,1.3558 -0.728674,1.7306 -0.871396,1.2505 -1.229564,1.0318 -2.671803,2.7022 -0.790562,0.9156 -1.016548,1.4923 -1.032288,1.9431 -0.0023,0.066 -0.0049,0.1391 0,0.2125 0.03288,-0.4408 0.273776,-0.9735 1.032288,-1.852 1.442239,-1.6704 1.800407,-1.4517 2.671803,-2.7022 0.261235,-0.3748 0.460551,-0.9462 0.728674,-1.761 C 26.516496,1020.7207 26.521646,1020.3825 26.523523,1020.0361 z m -16.121903,0.5162 c 0.0054,3.4993 2.641442,4.9488 2.641442,4.9488 0,0 1.334143,0.7578 1.882406,0.9109 1.566165,0.4372 3.179104,0.261 3.339755,0.2428 0.02729,-0.1227 0.06072,-0.2732 0.06072,-0.2732 0,0 -1.752741,0.2171 -3.400477,-0.2428 -0.548263,-0.1531 -1.882406,-0.9413 -1.882406,-0.9413 C 13.043062,1025.1975 10.550433,1023.8365 10.40162,1020.5523 z m 7.742157,7.2867 c -0.02846,0.8084 0.121624,1.8775 0.880481,2.7628 0.04417,0.052 0.06516,0.083 0.09108,0.1215 0,0 0.243464,0 -0.09108,-0.3947 C 18.349623,1029.5416 18.157162,1028.607 18.143777,1027.839 z m 2.459273,4.1291 c -0.852247,0.058 -1.716891,0 -2.368189,0.06 -1.958169,0.1708 -3.010277,0.5039 -4.068428,1.2144 -0.497217,0.3339 -1.035173,0.6201 -1.51807,1.2752 -0.53223,0.7222 -0.718315,1.4801 -0.698312,2.186 0.03459,-0.6156 0.240523,-1.2613 0.698312,-1.8824 0.482897,-0.6551 1.020853,-0.9413 1.51807,-1.2752 1.058151,-0.7105 2.110259,-1.0436 4.068428,-1.2144 0.651298,-0.056 1.515942,0 2.368189,-0.06 0,0 3.911307,2.3934 4.280958,4.1594 0.09653,0.4612 0.191436,0.8942 0.21253,1.3056 0.0063,-0.4932 -0.09423,-1.0136 -0.21253,-1.5788 C 24.514357,1034.392 20.60305,1031.9681 20.60305,1031.9681 z m 7.317098,3.9166 c -0.0027,0.2997 -0.02344,0.6024 -0.06072,0.9109 -0.355768,2.9445 -4.434989,6.8372 -11.021188,6.6492 -6.557072,-0.1873 -8.0761329,-3.8863 -8.0761329,-3.8863 0,0 -0.374542,-0.664 -0.425059,-1.7002 -0.0092,1.1902 0.425059,2.0038 0.425059,2.0038 0,0 1.5190609,3.699 8.0761329,3.8863 6.586199,0.1881 10.66542,-3.7047 11.021188,-6.6492 C 27.909204,1036.6872 27.932834,1036.2805 27.920148,1035.8847 Z"
       style="fill:#ffffff;fill-opacity:0.23529412;stroke:none;display:inline" />
    <path
       sodipodi:nodetypes="csscscscscsssssssssssccccccscscccsssssssc"
       id="path8122"
       d="m 19.745333,1012.3624 c -0.367961,-10e-5 -1.231371,0.02 -2.260793,0.2068 -2.433119,0.4402 -5.7969,2.0465 -6.748713,5.3923 -1.4720469,5.1744 2.318514,7.2297 2.318514,7.2297 0,0 1.327721,0.7802 1.875984,0.9332 1.647735,0.4599 3.400807,0.2453 3.400807,0.2453 0,0 -0.699002,2.3144 0.702296,3.9492 0.334549,0.3903 0.09142,0.404 0.09142,0.404 0,0 -6.124443,-0.1581 -9.023932,2.9198 -2.8994899,3.0779 -1.3276149,5.9118 -1.3276149,5.9118 0,0 1.5192559,3.7042 8.0763269,3.8914 6.586199,0.1881 10.659591,-3.7128 11.015359,-6.6573 0.178826,-1.48 -0.02341,-2.8664 -0.764816,-4.0791 -0.721124,-1.1793 -1.960248,-2.1945 -3.169924,-3.1843 -0.751642,-0.615 -1.27446,-0.9307 -1.611418,-1.2844 -0.318333,-0.334 -0.372032,-0.7642 -0.360771,-1.0871 0.01574,-0.4508 0.253257,-1.0036 1.04382,-1.9192 1.442239,-1.6704 1.807888,-1.4625 2.679284,-2.713 0.261234,-0.3748 0.4534,-0.9217 0.721523,-1.7365 0.161532,-0.4908 0.134678,-0.9987 0.134688,-1.4719 2.9e-5,-1.0227 -0.245602,-1.9972 -0.654184,-2.8188 -0.759307,-1.5267 -2.062671,-2.5178 -2.08763,-2.5926 l 2.284848,0 2.587889,-1.5153 -8.73052,-0.024 C 19.937741,1012.3624 19.867983,1012.3624 19.745333,1012.3624 z m -1.875976,1.419 c 1.331685,0.01 3.33238,0.6991 4.531204,4.2955 2.05723,6.1717 -2.251174,7.1143 -2.251174,7.1143 0,0 -4.93688,0.7602 -5.84439,-4.7284 -0.924454,-5.5912 1.326983,-5.8936 2.207881,-6.4457 C 16.512878,1014.0171 17.070343,1013.7759 17.869357,1013.7814 z m 2.727387,18.1826 c 0,0 3.93066,2.4092 4.300311,4.1753 0.414159,1.9785 0.442033,3.4196 -2.559024,4.9977 -0.885931,0.4659 -2.440862,0.5202 -3.420054,0.5243 -2.406741,0.011 -4.224548,-0.9161 -5.122867,-1.3805 -0.466846,-0.2413 -3.059778,-3.1531 -1.140015,-5.7578 0.482897,-0.6552 1.017996,-0.9457 1.515214,-1.2795 1.058151,-0.7105 2.096831,-1.0414 4.055001,-1.2122 C 18.876608,1031.9746 19.744497,1032.0224 20.596744,1031.964 Z"
       style="fill:#ffffff;fill-opacity:1;stroke:none;display:inline"
       inkscape:connector-curvature="0" />
    <path
       style="fill:#ffffff;fill-opacity:0.11676809;stroke:none;display:inline"
       d="m 28.163039,1012.9922 -2.094937,1.2145 -2.277105,0 c 0.005,0.014 0.21093,0.2184 0.303614,0.3036 l 1.973491,0 2.611081,-1.5181 L 28.163039,1012.9922 z m -10.292515,1.093 c -0.799015,-0.01 -1.366263,0.2429 -1.366263,0.2429 -0.728922,0.4568 -2.399074,0.7548 -2.428912,4.0077 0.117089,-3 1.720629,-3.2602 2.428912,-3.7041 0,0 0.567248,-0.2484 1.366263,-0.2429 1.331685,0.01 3.325025,0.6846 4.523849,4.281 0.367571,1.1028 0.554844,2.0303 0.576867,2.8236 0.01227,-0.85 -0.165584,-1.863 -0.576867,-3.0969 C 21.195549,1014.8001 19.202209,1014.0949 17.870524,1014.0852 z m 8.652999,6.2545 c -0.01347,0.2475 -0.04068,0.5136 -0.121445,0.7591 -0.268123,0.8147 -0.467439,1.3557 -0.728674,1.7305 -0.871396,1.2505 -1.229564,1.0318 -2.671803,2.7022 -0.790562,0.9156 -1.016548,1.4923 -1.032288,1.9432 -0.0023,0.066 -0.0049,0.139 0,0.2124 0.03288,-0.4408 0.273776,-0.9735 1.032288,-1.852 1.442239,-1.6704 1.800407,-1.4517 2.671803,-2.7022 0.261235,-0.3748 0.460551,-0.9462 0.728674,-1.7609 C 26.516496,1021.0243 26.521646,1020.6861 26.523523,1020.3397 z m -16.121903,0.5162 c 0.0054,3.4994 2.641442,4.9488 2.641442,4.9488 0,0 1.334143,0.7578 1.882406,0.9109 1.566165,0.4372 3.179104,0.261 3.339755,0.2429 0.02729,-0.1227 0.06072,-0.2732 0.06072,-0.2732 0,0 -1.752741,0.217 -3.400477,-0.2429 -0.548263,-0.1531 -1.882406,-0.9413 -1.882406,-0.9413 C 13.043062,1025.5011 10.550433,1024.1401 10.40162,1020.8559 z m 7.742157,7.2867 c -0.02846,0.8084 0.121624,1.8776 0.880481,2.7628 0.04417,0.052 0.06516,0.083 0.09108,0.1215 0,0 0.243464,0 -0.09108,-0.3947 C 18.349623,1029.8452 18.157162,1028.9106 18.143777,1028.1426 z m 2.459273,4.1292 c -0.852247,0.058 -1.716891,0 -2.368189,0.06 -1.958169,0.1708 -3.010277,0.5039 -4.068428,1.2144 -0.497217,0.3339 -1.035173,0.6201 -1.51807,1.2752 -0.53223,0.7222 -0.718315,1.4801 -0.698312,2.186 0.03459,-0.6156 0.240523,-1.2612 0.698312,-1.8824 0.482897,-0.6551 1.020853,-0.9413 1.51807,-1.2751 1.058151,-0.7105 2.110259,-1.0437 4.068428,-1.2145 0.651298,-0.056 1.515942,0 2.368189,-0.06 0,0 3.911307,2.3934 4.280958,4.1594 0.09653,0.4612 0.191436,0.8943 0.21253,1.3056 0.0063,-0.4931 -0.09423,-1.0136 -0.21253,-1.5788 C 24.514357,1034.6956 20.60305,1032.2718 20.60305,1032.2718 z m 7.317098,3.9165 c -0.0027,0.2998 -0.02344,0.6024 -0.06072,0.9109 -0.355768,2.9445 -4.434989,6.8373 -11.021188,6.6492 -6.557072,-0.1873 -8.0761329,-3.8863 -8.0761329,-3.8863 0,0 -0.374542,-0.664 -0.425059,-1.7002 -0.0092,1.1902 0.425059,2.0038 0.425059,2.0038 0,0 1.5190609,3.6991 8.0761329,3.8863 6.586199,0.1881 10.66542,-3.7047 11.021188,-6.6492 C 27.909204,1036.9908 27.932834,1036.5841 27.920148,1036.1883 Z"
       id="path5570"
       inkscape:connector-curvature="0" />
    <path
       inkscape:connector-curvature="0"
       id="path5572"
       d="m 28.163039,1013.2958 -2.094937,1.2145 -2.277105,0 c 0.005,0.015 0.21093,0.2184 0.303614,0.3036 l 1.973491,0 2.611081,-1.5181 L 28.163039,1013.2958 z m -10.292515,1.093 c -0.799015,-0.01 -1.366263,0.2429 -1.366263,0.2429 -0.728922,0.4569 -2.399074,0.7548 -2.428912,4.0077 0.117089,-3 1.720629,-3.2601 2.428912,-3.7041 0,0 0.567248,-0.2484 1.366263,-0.2428 1.331685,0.01 3.325025,0.6845 4.523849,4.281 0.367571,1.1027 0.554844,2.0302 0.576867,2.8235 0.01227,-0.85 -0.165584,-1.863 -0.576867,-3.0968 C 21.195549,1015.1037 19.202209,1014.3986 17.870524,1014.3888 z m 8.652999,6.2545 c -0.01347,0.2475 -0.04068,0.5137 -0.121445,0.7591 -0.268123,0.8147 -0.467439,1.3557 -0.728674,1.7305 -0.871396,1.2505 -1.229564,1.0318 -2.671803,2.7022 -0.790562,0.9156 -1.016548,1.4924 -1.032288,1.9432 -0.0023,0.066 -0.0049,0.139 0,0.2124 0.03288,-0.4408 0.273776,-0.9735 1.032288,-1.8519 1.442239,-1.6705 1.800407,-1.4518 2.671803,-2.7023 0.261235,-0.3748 0.460551,-0.9462 0.728674,-1.7609 C 26.516496,1021.328 26.521646,1020.9897 26.523523,1020.6433 z m -16.121903,0.5162 c 0.0054,3.4994 2.641442,4.9488 2.641442,4.9488 0,0 1.334143,0.7579 1.882406,0.9109 1.566165,0.4372 3.179104,0.261 3.339755,0.2429 0.02729,-0.1227 0.06072,-0.2732 0.06072,-0.2732 0,0 -1.752741,0.217 -3.400477,-0.2429 -0.548263,-0.153 -1.882406,-0.9413 -1.882406,-0.9413 C 13.043062,1025.8047 10.550433,1024.4438 10.40162,1021.1595 z m 7.742157,7.2867 c -0.02846,0.8085 0.121624,1.8776 0.880481,2.7629 0.04417,0.052 0.06516,0.082 0.09108,0.1214 0,0 0.243464,0 -0.09108,-0.3946 C 18.349623,1030.1488 18.157162,1029.2142 18.143777,1028.4462 z m 2.459273,4.1292 c -0.852247,0.058 -1.716891,0 -2.368189,0.06 -1.958169,0.1708 -3.010277,0.504 -4.068428,1.2145 -0.497217,0.3338 -1.035173,0.62 -1.51807,1.2751 -0.53223,0.7222 -0.718315,1.4801 -0.698312,2.1861 0.03459,-0.6157 0.240523,-1.2613 0.698312,-1.8824 0.482897,-0.6552 1.020853,-0.9414 1.51807,-1.2752 1.058151,-0.7105 2.110259,-1.0437 4.068428,-1.2145 0.651298,-0.056 1.515942,0 2.368189,-0.06 0,0 3.911307,2.3934 4.280958,4.1594 0.09653,0.4612 0.191436,0.8943 0.21253,1.3056 0.0063,-0.4931 -0.09423,-1.0136 -0.21253,-1.5788 C 24.514357,1034.9992 20.60305,1032.5754 20.60305,1032.5754 z m 7.317098,3.9165 c -0.0027,0.2998 -0.02344,0.6024 -0.06072,0.9109 -0.355768,2.9445 -4.434989,6.8373 -11.021188,6.6492 -6.557072,-0.1872 -8.0761329,-3.8863 -8.0761329,-3.8863 0,0 -0.374542,-0.6639 -0.425059,-1.7002 -0.0092,1.1902 0.425059,2.0038 0.425059,2.0038 0,0 1.5190609,3.6991 8.0761329,3.8863 6.586199,0.1881 10.66542,-3.7047 11.021188,-6.6492 C 27.909204,1037.2945 27.932834,1036.8878 27.920148,1036.4919 Z"
       style="fill:#ffffff;fill-opacity:0.05747124;stroke:none;display:inline" />
    <path
       style="fill:#000000;fill-opacity:0.23529412;stroke:none;display:inline"
       d="m 19.752931,1012.3623 c -0.367961,-10e-5 -1.247683,0.026 -2.277105,0.2125 -2.433119,0.4402 -5.788418,2.0282 -6.740231,5.374 -0.212314,0.7463 -0.313449,1.4448 -0.333975,2.0645 0.03723,-0.5514 0.14997,-1.1445 0.333975,-1.7913 0.951813,-3.3458 4.307112,-4.9641 6.740231,-5.4043 1.029422,-0.1865 1.909144,-0.2127 2.277105,-0.2126 0.12265,10e-5 0.18213,2e-4 0.182169,0 l 8.319023,0.03 0.42506,-0.2429 -8.744083,-0.03 C 19.935061,1012.3624 19.875581,1012.3624 19.752931,1012.3623 z m 4.038066,1.7913 c 0.02496,0.075 1.33563,1.0843 2.094937,2.6111 0.306436,0.6161 0.519004,1.3205 0.607228,2.0645 -0.06428,-0.8437 -0.264078,-1.6478 -0.607228,-2.3378 -0.63539,-1.2776 -1.522608,-2.0334 -1.852045,-2.3378 L 23.790997,1014.1536 z m -9.685286,4.4631 c 0.01438,0.6051 0.07851,1.2844 0.212529,2.0949 0.90751,5.4887 5.829389,4.7364 5.829389,4.7364 0,0 2.922629,-0.6378 2.823611,-4.2809 -0.04595,3.4074 -2.823611,4.038 -2.823611,4.038 0,0 -4.921879,0.7523 -5.829389,-4.7364 C 14.202684,1019.7699 14.1309,1019.1611 14.105711,1018.6167 z m 4.159512,8.0154 c -0.04179,0.1879 -0.07097,0.4357 -0.09108,0.8198 0.04898,-0.4931 0.151807,-0.8198 0.151807,-0.8198 C 18.325945,1026.6321 18.27359,1026.6312 18.265223,1026.6321 z m 3.734452,1.0627 c 0.02741,0.2684 0.100165,0.544 0.333975,0.7894 0.336958,0.3536 0.857513,0.6905 1.609154,1.3055 1.209676,0.9897 2.436461,2.0086 3.157586,3.1879 0.539823,0.883 0.790578,1.8481 0.819758,2.8844 0.0058,-1.1267 -0.238043,-2.2062 -0.819758,-3.1576 -0.721125,-1.1794 -1.94791,-2.1982 -3.157586,-3.188 -0.751641,-0.615 -1.272196,-0.9215 -1.609154,-1.2751 C 22.174484,1028.0743 22.051483,1027.8844 21.999675,1027.6948 z m -2.884333,3.0361 c 0,0 -6.117847,-0.1632 -9.017336,2.9147 -1.4926199,1.5845 -1.8137879,3.0881 -1.7609609,4.1899 0.0083,-1.0737 0.385848,-2.4873 1.7609609,-3.947 2.899489,-3.0779 9.017336,-2.9147 9.017336,-2.9147 C 19.115342,1030.9738 19.25065,1030.9581 19.115342,1030.7309 z m -7.165291,6.0116 c -0.05875,1.9291 1.50191,3.6141 1.852046,3.7951 0.898318,0.4643 2.693974,1.377 5.100715,1.3663 0.979192,0 2.544907,-0.05 3.430838,-0.5161 2.036068,-1.0707 2.659596,-2.0632 2.732526,-3.2184 -0.154485,1.044 -0.856866,1.9891 -2.732526,2.9755 -0.885931,0.4658 -2.451646,0.5119 -3.430838,0.5161 -2.406741,0.011 -4.202397,-0.9019 -5.100715,-1.3663 C 13.467455,1040.1217 12.024391,1038.5631 11.950051,1036.7425 Z"
       id="path5574"
       inkscape:connector-curvature="0" />
    <path
       id="path5579"
       d="m 19.752931,1012.6038 c -0.367961,-10e-5 -1.247683,0.026 -2.277105,0.2125 -2.433119,0.4402 -5.788418,2.0282 -6.740231,5.374 -0.212314,0.7463 -0.313449,1.4448 -0.333975,2.0646 0.03723,-0.5515 0.14997,-1.1445 0.333975,-1.7914 0.951813,-3.3458 4.307112,-4.9641 6.740231,-5.4043 1.029422,-0.1865 1.909144,-0.2126 2.277105,-0.2125 0.12265,10e-5 0.18213,2e-4 0.182169,0 l 8.319023,0.03 0.42506,-0.2429 -8.744083,-0.03 C 19.935061,1012.604 19.875581,1012.6039 19.752931,1012.6038 z m 4.038066,1.7913 c 0.02496,0.075 1.33563,1.0843 2.094937,2.611 0.306436,0.6162 0.519004,1.3206 0.607228,2.0646 -0.06428,-0.8437 -0.264078,-1.6478 -0.607228,-2.3378 -0.63539,-1.2776 -1.522608,-2.0334 -1.852045,-2.3378 L 23.790997,1014.3951 z m -9.685286,4.4631 c 0.01438,0.6051 0.07851,1.2844 0.212529,2.0949 0.90751,5.4887 5.829389,4.7364 5.829389,4.7364 0,0 2.922629,-0.6378 2.823611,-4.2809 -0.04595,3.4074 -2.823611,4.038 -2.823611,4.038 0,0 -4.921879,0.7523 -5.829389,-4.7364 C 14.202684,1020.0114 14.1309,1019.4027 14.105711,1018.8582 z m 4.159512,8.0154 c -0.04179,0.1879 -0.07097,0.4358 -0.09108,0.8198 0.04898,-0.493 0.151807,-0.8198 0.151807,-0.8198 C 18.325945,1026.8736 18.27359,1026.8727 18.265223,1026.8736 z m 3.734452,1.0626 c 0.02741,0.2686 0.100165,0.5441 0.333975,0.7894 0.336958,0.3537 0.857513,0.6906 1.609154,1.3056 1.209676,0.9898 2.436461,2.0085 3.157586,3.1879 0.539823,0.883 0.790578,1.8481 0.819758,2.8844 0.0057,-1.1267 -0.238043,-2.2061 -0.819758,-3.1576 -0.721125,-1.1794 -1.94791,-2.1982 -3.157586,-3.188 -0.751641,-0.615 -1.272196,-0.9215 -1.609154,-1.2752 C 22.174484,1028.3157 22.051483,1028.126 21.999675,1027.9362 z m -2.884333,3.0362 c 0,0 -6.117847,-0.1632 -9.017336,2.9147 -1.4926199,1.5845 -1.8137879,3.0881 -1.7609609,4.1899 0.0084,-1.0737 0.385848,-2.4873 1.7609609,-3.947 2.899489,-3.0779 9.017336,-2.9147 9.017336,-2.9147 C 19.115342,1031.2153 19.25065,1031.1996 19.115342,1030.9724 z m -7.165291,6.0115 c -0.05875,1.9292 1.50191,3.6143 1.852046,3.7953 0.898318,0.4643 2.693974,1.3769 5.100715,1.3662 0.979192,0 2.544907,-0.05 3.430838,-0.5161 2.036068,-1.0707 2.659596,-2.0631 2.732526,-3.2183 -0.154485,1.0439 -0.856866,1.9891 -2.732526,2.9754 -0.885931,0.4659 -2.451646,0.5119 -3.430838,0.5161 -2.406741,0.011 -4.202397,-0.9019 -5.100715,-1.3662 C 13.467455,1040.3632 12.024391,1038.8046 11.950051,1036.9839 Z"
       style="fill:#000000;fill-opacity:0.11676809;stroke:none;display:inline"
       inkscape:connector-curvature="0" />
    <path
       inkscape:connector-curvature="0"
       style="fill:#000000;fill-opacity:0.05882353;stroke:none;display:inline"
       d="m 19.752931,1012.8453 c -0.367961,-10e-5 -1.247683,0.026 -2.277105,0.2125 -2.433119,0.4402 -5.788418,2.0282 -6.740231,5.374 -0.212314,0.7464 -0.313449,1.4448 -0.333975,2.0646 0.03723,-0.5515 0.14997,-1.1445 0.333975,-1.7914 0.951813,-3.3458 4.307112,-4.9641 6.740231,-5.4043 1.029422,-0.1865 1.909144,-0.2126 2.277105,-0.2125 0.12265,10e-5 0.18213,2e-4 0.182169,0 l 8.319023,0.03 0.42506,-0.2429 -8.744083,-0.03 C 19.935061,1012.8455 19.875581,1012.8454 19.752931,1012.8453 z m 4.038066,1.7913 c 0.02496,0.075 1.33563,1.0844 2.094937,2.6111 0.306436,0.6161 0.519004,1.3205 0.607228,2.0645 -0.06428,-0.8437 -0.264078,-1.6477 -0.607228,-2.3377 -0.63539,-1.2776 -1.522608,-2.0335 -1.852045,-2.3379 L 23.790997,1014.6366 z m -9.685286,4.4632 c 0.01438,0.6051 0.07851,1.2844 0.212529,2.0949 0.90751,5.4886 5.829389,4.7363 5.829389,4.7363 0,0 2.922629,-0.6378 2.823611,-4.2809 -0.04595,3.4074 -2.823611,4.038 -2.823611,4.038 0,0 -4.921879,0.7523 -5.829389,-4.7363 C 14.202684,1020.2529 14.1309,1019.6442 14.105711,1019.0998 z m 4.159512,8.0154 c -0.04179,0.1879 -0.07097,0.4357 -0.09108,0.8197 0.04898,-0.493 0.151807,-0.8197 0.151807,-0.8197 C 18.325945,1027.1152 18.27359,1027.1142 18.265223,1027.1152 z m 3.734452,1.0626 c 0.02741,0.2685 0.100165,0.5441 0.333975,0.7894 0.336958,0.3536 0.857513,0.6906 1.609154,1.3056 1.209676,0.9897 2.436461,2.0085 3.157586,3.1879 0.539823,0.8829 0.790578,1.8481 0.819758,2.8843 0.0057,-1.1267 -0.238043,-2.2061 -0.819758,-3.1575 -0.721125,-1.1794 -1.94791,-2.1983 -3.157586,-3.188 -0.751641,-0.615 -1.272196,-0.9216 -1.609154,-1.2752 C 22.174484,1028.5573 22.051483,1028.3675 21.999675,1028.1778 z m -2.884333,3.0361 c 0,0 -6.117847,-0.1632 -9.017336,2.9147 -1.4926199,1.5845 -1.8137879,3.0881 -1.7609609,4.1899 0.0084,-1.0737 0.385848,-2.4872 1.7609609,-3.947 2.899489,-3.0779 9.017336,-2.9147 9.017336,-2.9147 C 19.115342,1031.4568 19.25065,1031.4412 19.115342,1031.2139 z m -7.165291,6.0116 c -0.05875,1.9291 1.50191,3.6142 1.852046,3.7952 0.898318,0.4643 2.693974,1.3769 5.100715,1.3662 0.979192,0 2.544907,-0.051 3.430838,-0.5161 2.036068,-1.0706 2.659596,-2.0631 2.732526,-3.2183 -0.154485,1.044 -0.856866,1.9891 -2.732526,2.9754 -0.885931,0.4659 -2.451646,0.5119 -3.430838,0.5161 -2.406741,0.011 -4.202397,-0.9019 -5.100715,-1.3662 C 13.467455,1040.6048 12.024391,1039.0461 11.950051,1037.2255 Z"
       id="path5581" />
    <g
       transform="matrix(0.36666666,0,0,0.36666666,-151.26027,769.23437)"
       id="layer1-8"
       inkscape:label="Capa 1"
       style="fill:#ffffff">
      <path
         sodipodi:nodetypes="ccccccccccccc"
         d="m 520.71428,681.07619 -11.99969,0 0,12.00028 -6.00062,0 0,-12.00028 -11.99969,0 0,-6.00107 11.99969,0 0,-11.99865 6.00062,0 0,11.99865 L 520.71428,675.07512 Z"
         style="fill:#ffffff;fill-opacity:1;fill-rule:nonzero;stroke:none"
         id="path560"
         inkscape:connector-curvature="0" />
    </g>
    <path
       style="fill:#000000;fill-opacity:0.23529412;fill-rule:nonzero;stroke:none"
       d="M 33.0625 8 L 33.0625 8.34375 L 35.28125 8.34375 L 35.28125 8 L 33.0625 8 z M 28.65625 12.40625 L 28.65625 12.71875 L 33.0625 12.71875 L 33.0625 12.40625 L 28.65625 12.40625 z M 35.28125 12.40625 L 35.28125 12.71875 L 39.65625 12.71875 L 39.65625 12.40625 L 35.28125 12.40625 z "
       transform="translate(0,1004.3622)"
       id="path4054" />
    <path
       id="path4066"
       d="m 33.0625,1012.7047 0,0.3438 2.21875,0 0,-0.3438 L 33.0625,1012.7047 z m -4.40625,4.4063 0,0.3125 4.40625,0 0,-0.3125 L 28.65625,1017.111 z m 6.625,0 0,0.3125 4.375,0 0,-0.3125 L 35.28125,1017.111 Z"
       style="fill:#000000;fill-opacity:0.11764706;fill-rule:nonzero;stroke:none"
       inkscape:connector-curvature="0" />
    <path
       inkscape:connector-curvature="0"
       style="fill:#000000;fill-opacity:0.05882353;fill-rule:nonzero;stroke:none"
       d="m 33.0625,1013.0479 0,0.3438 2.21875,0 0,-0.3438 L 33.0625,1013.0479 z m -4.40625,4.4063 0,0.3125 4.40625,0 0,-0.3125 L 28.65625,1017.4542 z m 6.625,0 0,0.3125 4.375,0 0,-0.3125 L 35.28125,1017.4542 Z"
       id="path4068" />
    <path
       id="path4070"
       d="m 33.0625,1024.3948 0,-0.3437 2.21875,0 0,0.3437 L 33.0625,1024.3948 z m -4.40625,-4.4062 0,-0.3125 4.40625,0 0,0.3125 L 28.65625,1019.9886 z m 6.625,0 0,-0.3125 4.375,0 0,0.3125 L 35.28125,1019.9886 Z"
       style="fill:#ffffff;fill-opacity:0.05882353;fill-rule:nonzero;stroke:none"
       inkscape:connector-curvature="0" />
    <path
       inkscape:connector-curvature="0"
       style="fill:#ffffff;fill-opacity:0.11764706;fill-rule:nonzero;stroke:none"
       d="m 33.0625,1024.0523 0,-0.3438 2.21875,0 0,0.3438 L 33.0625,1024.0523 z m -4.40625,-4.4063 0,-0.3125 4.40625,0 0,0.3125 L 28.65625,1019.646 z m 6.625,0 0,-0.3125 4.375,0 0,0.3125 L 35.28125,1019.646 Z"
       id="path4072" />
    <path
       id="path4074"
       d="m 33.0625,1023.7091 0,-0.3438 2.21875,0 0,0.3438 L 33.0625,1023.7091 z m -4.40625,-4.4063 0,-0.3125 4.40625,0 0,0.3125 L 28.65625,1019.3028 z m 6.625,0 0,-0.3125 4.375,0 0,0.3125 L 35.28125,1019.3028 Z"
       style="fill:#ffffff;fill-opacity:0.23529412;fill-rule:nonzero;stroke:none"
       inkscape:connector-curvature="0" />
  </g>
</svg>
