<?xml version="1.0" encoding="UTF-8" standalone="no"?>
<!-- Created with Inkscape (http://www.inkscape.org/) -->

<svg
   xmlns:dc="http://purl.org/dc/elements/1.1/"
   xmlns:cc="http://creativecommons.org/ns#"
   xmlns:rdf="http://www.w3.org/1999/02/22-rdf-syntax-ns#"
   xmlns:svg="http://www.w3.org/2000/svg"
   xmlns="http://www.w3.org/2000/svg"
   xmlns:xlink="http://www.w3.org/1999/xlink"
   xmlns:sodipodi="http://sodipodi.sourceforge.net/DTD/sodipodi-0.dtd"
   xmlns:inkscape="http://www.inkscape.org/namespaces/inkscape"
   width="48"
   height="48"
   id="svg5453"
   version="1.1"
   inkscape:version="0.48+devel r12314"
   sodipodi:docname="grooveoff.svg">
  <defs
     id="defs5455">
    <linearGradient
       inkscape:collect="always"
       id="linearGradient5554">
      <stop
         style="stop-color:#000000;stop-opacity:1;"
         offset="0"
         id="stop5556" />
      <stop
         style="stop-color:#000000;stop-opacity:0;"
         offset="1"
         id="stop5558" />
    </linearGradient>
    <linearGradient
       inkscape:collect="always"
       id="linearGradient5546">
      <stop
         style="stop-color:#000000;stop-opacity:1;"
         offset="0"
         id="stop5548" />
      <stop
         style="stop-color:#000000;stop-opacity:0;"
         offset="1"
         id="stop5550" />
    </linearGradient>
    <linearGradient
       inkscape:collect="always"
       id="linearGradient5538">
      <stop
         style="stop-color:#000000;stop-opacity:1;"
         offset="0"
         id="stop5540" />
      <stop
         style="stop-color:#000000;stop-opacity:0;"
         offset="1"
         id="stop5542" />
    </linearGradient>
    <linearGradient
       inkscape:collect="always"
       id="linearGradient5519">
      <stop
         style="stop-color:#ffffff;stop-opacity:1;"
         offset="0"
         id="stop5521" />
      <stop
         style="stop-color:#ffffff;stop-opacity:0;"
         offset="1"
         id="stop5523" />
    </linearGradient>
    <linearGradient
       inkscape:collect="always"
       id="linearGradient5495">
      <stop
         style="stop-color:#000000;stop-opacity:0"
         offset="0"
         id="stop5497" />
      <stop
         id="stop5505"
         offset="0.95161593"
         style="stop-color:#000000;stop-opacity:0.49803922;" />
      <stop
         style="stop-color:#000000;stop-opacity:0;"
         offset="1"
         id="stop5499" />
    </linearGradient>
    <linearGradient
       id="linearGradient5464"
       inkscape:collect="always">
      <stop
         id="stop5466"
         offset="0"
         style="stop-color:#b0bccd;stop-opacity:1" />
      <stop
         id="stop5468"
         offset="1"
         style="stop-color:#fafafc;stop-opacity:1" />
    </linearGradient>
    <linearGradient
       inkscape:collect="always"
       id="linearGradient5292">
      <stop
         style="stop-color:#b1bdce;stop-opacity:1"
         offset="0"
         id="stop5294" />
      <stop
         style="stop-color:#e9edf1;stop-opacity:1"
         offset="1"
         id="stop5296" />
    </linearGradient>
    <linearGradient
       inkscape:collect="always"
       xlink:href="#linearGradient5292"
       id="linearGradient5298"
       x1="411.3327"
       y1="-547.85773"
       x2="411.3327"
       y2="-499.77591"
       gradientUnits="userSpaceOnUse" />
    <linearGradient
       inkscape:collect="always"
       xlink:href="#linearGradient5464"
       id="linearGradient5446"
       x1="409.6691"
       y1="539.79407"
       x2="409.6691"
       y2="507.7941"
       gradientUnits="userSpaceOnUse"
       gradientTransform="matrix(0.95238096,0,0,0.95238096,19.45578,24.466574)" />
    <radialGradient
       inkscape:collect="always"
       xlink:href="#linearGradient5495"
       id="radialGradient5503"
       cx="27.709747"
       cy="17.191031"
       fx="27.709747"
       fy="17.191031"
       r="10.562407"
       gradientUnits="userSpaceOnUse" />
    <radialGradient
       inkscape:collect="always"
       xlink:href="#linearGradient5519"
       id="radialGradient5525"
       cx="409.19016"
       cy="516.37335"
       fx="409.19016"
       fy="516.37335"
       r="16"
       gradientUnits="userSpaceOnUse"
       gradientTransform="matrix(0.95238096,0,0,0.95238096,19.45578,24.466574)" />
    <linearGradient
       inkscape:collect="always"
       xlink:href="#linearGradient5538"
       id="linearGradient5544"
       x1="410.07144"
       y1="541.17297"
       x2="410.07144"
       y2="517.61047"
       gradientUnits="userSpaceOnUse"
       gradientTransform="matrix(0.95238096,0,0,0.95238096,19.45578,24.466574)" />
    <linearGradient
       inkscape:collect="always"
       xlink:href="#linearGradient5546"
       id="linearGradient5552"
       x1="409.91428"
       y1="541.15698"
       x2="409.91428"
       y2="514.81726"
       gradientUnits="userSpaceOnUse"
       gradientTransform="matrix(0.95238096,0,0,0.95238096,19.45578,24.466574)" />
    <linearGradient
       inkscape:collect="always"
       xlink:href="#linearGradient5554"
       id="linearGradient5560"
       x1="408.57144"
       y1="539.92297"
       x2="408.57144"
       y2="508.923"
       gradientUnits="userSpaceOnUse"
       gradientTransform="matrix(0.95238096,0,0,0.95238096,19.45578,24.466574)" />
  </defs>
  <sodipodi:namedview
     id="base"
     pagecolor="#ffffff"
     bordercolor="#666666"
     borderopacity="1.0"
     inkscape:pageopacity="0"
     inkscape:pageshadow="2"
     inkscape:zoom="5.6568543"
     inkscape:cx="23.447519"
     inkscape:cy="29.854885"
     inkscape:document-units="px"
     inkscape:current-layer="layer1"
     showgrid="false"
     fit-margin-top="0"
     fit-margin-left="0"
     fit-margin-right="0"
     fit-margin-bottom="0"
     inkscape:window-width="1366"
     inkscape:window-height="714"
     inkscape:window-x="0"
     inkscape:window-y="30"
     inkscape:window-maximized="1" />
  <metadata
     id="metadata5458">
    <rdf:RDF>
      <cc:Work
         rdf:about="">
        <dc:format>image/svg+xml</dc:format>
        <dc:type
           rdf:resource="http://purl.org/dc/dcmitype/StillImage" />
        <dc:title></dc:title>
      </cc:Work>
    </rdf:RDF>
  </metadata>
  <g
     inkscape:label="Capa 1"
     inkscape:groupmode="layer"
     id="layer1"
     transform="translate(-384.57143,-499.798)">
    <rect
       style="fill:url(#linearGradient5298);fill-opacity:1;stroke:none"
       id="rect2991-1-7"
       width="48"
       height="48"
       x="384.57144"
       y="-547.79797"
       ry="1.9445436"
       transform="scale(1,-1)" />
    <path
       inkscape:connector-curvature="0"
       style="fill:#000000;fill-opacity:1;stroke:none"
       d="m 384.57143,544.79799 0,1.0625 c 0,1.0773 0.86022,1.9375 1.9375,1.9375 l 44.125,0 c 1.07728,0 1.9375,-0.8602 1.9375,-1.9375 l 0,-1.0625 c 0,1.0773 -0.86022,1.9375 -1.9375,1.9375 l -44.125,0 C 385.43165,546.73549 384.57143,545.87529 384.57143,544.79799 Z"
       id="rect846" />
    <path
       inkscape:connector-curvature="0"
       style="fill:#ffffff;fill-opacity:0.5372549;stroke:none"
       d="m 387.10268,500.45429 c -0.91709,0 -1.67115,0.6395 -1.84375,1.5 0.33561,-0.2799 0.77451,-0.4375 1.25,-0.4375 l 44.125,0 c 0.47549,0 0.91439,0.1576 1.25,0.4375 -0.1726,-0.8605 -0.92666,-1.5 -1.84375,-1.5 L 387.10268,500.45429 Z"
       id="path7515" />
    <path
       inkscape:connector-curvature="0"
       style="fill:#000000;fill-opacity:0.39215686;stroke:none"
       d="m 386.50893,499.79799 c -1.07728,0 -1.9375,0.8602 -1.9375,1.9375 l 0,43.0625 c 0,0.7934 0.48002,1.449 1.15625,1.75 -0.30934,-0.3333 -0.5,-0.7824 -0.5,-1.2812 l 0,-42.9375 c 0,-1.0482 0.8269,-1.875 1.875,-1.875 l 42.9375,0 c 1.0481,0 1.875,0.8268 1.875,1.875 l 0,42.9375 c 0,0.4988 -0.19066,0.9479 -0.5,1.2812 0.67623,-0.301 1.15625,-0.9566 1.15625,-1.75 l 0,-43.0625 c 0,-1.0773 -0.86022,-1.9375 -1.9375,-1.9375 L 386.50893,499.79799 Z"
       id="rect4280" />
    <g
       id="g6678">
      <path
         transform="matrix(1.2228822,0,0,1.2228822,374.68563,500.13055)"
         d="m 38.272154,18.964428 a 10.562407,10.562407 0 1 1 -21.124813,0 A 10.562407,10.562407 0 1 1 38.272154,18.964428 Z"
         sodipodi:ry="10.562407"
         sodipodi:rx="10.562407"
         sodipodi:cy="18.964428"
         sodipodi:cx="27.709747"
         id="path5483"
         style="fill:#000000;fill-opacity:0.19607843;stroke:none"
         sodipodi:type="arc" />
      <path
         sodipodi:type="arc"
         style="fill:url(#radialGradient5503);fill-opacity:1;stroke:none"
         id="path5485"
         sodipodi:cx="27.709747"
         sodipodi:cy="18.964428"
         sodipodi:rx="10.562407"
         sodipodi:ry="10.562407"
         d="m 38.272154,18.964428 a 10.562407,10.562407 0 1 1 -21.124813,0 A 10.562407,10.562407 0 1 1 38.272154,18.964428 Z"
         transform="matrix(1.2228822,0,0,1.2228822,374.68567,500.13055)" />
      <path
         style="opacity:0.2392638;fill:url(#linearGradient5544);fill-opacity:1;fill-rule:nonzero;stroke:none"
         d="m 408.57143,507.798 c -8.83262,0 -16,7.16753 -16,16 0,8.83215 7.16738,16 16,16 8.832,0 16,-7.16785 16,-16 C 424.57143,514.96553 417.40343,507.798 408.57143,507.798 z m 0,3.26531 c 4.22732,0 8.24401,2.16887 10.56772,5.69944 0.58217,0.88544 1.05203,1.84971 1.39517,2.84972 0.10901,0.31727 0.21338,0.62575 0.29685,0.94991 0.26669,1.05297 0.3929,2.14893 0.3859,3.23562 -0.0161,2.0455 -0.66838,4.28895 -3.23562,3.20594 -1.21292,-0.51164 -2.24439,-1.52971 -2.99815,-2.58256 -0.86501,-1.20911 -1.73191,-2.40542 -2.70129,-3.53247 -0.91144,-1.05844 -1.88545,-2.0816 -2.93878,-2.99815 -1.04965,-0.91558 -2.18419,-1.76991 -3.44341,-2.37476 -0.84459,-0.40715 -1.71151,-0.72171 -2.61225,-0.9796 -0.10112,-0.0284 -0.39378,-0.15481 -0.47495,-0.0296 -0.0506,0.0772 -0.0111,0.21098 0,0.29683 0.0219,0.18642 0.0367,0.37807 0.0594,0.56401 0.26948,2.23336 0.3961,4.5992 -0.29685,6.76809 -0.37198,1.16885 -1.05381,2.22966 -1.95918,3.05751 -0.74954,0.68559 -1.81586,1.38544 -2.87941,1.33581 -0.1962,-0.009 -0.39934,-0.0534 -0.59369,-0.11874 -1.13915,-0.38351 -1.21057,-1.60107 -1.21707,-2.61224 -0.009,-1.0867 0.11689,-2.18265 0.3859,-3.23562 0.082,-0.32416 0.18832,-0.63264 0.29685,-0.94991 1.24351,-3.60716 4.13219,-6.55566 7.74768,-7.83674 C 405.71055,511.29567 407.13506,511.06331 408.57143,511.06331 Z"
         id="path5481"
         inkscape:connector-curvature="0" />
      <path
         inkscape:connector-curvature="0"
         id="path5479"
         d="m 408.57143,507.798 c -8.7275,0 -15.8096,7.08225 -15.8096,15.8096 0,8.72687 7.0821,15.80944 15.8096,15.80944 8.72688,0 15.8096,-7.08257 15.8096,-15.80944 C 424.38103,514.88025 417.29831,507.798 408.57143,507.798 z m 0,3.22643 c 4.17704,0 8.14577,2.14303 10.44188,5.63156 0.57521,0.87484 1.03951,1.82783 1.37853,2.81584 0.10765,0.31347 0.21086,0.61839 0.29329,0.93867 0.26365,1.0403 0.3883,2.12321 0.38138,3.1971 -0.0161,2.02106 -0.66034,4.23775 -3.1971,3.16778 -1.1984,-0.50556 -2.21775,-1.51155 -2.96243,-2.55188 -0.85481,-1.19479 -1.71135,-2.37678 -2.66913,-3.49039 -0.90052,-1.04584 -1.86313,-2.05684 -2.90378,-2.96243 -1.03717,-0.90478 -2.15819,-1.74891 -3.40245,-2.34652 -0.83451,-0.40223 -1.69123,-0.71315 -2.58105,-0.968 -0.1,-0.028 -0.38918,-0.15301 -0.46947,-0.0292 -0.0492,0.077 -0.0111,0.2085 0,0.29343 0.0215,0.18422 0.0363,0.37351 0.0586,0.55741 0.26628,2.2066 0.39146,4.54429 -0.2933,6.68749 -0.36765,1.15489 -1.04128,2.20294 -1.9359,3.02107 -0.74057,0.67735 -1.79433,1.36892 -2.84508,1.31977 -0.19392,-0.009 -0.39466,-0.0526 -0.58661,-0.11726 -1.12555,-0.37903 -1.19621,-1.58203 -1.20263,-2.58119 -0.009,-1.07375 0.11557,-2.15666 0.38138,-3.19695 0.0808,-0.32028 0.18596,-0.6252 0.29329,-0.93867 1.22863,-3.56416 4.08295,-6.4777 7.65548,-7.74342 C 405.74455,511.25403 407.15222,511.02443 408.57143,511.02443 Z"
         style="opacity:0.2;fill:url(#linearGradient5552);fill-opacity:1;fill-rule:nonzero;stroke:none" />
      <path
         style="opacity:0.15;fill:url(#linearGradient5560);fill-opacity:1;fill-rule:nonzero;stroke:none"
         d="m 408.57143,507.8456 c -8.59606,0 -15.57144,6.97553 -15.57144,15.57144 0,8.59559 6.97538,15.57144 15.57144,15.57144 8.59544,0 15.57144,-6.97585 15.57144,-15.57144 C 424.14287,514.82113 417.16687,507.8456 408.57143,507.8456 z m 0,3.17783 c 4.11403,0 8.02321,2.11073 10.28462,5.54683 0.56659,0.86163 1.02386,1.80016 1.35785,2.77337 0.10611,0.30877 0.20767,0.60907 0.2888,0.92446 0.25961,1.0248 0.38247,2.09142 0.37565,3.14895 -0.0161,1.99071 -0.65053,4.17411 -3.14895,3.12008 -1.18041,-0.49788 -2.18425,-1.48877 -2.91782,-2.51345 -0.8419,-1.17669 -1.68553,-2.34094 -2.62895,-3.43775 -0.88697,-1.03009 -1.83497,-2.02589 -2.86013,-2.91782 -1.02147,-0.89112 -2.12553,-1.72254 -3.35107,-2.31118 -0.82209,-0.3962 -1.66574,-0.70249 -2.54231,-0.95334 -0.0984,-0.0275 -0.38319,-0.15072 -0.46234,-0.0287 -0.0484,0.0757 -0.0111,0.20536 0,0.2888 0.021,0.18157 0.0358,0.36797 0.0576,0.54902 0.26224,2.17351 0.38558,4.47595 -0.2888,6.58686 -0.36202,1.13744 -1.02564,2.16974 -1.90672,2.97556 -0.7295,0.66713 -1.76724,1.34823 -2.80235,1.29988 -0.19087,-0.009 -0.38857,-0.0516 -0.57768,-0.11541 -1.10871,-0.37335 -1.17822,-1.5583 -1.18454,-2.54232 -0.009,-1.05762 0.11372,-2.12415 0.37565,-3.14895 0.0802,-0.31539 0.18317,-0.61578 0.2888,-0.92446 1.21019,-3.51053 4.0216,-6.38005 7.54019,-7.62689 C 405.78717,511.24954 407.17355,511.02343 408.57143,511.02343 Z"
         id="path5462"
         inkscape:connector-curvature="0" />
      <path
         inkscape:connector-curvature="0"
         id="path14"
         d="m 408.57143,508.08376 c -8.41198,0 -15.23808,6.82624 -15.23808,15.23808 0,8.41151 6.8261,15.23808 15.23808,15.23808 8.41136,0 15.23808,-6.82657 15.23808,-15.23808 C 423.80951,514.91 416.98279,508.08376 408.57143,508.08376 z m 0,3.10979 c 4.02604,0 7.85137,2.06551 10.06452,5.42808 0.55449,0.8432 1.00195,1.76155 1.32877,2.71397 0.10373,0.30214 0.20314,0.5959 0.28261,0.9047 0.25405,1.00273 0.37418,2.04653 0.3675,3.08154 -0.0159,1.94806 -0.63654,4.08463 -3.08154,3.0533 -1.15516,-0.48732 -2.13751,-1.45691 -2.85527,-2.45968 -0.82389,-1.15151 -1.64951,-2.29086 -2.57265,-3.36415 -0.86808,-1.00804 -1.79569,-1.98256 -2.79894,-2.85543 -0.99957,-0.87206 -2.08019,-1.68559 -3.27941,-2.26164 -0.80439,-0.38779 -1.62999,-0.68744 -2.48777,-0.93304 -0.0963,-0.0268 -0.37506,-0.14745 -0.45239,-0.028 -0.0482,0.0743 -0.0111,0.20091 0,0.28276 0.0203,0.17746 0.0351,0.35999 0.0562,0.53713 0.25668,2.12696 0.37722,4.38016 -0.28261,6.44576 -0.35438,1.11326 -1.00373,2.12351 -1.8659,2.91197 -0.71386,0.65285 -1.72946,1.31939 -2.74229,1.27216 -0.18692,-0.009 -0.3803,-0.0502 -0.56553,-0.11314 -1.08491,-0.36528 -1.15281,-1.52475 -1.15899,-2.48776 -0.009,-1.03502 0.11129,-2.07881 0.3675,-3.08154 0.0781,-0.3088 0.17936,-0.60256 0.28261,-0.90479 1.18431,-3.43532 3.93555,-6.24334 7.37888,-7.46346 C 405.84671,511.41487 407.20343,511.19355 408.57143,511.19355 Z"
         style="fill:url(#linearGradient5446);fill-opacity:1;fill-rule:nonzero;stroke:none" />
      <path
         inkscape:connector-curvature="0"
         id="path5457"
         d="m 408.57143,508.08376 c -7.96683,0 -14.47844,6.13466 -15.14881,13.92852 0.78074,-7.68118 7.26247,-13.66071 15.14881,-13.66071 7.88576,0 14.36801,5.97953 15.14881,13.66071 C 423.04983,514.21842 416.53783,508.08376 408.57143,508.08376 z m -5.38697,6.33929 c -0.0388,0.005 -0.0702,0.0296 -0.089,0.0593 -0.044,0.0668 -0.0137,0.15715 0,0.23816 0.0779,-0.11929 0.35019,0.003 0.44651,0.0297 0.85786,0.24573 1.69561,0.56469 2.49997,0.95248 1.19929,0.57605 2.27416,1.38982 3.27373,2.26188 1.00325,0.87287 1.92959,1.84908 2.79766,2.85712 0.9233,1.07345 1.73577,2.21158 2.5595,3.36309 0.71792,1.00277 1.702,1.95326 2.85717,2.44042 2.44495,1.03149 3.07993,-1.0876 3.09523,-3.03566 4e-4,-0.0594 4.8e-4,-0.11892 0,-0.17854 -0.0332,1.92389 -0.68663,3.99219 -3.09523,2.9762 -1.15517,-0.48732 -2.13925,-1.46761 -2.85717,-2.47023 -0.82373,-1.15151 -1.6362,-2.2898 -2.5595,-3.36309 -0.86807,-1.00804 -1.79441,-1.98425 -2.79766,-2.85712 -0.99957,-0.87206 -2.07444,-1.68597 -3.27373,-2.26199 -0.80436,-0.38768 -1.64211,-0.67699 -2.49997,-0.92256 C 403.46938,514.49198 403.3,514.40776 403.18446,514.42305 z m 0.11908,4.94046 c -0.0618,0.81072 -0.19897,1.60634 -0.44635,2.38096 -0.35438,1.11317 -1.01282,2.12825 -1.87499,2.91658 -0.71386,0.65295 -1.72521,1.29733 -2.7382,1.2501 -0.18676,-0.009 -0.38036,-0.0268 -0.56543,-0.089 -0.81372,-0.27399 -1.05832,-1.00646 -1.13102,-1.75602 0.0429,0.84042 0.2199,1.68733 1.13102,1.99407 0.18507,0.0622 0.37867,0.11056 0.56543,0.11908 1.01299,0.0471 2.02434,-0.6268 2.7382,-1.27975 0.86217,-0.78849 1.52061,-1.77376 1.87499,-2.88693 C 403.12907,521.16129 403.25151,520.25624 403.30354,519.36351 Z"
         style="fill:#ffffff;fill-opacity:0.23605149;fill-rule:nonzero;stroke:none" />
      <path
         inkscape:connector-curvature="0"
         id="path5470"
         d="m 408.57143,510.97069 c -1.368,0 -2.728,0.22725 -4.01779,0.68451 -3.44333,1.21996 -6.19673,4.03483 -7.38104,7.47015 -0.10341,0.30223 -0.18971,0.58422 -0.26781,0.89286 -0.1453,0.56859 -0.23865,1.17019 -0.29762,1.75591 0.0608,-0.51553 0.16951,-1.04619 0.29762,-1.54756 0.0781,-0.30864 0.1644,-0.59063 0.26781,-0.89286 1.18431,-3.43532 3.93771,-6.25019 7.38104,-7.47015 1.28979,-0.45742 2.64979,-0.68467 4.01779,-0.68467 4.02604,0 7.84647,2.08402 10.05946,5.44643 0.55449,0.84336 1.01255,1.75606 1.33937,2.70839 0.10373,0.30223 0.18834,0.58422 0.26781,0.89286 0.12696,0.50137 0.23665,1.03203 0.29762,1.54756 -0.059,-0.58572 -0.15363,-1.18732 -0.29762,-1.75591 -0.0797,-0.30864 -0.16408,-0.59063 -0.26781,-0.89286 -0.32682,-0.95233 -0.78488,-1.86503 -1.33937,-2.70823 C 416.4179,513.05455 412.59747,510.97069 408.57143,510.97069 z m -5.47624,3.57131 c -0.0112,0.0718 -0.008,0.14587 0,0.20832 0.0203,0.17762 0.0382,0.35864 0.0593,0.53578 0.0642,0.53178 0.11171,1.06447 0.14873,1.60718 -0.0365,-0.61249 -0.0771,-1.21607 -0.14873,-1.81553 C 403.13307,514.90061 403.11613,514.71959 403.09519,514.542 z m -9.67257,10.11905 c 0.68426,7.77962 7.19201,13.89887 15.14881,13.89887 7.9563,0 14.46449,-6.11925 15.14881,-13.89887 -0.7808,7.68095 -7.26305,13.69052 -15.14881,13.69052 C 400.68509,538.35157 394.20336,532.342 393.42262,524.66105 Z"
         style="fill:#ffffff;fill-opacity:0.23529412;fill-rule:nonzero;stroke:none" />
      <path
         inkscape:connector-curvature="0"
         style="fill:#ffffff;fill-opacity:0.11795002;fill-rule:nonzero;stroke:none"
         d="m 408.57143,508.32176 c -7.96683,0 -14.47844,6.13467 -15.14881,13.92868 0.78074,-7.68118 7.26247,-13.66071 15.14881,-13.66071 7.88576,0 14.36801,5.97953 15.14881,13.66071 C 423.04983,514.45643 416.53783,508.32176 408.57143,508.32176 z m -5.38697,6.33929 c -0.0388,0.005 -0.0703,0.0296 -0.0889,0.0593 -0.044,0.0668 -0.0138,0.15715 0,0.238 0.078,-0.11913 0.35019,0.003 0.44651,0.0296 0.85786,0.24557 1.69561,0.56469 2.49993,0.95235 1.19933,0.57604 2.2742,1.38995 3.27377,2.26201 1.00325,0.87287 1.92958,1.84908 2.79766,2.85712 0.9233,1.07329 1.73577,2.21158 2.5595,3.36309 0.71792,1.00263 1.70196,1.9531 2.85713,2.44042 2.44499,1.03149 3.07997,-1.0876 3.09527,-3.03566 4e-4,-0.0594 4.8e-4,-0.11893 0,-0.17854 -0.0332,1.92373 -0.68662,3.99219 -3.09527,2.97615 -1.15517,-0.48727 -2.13921,-1.46757 -2.85713,-2.47027 -0.82373,-1.15158 -1.6362,-2.28971 -2.5595,-3.36313 -0.86808,-1.00802 -1.79441,-1.98417 -2.79766,-2.85715 -0.99957,-0.8719 -2.07444,-1.68583 -3.27377,-2.26188 -0.80432,-0.38779 -1.64207,-0.67694 -2.49993,-0.92261 C 403.46938,514.73014 403.29999,514.64591 403.18446,514.66105 z m 0.11908,4.94046 c -0.0618,0.81087 -0.19897,1.60634 -0.44635,2.38096 -0.35438,1.11317 -1.01282,2.12825 -1.87499,2.91674 -0.71386,0.65295 -1.72521,1.29719 -2.7382,1.24994 -0.18676,-0.009 -0.38036,-0.0268 -0.56543,-0.0889 -0.81372,-0.27388 -1.05831,-1.00635 -1.13102,-1.75591 0.0429,0.84026 0.2199,1.68731 1.13102,1.99407 0.18507,0.0621 0.37867,0.1104 0.56543,0.11897 1.01299,0.0478 2.02434,-0.62685 2.7382,-1.2798 0.86217,-0.78833 1.52061,-1.7736 1.87499,-2.88677 C 403.12908,521.39944 403.25151,520.49424 403.30354,519.60151 Z"
         id="path5475" />
      <path
         id="path5477"
         d="m 408.57143,508.55992 c -7.96683,0 -14.47844,6.13467 -15.14881,13.92852 0.78074,-7.68102 7.26247,-13.66071 15.14881,-13.66071 7.88576,0 14.36801,5.97969 15.14881,13.66071 C 423.04983,514.69459 416.53783,508.55992 408.57143,508.55992 z m -5.38697,6.33929 c -0.0388,0.005 -0.0703,0.0296 -0.0889,0.0593 -0.044,0.0668 -0.0138,0.15715 0,0.23816 0.078,-0.11929 0.35019,0.003 0.44651,0.0296 0.85786,0.24557 1.69561,0.56453 2.49993,0.95232 1.19933,0.57605 2.2742,1.38998 3.27377,2.26188 1.00325,0.87287 1.92958,1.84908 2.79766,2.85712 0.9233,1.07345 1.73577,2.21158 2.5595,3.36309 0.71792,1.00277 1.70196,1.95326 2.85713,2.44058 2.44499,1.03133 3.07997,-1.0876 3.09527,-3.03582 4e-4,-0.0594 4.8e-4,-0.11882 0,-0.17854 -0.0332,1.92389 -0.68662,3.99235 -3.09527,2.9762 -1.15517,-0.48732 -2.13921,-1.46746 -2.85713,-2.47023 -0.82373,-1.15151 -1.6362,-2.28964 -2.5595,-3.36309 -0.86808,-1.00804 -1.79441,-1.98425 -2.79766,-2.85712 -0.99957,-0.87206 -2.07444,-1.68583 -3.27377,-2.26188 -0.80432,-0.38779 -1.64207,-0.6771 -2.49993,-0.92267 C 403.46938,514.96814 403.29999,514.88407 403.18446,514.89921 z m 0.11908,4.94046 c -0.0618,0.81087 -0.19897,1.60634 -0.44635,2.38096 -0.35438,1.11317 -1.01282,2.12825 -1.87499,2.91658 -0.71386,0.65295 -1.72521,1.29733 -2.7382,1.2501 -0.18676,-0.009 -0.38036,-0.0268 -0.56543,-0.0889 -0.81372,-0.27404 -1.05831,-1.00651 -1.13102,-1.75607 0.0429,0.84042 0.2199,1.68733 1.13102,1.99407 0.18507,0.0621 0.37867,0.11056 0.56543,0.11908 1.01299,0.0472 2.02434,-0.6268 2.7382,-1.27975 0.86217,-0.78849 1.52061,-1.77376 1.87499,-2.88693 C 403.12908,521.63744 403.25151,520.7324 403.30354,519.83967 Z"
         style="fill:#ffffff;fill-opacity:0.05882353;fill-rule:nonzero;stroke:none"
         inkscape:connector-curvature="0" />
      <path
         style="opacity:0.85;fill:url(#radialGradient5525);fill-opacity:1;fill-rule:nonzero;stroke:none"
         d="m 408.57143,508.08376 c -8.41198,0 -15.23808,6.82624 -15.23808,15.23808 0,8.41151 6.8261,15.23808 15.23808,15.23808 8.41136,0 15.23808,-6.82657 15.23808,-15.23808 C 423.80951,514.91 416.98279,508.08376 408.57143,508.08376 z m 0,3.10979 c 4.02604,0 7.85137,2.06551 10.06452,5.42808 0.55449,0.8432 1.00195,1.76155 1.32877,2.71397 0.10373,0.30214 0.20314,0.5959 0.28261,0.9047 0.25405,1.00273 0.37418,2.04653 0.3675,3.08154 -0.0159,1.94806 -0.63654,4.08463 -3.08154,3.0533 -1.15516,-0.48732 -2.13751,-1.45691 -2.85527,-2.45968 -0.82389,-1.15151 -1.64951,-2.29086 -2.57265,-3.36415 -0.86808,-1.00804 -1.79569,-1.98256 -2.79894,-2.85543 -0.99957,-0.87206 -2.08019,-1.68559 -3.27941,-2.26164 -0.80439,-0.38779 -1.62999,-0.68744 -2.48777,-0.93304 -0.0963,-0.0268 -0.37506,-0.14745 -0.45239,-0.028 -0.0482,0.0743 -0.0111,0.20091 0,0.28276 0.0203,0.17746 0.0351,0.35999 0.0562,0.53713 0.25668,2.12696 0.37722,4.38016 -0.28261,6.44576 -0.35438,1.11326 -1.00373,2.12351 -1.8659,2.91197 -0.71386,0.65285 -1.72946,1.31939 -2.74229,1.27216 -0.18692,-0.009 -0.3803,-0.0502 -0.56553,-0.11314 -1.08491,-0.36528 -1.15281,-1.52475 -1.15899,-2.48776 -0.009,-1.03502 0.11129,-2.07881 0.3675,-3.08154 0.0781,-0.3088 0.17936,-0.60256 0.28261,-0.90479 1.18431,-3.43532 3.93555,-6.24334 7.37888,-7.46346 C 405.84671,511.41487 407.20343,511.19355 408.57143,511.19355 Z"
         id="path5515"
         inkscape:connector-curvature="0" />
      <path
         inkscape:connector-curvature="0"
         id="path5527"
         d="m 408.57143,511.20869 c -6.68518,0 -12.11315,5.42796 -12.11315,12.11315 0,0.0797 -0.002,0.15901 0,0.238 0.12672,-6.57544 5.50734,-11.87499 12.11315,-11.87499 6.60581,0 11.98643,5.29955 12.11315,11.87499 0.002,-0.0788 0,-0.15862 0,-0.238 C 420.68458,516.63665 415.25661,511.20869 408.57143,511.20869 Z"
         style="fill:#000000;fill-opacity:0.3476395;stroke:none" />
      <path
         inkscape:connector-curvature="0"
         style="fill:#1a1a1a;fill-opacity:0.3476395;stroke:none"
         d="m 408.57143,511.67931 c -6.68519,0 -12.11315,5.42797 -12.11315,12.11315 0,0.0793 -0.002,0.15901 0,0.238 0.12673,-6.57544 5.50734,-11.87499 12.11315,-11.87499 6.60581,0 11.98642,5.29955 12.11315,11.87499 0.002,-0.0789 0,-0.15862 0,-0.238 C 420.68458,517.10728 415.25662,511.67931 408.57143,511.67931 Z"
         id="path5534" />
      <path
         id="path5536"
         d="m 408.57143,512.14993 c -6.68519,0 -12.11315,5.42797 -12.11315,12.11315 0,0.0797 -0.002,0.15901 0,0.238 0.12673,-6.57544 5.50734,-11.87499 12.11315,-11.87499 6.60581,0 11.98642,5.29955 12.11315,11.87499 0.002,-0.0793 0,-0.15862 0,-0.238 C 420.68458,517.57789 415.25662,512.14993 408.57143,512.14993 Z"
         style="fill:#333333;fill-opacity:0.3476395;stroke:none"
         inkscape:connector-curvature="0" />
    </g>
  </g>
</svg>
