<?xml version="1.0" encoding="UTF-8" standalone="no"?>
<!-- Created with Inkscape (http://www.inkscape.org/) -->

<svg
   xmlns:dc="http://purl.org/dc/elements/1.1/"
   xmlns:cc="http://creativecommons.org/ns#"
   xmlns:rdf="http://www.w3.org/1999/02/22-rdf-syntax-ns#"
   xmlns:svg="http://www.w3.org/2000/svg"
   xmlns="http://www.w3.org/2000/svg"
   xmlns:xlink="http://www.w3.org/1999/xlink"
   xmlns:sodipodi="http://sodipodi.sourceforge.net/DTD/sodipodi-0.dtd"
   xmlns:inkscape="http://www.inkscape.org/namespaces/inkscape"
   width="48"
   height="48"
   id="svg5453"
   version="1.1"
   inkscape:version="0.48+devel r12338"
   sodipodi:docname="unity-tweak-tool.svg">
  <defs
     id="defs5455">
    <linearGradient
       inkscape:collect="always"
       id="linearGradient1539">
      <stop
         style="stop-color:#20282f;stop-opacity:1"
         offset="0"
         id="stop1541" />
      <stop
         style="stop-color:#3f4951;stop-opacity:1"
         offset="1"
         id="stop1543" />
    </linearGradient>
    <linearGradient
       id="linearGradient4215">
      <stop
         style="stop-color:#dcdcdc;stop-opacity:1;"
         offset="0"
         id="stop4217" />
      <stop
         style="stop-color:#f0f0f0;stop-opacity:1;"
         offset="1"
         id="stop4219" />
    </linearGradient>
    <linearGradient
       id="linearGradient4223">
      <stop
         style="stop-color:#505050;stop-opacity:1;"
         offset="0"
         id="stop4225" />
      <stop
         style="stop-color:#6f6f6f;stop-opacity:1;"
         offset="1"
         id="stop4227" />
    </linearGradient>
    <linearGradient
       y2="1012.5406"
       x2="23.73313"
       y1="1045.156"
       x1="23.73313"
       gradientUnits="userSpaceOnUse"
       id="linearGradient1138"
       xlink:href="#linearGradient4215"
       inkscape:collect="always"
       gradientTransform="matrix(-0.64467892,-0.64237109,-0.64237109,0.64467892,1084.5392,-123.8884)" />
    <linearGradient
       y2="1011.2148"
       x2="11.093596"
       y1="1044.8024"
       x1="11.093596"
       gradientUnits="userSpaceOnUse"
       id="linearGradient1140"
       xlink:href="#linearGradient4223"
       inkscape:collect="always"
       gradientTransform="matrix(-0.64467892,-0.64237109,-0.64237109,0.64467892,1084.5392,-123.8884)" />
    <linearGradient
       inkscape:collect="always"
       xlink:href="#linearGradient1539"
       id="linearGradient1545"
       x1="410.05835"
       y1="-547.63873"
       x2="410.05835"
       y2="-500.32861"
       gradientUnits="userSpaceOnUse"
       gradientTransform="matrix(0.87499999,0,0,0.87499999,51.07143,-65.474748)" />
    <linearGradient
       id="linearGradient1001">
      <stop
         id="stop1003"
         offset="0"
         style="stop-color:#e4ff7e;stop-opacity:1" />
      <stop
         id="stop1005"
         offset="1"
         style="stop-color:#69a043;stop-opacity:1" />
    </linearGradient>
    <linearGradient
       id="linearGradient995">
      <stop
         id="stop997"
         offset="0"
         style="stop-color:#ffe35c;stop-opacity:1" />
      <stop
         id="stop999"
         offset="1"
         style="stop-color:#fdac43;stop-opacity:1" />
    </linearGradient>
    <linearGradient
       id="linearGradient1239">
      <stop
         style="stop-color:#ff5c5c;stop-opacity:1"
         offset="0"
         id="stop1241" />
      <stop
         style="stop-color:#ac0000;stop-opacity:1"
         offset="1"
         id="stop1243" />
    </linearGradient>
    <radialGradient
       gradientUnits="userSpaceOnUse"
       r="1.2153398"
       fy="2.2456543"
       fx="2.5853591"
       cy="2.2456543"
       cx="2.5853591"
       id="radialGradient985"
       xlink:href="#linearGradient1239"
       inkscape:collect="always" />
    <radialGradient
       r="1.2153398"
       fy="2.2456543"
       fx="2.5853591"
       cy="2.2456543"
       cx="2.5853591"
       gradientUnits="userSpaceOnUse"
       id="radialGradient989"
       xlink:href="#linearGradient995"
       inkscape:collect="always" />
    <radialGradient
       r="1.2153398"
       fy="2.2456543"
       fx="2.5853591"
       cy="2.2456543"
       cx="2.5853591"
       gradientUnits="userSpaceOnUse"
       id="radialGradient993"
       xlink:href="#linearGradient1001"
       inkscape:collect="always" />
    <linearGradient
       inkscape:collect="always"
       xlink:href="#linearGradient4223"
       id="linearGradient1720"
       gradientUnits="userSpaceOnUse"
       gradientTransform="matrix(-0.64467892,-0.64237109,-0.64237109,0.64467892,1084.5392,-123.8884)"
       x1="11.093596"
       y1="1044.8024"
       x2="11.093596"
       y2="1011.2148" />
    <linearGradient
       x1="45.447727"
       y1="92.539597"
       x2="45.447727"
       y2="7.0165396"
       id="ButtonShadow"
       gradientUnits="userSpaceOnUse"
       gradientTransform="scale(1.0058652,0.994169)">
      <stop
         id="stop3750"
         style="stop-color:#000000;stop-opacity:1"
         offset="0" />
      <stop
         id="stop3752-8"
         style="stop-color:#000000;stop-opacity:0.58823532"
         offset="1" />
    </linearGradient>
    <filter
       color-interpolation-filters="sRGB"
       id="filter3174">
      <feGaussianBlur
         id="feGaussianBlur3176"
         stdDeviation="1.71" />
    </filter>
    <linearGradient
       id="linearGradient3737-6">
      <stop
         id="stop3739-73"
         style="stop-color:#ffffff;stop-opacity:1"
         offset="0" />
      <stop
         id="stop3741-6"
         style="stop-color:#ffffff;stop-opacity:0"
         offset="1" />
    </linearGradient>
    <clipPath
       id="clipPath3613">
      <rect
         width="84"
         height="84"
         rx="6"
         ry="6"
         x="6"
         y="6"
         id="rect3615"
         style="fill:#ffffff;fill-opacity:1;fill-rule:nonzero;stroke:none" />
    </clipPath>
    <filter
       x="-0.192"
       y="-0.192"
       width="1.3839999"
       height="1.3839999"
       color-interpolation-filters="sRGB"
       id="filter3794">
      <feGaussianBlur
         id="feGaussianBlur3796"
         stdDeviation="5.28" />
    </filter>
    <linearGradient
       x1="48"
       y1="20.220806"
       x2="48"
       y2="138.66119"
       id="linearGradient2885"
       xlink:href="#linearGradient3737-6"
       gradientUnits="userSpaceOnUse" />
    <linearGradient
       inkscape:collect="always"
       id="linearGradient1475">
      <stop
         style="stop-color:#000000;stop-opacity:1;"
         offset="0"
         id="stop1477" />
      <stop
         style="stop-color:#000000;stop-opacity:0;"
         offset="1"
         id="stop1479" />
    </linearGradient>
    <linearGradient
       inkscape:collect="always"
       id="linearGradient1422">
      <stop
         style="stop-color:#787878;stop-opacity:1"
         offset="0"
         id="stop1424" />
      <stop
         style="stop-color:#ffffff;stop-opacity:1"
         offset="1"
         id="stop1426" />
    </linearGradient>
    <linearGradient
       gradientTransform="translate(384.57142,504.56417)"
       inkscape:collect="always"
       xlink:href="#linearGradient1422"
       id="linearGradient1428"
       x1="16.749998"
       y1="-1052.4872"
       x2="16.749998"
       y2="-1004.3622"
       gradientUnits="userSpaceOnUse" />
    <linearGradient
       gradientTransform="matrix(0.99964346,0,0,0.98495158,384.5725,499.8519)"
       inkscape:collect="always"
       xlink:href="#linearGradient1475"
       id="linearGradient1464"
       x1="21.374998"
       y1="45.8125"
       x2="21.374998"
       y2="43.375"
       gradientUnits="userSpaceOnUse" />
    <linearGradient
       inkscape:collect="always"
       xlink:href="#linearGradient1475"
       id="linearGradient1468"
       gradientUnits="userSpaceOnUse"
       x1="21.374998"
       y1="45.8125"
       x2="21.374998"
       y2="43.375"
       gradientTransform="matrix(0.99964346,0,0,-0.98495158,384.5725,547.12958)" />
    <linearGradient
       y2="15.826643"
       x2="3.844893"
       y1="15.826643"
       x1="1.7677668"
       gradientTransform="matrix(0.99964346,0,0,-0.98495158,384.5725,547.12958)"
       gradientUnits="userSpaceOnUse"
       id="linearGradient963"
       xlink:href="#linearGradient1475"
       inkscape:collect="always" />
    <linearGradient
       y2="15.826643"
       x2="3.844893"
       y1="15.826643"
       x1="1.7677668"
       gradientTransform="matrix(-0.99964346,0,0,-0.98495158,432.55539,547.12958)"
       gradientUnits="userSpaceOnUse"
       id="linearGradient965"
       xlink:href="#linearGradient1475"
       inkscape:collect="always" />
  </defs>
  <sodipodi:namedview
     id="base"
     pagecolor="#ffffff"
     bordercolor="#666666"
     borderopacity="1.0"
     inkscape:pageopacity="0"
     inkscape:pageshadow="2"
     inkscape:zoom="2.8284271"
     inkscape:cx="17.241092"
     inkscape:cy="35.169621"
     inkscape:document-units="px"
     inkscape:current-layer="layer1"
     showgrid="false"
     fit-margin-top="0"
     fit-margin-left="0"
     fit-margin-right="0"
     fit-margin-bottom="0"
     inkscape:window-width="1366"
     inkscape:window-height="714"
     inkscape:window-x="0"
     inkscape:window-y="30"
     inkscape:window-maximized="1" />
  <metadata
     id="metadata5458">
    <rdf:RDF>
      <cc:Work
         rdf:about="">
        <dc:format>image/svg+xml</dc:format>
        <dc:type
           rdf:resource="http://purl.org/dc/dcmitype/StillImage" />
        <dc:title></dc:title>
      </cc:Work>
    </rdf:RDF>
  </metadata>
  <g
     inkscape:label="Capa 1"
     inkscape:groupmode="layer"
     id="layer1"
     transform="translate(-384.57143,-499.798)">
    <rect
       style="fill:url(#linearGradient1428);fill-opacity:1;stroke:none"
       id="rect2991-1"
       width="48"
       height="48"
       x="384.57144"
       y="-547.79797"
       ry="1.9445436"
       transform="scale(1,-1)" />
    <rect
       style="fill:url(#linearGradient1545);fill-opacity:1;stroke:none"
       id="rect2991-1-7"
       width="42"
       height="42"
       x="387.57144"
       y="-544.79797"
       ry="1.7014757"
       transform="scale(1,-1)" />
    <path
       inkscape:connector-curvature="0"
       style="fill:#000000;fill-opacity:1;stroke:none"
       d="m 384.57143,544.79799 0,1.0625 c 0,1.0773 0.86022,1.9375 1.9375,1.9375 l 44.125,0 c 1.07728,0 1.9375,-0.8602 1.9375,-1.9375 l 0,-1.0625 c 0,1.0773 -0.86022,1.9375 -1.9375,1.9375 l -44.125,0 C 385.43165,546.73549 384.57143,545.87529 384.57143,544.79799 Z"
       id="rect846" />
    <path
       inkscape:connector-curvature="0"
       style="fill:#ffffff;fill-opacity:0.5372549;stroke:none"
       d="m 387.10268,500.45429 c -0.91709,0 -1.67115,0.6395 -1.84375,1.5 0.33561,-0.2799 0.77451,-0.4375 1.25,-0.4375 l 44.125,0 c 0.47549,0 0.91439,0.1576 1.25,0.4375 -0.1726,-0.8605 -0.92666,-1.5 -1.84375,-1.5 L 387.10268,500.45429 Z"
       id="path7515" />
    <path
       inkscape:connector-curvature="0"
       style="fill:#000000;fill-opacity:0.39215686;stroke:none"
       d="m 386.50893,499.79799 c -1.07728,0 -1.9375,0.8602 -1.9375,1.9375 l 0,43.0625 c 0,0.7934 0.48002,1.449 1.15625,1.75 -0.30934,-0.3333 -0.5,-0.7824 -0.5,-1.2812 l 0,-42.9375 c 0,-1.0482 0.8269,-1.875 1.875,-1.875 l 42.9375,0 c 1.0481,0 1.875,0.8268 1.875,1.875 l 0,42.9375 c 0,0.4988 -0.19066,0.9479 -0.5,1.2812 0.67623,-0.301 1.15625,-0.9566 1.15625,-1.75 l 0,-43.0625 c 0,-1.0773 -0.86022,-1.9375 -1.9375,-1.9375 L 386.50893,499.79799 Z"
       id="rect4280" />
    <g
       id="g1060"
       transform="translate(416.96548,-501.31986)">
      <path
         transform="matrix(0.80825794,0,0,0.80825794,1.0679561,1004.8992)"
         d="m 3.8006989,2.723069 c 0,0.6712136 -0.5441262,1.2153397 -1.2153398,1.2153397 -0.6712136,0 -1.2153398,-0.5441261 -1.2153398,-1.2153397 0,-0.6712137 0.5441262,-1.2153398 1.2153398,-1.2153398 C 3.2565727,1.5077292 3.8006989,2.0518553 3.8006989,2.723069 Z"
         sodipodi:ry="1.2153398"
         sodipodi:rx="1.2153398"
         sodipodi:cy="2.723069"
         sodipodi:cx="2.5853591"
         id="path963"
         style="fill:#20282f;fill-opacity:1;stroke:none"
         sodipodi:type="arc" />
      <path
         sodipodi:type="arc"
         style="fill:#20282f;fill-opacity:1;stroke:none"
         id="path965"
         sodipodi:cx="2.5853591"
         sodipodi:cy="2.723069"
         sodipodi:rx="1.2153398"
         sodipodi:ry="1.2153398"
         d="m 3.8006989,2.723069 c 0,0.6712136 -0.5441262,1.2153397 -1.2153398,1.2153397 -0.6712136,0 -1.2153398,-0.5441261 -1.2153398,-1.2153397 0,-0.6712137 0.5441262,-1.2153398 1.2153398,-1.2153398 C 3.2565727,1.5077292 3.8006989,2.0518553 3.8006989,2.723069 Z"
         transform="matrix(0.80825794,0,0,0.80825794,4.3009878,1004.8992)" />
      <path
         transform="matrix(0.80825794,0,0,0.80825794,7.5340198,1004.8992)"
         d="m 3.8006989,2.723069 c 0,0.6712136 -0.5441262,1.2153397 -1.2153398,1.2153397 -0.6712136,0 -1.2153398,-0.5441261 -1.2153398,-1.2153397 0,-0.6712137 0.5441262,-1.2153398 1.2153398,-1.2153398 C 3.2565727,1.5077292 3.8006989,2.0518553 3.8006989,2.723069 Z"
         sodipodi:ry="1.2153398"
         sodipodi:rx="1.2153398"
         sodipodi:cy="2.723069"
         sodipodi:cx="2.5853591"
         id="path967"
         style="fill:#20282f;fill-opacity:1;stroke:none"
         sodipodi:type="arc" />
      <path
         sodipodi:type="arc"
         style="fill:url(#radialGradient985);fill-opacity:1;stroke:none"
         id="path977"
         sodipodi:cx="2.5853591"
         sodipodi:cy="2.723069"
         sodipodi:rx="1.2153398"
         sodipodi:ry="1.2153398"
         d="m 3.8006989,2.723069 c 0,0.6712136 -0.5441262,1.2153397 -1.2153398,1.2153397 -0.6712136,0 -1.2153398,-0.5441261 -1.2153398,-1.2153397 0,-0.6712137 0.5441262,-1.2153398 1.2153398,-1.2153398 C 3.2565727,1.5077292 3.8006989,2.0518553 3.8006989,2.723069 Z"
         transform="matrix(0.62183888,0,0,0.62183888,1.5499163,1005.4068)" />
      <path
         transform="matrix(0.62183888,0,0,0.62183888,4.782948,1005.4068)"
         d="m 3.8006989,2.723069 c 0,0.6712136 -0.5441262,1.2153397 -1.2153398,1.2153397 -0.6712136,0 -1.2153398,-0.5441261 -1.2153398,-1.2153397 0,-0.6712137 0.5441262,-1.2153398 1.2153398,-1.2153398 C 3.2565727,1.5077292 3.8006989,2.0518553 3.8006989,2.723069 Z"
         sodipodi:ry="1.2153398"
         sodipodi:rx="1.2153398"
         sodipodi:cy="2.723069"
         sodipodi:cx="2.5853591"
         id="path987"
         style="fill:url(#radialGradient989);fill-opacity:1;stroke:none"
         sodipodi:type="arc" />
      <path
         sodipodi:type="arc"
         style="fill:url(#radialGradient993);fill-opacity:1;stroke:none"
         id="path991"
         sodipodi:cx="2.5853591"
         sodipodi:cy="2.723069"
         sodipodi:rx="1.2153398"
         sodipodi:ry="1.2153398"
         d="m 3.8006989,2.723069 c 0,0.6712136 -0.5441262,1.2153397 -1.2153398,1.2153397 -0.6712136,0 -1.2153398,-0.5441261 -1.2153398,-1.2153397 0,-0.6712137 0.5441262,-1.2153398 1.2153398,-1.2153398 C 3.2565727,1.5077292 3.8006989,2.0518553 3.8006989,2.723069 Z"
         transform="matrix(0.62183888,0,0,0.62183888,8.01598,1005.4068)" />
    </g>
    <g
       id="g2362">
      <path
         inkscape:connector-curvature="0"
         id="path1593"
         d="m 415.85971,510.98963 0,0.0316 -0.0316,0.34857 c -0.0489,0.3916 -0.0795,1.04386 -0.095,1.71116 0.0202,-0.4421 0.062,-0.84415 0.095,-1.10908 l 0.095,-0.95065 L 415.85971,510.98963 z m -14.86176,0.095 c -0.0836,0.11603 -0.0559,0.25352 0,0.50701 0.0662,0.30127 0.13205,0.71353 0.15844,1.17245 -0.006,-0.3255 -0.0393,-0.63595 -0.0634,-0.91895 C 401.069,511.56222 401.03967,511.30119 400.99795,511.08469 z m 6.90802,6.81295 c -1.29045,0.10746 -2.47263,0.70362 -3.51738,1.74286 -0.76912,0.76504 -1.29036,1.63813 -1.55273,2.56673 -0.003,0.009 0.003,0.0224 0,0.0316 -0.0536,0.21477 -0.0983,0.41669 -0.12675,0.63376 -0.0156,0.0964 -0.0211,0.18849 -0.0316,0.28519 -0.006,0.0729 -0.0283,0.14896 -0.0316,0.22181 -0.007,0.0973 0.002,0.18788 0,0.28521 3.4e-4,0.10348 -0.006,0.21385 0,0.31687 0.073,-1.36413 0.63215,-2.76111 1.74286,-3.86595 1.67161,-1.66278 3.75938,-2.14126 5.95737,-1.39427 0.99382,0.33798 1.34515,0.57105 2.21817,1.45764 1.25111,1.27131 1.60189,2.11067 1.67948,3.83427 0.005,-0.16205 0.006,-0.33801 0,-0.50702 -0.003,-0.0591 0.003,-0.10141 0,-0.15844 -0.0168,-0.37177 -0.0786,-0.68141 -0.12675,-0.98233 -0.19274,-1.01514 -0.6144,-1.70833 -1.55273,-2.6618 -0.87302,-0.88659 -1.25604,-1.11969 -2.24985,-1.45767 C 409.49003,517.9661 408.68025,517.83317 407.90597,517.89764 z m -13.84772,1.67948 c -0.1429,0.65928 0.2681,0.937 1.5844,2.12311 1.17135,1.0556 1.71767,1.65296 1.8696,2.18649 0.0224,-0.0846 0.0581,-0.17179 0.0634,-0.25351 -5.9e-4,-0.0106 9.1e-4,-0.0212 0,-0.0316 4e-4,-0.0102 -1.2e-4,-0.0217 0,-0.0316 -10e-4,-0.0102 9.9e-4,-0.0218 0,-0.0316 -0.083,-0.57445 -0.65349,-1.16021 -1.93298,-2.31324 C 394.68756,520.36428 394.19725,519.97334 394.05825,519.57712 z m 28.80454,0.2852 c -0.0126,0.0152 -0.0142,0.0556 -0.0316,0.0634 -0.1471,0.0657 -0.85821,0.63782 -1.61609,1.29922 -1.07777,0.9406 -1.44461,1.38661 -1.67947,1.96466 -0.11457,0.28196 -0.18352,0.49813 -0.15844,0.72884 0.005,0.0222 0.0249,0.0409 0.0316,0.0634 0.0267,-0.0952 0.0511,-0.20865 0.095,-0.31688 0.23486,-0.57807 0.63339,-0.99238 1.71116,-1.93298 0.75788,-0.66141 1.50069,-1.23346 1.64778,-1.29922 C 422.9664,520.38641 422.93811,520.1812 422.86279,519.86232 z m -28.80454,8.33398 c -0.0923,0.19828 -0.0205,0.50399 0.28519,1.29922 0.86226,2.24298 0.82886,2.22105 2.56674,2.02804 1.82744,-0.20298 3.33263,0.007 3.83427,0.50701 0.20147,0.20077 0.43423,0.74517 0.50701,1.20416 0.027,0.17149 0.0275,0.4634 0.0316,0.76051 0.007,-0.27976 0.0106,-0.55135 0,-0.7922 -0.008,-0.19029 -0.0155,-0.34269 -0.0316,-0.47533 -0.0364,-0.22948 -0.0998,-0.47969 -0.19013,-0.69714 -0.0903,-0.21743 -0.21614,-0.40661 -0.31688,-0.50701 -0.50164,-0.49983 -2.00684,-0.67829 -3.83427,-0.47532 -1.73788,0.19301 -1.70448,0.21494 -2.56674,-2.02804 C 394.20188,528.65196 394.11232,528.39812 394.05825,528.19631 z m 28.8996,0.0316 -0.44363,1.10909 c -0.32623,0.79665 -0.68365,1.53884 -0.7922,1.64778 -0.10876,0.10924 -0.89054,0.12681 -1.74285,0.0316 -1.87832,-0.2095 -3.29467,-0.003 -3.83427,0.5387 -0.2056,0.20636 -0.34355,0.64495 -0.41195,1.23584 -8.3e-4,0.0102 7.9e-4,0.0217 0,0.0316 -0.0168,0.21073 -0.0293,0.42532 -0.0316,0.66545 0.0573,-0.70212 0.2134,-1.22658 0.44363,-1.45765 0.53959,-0.54158 1.95595,-0.74819 3.83427,-0.5387 0.85231,0.0951 1.6341,0.0775 1.74285,-0.0316 0.10857,-0.10896 0.46597,-0.85115 0.7922,-1.64779 l 0.60202,-1.42581 L 422.95785,528.228 z m -14.51318,6.40102 c -0.73784,0.005 -1.45596,0.71371 -2.6618,2.09141 l -1.36259,1.52103 -0.88728,-0.28519 c -1.23237,-0.39712 -2.1476,-0.8204 -2.43998,-1.10909 -0.0282,0.1093 -0.0693,0.22757 -0.095,0.25351 -0.2281,0.22892 0.9236,0.83302 2.56675,1.36259 l 0.88727,0.2852 1.3309,-1.52104 c 2.41168,-2.75542 2.93453,-2.78379 5.38699,-0.0634 l 1.48934,1.67948 1.48935,-0.60208 c 0.80565,-0.33333 1.54289,-0.68698 1.64778,-0.7922 0.0601,-0.0603 0.0716,-0.34502 0.0634,-0.66545 -0.0144,0.0843 -0.0372,0.13213 -0.0634,0.15844 -0.10486,0.10522 -0.84214,0.45888 -1.64778,0.7922 l -1.48935,0.63376 -1.48934,-1.67947 C 409.94363,535.32853 409.18252,534.62361 408.44467,534.629 Z"
         style="fill:#ffffff;fill-opacity:0.23629144;stroke:none" />
      <path
         sodipodi:nodetypes="ssssssssscsssscccsccccssccsssssccssscsscssccsssscsss"
         inkscape:connector-curvature="0"
         id="path866"
         d="m 401.01418,536.6114 c 0.19804,-0.19875 0.37291,-3.03184 0.23917,-3.87546 -0.0727,-0.45897 -0.29707,-0.99887 -0.49854,-1.19963 -0.50163,-0.49983 -2.00501,-0.69135 -3.83244,-0.48837 -1.73787,0.193 -1.7122,0.21346 -2.57446,-2.02953 -0.43257,-1.12529 -0.44602,-1.31844 -0.10557,-1.52715 1.01815,-0.62419 2.56625,-2.06984 2.9686,-2.77215 0.69622,-1.21528 0.5097,-1.63135 -1.57273,-3.50797 -2.01072,-1.81184 -1.92979,-1.4984 -0.94934,-3.67502 l 0.55125,-1.22367 1.88832,0.17631 c 2.25724,0.21076 3.336,0.013 3.78631,-0.69395 0.30171,-0.47367 0.36755,-3.48261 0.10249,-4.68765 -0.1116,-0.50698 -0.0847,-0.54408 0.64233,-0.89116 0.41732,-0.19918 1.1764,-0.51299 1.68664,-0.69708 l 0.92786,-0.33489 1.82032,1.81379 c 2.40766,2.39905 2.23585,2.40131 4.66694,-0.0308 l 1.84388,-1.84471 1.65893,0.69985 1.659,0.69976 -0.11979,0.96306 c -0.0661,0.52988 -0.11597,1.62737 -0.11137,2.43943 0.008,1.23133 0.0925,1.55957 0.51364,1.97924 0.42115,0.41965 0.77074,0.50898 2.10765,0.53889 0.88136,0.0199 1.96578,-0.0352 2.40958,-0.12206 0.93777,-0.1837 1.01416,-0.0984 1.84587,2.06411 0.37295,0.96979 0.45934,1.45002 0.27579,1.53206 -0.1471,0.0657 -0.88734,0.66059 -1.64522,1.322 -1.07777,0.9406 -1.44337,1.36361 -1.67824,1.94165 -0.3825,0.94139 -0.18794,1.26374 1.92735,3.19352 l 1.66482,1.51883 -0.59327,1.44852 c -0.32624,0.79665 -0.6821,1.5377 -0.79066,1.64665 -0.10876,0.10923 -0.89501,0.12056 -1.74732,0.0254 -1.87832,-0.20951 -3.30143,-0.0139 -3.84102,0.52764 -0.46045,0.4621 -0.59188,2.07325 -0.32692,4.0058 0.0912,0.6661 0.0802,1.2971 -0.0247,1.40237 -0.10486,0.10523 -0.84974,0.46401 -1.65538,0.79733 l -1.46486,0.60614 -1.50968,-1.67423 c -2.45246,-2.72042 -2.97175,-2.71637 -5.38343,0.039 l -1.34448,1.53612 -0.89445,-0.28883 C 401.89394,537.43511 400.78608,536.84035 401.01418,536.6114 z m 5.6031,-7.35862 c 2.29975,0.76367 4.25627,0.27489 6.02465,-1.50513 1.17207,-1.17963 1.67849,-2.52301 1.60074,-4.24624 -0.0775,-1.72359 -0.438,-2.53571 -1.6891,-3.80702 -0.87303,-0.88658 -1.23667,-1.12561 -2.23048,-1.46358 -2.19801,-0.74698 -4.2696,-0.25657 -5.94122,1.40621 C 401.27423,522.72825 402.47078,527.87563 406.61728,529.25278 Z"
         style="fill:url(#linearGradient1138);fill-opacity:1;stroke:url(#linearGradient1140);stroke-width:0.27302501;stroke-miterlimit:4;stroke-dasharray:none" />
      <path
         inkscape:connector-curvature="0"
         id="path4004"
         d="m 412.32393,509.42999 -1.54999,1.55 c -2.43111,2.43213 -2.27928,2.39905 -4.68693,0 l -1.47619,-1.4762 c -0.25963,0.0732 -0.52014,0.17126 -0.77502,0.25834 l 3.24764,8.30361 c 1.02444,-0.25964 2.11964,-0.23572 3.24763,0.14761 0.99382,0.33798 1.34127,0.58961 2.2143,1.47619 0.0415,0.0422 0.0711,0.0695 0.11071,0.11073 l 3.80121,-3.7274 c -0.0814,-0.0575 -0.17896,-0.10545 -0.25834,-0.18453 -0.42115,-0.41968 -0.50958,-0.72465 -0.51667,-1.95596 -0.005,-0.81206 0.0445,-1.90584 0.11073,-2.43572 l 0.0739,-0.55356 c -0.70223,-0.40348 -1.43086,-0.78004 -2.21428,-1.07025 C 413.20337,509.70647 412.77787,509.55 412.32393,509.42999 z m -16.49649,6.93812 c -0.39185,0.688 -0.74982,1.41116 -1.03333,2.17738 -0.17463,0.47142 -0.3194,0.96293 -0.44287,1.43929 0.2552,0.29392 0.65553,0.64463 1.29168,1.21786 2.08243,1.87658 2.24623,2.29072 1.55,3.50597 -0.38439,0.67101 -1.79003,1.99379 -2.80477,2.65715 0.0651,0.24678 0.10695,0.49532 0.18453,0.73811 l 8.2667,-2.76787 c -0.4977,-1.77534 -0.14325,-3.77829 1.21787,-5.35122 l -5.16669,-3.46907 c -0.49616,0.0186 -1.05606,0.03 -1.77144,-0.0369 L 395.82744,516.36811 z m 26.16558,1.25476 -8.41432,3.39525 c 0.41195,0.69564 0.61612,1.40223 0.66429,2.47263 0.0509,1.12787 -0.15493,2.08939 -0.62737,2.95239 l 6.64288,4.57623 c 0.36264,0.0311 0.69943,0.0821 0.95952,0.0738 0.43281,-0.73478 0.80056,-1.49734 1.10715,-2.32502 0.14716,-0.39733 0.29475,-0.81662 0.40596,-1.21785 l -1.29168,-1.18094 c -2.11528,-1.92978 -2.30154,-2.23244 -1.91905,-3.17383 0.23485,-0.57807 0.58296,-1.01538 1.66071,-1.95597 0.7162,-0.62502 1.3879,-1.17583 1.58692,-1.29167 C 422.56164,519.15665 422.32683,518.36665 421.99302,517.62288 z m -9.48456,10.25955 c -1.72965,1.66123 -3.66871,2.10803 -5.90479,1.3655 -0.18319,-0.0609 -0.34509,-0.14639 -0.51666,-0.22144 -1.34646,2.83745 -2.25135,4.73603 -3.76429,7.93457 0.35221,0.16579 0.82138,0.37318 2.3988,0.95951 l 1.07025,-1.21785 c 2.41168,-2.75546 2.89875,-2.75733 5.35122,-0.0369 l 1.10715,1.25477 c 1.2409,-0.35645 2.45741,-0.87504 3.61666,-1.55003 3.7e-4,-0.24332 0.005,-0.50654 -0.0368,-0.81188 -0.19336,-1.41024 -0.16571,-2.64893 0.0368,-3.39525 L 412.50846,527.88242 Z"
         style="fill:#000000;fill-opacity:0.04255317;stroke:none" />
      <path
         inkscape:connector-curvature="0"
         id="path4004-0"
         d="m 412.25014,509.50379 -1.4762,1.4762 c -2.43111,2.43213 -2.27928,2.39905 -4.68693,0 l -0.59048,-0.59048 2.10359,7.5655 c 0.87358,-0.12897 1.78947,-0.0616 2.73095,0.25834 0.92755,0.31544 1.31051,0.57858 2.06668,1.32857 l 3.43216,-4.20716 c -0.10404,-0.29966 -0.14357,-0.6965 -0.14763,-1.40239 -0.005,-0.81206 0.0445,-1.90584 0.11073,-2.43572 l 0.0739,-0.47977 c -0.69435,-0.40127 -1.43814,-0.7828 -2.21428,-1.07024 C 413.18014,509.77167 412.72752,509.62697 412.25014,509.50379 z m -16.38579,6.86432 c -0.418,0.7175 -0.77183,1.44343 -1.07024,2.25118 -0.16964,0.45797 -0.32181,0.93976 -0.44287,1.4024 0.25715,0.28998 0.67113,0.62177 1.29168,1.18095 2.08243,1.87658 2.24623,2.29072 1.55,3.50597 -0.37147,0.64842 -1.68805,1.89915 -2.69405,2.58335 l 8.26669,-2.21429 c -0.35994,-1.54834 -0.0572,-3.23019 0.95955,-4.65003 L 396.56554,516.44192 395.86435,516.36811 z m 26.68225,2.87858 -8.67267,2.2881 c 0.22443,0.54959 0.3326,1.14608 0.36906,1.95596 0.0444,0.98231 -0.0925,1.84478 -0.44286,2.62025 l 7.67622,4.61311 c 0.32492,-0.60143 0.60463,-1.22294 0.84882,-1.88215 0.15667,-0.423 0.29019,-0.86448 0.40596,-1.29167 l -1.29168,-1.18095 c -2.11528,-1.92977 -2.30154,-2.23243 -1.91905,-3.17382 0.23485,-0.57807 0.58296,-1.01538 1.66071,-1.95597 0.70484,-0.6151 1.37551,-1.12681 1.58692,-1.25476 C 422.70405,519.74382 422.62261,519.48381 422.5466,519.24669 z m -10.62862,9.11551 c -1.58397,1.25872 -3.31253,1.55044 -5.31431,0.88572 -0.0535,-0.0179 -0.095,-0.0548 -0.14762,-0.0738 -1.17679,2.91292 -1.97517,4.89234 -3.32143,8.22979 0.10939,0.0369 0.2222,0.0689 0.33214,0.11072 0.41578,0.154 0.83483,0.25478 1.25476,0.36906 l 1.07025,-1.18097 c 2.41168,-2.75545 2.89875,-2.75732 5.35122,-0.0369 l 1.14404,1.25477 c 1.25264,-0.331 2.45806,-0.8342 3.57977,-1.4762 0.005,-0.25416 0.008,-0.55265 -0.0368,-0.88572 -0.0419,-0.30575 -0.0884,-0.59932 -0.11071,-0.88572 L 411.91798,528.3622 Z"
         style="fill:#000000;fill-opacity:0.04787233;stroke:none" />
      <path
         inkscape:connector-curvature="0"
         id="path3893-7"
         d="m 412.25014,509.50379 -1.4762,1.4762 c -1.94497,1.94578 -2.3131,2.25839 -3.57979,1.10714 l 0.95954,5.83099 c 0.70596,-0.0289 1.43162,0.0418 2.17738,0.29524 0.69332,0.23578 1.08317,0.45588 1.55001,0.84881 l 3.8012,-5.27739 c 9.2e-4,-0.79445 0.0483,-1.78764 0.11073,-2.28812 l 0.0739,-0.51667 c -0.69373,-0.39743 -1.40398,-0.74692 -2.17738,-1.03335 C 413.21258,509.76998 412.73218,509.62747 412.25014,509.50379 z m -16.79175,7.60242 c -0.24812,0.49123 -0.46856,0.98442 -0.66428,1.51309 -0.17076,0.46098 -0.32055,0.93619 -0.44287,1.4024 0.25715,0.28998 0.67113,0.62177 1.29168,1.18095 2.08243,1.87658 2.24623,2.29072 1.55,3.50597 -0.17905,0.31254 -0.58507,0.78573 -1.07024,1.25478 l 6.53218,-1.5131 c -0.15133,-1.276 0.17235,-2.5929 0.92262,-3.7643 L 395.45839,517.10621 z m 25.87034,3.98573 -7.19645,1.21785 c 0.0687,0.34802 0.0905,0.73442 0.11071,1.18096 0.0374,0.82946 -0.0528,1.57367 -0.29523,2.25118 l 8.00836,4.02265 c 0.13736,-0.30528 0.28798,-0.60392 0.40595,-0.92263 0.1592,-0.4298 0.28898,-0.85726 0.40596,-1.29166 l -1.32858,-1.18096 c -2.11528,-1.92976 -2.30154,-2.23243 -1.91905,-3.17382 0.23485,-0.57807 0.58296,-1.01538 1.66071,-1.95596 C 421.23781,521.19007 421.27248,521.14047 421.32873,521.09194 z m -10.11195,7.78693 c -1.35374,0.79644 -2.85266,0.92652 -4.50238,0.40594 l -2.84168,8.37742 c 0.28853,0.0972 0.59537,0.14279 0.88572,0.22142 l 1.03333,-1.18095 c 2.41168,-2.75546 2.89875,-2.75732 5.35122,-0.0369 l 1.14404,1.29166 c 0.82743,-0.21437 1.62352,-0.4942 2.39882,-0.84881 L 411.21678,528.87887 Z"
         style="fill:#000000;fill-opacity:0.05851063;stroke:none" />
      <path
         inkscape:connector-curvature="0"
         id="path3893-7-5"
         d="m 412.25014,509.50379 -1.4762,1.4762 c -1.16193,1.16242 -1.74955,1.71709 -2.28811,1.77145 l 0.25832,5.16668 c 0.51804,0.0356 1.04981,0.11269 1.58692,0.29524 0.47588,0.16183 0.79514,0.31825 1.10714,0.51666 l 4.3917,-7.78692 c -0.679,-0.3841 -1.38554,-0.7169 -2.14049,-0.99646 C 413.21231,509.76988 412.73246,509.62715 412.25014,509.50379 z m -17.2346,8.56196 c -0.0777,0.18692 -0.15057,0.36194 -0.22143,0.55356 -0.17254,0.46578 -0.31992,0.93142 -0.44287,1.4024 0.25715,0.28998 0.67113,0.62177 1.29168,1.18095 2.08243,1.87658 2.24623,2.29071 1.55,3.50597 -0.0389,0.0681 -0.12557,0.17778 -0.18452,0.25832 l 5.64646,-0.92261 c -0.0483,-1.02563 0.17601,-2.06845 0.70119,-3.02621 L 395.01554,518.06574 z m 24.94771,4.39167 -5.79407,0.36904 c 0.0251,0.21625 0.0625,0.41375 0.0738,0.6643 0.0292,0.64622 -0.008,1.25756 -0.14761,1.80834 l 8.34049,3.32144 c 0.12509,-0.35518 0.1989,-0.7119 0.29526,-1.07024 l -1.29168,-1.18094 c -2.11528,-1.92978 -2.30154,-2.23244 -1.91905,-3.17383 C 419.62228,522.94475 419.7647,522.70472 419.96325,522.45741 z m -9.66907,6.86432 c -1.00642,0.36197 -2.08562,0.34629 -3.24764,0.0369 l -2.32502,8.56192 1.07025,-1.21785 c 2.41168,-2.75545 2.89875,-2.75733 5.35122,-0.0369 l 1.14404,1.29167 c 0.0259,-0.007 0.0479,-0.03 0.0739,-0.0369 L 410.29418,529.32173 Z"
         style="fill:#000000;fill-opacity:0.06382979;stroke:none" />
      <path
         inkscape:connector-curvature="0"
         id="path3893"
         d="m 412.25014,509.50379 -1.4762,1.4762 c -0.34385,0.34399 -0.55755,0.52831 -0.81192,0.77501 l -0.55357,6.23693 c 0.30604,0.0563 0.61071,0.11541 0.92262,0.22144 0.28286,0.0961 0.49416,0.19786 0.70119,0.29524 l 3.65359,-8.156 c -0.33329,-0.1474 -0.64899,-0.31255 -0.99643,-0.44285 C 413.21368,509.73349 412.73143,509.62736 412.25014,509.50379 z m -17.67746,9.7429 c -0.0833,0.26105 -0.1533,0.51272 -0.22144,0.77501 0.25715,0.28998 0.67113,0.62176 1.29168,1.18095 1.59325,1.43575 2.05474,2.02994 1.88215,2.76786 l 5.09288,-0.44285 c 0.031,-0.70056 0.18332,-1.39857 0.47977,-2.06667 L 394.57268,519.24669 z m 19.67031,4.09646 c 0.003,0.0532 -0.003,0.0926 0,0.14761 0.0206,0.45682 0.0261,0.88421 -0.0369,1.29168 l 8.1929,2.4726 -0.95953,-0.8857 c -1.82185,-1.66208 -2.19904,-2.14191 -2.02977,-2.84169 L 414.24299,523.34315 z m -6.7536,6.12618 -1.43928,6.93813 c 1.64497,-1.83926 2.41126,-2.23617 3.69049,-1.18094 l -0.44287,-5.68336 C 408.72159,529.62111 408.11343,529.59229 407.48939,529.46933 Z"
         style="fill:#000000;fill-opacity:0.10106381;stroke:none" />
      <path
         inkscape:connector-curvature="0"
         id="path3893-9"
         d="m 412.36084,509.39309 -0.88571,0.88571 -1.55,7.82383 c 0.13631,0.037 0.26857,0.0641 0.40594,0.11073 0.10291,0.0349 0.16768,0.077 0.25833,0.11071 l 2.9893,-8.56193 C 413.16671,509.61254 412.77811,509.50397 412.36084,509.39309 z m -17.3453,11.25599 c 0.19878,0.17911 0.35458,0.30776 0.62738,0.55358 0.91107,0.82102 1.4275,1.35721 1.69763,1.80835 l 5.35121,-0.0738 c 0.052,-0.34536 0.14133,-0.69649 0.25834,-1.03332 L 395.01554,520.64907 z m 19.22745,2.98931 c 0.007,0.24491 -0.0184,0.4711 -0.0369,0.70118 l 6.7536,1.58692 c -0.83512,-0.77915 -1.30279,-1.30842 -1.47618,-1.69762 L 414.24299,523.63837 z m -6.38455,5.86788 -0.84881,5.90478 c 0.72353,-0.66379 1.27543,-0.87695 1.88215,-0.66428 l -0.0369,-5.1667 C 408.53441,529.59464 408.19321,529.55142 407.85844,529.50626 Z"
         style="fill:#000000;fill-opacity:0.0851064;stroke:none" />
      <path
         id="path851"
         d="m 408.56378,515.19774 c -4.70825,0 -8.52503,3.81677 -8.52503,8.52503 0,4.70824 3.81678,8.52502 8.52503,8.52502 4.70825,0 8.52504,-3.81678 8.52504,-8.52502 C 417.08882,519.0145 413.27203,515.19774 408.56378,515.19774 z m 0,2.3619 c 3.4038,0 6.16312,2.75933 6.16312,6.16313 0,3.40378 -2.75932,6.16311 -6.16312,6.16311 -3.4038,0 -6.16311,-2.75933 -6.16311,-6.16311 C 402.40067,520.31896 405.15998,517.55964 408.56378,517.55964 Z"
         style="fill:#1a1a1a;fill-opacity:0.39215686;stroke:none"
         inkscape:connector-curvature="0" />
      <path
         id="path862"
         d="m 408.56378,515.19774 c -4.70825,0 -8.52503,3.81677 -8.52503,8.52503 0,0.12239 -0.005,0.24788 0,0.36903 0.19136,-4.53877 3.93919,-8.15597 8.52503,-8.15597 4.58585,0 8.33368,3.6172 8.52504,8.15597 0.005,-0.12115 0,-0.24666 0,-0.36903 C 417.08882,519.0145 413.27203,515.19774 408.56378,515.19774 z m -6.1262,8.89406 c -0.008,0.12357 -0.0368,0.24361 -0.0368,0.36906 0,3.40373 2.75931,6.16313 6.16313,6.16313 3.40379,0 6.16311,-2.7594 6.16311,-6.16313 0,-0.12545 -0.0296,-0.24549 -0.0368,-0.36906 -0.19311,3.22984 -2.84786,5.79407 -6.1262,5.79407 C 405.28543,529.88588 402.63069,527.32164 402.43758,524.0918 Z"
         style="fill:#1a1a1a;fill-opacity:0.66666667;stroke:none"
         inkscape:connector-curvature="0" />
      <path
         inkscape:connector-curvature="0"
         id="path868"
         d="m 407.9364,517.53655 c -3.1078,0.31555 -5.53573,2.97209 -5.53573,6.16306 0,0.0873 -0.004,0.17196 0,0.2584 0.11761,-3.30032 2.83415,-5.94176 6.16311,-5.94176 3.32898,0 6.04548,2.64144 6.16312,5.94176 0.004,-0.0863 0,-0.17101 0,-0.2584 0,-3.40375 -2.75932,-6.16306 -6.16312,-6.16306 C 408.35104,517.53655 408.14359,517.51553 407.9364,517.53655 z m -7.89765,6.38448 c -0.003,0.085 0,0.17265 0,0.25841 0,4.70823 3.81678,8.52496 8.52503,8.52496 4.70825,0 8.52504,-3.81673 8.52504,-8.52496 0,-0.0862 0.003,-0.17326 0,-0.25841 -0.12144,4.60242 -3.89341,8.30367 -8.52504,8.30367 C 403.93215,532.22469 400.16019,528.52345 400.03875,523.92102 Z"
         style="fill:#ffffff;fill-opacity:0.39215686;stroke:none" />
      <path
         style="fill:none;stroke:url(#linearGradient1720);stroke-width:0.27302501;stroke-miterlimit:4;stroke-dasharray:none"
         d="m 401.01418,536.6114 c 0.19804,-0.19875 0.37291,-3.03184 0.23917,-3.87546 -0.0727,-0.45897 -0.29707,-0.99887 -0.49854,-1.19963 -0.50163,-0.49983 -2.00501,-0.69135 -3.83244,-0.48837 -1.73787,0.193 -1.7122,0.21346 -2.57446,-2.02953 -0.43257,-1.12529 -0.44602,-1.31844 -0.10557,-1.52715 1.01815,-0.62419 2.56625,-2.06984 2.9686,-2.77215 0.69622,-1.21528 0.5097,-1.63135 -1.57273,-3.50797 -2.01072,-1.81184 -1.92979,-1.4984 -0.94934,-3.67502 l 0.55125,-1.22367 1.88832,0.17631 c 2.25724,0.21076 3.336,0.013 3.78631,-0.69395 0.30171,-0.47367 0.36755,-3.48261 0.10249,-4.68765 -0.1116,-0.50698 -0.0847,-0.54408 0.64233,-0.89116 0.41732,-0.19918 1.1764,-0.51299 1.68664,-0.69708 l 0.92786,-0.33489 1.82032,1.81379 c 2.40766,2.39905 2.23585,2.40131 4.66694,-0.0308 l 1.84388,-1.84471 1.65893,0.69985 1.659,0.69976 -0.11979,0.96306 c -0.0661,0.52988 -0.11597,1.62737 -0.11137,2.43943 0.008,1.23133 0.0925,1.55957 0.51364,1.97924 0.42115,0.41965 0.77074,0.50898 2.10765,0.53889 0.88136,0.0199 1.96578,-0.0352 2.40958,-0.12206 0.93777,-0.1837 1.01416,-0.0984 1.84587,2.06411 0.37295,0.96979 0.45934,1.45002 0.27579,1.53206 -0.1471,0.0657 -0.88734,0.66059 -1.64522,1.322 -1.07777,0.9406 -1.44337,1.36361 -1.67824,1.94165 -0.3825,0.94139 -0.18794,1.26374 1.92735,3.19352 l 1.66482,1.51883 -0.59327,1.44852 c -0.32624,0.79665 -0.6821,1.5377 -0.79066,1.64665 -0.10876,0.10923 -0.89501,0.12056 -1.74732,0.0254 -1.87832,-0.20951 -3.30143,-0.0139 -3.84102,0.52764 -0.46045,0.4621 -0.59188,2.07325 -0.32692,4.0058 0.0912,0.6661 0.0802,1.2971 -0.0247,1.40237 -0.10486,0.10523 -0.84974,0.46401 -1.65538,0.79733 l -1.46486,0.60614 -1.50968,-1.67423 c -2.45246,-2.72042 -2.97175,-2.71637 -5.38343,0.039 l -1.34448,1.53612 -0.89445,-0.28883 C 401.89394,537.43511 400.78608,536.84035 401.01418,536.6114 z m 5.6031,-7.35862 c 2.29975,0.76367 4.25627,0.27489 6.02465,-1.50513 1.17207,-1.17963 1.67849,-2.52301 1.60074,-4.24624 -0.0775,-1.72359 -0.438,-2.53571 -1.6891,-3.80702 -0.87303,-0.88658 -1.23667,-1.12561 -2.23048,-1.46358 -2.19801,-0.74698 -4.2696,-0.25657 -5.94122,1.40621 C 401.27423,522.72825 402.47078,527.87563 406.61728,529.25278 Z"
         id="path1591"
         inkscape:connector-curvature="0"
         sodipodi:nodetypes="ssssssssscsssscccsccccssccsssssccssscsscssccsssscsss" />
      <path
         inkscape:connector-curvature="0"
         id="path1602"
         d="m 412.61212,508.54122 -1.84718,1.84718 c -2.4311,2.43214 -2.268,2.42789 -4.67566,0.0287 l -1.81831,-1.81829 -0.92358,0.31748 c -0.51023,0.18408 -1.2567,0.49349 -1.674,0.69268 -0.65512,0.3127 -0.73473,0.39943 -0.66384,0.77928 0.0836,-0.11602 0.30028,-0.20167 0.66384,-0.37521 0.4173,-0.19919 1.16377,-0.50859 1.674,-0.69269 l 0.92358,-0.34635 1.81831,1.81831 c 2.40766,2.39906 2.24456,2.40329 4.67566,-0.0287 l 1.84718,-1.84716 1.64514,0.69267 1.61627,0.66386 0.0577,-0.34637 -1.674,-0.69267 L 412.61212,508.54122 z m -11.42938,4.67565 c -0.0249,0.9237 -0.11392,1.7625 -0.25976,1.9915 -0.45029,0.70697 -1.52369,0.90344 -3.78094,0.69267 l -1.9049,-0.17316 -0.54837,1.2122 c -0.46994,1.04328 -0.70961,1.52639 -0.63496,1.93376 0.0733,-0.34881 0.29388,-0.80136 0.63496,-1.55855 l 0.54837,-1.2122 1.9049,0.17317 c 2.25725,0.21077 3.33065,0.0143 3.78094,-0.69269 C 401.08891,515.32306 401.1753,514.28926 401.18274,513.21686 z m 14.54647,0.89473 c 0.0277,0.88207 0.12417,1.22221 0.49066,1.58742 0.42116,0.41965 0.77003,0.51848 2.10694,0.54838 0.88135,0.0199 1.95176,-0.0575 2.39556,-0.14432 0.93776,-0.1837 1.01544,-0.0844 1.84716,2.07807 0.18099,0.47063 0.29843,0.8174 0.34634,1.0679 0.0843,-0.17519 -0.031,-0.62306 -0.34634,-1.44311 -0.83172,-2.16247 -0.9094,-2.26176 -1.84716,-2.07806 -0.4438,0.0869 -1.51421,0.13529 -2.39556,0.11544 -1.33691,-0.0299 -1.68578,-0.0999 -2.10694,-0.51953 C 415.904,515.00907 415.77601,514.74306 415.72921,514.11161 z m -18.1831,9.20702 c -0.0479,0.2392 -0.17229,0.50431 -0.34635,0.80813 -0.40235,0.7023 -1.92577,2.14657 -2.94394,2.77075 -0.20715,0.12701 -0.27162,0.27712 -0.20201,0.60609 0.0363,-0.0868 0.0989,-0.16766 0.20201,-0.23089 1.01817,-0.62418 2.54159,-2.06846 2.94394,-2.77076 C 397.47496,524.0216 397.60932,523.68879 397.54611,523.31862 z m 5.07972,0.0288 c -0.0924,2.42291 1.35021,4.81142 3.98297,5.68583 2.29974,0.76368 4.2638,0.27918 6.03218,-1.50083 1.08535,-1.09236 1.60782,-2.32271 1.61628,-3.86752 -0.0842,1.37256 -0.61974,2.48934 -1.61628,3.49231 -1.76838,1.78001 -3.73244,2.26451 -6.03218,1.50083 C 404.11426,527.82961 402.69018,525.63643 402.62583,523.34747 z m 16.76887,0.0577 c -0.12228,0.65997 0.29371,1.16921 2.0492,2.77076 l 1.55857,1.38537 0.11544,-0.25976 -1.67401,-1.52969 C 420.04331,524.49414 419.50118,523.91983 419.3947,523.40519 z m -3.69435,10.15944 c 0.002,0.54461 0.0266,1.14136 0.11546,1.78945 0.0338,0.24748 0.0516,0.45122 0.0577,0.66383 0.0189,-0.2689 -0.002,-0.65976 -0.0577,-1.06789 C 415.74955,534.46686 415.71809,533.99467 415.70035,533.56464 z m -14.43104,0.75042 c -0.0517,0.83857 -0.16072,1.6035 -0.25976,1.70286 -0.057,0.0573 -0.0396,0.13467 0.0577,0.23089 C 401.15866,535.92304 401.23319,535.12982 401.26931,534.31506 Z"
         style="fill:#000000;fill-opacity:0.23509127;stroke:none" />
      <path
         style="fill:#000000;fill-opacity:0.11871194;stroke:none"
         d="m 412.61212,508.16963 -1.84718,1.84717 c -2.4311,2.43216 -2.268,2.42791 -4.67566,0.0288 l -1.81831,-1.81832 -0.92358,0.31748 c -0.51023,0.1841 -1.2567,0.49351 -1.674,0.69269 -0.65512,0.31271 -0.73473,0.39944 -0.66384,0.77929 0.0836,-0.11604 0.30028,-0.20167 0.66384,-0.37522 0.4173,-0.19918 1.16377,-0.50859 1.674,-0.69268 l 0.92358,-0.34635 1.81831,1.81831 c 2.40766,2.39904 2.24456,2.40327 4.67566,-0.0288 l 1.84718,-1.84717 1.64514,0.6927 1.61627,0.66382 0.0577,-0.34634 -1.674,-0.6927 L 412.61212,508.16963 z m -11.42938,4.67566 c -0.0249,0.92371 -0.11392,1.76249 -0.25976,1.99148 -0.45029,0.70698 -1.52369,0.90346 -3.78094,0.6927 l -1.9049,-0.17318 -0.54837,1.2122 c -0.46994,1.04328 -0.70961,1.52639 -0.63496,1.93377 0.0733,-0.34881 0.29388,-0.80136 0.63496,-1.55854 l 0.54837,-1.21223 1.9049,0.17319 c 2.25725,0.21075 3.33065,0.0143 3.78094,-0.6927 C 401.08891,514.95146 401.1753,513.91768 401.18274,512.84528 z m 14.54647,0.89472 c 0.0277,0.88208 0.12417,1.22222 0.49066,1.58742 0.42116,0.41964 0.77003,0.51848 2.10694,0.54837 0.88135,0.0199 1.95176,-0.0575 2.39556,-0.14431 0.93776,-0.18369 1.01544,-0.0844 1.84716,2.07808 0.18099,0.47063 0.29843,0.81741 0.34634,1.06789 0.0843,-0.17518 -0.031,-0.62304 -0.34634,-1.44309 -0.83172,-2.1625 -0.9094,-2.26177 -1.84716,-2.07808 -0.4438,0.0868 -1.51421,0.1353 -2.39556,0.11545 -1.33691,-0.03 -1.68578,-0.0999 -2.10694,-0.51951 C 415.904,514.63747 415.77601,514.37145 415.72921,513.74 z m -18.1831,9.207 c -0.0479,0.23923 -0.17229,0.50433 -0.34635,0.80815 -0.40235,0.70231 -1.92577,2.14656 -2.94394,2.77075 -0.20715,0.127 -0.27162,0.27711 -0.20201,0.6061 0.0363,-0.0868 0.0989,-0.16765 0.20201,-0.2309 1.01817,-0.62418 2.54159,-2.06844 2.94394,-2.77076 C 397.47496,523.65001 397.60932,523.31721 397.54611,522.947 z m 5.07972,0.0289 c -0.0924,2.4229 1.35021,4.81143 3.98297,5.68582 2.29974,0.76367 4.2638,0.27919 6.03218,-1.50081 1.08535,-1.09237 1.60782,-2.3227 1.61628,-3.86752 -0.0842,1.37256 -0.61974,2.48932 -1.61628,3.4923 -1.76838,1.78002 -3.73244,2.26451 -6.03218,1.50083 C 404.11426,527.45801 402.69018,525.26485 402.62583,522.97589 z m 16.76887,0.0577 c -0.12228,0.65997 0.29371,1.16922 2.0492,2.77076 l 1.55857,1.38537 0.11544,-0.25976 -1.67401,-1.52969 C 420.04331,524.12253 419.50118,523.54826 419.3947,523.03361 z m -3.69435,10.15944 c 0.002,0.54461 0.0266,1.14134 0.11546,1.78945 0.0338,0.24746 0.0516,0.45121 0.0577,0.66383 0.0189,-0.26892 -0.002,-0.65977 -0.0577,-1.06791 C 415.74955,534.0953 415.71809,533.62309 415.70035,533.19306 z m -14.43104,0.75042 c -0.0517,0.83857 -0.16072,1.60349 -0.25976,1.70287 -0.057,0.0573 -0.0396,0.13466 0.0577,0.2309 C 401.15866,535.55145 401.23319,534.75824 401.26931,533.94347 Z"
         id="path1607"
         inkscape:connector-curvature="0" />
      <path
         inkscape:connector-curvature="0"
         id="path1609"
         d="m 412.61212,507.79804 -1.84718,1.84717 c -2.4311,2.43214 -2.268,2.42789 -4.67566,0.0288 l -1.81831,-1.81831 -0.92358,0.31749 c -0.51023,0.18409 -1.2567,0.49349 -1.674,0.69267 -0.65512,0.31272 -0.73473,0.39943 -0.66384,0.77929 0.0836,-0.11603 0.30028,-0.20166 0.66384,-0.3752 0.4173,-0.19921 1.16377,-0.50862 1.674,-0.6927 l 0.92358,-0.34635 1.81831,1.81832 c 2.40766,2.39904 2.24456,2.40328 4.67566,-0.0288 l 1.84718,-1.84718 1.64514,0.69269 1.61627,0.66384 0.0577,-0.34636 -1.674,-0.69267 L 412.61212,507.79804 z m -11.42938,4.67565 c -0.0249,0.92368 -0.11392,1.7625 -0.25976,1.99147 -0.45029,0.707 -1.52369,0.90347 -3.78094,0.69271 l -1.9049,-0.17319 -0.54837,1.21223 c -0.46994,1.04327 -0.70961,1.52637 -0.63496,1.93376 0.0733,-0.34882 0.29388,-0.80138 0.63496,-1.55858 l 0.54837,-1.21219 1.9049,0.17317 c 2.25725,0.21076 3.33065,0.0143 3.78094,-0.69268 C 401.08891,514.57986 401.1753,513.54606 401.18274,512.47369 z m 14.54647,0.89471 c 0.0277,0.8821 0.12417,1.22222 0.49066,1.58743 0.42116,0.41965 0.77003,0.51849 2.10694,0.54837 0.88135,0.0199 1.95176,-0.0575 2.39556,-0.1443 0.93776,-0.18371 1.01544,-0.0844 1.84716,2.07807 0.18099,0.47063 0.29843,0.81741 0.34634,1.0679 0.0843,-0.17519 -0.031,-0.62306 -0.34634,-1.44311 -0.83172,-2.16247 -0.9094,-2.26177 -1.84716,-2.07807 -0.4438,0.0869 -1.51421,0.13531 -2.39556,0.11545 -1.33691,-0.03 -1.68578,-0.0999 -2.10694,-0.51953 C 415.904,514.26587 415.77601,513.99986 415.72921,513.3684 z m -18.1831,9.20701 c -0.0479,0.23924 -0.17229,0.50433 -0.34635,0.80814 -0.40235,0.70231 -1.92577,2.14657 -2.94394,2.77076 -0.20715,0.12702 -0.27162,0.27711 -0.20201,0.60609 0.0363,-0.0868 0.0989,-0.16767 0.20201,-0.23087 1.01817,-0.6242 2.54159,-2.06845 2.94394,-2.77077 C 397.47496,523.27839 397.60932,522.94559 397.54611,522.57541 z m 5.07972,0.0288 c -0.0924,2.42291 1.35021,4.81142 3.98297,5.68584 2.29974,0.76366 4.2638,0.27917 6.03218,-1.50085 1.08535,-1.09237 1.60782,-2.32271 1.61628,-3.86751 -0.0842,1.37255 -0.61974,2.48933 -1.61628,3.4923 -1.76838,1.78 -3.73244,2.26451 -6.03218,1.50082 C 404.11426,527.08641 402.69018,524.89326 402.62583,522.60427 z m 16.76887,0.0577 c -0.12228,0.65998 0.29371,1.16922 2.0492,2.77077 l 1.55857,1.38536 0.11544,-0.25976 -1.67401,-1.52968 C 420.04331,523.75094 419.50118,523.17664 419.3947,522.662 z m -3.69435,10.15946 c 0.002,0.54458 0.0266,1.14133 0.11546,1.78944 0.0338,0.24747 0.0516,0.45123 0.0577,0.66382 0.0189,-0.2689 -0.002,-0.65976 -0.0577,-1.0679 C 415.74955,533.7237 415.71809,533.25148 415.70035,532.82146 z m -14.43104,0.7504 c -0.0517,0.83857 -0.16072,1.60349 -0.25976,1.70286 -0.057,0.0573 -0.0396,0.13467 0.0577,0.2309 C 401.15866,535.17985 401.23319,534.38665 401.26931,533.57187 Z"
         style="fill:#000000;fill-opacity:0.05878972;stroke:none" />
      <path
         inkscape:connector-curvature="0"
         style="fill:#ffffff;fill-opacity:0.11764706;stroke:none"
         d="m 415.85971,511.4689 0,0.0316 -0.0316,0.34857 c -0.0489,0.39159 -0.0795,1.04386 -0.095,1.71116 0.0202,-0.44212 0.062,-0.84415 0.095,-1.10909 l 0.095,-0.95065 L 415.85971,511.4689 z m -14.86176,0.095 c -0.0836,0.11604 -0.0559,0.25352 0,0.50701 0.0662,0.30128 0.13205,0.71353 0.15844,1.17246 -0.006,-0.32552 -0.0393,-0.63595 -0.0634,-0.91895 C 401.069,512.04149 401.03967,511.78047 400.99795,511.56398 z m 6.90802,6.81297 c -1.29045,0.10744 -2.47263,0.7036 -3.51738,1.74284 -0.76912,0.76505 -1.29036,1.63813 -1.55273,2.56674 -0.003,0.009 0.003,0.0222 0,0.0316 -0.0536,0.21477 -0.0983,0.41668 -0.12675,0.63376 -0.0156,0.0964 -0.0211,0.18847 -0.0316,0.28519 -0.006,0.0729 -0.0283,0.14895 -0.0316,0.22181 -0.007,0.0973 0.002,0.18787 0,0.28519 3.4e-4,0.10348 -0.006,0.21385 0,0.31689 0.073,-1.36414 0.63215,-2.7611 1.74286,-3.86596 1.67161,-1.66279 3.75938,-2.14126 5.95737,-1.39428 0.99382,0.33798 1.34515,0.57105 2.21817,1.45765 1.25111,1.27131 1.60189,2.11067 1.67948,3.83427 0.005,-0.16205 0.006,-0.33801 0,-0.50701 -0.003,-0.0591 0.003,-0.10141 0,-0.15844 -0.0168,-0.37178 -0.0786,-0.68142 -0.12675,-0.98233 -0.19274,-1.01515 -0.6144,-1.70833 -1.55273,-2.66181 -0.87302,-0.88659 -1.25604,-1.11968 -2.24985,-1.45765 C 409.49003,518.44538 408.68025,518.31245 407.90597,518.37693 z m -13.84772,1.67947 c -0.1429,0.65926 0.2681,0.93701 1.5844,2.12311 1.17135,1.05559 1.71767,1.65295 1.8696,2.18648 0.0224,-0.0846 0.0581,-0.17179 0.0634,-0.25351 -5.9e-4,-0.0106 9.1e-4,-0.0212 0,-0.0316 4e-4,-0.0102 -1.2e-4,-0.0217 0,-0.0316 -10e-4,-0.0102 9.9e-4,-0.0218 0,-0.0316 -0.083,-0.57444 -0.65349,-1.16021 -1.93298,-2.31323 C 394.68756,520.84356 394.19725,520.45262 394.05825,520.05641 z m 28.80454,0.28519 c -0.0126,0.0152 -0.0142,0.0556 -0.0316,0.0634 -0.1471,0.0657 -0.85821,0.63782 -1.61609,1.29921 -1.07777,0.94061 -1.44461,1.38662 -1.67947,1.96466 -0.11457,0.28196 -0.18352,0.49812 -0.15844,0.72883 0.005,0.0222 0.0249,0.041 0.0316,0.0634 0.0267,-0.0952 0.0511,-0.20866 0.095,-0.31689 0.23486,-0.57806 0.63339,-0.99238 1.71116,-1.93297 0.75788,-0.66141 1.50069,-1.23346 1.64778,-1.29922 C 422.9664,520.8657 422.93811,520.66051 422.86279,520.34159 z m -28.80454,8.33398 c -0.0923,0.1983 -0.0205,0.50398 0.28519,1.29922 0.86226,2.24299 0.82886,2.22105 2.56674,2.02805 1.82744,-0.20299 3.33263,0.007 3.83427,0.507 0.20147,0.20076 0.43423,0.74517 0.50701,1.20415 0.027,0.17151 0.0275,0.46341 0.0316,0.76052 0.007,-0.27976 0.0106,-0.55136 0,-0.7922 -0.008,-0.19028 -0.0155,-0.3427 -0.0316,-0.47532 -0.0364,-0.2295 -0.0998,-0.4797 -0.19013,-0.69714 -0.0903,-0.21745 -0.21614,-0.40663 -0.31688,-0.507 -0.50164,-0.49984 -2.00684,-0.67831 -3.83427,-0.47534 -1.73788,0.19302 -1.70448,0.21495 -2.56674,-2.02804 C 394.20188,529.13122 394.11232,528.87739 394.05825,528.67559 z m 28.8996,0.0316 -0.44363,1.10909 c -0.32623,0.79664 -0.68365,1.53883 -0.7922,1.64778 -0.10876,0.10924 -0.89054,0.1268 -1.74285,0.0316 -1.87832,-0.2095 -3.29467,-0.003 -3.83427,0.53869 -0.2056,0.20635 -0.34355,0.64495 -0.41195,1.23585 -8.3e-4,0.0102 7.9e-4,0.0217 0,0.0316 -0.0168,0.21072 -0.0293,0.42532 -0.0316,0.66545 0.0573,-0.70213 0.2134,-1.2266 0.44363,-1.45766 0.53959,-0.54158 1.95595,-0.74819 3.83427,-0.5387 0.85231,0.0951 1.6341,0.0775 1.74285,-0.0316 0.10857,-0.10896 0.46597,-0.85115 0.7922,-1.64778 l 0.60207,-1.42595 L 422.95785,528.70727 z m -14.51318,6.40106 c -0.73784,0.005 -1.45596,0.71371 -2.6618,2.09142 l -1.36259,1.52103 -0.88728,-0.28519 c -1.23237,-0.39713 -2.1476,-0.82041 -2.43998,-1.10908 -0.0282,0.10927 -0.0693,0.22756 -0.095,0.2535 -0.2281,0.22893 0.9236,0.83302 2.56675,1.36259 l 0.88727,0.28519 1.3309,-1.52103 c 2.41168,-2.75542 2.93453,-2.78379 5.38699,-0.0634 l 1.48934,1.67947 1.48935,-0.60208 c 0.80565,-0.33332 1.54289,-0.68697 1.64778,-0.7922 0.0601,-0.0602 0.0716,-0.34502 0.0634,-0.66546 -0.0144,0.0843 -0.0372,0.13212 -0.0634,0.15845 -0.10486,0.10523 -0.84214,0.45889 -1.64778,0.7922 l -1.48935,0.63377 -1.48934,-1.67948 C 409.94363,535.8078 409.18252,535.10289 408.44467,535.10829 Z"
         id="path1807" />
      <path
         inkscape:connector-curvature="0"
         style="fill:#ffffff;fill-opacity:0.05882353;stroke:none"
         d="m 415.85971,511.94424 0,0.0316 -0.0316,0.34857 c -0.0489,0.39159 -0.0795,1.04385 -0.095,1.71116 0.0202,-0.44213 0.062,-0.84415 0.095,-1.1091 l 0.095,-0.95064 L 415.85971,511.94424 z m -14.86176,0.095 c -0.0836,0.11603 -0.0559,0.25351 0,0.50701 0.0662,0.30126 0.13205,0.71352 0.15844,1.17246 -0.006,-0.32553 -0.0393,-0.63597 -0.0634,-0.91896 C 401.069,512.5168 401.03967,512.25579 400.99795,512.03931 z m 6.90802,6.81295 c -1.29045,0.10744 -2.47263,0.70361 -3.51738,1.74285 -0.76912,0.76505 -1.29036,1.63813 -1.55273,2.56674 -0.003,0.009 0.003,0.0223 0,0.0316 -0.0536,0.21477 -0.0983,0.41668 -0.12675,0.63376 -0.0156,0.0964 -0.0211,0.18847 -0.0316,0.2852 -0.006,0.0729 -0.0283,0.14895 -0.0316,0.22181 -0.007,0.0973 0.002,0.18788 0,0.2852 3.4e-4,0.10347 -0.006,0.21384 0,0.31688 0.073,-1.36414 0.63215,-2.7611 1.74286,-3.86596 1.67161,-1.66278 3.75938,-2.14126 5.95737,-1.39428 0.99382,0.33798 1.34515,0.57106 2.21817,1.45765 1.25111,1.27131 1.60189,2.11067 1.67948,3.83427 0.005,-0.16205 0.006,-0.338 0,-0.507 -0.003,-0.0591 0.003,-0.10142 0,-0.15845 -0.0168,-0.37178 -0.0786,-0.6814 -0.12675,-0.98233 -0.19274,-1.01514 -0.6144,-1.70833 -1.55273,-2.66181 -0.87302,-0.88659 -1.25604,-1.11968 -2.24985,-1.45765 C 409.49003,518.9207 408.68025,518.78778 407.90597,518.85226 z m -13.84772,1.67947 c -0.1429,0.65927 0.2681,0.93701 1.5844,2.12311 1.17135,1.05559 1.71767,1.65295 1.8696,2.18648 0.0224,-0.0846 0.0581,-0.17179 0.0634,-0.2535 -5.9e-4,-0.0106 9.1e-4,-0.0212 0,-0.0316 4e-4,-0.0102 -1.2e-4,-0.0217 0,-0.0316 -10e-4,-0.0102 9.9e-4,-0.0218 0,-0.0316 -0.083,-0.57444 -0.65349,-1.16021 -1.93298,-2.31323 C 394.68756,521.31888 394.19725,520.92795 394.05825,520.53173 z m 28.80454,0.28519 c -0.0126,0.0152 -0.0142,0.0556 -0.0316,0.0634 -0.1471,0.0657 -0.85821,0.63782 -1.61609,1.29922 -1.07777,0.9406 -1.44461,1.38661 -1.67947,1.96466 -0.11457,0.28195 -0.18352,0.49811 -0.15844,0.72883 0.005,0.0222 0.0249,0.041 0.0316,0.0634 0.0267,-0.0952 0.0511,-0.20865 0.095,-0.31688 0.23486,-0.57807 0.63339,-0.99239 1.71116,-1.93298 0.75788,-0.66142 1.50069,-1.23347 1.64778,-1.29922 C 422.9664,521.34101 422.93811,521.13583 422.86279,520.81691 z m -28.80454,8.33399 c -0.0923,0.19828 -0.0205,0.50397 0.28519,1.29922 0.86226,2.24298 0.82886,2.22104 2.56674,2.02805 1.82744,-0.203 3.33263,0.007 3.83427,0.50701 0.20147,0.20075 0.43423,0.74516 0.50701,1.20414 0.027,0.17151 0.0275,0.46341 0.0316,0.76052 0.007,-0.27976 0.0106,-0.55135 0,-0.7922 -0.008,-0.19029 -0.0155,-0.3427 -0.0316,-0.47533 -0.0364,-0.22949 -0.0998,-0.4797 -0.19013,-0.69713 -0.0903,-0.21745 -0.21614,-0.40664 -0.31688,-0.50701 -0.50164,-0.49984 -2.00684,-0.67831 -3.83427,-0.47532 -1.73788,0.193 -1.70448,0.21494 -2.56674,-2.02805 C 394.20188,529.60656 394.11232,529.35271 394.05825,529.15092 z m 28.8996,0.0316 -0.44363,1.10909 c -0.32623,0.79664 -0.68365,1.53883 -0.7922,1.64778 -0.10876,0.10925 -0.89054,0.12681 -1.74285,0.0316 -1.87832,-0.20949 -3.29467,-0.003 -3.83427,0.5387 -0.2056,0.20633 -0.34355,0.64495 -0.41195,1.23584 -8.3e-4,0.0102 7.9e-4,0.0217 0,0.0316 -0.0168,0.21072 -0.0293,0.42532 -0.0316,0.66545 0.0573,-0.70213 0.2134,-1.22659 0.44363,-1.45766 0.53959,-0.54158 1.95595,-0.74818 3.83427,-0.5387 0.85231,0.0951 1.6341,0.0775 1.74285,-0.0316 0.10857,-0.10896 0.46597,-0.85115 0.7922,-1.64778 l 0.60204,-1.42588 L 422.95785,529.18259 z m -14.51318,6.40101 c -0.73784,0.005 -1.45596,0.71371 -2.6618,2.09143 l -1.36259,1.52103 -0.88728,-0.28521 c -1.23237,-0.39712 -2.1476,-0.82039 -2.43998,-1.10907 -0.0282,0.10928 -0.0693,0.22756 -0.095,0.2535 -0.2281,0.22893 0.9236,0.83302 2.56675,1.36259 l 0.88727,0.2852 1.3309,-1.52103 c 2.41168,-2.75544 2.93453,-2.78381 5.38699,-0.0634 l 1.48934,1.67947 1.48935,-0.60207 c 0.80565,-0.33333 1.54289,-0.68698 1.64778,-0.79221 0.0601,-0.0602 0.0716,-0.34502 0.0634,-0.66545 -0.0144,0.0843 -0.0372,0.13211 -0.0634,0.15844 -0.10486,0.10523 -0.84214,0.45889 -1.64778,0.79221 l -1.48935,0.63376 -1.48934,-1.67947 C 409.94363,536.28313 409.18252,535.57821 408.44467,535.58361 Z"
         id="path1811" />
    </g>
    <g
       id="layer2"
       style="display:none"
       transform="translate(41.18487,476.18478)">
      <rect
         width="86"
         height="85"
         rx="6"
         ry="6"
         x="5"
         y="7"
         id="rect3745"
         style="opacity:0.9;fill:url(#ButtonShadow);fill-opacity:1;fill-rule:nonzero;stroke:none;filter:url(#filter3174)" />
    </g>
    <g
       id="layer4"
       style="display:none"
       transform="translate(41.18487,476.18478)">
      <rect
         width="66"
         height="66"
         rx="12"
         ry="12"
         x="15"
         y="15"
         clip-path="url(#clipPath3613)"
         id="rect3171"
         style="opacity:0.15;fill:url(#linearGradient2885);fill-opacity:1;fill-rule:nonzero;stroke:#ffffff;stroke-width:0.5;stroke-linecap:round;stroke-linejoin:miter;stroke-miterlimit:4;stroke-opacity:1;stroke-dasharray:none;stroke-dashoffset:0;filter:url(#filter3794)" />
    </g>
    <path
       style="fill:url(#linearGradient963);fill-opacity:1;stroke:none"
       d="m 389.2733,502.798 c -0.94228,0 -1.6869,0.73369 -1.6869,1.66211 l 0,18.03692 0,1.9699 0,18.03693 c 0,0.92842 0.74462,1.66211 1.6869,1.66211 l 0.7185,0 c -0.94229,0 -1.6869,-0.73369 -1.6869,-1.66211 l 0,-18.03693 0,-1.9699 0,-18.03692 c 0,-0.92842 0.74461,-1.66211 1.6869,-1.66211 L 389.2733,502.798 Z"
       id="path1470"
       inkscape:connector-curvature="0" />
    <path
       style="fill:url(#linearGradient965);fill-opacity:1;stroke:none"
       d="m 427.16604,502.798 c 0.94228,0 1.6869,0.73369 1.6869,1.66211 l 0,18.03692 0,1.9699 0,18.03693 c 0,0.92842 -0.74462,1.66211 -1.6869,1.66211 l 0.71849,0 c 0.94229,0 1.6869,-0.73369 1.6869,-1.66211 l 0,-18.03693 0,-1.9699 0,-18.03692 c 0,-0.92842 -0.74461,-1.66211 -1.6869,-1.66211 L 427.16604,502.798 Z"
       id="path1483"
       inkscape:connector-curvature="0" />
    <path
       inkscape:connector-curvature="0"
       style="fill:url(#linearGradient1464);fill-opacity:1;stroke:none"
       d="m 387.57143,541.74317 0,0.76945 c 0,0.92841 0.74461,1.6621 1.6869,1.6621 l 38.61123,0 c 0.94228,0 1.6869,-0.73369 1.6869,-1.6621 l 0,-0.76945 c 0,0.92842 -0.74462,1.66211 -1.6869,1.66211 l -38.61123,0 C 388.31604,543.40528 387.57143,542.67159 387.57143,541.74317 Z"
       id="path1453" />
    <path
       id="path1466"
       d="m 387.57143,505.23831 0,-0.76945 c 0,-0.92851 0.74461,-1.6621 1.6869,-1.6621 l 38.61123,0 c 0.94228,0 1.6869,0.73359 1.6869,1.6621 l 0,0.76945 c 0,-0.92842 -0.74462,-1.66211 -1.6869,-1.66211 l -38.61123,0 C 388.31604,503.5762 387.57143,504.30989 387.57143,505.23831 Z"
       style="fill:url(#linearGradient1468);fill-opacity:1;stroke:none"
       inkscape:connector-curvature="0" />
    <path
       style="fill:#ffffff;fill-opacity:0.23474181;stroke:none"
       d="m 387.57143,542.5203 0,0.61559 c 0,0.92852 0.74461,1.66211 1.6869,1.66211 l 38.61123,0 c 0.94228,0 1.6869,-0.73359 1.6869,-1.66211 l 0,-0.61559 c 0,0.92841 -0.74462,1.66211 -1.6869,1.66211 l -38.61123,0 C 388.31604,544.18241 387.57143,543.44871 387.57143,542.5203 Z"
       id="path1487"
       inkscape:connector-curvature="0" />
  </g>
</svg>
