<?xml version="1.0" encoding="UTF-8" standalone="no"?>
<!-- Created with Inkscape (http://www.inkscape.org/) -->

<svg
   xmlns:dc="http://purl.org/dc/elements/1.1/"
   xmlns:cc="http://creativecommons.org/ns#"
   xmlns:rdf="http://www.w3.org/1999/02/22-rdf-syntax-ns#"
   xmlns:svg="http://www.w3.org/2000/svg"
   xmlns="http://www.w3.org/2000/svg"
   xmlns:xlink="http://www.w3.org/1999/xlink"
   xmlns:sodipodi="http://sodipodi.sourceforge.net/DTD/sodipodi-0.dtd"
   xmlns:inkscape="http://www.inkscape.org/namespaces/inkscape"
   width="48"
   height="48"
   id="svg2"
   version="1.1"
   inkscape:version="0.48+devel r12272"
   sodipodi:docname="gwibber.svg">
  <defs
     id="defs4">
    <linearGradient
       inkscape:collect="always"
       id="linearGradient838">
      <stop
         style="stop-color:#c1c8d5;stop-opacity:1"
         offset="0"
         id="stop840" />
      <stop
         style="stop-color:#f4f5f7;stop-opacity:1"
         offset="1"
         id="stop842" />
    </linearGradient>
    <linearGradient
       inkscape:collect="always"
       id="linearGradient1163">
      <stop
         style="stop-color:#132f45;stop-opacity:1"
         offset="0"
         id="stop1165" />
      <stop
         style="stop-color:#366182;stop-opacity:1"
         offset="1"
         id="stop1167" />
    </linearGradient>
    <linearGradient
       inkscape:collect="always"
       xlink:href="#linearGradient1163"
       id="linearGradient1169"
       x1="29.999998"
       y1="-1052.6122"
       x2="29.999998"
       y2="-1004.2372"
       gradientUnits="userSpaceOnUse" />
    <linearGradient
       inkscape:collect="always"
       xlink:href="#linearGradient838"
       id="linearGradient844"
       x1="27.25"
       y1="1039.2372"
       x2="27.25"
       y2="1017.7372"
       gradientUnits="userSpaceOnUse"
       gradientTransform="matrix(1.0648387,0,0,1.0648387,-1.5561289,-71.397007)" />
  </defs>
  <sodipodi:namedview
     id="base"
     pagecolor="#ffffff"
     bordercolor="#666666"
     borderopacity="1.0"
     inkscape:pageopacity="0.0"
     inkscape:pageshadow="2"
     inkscape:zoom="4"
     inkscape:cx="-17.09742"
     inkscape:cy="20.036041"
     inkscape:document-units="px"
     inkscape:current-layer="layer1"
     showgrid="false"
     inkscape:window-width="1366"
     inkscape:window-height="716"
     inkscape:window-x="0"
     inkscape:window-y="28"
     inkscape:window-maximized="1">
    <inkscape:grid
       type="xygrid"
       id="grid3850"
       empspacing="5"
       visible="true"
       enabled="true"
       snapvisiblegridlinesonly="true" />
  </sodipodi:namedview>
  <metadata
     id="metadata7">
    <rdf:RDF>
      <cc:Work
         rdf:about="">
        <dc:format>image/svg+xml</dc:format>
        <dc:type
           rdf:resource="http://purl.org/dc/dcmitype/StillImage" />
        <dc:title />
      </cc:Work>
    </rdf:RDF>
  </metadata>
  <g
     inkscape:label="Capa 1"
     inkscape:groupmode="layer"
     id="layer1"
     transform="translate(0,-1004.3622)">
    <rect
       style="fill:url(#linearGradient1169);fill-opacity:1;stroke:none"
       id="rect2991-1"
       width="48"
       height="48"
       x="1.2897644e-07"
       y="-1052.3622"
       ry="1.9445436"
       transform="scale(1,-1)" />
    <path
       inkscape:connector-curvature="0"
       style="fill:#000000;fill-opacity:1;stroke:none"
       d="m -1.2897644e-7,1049.3622 0,1.0625 c 0,1.0773 0.86022289897644,1.9375 1.93749992897644,1.9375 l 44.1250002,0 c 1.077277,0 1.9375,-0.8602 1.9375,-1.9375 l 0,-1.0625 c 0,1.0773 -0.860223,1.9375 -1.9375,1.9375 l -44.1250002,0 C 0.86022277,1051.2997 -1.2897644e-7,1050.4395 -1.2897644e-7,1049.3622 Z"
       id="rect846" />
    <path
       inkscape:connector-curvature="0"
       style="fill:#ffffff;fill-opacity:0.5372549;stroke:none"
       d="m 2.5312498,1005.0185 c -0.9170884,0 -1.67114673,0.6395 -1.84374993,1.5 0.33561203,-0.2799 0.77451213,-0.4375 1.24999993,-0.4375 l 44.1250002,0 c 0.475488,0 0.914388,0.1576 1.25,0.4375 -0.172603,-0.8605 -0.926662,-1.5 -1.84375,-1.5 L 2.5312498,1005.0185 Z"
       id="path7515" />
    <path
       inkscape:connector-curvature="0"
       style="fill:#000000;fill-opacity:0.39215686;stroke:none"
       d="m 1.9374998,1004.3622 c -1.07727693,0 -1.93749992897644,0.8602 -1.93749992897644,1.9375 l 0,43.0625 c 0,0.7934 0.48002359897644,1.449 1.15624992897644,1.75 -0.30934163,-0.3333 -0.49999993,-0.7824 -0.49999993,-1.2812 l 0,-42.9375 c 0,-1.0482 0.82689893,-1.875 1.87499993,-1.875 l 42.9375002,0 c 1.048101,0 1.875,0.8268 1.875,1.875 l 0,42.9375 c 0,0.4988 -0.190658,0.9479 -0.5,1.2812 0.676226,-0.301 1.15625,-0.9566 1.15625,-1.75 l 0,-43.0625 c 0,-1.0773 -0.860223,-1.9375 -1.9375,-1.9375 L 1.9374998,1004.3622 Z"
       id="rect4280" />
    <path
       style="fill:url(#linearGradient844);fill-opacity:1;stroke:none"
       d="m 8.9924294,1012.3622 c -0.7110084,0 -1.2644959,0.5535 -1.2644959,1.2645 l 0,20.0323 c 0,0.711 0.5534875,1.2645 1.2644959,1.2645 l 7.1543846,0 0,7.2542 7.553699,-7.2542 15.307057,0 c 0.711008,0 1.264496,-0.5535 1.264496,-1.2645 l 0,-20.0323 C 40.272066,1012.9157 39.718578,1012.3622 39.00757,1012.3622 Z"
       id="rect836"
       inkscape:connector-curvature="0"
       sodipodi:nodetypes="sssscccsssss" />
    <path
       style="fill:#ffffff;fill-opacity:1;stroke:none"
       d="m 8.9924294,1012.6429 c -0.7110084,0 -1.2644959,0.5535 -1.2644959,1.2645 l 0,1.2313 c 0,-0.711 0.5534875,-1.2979 1.2644959,-1.2979 l 30.0151406,0 c 0.711008,0 1.264496,0.5869 1.264496,1.2979 l 0,-1.2313 c 0,-0.711 -0.553488,-1.2645 -1.264496,-1.2645 L 8.9924294,1012.6429 Z"
       id="rect847"
       inkscape:connector-curvature="0" />
    <g
       id="g906"
       transform="matrix(1.0648387,0,0,1.0648387,0.98054,-71.117274)">
      <path
         id="path4102"
         d="m 12.375501,1025.8831 c -1.220107,0 -2.200545,1.0119 -2.200545,2.232 0,1.2201 0.980438,2.2006 2.200545,2.2006 1.220107,0 2.200545,-0.9805 2.200545,-2.2006 C 14.576046,1026.895 13.595608,1025.8831 12.375501,1025.8831 z m 9.24229,0 c -1.220107,0 -2.231982,1.0119 -2.231982,2.232 0,1.2201 1.011875,2.2006 2.231982,2.2006 1.220107,0 2.200545,-0.9805 2.200545,-2.2006 C 23.818336,1026.895 22.837898,1025.8831 21.617791,1025.8831 z m 9.242289,0 c -1.220107,0 -2.231981,1.0119 -2.231981,2.232 0,1.2201 1.011874,2.2006 2.231981,2.2006 1.220107,0 2.200545,-0.9805 2.200545,-2.2006 C 33.060625,1026.895 32.080187,1025.8831 30.86008,1025.8831 Z"
         style="color:#000000;fill:#99a2aa;fill-opacity:1;fill-rule:nonzero;stroke:none;stroke-width:0.27500001;marker:none;visibility:visible;display:inline;overflow:visible;enable-background:accumulate"
         inkscape:connector-curvature="0" />
      <path
         id="path4126"
         d="m 10.232701,1027.7177 c -0.103698,0.2588 -0.157182,0.523 -0.157182,0.8173 0,1.2201 0.980438,2.2006 2.200545,2.2006 1.042861,0 1.907558,-0.7276 2.137672,-1.6976 -0.341833,0.7697 -1.111861,1.3203 -2.011927,1.3203 -1.220107,0 -2.200545,-0.9805 -2.200545,-2.2005 C 10.201264,1028.0053 10.203509,1027.8621 10.232701,1027.7177 z m 9.210853,0.063 c -0.09068,0.2413 -0.157182,0.4841 -0.157182,0.7545 0,1.2201 1.011875,2.2006 2.231982,2.2006 1.042861,0 1.907558,-0.7276 2.137672,-1.6976 -0.341833,0.7697 -1.111861,1.3203 -2.011927,1.3203 -1.220107,0 -2.231981,-0.9805 -2.231981,-2.2005 C 19.412118,1028.0269 19.421274,1027.9056 19.443554,1027.7805 z m 9.242289,0 c -0.09068,0.2413 -0.157181,0.4841 -0.157181,0.7545 0,1.2201 1.011874,2.2006 2.231981,2.2006 1.042861,0 1.907558,-0.7276 2.137673,-1.6976 -0.341834,0.7697 -1.111862,1.3203 -2.011927,1.3203 -1.220107,0 -2.231982,-0.9805 -2.231982,-2.2005 C 28.654407,1028.0269 28.663563,1027.9056 28.685843,1027.7805 Z"
         style="color:#000000;fill:#ffffff;fill-opacity:0.81355932;fill-rule:nonzero;stroke:none;stroke-width:0.27500001;marker:none;visibility:visible;display:inline;overflow:visible;enable-background:accumulate"
         inkscape:connector-curvature="0" />
    </g>
    <path
       style="fill:#000000;fill-opacity:0.23383185;stroke:none"
       d="m 7.7279335,1033.6514 0,0.7321 c 0,0.711 0.5534875,1.2645 1.2644959,1.2645 l 7.1543846,0 0,-0.7321 -7.1543846,0 C 8.281421,1034.9159 7.7279335,1034.3624 7.7279335,1033.6514 z m 32.5441325,0 c 0,0.711 -0.553488,1.2645 -1.264496,1.2645 l -15.307057,0 -7.553699,7.2542 0,0.7321 7.553699,-7.2542 15.307057,0 c 0.711008,0 1.264496,-0.5535 1.264496,-1.2645 L 40.272066,1033.6514 Z"
       id="path923"
       inkscape:connector-curvature="0" />
    <path
       inkscape:connector-curvature="0"
       id="path928"
       d="m 7.7279335,1034.3835 0,0.7321 c 0,0.711 0.5534875,1.2645 1.2644959,1.2645 l 7.1543846,0 0,-0.7321 -7.1543846,0 C 8.281421,1035.648 7.7279335,1035.0945 7.7279335,1034.3835 z m 32.5441325,0 c 0,0.711 -0.553488,1.2645 -1.264496,1.2645 l -15.307057,0 -7.553699,7.2542 0,0.7321 7.553699,-7.2542 15.307057,0 c 0.711008,0 1.264496,-0.5535 1.264496,-1.2645 L 40.272066,1034.3835 Z"
       style="fill:#000000;fill-opacity:0.11817878;stroke:none" />
    <path
       style="fill:#000000;fill-opacity:0.05882353;stroke:none"
       d="m 7.7279335,1035.1114 0,0.7321 c 0,0.711 0.5534875,1.2645 1.2644959,1.2645 l 7.1543846,0 0,-0.7321 -7.1543846,0 C 8.281421,1036.3759 7.7279335,1035.8224 7.7279335,1035.1114 z m 32.5441325,0 c 0,0.711 -0.553488,1.2645 -1.264496,1.2645 l -15.307057,0 -7.553699,7.2542 0,0.7321 7.553699,-7.2542 15.307057,0 c 0.711008,0 1.264496,-0.5535 1.264496,-1.2645 L 40.272066,1035.1114 Z"
       id="path930"
       inkscape:connector-curvature="0" />
  </g>
</svg>
