<?xml version="1.0" encoding="UTF-8" standalone="no"?>
<!-- Created with Inkscape (http://www.inkscape.org/) -->

<svg
   xmlns:dc="http://purl.org/dc/elements/1.1/"
   xmlns:cc="http://creativecommons.org/ns#"
   xmlns:rdf="http://www.w3.org/1999/02/22-rdf-syntax-ns#"
   xmlns:svg="http://www.w3.org/2000/svg"
   xmlns="http://www.w3.org/2000/svg"
   xmlns:xlink="http://www.w3.org/1999/xlink"
   xmlns:sodipodi="http://sodipodi.sourceforge.net/DTD/sodipodi-0.dtd"
   xmlns:inkscape="http://www.inkscape.org/namespaces/inkscape"
   width="48"
   height="48"
   id="svg2"
   version="1.1"
   inkscape:version="0.48+devel r12399"
   sodipodi:docname="help-browser.svg">
  <defs
     id="defs4">
    <linearGradient
       inkscape:collect="always"
       id="linearGradient4062">
      <stop
         style="stop-color:#fefeff;stop-opacity:1"
         offset="0"
         id="stop4064" />
      <stop
         style="stop-color:#feffff;stop-opacity:1"
         offset="1"
         id="stop4066" />
    </linearGradient>
    <linearGradient
       id="linearGradient908">
      <stop
         style="stop-color:#0062bf;stop-opacity:1"
         offset="0"
         id="stop910" />
      <stop
         style="stop-color:#0095d4;stop-opacity:1"
         offset="1"
         id="stop912" />
    </linearGradient>
    <linearGradient
       inkscape:collect="always"
       xlink:href="#linearGradient908"
       id="linearGradient848"
       x1="-25.667843"
       y1="-1036.7864"
       x2="-25.667843"
       y2="-988.80719"
       gradientUnits="userSpaceOnUse"
       gradientTransform="translate(50.007065,-15.575966)" />
    <linearGradient
       inkscape:collect="always"
       xlink:href="#linearGradient4062"
       id="linearGradient4102"
       x1="24.125"
       y1="1044.3733"
       x2="24.125"
       y2="1012.3544"
       gradientUnits="userSpaceOnUse" />
    <linearGradient
       inkscape:collect="always"
       xlink:href="#linearGradient4062"
       id="linearGradient4104"
       gradientUnits="userSpaceOnUse"
       x1="24.125"
       y1="1044.3733"
       x2="24.125"
       y2="1012.3544" />
  </defs>
  <sodipodi:namedview
     id="base"
     pagecolor="#ffffff"
     bordercolor="#666666"
     borderopacity="1.0"
     inkscape:pageopacity="0.0"
     inkscape:pageshadow="2"
     inkscape:zoom="8"
     inkscape:cx="34.567433"
     inkscape:cy="29.15448"
     inkscape:document-units="px"
     inkscape:current-layer="layer1"
     showgrid="false"
     inkscape:window-width="1366"
     inkscape:window-height="714"
     inkscape:window-x="0"
     inkscape:window-y="30"
     inkscape:window-maximized="1">
    <inkscape:grid
       type="xygrid"
       id="grid3850"
       empspacing="5"
       visible="true"
       enabled="true"
       snapvisiblegridlinesonly="true" />
  </sodipodi:namedview>
  <metadata
     id="metadata7">
    <rdf:RDF>
      <cc:Work
         rdf:about="">
        <dc:format>image/svg+xml</dc:format>
        <dc:type
           rdf:resource="http://purl.org/dc/dcmitype/StillImage" />
        <dc:title />
      </cc:Work>
    </rdf:RDF>
  </metadata>
  <g
     inkscape:label="Capa 1"
     inkscape:groupmode="layer"
     id="layer1"
     transform="translate(0,-1004.3622)">
    <rect
       style="fill:url(#linearGradient848);fill-opacity:1;stroke:none"
       id="rect2991-1-8"
       width="48"
       height="48"
       x="5.9033204e-07"
       y="-1052.3622"
       ry="1.9445436"
       transform="scale(1,-1)" />
    <g
       id="g4114"
       inkscape:label="Capa 1"
       transform="matrix(0.93087865,0,0,0.93087865,1.6589124,72.187726)"
       style="fill:#000000;fill-opacity:0.11764706">
      <path
         id="path4116"
         transform="translate(0,1004.3622)"
         d="m 24,8 c -2.071744,-3e-4 -4.115001,0.77005 -5.625,2.28125 -1.513992,1.512 -2.375,3.4883 -2.375,5.625 l 4,0 c 0,-1.0709 0.429501,-2.02685 1.1875,-2.78125 1.557991,-1.5618 4.128507,-1.5589 5.6875,0 0.756,0.7544 1.125,1.71115 1.125,2.78125 0,1.0659 -0.369998,2.1169 -1.125,2.875 l -6.75,6.625 c -0.945001,0.7808 -1.4375,2.07025 -1.4375,3.40625 0,1.336 0.492499,2.5824 1.4375,3.6875 0.944995,0.9459 2.226502,1.46875 3.5625,1.46875 1.335992,0 2.556003,-0.52285 3.5,-1.46875 0.944995,-1.1051 1.5,-2.3515 1.5,-3.6875 l -4,0 c 0,0.1562 -0.05849,0.4292 -0.3125,0.6875 -0.390998,0.3909 -1.015255,0.3909 -1.40625,0 -0.388998,-0.3912 -0.388998,-0.9837 0,-1.375 L 29.625,21.59375 c 1.511992,-1.5107 2.375,-3.5504 2.375,-5.6875 0,-2.141 -0.864007,-4.118 -2.375,-5.625 C 28.113001,8.77155 26.071744,8.0003 24,8 z m -0.375,28 c -1.104994,0 -2,0.8911 -2,2 0,1.1021 0.895006,2 2,2 1.104996,0 2,-0.8979 2,-2 C 25.625,36.8911 24.729996,36 23.625,36 Z"
         style="fill:#000000;fill-opacity:0.11764706;stroke:none"
         inkscape:connector-curvature="0" />
    </g>
    <path
       inkscape:connector-curvature="0"
       style="fill:#000000;fill-opacity:1;stroke:none"
       d="m -5.9033203e-7,1049.3622 0,1.0625 c 0,1.0773 0.86022300033203,1.9375 1.93749999033203,1.9375 l 44.1249996,0 c 1.077277,0 1.9375,-0.8602 1.9375,-1.9375 l 0,-1.0625 c 0,1.0773 -0.860223,1.9375 -1.9375,1.9375 l -44.1249996,0 C 0.86022241,1051.2997 -5.9033203e-7,1050.4395 -5.9033203e-7,1049.3622 Z"
       id="rect846" />
    <path
       inkscape:connector-curvature="0"
       style="fill:#ffffff;fill-opacity:0.5372549;stroke:none"
       d="m 2.5312494,1005.0185 c -0.917089,0 -1.67114699,0.6395 -1.84374999,1.5 0.33561199,-0.2799 0.77451199,-0.4375 1.24999999,-0.4375 l 44.1249996,0 c 0.475488,0 0.914388,0.1576 1.25,0.4375 -0.172603,-0.8605 -0.926662,-1.5 -1.84375,-1.5 L 2.5312494,1005.0185 Z"
       id="path7515" />
    <path
       inkscape:connector-curvature="0"
       style="fill:#000000;fill-opacity:0.39215686;stroke:none"
       d="m 1.9374994,1004.3622 c -1.07727699,0 -1.93749999033203,0.8602 -1.93749999033203,1.9375 l 0,43.0625 c 0,0.7934 0.48002400033203,1.449 1.15624999033203,1.75 -0.30934199,-0.3333 -0.49999999,-0.7824 -0.49999999,-1.2812 l 0,-42.9375 c 0,-1.0482 0.82689899,-1.875 1.87499999,-1.875 l 42.9374996,0 c 1.048101,0 1.875,0.8268 1.875,1.875 l 0,42.9375 c 0,0.4988 -0.190658,0.9479 -0.5,1.2812 0.676226,-0.301 1.15625,-0.9566 1.15625,-1.75 l 0,-43.0625 c 0,-1.0773 -0.860223,-1.9375 -1.9375,-1.9375 L 1.9374994,1004.3622 Z"
       id="rect4280" />
    <g
       style="fill:#000000;fill-opacity:0.23529412"
       transform="matrix(0.93087865,0,0,0.93087865,1.6589124,71.450381)"
       inkscape:label="Capa 1"
       id="g4106">
      <path
         inkscape:connector-curvature="0"
         style="fill:#000000;fill-opacity:0.23529412;stroke:none"
         d="m 24,8 c -2.071744,-3e-4 -4.115001,0.77005 -5.625,2.28125 -1.513992,1.512 -2.375,3.4883 -2.375,5.625 l 4,0 c 0,-1.0709 0.429501,-2.02685 1.1875,-2.78125 1.557991,-1.5618 4.128507,-1.5589 5.6875,0 0.756,0.7544 1.125,1.71115 1.125,2.78125 0,1.0659 -0.369998,2.1169 -1.125,2.875 l -6.75,6.625 c -0.945001,0.7808 -1.4375,2.07025 -1.4375,3.40625 0,1.336 0.492499,2.5824 1.4375,3.6875 0.944995,0.9459 2.226502,1.46875 3.5625,1.46875 1.335992,0 2.556003,-0.52285 3.5,-1.46875 0.944995,-1.1051 1.5,-2.3515 1.5,-3.6875 l -4,0 c 0,0.1562 -0.05849,0.4292 -0.3125,0.6875 -0.390998,0.3909 -1.015255,0.3909 -1.40625,0 -0.388998,-0.3912 -0.388998,-0.9837 0,-1.375 L 29.625,21.59375 c 1.511992,-1.5107 2.375,-3.5504 2.375,-5.6875 0,-2.141 -0.864007,-4.118 -2.375,-5.625 C 28.113001,8.77155 26.071744,8.0003 24,8 z m -0.375,28 c -1.104994,0 -2,0.8911 -2,2 0,1.1021 0.895006,2 2,2 1.104996,0 2,-0.8979 2,-2 C 25.625,36.8911 24.729996,36 23.625,36 Z"
         transform="translate(0,1004.3622)"
         id="path4108" />
    </g>
    <g
       style="fill:#000000;fill-opacity:0.05882353"
       transform="matrix(0.93087865,0,0,0.93087865,1.6589124,70.713027)"
       inkscape:label="Capa 1"
       id="g4118">
      <path
         inkscape:connector-curvature="0"
         style="fill:#000000;fill-opacity:0.05882353;stroke:none"
         d="m 24,8 c -2.071744,-3e-4 -4.115001,0.77005 -5.625,2.28125 -1.513992,1.512 -2.375,3.4883 -2.375,5.625 l 4,0 c 0,-1.0709 0.429501,-2.02685 1.1875,-2.78125 1.557991,-1.5618 4.128507,-1.5589 5.6875,0 0.756,0.7544 1.125,1.71115 1.125,2.78125 0,1.0659 -0.369998,2.1169 -1.125,2.875 l -6.75,6.625 c -0.945001,0.7808 -1.4375,2.07025 -1.4375,3.40625 0,1.336 0.492499,2.5824 1.4375,3.6875 0.944995,0.9459 2.226502,1.46875 3.5625,1.46875 1.335992,0 2.556003,-0.52285 3.5,-1.46875 0.944995,-1.1051 1.5,-2.3515 1.5,-3.6875 l -4,0 c 0,0.1562 -0.05849,0.4292 -0.3125,0.6875 -0.390998,0.3909 -1.015255,0.3909 -1.40625,0 -0.388998,-0.3912 -0.388998,-0.9837 0,-1.375 L 29.625,21.59375 c 1.511992,-1.5107 2.375,-3.5504 2.375,-5.6875 0,-2.141 -0.864007,-4.118 -2.375,-5.625 C 28.113001,8.77155 26.071744,8.0003 24,8 z m -0.375,28 c -1.104994,0 -2,0.8911 -2,2 0,1.1021 0.895006,2 2,2 1.104996,0 2,-0.8979 2,-2 C 25.625,36.8911 24.729996,36 23.625,36 Z"
         transform="translate(0,1004.3622)"
         id="path4120" />
    </g>
    <g
       id="layer1-9"
       inkscape:label="Capa 1"
       transform="matrix(0.93087865,0,0,0.93087865,1.6589124,69.975842)"
       style="fill:url(#linearGradient4102);fill-opacity:1">
      <path
         id="path825"
         transform="translate(0,1004.3622)"
         d="m 24,8 c -2.071744,-3e-4 -4.115001,0.77005 -5.625,2.28125 -1.513992,1.512 -2.375,3.4883 -2.375,5.625 l 4,0 c 0,-1.0709 0.429501,-2.02685 1.1875,-2.78125 1.557991,-1.5618 4.128507,-1.5589 5.6875,0 0.756,0.7544 1.125,1.71115 1.125,2.78125 0,1.0659 -0.369998,2.1169 -1.125,2.875 l -6.75,6.625 c -0.945001,0.7808 -1.4375,2.07025 -1.4375,3.40625 0,1.336 0.492499,2.5824 1.4375,3.6875 0.944995,0.9459 2.226502,1.46875 3.5625,1.46875 1.335992,0 2.556003,-0.52285 3.5,-1.46875 0.944995,-1.1051 1.5,-2.3515 1.5,-3.6875 l -4,0 c 0,0.1562 -0.05849,0.4292 -0.3125,0.6875 -0.390998,0.3909 -1.015255,0.3909 -1.40625,0 -0.388998,-0.3912 -0.388998,-0.9837 0,-1.375 L 29.625,21.59375 c 1.511992,-1.5107 2.375,-3.5504 2.375,-5.6875 0,-2.141 -0.864007,-4.118 -2.375,-5.625 C 28.113001,8.77155 26.071744,8.0003 24,8 z m -0.375,28 c -1.104994,0 -2,0.8911 -2,2 0,1.1021 0.895006,2 2,2 1.104996,0 2,-0.8979 2,-2 C 25.625,36.8911 24.729996,36 23.625,36 Z"
         style="fill:url(#linearGradient4104);fill-opacity:1;stroke:none"
         inkscape:connector-curvature="0" />
    </g>
  </g>
</svg>
