<?xml version="1.0" encoding="UTF-8" standalone="no"?>
<!-- Created with Inkscape (http://www.inkscape.org/) -->

<svg
   xmlns:dc="http://purl.org/dc/elements/1.1/"
   xmlns:cc="http://creativecommons.org/ns#"
   xmlns:rdf="http://www.w3.org/1999/02/22-rdf-syntax-ns#"
   xmlns:svg="http://www.w3.org/2000/svg"
   xmlns="http://www.w3.org/2000/svg"
   xmlns:xlink="http://www.w3.org/1999/xlink"
   xmlns:sodipodi="http://sodipodi.sourceforge.net/DTD/sodipodi-0.dtd"
   xmlns:inkscape="http://www.inkscape.org/namespaces/inkscape"
   width="48"
   height="48"
   id="svg2"
   version="1.1"
   inkscape:version="0.48+devel r12399"
   sodipodi:docname="gtk-info.svg">
  <defs
     id="defs4">
    <linearGradient
       inkscape:collect="always"
       id="linearGradient4062">
      <stop
         style="stop-color:#fefeff;stop-opacity:1"
         offset="0"
         id="stop4064" />
      <stop
         style="stop-color:#feffff;stop-opacity:1"
         offset="1"
         id="stop4066" />
    </linearGradient>
    <linearGradient
       id="linearGradient908">
      <stop
         style="stop-color:#0062bf;stop-opacity:1"
         offset="0"
         id="stop910" />
      <stop
         style="stop-color:#0095d4;stop-opacity:1"
         offset="1"
         id="stop912" />
    </linearGradient>
    <linearGradient
       inkscape:collect="always"
       xlink:href="#linearGradient908"
       id="linearGradient848"
       x1="-25.667843"
       y1="-1036.7864"
       x2="-25.667843"
       y2="-988.80719"
       gradientUnits="userSpaceOnUse"
       gradientTransform="translate(50.007065,-15.575966)" />
    <linearGradient
       inkscape:collect="always"
       xlink:href="#linearGradient4062"
       id="linearGradient4068"
       x1="28.47751"
       y1="1044.3534"
       x2="28.47751"
       y2="1012.3712"
       gradientUnits="userSpaceOnUse" />
    <linearGradient
       inkscape:collect="always"
       xlink:href="#linearGradient4062"
       id="linearGradient4070"
       gradientUnits="userSpaceOnUse"
       x1="28.47751"
       y1="1044.3534"
       x2="28.47751"
       y2="1012.3712" />
  </defs>
  <sodipodi:namedview
     id="base"
     pagecolor="#ffffff"
     bordercolor="#666666"
     borderopacity="1.0"
     inkscape:pageopacity="0.0"
     inkscape:pageshadow="2"
     inkscape:zoom="8"
     inkscape:cx="12.420753"
     inkscape:cy="21.797122"
     inkscape:document-units="px"
     inkscape:current-layer="layer1"
     showgrid="false"
     inkscape:window-width="1366"
     inkscape:window-height="714"
     inkscape:window-x="0"
     inkscape:window-y="30"
     inkscape:window-maximized="1">
    <inkscape:grid
       type="xygrid"
       id="grid3850"
       empspacing="5"
       visible="true"
       enabled="true"
       snapvisiblegridlinesonly="true" />
  </sodipodi:namedview>
  <metadata
     id="metadata7">
    <rdf:RDF>
      <cc:Work
         rdf:about="">
        <dc:format>image/svg+xml</dc:format>
        <dc:type
           rdf:resource="http://purl.org/dc/dcmitype/StillImage" />
        <dc:title />
      </cc:Work>
    </rdf:RDF>
  </metadata>
  <g
     inkscape:label="Capa 1"
     inkscape:groupmode="layer"
     id="layer1"
     transform="translate(0,-1004.3622)">
    <rect
       style="fill:url(#linearGradient848);fill-opacity:1;stroke:none"
       id="rect2991-1-8"
       width="48"
       height="48"
       x="5.9033204e-07"
       y="-1052.3622"
       ry="1.9445436"
       transform="scale(1,-1)" />
    <g
       style="fill:#000000;fill-opacity:0.05882353"
       transform="matrix(0.93088302,0,0,0.93088302,1.6588074,72.18329)"
       inkscape:label="Capa 1"
       id="g4084">
      <path
         style="fill:#000000;fill-opacity:0.05882353;fill-rule:nonzero;stroke:none"
         d="m 26.980011,1012.3624 c -2.342684,0 -4.243994,1.7908 -4.243994,3.9994 0,2.208 1.90131,3.9995 4.243994,3.9995 2.341534,0 4.243994,-1.7915 4.243994,-3.9995 C 31.224005,1014.1532 29.321545,1012.3624 26.980011,1012.3624 z m -3.510286,9.5957 c -1.065458,0.01 -2.407999,0.1914 -4.042584,0.705 0,0 -2.042871,0.5829 -2.575169,1.5249 0,0 -0.380377,0.6762 0.56107,0.6043 0,0 4.013236,-0.3223 4.013811,1.4386 -0.0063,0.1018 -0.01439,0.2124 -0.01439,0.3165 0,0.1364 0.004,0.2688 0.01439,0.4028 0,0 -0.01381,1.1417 -0.546684,3.3808 0,0 -1.936412,6.8595 -2.114803,8.1715 -0.115667,0.4138 -0.172637,0.8661 -0.172637,1.3236 0,1.5174 0.683642,2.841 1.711984,3.5822 0,0 0.03913,0.03 0.129477,0.086 0.19508,0.1272 0.403396,0.2331 0.618616,0.3165 1.072652,0.4569 3.299094,1.0024 6.718458,-0.072 0,0 2.044022,-0.583 2.575169,-1.525 0,0 0.379801,-0.6761 -0.56107,-0.6042 0,0 -4.013236,0.3228 -4.013811,-1.4387 0.0075,-0.1156 0.01439,-0.2417 0.01439,-0.3596 0,-0.046 0.0012,-0.083 0,-0.1295 -0.0046,-0.522 0.04086,-2.505 0.906345,-5.1935 0,0 1.416199,-4.1571 1.855848,-6.8191 0.07078,-0.32 0.106459,-0.648 0.115091,-0.9927 0.01151,-0.1853 0.0098,-0.3551 0,-0.5035 -0.0017,-0.032 -0.004,-0.059 -0.01439,-0.086 -0.129478,-1.4927 -0.885628,-2.7633 -1.942167,-3.4239 0,0 -0.05006,-0.043 -0.158251,-0.1007 -0.218098,-0.1203 -0.452309,-0.2072 -0.690548,-0.2734 C 25.32471,1022.1181 24.535183,1021.9497 23.469725,1021.9581 Z"
         id="path4086"
         inkscape:connector-curvature="0" />
    </g>
    <g
       id="g4080"
       inkscape:label="Capa 1"
       transform="matrix(0.93088302,0,0,0.93088302,1.6588074,71.445937)"
       style="fill:#000000;fill-opacity:0.11764706">
      <path
         inkscape:connector-curvature="0"
         id="path4082"
         d="m 26.980011,1012.3624 c -2.342684,0 -4.243994,1.7908 -4.243994,3.9994 0,2.208 1.90131,3.9995 4.243994,3.9995 2.341534,0 4.243994,-1.7915 4.243994,-3.9995 C 31.224005,1014.1532 29.321545,1012.3624 26.980011,1012.3624 z m -3.510286,9.5957 c -1.065458,0.01 -2.407999,0.1914 -4.042584,0.705 0,0 -2.042871,0.5829 -2.575169,1.5249 0,0 -0.380377,0.6762 0.56107,0.6043 0,0 4.013236,-0.3223 4.013811,1.4386 -0.0063,0.1018 -0.01439,0.2124 -0.01439,0.3165 0,0.1364 0.004,0.2688 0.01439,0.4028 0,0 -0.01381,1.1417 -0.546684,3.3808 0,0 -1.936412,6.8595 -2.114803,8.1715 -0.115667,0.4138 -0.172637,0.8661 -0.172637,1.3236 0,1.5174 0.683642,2.841 1.711984,3.5822 0,0 0.03913,0.03 0.129477,0.086 0.19508,0.1272 0.403396,0.2331 0.618616,0.3165 1.072652,0.4569 3.299094,1.0024 6.718458,-0.072 0,0 2.044022,-0.583 2.575169,-1.525 0,0 0.379801,-0.6761 -0.56107,-0.6042 0,0 -4.013236,0.3228 -4.013811,-1.4387 0.0075,-0.1156 0.01439,-0.2417 0.01439,-0.3596 0,-0.046 0.0012,-0.083 0,-0.1295 -0.0046,-0.522 0.04086,-2.505 0.906345,-5.1935 0,0 1.416199,-4.1571 1.855848,-6.8191 0.07078,-0.32 0.106459,-0.648 0.115091,-0.9927 0.01151,-0.1853 0.0098,-0.3551 0,-0.5035 -0.0017,-0.032 -0.004,-0.059 -0.01439,-0.086 -0.129478,-1.4927 -0.885628,-2.7633 -1.942167,-3.4239 0,0 -0.05006,-0.043 -0.158251,-0.1007 -0.218098,-0.1203 -0.452309,-0.2072 -0.690548,-0.2734 C 25.32471,1022.1181 24.535183,1021.9497 23.469725,1021.9581 Z"
         style="fill:#000000;fill-opacity:0.11764706;fill-rule:nonzero;stroke:none" />
    </g>
    <path
       inkscape:connector-curvature="0"
       style="fill:#000000;fill-opacity:1;stroke:none"
       d="m -5.9033203e-7,1049.3622 0,1.0625 c 0,1.0773 0.86022300033203,1.9375 1.93749999033203,1.9375 l 44.1249996,0 c 1.077277,0 1.9375,-0.8602 1.9375,-1.9375 l 0,-1.0625 c 0,1.0773 -0.860223,1.9375 -1.9375,1.9375 l -44.1249996,0 C 0.86022241,1051.2997 -5.9033203e-7,1050.4395 -5.9033203e-7,1049.3622 Z"
       id="rect846" />
    <path
       inkscape:connector-curvature="0"
       style="fill:#ffffff;fill-opacity:0.5372549;stroke:none"
       d="m 2.5312494,1005.0185 c -0.917089,0 -1.67114699,0.6395 -1.84374999,1.5 0.33561199,-0.2799 0.77451199,-0.4375 1.24999999,-0.4375 l 44.1249996,0 c 0.475488,0 0.914388,0.1576 1.25,0.4375 -0.172603,-0.8605 -0.926662,-1.5 -1.84375,-1.5 L 2.5312494,1005.0185 Z"
       id="path7515" />
    <path
       inkscape:connector-curvature="0"
       style="fill:#000000;fill-opacity:0.39215686;stroke:none"
       d="m 1.9374994,1004.3622 c -1.07727699,0 -1.93749999033203,0.8602 -1.93749999033203,1.9375 l 0,43.0625 c 0,0.7934 0.48002400033203,1.449 1.15624999033203,1.75 -0.30934199,-0.3333 -0.49999999,-0.7824 -0.49999999,-1.2812 l 0,-42.9375 c 0,-1.0482 0.82689899,-1.875 1.87499999,-1.875 l 42.9374996,0 c 1.048101,0 1.875,0.8268 1.875,1.875 l 0,42.9375 c 0,0.4988 -0.190658,0.9479 -0.5,1.2812 0.676226,-0.301 1.15625,-0.9566 1.15625,-1.75 l 0,-43.0625 c 0,-1.0773 -0.860223,-1.9375 -1.9375,-1.9375 L 1.9374994,1004.3622 Z"
       id="rect4280" />
    <g
       style="fill:#000000;fill-opacity:0.23529412"
       transform="matrix(0.93088302,0,0,0.93088302,1.6588074,70.708584)"
       inkscape:label="Capa 1"
       id="g4072">
      <path
         style="fill:#000000;fill-opacity:0.23529412;fill-rule:nonzero;stroke:none"
         d="m 26.980011,1012.3624 c -2.342684,0 -4.243994,1.7908 -4.243994,3.9994 0,2.208 1.90131,3.9995 4.243994,3.9995 2.341534,0 4.243994,-1.7915 4.243994,-3.9995 C 31.224005,1014.1532 29.321545,1012.3624 26.980011,1012.3624 z m -3.510286,9.5957 c -1.065458,0.01 -2.407999,0.1914 -4.042584,0.705 0,0 -2.042871,0.5829 -2.575169,1.5249 0,0 -0.380377,0.6762 0.56107,0.6043 0,0 4.013236,-0.3223 4.013811,1.4386 -0.0063,0.1018 -0.01439,0.2124 -0.01439,0.3165 0,0.1364 0.004,0.2688 0.01439,0.4028 0,0 -0.01381,1.1417 -0.546684,3.3808 0,0 -1.936412,6.8595 -2.114803,8.1715 -0.115667,0.4138 -0.172637,0.8661 -0.172637,1.3236 0,1.5174 0.683642,2.841 1.711984,3.5822 0,0 0.03913,0.03 0.129477,0.086 0.19508,0.1272 0.403396,0.2331 0.618616,0.3165 1.072652,0.4569 3.299094,1.0024 6.718458,-0.072 0,0 2.044022,-0.583 2.575169,-1.525 0,0 0.379801,-0.6761 -0.56107,-0.6042 0,0 -4.013236,0.3228 -4.013811,-1.4387 0.0075,-0.1156 0.01439,-0.2417 0.01439,-0.3596 0,-0.046 0.0012,-0.083 0,-0.1295 -0.0046,-0.522 0.04086,-2.505 0.906345,-5.1935 0,0 1.416199,-4.1571 1.855848,-6.8191 0.07078,-0.32 0.106459,-0.648 0.115091,-0.9927 0.01151,-0.1853 0.0098,-0.3551 0,-0.5035 -0.0017,-0.032 -0.004,-0.059 -0.01439,-0.086 -0.129478,-1.4927 -0.885628,-2.7633 -1.942167,-3.4239 0,0 -0.05006,-0.043 -0.158251,-0.1007 -0.218098,-0.1203 -0.452309,-0.2072 -0.690548,-0.2734 C 25.32471,1022.1181 24.535183,1021.9497 23.469725,1021.9581 Z"
         id="path4074"
         inkscape:connector-curvature="0" />
    </g>
    <g
       id="layer1-4"
       inkscape:label="Capa 1"
       transform="matrix(0.93088302,0,0,0.93088302,1.6588074,69.971231)"
       style="fill:url(#linearGradient4068);fill-opacity:1">
      <path
         inkscape:connector-curvature="0"
         id="path1640"
         d="m 26.980011,1012.3624 c -2.342684,0 -4.243994,1.7908 -4.243994,3.9994 0,2.208 1.90131,3.9995 4.243994,3.9995 2.341534,0 4.243994,-1.7915 4.243994,-3.9995 C 31.224005,1014.1532 29.321545,1012.3624 26.980011,1012.3624 z m -3.510286,9.5957 c -1.065458,0.01 -2.407999,0.1914 -4.042584,0.705 0,0 -2.042871,0.5829 -2.575169,1.5249 0,0 -0.380377,0.6762 0.56107,0.6043 0,0 4.013236,-0.3223 4.013811,1.4386 -0.0063,0.1018 -0.01439,0.2124 -0.01439,0.3165 0,0.1364 0.004,0.2688 0.01439,0.4028 0,0 -0.01381,1.1417 -0.546684,3.3808 0,0 -1.936412,6.8595 -2.114803,8.1715 -0.115667,0.4138 -0.172637,0.8661 -0.172637,1.3236 0,1.5174 0.683642,2.841 1.711984,3.5822 0,0 0.03913,0.03 0.129477,0.086 0.19508,0.1272 0.403396,0.2331 0.618616,0.3165 1.072652,0.4569 3.299094,1.0024 6.718458,-0.072 0,0 2.044022,-0.583 2.575169,-1.525 0,0 0.379801,-0.6761 -0.56107,-0.6042 0,0 -4.013236,0.3228 -4.013811,-1.4387 0.0075,-0.1156 0.01439,-0.2417 0.01439,-0.3596 0,-0.046 0.0012,-0.083 0,-0.1295 -0.0046,-0.522 0.04086,-2.505 0.906345,-5.1935 0,0 1.416199,-4.1571 1.855848,-6.8191 0.07078,-0.32 0.106459,-0.648 0.115091,-0.9927 0.01151,-0.1853 0.0098,-0.3551 0,-0.5035 -0.0017,-0.032 -0.004,-0.059 -0.01439,-0.086 -0.129478,-1.4927 -0.885628,-2.7633 -1.942167,-3.4239 0,0 -0.05006,-0.043 -0.158251,-0.1007 -0.218098,-0.1203 -0.452309,-0.2072 -0.690548,-0.2734 C 25.32471,1022.1181 24.535183,1021.9497 23.469725,1021.9581 Z"
         style="fill:url(#linearGradient4070);fill-opacity:1;fill-rule:nonzero;stroke:none" />
    </g>
  </g>
</svg>
