<?xml version="1.0" encoding="UTF-8" standalone="no"?>
<!-- Created with Inkscape (http://www.inkscape.org/) -->

<svg
   xmlns:dc="http://purl.org/dc/elements/1.1/"
   xmlns:cc="http://creativecommons.org/ns#"
   xmlns:rdf="http://www.w3.org/1999/02/22-rdf-syntax-ns#"
   xmlns:svg="http://www.w3.org/2000/svg"
   xmlns="http://www.w3.org/2000/svg"
   xmlns:xlink="http://www.w3.org/1999/xlink"
   xmlns:sodipodi="http://sodipodi.sourceforge.net/DTD/sodipodi-0.dtd"
   xmlns:inkscape="http://www.inkscape.org/namespaces/inkscape"
   width="48"
   height="48"
   id="svg5453"
   version="1.1"
   inkscape:version="0.48+devel r12399"
   sodipodi:docname="love-app.svg">
  <defs
     id="defs5455">
    <linearGradient
       inkscape:collect="always"
       id="linearGradient4581">
      <stop
         style="stop-color:#4595d1;stop-opacity:1"
         offset="0"
         id="stop4583" />
      <stop
         style="stop-color:#83c0f0;stop-opacity:1"
         offset="1"
         id="stop4585" />
    </linearGradient>
    <linearGradient
       inkscape:collect="always"
       xlink:href="#linearGradient4581"
       id="linearGradient4587"
       x1="408.9433"
       y1="-547.80884"
       x2="408.9433"
       y2="-499.78473"
       gradientUnits="userSpaceOnUse" />
  </defs>
  <sodipodi:namedview
     id="base"
     pagecolor="#ffffff"
     bordercolor="#666666"
     borderopacity="1.0"
     inkscape:pageopacity="0"
     inkscape:pageshadow="2"
     inkscape:zoom="5.6568542"
     inkscape:cx="1.3020367"
     inkscape:cy="35.85441"
     inkscape:document-units="px"
     inkscape:current-layer="layer1"
     showgrid="false"
     fit-margin-top="0"
     fit-margin-left="0"
     fit-margin-right="0"
     fit-margin-bottom="0"
     inkscape:window-width="1366"
     inkscape:window-height="714"
     inkscape:window-x="0"
     inkscape:window-y="30"
     inkscape:window-maximized="1" />
  <metadata
     id="metadata5458">
    <rdf:RDF>
      <cc:Work
         rdf:about="">
        <dc:format>image/svg+xml</dc:format>
        <dc:type
           rdf:resource="http://purl.org/dc/dcmitype/StillImage" />
        <dc:title />
      </cc:Work>
    </rdf:RDF>
  </metadata>
  <g
     inkscape:label="Capa 1"
     inkscape:groupmode="layer"
     id="layer1"
     transform="translate(-384.57143,-499.798)">
    <rect
       style="fill:url(#linearGradient4587);fill-opacity:1;stroke:none"
       id="rect2991-1-7"
       width="48"
       height="48"
       x="384.57144"
       y="-547.79797"
       ry="1.9445436"
       transform="scale(1,-1)" />
    <path
       inkscape:connector-curvature="0"
       style="fill:#000000;fill-opacity:1;stroke:none"
       d="m 384.57143,544.79799 0,1.0625 c 0,1.0773 0.86022,1.9375 1.9375,1.9375 l 44.125,0 c 1.07728,0 1.9375,-0.8602 1.9375,-1.9375 l 0,-1.0625 c 0,1.0773 -0.86022,1.9375 -1.9375,1.9375 l -44.125,0 C 385.43165,546.73549 384.57143,545.87529 384.57143,544.79799 Z"
       id="rect846" />
    <path
       inkscape:connector-curvature="0"
       style="fill:#ffffff;fill-opacity:0.5372549;stroke:none"
       d="m 387.10268,500.45429 c -0.91709,0 -1.67115,0.6395 -1.84375,1.5 0.33561,-0.2799 0.77451,-0.4375 1.25,-0.4375 l 44.125,0 c 0.47549,0 0.91439,0.1576 1.25,0.4375 -0.1726,-0.8605 -0.92666,-1.5 -1.84375,-1.5 L 387.10268,500.45429 Z"
       id="path7515" />
    <path
       inkscape:connector-curvature="0"
       style="fill:#000000;fill-opacity:0.39215686;stroke:none"
       d="m 386.50893,499.79799 c -1.07728,0 -1.9375,0.8602 -1.9375,1.9375 l 0,43.0625 c 0,0.7934 0.48002,1.449 1.15625,1.75 -0.30934,-0.3333 -0.5,-0.7824 -0.5,-1.2812 l 0,-42.9375 c 0,-1.0482 0.8269,-1.875 1.875,-1.875 l 42.9375,0 c 1.0481,0 1.875,0.8268 1.875,1.875 l 0,42.9375 c 0,0.4988 -0.19066,0.9479 -0.5,1.2812 0.67623,-0.301 1.15625,-0.9566 1.15625,-1.75 l 0,-43.0625 c 0,-1.0773 -0.86022,-1.9375 -1.9375,-1.9375 L 386.50893,499.79799 Z"
       id="rect4280" />
    <g
       id="g4593">
      <path
         inkscape:connector-curvature="0"
         style="fill:#ffffff;fill-opacity:0.05882353;stroke:none"
         d="m 404.40122,508.98194 c -1.27688,0 -2.312,1.03511 -2.312,2.31199 0,1.27688 1.03512,2.31199 2.312,2.31199 1.27688,0 2.31198,-1.03511 2.31198,-2.31199 C 406.7132,510.01705 405.6781,508.98194 404.40122,508.98194 z m 8.3401,0 c -1.27688,0 -2.31199,1.03511 -2.31199,2.31199 0,1.27688 1.03511,2.31199 2.31199,2.31199 1.27688,0 2.31199,-1.03511 2.31199,-2.31199 C 415.05331,510.01705 414.0182,508.98194 412.74132,508.98194 z m -4.17005,7.16835 c -6.53013,0 -11.82385,5.29372 -11.82385,11.82386 0,6.53013 5.29372,11.82385 11.82385,11.82385 6.53014,0 11.82385,-5.29372 11.82385,-11.82385 C 420.39512,521.44401 415.10141,516.15029 408.57127,516.15029 z m -1e-5,2.50205 c 5.14831,0 9.32183,4.17352 9.32183,9.32182 0,5.14829 -4.17352,9.32182 -9.32183,9.32182 -5.14829,0 -9.32182,-4.17353 -9.32182,-9.32182 C 399.24944,522.82586 403.42297,518.65234 408.57126,518.65234 Z"
         id="path4613" />
      <path
         id="path4611"
         d="m 404.40122,508.62257 c -1.27688,0 -2.312,1.03512 -2.312,2.31199 0,1.27688 1.03512,2.31199 2.312,2.31199 1.27688,0 2.31198,-1.03511 2.31198,-2.31199 C 406.7132,509.65769 405.6781,508.62257 404.40122,508.62257 z m 8.3401,0 c -1.27688,0 -2.31199,1.03512 -2.31199,2.31199 0,1.27688 1.03511,2.31199 2.31199,2.31199 1.27688,0 2.31199,-1.03511 2.31199,-2.31199 C 415.05331,509.65769 414.0182,508.62257 412.74132,508.62257 z m -4.17005,7.16835 c -6.53013,0 -11.82385,5.29373 -11.82385,11.82386 0,6.53013 5.29372,11.82385 11.82385,11.82385 6.53014,0 11.82385,-5.29372 11.82385,-11.82385 C 420.39512,521.08465 415.10141,515.79092 408.57127,515.79092 z m -1e-5,2.50205 c 5.14831,0 9.32183,4.17352 9.32183,9.32182 0,5.1483 -4.17352,9.32182 -9.32183,9.32182 -5.14829,0 -9.32182,-4.17352 -9.32182,-9.32182 C 399.24944,522.46649 403.42297,518.29297 408.57126,518.29297 Z"
         style="fill:#ffffff;fill-opacity:0.11764706;stroke:none"
         inkscape:connector-curvature="0" />
      <path
         inkscape:connector-curvature="0"
         style="fill:#ffffff;fill-opacity:0.23529412;stroke:none"
         d="m 404.40122,508.18948 c -1.27688,0 -2.312,1.03512 -2.312,2.312 0,1.27688 1.03512,2.31198 2.312,2.31198 1.27688,0 2.31198,-1.0351 2.31198,-2.31198 C 406.7132,509.2246 405.6781,508.18948 404.40122,508.18948 z m 8.3401,0 c -1.27688,0 -2.31199,1.03512 -2.31199,2.312 0,1.27688 1.03511,2.31198 2.31199,2.31198 1.27688,0 2.31199,-1.0351 2.31199,-2.31198 C 415.05331,509.2246 414.0182,508.18948 412.74132,508.18948 z m -4.17005,7.16836 c -6.53013,0 -11.82385,5.29372 -11.82385,11.82386 0,6.53012 5.29372,11.82385 11.82385,11.82385 6.53014,0 11.82385,-5.29373 11.82385,-11.82385 C 420.39512,520.65156 415.10141,515.35784 408.57127,515.35784 z m -1e-5,2.50205 c 5.14831,0 9.32183,4.17352 9.32183,9.32182 0,5.14829 -4.17352,9.32181 -9.32183,9.32181 -5.14829,0 -9.32182,-4.17352 -9.32182,-9.32181 C 399.24944,522.03341 403.42297,517.85989 408.57126,517.85989 Z"
         id="path4607" />
      <path
         inkscape:connector-curvature="0"
         id="path4589"
         d="m 404.40122,507.798 c -1.27688,0 -2.312,1.03512 -2.312,2.31199 0,1.27688 1.03512,2.312 2.312,2.312 1.27688,0 2.31198,-1.03512 2.31198,-2.312 C 406.7132,508.83312 405.6781,507.798 404.40122,507.798 z m 8.3401,0 c -1.27688,0 -2.31199,1.03512 -2.31199,2.31199 0,1.27688 1.03511,2.312 2.31199,2.312 1.27688,0 2.31199,-1.03512 2.31199,-2.312 C 415.05331,508.83312 414.0182,507.798 412.74132,507.798 z m -4.17005,7.16835 c -6.53013,0 -11.82385,5.29373 -11.82385,11.82386 0,6.53013 5.29372,11.82385 11.82385,11.82385 6.53014,0 11.82385,-5.29372 11.82385,-11.82385 C 420.39512,520.26008 415.10141,514.96635 408.57127,514.96635 z m -1e-5,2.50205 c 5.14831,0 9.32183,4.17352 9.32183,9.32182 0,5.1483 -4.17352,9.32182 -9.32183,9.32182 -5.14829,0 -9.32182,-4.17352 -9.32182,-9.32182 C 399.24944,521.64192 403.42297,517.4684 408.57126,517.4684 Z"
         style="fill:#ffffff;fill-opacity:1;stroke:none" />
      <path
         inkscape:connector-curvature="0"
         id="path4615"
         d="m 404.40122,507.798 c -1.27688,0 -2.312,1.03512 -2.312,2.31199 0,0.06 0.0132,0.11626 0.0177,0.17508 0.091,-1.19359 1.07744,-2.13692 2.29434,-2.13692 1.21691,0 2.20335,0.94333 2.29434,2.13694 0.004,-0.0588 0.0177,-0.11512 0.0177,-0.1751 C 406.7132,508.83312 405.6781,507.798 404.40122,507.798 z m 8.3401,0 c -1.27688,0 -2.31199,1.03512 -2.31199,2.31199 0,0.06 0.0132,0.11626 0.0177,0.17508 0.091,-1.19359 1.07744,-2.13692 2.29435,-2.13692 1.21691,0 2.20334,0.94333 2.29433,2.13694 0.004,-0.0588 0.0177,-0.11512 0.0177,-0.1751 C 415.05331,508.83312 414.0182,507.798 412.74132,507.798 z m -4.17005,7.16835 c -6.53013,0 -11.82385,5.29373 -11.82385,11.82386 0,0.0591 0.008,0.11618 0.009,0.17508 0.0946,-6.44852 5.34398,-11.64879 11.81501,-11.64879 6.47103,0 11.72038,5.20027 11.81501,11.64879 8.3e-4,-0.0589 0.009,-0.11597 0.009,-0.17508 C 420.39512,520.26008 415.10141,514.96635 408.57127,514.96635 z m 9.31298,11.99895 c -0.0943,5.06664 -4.22379,9.14674 -9.31299,9.14674 -5.08919,0 -9.21867,-4.0801 -9.31298,-9.14674 -8.3e-4,0.0589 -0.009,0.11597 -0.009,0.17507 0,5.1483 4.17353,9.32182 9.32182,9.32182 5.14831,0 9.32183,-4.17352 9.32183,-9.32182 C 417.89309,527.08127 417.88534,527.02414 417.88425,526.9653 Z"
         style="fill:#000000;fill-opacity:0.19607843;stroke:none" />
      <path
         inkscape:connector-curvature="0"
         style="fill:#000000;fill-opacity:0.11933737;stroke:none"
         d="m 404.40122,508.14815 c -1.27688,0 -2.312,1.03512 -2.312,2.31199 0,0.06 0.0132,0.11626 0.0177,0.17509 0.091,-1.1936 1.07744,-2.13693 2.29434,-2.13693 1.21691,0 2.20335,0.94333 2.29434,2.13695 0.004,-0.0588 0.0177,-0.11512 0.0177,-0.17511 C 406.7132,509.18327 405.6781,508.14815 404.40122,508.14815 z m 8.3401,0 c -1.27688,0 -2.31199,1.03512 -2.31199,2.31199 0,0.06 0.0132,0.11626 0.0177,0.17509 0.091,-1.1936 1.07744,-2.13693 2.29435,-2.13693 1.21691,0 2.20334,0.94333 2.29433,2.13695 0.004,-0.0588 0.0177,-0.11512 0.0177,-0.17511 C 415.05331,509.18327 414.0182,508.14815 412.74132,508.14815 z m -4.17005,7.16835 c -6.53013,0 -11.82385,5.29373 -11.82385,11.82386 0,0.0591 0.008,0.11618 0.009,0.17508 0.0946,-6.44852 5.34398,-11.64878 11.81501,-11.64878 6.47103,0 11.72038,5.20026 11.81501,11.64878 8.3e-4,-0.0589 0.009,-0.11597 0.009,-0.17508 C 420.39512,520.61023 415.10141,515.3165 408.57127,515.3165 z m 9.31298,11.99895 c -0.0943,5.06665 -4.22379,9.14674 -9.31299,9.14674 -5.08919,0 -9.21867,-4.08009 -9.31298,-9.14674 -8.3e-4,0.0589 -0.009,0.11598 -0.009,0.17507 0,5.1483 4.17353,9.32182 9.32182,9.32182 5.14831,0 9.32183,-4.17352 9.32183,-9.32182 C 417.89309,527.43143 417.88534,527.3743 417.88425,527.31545 Z"
         id="path4621" />
      <path
         id="path4623"
         d="m 404.40122,508.48909 c -1.27688,0 -2.312,1.03512 -2.312,2.312 0,0.06 0.0132,0.11625 0.0177,0.17508 0.091,-1.1936 1.07744,-2.13692 2.29434,-2.13692 1.21691,0 2.20335,0.94333 2.29434,2.13694 0.004,-0.0588 0.0177,-0.11512 0.0177,-0.1751 C 406.7132,509.52421 405.6781,508.48909 404.40122,508.48909 z m 8.3401,0 c -1.27688,0 -2.31199,1.03512 -2.31199,2.312 0,0.06 0.0132,0.11625 0.0177,0.17508 0.091,-1.1936 1.07744,-2.13692 2.29435,-2.13692 1.21691,0 2.20334,0.94333 2.29433,2.13694 0.004,-0.0588 0.0177,-0.11512 0.0177,-0.1751 C 415.05331,509.52421 414.0182,508.48909 412.74132,508.48909 z m -4.17005,7.16836 c -6.53013,0 -11.82385,5.29372 -11.82385,11.82386 0,0.0591 0.008,0.11618 0.009,0.17507 0.0946,-6.44852 5.34398,-11.64878 11.81501,-11.64878 6.47103,0 11.72038,5.20026 11.81501,11.64878 8.3e-4,-0.0589 0.009,-0.11597 0.009,-0.17507 C 420.39512,520.95117 415.10141,515.65745 408.57127,515.65745 z m 9.31298,11.99894 c -0.0943,5.06666 -4.22379,9.14674 -9.31299,9.14674 -5.08919,0 -9.21867,-4.08008 -9.31298,-9.14674 -8.3e-4,0.0589 -0.009,0.11598 -0.009,0.17508 0,5.14829 4.17353,9.32182 9.32182,9.32182 5.14831,0 9.32183,-4.17353 9.32183,-9.32182 C 417.89309,527.77237 417.88534,527.71524 417.88425,527.65639 Z"
         style="fill:#000000;fill-opacity:0.05882353;stroke:none"
         inkscape:connector-curvature="0" />
    </g>
  </g>
</svg>
