<?xml version="1.0" encoding="UTF-8" standalone="no"?>
<!-- Created with Inkscape (http://www.inkscape.org/) -->

<svg
   xmlns:dc="http://purl.org/dc/elements/1.1/"
   xmlns:cc="http://creativecommons.org/ns#"
   xmlns:rdf="http://www.w3.org/1999/02/22-rdf-syntax-ns#"
   xmlns:svg="http://www.w3.org/2000/svg"
   xmlns="http://www.w3.org/2000/svg"
   xmlns:xlink="http://www.w3.org/1999/xlink"
   xmlns:sodipodi="http://sodipodi.sourceforge.net/DTD/sodipodi-0.dtd"
   xmlns:inkscape="http://www.inkscape.org/namespaces/inkscape"
   width="48"
   height="48"
   id="svg5453"
   version="1.1"
   inkscape:version="0.48+devel r12346"
   sodipodi:docname="mediafire-express.svg">
  <defs
     id="defs5455">
    <linearGradient
       inkscape:collect="always"
       id="linearGradient1359">
      <stop
         style="stop-color:#1c3145;stop-opacity:1"
         offset="0"
         id="stop1361" />
      <stop
         style="stop-color:#364552;stop-opacity:1"
         offset="1"
         id="stop1363" />
    </linearGradient>
    <linearGradient
       inkscape:collect="always"
       xlink:href="#linearGradient1359"
       id="linearGradient1365"
       x1="411.01413"
       y1="-547.79932"
       x2="411.01413"
       y2="-499.79099"
       gradientUnits="userSpaceOnUse" />
    <clipPath
       clipPathUnits="userSpaceOnUse"
       id="clipPath40">
      <path
         inkscape:connector-curvature="0"
         d="m 0,595.28 841.89,0 L 841.89,0 0,0 0,595.28 Z"
         id="path42" />
    </clipPath>
    <linearGradient
       x1="0"
       y1="0"
       x2="1"
       y2="0"
       gradientUnits="userSpaceOnUse"
       gradientTransform="matrix(-1.3336104e-6,30.398503,-30.398503,-1.3336104e-6,399.80763,507.8043)"
       spreadMethod="pad"
       id="linearGradient26-7">
      <stop
         style="stop-opacity:1;stop-color:#47c4ed"
         offset="0"
         id="stop28-0" />
      <stop
         style="stop-opacity:1;stop-color:#47c4ed"
         offset="0.09019779"
         id="stop30-2" />
      <stop
         style="stop-opacity:1;stop-color:#498bc9"
         offset="1"
         id="stop32-6" />
    </linearGradient>
  </defs>
  <sodipodi:namedview
     id="base"
     pagecolor="#ffffff"
     bordercolor="#666666"
     borderopacity="1.0"
     inkscape:pageopacity="0"
     inkscape:pageshadow="2"
     inkscape:zoom="8.0000001"
     inkscape:cx="14.622169"
     inkscape:cy="21.360775"
     inkscape:document-units="px"
     inkscape:current-layer="layer1"
     showgrid="false"
     fit-margin-top="0"
     fit-margin-left="0"
     fit-margin-right="0"
     fit-margin-bottom="0"
     inkscape:window-width="1366"
     inkscape:window-height="714"
     inkscape:window-x="0"
     inkscape:window-y="30"
     inkscape:window-maximized="1" />
  <metadata
     id="metadata5458">
    <rdf:RDF>
      <cc:Work
         rdf:about="">
        <dc:format>image/svg+xml</dc:format>
        <dc:type
           rdf:resource="http://purl.org/dc/dcmitype/StillImage" />
        <dc:title></dc:title>
      </cc:Work>
    </rdf:RDF>
  </metadata>
  <g
     inkscape:label="Capa 1"
     inkscape:groupmode="layer"
     id="layer1"
     transform="translate(-384.57143,-499.798)">
    <rect
       style="fill:url(#linearGradient1365);fill-opacity:1;stroke:none"
       id="rect2991-1-7"
       width="48"
       height="48"
       x="384.57144"
       y="-547.79797"
       ry="1.9445436"
       transform="scale(1,-1)" />
    <path
       inkscape:connector-curvature="0"
       style="fill:#000000;fill-opacity:1;stroke:none"
       d="m 384.57143,544.79799 0,1.0625 c 0,1.0773 0.86022,1.9375 1.9375,1.9375 l 44.125,0 c 1.07728,0 1.9375,-0.8602 1.9375,-1.9375 l 0,-1.0625 c 0,1.0773 -0.86022,1.9375 -1.9375,1.9375 l -44.125,0 C 385.43165,546.73549 384.57143,545.87529 384.57143,544.79799 Z"
       id="rect846" />
    <path
       inkscape:connector-curvature="0"
       style="fill:#ffffff;fill-opacity:0.5372549;stroke:none"
       d="m 387.10268,500.45429 c -0.91709,0 -1.67115,0.6395 -1.84375,1.5 0.33561,-0.2799 0.77451,-0.4375 1.25,-0.4375 l 44.125,0 c 0.47549,0 0.91439,0.1576 1.25,0.4375 -0.1726,-0.8605 -0.92666,-1.5 -1.84375,-1.5 L 387.10268,500.45429 Z"
       id="path7515" />
    <path
       style="fill:url(#linearGradient26-7);stroke:none"
       d="m 408.88422,507.798 c -4.79628,0 -10.67342,1.75103 -11.78532,4.69038 2.82725,-0.7339 5.16437,0.46912 5.75907,1.66242 0.73751,1.47934 -1.21744,2.96604 -8.28238,0.77183 -4.26497,-0.86386 -7.49494,-1.04995 -10.00416,-0.86089 l 0,10.18228 c 2.22355,0.4899 4.22276,1.5659 5.46221,3.62168 -1.54657,0.29006 -4.28948,1.6448 -4.48257,2.61237 1.83719,0.19281 6.58846,1.1369 11.16191,3.50294 7.58241,3.92207 9.12718,3.69618 9.70731,3.88886 l 0.35623,0.0594 c 21.75577,3.28818 30.3501,-24.93234 5.01692,-29.86406 C 410.91367,507.89278 409.92582,507.79814 408.88422,507.798 Z"
       id="path34"
       inkscape:connector-curvature="0" />
    <g
       transform="matrix(0.13891776,0,0,-0.13891776,340.951,573.25221)"
       id="g36">
      <g
         id="g38"
         clip-path="url(#clipPath40)">
        <g
           id="g44"
           transform="translate(518.6543,398.9268)">
          <path
             inkscape:connector-curvature="0"
             d="m 0,0 c 65.821,8.231 82.986,-93.141 -8.327,-85.302 -35.994,4.381 -75.818,34.293 -97.031,43.174 19.241,2.958 37.116,9.692 49.357,18.178 13.298,8.953 39.937,21.776 54.951,23.954"
             style="fill:#ffffff;fill-opacity:1;fill-rule:nonzero;stroke:none"
             id="path46" />
        </g>
      </g>
    </g>
    <path
       style="fill:#ffffff;fill-opacity:0.11764706;stroke:none"
       d="m 399.11754,512.2509 c -0.53655,-0.0242 -1.12379,0.05 -1.72178,0.17811 -0.1205,0.19168 -0.21998,0.3905 -0.29686,0.59372 2.82725,-0.7339 5.16437,0.46912 5.75907,1.66241 0.0461,0.0924 0.0942,0.17556 0.11875,0.26718 0.067,-0.25358 0.0196,-0.52415 -0.11875,-0.80152 C 402.41194,513.25583 400.99548,512.33557 399.11754,512.2509 z m 28.17196,11.1916 c -0.28713,8.29432 -8.33423,16.32745 -20.51298,14.48674 l -0.35623,-0.0594 c -0.58013,-0.19268 -2.1249,0.0333 -9.70731,-3.88886 -4.40851,-2.28071 -8.92507,-3.20463 -10.89474,-3.44357 -0.13676,0.1619 -0.23747,0.32613 -0.26717,0.47497 1.83719,0.19282 6.58846,1.1369 11.16191,3.50295 7.58241,3.92206 9.12718,3.69618 9.70731,3.88885 l 0.35623,0.0594 C 419.21656,540.34378 427.33836,531.9217 427.2895,523.4425 z m -42.71807,0.80152 0,0.53435 c 2.04955,0.45331 3.88607,1.41489 5.13567,3.17639 0.1114,-0.028 0.22449,-0.07 0.32654,-0.0891 C 388.79419,525.80987 386.79498,524.73392 384.57143,524.24402 Z"
       id="path1454"
       inkscape:connector-curvature="0" />
    <path
       style="fill:#ffffff;fill-opacity:0.05882353;stroke:none"
       d="m 399.08786,512.78524 c -0.53655,-0.0242 -1.12379,0.05 -1.72179,0.17812 -0.1205,0.19168 -0.21998,0.3905 -0.29686,0.59372 2.82725,-0.7339 5.16437,0.46911 5.75908,1.66241 0.0461,0.0924 0.0942,0.17556 0.11874,0.26717 0.067,-0.25358 0.0196,-0.52414 -0.11874,-0.80152 C 402.38226,513.79018 400.96579,512.86991 399.08786,512.78524 z m 28.17196,11.1916 c -0.28713,8.29432 -8.33424,16.32746 -20.51299,14.48675 l -0.35623,-0.0594 c -0.58013,-0.19267 -2.1249,0.0332 -9.7073,-3.88885 -4.40851,-2.28071 -8.92507,-3.20463 -10.89475,-3.44357 -0.13676,0.1619 -0.23746,0.32612 -0.26717,0.47497 1.83719,0.19281 6.58847,1.1369 11.16192,3.50294 7.5824,3.92207 9.12717,3.69618 9.7073,3.88886 l 0.35623,0.0594 C 419.18688,540.87813 427.30867,532.45604 427.25982,523.97684 z m -42.68839,0.80153 0,0.53434 c 2.03303,0.45727 3.86475,1.42669 5.10598,3.1764 0.1114,-0.028 0.22449,-0.07 0.32655,-0.0891 C 388.76966,526.35277 386.78387,525.27123 384.57143,524.77837 Z"
       id="path1459"
       inkscape:connector-curvature="0" />
    <path
       style="fill:#ffffff;fill-opacity:0.02745098;stroke:none"
       d="m 399.08786,513.31959 c -0.53655,-0.0242 -1.12379,0.05 -1.72179,0.17812 -0.1205,0.19168 -0.21998,0.39049 -0.29686,0.59372 2.82725,-0.73391 5.16437,0.46911 5.75908,1.66241 0.0461,0.0924 0.0942,0.17556 0.11874,0.26717 0.067,-0.25358 0.0196,-0.52414 -0.11874,-0.80152 C 402.38226,514.32452 400.96579,513.40426 399.08786,513.31959 z m 28.17196,11.1916 c -0.28713,8.29432 -8.33424,16.32745 -20.51299,14.48674 l -0.35623,-0.0594 c -0.58013,-0.19268 -2.1249,0.0332 -9.7073,-3.88886 -4.40851,-2.2807 -8.92507,-3.20463 -10.89475,-3.44357 -0.13676,0.1619 -0.23746,0.32613 -0.26717,0.47498 1.83719,0.19281 6.58847,1.1369 11.16192,3.50294 7.5824,3.92207 9.12717,3.69618 9.7073,3.88886 l 0.35623,0.0594 C 419.18688,541.41248 427.30867,532.99039 427.25982,524.51119 z m -42.68839,0.80152 0,0.53435 c 2.03303,0.45727 3.86475,1.42668 5.10598,3.1764 0.1114,-0.028 0.22449,-0.07 0.32655,-0.0891 C 388.76966,526.88712 386.78387,525.80558 384.57143,525.31271 Z"
       id="path1461"
       inkscape:connector-curvature="0" />
    <path
       style="fill:#000000;fill-opacity:0.23512507;stroke:none"
       d="m 408.88422,507.798 c -4.79628,0 -10.67342,1.75103 -11.78532,4.69038 0.0703,-0.0182 0.13808,-0.0138 0.2078,-0.0297 1.46601,-2.69957 7.00107,-4.30446 11.57752,-4.30446 1.0416,1.3e-4 2.02945,0.0948 2.90922,0.26717 10.2916,2.00351 14.9812,7.8764 15.46638,13.89302 -0.31339,-6.15024 -4.9559,-12.20313 -15.46638,-14.24925 C 410.91367,507.89273 409.92582,507.79814 408.88422,507.798 z m -22.59101,6.20437 c -0.61523,0.003 -1.17677,0.0199 -1.72178,0.0594 l 0,0.35623 c 2.50922,-0.18906 5.73919,-0.003 10.00416,0.86089 6.38107,1.98181 8.57599,0.97967 8.40113,-0.32654 -0.29019,1.09884 -2.66086,1.75305 -8.40113,-0.0297 C 391.23338,514.24567 388.5216,513.99198 386.29321,514.00237 z m 3.53263,13.92271 c -1.5716,0.36127 -4.08981,1.62617 -4.27477,2.55299 0.0438,0.005 0.13104,0.0243 0.17811,0.0297 0.65107,-0.91702 2.93832,-2.0296 4.30446,-2.28581 C 389.96902,528.11479 389.89453,528.02708 389.82584,527.92508 Z"
       id="path1463"
       inkscape:connector-curvature="0" />
    <path
       style="fill:#000000;fill-opacity:0.11637932;stroke:none"
       d="m 408.88422,508.15424 c -4.79628,0 -10.67342,1.75102 -11.78532,4.69038 0.0703,-0.0182 0.13808,-0.0138 0.2078,-0.0297 1.46601,-2.69957 7.00107,-4.30446 11.57752,-4.30446 1.0416,1.3e-4 2.02945,0.0948 2.90922,0.26717 10.2916,2.00351 14.9812,7.8764 15.46638,13.89302 -0.31339,-6.15024 -4.9559,-12.20312 -15.46638,-14.24925 C 410.91367,508.24897 409.92582,508.15437 408.88422,508.15424 z m -22.59101,6.20436 c -0.61523,0.003 -1.17677,0.0199 -1.72178,0.0594 l 0,0.35623 c 2.50922,-0.18906 5.73919,-0.003 10.00416,0.86089 6.38107,1.98181 8.57599,0.97967 8.40113,-0.32654 -0.29019,1.09885 -2.66086,1.75306 -8.40113,-0.0297 C 391.23338,514.60191 388.5216,514.34822 386.29321,514.3586 z m 3.53263,13.92271 c -1.5716,0.36127 -4.08981,1.62618 -4.27477,2.55299 0.0438,0.005 0.13104,0.0243 0.17811,0.0297 0.65107,-0.91702 2.93832,-2.02959 4.30446,-2.28581 C 389.96902,528.47102 389.89453,528.38331 389.82584,528.28131 Z"
       id="path1468"
       inkscape:connector-curvature="0" />
    <path
       style="fill:#000000;fill-opacity:0.05882353;stroke:none"
       d="m 408.88422,508.51047 c -4.79628,0 -10.67342,1.75102 -11.78532,4.69038 0.0703,-0.0182 0.13808,-0.0138 0.2078,-0.0297 1.46601,-2.69957 7.00107,-4.30446 11.57752,-4.30446 1.0416,1.3e-4 2.02945,0.0948 2.90922,0.26717 10.2916,2.00351 14.9812,7.8764 15.46638,13.89302 -0.31339,-6.15024 -4.9559,-12.20312 -15.46638,-14.24925 C 410.91367,508.6052 409.92582,508.5106 408.88422,508.51047 z m -22.59101,6.20436 c -0.61523,0.003 -1.17677,0.0199 -1.72178,0.0594 l 0,0.35623 c 2.50922,-0.18906 5.73919,-0.003 10.00416,0.8609 6.38107,1.9818 8.57599,0.97966 8.40113,-0.32655 -0.29019,1.09886 -2.66086,1.75306 -8.40113,-0.0297 C 391.23338,514.95814 388.5216,514.70445 386.29321,514.71483 z m 3.53263,13.92271 c -1.5716,0.36127 -4.08981,1.62618 -4.27477,2.55299 0.0438,0.005 0.13104,0.0243 0.17811,0.0297 0.65107,-0.91703 2.93832,-2.0296 4.30446,-2.28582 C 389.96902,528.82725 389.89453,528.73954 389.82584,528.63754 Z"
       id="path1470"
       inkscape:connector-curvature="0" />
    <path
       inkscape:connector-curvature="0"
       style="fill:#000000;fill-opacity:0.39215686;stroke:none"
       d="m 386.50893,499.79799 c -1.07728,0 -1.9375,0.8602 -1.9375,1.9375 l 0,43.0625 c 0,0.7934 0.48002,1.449 1.15625,1.75 -0.30934,-0.3333 -0.5,-0.7824 -0.5,-1.2812 l 0,-42.9375 c 0,-1.0482 0.8269,-1.875 1.875,-1.875 l 42.9375,0 c 1.0481,0 1.875,0.8268 1.875,1.875 l 0,42.9375 c 0,0.4988 -0.19066,0.9479 -0.5,1.2812 0.67623,-0.301 1.15625,-0.9566 1.15625,-1.75 l 0,-43.0625 c 0,-1.0773 -0.86022,-1.9375 -1.9375,-1.9375 L 386.50893,499.79799 Z"
       id="rect4280" />
  </g>
</svg>
