<?xml version="1.0" encoding="UTF-8" standalone="no"?>
<!-- Created with Inkscape (http://www.inkscape.org/) -->

<svg
   xmlns:dc="http://purl.org/dc/elements/1.1/"
   xmlns:cc="http://creativecommons.org/ns#"
   xmlns:rdf="http://www.w3.org/1999/02/22-rdf-syntax-ns#"
   xmlns:svg="http://www.w3.org/2000/svg"
   xmlns="http://www.w3.org/2000/svg"
   xmlns:xlink="http://www.w3.org/1999/xlink"
   xmlns:sodipodi="http://sodipodi.sourceforge.net/DTD/sodipodi-0.dtd"
   xmlns:inkscape="http://www.inkscape.org/namespaces/inkscape"
   width="48"
   height="48"
   id="svg2"
   version="1.1"
   inkscape:version="0.48+devel r12274"
   sodipodi:docname="playonlinux.svg">
  <defs
     id="defs4">
    <linearGradient
       inkscape:collect="always"
       id="linearGradient849">
      <stop
         style="stop-color:#438420;stop-opacity:1"
         offset="0"
         id="stop851" />
      <stop
         style="stop-color:#99cc45;stop-opacity:1"
         offset="1"
         id="stop853" />
    </linearGradient>
    <linearGradient
       inkscape:collect="always"
       xlink:href="#linearGradient849"
       id="linearGradient855"
       x1="24.395184"
       y1="-1052.7157"
       x2="24.395184"
       y2="-1004.986"
       gradientUnits="userSpaceOnUse" />
  </defs>
  <sodipodi:namedview
     id="base"
     pagecolor="#ffffff"
     bordercolor="#666666"
     borderopacity="1.0"
     inkscape:pageopacity="0.0"
     inkscape:pageshadow="2"
     inkscape:zoom="5.6568545"
     inkscape:cx="11.36977"
     inkscape:cy="26.390074"
     inkscape:document-units="px"
     inkscape:current-layer="layer1"
     showgrid="false"
     inkscape:window-width="1366"
     inkscape:window-height="716"
     inkscape:window-x="0"
     inkscape:window-y="28"
     inkscape:window-maximized="1" />
  <metadata
     id="metadata7">
    <rdf:RDF>
      <cc:Work
         rdf:about="">
        <dc:format>image/svg+xml</dc:format>
        <dc:type
           rdf:resource="http://purl.org/dc/dcmitype/StillImage" />
        <dc:title />
      </cc:Work>
    </rdf:RDF>
  </metadata>
  <g
     inkscape:label="Capa 1"
     inkscape:groupmode="layer"
     id="layer1"
     transform="translate(0,-1004.3622)">
    <rect
       style="fill:url(#linearGradient855);fill-opacity:1;stroke:none"
       id="rect2991-1"
       width="48"
       height="48"
       x="2.7205201e-07"
       y="-1052.3622"
       ry="1.9445436"
       transform="scale(1,-1)" />
    <path
       inkscape:connector-curvature="0"
       style="fill:#000000;fill-opacity:1;stroke:none"
       d="m -2.72052e-7,1049.3622 0,1.0625 c 0,1.0773 0.860222402052,1.9375 1.937499372052,1.9375 l 44.1250009,0 c 1.077277,0 1.9375,-0.8602 1.9375,-1.9375 l 0,-1.0625 c 0,1.0773 -0.860223,1.9375 -1.9375,1.9375 l -44.1250009,0 C 0.86022213,1051.2997 -2.72052e-7,1050.4395 -2.72052e-7,1049.3622 Z"
       id="rect846" />
    <path
       inkscape:connector-curvature="0"
       style="fill:#ffffff;fill-opacity:0.5372549;stroke:none"
       d="m 2.5312491,1005.0185 c -0.917088,0 -1.67114597,0.6395 -1.84374897,1.5 0.33561197,-0.2799 0.77451197,-0.4375 1.24999897,-0.4375 l 44.1250009,0 c 0.475488,0 0.914388,0.1576 1.25,0.4375 -0.172603,-0.8605 -0.926662,-1.5 -1.84375,-1.5 L 2.5312491,1005.0185 Z"
       id="path7515" />
    <path
       inkscape:connector-curvature="0"
       style="fill:#000000;fill-opacity:0.39215686;stroke:none"
       d="m 1.9374991,1004.3622 c -1.07727597,0 -1.937499372052,0.8602 -1.937499372052,1.9375 l 0,43.0625 c 0,0.7934 0.480023402052,1.449 1.156249372052,1.75 -0.30934097,-0.3333 -0.49999897,-0.7824 -0.49999897,-1.2812 l 0,-42.9375 c 0,-1.0482 0.82689797,-1.875 1.87499897,-1.875 l 42.9375009,0 c 1.048101,0 1.875,0.8268 1.875,1.875 l 0,42.9375 c 0,0.4988 -0.190658,0.9479 -0.5,1.2812 0.676226,-0.301 1.15625,-0.9566 1.15625,-1.75 l 0,-43.0625 c 0,-1.0773 -0.860223,-1.9375 -1.9375,-1.9375 L 1.9374991,1004.3622 Z"
       id="rect4280" />
    <path
       sodipodi:type="arc"
       style="fill:#000000;fill-opacity:0.5372549;stroke:none"
       id="path857"
       sodipodi:cx="22.273863"
       sodipodi:cy="24.311924"
       sodipodi:rx="13.611805"
       sodipodi:ry="13.611805"
       d="m 35.885668,24.311924 a 13.611805,13.611805 0 1 1 -27.2236101,0 A 13.611805,13.611805 0 1 1 35.885668,24.311924 Z"
       transform="matrix(1.1547194,0,0,1.1547194,-1.7200615,1000.0066)" />
    <path
       style="fill:#ffffff;fill-opacity:0.5372549;stroke:none"
       d="m 8.312884,1028.3374 c -0.00203,0.1041 -0.030699,0.2025 -0.030699,0.307 0,8.6807 7.037106,15.7178 15.717815,15.7178 8.68071,0 15.717815,-7.0371 15.717815,-15.7178 0,-0.1045 -0.02867,-0.2029 -0.0307,-0.307 -0.150427,8.5506 -7.100596,15.4416 -15.687116,15.4416 C 15.413481,1043.779 8.4633115,1036.888 8.312884,1028.3374 Z"
       id="path859"
       inkscape:connector-curvature="0" />
    <path
       inkscape:connector-curvature="0"
       id="path864"
       d="m 8.312884,1028.387 c -0.00203,-0.1041 -0.030699,-0.2025 -0.030699,-0.307 0,-8.6807 7.037106,-15.7178 15.717815,-15.7178 8.68071,0 15.717815,7.0371 15.717815,15.7178 0,0.1045 -0.02867,0.2029 -0.0307,0.307 -0.150427,-8.5506 -7.100596,-15.4416 -15.687116,-15.4416 C 15.413481,1012.9454 8.4633115,1019.8364 8.312884,1028.387 Z"
       style="fill:#000000;fill-opacity:0.5372549;stroke:none" />
    <path
       style="fill:#ffffff;fill-opacity:1"
       d="m 32.054661,1034.688 c 0.0057,-1.2295 0.0096,-3.1057 0.0096,-4.1695 l 0,-1.9341 -0.047,0 c -0.02583,0 -2.059777,-0.023 -4.519876,-0.049 -2.460091,-0.028 -4.562319,-0.049 -4.671615,-0.049 l -0.198712,0 0,3.2878 c 0,1.8084 0.0016,3.288 0.0039,3.2882 0.0023,0 2.110718,0.4189 4.686067,0.9309 2.57535,0.5115 4.692761,0.9309 4.705355,0.9316 C 32.042901,1036.923 32.045933,1036.7148 32.054661,1034.688 z m -10.232529,-2.9995 c 0.0049,-1.7661 0.0077,-3.2122 0.0059,-3.2136 -0.0031,0 -5.602714,-0.066 -5.7803,-0.066 l -0.111999,0 0,2.6588 0,2.6589 0.03251,0.01 c 0.02542,0.01 5.802202,1.1563 5.836246,1.1617 C 21.809233,1034.8993 21.817134,1033.4548 21.822132,1031.6885 z m -2.82248,-3.9568 c 1.331391,-0.014 2.513382,-0.03 2.626651,-0.031 l 0.20594,0 0,-3.2172 0,-3.2172 -0.03974,0.01 c -0.02183,0.01 -1.348512,0.2665 -2.948111,0.5834 l -2.908368,0.5759 -1.16e-4,2.6628 -2.35e-4,2.6628 0.321561,0 C 16.434231,1027.7602 17.668254,1027.7472 18.999652,1027.7317 z m 8.525676,-0.094 c 2.49133,-0.029 4.531787,-0.052 4.534347,-0.057 0.0028,0 0.0028,-1.881 0.0013,-4.1742 l -0.0039,-4.1695 -4.285027,0.8503 c -2.356764,0.4678 -4.476879,0.888 -4.711362,0.9343 l -0.426335,0.084 -0.0039,3.2906 -0.0039,3.2908 0.18429,0 C 22.912704,1027.6883 25.033998,1027.6656 27.525328,1027.6375 Z"
       id="path858"
       inkscape:connector-curvature="0"
       sodipodi:nodetypes="ssccsccssscsscccccscssccccssccccsssscssccccs" />
  </g>
</svg>
