<?xml version="1.0" encoding="UTF-8" standalone="no"?>
<!-- Created with Inkscape (http://www.inkscape.org/) -->

<svg
   xmlns:dc="http://purl.org/dc/elements/1.1/"
   xmlns:cc="http://creativecommons.org/ns#"
   xmlns:rdf="http://www.w3.org/1999/02/22-rdf-syntax-ns#"
   xmlns:svg="http://www.w3.org/2000/svg"
   xmlns="http://www.w3.org/2000/svg"
   xmlns:xlink="http://www.w3.org/1999/xlink"
   xmlns:sodipodi="http://sodipodi.sourceforge.net/DTD/sodipodi-0.dtd"
   xmlns:inkscape="http://www.inkscape.org/namespaces/inkscape"
   width="48"
   height="48"
   id="svg5453"
   version="1.1"
   inkscape:version="0.48+devel r12388"
   sodipodi:docname="preferences-system-notifications.svg">
  <defs
     id="defs5455">
    <linearGradient
       inkscape:collect="always"
       id="linearGradient4592">
      <stop
         style="stop-color:#88b135;stop-opacity:1"
         offset="0"
         id="stop4594" />
      <stop
         style="stop-color:#a5cc57;stop-opacity:1"
         offset="1"
         id="stop4596" />
    </linearGradient>
    <linearGradient
       inkscape:collect="always"
       xlink:href="#linearGradient4592"
       id="linearGradient4598"
       x1="410.53622"
       y1="-547.80322"
       x2="410.53622"
       y2="-499.7908"
       gradientUnits="userSpaceOnUse" />
    <linearGradient
       id="linearGradient896"
       inkscape:collect="always">
      <stop
         id="stop898"
         offset="0"
         style="stop-color:#ffffff;stop-opacity:1;" />
      <stop
         id="stop900"
         offset="1"
         style="stop-color:#ffffff;stop-opacity:0;" />
    </linearGradient>
    <linearGradient
       id="linearGradient853"
       inkscape:collect="always">
      <stop
         id="stop855"
         offset="0"
         style="stop-color:#edfbce;stop-opacity:1" />
      <stop
         id="stop857"
         offset="1"
         style="stop-color:#fbfff0;stop-opacity:1" />
    </linearGradient>
    <linearGradient
       gradientTransform="matrix(-1.2791504,0,0,1.3524243,436.37518,487.45353)"
       gradientUnits="userSpaceOnUse"
       y2="15.649865"
       x2="20.682873"
       y1="35.802406"
       x1="20.682873"
       id="linearGradient859"
       xlink:href="#linearGradient853"
       inkscape:collect="always" />
    <linearGradient
       gradientUnits="userSpaceOnUse"
       y2="17.209579"
       x2="25.25"
       y1="33.479038"
       x1="25.25"
       id="linearGradient902"
       xlink:href="#linearGradient896"
       inkscape:collect="always" />
  </defs>
  <sodipodi:namedview
     id="base"
     pagecolor="#ffffff"
     bordercolor="#666666"
     borderopacity="1.0"
     inkscape:pageopacity="0"
     inkscape:pageshadow="2"
     inkscape:zoom="5.6568543"
     inkscape:cx="9.0520258"
     inkscape:cy="24.100266"
     inkscape:document-units="px"
     inkscape:current-layer="layer1"
     showgrid="false"
     fit-margin-top="0"
     fit-margin-left="0"
     fit-margin-right="0"
     fit-margin-bottom="0"
     inkscape:window-width="1366"
     inkscape:window-height="714"
     inkscape:window-x="0"
     inkscape:window-y="30"
     inkscape:window-maximized="1" />
  <metadata
     id="metadata5458">
    <rdf:RDF>
      <cc:Work
         rdf:about="">
        <dc:format>image/svg+xml</dc:format>
        <dc:type
           rdf:resource="http://purl.org/dc/dcmitype/StillImage" />
        <dc:title></dc:title>
      </cc:Work>
    </rdf:RDF>
  </metadata>
  <g
     inkscape:label="Capa 1"
     inkscape:groupmode="layer"
     id="layer1"
     transform="translate(-384.57143,-499.798)">
    <rect
       style="fill:url(#linearGradient4598);fill-opacity:1;stroke:none"
       id="rect2991-1-7"
       width="48"
       height="48"
       x="384.57144"
       y="-547.79797"
       ry="1.9445436"
       transform="scale(1,-1)" />
    <path
       inkscape:connector-curvature="0"
       style="fill:#000000;fill-opacity:1;stroke:none"
       d="m 384.57143,544.79799 0,1.0625 c 0,1.0773 0.86022,1.9375 1.9375,1.9375 l 44.125,0 c 1.07728,0 1.9375,-0.8602 1.9375,-1.9375 l 0,-1.0625 c 0,1.0773 -0.86022,1.9375 -1.9375,1.9375 l -44.125,0 C 385.43165,546.73549 384.57143,545.87529 384.57143,544.79799 Z"
       id="rect846" />
    <path
       inkscape:connector-curvature="0"
       style="fill:#ffffff;fill-opacity:0.5372549;stroke:none"
       d="m 387.10268,500.45429 c -0.91709,0 -1.67115,0.6395 -1.84375,1.5 0.33561,-0.2799 0.77451,-0.4375 1.25,-0.4375 l 44.125,0 c 0.47549,0 0.91439,0.1576 1.25,0.4375 -0.1726,-0.8605 -0.92666,-1.5 -1.84375,-1.5 L 387.10268,500.45429 Z"
       id="path7515" />
    <path
       inkscape:connector-curvature="0"
       style="fill:#000000;fill-opacity:0.39215686;stroke:none"
       d="m 386.50893,499.79799 c -1.07728,0 -1.9375,0.8602 -1.9375,1.9375 l 0,43.0625 c 0,0.7934 0.48002,1.449 1.15625,1.75 -0.30934,-0.3333 -0.5,-0.7824 -0.5,-1.2812 l 0,-42.9375 c 0,-1.0482 0.8269,-1.875 1.875,-1.875 l 42.9375,0 c 1.0481,0 1.875,0.8268 1.875,1.875 l 0,42.9375 c 0,0.4988 -0.19066,0.9479 -0.5,1.2812 0.67623,-0.301 1.15625,-0.9566 1.15625,-1.75 l 0,-43.0625 c 0,-1.0773 -0.86022,-1.9375 -1.9375,-1.9375 L 386.50893,499.79799 Z"
       id="rect4280" />
    <text
       xml:space="preserve"
       style="font-size:40px;font-style:normal;font-variant:normal;font-weight:bold;font-stretch:normal;line-height:125%;letter-spacing:0px;word-spacing:0px;fill:#000000;fill-opacity:1;stroke:none;font-family:Impact;-inkscape-font-specification:Impact Bold"
       x="427.38031"
       y="468.09167"
       id="text818"
       sodipodi:linespacing="125%"><tspan
         sodipodi:role="line"
         id="tspan820"
         x="427.38031"
         y="468.09167" /></text>
    <g
       id="g5002">
      <path
         inkscape:connector-curvature="0"
         id="path851"
         d="m 408.55334,508.37397 c 9.61613,0 17.42907,6.14353 17.42907,13.73578 0,7.59224 -7.81294,13.77721 -17.42907,13.77721 -1.77478,0 -3.49105,-0.23278 -5.10423,-0.62247 l -8.34105,4.85531 2.03339,-7.63563 c -3.66423,-2.52019 -5.97568,-6.23627 -5.97568,-10.37442 C 391.16577,514.5175 398.93721,508.37397 408.55334,508.37397 Z"
         style="fill:url(#linearGradient859);fill-opacity:1;stroke:none" />
      <path
         inkscape:connector-curvature="0"
         id="path865"
         d="m 408.55334,508.37397 c 9.61613,0 17.42907,6.14353 17.42907,13.73578 0,0.0977 0.003,0.19361 0,0.29046 -0.19683,-7.45735 -7.93625,-13.44531 -17.42907,-13.44531 -9.4752,0 -17.16438,5.96575 -17.38757,13.40388 -0.002,-0.0833 0,-0.16575 0,-0.24903 C 391.16577,514.5175 398.93721,508.37397 408.55334,508.37397 z m -11.53638,24.60815 c 0.0409,0.0288 0.0833,0.0545 0.12449,0.0833 l -1.8674,6.9301 -0.16599,0.12451 L 397.01696,532.98212 Z"
         style="fill:#000000;fill-opacity:0.23634201;stroke:none" />
      <path
         inkscape:connector-curvature="0"
         id="path870"
         d="m 408.54212,508.95223 c 9.47924,0 17.19687,5.98827 17.41494,13.43071 -0.002,0.0751 0.003,0.15042 0,0.22497 -0.44997,-7.27577 -8.08754,-13.07733 -17.41494,-13.07733 -9.3647,0 -16.95875,5.82479 -17.35068,13.14159 -0.003,-0.0648 -0.0299,-0.12832 -0.0321,-0.19279 C 391.31104,514.99119 399.02116,508.95223 408.54212,508.95223 z m -11.53499,24.61226 c 0.0409,0.0288 0.0873,0.036 0.12853,0.0637 l -1.70294,6.29766 -0.12853,0.0967 L 397.00713,533.56449 Z"
         style="fill:#000000;fill-opacity:0.118171;stroke:none" />
      <path
         inkscape:connector-curvature="0"
         id="path872"
         d="m 408.54212,509.53058 c 9.36479,0 17.0212,5.82469 17.41494,13.14159 -0.005,0.0966 -0.0246,0.1933 -0.0321,0.28912 -0.59262,-7.16894 -8.15244,-12.85235 -17.38281,-12.85235 -9.25547,0 -16.7974,5.68814 -17.35068,12.88454 -0.004,-0.0524 0.004,-0.10817 0,-0.16071 C 391.47764,515.43958 399.10778,509.53058 408.54212,509.53058 z m -11.53499,24.61226 c 0.0409,0.0288 0.0873,0.036 0.12853,0.0638 l -1.51016,5.62296 -0.16065,0.0637 L 397.00713,534.14284 Z"
         style="fill:#000000;fill-opacity:0.05882353;stroke:none" />
      <path
         inkscape:connector-curvature="0"
         id="path874"
         d="m 425.89941,523.52587 c -0.74828,7.05163 -8.22525,12.61526 -17.34607,12.61526 -1.77478,0 -3.49105,-0.23279 -5.10423,-0.62237 l -8.34105,4.85521 0.083,-0.29046 8.25805,-4.81377 c 1.61318,0.38958 3.32945,0.62236 5.10423,0.62236 C 417.56846,535.8922 425.00584,530.46111 425.89941,523.52587 z m -34.60914,0.12482 c 0.49252,3.51795 2.64498,6.63377 5.85118,8.83893 l -0.0415,0.20759 C 393.84655,530.4426 391.71269,527.24997 391.29027,523.65039 Z"
         style="fill:#ffffff;fill-opacity:0.49803922;stroke:none" />
      <g
         style="fill:#000000;fill-opacity:0.24456524"
         transform="matrix(0.40624901,0,0,0.40624901,398.82145,105.32686)"
         inkscape:label="Capa 1"
         id="layer1-7">
        <path
           style="fill:#000000;fill-opacity:0.24456524;fill-rule:nonzero;stroke:none"
           d="m 26.980011,1012.3624 c -2.342684,0 -4.243994,1.7908 -4.243994,3.9994 0,2.208 1.90131,3.9995 4.243994,3.9995 2.341534,0 4.243994,-1.7915 4.243994,-3.9995 C 31.224005,1014.1532 29.321545,1012.3624 26.980011,1012.3624 z m -3.510286,9.5957 c -1.065458,0.01 -2.407999,0.1914 -4.042584,0.705 0,0 -2.042871,0.5829 -2.575169,1.5249 0,0 -0.380377,0.6762 0.56107,0.6043 0,0 4.013236,-0.3223 4.013811,1.4386 -0.0063,0.1018 -0.01439,0.2124 -0.01439,0.3165 0,0.1364 0.004,0.2688 0.01439,0.4028 0,0 -0.01381,1.1417 -0.546684,3.3808 0,0 -1.936412,6.8595 -2.114803,8.1715 -0.115667,0.4138 -0.172637,0.8661 -0.172637,1.3236 0,1.5174 0.683642,2.841 1.711984,3.5822 0,0 0.03913,0.03 0.129477,0.086 0.19508,0.1272 0.403396,0.2331 0.618616,0.3165 1.072652,0.4569 3.299094,1.0024 6.718458,-0.072 0,0 2.044022,-0.583 2.575169,-1.525 0,0 0.379801,-0.6761 -0.56107,-0.6042 0,0 -4.013236,0.3228 -4.013811,-1.4387 0.0075,-0.1156 0.01439,-0.2417 0.01439,-0.3596 0,-0.046 0.0012,-0.083 0,-0.1295 -0.0046,-0.522 0.04086,-2.505 0.906345,-5.1935 0,0 1.416199,-4.1571 1.855848,-6.8191 0.07078,-0.32 0.106459,-0.648 0.115091,-0.9927 0.01151,-0.1853 0.0098,-0.3551 0,-0.5035 -0.0017,-0.032 -0.004,-0.059 -0.01439,-0.086 -0.129478,-1.4927 -0.885628,-2.7633 -1.942167,-3.4239 0,0 -0.05006,-0.043 -0.158251,-0.1007 -0.218098,-0.1203 -0.452309,-0.2072 -0.690548,-0.2734 C 25.32471,1022.1181 24.535183,1021.9497 23.469725,1021.9581 Z"
           id="path1640"
           inkscape:connector-curvature="0" />
      </g>
      <path
         transform="matrix(-1.0992883,0,0,1.0857095,434.99985,495.57364)"
         d="m 38.499999,21.4375 a 14.461179,8.9375 0 1 1 -28.9223575,0 A 14.461179,8.9375 0 1 1 38.499999,21.4375 Z"
         sodipodi:ry="8.9375"
         sodipodi:rx="14.461179"
         sodipodi:cy="21.4375"
         sodipodi:cx="24.03882"
         id="path894"
         style="opacity:0.46200005;fill:url(#linearGradient902);fill-opacity:1;stroke:none"
         sodipodi:type="arc" />
      <path
         inkscape:connector-curvature="0"
         id="path4775"
         d="m 408.10268,518.4347 c -0.007,0.0598 -0.0312,0.12591 -0.0312,0.1875 0,0.89699 0.76704,1.625 1.71875,1.625 0.95125,0 1.71875,-0.72801 1.71875,-1.625 0,-0.0616 -0.0242,-0.12769 -0.0312,-0.1875 -0.11017,0.79714 -0.81227,1.40625 -1.6875,1.40625 C 408.91453,519.84095 408.21279,519.23184 408.10268,518.4347 z m -2.3125,3.21875 c -0.0434,0.0431 -0.098,0.0772 -0.125,0.125 0,0 -0.16371,0.27921 0.21875,0.25 0,0 1.6083,-0.11715 1.65625,0.5625 2.5e-4,-0.008 0,-0.0625 0,-0.0625 -0.004,-0.0544 -0.0312,-0.10085 -0.0312,-0.15625 0,-0.0423 0.0282,-0.0837 0.0312,-0.125 -2.4e-4,-0.71537 -1.65625,-0.59375 -1.65625,-0.59375 C 405.83742,521.657 405.82205,521.65785 405.79018,521.65345 z m 4.65625,0.90625 c -0.008,0.0829 -0.0136,0.17035 -0.0312,0.25 -0.17861,1.08143 -0.75,2.78125 -0.75,2.78125 -0.35161,1.0922 -0.377,1.88169 -0.375,2.09375 4.9e-4,0.0189 0,0.0438 0,0.0625 0,0.0479 0.003,0.10925 0,0.15625 0.007,-0.31391 0.0689,-0.98669 0.375,-1.9375 0,0 0.57139,-1.66857 0.75,-2.75 0.0288,-0.13 0.059,-0.26621 0.0625,-0.40625 0.005,-0.0753 0.004,-0.15847 0,-0.21875 C 410.47699,522.57795 410.45043,522.5706 410.44643,522.5597 z m -4.03125,5.4375 c -0.004,0.0515 -0.0312,0.10412 -0.0312,0.15625 0,0.61645 0.26974,1.13639 0.6875,1.4375 0,0 0.0258,0.009 0.0625,0.0312 0.0793,0.0517 0.16257,0.0911 0.25,0.125 0.43577,0.18562 1.32964,0.40528 2.71875,-0.0312 0,0 0.84672,-0.21106 1.0625,-0.59375 0,0 0.0918,-0.22474 -0.15625,-0.25 -0.30882,0.29314 -0.90625,0.46875 -0.90625,0.46875 -1.38911,0.43653 -2.28298,0.21687 -2.71875,0.0312 -0.0874,-0.0339 -0.1707,-0.0733 -0.25,-0.125 -0.0367,-0.0227 -0.0625,-0.0312 -0.0625,-0.0312 C 406.71358,528.95802 406.48099,528.50312 406.41518,527.9972 Z"
         style="fill:#ffffff;fill-opacity:0.24456523;fill-rule:nonzero;stroke:none" />
      <path
         id="path4786"
         transform="translate(384.57143,499.798)"
         d="M 25.21875 16.8125 C 24.26704 16.8125 23.5 17.54025 23.5 18.4375 C 23.5 18.493007 23.494225 18.539671 23.5 18.59375 C 23.587549 17.773734 24.325933 17.125 25.21875 17.125 C 26.111136 17.125 26.849902 17.773734 26.9375 18.59375 C 26.943278 18.539671 26.9375 18.493007 26.9375 18.4375 C 26.9375 17.54025 26.17 16.8125 25.21875 16.8125 z M 23.78125 20.6875 C 23.34841 20.6915 22.8203 20.7914 22.15625 21 C 22.15625 21 21.30999 21.21106 21.09375 21.59375 C 21.09375 21.59375 20.995631 21.778257 21.21875 21.8125 C 21.522466 21.510803 22.15625 21.3125 22.15625 21.3125 C 22.8203 21.1038 23.34841 21.03525 23.78125 21.03125 C 24.21409 21.02783 24.53334 21.08686 24.75 21.15625 C 24.84679 21.18312 24.94265 21.23235 25.03125 21.28125 C 25.07525 21.30465 25.09375 21.3125 25.09375 21.3125 C 25.52297 21.58087 25.8224 22.11234 25.875 22.71875 C 25.877109 22.686277 25.905421 22.658189 25.90625 22.625 C 25.91125 22.5497 25.91025 22.46653 25.90625 22.40625 C 25.90556 22.39325 25.879 22.3859 25.875 22.375 C 25.8224 21.76859 25.52297 21.26837 25.09375 21 C 25.09375 21 25.07525 20.9609 25.03125 20.9375 C 24.94265 20.8886 24.84679 20.87062 24.75 20.84375 C 24.53334 20.77436 24.21409 20.68408 23.78125 20.6875 z M 22.9375 22.96875 C 22.91747 23.18217 22.85602 23.515911 22.71875 24.09375 C 22.71875 24.09375 21.94747 26.87325 21.875 27.40625 C 21.828 27.57436 21.8125 27.78289 21.8125 27.96875 C 21.8125 28.034463 21.806355 28.092518 21.8125 28.15625 C 21.820767 28.014839 21.838908 27.879095 21.875 27.75 C 21.94747 27.217 22.71875 24.4375 22.71875 24.4375 C 22.93484 23.52787 22.96875 23.0625 22.96875 23.0625 C 22.966288 23.028998 22.938447 23.002289 22.9375 22.96875 z M 24.71875 28.125 C 24.718622 28.143616 24.718621 28.205024 24.71875 28.21875 C 24.71924 28.23765 24.71875 28.26255 24.71875 28.28125 C 24.71875 28.32914 24.72175 28.3905 24.71875 28.4375 C 24.71898 29.15311 26.34375 29 26.34375 29 C 26.412551 28.994742 26.461936 29.020191 26.5 29.03125 C 26.527495 28.999917 26.574776 28.97115 26.59375 28.9375 C 26.59375 28.9375 26.72598 28.65829 26.34375 28.6875 C 26.34375 28.6875 24.771039 28.801561 24.71875 28.125 z "
         style="fill:#000000;fill-opacity:0.24456524;fill-rule:nonzero;stroke:none" />
    </g>
  </g>
</svg>
