<?xml version="1.0" encoding="UTF-8" standalone="no"?>
<!-- Created with Inkscape (http://www.inkscape.org/) -->

<svg
   xmlns:dc="http://purl.org/dc/elements/1.1/"
   xmlns:cc="http://creativecommons.org/ns#"
   xmlns:rdf="http://www.w3.org/1999/02/22-rdf-syntax-ns#"
   xmlns:svg="http://www.w3.org/2000/svg"
   xmlns="http://www.w3.org/2000/svg"
   xmlns:xlink="http://www.w3.org/1999/xlink"
   xmlns:sodipodi="http://sodipodi.sourceforge.net/DTD/sodipodi-0.dtd"
   xmlns:inkscape="http://www.inkscape.org/namespaces/inkscape"
   width="48"
   height="48"
   id="svg5453"
   version="1.1"
   inkscape:version="0.48+devel r12314"
   sodipodi:docname="psensor.svg">
  <defs
     id="defs5455">
    <linearGradient
       inkscape:collect="always"
       id="linearGradient4730">
      <stop
         style="stop-color:#53b12e;stop-opacity:1"
         offset="0"
         id="stop4732" />
      <stop
         style="stop-color:#7ccc21;stop-opacity:1"
         offset="1"
         id="stop4734" />
    </linearGradient>
    <linearGradient
       inkscape:collect="always"
       id="linearGradient4693">
      <stop
         style="stop-color:#000000;stop-opacity:1;"
         offset="0"
         id="stop4695" />
      <stop
         style="stop-color:#000000;stop-opacity:0;"
         offset="1"
         id="stop4697" />
    </linearGradient>
    <linearGradient
       inkscape:collect="always"
       id="linearGradient4536">
      <stop
         style="stop-color:#f2f2f2;stop-opacity:1"
         offset="0"
         id="stop4538" />
      <stop
         style="stop-color:#ffffff;stop-opacity:1"
         offset="1"
         id="stop4540" />
    </linearGradient>
    <linearGradient
       inkscape:collect="always"
       xlink:href="#linearGradient4536"
       id="linearGradient4542"
       x1="407.66895"
       y1="-547.79626"
       x2="407.66895"
       y2="-499.78033"
       gradientUnits="userSpaceOnUse" />
    <linearGradient
       inkscape:collect="always"
       xlink:href="#linearGradient4693"
       id="linearGradient4699"
       x1="17.5625"
       y1="29.9375"
       x2="23.1875"
       y2="29.9375"
       gradientUnits="userSpaceOnUse"
       gradientTransform="matrix(0.97181523,0,0,0.97181523,385.25661,500.02345)" />
    <linearGradient
       inkscape:collect="always"
       xlink:href="#linearGradient4693"
       id="linearGradient4703"
       gradientUnits="userSpaceOnUse"
       x1="17.5625"
       y1="29.9375"
       x2="23.1875"
       y2="29.9375"
       gradientTransform="matrix(-0.97181523,0,0,0.97181523,431.88625,500.02345)" />
    <linearGradient
       inkscape:collect="always"
       xlink:href="#linearGradient4730"
       id="linearGradient4736"
       x1="39.818951"
       y1="16.312777"
       x2="39.818951"
       y2="10.258176"
       gradientUnits="userSpaceOnUse" />
  </defs>
  <sodipodi:namedview
     id="base"
     pagecolor="#ffffff"
     bordercolor="#666666"
     borderopacity="1.0"
     inkscape:pageopacity="0"
     inkscape:pageshadow="2"
     inkscape:zoom="8"
     inkscape:cx="10.289009"
     inkscape:cy="24.718647"
     inkscape:document-units="px"
     inkscape:current-layer="layer1"
     showgrid="false"
     fit-margin-top="0"
     fit-margin-left="0"
     fit-margin-right="0"
     fit-margin-bottom="0"
     inkscape:window-width="1366"
     inkscape:window-height="714"
     inkscape:window-x="0"
     inkscape:window-y="30"
     inkscape:window-maximized="1" />
  <metadata
     id="metadata5458">
    <rdf:RDF>
      <cc:Work
         rdf:about="">
        <dc:format>image/svg+xml</dc:format>
        <dc:type
           rdf:resource="http://purl.org/dc/dcmitype/StillImage" />
        <dc:title></dc:title>
      </cc:Work>
    </rdf:RDF>
  </metadata>
  <g
     inkscape:label="Capa 1"
     inkscape:groupmode="layer"
     id="layer1"
     transform="translate(-384.57143,-499.798)">
    <rect
       style="fill:url(#linearGradient4542);fill-opacity:1;stroke:none"
       id="rect2991-1-7"
       width="48"
       height="48"
       x="384.57144"
       y="-547.79797"
       ry="1.9445436"
       transform="scale(1,-1)" />
    <path
       inkscape:connector-curvature="0"
       style="fill:#000000;fill-opacity:1;stroke:none"
       d="m 384.57143,544.79799 0,1.0625 c 0,1.0773 0.86022,1.9375 1.9375,1.9375 l 44.125,0 c 1.07728,0 1.9375,-0.8602 1.9375,-1.9375 l 0,-1.0625 c 0,1.0773 -0.86022,1.9375 -1.9375,1.9375 l -44.125,0 C 385.43165,546.73549 384.57143,545.87529 384.57143,544.79799 Z"
       id="rect846" />
    <path
       inkscape:connector-curvature="0"
       style="fill:#ffffff;fill-opacity:0.5372549;stroke:none"
       d="m 387.10268,500.45429 c -0.91709,0 -1.67115,0.6395 -1.84375,1.5 0.33561,-0.2799 0.77451,-0.4375 1.25,-0.4375 l 44.125,0 c 0.47549,0 0.91439,0.1576 1.25,0.4375 -0.1726,-0.8605 -0.92666,-1.5 -1.84375,-1.5 L 387.10268,500.45429 Z"
       id="path7515" />
    <path
       inkscape:connector-curvature="0"
       style="fill:#000000;fill-opacity:0.39215686;stroke:none"
       d="m 386.50893,499.79799 c -1.07728,0 -1.9375,0.8602 -1.9375,1.9375 l 0,43.0625 c 0,0.7934 0.48002,1.449 1.15625,1.75 -0.30934,-0.3333 -0.5,-0.7824 -0.5,-1.2812 l 0,-42.9375 c 0,-1.0482 0.8269,-1.875 1.875,-1.875 l 42.9375,0 c 1.0481,0 1.875,0.8268 1.875,1.875 l 0,42.9375 c 0,0.4988 -0.19066,0.9479 -0.5,1.2812 0.67623,-0.301 1.15625,-0.9566 1.15625,-1.75 l 0,-43.0625 c 0,-1.0773 -0.86022,-1.9375 -1.9375,-1.9375 L 386.50893,499.79799 Z"
       id="rect4280" />
    <rect
       style="fill:#546670;fill-opacity:1;stroke:none"
       id="rect4552"
       width="3.6759965"
       height="24.422138"
       x="406.73685"
       y="507.79797"
       ry="2.3454926" />
    <path
       inkscape:connector-curvature="0"
       style="fill:#92a7b0;fill-opacity:1;stroke:none"
       d="m 404.91656,509.53035 0,18.25322 c -1.52041,1.11488 -2.53517,2.87811 -2.53517,4.90133 0,3.41499 2.79616,6.21117 6.21117,6.21117 3.41488,0 6.16891,-2.79618 6.16891,-6.21117 0,-2.06194 -0.99041,-3.87002 -2.53517,-4.98583 l 0,-18.16872 -0.92956,0 0,19.09828 0.0423,0 0,0.0845 c 1.26087,0.87491 2.11264,2.31185 2.11264,3.97177 0,2.69374 -2.16546,4.90133 -4.85907,4.90133 -2.69374,0 -4.90133,-2.20759 -4.90133,-4.90133 0,-1.65992 0.88211,-3.09686 2.15489,-3.97177 l 0,-0.0845 0,-1.4366 0,-17.66168 L 404.91656,509.53035 Z"
       id="path4607" />
    <path
       style="fill:#56b32c;fill-opacity:1;stroke:none"
       d="m 406.73683,517.22035 0,11.61954 c -1.4121,0.67815 -2.36617,2.13154 -2.36617,3.80275 0,2.32247 1.86058,4.18304 4.18304,4.18304 2.32246,0 4.22528,-1.86057 4.22528,-4.18304 0,-1.65397 -0.97761,-3.07377 -2.36615,-3.7605 l 0,-11.66179 L 406.73683,517.22035 Z"
       id="path4550"
       inkscape:connector-curvature="0" />
    <path
       inkscape:connector-curvature="0"
       style="fill:#ffffff;fill-opacity:0.2745098;stroke:none"
       d="m 406.73343,517.22036 0,0.29578 3.676,0 0,-0.29578 L 406.73343,517.22036 Z"
       id="rect4560" />
    <path
       inkscape:connector-curvature="0"
       style="fill:#000000;fill-opacity:0.07843137;stroke:none"
       d="m 407.24046,522.41746 -0.50703,0.50703 0,0.84506 1.35209,-1.35209 L 407.24046,522.41746 z m 2.32391,0 -2.83094,2.83094 0,0.84506 3.676,-3.676 L 409.56437,522.41746 z m 0.84506,1.5211 -3.676,3.676 0,0.84506 3.676,-3.676 L 410.40943,523.93856 z m 0,2.36616 -5.9999,6.04216 c -0.007,0.0964 -0.0423,0.19779 -0.0423,0.29576 0,0.1739 0.022,0.33891 0.0423,0.50704 l 5.9999,-5.9999 L 410.40943,526.30472 z m 0,2.32391 -5.70413,5.66188 c 0.005,0.0119 -0.005,0.0304 0,0.0423 0.0842,0.1953 0.22623,0.32877 0.33801,0.50703 l 5.7464,-5.74638 c -0.12111,-0.0758 -0.25168,-0.14767 -0.38028,-0.21126 L 410.40943,528.62863 z m 1.22533,1.14082 -5.9154,5.9154 c 0.14468,0.13464 0.30191,0.26717 0.46479,0.38027 l 5.78863,-5.78863 C 411.85482,530.1096 411.7751,529.91745 411.63476,529.76945 z m 0.8873,1.47885 -5.32385,5.32386 c 0.21603,0.0731 0.44539,0.13164 0.67605,0.16901 l 4.81682,-4.85908 C 412.64987,531.66706 412.59525,531.45019 412.52206,531.2483 z m 0.16902,2.1549 -3.29572,3.33797 c 0.48483,-0.0979 0.94232,-0.30184 1.35209,-0.54928 l 1.4366,-1.4366 C 412.43107,534.34211 412.59982,533.89326 412.69108,533.4032 Z"
       id="rect4565" />
    <path
       style="fill:#000000;fill-opacity:0.23529412;stroke:none"
       d="m 408.5537,507.79797 c -1.01824,0 -1.81687,1.06677 -1.81687,2.36617 l 0,0.42253 c 0,-1.29941 0.79863,-2.36616 1.81687,-2.36616 1.01825,0 1.85913,1.06675 1.85913,2.36616 l 0,-0.42253 C 410.41283,508.86474 409.57195,507.79797 408.5537,507.79797 Z"
       id="rect4598"
       inkscape:connector-curvature="0" />
    <path
       style="fill:#000000;fill-opacity:0.23367836;stroke:none"
       d="m 411.30466,528.62284 0,0.30369 0.0303,0 0,0.0911 c 1.22967,0.85326 2.08499,2.21866 2.12585,3.82652 0.002,-0.0587 0,-0.12299 0,-0.18221 0,-1.65992 -0.86498,-3.10346 -2.12585,-3.97837 l 0,-0.0607 L 411.30466,528.62284 z m -5.46646,0.0607 c -1.27278,0.87491 -2.15621,2.31845 -2.15621,3.97836 0,0.0592 -0.002,0.12349 0,0.18222 0.0423,-1.60786 0.91494,-2.97326 2.15621,-3.82652 l 0,-0.0911 L 405.8382,528.68358 z m -3.43172,4.61612 c 0.17517,3.26143 2.89234,5.89163 6.19532,5.89163 3.30285,0 5.962,-2.6302 6.13458,-5.89163 -0.31507,3.12106 -2.93313,5.58794 -6.13458,5.58794 C 405.40023,538.88764 402.72618,536.42076 402.40648,533.2997 Z"
       id="path4656"
       inkscape:connector-curvature="0" />
    <path
       inkscape:connector-curvature="0"
       id="path4661"
       d="m 411.30466,528.92616 0,0.30369 0.0303,0 0,0.0911 c 1.22967,0.85327 2.08499,2.21867 2.12585,3.82652 0.002,-0.0587 0,-0.12299 0,-0.18221 0,-1.65992 -0.86498,-3.10345 -2.12585,-3.97837 l 0,-0.0607 L 411.30466,528.92616 z m -5.46646,0.0607 c -1.27278,0.87491 -2.15621,2.31845 -2.15621,3.97837 0,0.0592 -0.002,0.12349 0,0.18221 0.0423,-1.60786 0.91494,-2.97326 2.15621,-3.82652 l 0,-0.0911 L 405.8382,528.9869 z m -3.43172,4.61612 c 0.17517,3.26143 2.89234,5.89163 6.19532,5.89163 3.30285,0 5.962,-2.6302 6.13458,-5.89163 -0.31507,3.12106 -2.93313,5.58794 -6.13458,5.58794 C 405.40023,539.19096 402.72618,536.72408 402.40648,533.60302 Z"
       style="fill:#000000;fill-opacity:0.11625013;stroke:none" />
    <path
       style="fill:#000000;fill-opacity:0.06008582;stroke:none"
       d="m 411.30466,529.22948 0,0.3037 0.0303,0 0,0.091 c 1.22967,0.85327 2.08499,2.21867 2.12585,3.82653 0.002,-0.0587 0,-0.123 0,-0.18222 0,-1.65992 -0.86498,-3.10345 -2.12585,-3.97837 l 0,-0.0607 L 411.30466,529.22948 z m -5.46646,0.0607 c -1.27278,0.87492 -2.15621,2.31845 -2.15621,3.97837 0,0.0592 -0.002,0.12349 0,0.18222 0.0423,-1.60786 0.91494,-2.97326 2.15621,-3.82653 l 0,-0.0911 L 405.8382,529.29022 z m -3.43172,4.61612 c 0.17517,3.26144 2.89234,5.89163 6.19532,5.89163 3.30285,0 5.962,-2.63019 6.13458,-5.89163 -0.31507,3.12107 -2.93313,5.58794 -6.13458,5.58794 C 405.40023,539.49428 402.72618,537.02741 402.40648,533.90634 Z"
       id="path4663"
       inkscape:connector-curvature="0" />
    <path
       inkscape:connector-curvature="0"
       style="opacity:0.5;fill:url(#linearGradient4699);fill-opacity:1;stroke:none"
       d="m 407.69947,508.10167 c -0.56433,0.39569 -0.94145,1.14521 -0.94145,2.03473 l 0,7.07603 0,11.63142 c -1.41209,0.67815 -2.3688,2.12494 -2.3688,3.79615 0,2.08451 1.47943,3.79989 3.4621,4.13022 l 0,-0.97182 c -1.41948,-0.33556 -2.49028,-1.60602 -2.49028,-3.12803 0,-1.52248 1.07013,-2.79296 2.49028,-3.12803 l 0,-20.71181 C 407.85132,508.5688 407.7942,508.32726 407.69947,508.10167 Z"
       id="rect4682" />
    <path
       id="path4701"
       d="m 409.44339,508.10167 c 0.56434,0.39569 0.94145,1.14521 0.94145,2.03473 l 0,7.07603 0,11.63142 c 1.41209,0.67815 2.3688,2.12494 2.3688,3.79615 0,2.08451 -1.47943,3.79989 -3.46209,4.13022 l 0,-0.97182 c 1.41947,-0.33556 2.49027,-1.60602 2.49027,-3.12803 0,-1.52248 -1.07013,-2.79296 -2.49027,-3.12803 l 0,-20.71181 C 409.29155,508.5688 409.34866,508.32726 409.44339,508.10167 Z"
       style="opacity:0.5;fill:url(#linearGradient4703);fill-opacity:1;stroke:none"
       inkscape:connector-curvature="0" />
    <g
       id="g4772"
       transform="matrix(0.97181523,0,0,0.97181523,10.023613,18.296169)">
      <g
         id="g4756">
        <path
           style="fill:url(#linearGradient4736);fill-opacity:1;stroke:none"
           d="m 36.78125,10.28125 -1.53125,1.5 -1.53125,1.5 1.53125,1.5 1.53125,1.5 4.96875,0 c 0.350003,0 0.625,-0.274997 0.625,-0.625 l 0,-4.71875 c 0,-0.350003 -0.274997,-0.65625 -0.625,-0.65625 L 36.78125,10.28125 Z"
           transform="translate(384.57143,499.798)"
           id="rect4711"
           inkscape:connector-curvature="0" />
        <path
           style="fill:#000000;fill-opacity:0.23420015;stroke:none"
           d="m 418.41518,513.20423 -0.125,0.0937 1.53125,1.5 1.53125,1.5 4.96875,0 c 0.35,0 0.625,-0.275 0.625,-0.625 l 0,-0.21875 c 0,0.35 -0.275,0.625 -0.625,0.625 l -4.96875,0 -1.53125,-1.5 L 418.41518,513.20423 Z"
           id="path4738"
           inkscape:connector-curvature="0" />
        <path
           inkscape:connector-curvature="0"
           id="path4745"
           d="m 418.41518,513.42298 -0.125,0.0937 1.53125,1.5 1.53125,1.5 4.96875,0 c 0.35,0 0.625,-0.275 0.625,-0.625 l 0,-0.21875 c 0,0.35 -0.275,0.625 -0.625,0.625 l -4.96875,0 -1.53125,-1.5 L 418.41518,513.42298 Z"
           style="fill:#000000;fill-opacity:0.11795002;stroke:none" />
        <path
           style="fill:#000000;fill-opacity:0.05882353;stroke:none"
           d="m 418.41518,513.64173 -0.125,0.0937 1.53125,1.5 1.53125,1.5 4.96875,0 c 0.35,0 0.625,-0.275 0.625,-0.625 l 0,-0.21875 c 0,0.35 -0.275,0.625 -0.625,0.625 l -4.96875,0 -1.53125,-1.5 L 418.41518,513.64173 Z"
           id="path4747"
           inkscape:connector-curvature="0" />
        <path
           style="fill:#ffffff;fill-opacity:0.15686275;stroke:none"
           d="m 36.78125,10.28125 -1.53125,1.5 -1.53125,1.5 1.53125,1.5 1.34375,1.3125 c 1.107849,-2.690662 3.59667,-4.453061 5.6875,-5.5 -0.108813,-0.188476 -0.302402,-0.3125 -0.53125,-0.3125 L 36.78125,10.28125 Z"
           transform="translate(384.57143,499.798)"
           id="path4749"
           inkscape:connector-curvature="0" />
      </g>
      <g
         id="text4763"
         style="font-size:3.20035148px;font-style:normal;font-weight:normal;line-height:125%;letter-spacing:0px;word-spacing:0px;fill:#ffffff;fill-opacity:0.90196078;stroke:none;font-family:sans-serif">
        <path
           id="path4768"
           style="fill:#ffffff;fill-opacity:0.90196078"
           d="m 422.79525,512.98625 q 0.22659,0.0484 0.35317,0.20159 0.12814,0.15314 0.12814,0.37816 0,0.34535 -0.23753,0.53444 -0.23753,0.18908 -0.67507,0.18908 -0.14689,0 -0.30316,-0.0297 -0.15471,-0.0281 -0.32035,-0.0859 l 0,-0.30472 q 0.13126,0.0766 0.28753,0.11564 0.15627,0.0391 0.3266,0.0391 0.29691,0 0.45161,-0.1172 0.15627,-0.1172 0.15627,-0.34066 0,-0.20627 -0.14533,-0.32191 -0.14376,-0.1172 -0.40161,-0.1172 l -0.2719,0 0,-0.2594 0.28441,0 q 0.23283,0 0.35628,-0.0922 0.12346,-0.0938 0.12346,-0.26878 0,-0.17971 -0.12814,-0.27503 -0.12658,-0.0969 -0.36411,-0.0969 -0.1297,0 -0.27815,0.0281 -0.14845,0.0281 -0.3266,0.0875 l 0,-0.28128 q 0.17971,-0.05 0.33597,-0.075 0.15783,-0.025 0.29691,-0.025 0.35942,0 0.56882,0.16408 0.20939,0.16252 0.20939,0.44067 0,0.19378 -0.11095,0.32817 Q 422.99996,512.93468 422.79525,512.98625 Z"
           inkscape:connector-curvature="0" />
        <path
           id="path4770"
           style="fill:#ffffff;fill-opacity:0.90196078"
           d="m 423.79693,511.91113 1.50016,0 0,0.13439 -0.84697,2.19868 -0.32972,0 0.79696,-2.06741 -1.12043,0 L 423.79693,511.91113 Z"
           inkscape:connector-curvature="0" />
      </g>
    </g>
    <rect
       style="fill:#92a7b0;fill-opacity:1;stroke:none"
       id="rect4783"
       width="1.0545516"
       height="0.34969309"
       x="398.32025"
       y="509.53036"
       ry="0" />
    <rect
       ry="0"
       y="511.45108"
       x="398.32025"
       height="0.34969309"
       width="1.0545516"
       id="rect4785"
       style="fill:#92a7b0;fill-opacity:1;stroke:none" />
    <rect
       style="fill:#92a7b0;fill-opacity:1;stroke:none"
       id="rect4787"
       width="1.0545516"
       height="0.34969309"
       x="398.32025"
       y="513.37183"
       ry="0" />
    <rect
       ry="0"
       y="515.29254"
       x="398.32025"
       height="0.34969309"
       width="1.0545516"
       id="rect4789"
       style="fill:#92a7b0;fill-opacity:1;stroke:none" />
    <rect
       style="fill:#92a7b0;fill-opacity:1;stroke:none"
       id="rect4791"
       width="1.0545516"
       height="0.34969309"
       x="398.32025"
       y="517.21332"
       ry="0" />
    <rect
       ry="0"
       y="519.13397"
       x="398.32025"
       height="0.34969309"
       width="1.0545516"
       id="rect4793"
       style="fill:#92a7b0;fill-opacity:1;stroke:none" />
    <rect
       style="fill:#92a7b0;fill-opacity:1;stroke:none"
       id="rect4795"
       width="1.0545516"
       height="0.34969309"
       x="398.32025"
       y="521.05469"
       ry="0" />
    <rect
       ry="0"
       y="522.97546"
       x="398.32025"
       height="0.34969309"
       width="1.0545516"
       id="rect4797"
       style="fill:#92a7b0;fill-opacity:1;stroke:none" />
    <rect
       style="fill:#92a7b0;fill-opacity:1;stroke:none"
       id="rect4799"
       width="1.0545516"
       height="0.34969309"
       x="398.32025"
       y="524.89618"
       ry="0" />
    <rect
       ry="0"
       y="526.81689"
       x="398.32025"
       height="0.34969309"
       width="1.0545516"
       id="rect4801"
       style="fill:#92a7b0;fill-opacity:1;stroke:none" />
    <rect
       style="fill:#92a7b0;fill-opacity:1;stroke:none"
       id="rect4803"
       width="1.0545516"
       height="0.34969309"
       x="398.32025"
       y="528.73767"
       ry="0" />
    <rect
       ry="0"
       y="530.65833"
       x="398.32025"
       height="0.34969309"
       width="1.0545516"
       id="rect4805"
       style="fill:#92a7b0;fill-opacity:1;stroke:none" />
    <rect
       style="fill:#92a7b0;fill-opacity:1;stroke:none"
       id="rect4807"
       width="1.0545516"
       height="0.34969309"
       x="398.32025"
       y="532.57904"
       ry="0" />
    <rect
       ry="0"
       y="534.49982"
       x="398.32025"
       height="0.34969309"
       width="1.0545516"
       id="rect4809"
       style="fill:#92a7b0;fill-opacity:1;stroke:none" />
    <rect
       style="fill:#92a7b0;fill-opacity:1;stroke:none"
       id="rect4811"
       width="1.0545516"
       height="0.34969309"
       x="398.32025"
       y="536.42053"
       ry="0" />
    <path
       inkscape:connector-curvature="0"
       id="path34"
       style="fill:#546670;fill-opacity:1;fill-rule:nonzero;stroke:none"
       d="m 394.31117,535.05777 c -0.2229,-0.20467 -0.58414,-0.20467 -0.80704,0 l -0.15144,0.13865 -0.15145,-0.13865 c -0.2229,-0.20467 -0.58421,-0.20467 -0.80703,0 -0.25064,0.23024 -0.25064,0.60327 0,0.83354 l 0.95848,0.87892 0.95848,-0.87892 c 0.25056,-0.23027 0.25056,-0.6033 0,-0.83354" />
  </g>
</svg>
