<?xml version="1.0" encoding="UTF-8" standalone="no"?>
<!-- Created with Inkscape (http://www.inkscape.org/) -->

<svg
   xmlns:dc="http://purl.org/dc/elements/1.1/"
   xmlns:cc="http://creativecommons.org/ns#"
   xmlns:rdf="http://www.w3.org/1999/02/22-rdf-syntax-ns#"
   xmlns:svg="http://www.w3.org/2000/svg"
   xmlns="http://www.w3.org/2000/svg"
   xmlns:xlink="http://www.w3.org/1999/xlink"
   xmlns:sodipodi="http://sodipodi.sourceforge.net/DTD/sodipodi-0.dtd"
   xmlns:inkscape="http://www.inkscape.org/namespaces/inkscape"
   width="48"
   height="48"
   id="svg5453"
   version="1.1"
   inkscape:version="0.48+devel r12338"
   sodipodi:docname="python2.7.svg">
  <defs
     id="defs5455">
    <linearGradient
       inkscape:collect="always"
       id="linearGradient2982">
      <stop
         style="stop-color:#f2f2f2;stop-opacity:1"
         offset="0"
         id="stop2984" />
      <stop
         style="stop-color:#ffffff;stop-opacity:1"
         offset="1"
         id="stop2986" />
    </linearGradient>
    <linearGradient
       x1="150.96111"
       y1="192.35176"
       x2="112.03144"
       y2="137.27299"
       id="linearGradient1475"
       xlink:href="#linearGradient4671"
       gradientUnits="userSpaceOnUse"
       gradientTransform="matrix(0.15306288,0,0,0.15454061,389.35986,504.61388)" />
    <linearGradient
       id="linearGradient4671">
      <stop
         style="stop-color:#ffd43b;stop-opacity:1"
         offset="0"
         id="stop4673" />
      <stop
         style="stop-color:#ffe873;stop-opacity:1"
         offset="1"
         id="stop4675" />
    </linearGradient>
    <linearGradient
       id="linearGradient4689">
      <stop
         style="stop-color:#5a9fd4;stop-opacity:1"
         offset="0"
         id="stop4691" />
      <stop
         style="stop-color:#306998;stop-opacity:1"
         offset="1"
         id="stop4693" />
    </linearGradient>
    <linearGradient
       y2="114.39767"
       x2="135.66525"
       y1="20.603781"
       x1="26.648937"
       gradientTransform="matrix(0.15306288,0,0,0.15454061,389.35986,504.61388)"
       gradientUnits="userSpaceOnUse"
       id="linearGradient1855"
       xlink:href="#linearGradient4689"
       inkscape:collect="always" />
    <linearGradient
       inkscape:collect="always"
       xlink:href="#linearGradient2982"
       id="linearGradient2988"
       x1="412.44775"
       y1="-547.78802"
       x2="412.44775"
       y2="-499.77106"
       gradientUnits="userSpaceOnUse" />
  </defs>
  <sodipodi:namedview
     id="base"
     pagecolor="#ffffff"
     bordercolor="#666666"
     borderopacity="1.0"
     inkscape:pageopacity="0"
     inkscape:pageshadow="2"
     inkscape:zoom="6.2777282"
     inkscape:cx="0.35859518"
     inkscape:cy="23.202531"
     inkscape:document-units="px"
     inkscape:current-layer="layer1"
     showgrid="false"
     fit-margin-top="0"
     fit-margin-left="0"
     fit-margin-right="0"
     fit-margin-bottom="0"
     inkscape:window-width="1366"
     inkscape:window-height="714"
     inkscape:window-x="0"
     inkscape:window-y="30"
     inkscape:window-maximized="1" />
  <metadata
     id="metadata5458">
    <rdf:RDF>
      <cc:Work
         rdf:about="">
        <dc:format>image/svg+xml</dc:format>
        <dc:type
           rdf:resource="http://purl.org/dc/dcmitype/StillImage" />
        <dc:title></dc:title>
      </cc:Work>
    </rdf:RDF>
  </metadata>
  <g
     inkscape:label="Capa 1"
     inkscape:groupmode="layer"
     id="layer1"
     transform="translate(-384.57143,-499.798)">
    <rect
       style="fill:url(#linearGradient2988);fill-opacity:1;stroke:none"
       id="rect2991-1-7"
       width="48"
       height="48"
       x="384.57144"
       y="-547.79797"
       ry="1.9445436"
       transform="scale(1,-1)" />
    <path
       inkscape:connector-curvature="0"
       style="fill:#000000;fill-opacity:1;stroke:none"
       d="m 384.57143,544.79799 0,1.0625 c 0,1.0773 0.86022,1.9375 1.9375,1.9375 l 44.125,0 c 1.07728,0 1.9375,-0.8602 1.9375,-1.9375 l 0,-1.0625 c 0,1.0773 -0.86022,1.9375 -1.9375,1.9375 l -44.125,0 C 385.43165,546.73549 384.57143,545.87529 384.57143,544.79799 Z"
       id="rect846" />
    <path
       inkscape:connector-curvature="0"
       style="fill:#ffffff;fill-opacity:0.5372549;stroke:none"
       d="m 387.10268,500.45429 c -0.91709,0 -1.67115,0.6395 -1.84375,1.5 0.33561,-0.2799 0.77451,-0.4375 1.25,-0.4375 l 44.125,0 c 0.47549,0 0.91439,0.1576 1.25,0.4375 -0.1726,-0.8605 -0.92666,-1.5 -1.84375,-1.5 L 387.10268,500.45429 Z"
       id="path7515" />
    <path
       inkscape:connector-curvature="0"
       style="fill:#000000;fill-opacity:0.39215686;stroke:none"
       d="m 386.50893,499.79799 c -1.07728,0 -1.9375,0.8602 -1.9375,1.9375 l 0,43.0625 c 0,0.7934 0.48002,1.449 1.15625,1.75 -0.30934,-0.3333 -0.5,-0.7824 -0.5,-1.2812 l 0,-42.9375 c 0,-1.0482 0.8269,-1.875 1.875,-1.875 l 42.9375,0 c 1.0481,0 1.875,0.8268 1.875,1.875 l 0,42.9375 c 0,0.4988 -0.19066,0.9479 -0.5,1.2812 0.67623,-0.301 1.15625,-0.9566 1.15625,-1.75 l 0,-43.0625 c 0,-1.0773 -0.86022,-1.9375 -1.9375,-1.9375 L 386.50893,499.79799 Z"
       id="rect4280" />
    <g
       id="g3970">
      <path
         id="path1948"
         style="fill:url(#linearGradient1855);fill-opacity:1"
         d="m 408.38178,507.79825 c -1.24717,0.006 -2.43819,0.11216 -3.48617,0.2976 -3.08722,0.54541 -3.64773,1.68701 -3.64773,3.79229 l 0,2.78044 7.29547,0 0,0.92681 -7.29547,0 -2.73793,0 c -2.12026,0 -3.97684,1.2744 -4.55754,3.69875 -0.66984,2.77886 -0.69955,4.51292 0,7.4145 0.5186,2.15983 1.75705,3.69875 3.87732,3.69875 l 2.50835,0 0,-3.33312 c 0,-2.40799 2.08344,-4.53204 4.55753,-4.53204 l 7.28696,0 c 2.02845,0 3.64774,-1.67014 3.64774,-3.70724 l 0,-6.94685 c 0,-1.97711 -1.66793,-3.46232 -3.64774,-3.79229 C 410.92932,507.88723 409.62896,507.79246 408.38178,507.79825 z m -3.94532,2.23626 c 0.75357,0 1.36896,0.62544 1.36896,1.39447 0,0.7663 -0.61539,1.38597 -1.36896,1.38597 -0.75628,0 -1.36896,-0.61967 -1.36896,-1.38597 C 403.0675,510.65995 403.68018,510.03451 404.43646,510.03451 Z"
         inkscape:connector-curvature="0" />
      <path
         inkscape:connector-curvature="0"
         id="path3178"
         d="m 404.44073,510.03564 c -0.75627,0 -1.37371,0.63455 -1.37371,1.40357 0,0.0747 0.0185,0.13774 0.0298,0.20905 0.12852,-0.63664 0.68211,-1.13481 1.34385,-1.13481 0.65938,0 1.21485,0.49817 1.34386,1.13481 0.0114,-0.0713 0.0298,-0.13428 0.0298,-0.20905 C 405.81445,510.67019 405.1943,510.03564 404.44073,510.03564 z m -3.19538,4.62883 0,0.47781 7.28667,0 0,-0.47781 L 401.24535,514.66447 z m 14.57335,4.18087 c 0,2.03711 -1.6149,3.70307 -3.64335,3.70307 l -7.28667,0 c -2.4741,0 -4.53924,2.10139 -4.53924,4.50937 l 0,0.47782 c 0,-2.40798 2.06514,-4.50937 4.53924,-4.50937 l 7.28667,0 c 2.02845,0 3.64335,-1.66596 3.64335,-3.70307 L 415.8187,518.84534 z m -22.3677,4.3302 c -0.0301,1.22209 0.13294,2.44742 0.50767,4.0017 0.5186,2.15982 1.76198,3.70307 3.88225,3.70307 l 2.50852,0 0,-0.47782 -2.50852,0 c -2.12027,0 -3.36365,-1.54325 -3.88225,-3.70307 C 393.63299,525.34858 393.46954,524.2416 393.451,523.17554 z m 30.25164,0.38823 c -0.0274,1.07696 -0.22144,2.09765 -0.56741,3.13565 -0.73736,2.21982 -1.52307,3.70307 -3.64333,3.70307 l -3.6732,0 -7.28668,0 0,0.47782 7.28668,0 3.6732,0 c 2.12026,0 2.90597,-1.48326 3.64333,-3.70307 C 423.53136,525.98872 423.7224,524.81829 423.70264,523.56377 z m -11.04947,9.61602 c -0.75358,0 -1.37371,0.63728 -1.37371,1.40357 0,0.075 0.0185,0.13758 0.0298,0.20905 0.129,-0.63534 0.68447,-1.13481 1.34385,-1.13481 0.66174,0 1.19119,0.49947 1.314,1.13481 0.0108,-0.0714 0.0298,-0.13402 0.0298,-0.20905 C 413.99703,533.81707 413.40943,533.17979 412.65317,533.17979 z m -11.40782,0.92577 0,0.4778 c 0,1.97712 1.71483,3.13585 3.64333,3.70307 2.30934,0.67903 4.52358,0.80175 7.28667,0 1.83667,-0.53178 3.64335,-1.59779 3.64335,-3.70307 l 0,-0.4778 c 0,2.10528 -1.80668,3.17128 -3.64335,3.70306 -2.76309,0.80176 -4.97733,0.67903 -7.28667,0 C 402.96018,537.2414 401.24535,536.08267 401.24535,534.10556 Z"
         style="fill:#000000;fill-opacity:0.23529412" />
      <path
         style="fill:#000000;fill-opacity:0.11764706"
         d="m 404.44073,510.51329 c -0.75627,0 -1.37371,0.63455 -1.37371,1.40359 0,0.0747 0.0185,0.13772 0.0298,0.20904 0.12852,-0.63664 0.68211,-1.13481 1.34385,-1.13481 0.65938,0 1.21485,0.49817 1.34386,1.13481 0.0114,-0.0713 0.0298,-0.13427 0.0298,-0.20904 C 405.81445,511.14784 405.1943,510.51329 404.44073,510.51329 z m -3.19538,4.62884 0,0.47781 7.28667,0 0,-0.47781 L 401.24535,515.14213 z m 14.57335,4.18088 c 0,2.03711 -1.6149,3.70307 -3.64335,3.70307 l -7.28667,0 c -2.4741,0 -4.53924,2.10138 -4.53924,4.50937 l 0,0.47782 c 0,-2.408 2.06514,-4.50939 4.53924,-4.50939 l 7.28667,0 c 2.02845,0 3.64335,-1.66596 3.64335,-3.70306 L 415.8187,519.32301 z m -22.3677,4.33019 c -0.0301,1.22209 0.13294,2.44742 0.50767,4.0017 0.5186,2.15982 1.76198,3.70306 3.88225,3.70306 l 2.50852,0 0,-0.4778 -2.50852,0 c -2.12027,0 -3.36365,-1.54325 -3.88225,-3.70307 C 393.63299,525.82623 393.46954,524.71925 393.451,523.6532 z m 30.25164,0.38823 c -0.0274,1.07697 -0.22144,2.09765 -0.56741,3.13566 -0.73736,2.21981 -1.52307,3.70307 -3.64333,3.70307 l -3.6732,0 -7.28668,0 0,0.4778 7.28668,0 3.6732,0 c 2.12026,0 2.90597,-1.48325 3.64333,-3.70306 C 423.53136,526.46639 423.7224,525.29595 423.70264,524.04143 z m -11.04947,9.61602 c -0.75358,0 -1.37371,0.63728 -1.37371,1.40358 0,0.075 0.0185,0.13756 0.0298,0.20904 0.129,-0.63534 0.68447,-1.13481 1.34385,-1.13481 0.66174,0 1.19119,0.49947 1.314,1.13481 0.0108,-0.0715 0.0298,-0.13401 0.0298,-0.20904 C 413.99703,534.29473 413.40943,533.65745 412.65317,533.65745 z m -11.40782,0.92576 0,0.47782 c 0,1.97711 1.71483,3.13584 3.64333,3.70307 2.30934,0.67903 4.52358,0.80175 7.28667,0 1.83667,-0.53179 3.64335,-1.59779 3.64335,-3.70307 l 0,-0.47782 c 0,2.10528 -1.80668,3.17129 -3.64335,3.70307 -2.76309,0.80175 -4.97733,0.67903 -7.28667,0 C 402.96018,537.71905 401.24535,536.56032 401.24535,534.58321 Z"
         id="path3188"
         inkscape:connector-curvature="0" />
      <path
         inkscape:connector-curvature="0"
         id="path3190"
         d="m 404.44073,510.99095 c -0.75627,0 -1.37371,0.63455 -1.37371,1.40358 0,0.0747 0.0185,0.13773 0.0298,0.20904 0.12852,-0.63664 0.68211,-1.1348 1.34385,-1.1348 0.65938,0 1.21485,0.49816 1.34386,1.1348 0.0114,-0.0712 0.0298,-0.13427 0.0298,-0.20904 C 405.81445,511.6255 405.1943,510.99095 404.44073,510.99095 z m -3.19538,4.62883 0,0.47782 7.28667,0 0,-0.47782 L 401.24535,515.61978 z m 14.57335,4.18088 c 0,2.0371 -1.6149,3.70306 -3.64335,3.70306 l -7.28667,0 c -2.4741,0 -4.53924,2.1014 -4.53924,4.50938 l 0,0.47781 c 0,-2.40798 2.06514,-4.50937 4.53924,-4.50937 l 7.28667,0 c 2.02845,0 3.64335,-1.66596 3.64335,-3.70307 L 415.8187,519.80066 z m -22.3677,4.3302 c -0.0301,1.22209 0.13294,2.44741 0.50767,4.00169 0.5186,2.15982 1.76198,3.70307 3.88225,3.70307 l 2.50852,0 0,-0.47782 -2.50852,0 c -2.12027,0 -3.36365,-1.54325 -3.88225,-3.70306 C 393.63299,526.30389 393.46954,525.19691 393.451,524.13086 z m 30.25164,0.38822 c -0.0274,1.07696 -0.22144,2.09766 -0.56741,3.13566 -0.73736,2.21982 -1.52307,3.70306 -3.64333,3.70306 l -3.6732,0 -7.28668,0 0,0.47782 7.28668,0 3.6732,0 c 2.12026,0 2.90597,-1.48325 3.64333,-3.70307 C 423.53136,526.94404 423.7224,525.7736 423.70264,524.51908 z m -11.04947,9.61602 c -0.75358,0 -1.37371,0.63728 -1.37371,1.40359 0,0.075 0.0185,0.13756 0.0298,0.20903 0.129,-0.63533 0.68447,-1.1348 1.34385,-1.1348 0.66174,0 1.19119,0.49947 1.314,1.1348 0.0108,-0.0714 0.0298,-0.13401 0.0298,-0.20903 C 413.99703,534.77238 413.40943,534.1351 412.65317,534.1351 z m -11.40782,0.92577 0,0.47782 c 0,1.97711 1.71483,3.13584 3.64333,3.70306 2.30934,0.67903 4.52358,0.80176 7.28667,0 1.83667,-0.53178 3.64335,-1.59778 3.64335,-3.70306 l 0,-0.47782 c 0,2.10528 -1.80668,3.17128 -3.64335,3.70306 -2.76309,0.80176 -4.97733,0.67903 -7.28667,0 C 402.96018,538.19671 401.24535,537.03798 401.24535,535.06087 Z"
         style="fill:#000000;fill-opacity:0.05882353" />
      <path
         id="path1950"
         style="fill:url(#linearGradient1475);fill-opacity:1"
         d="m 416.74012,515.59539 0,3.2396 c 0,2.51161 -2.12937,4.62556 -4.55755,4.62556 l -7.28696,0 c -1.99602,0 -3.64773,1.70832 -3.64773,3.70725 l 0,6.94685 c 0,1.97711 1.71923,3.14003 3.64773,3.70726 2.30934,0.67903 4.52387,0.80175 7.28696,0 1.83666,-0.53179 3.64774,-1.60198 3.64774,-3.70726 l 0,-2.78044 -7.28696,0 0,-0.92682 7.28696,0 3.64773,0 c 2.12026,0 2.91037,-1.47893 3.64773,-3.69875 0.76168,-2.28527 0.72926,-4.48292 0,-7.4145 -0.52399,-2.11074 -1.52477,-3.69875 -3.64773,-3.69875 L 416.74012,515.59539 z m -4.09838,17.59244 c 0.75626,0 1.36896,0.61968 1.36896,1.38597 0,0.76903 -0.6127,1.39448 -1.36896,1.39448 -0.75358,0 -1.36897,-0.62545 -1.36897,-1.39448 C 411.27277,533.80751 411.88815,533.18783 412.64174,533.18783 Z"
         inkscape:connector-curvature="0" />
    </g>
  </g>
</svg>
