<?xml version="1.0" encoding="UTF-8" standalone="no"?>
<!-- Created with Inkscape (http://www.inkscape.org/) -->

<svg
   xmlns:dc="http://purl.org/dc/elements/1.1/"
   xmlns:cc="http://creativecommons.org/ns#"
   xmlns:rdf="http://www.w3.org/1999/02/22-rdf-syntax-ns#"
   xmlns:svg="http://www.w3.org/2000/svg"
   xmlns="http://www.w3.org/2000/svg"
   xmlns:xlink="http://www.w3.org/1999/xlink"
   xmlns:sodipodi="http://sodipodi.sourceforge.net/DTD/sodipodi-0.dtd"
   xmlns:inkscape="http://www.inkscape.org/namespaces/inkscape"
   width="48"
   height="48"
   id="svg2"
   version="1.1"
   inkscape:version="0.48+devel r12399"
   sodipodi:docname="skype.svg">
  <defs
     id="defs4">
    <linearGradient
       id="linearGradient848">
      <stop
         id="stop850"
         offset="0"
         style="stop-color:#27a7dd;stop-opacity:1" />
      <stop
         id="stop852"
         offset="1"
         style="stop-color:#78d4f6;stop-opacity:1" />
    </linearGradient>
    <linearGradient
       inkscape:collect="always"
       xlink:href="#linearGradient848"
       id="linearGradient846"
       x1="104.03048"
       y1="-1048.285"
       x2="104.03048"
       y2="-1000.785"
       gradientUnits="userSpaceOnUse"
       gradientTransform="translate(-78.530479,-3.5771829)" />
  </defs>
  <sodipodi:namedview
     id="base"
     pagecolor="#ffffff"
     bordercolor="#666666"
     borderopacity="1.0"
     inkscape:pageopacity="0.0"
     inkscape:pageshadow="2"
     inkscape:zoom="4"
     inkscape:cx="32.264328"
     inkscape:cy="24.516022"
     inkscape:document-units="px"
     inkscape:current-layer="layer1"
     showgrid="false"
     inkscape:window-width="1366"
     inkscape:window-height="714"
     inkscape:window-x="0"
     inkscape:window-y="30"
     inkscape:window-maximized="1">
    <inkscape:grid
       type="xygrid"
       id="grid3850" />
  </sodipodi:namedview>
  <metadata
     id="metadata7">
    <rdf:RDF>
      <cc:Work
         rdf:about="">
        <dc:format>image/svg+xml</dc:format>
        <dc:type
           rdf:resource="http://purl.org/dc/dcmitype/StillImage" />
        <dc:title />
      </cc:Work>
    </rdf:RDF>
  </metadata>
  <g
     inkscape:label="Capa 1"
     inkscape:groupmode="layer"
     id="layer1"
     transform="translate(0,-1004.3622)">
    <rect
       style="fill:url(#linearGradient846);fill-opacity:1;stroke:none"
       id="rect2991-1"
       width="48"
       height="48"
       x="4.3115233e-07"
       y="-1052.3622"
       ry="1.9445436"
       transform="scale(1,-1)" />
    <path
       inkscape:connector-curvature="0"
       style="fill:#000000;fill-opacity:1;stroke:none"
       d="m -1e-6,1049.3622 0,1.0625 c 0,1.0773 0.860223,1.9375 1.9375,1.9375 l 44.125002,0 c 1.07728,0 1.9375,-0.8602 1.9375,-1.9375 l 0,-1.0625 c 0,1.0773 -0.86022,1.9375 -1.9375,1.9375 l -44.125002,0 C 0.860222,1051.2997 -1e-6,1050.4395 -1e-6,1049.3622 Z"
       id="rect846" />
    <path
       inkscape:connector-curvature="0"
       style="fill:#ffffff;fill-opacity:0.5372549;stroke:none"
       d="m 2.531249,1005.0185 c -0.917088,0 -1.671147,0.6395 -1.84375,1.5 0.335612,-0.2799 0.774512,-0.4375 1.25,-0.4375 l 44.125002,0 c 0.47549,0 0.91439,0.1576 1.25,0.4375 -0.1726,-0.8605 -0.92666,-1.5 -1.84375,-1.5 L 2.531249,1005.0185 Z"
       id="path7515" />
    <path
       inkscape:connector-curvature="0"
       style="fill:#000000;fill-opacity:0.39215686;stroke:none"
       d="m 1.937499,1004.3622 c -1.077277,0 -1.9375,0.8602 -1.9375,1.9375 l 0,43.0625 c 0,0.7934 0.480024,1.449 1.15625,1.75 -0.309342,-0.3333 -0.5,-0.7824 -0.5,-1.2812 l 0,-42.9375 c 0,-1.0482 0.826899,-1.875 1.875,-1.875 l 42.937502,0 c 1.0481,0 1.875,0.8268 1.875,1.875 l 0,42.9375 c 0,0.4988 -0.19066,0.9479 -0.5,1.2812 0.67622,-0.301 1.15625,-0.9566 1.15625,-1.75 l 0,-43.0625 c 0,-1.0773 -0.86022,-1.9375 -1.9375,-1.9375 L 1.937499,1004.3622 Z"
       id="rect4280-9" />
    <path
       style="fill:#000000;fill-opacity:0.23529412;display:inline"
       d="m 17.61295,1012.3622 c -4.353526,0 -7.8757145,3.5222 -7.8757145,7.8758 0,0.1434 0.020631,0.2818 0.028228,0.4233 0.2537175,-4.1246 3.6590135,-7.3958 7.8474865,-7.3958 1.541966,0 2.990736,0.4489 4.206027,1.2139 0.755851,-0.1295 1.522276,-0.1976 2.314726,-0.1976 7.364357,0 13.35102,5.8451 13.577844,13.1544 0.0056,-0.1593 0.02823,-0.3193 0.02823,-0.4799 0,-7.5081 -6.098021,-13.5779 -13.606074,-13.5779 -0.79245,0 -1.558875,0.068 -2.314726,0.1977 C 20.603686,1012.811 19.154916,1012.3622 17.61295,1012.3622 z m 6.182012,8.0169 c -0.974597,0 -1.782599,0.2075 -2.371182,0.5928 -0.567369,0.372 -0.818623,0.794 -0.818623,1.2985 0,0.169 0.03108,0.3106 0.08468,0.4517 0.120279,-0.3129 0.346236,-0.5927 0.733937,-0.8469 0.588583,-0.3854 1.396587,-0.5928 2.371183,-0.5928 1.049378,0 1.801659,0.1884 2.258269,0.5364 0.470695,0.3577 0.902644,0.8518 1.242047,1.4961 0.292906,0.5038 0.535617,0.8765 0.790394,1.1009 0.273107,0.242 0.68237,0.3669 1.185593,0.3669 0.553962,0 1.010524,-0.2053 1.38319,-0.5928 0.370401,-0.3839 0.564568,-0.813 0.564568,-1.2985 0,-0.1627 -0.02698,-0.3426 -0.05646,-0.5081 -0.07739,0.3238 -0.246515,0.6321 -0.508111,0.9034 -0.372664,0.3874 -0.829227,0.5927 -1.38319,0.5927 -0.503222,0 -0.912486,-0.1249 -1.185592,-0.367 -0.254778,-0.2243 -0.497489,-0.5971 -0.790393,-1.1009 -0.339404,-0.6442 -0.771354,-1.1383 -1.242048,-1.4961 C 25.596621,1020.5675 24.84434,1020.3791 23.794962,1020.3791 z m -7.25469,2.7099 c -0.01287,0.1437 -0.02823,0.2754 -0.02823,0.4234 0,1.0777 0.291474,2.0085 0.875079,2.7382 0.574496,0.7198 1.368357,1.2794 2.342954,1.6936 0.953383,0.4058 2.146101,0.7707 3.556774,1.0728 1.036708,0.2172 1.866665,0.4291 2.484097,0.6209 0.593559,0.1849 1.097416,0.4446 1.467875,0.7905 0.242162,0.2272 0.37695,0.4981 0.451653,0.8186 0.03233,-0.1383 0.05646,-0.2732 0.05646,-0.4235 0,-0.537 -0.155245,-0.9675 -0.508111,-1.2985 -0.370458,-0.3458 -0.874315,-0.6054 -1.467875,-0.7903 -0.617431,-0.1919 -1.447388,-0.4037 -2.484096,-0.6211 -1.410673,-0.302 -2.603391,-0.6669 -3.556775,-1.0726 -0.974596,-0.4143 -1.768457,-0.9739 -2.342954,-1.6938 C 16.892021,1024.7282 16.616199,1023.9613 16.540272,1023.089 z m -5.815043,1.8348 c -0.101628,0.6693 -0.169371,1.335 -0.169371,2.0325 0,0.1503 0.02339,0.3025 0.02823,0.4517 0.02583,-0.7773 0.102904,-1.5198 0.254056,-2.2583 C 10.796697,1025.0791 10.76453,1024.9957 10.725228,1024.9238 z m 26.816947,5.2223 c -0.03646,0.216 -0.06648,0.4367 -0.112912,0.6492 0.456802,0.9193 0.725017,1.9413 0.790393,3.0204 0.0078,-0.1437 0.02823,-0.2776 0.02823,-0.4233 C 38.247885,1032.2333 37.991946,1031.1372 37.542176,1030.1461 z m -5.504531,0.621 c -0.05938,0.985 -0.365312,1.9096 -0.931536,2.71 -0.628122,0.8906 -1.534232,1.5885 -2.738152,2.0888 -1.191984,0.4955 -2.635781,0.734 -4.262484,0.734 -1.9527,0 -3.57799,-0.3388 -4.855278,-1.0163 -0.913221,-0.4939 -1.686602,-1.1509 -2.25827,-1.9759 -0.432952,-0.6251 -0.709198,-1.2554 -0.818621,-1.8631 -0.01719,0.1 -0.05646,0.2047 -0.05646,0.3106 0,0.7974 0.29781,1.6224 0.87508,2.4557 0.571667,0.8251 1.345047,1.4821 2.258268,1.9761 1.277288,0.6774 2.902578,1.0162 4.855279,1.0162 1.626703,0 3.0705,-0.2385 4.262483,-0.7339 1.203921,-0.5004 2.110031,-1.1983 2.738152,-2.089 0.631629,-0.8927 0.959596,-1.9292 0.959765,-3.0486 C 32.065873,1031.1367 32.053726,1030.9506 32.037645,1030.7671 Z"
       id="path869"
       inkscape:connector-curvature="0" />
    <path
       style="fill:#ffffff;fill-opacity:0.23529412;display:inline"
       d="m 24.049017,1017.8057 c -1.51798,0 -2.851798,0.204 -3.9802,0.621 -1.143223,0.4227 -2.045878,1.0417 -2.653466,1.8349 -0.612567,0.7982 -0.903308,1.7113 -0.903308,2.7381 0,0.1636 0.01465,0.324 0.02823,0.48 0.07644,-0.8535 0.350794,-1.6316 0.875079,-2.3147 0.607588,-0.7932 1.510243,-1.4123 2.653466,-1.8349 1.128402,-0.4171 2.46222,-0.6211 3.9802,-0.6211 1.214442,0 2.298419,0.1178 3.189805,0.3952 0.895459,0.2788 1.636595,0.6655 2.230041,1.1291 0.597804,0.4672 1.047347,0.9776 1.326734,1.4962 0.191392,0.356 0.304897,0.6958 0.366969,1.0445 0.03218,-0.1348 0.05646,-0.2526 0.05646,-0.3953 0,-0.5053 -0.141156,-1.0274 -0.423425,-1.5525 -0.279387,-0.5186 -0.728931,-1.0289 -1.326734,-1.4961 -0.593446,-0.4636 -1.334582,-0.8505 -2.230041,-1.1292 C 26.347436,1017.9235 25.263459,1017.8057 24.049017,1017.8057 z m -14.2835531,3.2464 c -0.01,0.1624 -0.028228,0.3147 -0.028228,0.4797 0,1.3675 0.3747841,2.6618 0.9879921,3.7827 0.03482,-0.2292 0.06681,-0.4522 0.112913,-0.6775 C 10.217896,1023.5824 9.8349241,1022.3463 9.7654639,1021.0521 z m 10.9243771,2.0605 c -0.05575,0.145 -0.08468,0.292 -0.08468,0.4517 0,0.3097 0.07129,0.5675 0.254055,0.7904 0.193347,0.2358 0.474242,0.4489 0.818623,0.621 0.357108,0.18 0.732541,0.3217 1.100907,0.4235 0.378265,0.1051 0.994369,0.2505 1.863072,0.4516 1.100232,0.2358 2.126276,0.5047 3.020435,0.7905 0.904736,0.29 1.677327,0.6577 2.314725,1.0726 0.651315,0.4241 1.158851,0.9582 1.524333,1.609 0.275256,0.4891 0.466952,1.07 0.536339,1.722 0.003,-0.077 0.02822,-0.1484 0.02823,-0.2259 0,-0.9358 -0.197559,-1.7474 -0.564567,-2.3994 -0.365482,-0.6508 -0.873018,-1.1849 -1.524333,-1.609 -0.637398,-0.415 -1.409989,-0.7826 -2.314725,-1.0727 -0.894159,-0.2856 -1.920203,-0.5546 -3.020435,-0.7904 -0.868703,-0.2011 -1.484807,-0.3464 -1.863073,-0.4516 -0.368365,-0.1017 -0.743798,-0.2435 -1.100906,-0.4235 -0.344382,-0.1722 -0.625276,-0.3853 -0.818623,-0.621 C 20.776211,1023.3502 20.734442,1023.2301 20.689841,1023.1126 z m -10.105755,4.6859 c -0.005,0.1519 -0.02823,0.2987 -0.02823,0.4517 0,7.5081 6.069847,13.6061 13.577844,13.6061 0.851167,0 1.704998,-0.077 2.512324,-0.2258 1.109454,0.597 2.378262,0.9315 3.726146,0.9315 4.354261,0 7.875713,-3.5216 7.875713,-7.8758 0,-0.1618 -0.01857,-0.3203 -0.02823,-0.4797 -0.225417,4.152 -3.638965,7.4523 -7.847485,7.4523 -1.347884,0 -2.616692,-0.3347 -3.726145,-0.9317 -0.807327,0.1492 -1.661158,0.2259 -2.512325,0.2259 C 16.776,1040.953 10.821037,1035.0988 10.584086,1027.7985 z m 27.127461,0.028 c -0.02915,0.8335 -0.109833,1.6665 -0.282283,2.4558 0.04112,0.083 0.07464,0.1697 0.112912,0.2541 0.124808,-0.7394 0.197599,-1.5115 0.197599,-2.2865 C 37.739775,1028.1066 37.715972,1027.9695 37.711547,1027.8268 z m -19.590487,1.6092 c -0.568783,0 -1.03881,0.1574 -1.411418,0.5082 -0.376116,0.3528 -0.592797,0.8002 -0.592797,1.2985 0,0.1805 0.02654,0.3531 0.05646,0.5363 0.07143,-0.3481 0.254252,-0.6668 0.536338,-0.9316 0.372609,-0.3507 0.842636,-0.5081 1.411419,-0.5081 0.467189,0 0.858124,0.1186 1.185591,0.3952 0.312647,0.2654 0.575156,0.6789 0.790394,1.1856 0.241374,0.5518 0.513046,1.0163 0.790395,1.3832 0.266771,0.3529 0.667604,0.6429 1.157363,0.8751 0.493322,0.2337 1.130531,0.3388 1.947757,0.3388 1.124217,0 2.073375,-0.2322 2.76638,-0.7057 0.676714,-0.4615 0.987993,-1.0141 0.987993,-1.6938 0,-0.1684 -0.02231,-0.3334 -0.05646,-0.4799 -0.113927,0.4878 -0.404369,0.9109 -0.931535,1.2704 -0.693006,0.4735 -1.642164,0.7056 -2.766381,0.7056 -0.817225,0 -1.454435,-0.105 -1.947757,-0.3388 -0.489759,-0.2321 -0.890592,-0.5221 -1.157363,-0.8749 -0.277349,-0.3671 -0.549021,-0.8314 -0.790395,-1.3833 -0.215238,-0.5068 -0.477747,-0.9203 -0.790394,-1.1856 C 18.979184,1029.5544 18.588249,1029.4358 18.12106,1029.4358 Z"
       id="path880"
       inkscape:connector-curvature="0" />
    <path
       inkscape:connector-curvature="0"
       style="fill:#ffffff;fill-opacity:1;display:inline"
       d="m 37.423284,1030.5491 c 0.205397,-0.94 0.314683,-1.9154 0.314683,-2.9167 0,-7.5081 -6.085952,-13.5941 -13.594006,-13.5941 -0.79245,0 -1.568721,0.07 -2.324573,0.199 -1.21529,-0.765 -2.652833,-1.2096 -4.194798,-1.2096 -4.353525,0 -7.8827538,3.53 -7.8827538,7.8835 0,1.4552 0.3959138,2.8172 1.0839978,3.9873 -0.180676,0.8828 -0.275935,1.7974 -0.275935,2.7339 0,7.5081 6.086009,13.594 13.594006,13.594 0.851166,0 1.682421,-0.079 2.489749,-0.2286 1.109452,0.5971 2.378255,0.9357 3.726139,0.9357 4.354262,0 7.883489,-3.5293 7.883489,-7.8834 C 38.243282,1032.7925 37.947606,1031.6042 37.423284,1030.5491 z m -6.307697,3.5793 c -0.628122,0.8907 -1.557465,1.5956 -2.761385,2.096 -1.191984,0.4955 -2.620985,0.7466 -4.247688,0.7466 -1.9527,0 -3.589925,-0.3429 -4.867213,-1.0204 -0.913221,-0.494 -1.666866,-1.1615 -2.238534,-1.9865 -0.577268,-0.8334 -0.870117,-1.6592 -0.870117,-2.4567 0,-0.4982 0.191253,-0.93 0.567369,-1.283 0.372608,-0.3506 0.849696,-0.5278 1.418479,-0.5278 0.467189,0 0.870117,0.1398 1.197584,0.4163 0.312648,0.2654 0.581512,0.6578 0.79675,1.1645 0.241372,0.5518 0.503901,1.0176 0.78125,1.3845 0.266771,0.353 0.649957,0.6494 1.139716,0.8815 0.493322,0.2337 1.157365,0.3514 1.974592,0.3514 1.124217,0 2.045866,-0.2399 2.738871,-0.7134 0.676713,-0.4615 1.005482,-1.0163 1.005482,-1.6959 0,-0.537 -0.172134,-0.9583 -0.525,-1.2892 -0.370459,-0.3458 -0.857333,-0.6155 -1.450893,-0.8003 -0.617431,-0.1919 -1.456549,-0.4002 -2.493256,-0.6175 -1.410674,-0.302 -2.609729,-0.6605 -3.563112,-1.0664 -0.974596,-0.4142 -1.760712,-0.9893 -2.335208,-1.7092 -0.583603,-0.7296 -0.879281,-1.6464 -0.879281,-2.724 0,-1.0269 0.310498,-1.9527 0.923064,-2.7509 0.607589,-0.7932 1.495411,-1.4093 2.638634,-1.832 1.128404,-0.4171 2.470007,-0.6288 3.987989,-0.6288 1.214441,0 2.281469,0.1404 3.172855,0.4178 0.895459,0.2787 1.651366,0.6556 2.244813,1.1192 0.597803,0.4672 1.042421,0.9668 1.321806,1.4855 0.28227,0.5251 0.424933,1.0459 0.424933,1.5511 0,0.4855 -0.187067,0.9273 -0.557469,1.3112 -0.372666,0.3875 -0.842004,0.5844 -1.395966,0.5844 -0.503222,0 -0.897665,-0.1235 -1.170772,-0.3655 -0.254779,-0.2244 -0.518721,-0.5759 -0.811627,-1.0797 -0.339403,-0.6444 -0.749402,-1.1518 -1.220097,-1.5096 -0.456611,-0.3479 -1.220212,-0.5243 -2.26959,-0.5243 -0.974597,0 -1.766368,0.1961 -2.35495,0.5814 -0.567369,0.372 -0.842625,0.799 -0.842625,1.3035 0,0.3098 0.08824,0.5681 0.271013,0.7911 0.193347,0.2357 0.465775,0.4431 0.810156,0.6154 0.357108,0.1799 0.725475,0.3224 1.09384,0.4241 0.378265,0.1051 1.012667,0.2603 1.881369,0.4615 1.100232,0.2358 2.111485,0.5004 3.005642,0.7862 0.904737,0.29 1.687287,0.647 2.324686,1.0621 0.651315,0.4241 1.167265,0.9682 1.532746,1.6188 0.367007,0.652 0.552548,1.458 0.552548,2.3937 C 32.066822,1032.2146 31.747216,1033.2357 31.115587,1034.1284 Z"
       id="path857" />
    <path
       inkscape:connector-curvature="0"
       id="path4145"
       d="m 24.049017,1018.7118 c -1.51798,0 -2.851798,0.2039 -3.9802,0.6209 -1.143223,0.4228 -2.045878,1.0417 -2.653466,1.8349 -0.612567,0.7982 -0.903308,1.7114 -0.903308,2.7381 0,0.1636 0.01465,0.324 0.02823,0.48 0.07644,-0.8535 0.350794,-1.6316 0.875079,-2.3147 0.607588,-0.7932 1.510243,-1.4123 2.653466,-1.8349 1.128402,-0.417 2.46222,-0.6211 3.9802,-0.6211 1.214442,0 2.298419,0.1178 3.189805,0.3953 0.895459,0.2787 1.636595,0.6655 2.230041,1.1291 0.597804,0.4672 1.047347,0.9775 1.326734,1.4961 0.191392,0.356 0.304897,0.6958 0.366969,1.0445 0.03218,-0.1347 0.05646,-0.2526 0.05646,-0.3952 0,-0.5053 -0.141156,-1.0275 -0.423425,-1.5526 -0.279387,-0.5186 -0.728931,-1.0289 -1.326734,-1.4961 -0.593446,-0.4636 -1.334582,-0.8504 -2.230041,-1.1291 C 26.347436,1018.8295 25.263459,1018.7118 24.049017,1018.7118 z m -14.2835531,3.2463 c -0.01,0.1624 -0.028228,0.3148 -0.028228,0.4798 0,1.3675 0.3747841,2.6617 0.9879921,3.7826 0.03482,-0.2292 0.06681,-0.4521 0.112913,-0.6775 C 10.217896,1024.4884 9.8349241,1023.2523 9.7654639,1021.9581 z m 10.9243771,2.0606 c -0.05575,0.145 -0.08468,0.292 -0.08468,0.4516 0,0.3098 0.07129,0.5675 0.254055,0.7904 0.193347,0.2358 0.474242,0.4489 0.818623,0.6211 0.357108,0.1799 0.732541,0.3217 1.100907,0.4235 0.378265,0.1051 0.994369,0.2505 1.863072,0.4515 1.100232,0.2359 2.126276,0.5048 3.020435,0.7905 0.904736,0.29 1.677327,0.6577 2.314725,1.0726 0.651315,0.4241 1.158851,0.9582 1.524333,1.609 0.275256,0.4891 0.466952,1.07 0.536339,1.722 0.003,-0.077 0.02822,-0.1483 0.02823,-0.2258 0,-0.9359 -0.197559,-1.7474 -0.564567,-2.3995 -0.365482,-0.6507 -0.873018,-1.1849 -1.524333,-1.6089 -0.637398,-0.4151 -1.409989,-0.7827 -2.314725,-1.0728 -0.894159,-0.2856 -1.920203,-0.5546 -3.020435,-0.7903 -0.868703,-0.2012 -1.484807,-0.3465 -1.863073,-0.4517 -0.368365,-0.1017 -0.743798,-0.2435 -1.100906,-0.4234 -0.344382,-0.1723 -0.625276,-0.3853 -0.818623,-0.6211 C 20.776211,1024.2562 20.734442,1024.1361 20.689841,1024.0187 z m -10.105755,4.6859 c -0.005,0.1518 -0.02823,0.2987 -0.02823,0.4517 0,7.5081 6.069847,13.6061 13.577844,13.6061 0.851167,0 1.704998,-0.077 2.512324,-0.2259 1.109454,0.597 2.378262,0.9316 3.726146,0.9316 4.354261,0 7.875713,-3.5217 7.875713,-7.8758 0,-0.1619 -0.01857,-0.3203 -0.02823,-0.4798 -0.225417,4.152 -3.638965,7.4523 -7.847485,7.4523 -1.347884,0 -2.616692,-0.3347 -3.726145,-0.9316 -0.807327,0.1492 -1.661158,0.2258 -2.512325,0.2258 C 16.776,1041.859 10.821037,1036.0048 10.584086,1028.7046 z m 27.127461,0.028 c -0.02915,0.8336 -0.109833,1.6666 -0.282283,2.4559 0.04112,0.083 0.07464,0.1696 0.112912,0.254 0.124808,-0.7394 0.197599,-1.5115 0.197599,-2.2865 C 37.739775,1029.0126 37.715972,1028.8755 37.711547,1028.7329 z m -19.590487,1.6093 c -0.568783,0 -1.03881,0.1573 -1.411418,0.5081 -0.376116,0.3529 -0.592797,0.8003 -0.592797,1.2985 0,0.1805 0.02654,0.3531 0.05646,0.5363 0.07143,-0.3481 0.254252,-0.6667 0.536338,-0.9315 0.372609,-0.3508 0.842636,-0.5082 1.411419,-0.5082 0.467189,0 0.858124,0.1187 1.185591,0.3952 0.312647,0.2654 0.575156,0.6789 0.790394,1.1856 0.241374,0.5519 0.513046,1.0163 0.790395,1.3833 0.266771,0.3528 0.667604,0.6428 1.157363,0.875 0.493322,0.2337 1.130531,0.3388 1.947757,0.3388 1.124217,0 2.073375,-0.2322 2.76638,-0.7057 0.676714,-0.4615 0.987993,-1.0141 0.987993,-1.6937 0,-0.1684 -0.02231,-0.3334 -0.05646,-0.48 -0.113927,0.4878 -0.404369,0.9109 -0.931535,1.2704 -0.693006,0.4735 -1.642164,0.7056 -2.766381,0.7056 -0.817225,0 -1.454435,-0.105 -1.947757,-0.3387 -0.489759,-0.2321 -0.890592,-0.5222 -1.157363,-0.875 -0.277349,-0.3671 -0.549021,-0.8314 -0.790395,-1.3832 -0.215238,-0.5069 -0.477747,-0.9204 -0.790394,-1.1856 C 18.979184,1030.4605 18.588249,1030.3418 18.12106,1030.3418 Z"
       style="fill:#ffffff;fill-opacity:0.11764706;display:inline" />
    <path
       style="fill:#ffffff;fill-opacity:0.05882353;display:inline"
       d="m 24.049017,1019.6059 c -1.51798,0 -2.851798,0.2039 -3.9802,0.621 -1.143223,0.4227 -2.045878,1.0417 -2.653466,1.8349 -0.612567,0.7981 -0.903308,1.7113 -0.903308,2.7381 0,0.1635 0.01465,0.324 0.02823,0.4799 0.07644,-0.8535 0.350794,-1.6315 0.875079,-2.3147 0.607588,-0.7932 1.510243,-1.4122 2.653466,-1.8349 1.128402,-0.417 2.46222,-0.621 3.9802,-0.621 1.214442,0 2.298419,0.1177 3.189805,0.3952 0.895459,0.2788 1.636595,0.6655 2.230041,1.1291 0.597804,0.4672 1.047347,0.9775 1.326734,1.4961 0.191392,0.356 0.304897,0.6959 0.366969,1.0445 0.03218,-0.1347 0.05646,-0.2526 0.05646,-0.3952 0,-0.5053 -0.141156,-1.0274 -0.423425,-1.5525 -0.279387,-0.5186 -0.728931,-1.029 -1.326734,-1.4962 -0.593446,-0.4636 -1.334582,-0.8504 -2.230041,-1.1291 C 26.347436,1019.7237 25.263459,1019.6059 24.049017,1019.6059 z m -14.2835531,3.2463 c -0.01,0.1624 -0.028228,0.3148 -0.028228,0.4798 0,1.3675 0.3747841,2.6617 0.9879921,3.7826 0.03482,-0.2291 0.06681,-0.4521 0.112913,-0.6775 C 10.217896,1025.3826 9.8349241,1024.1464 9.7654639,1022.8522 z m 10.9243771,2.0606 c -0.05575,0.145 -0.08468,0.292 -0.08468,0.4517 0,0.3097 0.07129,0.5674 0.254055,0.7903 0.193347,0.2359 0.474242,0.4489 0.818623,0.6211 0.357108,0.1799 0.732541,0.3217 1.100907,0.4235 0.378265,0.1051 0.994369,0.2505 1.863072,0.4516 1.100232,0.2358 2.126276,0.5047 3.020435,0.7904 0.904736,0.29 1.677327,0.6577 2.314725,1.0727 0.651315,0.424 1.158851,0.9582 1.524333,1.6089 0.275256,0.4891 0.466952,1.07 0.536339,1.722 0.003,-0.077 0.02822,-0.1483 0.02823,-0.2258 0,-0.9358 -0.197559,-1.7474 -0.564567,-2.3994 -0.365482,-0.6508 -0.873018,-1.1849 -1.524333,-1.609 -0.637398,-0.415 -1.409989,-0.7826 -2.314725,-1.0728 -0.894159,-0.2856 -1.920203,-0.5546 -3.020435,-0.7903 -0.868703,-0.2012 -1.484807,-0.3465 -1.863073,-0.4517 -0.368365,-0.1017 -0.743798,-0.2434 -1.100906,-0.4234 -0.344382,-0.1722 -0.625276,-0.3853 -0.818623,-0.6211 C 20.776211,1025.1503 20.734442,1025.0303 20.689841,1024.9128 z m -10.105755,4.6859 c -0.005,0.1519 -0.02823,0.2987 -0.02823,0.4517 0,7.5081 6.069847,13.6061 13.577844,13.6061 0.851167,0 1.704998,-0.077 2.512324,-0.2258 1.109454,0.5969 2.378262,0.9315 3.726146,0.9315 4.354261,0 7.875713,-3.5217 7.875713,-7.8758 0,-0.1619 -0.01857,-0.3203 -0.02823,-0.4798 -0.225417,4.152 -3.638965,7.4523 -7.847485,7.4523 -1.347884,0 -2.616692,-0.3346 -3.726145,-0.9316 -0.807327,0.1492 -1.661158,0.2258 -2.512325,0.2258 C 16.776,1042.7531 10.821037,1036.899 10.584086,1029.5987 z m 27.127461,0.028 c -0.02915,0.8336 -0.109833,1.6666 -0.282283,2.4559 0.04112,0.083 0.07464,0.1697 0.112912,0.254 0.124808,-0.7394 0.197599,-1.5115 0.197599,-2.2865 C 37.739775,1029.9067 37.715972,1029.7696 37.711547,1029.627 z m -19.590487,1.6093 c -0.568783,0 -1.03881,0.1574 -1.411418,0.5081 -0.376116,0.3529 -0.592797,0.8003 -0.592797,1.2985 0,0.1805 0.02654,0.3532 0.05646,0.5364 0.07143,-0.3481 0.254252,-0.6668 0.536338,-0.9316 0.372609,-0.3508 0.842636,-0.5081 1.411419,-0.5081 0.467189,0 0.858124,0.1186 1.185591,0.3952 0.312647,0.2653 0.575156,0.6788 0.790394,1.1856 0.241374,0.5518 0.513046,1.0162 0.790395,1.3832 0.266771,0.3528 0.667604,0.6429 1.157363,0.8751 0.493322,0.2336 1.130531,0.3387 1.947757,0.3387 1.124217,0 2.073375,-0.2322 2.76638,-0.7057 0.676714,-0.4615 0.987993,-1.0141 0.987993,-1.6937 0,-0.1684 -0.02231,-0.3334 -0.05646,-0.4799 -0.113927,0.4877 -0.404369,0.9108 -0.931535,1.2704 -0.693006,0.4734 -1.642164,0.7056 -2.766381,0.7056 -0.817225,0 -1.454435,-0.105 -1.947757,-0.3388 -0.489759,-0.2321 -0.890592,-0.5221 -1.157363,-0.875 -0.277349,-0.367 -0.549021,-0.8314 -0.790395,-1.3832 -0.215238,-0.5068 -0.477747,-0.9203 -0.790394,-1.1856 C 18.979184,1031.3546 18.588249,1031.236 18.12106,1031.236 Z"
       id="path4147"
       inkscape:connector-curvature="0" />
    <path
       inkscape:connector-curvature="0"
       id="path4149"
       d="m 17.61295,1013.0168 c -4.353526,0 -7.8757145,3.5221 -7.8757145,7.8758 0,0.1434 0.020631,0.2818 0.028228,0.4233 0.2537175,-4.1247 3.6590135,-7.3959 7.8474865,-7.3959 1.541966,0 2.990736,0.449 4.206027,1.214 0.755851,-0.1295 1.522276,-0.1977 2.314726,-0.1977 7.364357,0 13.35102,5.8452 13.577844,13.1545 0.0056,-0.1593 0.02823,-0.3193 0.02823,-0.4799 0,-7.5081 -6.098021,-13.5779 -13.606074,-13.5779 -0.79245,0 -1.558875,0.068 -2.314726,0.1976 C 20.603686,1013.4656 19.154916,1013.0168 17.61295,1013.0168 z m 6.182012,8.0169 c -0.974597,0 -1.782599,0.2074 -2.371182,0.5928 -0.567369,0.372 -0.818623,0.7939 -0.818623,1.2985 0,0.169 0.03108,0.3105 0.08468,0.4516 0.120279,-0.3128 0.346236,-0.5926 0.733937,-0.8469 0.588583,-0.3853 1.396587,-0.5928 2.371183,-0.5928 1.049378,0 1.801659,0.1885 2.258269,0.5365 0.470695,0.3577 0.902644,0.8517 1.242047,1.496 0.292906,0.5039 0.535617,0.8765 0.790394,1.101 0.273107,0.242 0.68237,0.3669 1.185593,0.3669 0.553962,0 1.010524,-0.2054 1.38319,-0.5928 0.370401,-0.3839 0.564568,-0.813 0.564568,-1.2985 0,-0.1627 -0.02698,-0.3426 -0.05646,-0.5081 -0.07739,0.3238 -0.246515,0.6321 -0.508111,0.9033 -0.372664,0.3875 -0.829227,0.5927 -1.38319,0.5927 -0.503222,0 -0.912486,-0.1248 -1.185592,-0.3669 -0.254778,-0.2243 -0.497489,-0.5971 -0.790393,-1.1009 -0.339404,-0.6442 -0.771354,-1.1383 -1.242048,-1.4961 C 25.596621,1021.2221 24.84434,1021.0337 23.794962,1021.0337 z m -7.25469,2.7099 c -0.01287,0.1437 -0.02823,0.2753 -0.02823,0.4234 0,1.0777 0.291474,2.0085 0.875079,2.7382 0.574496,0.7198 1.368357,1.2793 2.342954,1.6936 0.953383,0.4058 2.146101,0.7706 3.556774,1.0727 1.036708,0.2173 1.866665,0.4292 2.484097,0.621 0.593559,0.1849 1.097416,0.4446 1.467875,0.7905 0.242162,0.2271 0.37695,0.4981 0.451653,0.8186 0.03233,-0.1384 0.05646,-0.2733 0.05646,-0.4235 0,-0.537 -0.155245,-0.9675 -0.508111,-1.2985 -0.370458,-0.3458 -0.874315,-0.6055 -1.467875,-0.7904 -0.617431,-0.1918 -1.447388,-0.4037 -2.484096,-0.621 -1.410673,-0.302 -2.603391,-0.6669 -3.556775,-1.0727 -0.974596,-0.4142 -1.768457,-0.9738 -2.342954,-1.6937 C 16.892021,1025.3827 16.616199,1024.6159 16.540272,1023.7436 z m -5.815043,1.8348 c -0.101628,0.6692 -0.169371,1.335 -0.169371,2.0325 0,0.1502 0.02339,0.3025 0.02823,0.4517 0.02583,-0.7773 0.102904,-1.5198 0.254056,-2.2584 C 10.796697,1025.7337 10.76453,1025.6503 10.725228,1025.5784 z m 26.816947,5.2223 c -0.03646,0.216 -0.06648,0.4367 -0.112912,0.6492 0.456802,0.9193 0.725017,1.9413 0.790393,3.0204 0.0078,-0.1438 0.02823,-0.2776 0.02823,-0.4233 C 38.247885,1032.8879 37.991946,1031.7918 37.542176,1030.8007 z m -5.504531,0.6209 c -0.05938,0.9851 -0.365312,1.9097 -0.931536,2.71 -0.628122,0.8906 -1.534232,1.5885 -2.738152,2.0889 -1.191984,0.4955 -2.635781,0.734 -4.262484,0.734 -1.9527,0 -3.57799,-0.3388 -4.855278,-1.0163 -0.913221,-0.4939 -1.686602,-1.1509 -2.25827,-1.9759 -0.432952,-0.6251 -0.709198,-1.2554 -0.818621,-1.8631 -0.01719,0.1 -0.05646,0.2047 -0.05646,0.3105 0,0.7975 0.29781,1.6224 0.87508,2.4558 0.571667,0.825 1.345047,1.4821 2.258268,1.976 1.277288,0.6775 2.902578,1.0162 4.855279,1.0162 1.626703,0 3.0705,-0.2385 4.262483,-0.7339 1.203921,-0.5003 2.110031,-1.1982 2.738152,-2.0889 0.631629,-0.8927 0.959596,-1.9293 0.959765,-3.0487 C 32.065873,1031.7912 32.053726,1031.6052 32.037645,1031.4216 Z"
       style="fill:#000000;fill-opacity:0.11764706;display:inline" />
    <path
       style="fill:#000000;fill-opacity:0.05882353;display:inline"
       d="m 17.627827,1013.9243 c -4.353527,0 -7.8757147,3.5222 -7.8757147,7.8758 0,0.1434 0.020631,0.2819 0.028228,0.4233 0.2537177,-4.1246 3.6590127,-7.3958 7.8474867,-7.3958 1.541965,0 2.990736,0.4489 4.206026,1.214 0.755851,-0.1295 1.522277,-0.1977 2.314725,-0.1977 7.364358,0 13.351022,5.8451 13.577846,13.1544 0.0056,-0.1593 0.02823,-0.3192 0.02823,-0.4799 0,-7.508 -6.09802,-13.5779 -13.606074,-13.5779 -0.792449,0 -1.558874,0.068 -2.314725,0.1977 C 20.618563,1014.3732 19.169792,1013.9243 17.627827,1013.9243 z m 6.182012,8.0169 c -0.974597,0 -1.7826,0.2075 -2.371183,0.5928 -0.567369,0.372 -0.818622,0.794 -0.818622,1.2985 0,0.169 0.03108,0.3106 0.08468,0.4517 0.120281,-0.3129 0.346237,-0.5927 0.733938,-0.8469 0.588583,-0.3853 1.396586,-0.5928 2.371183,-0.5928 1.049378,0 1.801659,0.1884 2.258269,0.5364 0.470695,0.3577 0.902645,0.8518 1.242048,1.4961 0.292905,0.5038 0.535616,0.8765 0.790394,1.1009 0.273107,0.242 0.68237,0.367 1.185592,0.367 0.553963,0 1.010525,-0.2054 1.38319,-0.5928 0.370402,-0.3839 0.564567,-0.813 0.564567,-1.2985 0,-0.1627 -0.02698,-0.3427 -0.05646,-0.5082 -0.07739,0.3238 -0.246514,0.6321 -0.508111,0.9034 -0.372665,0.3874 -0.829227,0.5927 -1.383189,0.5927 -0.503223,0 -0.912486,-0.1248 -1.185593,-0.367 -0.254778,-0.2243 -0.497489,-0.597 -0.790394,-1.1009 -0.339403,-0.6442 -0.771352,-1.1382 -1.242047,-1.496 C 25.611498,1022.1297 24.859217,1021.9412 23.809839,1021.9412 z m -7.25469,2.7099 c -0.01287,0.1437 -0.02823,0.2754 -0.02823,0.4234 0,1.0777 0.291475,2.0085 0.875079,2.7382 0.574497,0.7198 1.368358,1.2794 2.342954,1.6937 0.953384,0.4057 2.146102,0.7706 3.556775,1.0727 1.036708,0.2173 1.866665,0.4291 2.484096,0.621 0.59356,0.1849 1.097417,0.4445 1.467875,0.7904 0.242163,0.2272 0.376951,0.4982 0.451654,0.8186 0.03232,-0.1383 0.05646,-0.2732 0.05646,-0.4235 0,-0.5369 -0.155244,-0.9675 -0.50811,-1.2984 -0.370458,-0.3459 -0.874315,-0.6055 -1.467875,-0.7904 -0.617431,-0.1918 -1.447388,-0.4037 -2.484096,-0.6211 -1.410673,-0.302 -2.603391,-0.6668 -3.556775,-1.0726 -0.974597,-0.4143 -1.768457,-0.9738 -2.342954,-1.6937 C 16.906898,1026.2903 16.631076,1025.5235 16.555149,1024.6511 z m -5.815044,1.8349 c -0.101627,0.6692 -0.16937,1.3349 -0.16937,2.0324 0,0.1503 0.02339,0.3025 0.02823,0.4517 0.02583,-0.7773 0.102904,-1.5197 0.254055,-2.2583 C 10.811573,1026.6413 10.779407,1026.5578 10.740105,1026.486 z m 26.816948,5.2222 c -0.03646,0.2161 -0.06648,0.4368 -0.112912,0.6493 0.456802,0.9192 0.725017,1.9412 0.790393,3.0204 0.0078,-0.1438 0.02823,-0.2777 0.02823,-0.4234 C 38.262762,1033.7954 38.006822,1032.6994 37.557053,1031.7082 z m -5.504531,0.621 c -0.05938,0.985 -0.365313,1.9096 -0.931536,2.71 -0.628122,0.8906 -1.534232,1.5885 -2.738152,2.0888 -1.191984,0.4955 -2.635781,0.734 -4.262484,0.734 -1.9527,0 -3.57799,-0.3387 -4.855279,-1.0163 -0.91322,-0.4938 -1.686601,-1.1509 -2.258269,-1.9759 -0.432952,-0.6251 -0.709199,-1.2554 -0.818621,-1.8631 -0.01719,0.1 -0.05646,0.2047 -0.05646,0.3106 0,0.7975 0.297811,1.6224 0.87508,2.4558 0.571668,0.825 1.345049,1.482 2.25827,1.976 1.277288,0.6774 2.902579,1.0162 4.855279,1.0162 1.626703,0 3.0705,-0.2385 4.262484,-0.7339 1.20392,-0.5003 2.11003,-1.1982 2.738152,-2.0889 0.631629,-0.8927 0.959594,-1.9293 0.959763,-3.0487 C 32.08075,1032.6988 32.068603,1032.5128 32.052522,1032.3292 Z"
       id="path4151"
       inkscape:connector-curvature="0" />
  </g>
</svg>
