<?xml version="1.0" encoding="UTF-8" standalone="no"?>
<!-- Created with Inkscape (http://www.inkscape.org/) -->

<svg
   xmlns:dc="http://purl.org/dc/elements/1.1/"
   xmlns:cc="http://creativecommons.org/ns#"
   xmlns:rdf="http://www.w3.org/1999/02/22-rdf-syntax-ns#"
   xmlns:svg="http://www.w3.org/2000/svg"
   xmlns="http://www.w3.org/2000/svg"
   xmlns:xlink="http://www.w3.org/1999/xlink"
   xmlns:sodipodi="http://sodipodi.sourceforge.net/DTD/sodipodi-0.dtd"
   xmlns:inkscape="http://www.inkscape.org/namespaces/inkscape"
   width="48"
   height="48.000019"
   id="svg3139"
   version="1.1"
   inkscape:version="0.48+devel r12312"
   sodipodi:docname="system-log-out.svg">
  <defs
     id="defs3141">
    <linearGradient
       id="linearGradient3257-0">
      <stop
         offset="0"
         style="stop-color:#1f2732;stop-opacity:1"
         id="stop3259-2" />
      <stop
         offset="1"
         style="stop-color:#333b46;stop-opacity:1"
         id="stop3261-6" />
    </linearGradient>
    <linearGradient
       gradientTransform="translate(507.42857,304.57145)"
       y2="-1004.6271"
       x2="23.102119"
       y1="-1051.6226"
       x1="23.102119"
       gradientUnits="userSpaceOnUse"
       id="linearGradient1000"
       xlink:href="#linearGradient3257-0"
       inkscape:collect="always" />
  </defs>
  <sodipodi:namedview
     id="base"
     pagecolor="#ffffff"
     bordercolor="#666666"
     borderopacity="1.0"
     inkscape:pageopacity="0.0"
     inkscape:pageshadow="2"
     inkscape:zoom="4"
     inkscape:cx="-12.626023"
     inkscape:cy="20.993056"
     inkscape:document-units="px"
     inkscape:current-layer="layer1"
     showgrid="false"
     fit-margin-top="0"
     fit-margin-left="0"
     fit-margin-right="0"
     fit-margin-bottom="0"
     inkscape:window-width="1366"
     inkscape:window-height="714"
     inkscape:window-x="0"
     inkscape:window-y="30"
     inkscape:window-maximized="1" />
  <metadata
     id="metadata3144">
    <rdf:RDF>
      <cc:Work
         rdf:about="">
        <dc:format>image/svg+xml</dc:format>
        <dc:type
           rdf:resource="http://purl.org/dc/dcmitype/StillImage" />
        <dc:title />
      </cc:Work>
    </rdf:RDF>
  </metadata>
  <g
     inkscape:label="Capa 1"
     inkscape:groupmode="layer"
     id="layer1"
     transform="translate(-507.42857,-699.79074)">
    <rect
       style="fill:url(#linearGradient1000);fill-opacity:1;stroke:none"
       id="rect2991-1"
       width="48"
       height="48"
       x="507.42856"
       y="-747.79071"
       ry="1.9445436"
       transform="scale(1,-1)" />
    <path
       inkscape:connector-curvature="0"
       style="fill:#000000;fill-opacity:1;stroke:none"
       d="m 507.42857,744.79077 0,1.0625 c 0,1.0773 0.86022,1.9375 1.9375,1.9375 l 44.125,0 c 1.07728,0 1.9375,-0.8602 1.9375,-1.9375 l 0,-1.0625 c 0,1.0773 -0.86022,1.9375 -1.9375,1.9375 l -44.125,0 C 508.28879,746.72827 507.42857,745.86807 507.42857,744.79077 Z"
       id="rect846" />
    <path
       inkscape:connector-curvature="0"
       style="fill:#ffffff;fill-opacity:0.5372549;stroke:none"
       d="m 509.95982,700.44707 c -0.91709,0 -1.67115,0.6395 -1.84375,1.5 0.33561,-0.2799 0.77451,-0.4375 1.25,-0.4375 l 44.125,0 c 0.47549,0 0.91439,0.1576 1.25,0.4375 -0.1726,-0.8605 -0.92666,-1.5 -1.84375,-1.5 L 509.95982,700.44707 Z"
       id="path7515" />
    <path
       inkscape:connector-curvature="0"
       style="fill:#000000;fill-opacity:0.39215686;stroke:none"
       d="m 509.36607,699.79077 c -1.07728,0 -1.9375,0.8602 -1.9375,1.9375 l 0,43.0625 c 0,0.7934 0.48002,1.449 1.15625,1.75 -0.30934,-0.3333 -0.5,-0.7824 -0.5,-1.2812 l 0,-42.9375 c 0,-1.0482 0.8269,-1.875 1.875,-1.875 l 42.9375,0 c 1.0481,0 1.875,0.8268 1.875,1.875 l 0,42.9375 c 0,0.4988 -0.19066,0.9479 -0.5,1.2812 0.67623,-0.301 1.15625,-0.9566 1.15625,-1.75 l 0,-43.0625 c 0,-1.0773 -0.86022,-1.9375 -1.9375,-1.9375 L 509.36607,699.79077 Z"
       id="rect4280-8" />
    <path
       inkscape:connector-curvature="0"
       id="path532"
       style="fill:#ffffff;fill-opacity:1;fill-rule:nonzero;stroke:none"
       d="m 546.44572,723.65273 -6.64517,-6.51182 0,4.00632 -15.02579,0 0,5.01 15.02579,0 0,4.00633 L 546.44572,723.65273 z m -13.32343,10.85205 -13.42367,0 0,-23.37439 13.42367,0 0,5.00896 3.30553,0 0,-5.00896 c 0,-1.83676 -1.50289,-3.33963 -3.33964,-3.33963 l -13.35649,0 c -1.83675,0 -3.33861,1.50287 -3.33861,3.33963 l 0,23.37439 c 0,1.83672 1.50186,3.33963 3.33861,3.33963 l 13.35649,0 c 1.83675,0 3.33964,-1.50291 3.33964,-3.33963 l 0,-3.33966 -3.30553,0 0,3.33966" />
    <path
       style="fill:#ffffff;fill-opacity:0.23529412;fill-rule:nonzero;stroke:none"
       d="m 519.70905,711.11652 0,0.67503 13.41261,0 0,-0.67503 L 519.70905,711.11652 z m 13.41261,5.01872 0,0.64569 3.31647,0 0,-0.64569 L 533.12166,716.13524 z m 13.00172,7.83626 -6.31008,6.19269 0,0.64569 6.63293,-6.51554 L 546.12339,723.9715 z m -21.33691,2.17184 0,0.67504 15.02683,0 0,-0.67504 L 524.78647,726.14334 z m -8.3939,8.36454 0,0.64569 c 0,1.83672 1.50907,3.34581 3.34582,3.34581 l 13.35391,0 c 1.83676,0 3.34583,-1.50909 3.34583,-3.34581 l 0,-0.64569 c 0,1.83672 -1.50907,3.34582 -3.34583,3.34582 l -13.35391,0 C 517.90165,737.8537 516.39258,736.3446 516.39258,734.50788 Z"
       id="path826"
       inkscape:connector-curvature="0" />
    <path
       inkscape:connector-curvature="0"
       id="path831"
       d="m 519.72739,711.7622 0,0.67503 13.4126,0 0,-0.67503 L 519.72739,711.7622 z m 13.4126,5.01872 0,0.64569 3.31647,0 0,-0.64569 L 533.13999,716.78092 z m 13.00173,7.83626 -6.31009,6.19269 0,0.64569 6.63293,-6.51554 L 546.14173,724.61718 z m -21.33692,2.17184 0,0.67504 15.02683,0 0,-0.67504 L 524.8048,726.78902 z m -8.39389,8.36455 0,0.64568 c 0,1.83672 1.50907,3.34582 3.34582,3.34582 l 13.35392,0 c 1.83674,0 3.34581,-1.5091 3.34581,-3.34582 l 0,-0.64568 c 0,1.83672 -1.50906,3.34581 -3.34581,3.34581 l -13.35392,0 C 517.91998,738.49938 516.41092,736.99029 516.41092,735.15357 Z"
       style="fill:#ffffff;fill-opacity:0.11764706;fill-rule:nonzero;stroke:none" />
    <path
       style="fill:#ffffff;fill-opacity:0.05882353;fill-rule:nonzero;stroke:none"
       d="m 519.72739,712.40788 0,0.67504 13.4126,0 0,-0.67504 L 519.72739,712.40788 z m 13.4126,5.01873 0,0.64568 3.31647,0 0,-0.64568 L 533.13999,717.42661 z m 13.00173,7.83625 -6.31009,6.1927 0,0.64568 6.63293,-6.51554 L 546.14173,725.26286 z m -21.33692,2.17185 0,0.67503 15.02683,0 0,-0.67503 L 524.8048,727.43471 z m -8.39389,8.36454 0,0.64568 c 0,1.83672 1.50907,3.34582 3.34582,3.34582 l 13.35392,0 c 1.83674,0 3.34581,-1.5091 3.34581,-3.34582 l 0,-0.64568 c 0,1.83672 -1.50906,3.34582 -3.34581,3.34582 l -13.35392,0 C 517.91998,739.14507 516.41092,737.63597 516.41092,735.79925 Z"
       id="path833"
       inkscape:connector-curvature="0" />
    <path
       style="fill:#000000;fill-opacity:0.23453734;fill-rule:nonzero;stroke:none"
       d="m 519.7384,707.79075 c -1.83675,0 -3.34582,1.50906 -3.34582,3.34582 l 0,0.49893 c 0,-1.83675 1.50907,-3.31646 3.34582,-3.31646 l 13.35391,0 c 1.83675,0 3.34582,1.47971 3.34582,3.31646 l 0,-0.49893 c 0,-1.83676 -1.50907,-3.34582 -3.34582,-3.34582 L 519.7384,707.79075 z m 20.0749,9.36242 0,0.49893 6.36879,6.2514 0.26414,-0.26415 L 539.8133,717.15317 z m -15.02683,3.9915 0,0.52828 15.02683,0 0,-0.52828 L 524.78647,721.14467 z m 8.33519,10.0081 0,0.52828 3.31647,0 0,-0.52828 L 533.12166,731.15277 z m -13.41261,3.34581 0,0.52829 13.41261,0 0,-0.52829 L 519.70905,734.49858 Z"
       id="path835"
       inkscape:connector-curvature="0" />
    <path
       id="path840"
       d="m 519.7384,708.31628 c -1.83675,0 -3.34582,1.50906 -3.34582,3.34581 l 0,0.49894 c 0,-1.83676 1.50907,-3.31647 3.34582,-3.31647 l 13.35391,0 c 1.83675,0 3.34582,1.47971 3.34582,3.31647 l 0,-0.49894 c 0,-1.83675 -1.50907,-3.34581 -3.34582,-3.34581 L 519.7384,708.31628 z m 20.0749,9.36241 0,0.49894 6.36879,6.25139 0.26414,-0.26414 L 539.8133,717.67869 z m -15.02683,3.9915 0,0.52829 15.02683,0 0,-0.52829 L 524.78647,721.67019 z m 8.33519,10.0081 0,0.52829 3.31647,0 0,-0.52829 L 533.12166,731.67829 z m -13.41261,3.34582 0,0.52829 13.41261,0 0,-0.52829 L 519.70905,735.02411 Z"
       style="fill:#000000;fill-opacity:0.11764706;fill-rule:nonzero;stroke:none"
       inkscape:connector-curvature="0" />
    <path
       inkscape:connector-curvature="0"
       style="fill:#000000;fill-opacity:0.05882353;fill-rule:nonzero;stroke:none"
       d="m 519.7384,708.84181 c -1.83675,0 -3.34582,1.50907 -3.34582,3.34582 l 0,0.49893 c 0,-1.83674 1.50907,-3.31646 3.34582,-3.31646 l 13.35391,0 c 1.83675,0 3.34582,1.47972 3.34582,3.31646 l 0,-0.49893 c 0,-1.83675 -1.50907,-3.34582 -3.34582,-3.34582 L 519.7384,708.84181 z m 20.0749,9.36242 0,0.49893 6.36879,6.2514 0.26414,-0.26414 L 539.8133,718.20423 z m -15.02683,3.9915 0,0.52828 15.02683,0 0,-0.52828 L 524.78647,722.19573 z m 8.33519,10.0081 0,0.52828 3.31647,0 0,-0.52828 L 533.12166,732.20383 z m -13.41261,3.34581 0,0.52829 13.41261,0 0,-0.52829 L 519.70905,735.54964 Z"
       id="path842" />
  </g>
</svg>
