<?xml version="1.0" encoding="UTF-8" standalone="no"?>
<!-- Created with Inkscape (http://www.inkscape.org/) -->

<svg
   xmlns:dc="http://purl.org/dc/elements/1.1/"
   xmlns:cc="http://creativecommons.org/ns#"
   xmlns:rdf="http://www.w3.org/1999/02/22-rdf-syntax-ns#"
   xmlns:svg="http://www.w3.org/2000/svg"
   xmlns="http://www.w3.org/2000/svg"
   xmlns:xlink="http://www.w3.org/1999/xlink"
   xmlns:sodipodi="http://sodipodi.sourceforge.net/DTD/sodipodi-0.dtd"
   xmlns:inkscape="http://www.inkscape.org/namespaces/inkscape"
   width="48"
   height="48"
   id="svg2"
   version="1.1"
   inkscape:version="0.48+devel r12312"
   sodipodi:docname="system-shutdown.svg">
  <defs
     id="defs4">
    <linearGradient
       id="linearGradient909">
      <stop
         offset="0"
         style="stop-color:#e73800;stop-opacity:1"
         id="stop911" />
      <stop
         id="stop925"
         style="stop-color:#ff3f1f;stop-opacity:1"
         offset="0.5" />
      <stop
         offset="1"
         style="stop-color:#a50000;stop-opacity:1"
         id="stop913" />
    </linearGradient>
    <linearGradient
       id="linearGradient852">
      <stop
         id="stop854"
         style="stop-color:#777777;stop-opacity:1"
         offset="0" />
      <stop
         id="stop856"
         style="stop-color:#e5e5e5;stop-opacity:1"
         offset="1" />
    </linearGradient>
    <linearGradient
       id="linearGradient3257-0">
      <stop
         offset="0"
         style="stop-color:#323029;stop-opacity:1"
         id="stop3259-2" />
      <stop
         offset="1"
         style="stop-color:#433f36;stop-opacity:1"
         id="stop3261-6" />
    </linearGradient>
    <linearGradient
       gradientTransform="translate(507.42857,304.57145)"
       y2="-1004.6271"
       x2="23.102119"
       y1="-1051.6226"
       x1="23.102119"
       gradientUnits="userSpaceOnUse"
       id="linearGradient1000"
       xlink:href="#linearGradient3257-0-4"
       inkscape:collect="always" />
    <linearGradient
       id="linearGradient3257-0-4">
      <stop
         offset="0"
         style="stop-color:#a12923;stop-opacity:1"
         id="stop3259-2-5" />
      <stop
         offset="1"
         style="stop-color:#bd433b;stop-opacity:1"
         id="stop3261-6-0" />
    </linearGradient>
    <linearGradient
       y2="-1004.6271"
       x2="23.102119"
       y1="-1051.6226"
       x1="23.102119"
       gradientTransform="translate(1.1564465e-5,3.425e-6)"
       gradientUnits="userSpaceOnUse"
       id="linearGradient859"
       xlink:href="#linearGradient3257-0-4"
       inkscape:collect="always" />
  </defs>
  <sodipodi:namedview
     id="base"
     pagecolor="#ffffff"
     bordercolor="#666666"
     borderopacity="1.0"
     inkscape:pageopacity="0.0"
     inkscape:pageshadow="2"
     inkscape:zoom="5.6568542"
     inkscape:cx="15.334778"
     inkscape:cy="10.901977"
     inkscape:document-units="px"
     inkscape:current-layer="layer1"
     showgrid="false"
     inkscape:window-width="1366"
     inkscape:window-height="714"
     inkscape:window-x="0"
     inkscape:window-y="30"
     inkscape:window-maximized="1"
     showguides="false" />
  <metadata
     id="metadata7">
    <rdf:RDF>
      <cc:Work
         rdf:about="">
        <dc:format>image/svg+xml</dc:format>
        <dc:type
           rdf:resource="http://purl.org/dc/dcmitype/StillImage" />
        <dc:title />
      </cc:Work>
    </rdf:RDF>
  </metadata>
  <g
     inkscape:label="Capa 1"
     inkscape:groupmode="layer"
     id="layer1"
     transform="translate(0,-1004.3622)">
    <rect
       style="fill:url(#linearGradient859);fill-opacity:1;stroke:none"
       id="rect2991-1-7"
       width="48"
       height="48"
       x="0"
       y="-1052.3622"
       ry="1.9445436"
       transform="scale(1,-1)" />
    <path
       inkscape:connector-curvature="0"
       style="fill:#000000;fill-opacity:1;stroke:none"
       d="m -2.2444153e-7,1049.3622 0,1.0625 c 0,1.0773 0.86022290444153,1.9375 1.93749992444153,1.9375 l 44.1250003,0 c 1.077277,0 1.9375,-0.8602 1.9375,-1.9375 l 0,-1.0625 c 0,1.0773 -0.860223,1.9375 -1.9375,1.9375 l -44.1250003,0 C 0.86022268,1051.2997 -2.2444153e-7,1050.4395 -2.2444153e-7,1049.3622 Z"
       id="rect846" />
    <path
       inkscape:connector-curvature="0"
       style="fill:#ffffff;fill-opacity:0.5372549;stroke:none"
       d="m 2.5312497,1005.0185 c -0.9170884,0 -1.67114672,0.6395 -1.84374992,1.5 0.33561202,-0.2799 0.77451212,-0.4375 1.24999992,-0.4375 l 44.1250003,0 c 0.475488,0 0.914388,0.1576 1.25,0.4375 -0.172603,-0.8605 -0.926662,-1.5 -1.84375,-1.5 L 2.5312497,1005.0185 Z"
       id="path7515" />
    <path
       inkscape:connector-curvature="0"
       style="fill:#000000;fill-opacity:0.39215686;stroke:none"
       d="m 1.9374997,1004.3622 c -1.07727692,0 -1.93749992444153,0.8602 -1.93749992444153,1.9375 l 0,43.0625 c 0,0.7934 0.48002360444153,1.449 1.15624992444153,1.75 -0.30934162,-0.3333 -0.49999992,-0.7824 -0.49999992,-1.2812 l 0,-42.9375 c 0,-1.0482 0.82689892,-1.875 1.87499992,-1.875 l 42.9375003,0 c 1.048101,0 1.875,0.8268 1.875,1.875 l 0,42.9375 c 0,0.4988 -0.190658,0.9479 -0.5,1.2812 0.676226,-0.301 1.15625,-0.9566 1.15625,-1.75 l 0,-43.0625 c 0,-1.0773 -0.860223,-1.9375 -1.9375,-1.9375 L 1.9374997,1004.3622 Z"
       id="rect4280" />
    <path
       style="fill:#ffffff"
       d="m 23.269756,1012.3622 c -0.80961,0 -1.48971,0.6509 -1.48971,1.4605 l 0,11.7716 c 0,0.8095 0.6801,1.4897 1.48971,1.4897 l 1.460496,0 c 0.809609,0 1.489709,-0.6802 1.489709,-1.4897 l 0,-11.7716 c 0,-0.8096 -0.6801,-1.4605 -1.489709,-1.4605 L 23.269756,1012.3622 z m -3.680457,1.9278 c -5.758992,1.8626 -9.9313854,7.2619 -9.9313854,13.6411 0,7.92 6.4221454,14.3421 14.3420894,14.3421 7.919945,0 14.342089,-6.4221 14.342089,-14.3421 0.0013,-6.3785 -4.171729,-11.7785 -9.931385,-13.6411 l 0,5.5792 c 2.846262,1.564 4.790433,4.5915 4.790433,8.0619 0,5.069 -4.132106,9.2012 -9.201137,9.2012 -5.06903,0 -9.201137,-4.1322 -9.201137,-9.2012 0,-3.4704 1.944837,-6.4979 4.790433,-8.0619 L 19.589299,1014.29 Z"
       id="path1435"
       inkscape:connector-curvature="0" />
    <path
       style="fill:#ffffff;fill-opacity:0.23529412"
       d="m 19.589299,1019.8551 c -2.845596,1.564 -4.790433,4.5915 -4.790433,8.0619 0,0.1289 0.02393,0.2522 0.0292,0.3797 0.11694,-3.3339 2.004688,-6.2255 4.761223,-7.7405 L 19.589299,1019.8551 z m 8.821408,0 0,0.7011 c 2.757178,1.515 4.644323,4.4066 4.761224,7.7405 0.0054,-0.1275 0.0292,-0.2508 0.0292,-0.3797 C 33.20114,1024.4466 31.256969,1021.4191 28.410707,1019.8551 z m -6.630661,5.7252 0,0.701 c 0,0.8096 0.6801,1.4898 1.48971,1.4898 l 1.460496,0 c 0.809609,0 1.489709,-0.6802 1.489709,-1.4898 l 0,-0.701 c 0,0.8095 -0.6801,1.4896 -1.489709,1.4896 l -1.460496,0 C 22.460146,1027.0699 21.780046,1026.3898 21.780046,1025.5803 z m -12.0929217,2.658 c -0.00331,0.1258 -0.029216,0.2531 -0.029216,0.3798 0,7.9198 6.4221457,14.342 14.3420897,14.342 7.919943,0 14.342089,-6.4222 14.342089,-14.342 2.7e-5,-0.1267 -0.02597,-0.254 -0.0292,-0.3798 C 38.139306,1036.0075 31.810844,1042.2589 24,1042.2589 16.189162,1042.2589 9.8606997,1036.0075 9.6871243,1028.2383 Z"
       id="path892"
       inkscape:connector-curvature="0" />
    <path
       inkscape:connector-curvature="0"
       id="path917"
       d="m 19.589299,1020.5562 c -2.845596,1.564 -4.790433,4.5914 -4.790433,8.0619 0,0.1288 0.02393,0.252 0.0292,0.3797 0.11694,-3.3339 2.004688,-6.2255 4.761223,-7.7406 L 19.589299,1020.5562 z m 8.821408,0 0,0.701 c 2.757178,1.5151 4.644323,4.4067 4.761224,7.7406 0.0054,-0.1277 0.0292,-0.2509 0.0292,-0.3797 C 33.20114,1025.1476 31.256969,1022.1202 28.410707,1020.5562 z m -6.630661,5.7251 0,0.701 c 0,0.8094 0.6801,1.4896 1.48971,1.4896 l 1.460496,0 c 0.809609,0 1.489709,-0.6802 1.489709,-1.4896 l 0,-0.701 c 0,0.8096 -0.6801,1.4898 -1.489709,1.4898 l -1.460496,0 C 22.460146,1027.7711 21.780046,1027.0909 21.780046,1026.2813 z m -12.0929217,2.658 c -0.00331,0.1259 -0.029216,0.2532 -0.029216,0.3798 0,7.9199 6.4221457,14.342 14.3420897,14.342 7.919943,0 14.342089,-6.4221 14.342089,-14.342 2.7e-5,-0.1266 -0.02597,-0.2539 -0.0292,-0.3798 C 38.139306,1036.7087 31.810844,1042.9601 24,1042.9601 16.189162,1042.9601 9.8606997,1036.7087 9.6871243,1028.9393 Z"
       style="fill:#ffffff;fill-opacity:0.11888547" />
    <path
       style="fill:#ffffff;fill-opacity:0.05882353"
       d="m 19.589299,1021.2572 c -2.845596,1.564 -4.790433,4.5915 -4.790433,8.0619 0,0.1288 0.02393,0.2521 0.0292,0.3797 0.11694,-3.334 2.004688,-6.2255 4.761223,-7.7405 L 19.589299,1021.2572 z m 8.821408,0 0,0.7011 c 2.757178,1.515 4.644323,4.4065 4.761224,7.7405 0.0054,-0.1276 0.0292,-0.2509 0.0292,-0.3797 C 33.20114,1025.8487 31.256969,1022.8212 28.410707,1021.2572 z m -6.630661,5.7251 0,0.701 c 0,0.8096 0.6801,1.4897 1.48971,1.4897 l 1.460496,0 c 0.809609,0 1.489709,-0.6801 1.489709,-1.4897 l 0,-0.701 c 0,0.8094 -0.6801,1.4896 -1.489709,1.4896 l -1.460496,0 C 22.460146,1028.4719 21.780046,1027.7917 21.780046,1026.9823 z m -12.0929217,2.6581 c -0.00331,0.1257 -0.029216,0.2531 -0.029216,0.3798 0,7.9198 6.4221457,14.342 14.3420897,14.342 7.919943,0 14.342089,-6.4222 14.342089,-14.342 2.7e-5,-0.1267 -0.02597,-0.2541 -0.0292,-0.3798 C 38.139306,1037.4095 31.810844,1043.6611 24,1043.6611 16.189162,1043.6611 9.8606997,1037.4095 9.6871243,1029.6404 Z"
       id="path919"
       inkscape:connector-curvature="0" />
    <path
       style="fill:#000000;fill-opacity:0.23529412"
       d="m 23.269756,1012.3622 c -0.80961,0 -1.48971,0.6509 -1.48971,1.4605 l 0,0.2921 c 0,-0.8095 0.6801,-1.4605 1.48971,-1.4605 l 1.460496,0 c 0.809609,0 1.489709,0.651 1.489709,1.4605 l 0,-0.2921 c 0,-0.8096 -0.6801,-1.4605 -1.489709,-1.4605 L 23.269756,1012.3622 z m -3.680457,1.9278 c -5.486636,1.7745 -9.502495,6.7519 -9.8729651,12.7356 0.4794831,-5.8561 4.4739101,-10.6973 9.8729651,-12.4435 L 19.589299,1014.29 z m 8.821408,0 0,0.2921 c 5.399678,1.7462 9.394488,6.5876 9.872967,12.4435 C 37.914294,1021.0424 33.897978,1016.0645 28.410707,1014.29 z m -13.611841,13.7871 c -7.74e-4,0.049 0,0.097 0,0.1461 0,5.069 4.132107,9.2011 9.201137,9.2011 5.069031,0 9.201137,-4.1321 9.201137,-9.2011 0,-0.049 7.75e-4,-0.097 0,-0.1461 -0.07931,5.0013 -4.181417,9.0552 -9.201137,9.0552 C 18.980284,1037.1323 14.878176,1033.0784 14.798866,1028.0771 Z"
       id="path941"
       inkscape:connector-curvature="0" />
    <path
       id="path946"
       d="m 23.284359,1012.6543 c -0.809609,0 -1.489707,0.651 -1.489707,1.4605 l 0,0.2921 c 0,-0.8096 0.680098,-1.4605 1.489707,-1.4605 l 1.460499,0 c 0.809607,0 1.489707,0.6509 1.489707,1.4605 l 0,-0.2921 c 0,-0.8095 -0.6801,-1.4605 -1.489707,-1.4605 L 23.284359,1012.6543 z m -3.680455,1.9278 c -5.486636,1.7746 -9.502495,6.7519 -9.8729653,12.7356 0.4794823,-5.8563 4.4739103,-10.6973 9.8729653,-12.4434 L 19.603904,1014.5821 z m 8.821408,0 0,0.2922 c 5.399678,1.7461 9.394489,6.5876 9.872966,12.4434 C 37.928898,1021.3344 33.912582,1016.3567 28.425312,1014.5821 z m -13.611841,13.7872 c -7.73e-4,0.049 0,0.097 0,0.146 0,5.069 4.132109,9.2012 9.201137,9.2012 5.06903,0 9.201137,-4.1322 9.201137,-9.2012 0,-0.05 7.74e-4,-0.097 0,-0.146 -0.07931,5.0014 -4.181415,9.055 -9.201137,9.055 C 18.994889,1037.4243 14.892781,1033.3707 14.813471,1028.3693 Z"
       style="fill:#000000;fill-opacity:0.11647746"
       inkscape:connector-curvature="0" />
    <path
       inkscape:connector-curvature="0"
       style="fill:#000000;fill-opacity:0.05882353"
       d="m 23.284359,1012.9464 c -0.809609,0 -1.489707,0.6509 -1.489707,1.4605 l 0,0.292 c 0,-0.8094 0.680098,-1.4604 1.489707,-1.4604 l 1.460499,0 c 0.809607,0 1.489707,0.651 1.489707,1.4604 l 0,-0.292 c 0,-0.8096 -0.6801,-1.4605 -1.489707,-1.4605 L 23.284359,1012.9464 z m -3.680455,1.9279 c -5.486636,1.7744 -9.502495,6.7518 -9.8729653,12.7355 0.4794823,-5.8563 4.4739103,-10.6973 9.8729653,-12.4435 L 19.603904,1014.8743 z m 8.821408,0 0,0.292 c 5.399678,1.7462 9.394489,6.5877 9.872966,12.4435 C 37.928898,1021.6266 33.912582,1016.6487 28.425312,1014.8743 z m -13.611841,13.7871 c -7.73e-4,0.049 0,0.097 0,0.1461 0,5.069 4.132109,9.201 9.201137,9.201 5.06903,0 9.201137,-4.132 9.201137,-9.201 0,-0.05 7.74e-4,-0.097 0,-0.1461 -0.07931,5.0013 -4.181415,9.0551 -9.201137,9.0551 C 18.994889,1037.7165 14.892781,1033.6627 14.813471,1028.6614 Z"
       id="path948" />
  </g>
</svg>
