<?xml version="1.0" encoding="UTF-8" standalone="no"?>
<!-- Created with Inkscape (http://www.inkscape.org/) -->

<svg
   xmlns:dc="http://purl.org/dc/elements/1.1/"
   xmlns:cc="http://creativecommons.org/ns#"
   xmlns:rdf="http://www.w3.org/1999/02/22-rdf-syntax-ns#"
   xmlns:svg="http://www.w3.org/2000/svg"
   xmlns="http://www.w3.org/2000/svg"
   xmlns:xlink="http://www.w3.org/1999/xlink"
   xmlns:sodipodi="http://sodipodi.sourceforge.net/DTD/sodipodi-0.dtd"
   xmlns:inkscape="http://www.inkscape.org/namespaces/inkscape"
   width="48.000011"
   height="48.014492"
   id="svg5453"
   version="1.1"
   inkscape:version="0.48+devel r12312"
   sodipodi:docname="system-restart.svg">
  <defs
     id="defs5455">
    <linearGradient
       id="linearGradient3257-0-4">
      <stop
         offset="0"
         style="stop-color:#69a123;stop-opacity:1"
         id="stop3259-2-5" />
      <stop
         offset="1"
         style="stop-color:#abbd3b;stop-opacity:1"
         id="stop3261-6-0" />
    </linearGradient>
    <linearGradient
       y2="-1004.6271"
       x2="23.102119"
       y1="-1051.6226"
       x1="23.102119"
       gradientTransform="translate(384.57144,504.57145)"
       gradientUnits="userSpaceOnUse"
       id="linearGradient850"
       xlink:href="#linearGradient3257-0-4"
       inkscape:collect="always" />
  </defs>
  <sodipodi:namedview
     id="base"
     pagecolor="#ffffff"
     bordercolor="#666666"
     borderopacity="1.0"
     inkscape:pageopacity="0.0"
     inkscape:pageshadow="2"
     inkscape:zoom="3.9999998"
     inkscape:cx="-12.288916"
     inkscape:cy="67.281795"
     inkscape:document-units="px"
     inkscape:current-layer="layer1"
     showgrid="false"
     fit-margin-top="0"
     fit-margin-left="0"
     fit-margin-right="0"
     fit-margin-bottom="0"
     inkscape:window-width="1366"
     inkscape:window-height="714"
     inkscape:window-x="0"
     inkscape:window-y="30"
     inkscape:window-maximized="1" />
  <metadata
     id="metadata5458">
    <rdf:RDF>
      <cc:Work
         rdf:about="">
        <dc:format>image/svg+xml</dc:format>
        <dc:type
           rdf:resource="http://purl.org/dc/dcmitype/StillImage" />
        <dc:title />
      </cc:Work>
    </rdf:RDF>
  </metadata>
  <g
     inkscape:label="Capa 1"
     inkscape:groupmode="layer"
     id="layer1"
     transform="translate(-384.57143,-499.78351)">
    <rect
       style="fill:url(#linearGradient850);fill-opacity:1;stroke:none"
       id="rect2991-1-7"
       width="48"
       height="48"
       x="384.57144"
       y="-547.79077"
       ry="1.9445436"
       transform="scale(1,-1)" />
    <path
       inkscape:connector-curvature="0"
       style="fill:#000000;fill-opacity:1;stroke:none"
       d="m 384.57143,544.79077 0,1.0625 c 0,1.0773 0.86022,1.9375 1.9375,1.9375 l 44.125,0 c 1.07728,0 1.9375,-0.8602 1.9375,-1.9375 l 0,-1.0625 c 0,1.0773 -0.86022,1.9375 -1.9375,1.9375 l -44.125,0 C 385.43165,546.72827 384.57143,545.86807 384.57143,544.79077 Z"
       id="rect846" />
    <path
       inkscape:connector-curvature="0"
       style="fill:#ffffff;fill-opacity:0.5372549;stroke:none"
       d="m 387.10268,500.44707 c -0.91709,0 -1.67115,0.6395 -1.84375,1.5 0.33561,-0.2799 0.77451,-0.4375 1.25,-0.4375 l 44.125,0 c 0.47549,0 0.91439,0.1576 1.25,0.4375 -0.1726,-0.8605 -0.92666,-1.5 -1.84375,-1.5 L 387.10268,500.44707 Z"
       id="path7515" />
    <path
       inkscape:connector-curvature="0"
       style="fill:#000000;fill-opacity:0.39215686;stroke:none"
       d="m 386.50893,499.79077 c -1.07728,0 -1.9375,0.8602 -1.9375,1.9375 l 0,43.0625 c 0,0.7934 0.48002,1.449 1.15625,1.75 -0.30934,-0.3333 -0.5,-0.7824 -0.5,-1.2812 l 0,-42.9375 c 0,-1.0482 0.8269,-1.875 1.875,-1.875 l 42.9375,0 c 1.0481,0 1.875,0.8268 1.875,1.875 l 0,42.9375 c 0,0.4988 -0.19066,0.9479 -0.5,1.2812 0.67623,-0.301 1.15625,-0.9566 1.15625,-1.75 l 0,-43.0625 c 0,-1.0773 -0.86022,-1.9375 -1.9375,-1.9375 L 386.50893,499.79077 Z"
       id="rect4280" />
    <path
       style="fill:#ffffff;fill-rule:evenodd;clip-rule:evenodd"
       inkscape:connector-curvature="0"
       d="m 412.75728,513.39537 c -2.29772,-1.0132 -4.89814,-1.17231 -7.31393,-0.40654 -4.58917,1.44446 -7.56976,5.79915 -7.25994,10.59305 l -3.13173,0.20474 c -0.4057,-6.24211 3.47966,-11.91106 9.44587,-13.79512 3.49598,-1.10156 7.28128,-0.72055 10.49633,1.0174 l 3.00613,-3.21129 0.79968,8.90954 -9.43748,0.314 L 412.75728,513.39537 z m -0.11723,22.43712 c -1.32303,0.4145 -2.69589,0.62384 -4.06078,0.62384 -2.22362,0 -4.42965,-0.57359 -6.42257,-1.64583 l -3.00989,3.21588 -0.79969,-8.90953 9.43246,-0.31819 -3.39131,3.62995 c 2.29437,1.00903 4.89396,1.16813 7.30975,0.40613 4.58917,-1.44864 7.57394,-5.8071 7.25993,-10.59263 l 3.13174,-0.20517 C 422.50041,528.27069 418.61464,533.94424 412.64005,535.83249 Z"
       id="Refresh__x2014__Reloads_the_data_for_the_current_activity._While_the_refresh_process_is_ongoing_x2C__replace_the_Refresh_icon_in_the_action_bar_with_a_circular_activity_indicator_until_the_refresh_is_complete._2_" />
    <path
       style="fill:#ffffff;fill-opacity:0.23529412;fill-rule:evenodd;clip-rule:evenodd"
       d="m 408.21678,512.50663 c -0.93215,0.0308 -1.86899,0.18516 -2.77491,0.47232 -4.4265,1.39325 -7.36739,5.505 -7.29151,10.09594 0.17265,-4.34871 3.0558,-8.17233 7.29151,-9.50553 2.27696,-0.72177 4.7108,-0.59655 6.90775,0.26568 l 0.41328,-0.4428 C 411.32683,512.75899 409.77037,512.45533 408.21678,512.50663 z m 10.50922,4.19188 -8.79704,0.29521 -0.56089,0.61992 9.41697,-0.32472 L 418.726,516.69851 z m 0.23616,6.14022 c 0.0112,0.16963 0.0266,0.33339 0.0295,0.50185 0.007,-0.16854 0.002,-0.33184 0,-0.50185 L 418.96216,522.83873 z m 3.15867,0.50185 c -0.17087,5.7062 -3.92243,10.73187 -9.47601,12.48707 -1.32303,0.4145 -2.7089,0.61993 -4.07379,0.61993 -2.22363,0 -4.41299,-0.5809 -6.4059,-1.65314 l -3.01108,3.21771 -0.73801,-8.32471 -0.059,0 0.79705,8.91512 3.01108,-3.21771 c 1.99291,1.07224 4.18227,1.65314 6.4059,1.65314 1.36489,0 2.75076,-0.20543 4.07379,-0.61993 C 418.38952,534.60246 422.20098,529.28842 422.12083,523.34058 z m -23.97047,0.23616 -3.09963,0.20664 c 0.005,0.19372 -0.0127,0.39546 0,0.5904 l 3.12915,-0.20663 C 398.16697,523.96728 398.15196,523.77488 398.15036,523.57674 z m 9.62361,5.81549 -0.56088,0.0295 -2.83395,3.01106 c 0.13342,0.0586 0.27789,0.0947 0.41329,0.14761 L 407.77397,529.39223 Z"
       id="path826"
       inkscape:connector-curvature="0" />
    <path
       inkscape:connector-curvature="0"
       id="path831"
       d="m 408.21678,513.10073 c -0.93215,0.0308 -1.86899,0.18515 -2.77491,0.47233 -4.4265,1.39324 -7.36739,5.50498 -7.29151,10.09593 0.17265,-4.34871 3.0558,-8.17233 7.29151,-9.50553 2.27696,-0.72177 4.7108,-0.59655 6.90775,0.26568 l 0.41328,-0.4428 C 411.32683,513.35308 409.77037,513.04943 408.21678,513.10073 z m 10.50922,4.19187 -8.79704,0.29521 -0.56089,0.61993 9.41697,-0.32473 L 418.726,517.2926 z m 0.23616,6.14023 c 0.0112,0.16963 0.0266,0.33339 0.0295,0.50185 0.007,-0.16854 0.002,-0.33184 0,-0.50185 L 418.96216,523.43283 z m 3.15867,0.50185 c -0.17087,5.70621 -3.92243,10.73188 -9.47601,12.48707 -1.32303,0.4145 -2.7089,0.61993 -4.07379,0.61993 -2.22363,0 -4.41299,-0.5809 -6.4059,-1.65313 l -3.01108,3.2177 -0.73801,-8.32471 -0.059,0 0.79705,8.91512 3.01108,-3.21771 c 1.99291,1.07224 4.18227,1.65314 6.4059,1.65314 1.36489,0 2.75076,-0.20543 4.07379,-0.61993 C 418.38952,535.19657 422.20098,529.88252 422.12083,523.93468 z m -23.97047,0.23616 -3.09963,0.20664 c 0.005,0.19372 -0.0127,0.39545 0,0.5904 l 3.12915,-0.20664 C 398.16697,524.56139 398.15196,524.36898 398.15036,524.17084 z m 9.62361,5.81549 -0.56088,0.0295 -2.83395,3.01107 c 0.13342,0.0586 0.27789,0.0947 0.41329,0.14761 L 407.77397,529.98633 Z"
       style="fill:#ffffff;fill-opacity:0.11764706;fill-rule:evenodd;clip-rule:evenodd" />
    <path
       style="fill:#ffffff;fill-opacity:0.05882353;fill-rule:evenodd;clip-rule:evenodd"
       d="m 408.21678,513.69483 c -0.93215,0.0308 -1.86899,0.18515 -2.77491,0.47233 -4.4265,1.39324 -7.36739,5.50498 -7.29151,10.09593 0.17265,-4.34872 3.0558,-8.17233 7.29151,-9.50553 2.27696,-0.72177 4.7108,-0.59655 6.90775,0.26568 l 0.41328,-0.4428 C 411.32683,513.94718 409.77037,513.64353 408.21678,513.69483 z m 10.50922,4.19187 -8.79704,0.29521 -0.56089,0.61993 9.41697,-0.32473 L 418.726,517.8867 z m 0.23616,6.14023 c 0.0112,0.16963 0.0266,0.33339 0.0295,0.50184 0.007,-0.16853 0.002,-0.33184 0,-0.50184 L 418.96216,524.02693 z m 3.15867,0.50184 c -0.17087,5.70622 -3.92243,10.73189 -9.47601,12.48708 -1.32303,0.4145 -2.7089,0.61993 -4.07379,0.61993 -2.22363,0 -4.41299,-0.5809 -6.4059,-1.65313 l -3.01108,3.2177 -0.73801,-8.32471 -0.059,0 0.79705,8.91512 3.01108,-3.21771 c 1.99291,1.07224 4.18227,1.65314 6.4059,1.65314 1.36489,0 2.75076,-0.20543 4.07379,-0.61993 C 418.38952,535.79067 422.20098,530.47661 422.12083,524.52877 z m -23.97047,0.23616 -3.09963,0.20665 c 0.005,0.19372 -0.0127,0.39545 0,0.5904 l 3.12915,-0.20664 C 398.16697,525.15548 398.15196,524.96308 398.15036,524.76493 z m 9.62361,5.81551 -0.56088,0.0295 -2.83395,3.01107 c 0.13342,0.0586 0.27789,0.0947 0.41329,0.14761 L 407.77397,530.58044 Z"
       id="path833"
       inkscape:connector-curvature="0" />
    <path
       style="fill:#000000;fill-opacity:0.23584451;fill-rule:evenodd;clip-rule:evenodd"
       d="m 417.988,507.79076 -2.98156,3.21771 c -3.21506,-1.73795 -7.01323,-2.10524 -10.50922,-1.00369 -5.71443,1.80456 -9.52149,7.06205 -9.47601,12.98893 0.16284,-5.72451 3.92072,-10.7623 9.47601,-12.51661 3.49599,-1.10155 7.29416,-0.73426 10.50922,1.00369 l 2.98156,-3.21771 0.76752,8.4428 0.0295,0 L 417.988,507.79076 z m -5.54982,5.9631 -3.07011,3.27675 0.44281,-0.0295 2.95202,-3.12914 C 412.6577,513.82554 412.54461,513.79666 412.43818,513.75386 z m 9.65314,8.2952 -3.12916,0.20664 c 0.0104,0.15967 0.0263,0.31369 0.0295,0.47232 l 3.09964,-0.20663 C 422.0864,522.36244 422.10184,522.2088 422.09132,522.04906 z m -23.94096,0.97417 c -0.006,0.18633 -0.004,0.37276 0,0.56089 l 0.0295,0 C 398.16761,523.39424 398.15241,523.21157 398.15036,523.02323 z m 20.84132,0.26568 c -0.14829,4.3648 -3.03839,8.19249 -7.29151,9.53505 -2.30518,0.72711 -4.7813,0.62272 -6.99631,-0.26568 l -0.32472,0.35424 c 2.29437,1.00903 4.90524,1.17528 7.32103,0.41329 C 416.10756,531.93454 419.04484,527.84865 418.99168,523.28891 z m -11.21771,5.5203 -9.41697,0.2952 0.059,0.50184 8.91513,-0.2952 L 407.77397,528.80921 Z"
       id="path835"
       inkscape:connector-curvature="0" />
    <path
       id="path840"
       d="m 417.988,508.26042 -2.98156,3.21771 c -3.21506,-1.73795 -7.01323,-2.10524 -10.50922,-1.00369 -5.71443,1.80456 -9.52149,7.06206 -9.47601,12.98893 0.16284,-5.7245 3.92072,-10.76229 9.47601,-12.5166 3.49599,-1.10156 7.29416,-0.73426 10.50922,1.00369 l 2.98156,-3.21771 0.76752,8.4428 0.0295,0 L 417.988,508.26042 z m -5.54982,5.9631 -3.07011,3.27675 0.44281,-0.0295 2.95202,-3.12915 C 412.6577,514.29521 412.54462,514.26633 412.43818,514.22352 z m 9.65314,8.2952 -3.12916,0.20664 c 0.0104,0.15968 0.0264,0.3137 0.0295,0.47233 l 3.09963,-0.20665 C 422.0864,522.83211 422.10184,522.67846 422.09132,522.51872 z m -23.94096,0.97417 c -0.007,0.18634 -0.004,0.37278 0,0.56088 l 0.0295,0 C 398.16761,523.8639 398.15241,523.68124 398.15036,523.49289 z m 20.84132,0.26568 c -0.14829,4.36481 -3.03839,8.1925 -7.29151,9.53505 -2.30517,0.72711 -4.78129,0.62272 -6.99631,-0.26568 l -0.32472,0.35425 c 2.29437,1.00901 4.90524,1.17527 7.32103,0.41328 C 416.10756,532.40422 419.04484,528.31833 418.99168,523.75857 z m -11.21771,5.52029 -9.41697,0.2952 0.059,0.50185 8.91513,-0.2952 L 407.77397,529.27886 Z"
       style="fill:#000000;fill-opacity:0.11888547;fill-rule:evenodd;clip-rule:evenodd"
       inkscape:connector-curvature="0" />
    <path
       inkscape:connector-curvature="0"
       style="fill:#000000;fill-opacity:0.05882353;fill-rule:evenodd;clip-rule:evenodd"
       d="m 417.988,508.72934 -2.98156,3.2177 c -3.21506,-1.73794 -7.01323,-2.10524 -10.50922,-1.00369 -5.71443,1.80457 -9.52149,7.06206 -9.47601,12.98893 0.16284,-5.72449 3.92072,-10.76229 9.47601,-12.5166 3.49599,-1.10155 7.29416,-0.73426 10.50922,1.00369 l 2.98156,-3.21771 0.76752,8.4428 0.0295,0 L 417.988,508.72934 z m -5.54982,5.9631 -3.07011,3.27675 0.44281,-0.0295 2.95202,-3.12915 C 412.6577,514.76412 412.54462,514.73524 412.43818,514.69244 z m 9.65314,8.2952 -3.12916,0.20664 c 0.0104,0.15967 0.0264,0.31369 0.0295,0.47232 l 3.09963,-0.20664 C 422.0864,523.30102 422.10184,523.14737 422.09132,522.98764 z m -23.94096,0.97416 c -0.007,0.18634 -0.004,0.37278 0,0.56088 l 0.0295,0 C 398.16761,524.33281 398.15241,524.15016 398.15036,523.9618 z m 20.84132,0.26568 c -0.14829,4.36481 -3.03839,8.1925 -7.29151,9.53505 -2.30517,0.72711 -4.78129,0.62273 -6.99631,-0.26567 l -0.32472,0.35424 c 2.29437,1.00902 4.90524,1.17527 7.32103,0.41328 C 416.10756,532.87313 419.04484,528.78724 418.99168,524.22748 z m -11.21771,5.5203 -9.41697,0.29521 0.059,0.50184 8.91513,-0.29521 L 407.77397,529.74778 Z"
       id="path842" />
  </g>
</svg>
