<?xml version="1.0" encoding="UTF-8" standalone="no"?>
<!-- Created with Inkscape (http://www.inkscape.org/) -->

<svg
   xmlns:dc="http://purl.org/dc/elements/1.1/"
   xmlns:cc="http://creativecommons.org/ns#"
   xmlns:rdf="http://www.w3.org/1999/02/22-rdf-syntax-ns#"
   xmlns:svg="http://www.w3.org/2000/svg"
   xmlns="http://www.w3.org/2000/svg"
   xmlns:xlink="http://www.w3.org/1999/xlink"
   xmlns:sodipodi="http://sodipodi.sourceforge.net/DTD/sodipodi-0.dtd"
   xmlns:inkscape="http://www.inkscape.org/namespaces/inkscape"
   width="48"
   height="48"
   id="svg5453"
   version="1.1"
   inkscape:version="0.48+devel r12338"
   sodipodi:docname="unsettings.svg">
  <defs
     id="defs5455">
    <linearGradient
       inkscape:collect="always"
       id="linearGradient1443">
      <stop
         style="stop-color:#aa9ad5;stop-opacity:1"
         offset="0"
         id="stop1445" />
      <stop
         style="stop-color:#f2edf9;stop-opacity:1"
         offset="1"
         id="stop1447" />
    </linearGradient>
    <linearGradient
       inkscape:collect="always"
       id="linearGradient1435">
      <stop
         style="stop-color:#6135b4;stop-opacity:1"
         offset="0"
         id="stop1437" />
      <stop
         style="stop-color:#8e4fcf;stop-opacity:1"
         offset="1"
         id="stop1439" />
    </linearGradient>
    <linearGradient
       inkscape:collect="always"
       xlink:href="#linearGradient1435"
       id="linearGradient1441"
       x1="407.54944"
       y1="-547.81915"
       x2="407.54944"
       y2="-499.79965"
       gradientUnits="userSpaceOnUse" />
    <linearGradient
       inkscape:collect="always"
       xlink:href="#linearGradient1443"
       id="linearGradient1813"
       gradientUnits="userSpaceOnUse"
       x1="-3.9152865"
       y1="-53.170017"
       x2="-3.9152865"
       y2="12.152496"
       gradientTransform="matrix(0.43055599,0,0,-0.43055599,27.49825,15.16983)" />
  </defs>
  <sodipodi:namedview
     id="base"
     pagecolor="#ffffff"
     bordercolor="#666666"
     borderopacity="1.0"
     inkscape:pageopacity="0"
     inkscape:pageshadow="2"
     inkscape:zoom="8"
     inkscape:cx="20.942839"
     inkscape:cy="29.807307"
     inkscape:document-units="px"
     inkscape:current-layer="layer1"
     showgrid="false"
     fit-margin-top="0"
     fit-margin-left="0"
     fit-margin-right="0"
     fit-margin-bottom="0"
     inkscape:window-width="1366"
     inkscape:window-height="714"
     inkscape:window-x="0"
     inkscape:window-y="30"
     inkscape:window-maximized="1" />
  <metadata
     id="metadata5458">
    <rdf:RDF>
      <cc:Work
         rdf:about="">
        <dc:format>image/svg+xml</dc:format>
        <dc:type
           rdf:resource="http://purl.org/dc/dcmitype/StillImage" />
        <dc:title></dc:title>
      </cc:Work>
    </rdf:RDF>
  </metadata>
  <g
     inkscape:label="Capa 1"
     inkscape:groupmode="layer"
     id="layer1"
     transform="translate(-384.57143,-499.798)">
    <rect
       style="fill:url(#linearGradient1441);fill-opacity:1;stroke:none"
       id="rect2991-1-7"
       width="48"
       height="48"
       x="384.57144"
       y="-547.79797"
       ry="1.9445436"
       transform="scale(1,-1)" />
    <path
       inkscape:connector-curvature="0"
       style="fill:#000000;fill-opacity:1;stroke:none"
       d="m 384.57143,544.79799 0,1.0625 c 0,1.0773 0.86022,1.9375 1.9375,1.9375 l 44.125,0 c 1.07728,0 1.9375,-0.8602 1.9375,-1.9375 l 0,-1.0625 c 0,1.0773 -0.86022,1.9375 -1.9375,1.9375 l -44.125,0 C 385.43165,546.73549 384.57143,545.87529 384.57143,544.79799 Z"
       id="rect846" />
    <path
       inkscape:connector-curvature="0"
       style="fill:#ffffff;fill-opacity:0.5372549;stroke:none"
       d="m 387.10268,500.45429 c -0.91709,0 -1.67115,0.6395 -1.84375,1.5 0.33561,-0.2799 0.77451,-0.4375 1.25,-0.4375 l 44.125,0 c 0.47549,0 0.91439,0.1576 1.25,0.4375 -0.1726,-0.8605 -0.92666,-1.5 -1.84375,-1.5 L 387.10268,500.45429 Z"
       id="path7515" />
    <path
       inkscape:connector-curvature="0"
       style="fill:#000000;fill-opacity:0.39215686;stroke:none"
       d="m 386.50893,499.79799 c -1.07728,0 -1.9375,0.8602 -1.9375,1.9375 l 0,43.0625 c 0,0.7934 0.48002,1.449 1.15625,1.75 -0.30934,-0.3333 -0.5,-0.7824 -0.5,-1.2812 l 0,-42.9375 c 0,-1.0482 0.8269,-1.875 1.875,-1.875 l 42.9375,0 c 1.0481,0 1.875,0.8268 1.875,1.875 l 0,42.9375 c 0,0.4988 -0.19066,0.9479 -0.5,1.2812 0.67623,-0.301 1.15625,-0.9566 1.15625,-1.75 l 0,-43.0625 c 0,-1.0773 -0.86022,-1.9375 -1.9375,-1.9375 L 386.50893,499.79799 Z"
       id="rect4280" />
    <g
       id="g2507">
      <path
         id="path1455"
         transform="translate(384.57143,499.798)"
         d="M 22.0625 9.9375 L 21.03125 13.4375 C 20.219343 13.664472 19.443084 13.977787 18.71875 14.375 L 15.46875 12.625 L 12.71875 15.375 L 14.46875 18.5625 C 14.05569 19.287065 13.70958 20.059367 13.46875 20.875 L 9.90625 21.9375 L 9.90625 25.8125 L 13.40625 26.84375 C 13.637129 27.702824 13.954618 28.51901 14.375 29.28125 L 12.625 32.5625 L 15.34375 35.28125 L 18.5625 33.53125 C 19.323348 33.964996 20.139426 34.319332 21 34.5625 L 22.0625 38.09375 L 25.9375 38.09375 L 27 34.5625 C 27.860547 34.319332 28.676653 33.964996 29.4375 33.53125 L 32.65625 35.28125 L 35.375 32.53125 L 33.625 29.28125 C 34.045404 28.51901 34.362854 27.702824 34.59375 26.84375 L 38.09375 25.8125 L 38.09375 21.9375 L 34.53125 20.875 C 34.290403 20.059367 33.944332 19.287065 33.53125 18.5625 L 35.28125 15.375 L 32.53125 12.625 L 29.28125 14.375 C 28.556918 13.977787 27.780632 13.664472 26.96875 13.4375 L 25.9375 9.9375 L 22.0625 9.9375 z M 24.125 18.625 C 27.03168 18.625 29.375 20.96832 29.375 23.875 C 29.375 26.78126 27.03168 29.15625 24.125 29.15625 C 21.21875 29.15625 18.84375 26.78126 18.84375 23.875 C 18.84375 20.96832 21.21875 18.625 24.125 18.625 z "
         style="fill:none;stroke:none" />
      <path
         inkscape:connector-curvature="0"
         id="path1624"
         d="m 397.51056,515.58516 -0.22011,0.22012 1.56833,2.88903 c 0.0562,-0.10838 0.10485,-0.22445 0.16509,-0.33017 L 397.51056,515.58516 z m 22.12173,0 -1.5133,2.77898 c 0.0602,0.10572 0.10895,0.22179 0.16509,0.33017 l 1.56833,-2.88903 L 419.63229,515.58516 z m -10.9508,2.83401 c -2.90626,0 -5.25529,2.3486 -5.25529,5.25528 0,0.10917 0.021,0.2226 0.0275,0.33018 0.1542,-2.7674 2.42163,-4.95263 5.22777,-4.95263 2.80657,0 5.0736,2.18523 5.22777,4.95263 0.006,-0.10758 0.0275,-0.22101 0.0275,-0.33018 C 413.93677,520.76777 411.58817,518.41917 408.68149,518.41917 z m -14.19753,7.20882 0,0.63283 3.49435,1.04556 c 0.19739,0.72799 0.46509,1.42877 0.79793,2.09111 l 0.16508,-0.30266 c -0.41473,-0.7533 -0.73311,-1.57342 -0.96301,-2.42129 L 394.48396,525.62799 z m 28.17494,0 -3.49436,1.04555 c -0.22991,0.84787 -0.54825,1.66799 -0.96301,2.42129 l 0.16509,0.30266 c 0.33284,-0.66234 0.60051,-1.36312 0.79792,-2.09111 L 422.6589,526.26082 422.6589,525.62799 z m -25.25839,6.93367 -0.22012,0.41272 2.75146,2.75146 3.2192,-1.73342 c 0.76616,0.43655 1.58167,0.77481 2.4488,1.01804 l 1.04556,3.52187 3.85204,0 1.04555,-3.52187 c 0.8671,-0.24323 1.68265,-0.58149 2.4488,-1.01804 l 3.21921,1.73342 2.75146,-2.75146 -0.22012,-0.41272 -2.53134,2.53135 -3.21921,-1.73342 c -0.76615,0.43654 -1.5817,0.77481 -2.4488,1.01804 l -1.04555,3.52186 -3.85204,0 -1.04556,-3.52186 c -0.86713,-0.24323 -1.68264,-0.5815 -2.4488,-1.01804 l -3.2192,1.73342 L 397.40051,532.56166 Z"
         style="fill:#000000;fill-opacity:0.23629144;fill-rule:nonzero;stroke:none" />
      <path
         style="fill:#000000;fill-opacity:0.11952329;fill-rule:nonzero;stroke:none"
         d="m 397.51056,516.218 -0.22011,0.22012 1.56833,2.88903 c 0.0562,-0.10839 0.10485,-0.22446 0.16509,-0.33018 L 397.51056,516.218 z m 22.12173,0 -1.5133,2.77897 c 0.0602,0.10572 0.10895,0.22179 0.16509,0.33018 l 1.56833,-2.88903 L 419.63229,516.218 z m -10.9508,2.834 c -2.90626,0 -5.25529,2.3486 -5.25529,5.25529 0,0.10917 0.021,0.2226 0.0275,0.33017 0.1542,-2.76739 2.42163,-4.95262 5.22777,-4.95262 2.80657,0 5.0736,2.18523 5.22777,4.95262 0.006,-0.10757 0.0275,-0.221 0.0275,-0.33017 C 413.93677,521.4006 411.58817,519.052 408.68149,519.052 z m -14.19753,7.20882 0,0.63284 3.49435,1.04555 c 0.19739,0.72799 0.46509,1.42877 0.79793,2.09111 l 0.16508,-0.30266 c -0.41473,-0.7533 -0.73311,-1.57341 -0.96301,-2.42128 L 394.48396,526.26082 z m 28.17494,0 -3.49436,1.04556 c -0.22991,0.84787 -0.54825,1.66798 -0.96301,2.42128 l 0.16509,0.30266 c 0.33284,-0.66234 0.60051,-1.36312 0.79792,-2.09111 L 422.6589,526.89366 422.6589,526.26082 z m -25.25839,6.93368 -0.22012,0.41272 2.75146,2.75146 3.2192,-1.73342 c 0.76616,0.43654 1.58167,0.77481 2.4488,1.01804 l 1.04556,3.52186 3.85204,0 1.04555,-3.52186 c 0.8671,-0.24323 1.68265,-0.5815 2.4488,-1.01804 l 3.21921,1.73342 2.75146,-2.75146 -0.22012,-0.41272 -2.53134,2.53134 -3.21921,-1.73342 c -0.76615,0.43655 -1.5817,0.77481 -2.4488,1.01804 l -1.04555,3.52187 -3.85204,0 -1.04556,-3.52187 c -0.86713,-0.24323 -1.68264,-0.58149 -2.4488,-1.01804 l -3.2192,1.73342 L 397.40051,533.1945 Z"
         id="path1727"
         inkscape:connector-curvature="0" />
      <path
         inkscape:connector-curvature="0"
         id="path1729"
         d="m 397.51056,516.85084 -0.22011,0.22011 1.56833,2.88903 c 0.0562,-0.10838 0.10485,-0.22445 0.16509,-0.33017 L 397.51056,516.85084 z m 22.12173,0 -1.5133,2.77897 c 0.0602,0.10572 0.10895,0.22179 0.16509,0.33017 l 1.56833,-2.88903 L 419.63229,516.85084 z m -10.9508,2.834 c -2.90626,0 -5.25529,2.3486 -5.25529,5.25528 0,0.10917 0.021,0.2226 0.0275,0.33018 0.1542,-2.7674 2.42163,-4.95263 5.22777,-4.95263 2.80657,0 5.0736,2.18523 5.22777,4.95263 0.006,-0.10758 0.0275,-0.22101 0.0275,-0.33018 C 413.93677,522.03344 411.58817,519.68484 408.68149,519.68484 z m -14.19753,7.20882 0,0.63283 3.49435,1.04556 c 0.19739,0.72799 0.46509,1.42877 0.79793,2.09111 l 0.16508,-0.30266 c -0.41473,-0.7533 -0.73311,-1.57341 -0.96301,-2.42129 L 394.48396,526.89366 z m 28.17494,0 -3.49436,1.04555 c -0.22991,0.84788 -0.54825,1.66799 -0.96301,2.42129 l 0.16509,0.30266 c 0.33284,-0.66234 0.60051,-1.36312 0.79792,-2.09111 L 422.6589,527.52649 422.6589,526.89366 z m -25.25839,6.93367 -0.22012,0.41272 2.75146,2.75146 3.2192,-1.73342 c 0.76616,0.43655 1.58167,0.77481 2.4488,1.01804 l 1.04556,3.52187 3.85204,0 1.04555,-3.52187 c 0.8671,-0.24323 1.68265,-0.58149 2.4488,-1.01804 l 3.21921,1.73342 2.75146,-2.75146 -0.22012,-0.41272 -2.53134,2.53135 -3.21921,-1.73342 c -0.76615,0.43654 -1.5817,0.77481 -2.4488,1.01804 l -1.04555,3.52186 -3.85204,0 -1.04556,-3.52186 c -0.86713,-0.24323 -1.68264,-0.5815 -2.4488,-1.01804 l -3.2192,1.73342 L 397.40051,533.82733 Z"
         style="fill:#000000;fill-opacity:0.05882353;fill-rule:nonzero;stroke:none" />
      <path
         style="fill:#ffffff;fill-opacity:0.23629144;fill-rule:nonzero;stroke:none"
         d="m 397.51056,532.01084 -0.22011,-0.22012 1.56833,-2.88903 c 0.0562,0.10838 0.10485,0.22445 0.16509,0.33017 L 397.51056,532.01084 z m 22.12173,0 -1.5133,-2.77898 c 0.0602,-0.10572 0.10895,-0.22179 0.16509,-0.33017 l 1.56833,2.88903 L 419.63229,532.01084 z m -10.9508,-2.83401 c -2.90626,0 -5.25529,-2.3486 -5.25529,-5.25528 0,-0.10917 0.021,-0.2226 0.0275,-0.33018 0.1542,2.7674 2.42163,4.95263 5.22777,4.95263 2.80657,0 5.0736,-2.18523 5.22777,-4.95263 0.006,0.10758 0.0275,0.22101 0.0275,0.33018 C 413.93677,526.82823 411.58817,529.17683 408.68149,529.17683 z m -14.19753,-7.20882 0,-0.63283 3.49435,-1.04556 c 0.19739,-0.72799 0.46509,-1.42877 0.79793,-2.09111 l 0.16508,0.30266 c -0.41473,0.7533 -0.73311,1.57342 -0.96301,2.42129 L 394.48396,521.96801 z m 28.17494,0 -3.49436,-1.04555 c -0.22991,-0.84787 -0.54825,-1.66799 -0.96301,-2.42129 l 0.16509,-0.30266 c 0.33284,0.66234 0.60051,1.36312 0.79792,2.09111 l 3.49436,1.04556 L 422.6589,521.96801 z m -25.25839,-6.93367 -0.22012,-0.41272 2.75146,-2.75146 3.2192,1.73342 c 0.76616,-0.43655 1.58167,-0.77481 2.4488,-1.01804 l 1.04556,-3.52187 3.85204,0 1.04555,3.52187 c 0.8671,0.24323 1.68265,0.58149 2.4488,1.01804 l 3.21921,-1.73342 2.75146,2.75146 -0.22012,0.41272 -2.53134,-2.53135 -3.21921,1.73342 c -0.76615,-0.43654 -1.5817,-0.77481 -2.4488,-1.01804 l -1.04555,-3.52186 -3.85204,0 -1.04556,3.52186 c -0.86713,0.24323 -1.68264,0.5815 -2.4488,1.01804 l -3.2192,-1.73342 L 397.40051,515.03434 Z"
         id="path1731"
         inkscape:connector-curvature="0" />
      <path
         inkscape:connector-curvature="0"
         id="path1733"
         d="m 397.51056,531.378 -0.22011,-0.22012 1.56833,-2.88903 c 0.0562,0.10839 0.10485,0.22446 0.16509,0.33018 L 397.51056,531.378 z m 22.12173,0 -1.5133,-2.77897 c 0.0602,-0.10572 0.10895,-0.22179 0.16509,-0.33018 l 1.56833,2.88903 L 419.63229,531.378 z m -10.9508,-2.834 c -2.90626,0 -5.25529,-2.3486 -5.25529,-5.25529 0,-0.10917 0.021,-0.2226 0.0275,-0.33017 0.1542,2.76739 2.42163,4.95262 5.22777,4.95262 2.80657,0 5.0736,-2.18523 5.22777,-4.95262 0.006,0.10757 0.0275,0.221 0.0275,0.33017 C 413.93677,526.1954 411.58817,528.544 408.68149,528.544 z m -14.19753,-7.20882 0,-0.63284 3.49435,-1.04555 c 0.19739,-0.72799 0.46509,-1.42877 0.79793,-2.09111 l 0.16508,0.30266 c -0.41473,0.7533 -0.73311,1.57341 -0.96301,2.42128 L 394.48396,521.33518 z m 28.17494,0 -3.49436,-1.04556 c -0.22991,-0.84787 -0.54825,-1.66798 -0.96301,-2.42128 l 0.16509,-0.30266 c 0.33284,0.66234 0.60051,1.36312 0.79792,2.09111 l 3.49436,1.04555 L 422.6589,521.33518 z m -25.25839,-6.93368 -0.22012,-0.41272 2.75146,-2.75146 3.2192,1.73342 c 0.76616,-0.43654 1.58167,-0.77481 2.4488,-1.01804 l 1.04556,-3.52186 3.85204,0 1.04555,3.52186 c 0.8671,0.24323 1.68265,0.5815 2.4488,1.01804 l 3.21921,-1.73342 2.75146,2.75146 -0.22012,0.41272 -2.53134,-2.53134 -3.21921,1.73342 c -0.76615,-0.43655 -1.5817,-0.77481 -2.4488,-1.01804 l -1.04555,-3.52187 -3.85204,0 -1.04556,3.52187 c -0.86713,0.24323 -1.68264,0.58149 -2.4488,1.01804 l -3.2192,-1.73342 L 397.40051,514.4015 Z"
         style="fill:#ffffff;fill-opacity:0.11952329;fill-rule:nonzero;stroke:none" />
      <path
         style="fill:#ffffff;fill-opacity:0.05882353;fill-rule:nonzero;stroke:none"
         d="m 397.51056,530.74516 -0.22011,-0.22011 1.56833,-2.88903 c 0.0562,0.10838 0.10485,0.22445 0.16509,0.33017 L 397.51056,530.74516 z m 22.12173,0 -1.5133,-2.77897 c 0.0602,-0.10572 0.10895,-0.22179 0.16509,-0.33017 l 1.56833,2.88903 L 419.63229,530.74516 z m -10.9508,-2.834 c -2.90626,0 -5.25529,-2.3486 -5.25529,-5.25528 0,-0.10917 0.021,-0.2226 0.0275,-0.33018 0.1542,2.7674 2.42163,4.95263 5.22777,4.95263 2.80657,0 5.0736,-2.18523 5.22777,-4.95263 0.006,0.10758 0.0275,0.22101 0.0275,0.33018 C 413.93677,525.56256 411.58817,527.91116 408.68149,527.91116 z m -14.19753,-7.20882 0,-0.63283 3.49435,-1.04556 c 0.19739,-0.72799 0.46509,-1.42877 0.79793,-2.09111 l 0.16508,0.30266 c -0.41473,0.7533 -0.73311,1.57341 -0.96301,2.42129 L 394.48396,520.70234 z m 28.17494,0 -3.49436,-1.04555 c -0.22991,-0.84788 -0.54825,-1.66799 -0.96301,-2.42129 l 0.16509,-0.30266 c 0.33284,0.66234 0.60051,1.36312 0.79792,2.09111 l 3.49436,1.04556 L 422.6589,520.70234 z m -25.25839,-6.93367 -0.22012,-0.41272 2.75146,-2.75146 3.2192,1.73342 c 0.76616,-0.43655 1.58167,-0.77481 2.4488,-1.01804 l 1.04556,-3.52187 3.85204,0 1.04555,3.52187 c 0.8671,0.24323 1.68265,0.58149 2.4488,1.01804 l 3.21921,-1.73342 2.75146,2.75146 -0.22012,0.41272 -2.53134,-2.53135 -3.21921,1.73342 c -0.76615,-0.43654 -1.5817,-0.77481 -2.4488,-1.01804 l -1.04555,-3.52186 -3.85204,0 -1.04556,3.52186 c -0.86713,0.24323 -1.68264,0.5815 -2.4488,1.01804 l -3.2192,-1.73342 L 397.40051,513.76867 Z"
         id="path1735"
         inkscape:connector-curvature="0" />
      <path
         id="path1493"
         transform="translate(384.57143,499.798)"
         d="M 22.0625 9.9375 L 21.03125 13.4375 C 20.219343 13.664472 19.443084 13.977787 18.71875 14.375 L 15.46875 12.625 L 12.71875 15.375 L 14.46875 18.5625 C 14.05569 19.287065 13.70958 20.059367 13.46875 20.875 L 9.90625 21.9375 L 9.90625 25.8125 L 13.40625 26.84375 C 13.637129 27.702824 13.954618 28.51901 14.375 29.28125 L 12.625 32.5625 L 15.34375 35.28125 L 18.5625 33.53125 C 19.323348 33.964996 20.139426 34.319332 21 34.5625 L 22.0625 38.09375 L 25.9375 38.09375 L 27 34.5625 C 27.860547 34.319332 28.676653 33.964996 29.4375 33.53125 L 32.65625 35.28125 L 35.375 32.53125 L 33.625 29.28125 C 34.045404 28.51901 34.362854 27.702824 34.59375 26.84375 L 38.09375 25.8125 L 38.09375 21.9375 L 34.53125 20.875 C 34.290403 20.059367 33.944332 19.287065 33.53125 18.5625 L 35.28125 15.375 L 32.53125 12.625 L 29.28125 14.375 C 28.556918 13.977787 27.780632 13.664472 26.96875 13.4375 L 25.9375 9.9375 L 22.0625 9.9375 z M 24.125 18.625 C 27.03168 18.625 29.375 20.96832 29.375 23.875 C 29.375 26.78126 27.03168 29.15625 24.125 29.15625 C 21.21875 29.15625 18.84375 26.78126 18.84375 23.875 C 18.84375 20.96832 21.21875 18.625 24.125 18.625 z "
         style="fill:none;fill-opacity:1;fill-rule:nonzero;stroke:none" />
      <path
         id="path88"
         transform="translate(384.57143,499.798)"
         d="M 22.0625 9.9375 L 21.03125 13.4375 C 20.219343 13.664472 19.443084 13.977787 18.71875 14.375 L 15.46875 12.625 L 12.71875 15.375 L 14.46875 18.5625 C 14.05569 19.287065 13.70958 20.059367 13.46875 20.875 L 9.90625 21.9375 L 9.90625 25.8125 L 13.40625 26.84375 C 13.637129 27.702824 13.954618 28.51901 14.375 29.28125 L 12.625 32.5625 L 15.34375 35.28125 L 18.5625 33.53125 C 19.323348 33.964996 20.139426 34.319332 21 34.5625 L 22.0625 38.09375 L 25.9375 38.09375 L 27 34.5625 C 27.860547 34.319332 28.676653 33.964996 29.4375 33.53125 L 32.65625 35.28125 L 35.375 32.53125 L 33.625 29.28125 C 34.045404 28.51901 34.362854 27.702824 34.59375 26.84375 L 38.09375 25.8125 L 38.09375 21.9375 L 34.53125 20.875 C 34.290403 20.059367 33.944332 19.287065 33.53125 18.5625 L 35.28125 15.375 L 32.53125 12.625 L 29.28125 14.375 C 28.556918 13.977787 27.780632 13.664472 26.96875 13.4375 L 25.9375 9.9375 L 22.0625 9.9375 z M 24.125 18.625 C 27.03168 18.625 29.375 20.96832 29.375 23.875 C 29.375 26.78126 27.03168 29.15625 24.125 29.15625 C 21.21875 29.15625 18.84375 26.78126 18.84375 23.875 C 18.84375 20.96832 21.21875 18.625 24.125 18.625 z "
         style="fill:url(#linearGradient1813);fill-opacity:1;fill-rule:nonzero;stroke:none" />
    </g>
  </g>
</svg>
