<?xml version="1.0" encoding="UTF-8" standalone="no"?>
<!-- Created with Inkscape (http://www.inkscape.org/) -->

<svg
   xmlns:dc="http://purl.org/dc/elements/1.1/"
   xmlns:cc="http://creativecommons.org/ns#"
   xmlns:rdf="http://www.w3.org/1999/02/22-rdf-syntax-ns#"
   xmlns:svg="http://www.w3.org/2000/svg"
   xmlns="http://www.w3.org/2000/svg"
   xmlns:xlink="http://www.w3.org/1999/xlink"
   xmlns:sodipodi="http://sodipodi.sourceforge.net/DTD/sodipodi-0.dtd"
   xmlns:inkscape="http://www.inkscape.org/namespaces/inkscape"
   width="48"
   height="48"
   id="svg5453"
   version="1.1"
   inkscape:version="0.48+devel r12338"
   sodipodi:docname="winpdb.svg">
  <defs
     id="defs5455">
    <linearGradient
       id="linearGradient4605"
       inkscape:collect="always">
      <stop
         id="stop4607"
         offset="0"
         style="stop-color:#ffffff;stop-opacity:1" />
      <stop
         id="stop4609"
         offset="1"
         style="stop-color:#ffffff;stop-opacity:1" />
    </linearGradient>
    <linearGradient
       inkscape:collect="always"
       id="linearGradient4557">
      <stop
         style="stop-color:#ffb600;stop-opacity:1"
         offset="0"
         id="stop4559" />
      <stop
         style="stop-color:#ffd96a;stop-opacity:1"
         offset="1"
         id="stop4561" />
    </linearGradient>
    <linearGradient
       inkscape:collect="always"
       xlink:href="#linearGradient4557"
       id="linearGradient4563"
       x1="410.05835"
       y1="-547.80792"
       x2="410.05835"
       y2="-499.79883"
       gradientUnits="userSpaceOnUse" />
    <linearGradient
       inkscape:collect="always"
       xlink:href="#linearGradient4605"
       id="linearGradient4603"
       x1="414.09314"
       y1="539.77679"
       x2="414.09314"
       y2="507.80228"
       gradientUnits="userSpaceOnUse"
       gradientTransform="matrix(0.91944711,0,0,0.91944711,32.911606,42.377175)" />
  </defs>
  <sodipodi:namedview
     id="base"
     pagecolor="#ffffff"
     bordercolor="#666666"
     borderopacity="1.0"
     inkscape:pageopacity="0"
     inkscape:pageshadow="2"
     inkscape:zoom="8"
     inkscape:cx="34.168202"
     inkscape:cy="35.506978"
     inkscape:document-units="px"
     inkscape:current-layer="layer1"
     showgrid="false"
     fit-margin-top="0"
     fit-margin-left="0"
     fit-margin-right="0"
     fit-margin-bottom="0"
     inkscape:window-width="1366"
     inkscape:window-height="714"
     inkscape:window-x="0"
     inkscape:window-y="30"
     inkscape:window-maximized="1" />
  <metadata
     id="metadata5458">
    <rdf:RDF>
      <cc:Work
         rdf:about="">
        <dc:format>image/svg+xml</dc:format>
        <dc:type
           rdf:resource="http://purl.org/dc/dcmitype/StillImage" />
        <dc:title></dc:title>
      </cc:Work>
    </rdf:RDF>
  </metadata>
  <g
     inkscape:label="Capa 1"
     inkscape:groupmode="layer"
     id="layer1"
     transform="translate(-384.57143,-499.798)">
    <rect
       style="fill:url(#linearGradient4563);fill-opacity:1;stroke:none"
       id="rect2991-1-7"
       width="48"
       height="48"
       x="384.57144"
       y="-547.79797"
       ry="1.9445436"
       transform="scale(1,-1)" />
    <path
       inkscape:connector-curvature="0"
       style="fill:#000000;fill-opacity:1;stroke:none"
       d="m 384.57143,544.79799 0,1.0625 c 0,1.0773 0.86022,1.9375 1.9375,1.9375 l 44.125,0 c 1.07728,0 1.9375,-0.8602 1.9375,-1.9375 l 0,-1.0625 c 0,1.0773 -0.86022,1.9375 -1.9375,1.9375 l -44.125,0 C 385.43165,546.73549 384.57143,545.87529 384.57143,544.79799 Z"
       id="rect846" />
    <path
       inkscape:connector-curvature="0"
       style="fill:#ffffff;fill-opacity:0.5372549;stroke:none"
       d="m 387.10268,500.45429 c -0.91709,0 -1.67115,0.6395 -1.84375,1.5 0.33561,-0.2799 0.77451,-0.4375 1.25,-0.4375 l 44.125,0 c 0.47549,0 0.91439,0.1576 1.25,0.4375 -0.1726,-0.8605 -0.92666,-1.5 -1.84375,-1.5 L 387.10268,500.45429 Z"
       id="path7515" />
    <path
       inkscape:connector-curvature="0"
       style="fill:#000000;fill-opacity:0.39215686;stroke:none"
       d="m 386.50893,499.79799 c -1.07728,0 -1.9375,0.8602 -1.9375,1.9375 l 0,43.0625 c 0,0.7934 0.48002,1.449 1.15625,1.75 -0.30934,-0.3333 -0.5,-0.7824 -0.5,-1.2812 l 0,-42.9375 c 0,-1.0482 0.8269,-1.875 1.875,-1.875 l 42.9375,0 c 1.0481,0 1.875,0.8268 1.875,1.875 l 0,42.9375 c 0,0.4988 -0.19066,0.9479 -0.5,1.2812 0.67623,-0.301 1.15625,-0.9566 1.15625,-1.75 l 0,-43.0625 c 0,-1.0773 -0.86022,-1.9375 -1.9375,-1.9375 L 386.50893,499.79799 Z"
       id="rect4280" />
    <g
       id="g5202">
      <path
         inkscape:connector-curvature="0"
         id="path4585"
         d="m 418.65661,511.14898 c -0.02,0.10206 -0.0425,0.22265 -0.0861,0.34479 l -1.86763,5.17189 c -0.0873,0.24193 -0.10436,0.49879 -0.0861,0.71832 0.017,-0.10853 0.0457,-0.23266 0.0861,-0.34479 l 1.86763,-5.17189 C 418.68015,511.56099 418.68966,511.32406 418.65661,511.14898 z m -19.07853,2.24115 c -9.2e-4,0.0501 -0.003,0.0907 0,0.14367 l 0.14366,2.26988 c 0.002,-0.0552 0.003,-0.11727 0,-0.17239 L 399.57808,513.39013 z m 7.47051,4.13752 0,0.37352 3.04567,0 0,-0.37352 L 407.04859,517.52765 z m -12.24014,2.18368 c -0.0725,0.31308 0.0764,0.69284 0.45972,1.03438 l 2.64341,2.32735 c 0.33537,0.29886 0.50401,0.69902 0.54592,1.09185 0.0637,-0.51348 -0.10696,-1.04547 -0.54592,-1.43664 l -2.64341,-2.35608 C 395.02223,520.15303 394.86407,519.92997 394.80845,519.71133 z m 27.49721,0.0575 c -0.0557,0.18791 -0.1934,0.39167 -0.43099,0.60339 l -2.64341,2.35608 c -0.43896,0.39117 -0.60969,0.92316 -0.54592,1.43664 0.0419,-0.39283 0.21055,-0.79299 0.54592,-1.09185 l 2.64341,-2.32735 C 422.27638,520.38775 422.41432,520.02971 422.30566,519.7688 z m -15.25707,7.41304 0,0.37353 3.04567,0 0,-0.37353 L 407.04859,527.18184 z m -12.21141,1.35044 c -0.1452,0.4378 0.14756,0.77516 0.86198,0.86198 l 3.21807,0.40226 c 0.74737,0.0911 1.24038,0.60289 1.3217,1.26424 0.0956,-0.8352 -0.43679,-1.52985 -1.3217,-1.63777 l -3.21807,-0.40225 C 395.21307,528.96166 394.93334,528.77977 394.83718,528.53228 z m 27.49722,0.0575 c -0.0727,0.3107 -0.33945,0.55677 -0.83325,0.68959 l -2.38482,0.63212 c -0.98383,0.27511 -1.75021,1.35071 -1.69523,2.38482 l 0,0.20112 c 0.0208,-0.98467 0.75842,-1.95046 1.69523,-2.21241 l 2.38482,-0.63212 C 422.1719,529.47244 422.45214,529.04975 422.3344,528.58974 z m -9.71166,5.68908 c -0.7276,-0.045 -1.4544,0.34418 -1.81017,1.03438 l -1.37917,2.64341 c -0.47531,0.91077 -1.32618,0.96879 -1.89636,0.11493 l -1.5803,-2.35608 c -0.56731,-0.85385 -1.75825,-1.14442 -2.64341,-0.63212 l -3.76398,2.18369 c -0.6237,0.3606 -1.04334,0.27957 -1.12058,-0.14367 -0.1159,0.72207 0.34522,0.96549 1.12058,0.51719 l 3.76398,-2.18368 c 0.88516,-0.5123 2.0761,-0.22174 2.64341,0.63212 l 1.5803,2.35608 c 0.57018,0.85385 1.42105,0.79583 1.89636,-0.11493 l 1.37917,-2.64341 c 0.47436,-0.92027 1.61486,-1.28864 2.52848,-0.83325 l 2.64341,1.3217 c 0.91646,0.45539 1.63533,-6.4e-4 1.5803,-1.03437 l 0,-0.22987 c -0.0207,0.92361 -0.71124,1.32255 -1.5803,0.89072 l -2.64341,-1.32171 C 413.11264,534.36611 412.86527,534.29379 412.62274,534.27882 Z"
         style="fill:#ffffff;fill-opacity:0.23392496;fill-rule:nonzero;stroke:none" />
      <path
         style="fill:#ffffff;fill-opacity:0.11637932;fill-rule:nonzero;stroke:none"
         d="m 418.65661,511.52251 c -0.02,0.10206 -0.0425,0.22264 -0.0861,0.34479 l -1.86763,5.17189 c -0.0873,0.24193 -0.10436,0.49878 -0.0861,0.71832 0.017,-0.10853 0.0457,-0.23267 0.0861,-0.34479 l 1.86763,-5.17189 C 418.68015,511.93451 418.68966,511.69759 418.65661,511.52251 z m -19.07853,2.24115 c -9.2e-4,0.0501 -0.003,0.0907 0,0.14366 l 0.14366,2.26989 c 0.002,-0.0552 0.003,-0.11728 0,-0.1724 L 399.57808,513.76366 z m 7.47051,4.13751 0,0.37353 3.04567,0 0,-0.37353 L 407.04859,517.90117 z m -12.24014,2.18369 c -0.0725,0.31308 0.0764,0.69284 0.45972,1.03438 l 2.64341,2.32735 c 0.33537,0.29885 0.50401,0.69902 0.54592,1.09184 0.0637,-0.51347 -0.10696,-1.04547 -0.54592,-1.43664 l -2.64341,-2.35608 C 395.02223,520.52655 394.86407,520.30349 394.80845,520.08486 z m 27.49721,0.0575 c -0.0557,0.18791 -0.1934,0.39168 -0.43099,0.60339 l -2.64341,2.35608 c -0.43896,0.39117 -0.60969,0.92317 -0.54592,1.43664 0.0419,-0.39282 0.21055,-0.79299 0.54592,-1.09184 l 2.64341,-2.32735 C 422.27638,520.76128 422.41432,520.40324 422.30566,520.14232 z m -15.25707,7.41305 0,0.37352 3.04567,0 0,-0.37352 L 407.04859,527.55537 z m -12.21141,1.35043 c -0.1452,0.43781 0.14756,0.77516 0.86198,0.86199 l 3.21807,0.40225 c 0.74737,0.0911 1.24038,0.6029 1.3217,1.26424 0.0956,-0.83519 -0.43679,-1.52985 -1.3217,-1.63776 l -3.21807,-0.40226 C 395.21307,529.33519 394.93334,529.15329 394.83718,528.9058 z m 27.49722,0.0575 c -0.0727,0.3107 -0.33945,0.55676 -0.83325,0.68959 l -2.38482,0.63212 c -0.98383,0.2751 -1.75021,1.35071 -1.69523,2.38481 l 0,0.20113 c 0.0208,-0.98467 0.75842,-1.95046 1.69523,-2.21242 l 2.38482,-0.63212 C 422.1719,529.84597 422.45214,529.42328 422.3344,528.96327 z m -9.71166,5.68908 c -0.7276,-0.045 -1.4544,0.34418 -1.81017,1.03438 l -1.37917,2.64341 c -0.47531,0.91076 -1.32618,0.96878 -1.89636,0.11493 l -1.5803,-2.35608 c -0.56731,-0.85386 -1.75825,-1.14442 -2.64341,-0.63212 l -3.76398,2.18368 c -0.6237,0.36061 -1.04334,0.27958 -1.12058,-0.14366 -0.1159,0.72207 0.34522,0.96548 1.12058,0.51719 l 3.76398,-2.18369 c 0.88516,-0.5123 2.0761,-0.22173 2.64341,0.63212 l 1.5803,2.35608 c 0.57018,0.85386 1.42105,0.79584 1.89636,-0.11493 l 1.37917,-2.64341 c 0.47436,-0.92026 1.61486,-1.28863 2.52848,-0.83325 l 2.64341,1.32171 c 0.91646,0.45538 1.63533,-6.4e-4 1.5803,-1.03438 l 0,-0.22986 c -0.0207,0.9236 -0.71124,1.32254 -1.5803,0.89071 l -2.64341,-1.3217 C 413.11264,534.73963 412.86527,534.66732 412.62274,534.65235 Z"
         id="path4590"
         inkscape:connector-curvature="0" />
      <path
         inkscape:connector-curvature="0"
         id="path4592"
         d="m 418.65661,511.89603 c -0.02,0.10206 -0.0425,0.22265 -0.0861,0.3448 l -1.86763,5.17189 c -0.0873,0.24192 -0.10436,0.49878 -0.0861,0.71831 0.017,-0.10853 0.0457,-0.23266 0.0861,-0.34479 l 1.86763,-5.17189 C 418.68015,512.30804 418.68966,512.07111 418.65661,511.89603 z m -19.07853,2.24116 c -9.2e-4,0.0501 -0.003,0.0906 0,0.14366 l 0.14366,2.26988 c 0.002,-0.0552 0.003,-0.11727 0,-0.17239 L 399.57808,514.13719 z m 7.47051,4.13751 0,0.37352 3.04567,0 0,-0.37352 L 407.04859,518.2747 z m -12.24014,2.18368 c -0.0725,0.31309 0.0764,0.69284 0.45972,1.03438 l 2.64341,2.32735 c 0.33537,0.29886 0.50401,0.69902 0.54592,1.09185 0.0637,-0.51348 -0.10696,-1.04547 -0.54592,-1.43664 l -2.64341,-2.35608 C 395.02223,520.90008 394.86407,520.67702 394.80845,520.45838 z m 27.49721,0.0575 c -0.0557,0.18791 -0.1934,0.39167 -0.43099,0.60339 l -2.64341,2.35608 c -0.43896,0.39117 -0.60969,0.92316 -0.54592,1.43664 0.0419,-0.39283 0.21055,-0.79299 0.54592,-1.09185 l 2.64341,-2.32735 C 422.27638,521.1348 422.41432,520.77676 422.30566,520.51585 z m -15.25707,7.41304 0,0.37353 3.04567,0 0,-0.37353 L 407.04859,527.92889 z m -12.21141,1.35044 c -0.1452,0.4378 0.14756,0.77516 0.86198,0.86198 l 3.21807,0.40226 c 0.74737,0.0911 1.24038,0.60289 1.3217,1.26424 0.0956,-0.8352 -0.43679,-1.52985 -1.3217,-1.63777 l -3.21807,-0.40225 C 395.21307,529.70871 394.93334,529.52682 394.83718,529.27933 z m 27.49722,0.0575 c -0.0727,0.31069 -0.33945,0.55676 -0.83325,0.68958 l -2.38482,0.63212 c -0.98383,0.27511 -1.75021,1.35071 -1.69523,2.38482 l 0,0.20113 c 0.0208,-0.98468 0.75842,-1.95046 1.69523,-2.21242 l 2.38482,-0.63212 C 422.1719,530.21949 422.45214,529.7968 422.3344,529.3368 z m -9.71166,5.68907 c -0.7276,-0.045 -1.4544,0.34418 -1.81017,1.03438 l -1.37917,2.64341 c -0.47531,0.91077 -1.32618,0.96879 -1.89636,0.11493 l -1.5803,-2.35608 c -0.56731,-0.85385 -1.75825,-1.14442 -2.64341,-0.63212 l -3.76398,2.18369 c -0.6237,0.3606 -1.04334,0.27957 -1.12058,-0.14367 -0.1159,0.72207 0.34522,0.96549 1.12058,0.51719 l 3.76398,-2.18368 c 0.88516,-0.5123 2.0761,-0.22174 2.64341,0.63212 l 1.5803,2.35608 c 0.57018,0.85385 1.42105,0.79584 1.89636,-0.11493 l 1.37917,-2.64341 c 0.47436,-0.92027 1.61486,-1.28863 2.52848,-0.83325 l 2.64341,1.3217 c 0.91646,0.45539 1.63533,-6.4e-4 1.5803,-1.03437 l 0,-0.22987 c -0.0207,0.92361 -0.71124,1.32255 -1.5803,0.89072 l -2.64341,-1.32171 C 413.11264,535.11316 412.86527,535.04084 412.62274,535.02587 Z"
         style="fill:#ffffff;fill-opacity:0.05882353;fill-rule:nonzero;stroke:none" />
      <path
         d="m 410.10405,525.51159 -3.06532,0 0,-7.9693 3.06532,0 L 410.10405,525.51159 z m 0,4.90488 -3.06532,0 0,-3.21616 3.06532,0 L 410.10405,530.41647 z m 11.7841,-2.83667 -2.64411,-2.36231 c -0.76656,-0.68308 -0.76656,-1.80257 0,-2.48568 l 2.64411,-2.35281 c 0.76656,-0.68308 0.56162,-1.31875 -0.45352,-1.4136 l -3.50932,-0.33205 c -1.01418,-0.10436 -1.56253,-0.97718 -1.21341,-1.94487 l 1.86328,-5.18004 c 0.35008,-0.9772 -0.0797,-1.32821 -0.94966,-0.78744 l -4.13739,2.56156 c -0.87092,0.53127 -1.99516,0.23716 -2.50176,-0.65464 l -1.49805,-2.67539 c -0.50282,-0.9013 -1.33675,-0.91077 -1.85096,-0.019 l -1.39177,2.42873 c -0.51515,0.8918 -1.69536,1.27129 -2.62418,0.84436 l -2.45147,-1.12897 c -0.92883,-0.42694 -1.64605,0.076 -1.58818,1.10053 l 0.13188,2.47614 c 0.056,1.03413 -0.70774,2.09668 -1.69159,2.36234 l -2.36895,0.63564 c -0.98382,0.26563 -1.16504,1.0436 -0.39848,1.72667 l 2.64506,2.35282 c 0.76656,0.68311 0.76656,1.8026 0,2.48567 l -2.64506,2.36232 c -0.76656,0.68308 -0.56447,1.33768 0.45067,1.46104 l 3.20856,0.38897 c 1.01133,0.12334 1.57868,1.0246 1.25328,2.01129 l -1.6451,4.99029 c -0.32254,0.97715 0.13756,1.36616 1.02369,0.85383 l 3.77591,-2.19154 c 0.88515,-0.5123 2.07771,-0.22769 2.64503,0.62616 l 1.56919,2.36232 c 0.57018,0.85385 1.42498,0.80641 1.90029,-0.10436 l 1.37946,-2.65643 c 0.47435,-0.92027 1.61185,-1.29026 2.52548,-0.83488 l 2.65643,1.32821 c 0.91646,0.45538 1.61852,-0.01 1.56349,-1.04357 l -0.13187,-2.47617 c -0.055,-1.03411 0.70775,-2.08721 1.69158,-2.36231 l 2.36611,-0.63567 c 0.98762,-0.26564 1.16789,-1.0341 0.40133,-1.71718"
         style="fill:url(#linearGradient4603);fill-opacity:1;fill-rule:nonzero;stroke:none"
         id="path310"
         inkscape:connector-curvature="0" />
      <path
         inkscape:connector-curvature="0"
         id="path4594"
         d="m 408.57142,508.77853 c -0.33561,-0.004 -0.69107,0.21498 -0.94818,0.66085 l -1.37917,2.44228 c -0.51515,0.8918 -1.68586,1.26019 -2.61468,0.83325 l -2.47101,-1.12058 c -0.92883,-0.42694 -1.63817,0.0673 -1.5803,1.09185 l 0.0287,0.28733 c 0.0488,-0.87661 0.6908,-1.28638 1.55156,-0.89072 l 2.47102,1.12058 c 0.92881,0.42693 2.09953,0.0586 2.61468,-0.83325 l 1.37917,-2.44228 c 0.51421,-0.89175 1.36481,-0.87258 1.86762,0.0287 l 1.4941,2.67215 c 0.5066,0.8918 1.62883,1.19212 2.49975,0.66085 l 4.13751,-2.58595 c 0.54372,-0.33798 0.91747,-0.32261 1.03438,-0.0287 0.14036,-0.71444 -0.27318,-0.9329 -1.03438,-0.45973 l -4.13751,2.58595 c -0.87092,0.53127 -1.99315,0.23095 -2.49975,-0.66085 l -1.4941,-2.67215 C 409.23946,509.01746 408.90703,508.7821 408.57142,508.77853 z m -8.87841,6.60852 c -0.0543,0.95983 -0.75319,1.87962 -1.6665,2.12623 l -2.38481,0.66085 c -0.69238,0.18694 -0.95778,0.60905 -0.80452,1.09184 0.10234,-0.27478 0.35809,-0.48285 0.80452,-0.60339 l 2.38481,-0.66085 c 0.98385,-0.26565 1.75123,-1.32195 1.69523,-2.35608 L 399.69301,515.38705 z m 16.95231,1.5803 c -0.16429,0.85333 0.37566,1.57211 1.29297,1.6665 l 3.50539,0.31606 c 0.44413,0.0415 0.71278,0.19505 0.83325,0.40226 0.19542,-0.45927 -0.0858,-0.82086 -0.83325,-0.89071 l -3.50539,-0.31606 C 417.21315,518.07078 416.73639,517.58147 416.64532,516.96735 z m -18.18782,6.75219 c -0.0565,0.36663 -0.23162,0.72559 -0.54592,1.00565 l -2.64341,2.35608 c -0.42013,0.37438 -0.53844,0.73116 -0.40226,1.00565 0.073,-0.15935 0.21062,-0.34642 0.40226,-0.51719 l 2.64341,-2.35608 C 398.36608,524.80865 398.54196,524.24946 398.4575,523.71954 z m 20.22784,0 c -0.0845,0.52993 0.0914,1.08911 0.54592,1.49411 l 2.64341,2.35608 c 0.22358,0.19923 0.36504,0.40422 0.43099,0.60339 0.11242,-0.32485 -0.0196,-0.72528 -0.43099,-1.09185 l -2.64341,-2.35608 C 418.91697,524.44513 418.74191,524.08617 418.68534,523.71954 z m -11.63675,1.29298 0,0.48845 3.04567,0 0,-0.48845 L 407.04859,525.01252 z m 0,4.91329 0,0.48846 3.04567,0 0,-0.48846 L 407.04859,529.92581 z m -6.80966,0.74705 c -0.0152,0.0933 -0.0259,0.1918 -0.0575,0.28733 l -1.6665,4.97076 c -0.10402,0.31513 -0.10428,0.56477 -0.0575,0.74705 0.0167,-0.0805 0.0274,-0.16758 0.0575,-0.25859 l 1.6665,-4.97076 C 400.26997,531.18027 400.27349,530.91467 400.23893,530.67286 z m 17.2109,1.40791 c -0.004,0.0699 -0.0325,0.13117 -0.0287,0.20112 l 0.11493,2.21242 c 0.004,-0.0695 0.0327,-0.12537 0.0287,-0.20112 L 417.44983,532.08077 Z"
         style="fill:#000000;fill-opacity:0.2347363;fill-rule:nonzero;stroke:none" />
      <path
         style="fill:#000000;fill-opacity:0.11637932;fill-rule:nonzero;stroke:none"
         d="m 408.57142,508.29007 c -0.33561,-0.004 -0.69107,0.21499 -0.94818,0.66085 l -1.37917,2.44229 c -0.51515,0.8918 -1.68586,1.26018 -2.61468,0.83324 l -2.47101,-1.12057 c -0.92883,-0.42695 -1.63817,0.0673 -1.5803,1.09184 l 0.0287,0.28733 c 0.0488,-0.87661 0.6908,-1.28637 1.55156,-0.89072 l 2.47102,1.12058 c 0.92881,0.42694 2.09953,0.0586 2.61468,-0.83325 l 1.37917,-2.44228 c 0.51421,-0.89174 1.36481,-0.87257 1.86762,0.0287 l 1.4941,2.67214 c 0.5066,0.8918 1.62883,1.19213 2.49975,0.66085 l 4.13751,-2.58594 c 0.54372,-0.33798 0.91747,-0.32262 1.03438,-0.0287 0.14036,-0.71444 -0.27318,-0.9329 -1.03438,-0.45972 l -4.13751,2.58594 c -0.87092,0.53128 -1.99315,0.23095 -2.49975,-0.66085 l -1.4941,-2.67214 C 409.23946,508.52901 408.90703,508.29364 408.57142,508.29007 z m -8.87841,6.60853 c -0.0543,0.95983 -0.75319,1.87961 -1.6665,2.12622 l -2.38481,0.66085 c -0.69238,0.18694 -0.95778,0.60905 -0.80452,1.09185 0.10234,-0.27479 0.35809,-0.48285 0.80452,-0.60339 l 2.38481,-0.66085 c 0.98385,-0.26566 1.75123,-1.32196 1.69523,-2.35609 L 399.69301,514.8986 z m 16.95231,1.5803 c -0.16429,0.85333 0.37566,1.57211 1.29297,1.6665 l 3.50539,0.31606 c 0.44413,0.0415 0.71278,0.19505 0.83325,0.40225 0.19542,-0.45927 -0.0858,-0.82086 -0.83325,-0.89071 l -3.50539,-0.31606 C 417.21315,517.58233 416.73639,517.09301 416.64532,516.4789 z m -18.18782,6.75219 c -0.0565,0.36663 -0.23162,0.72559 -0.54592,1.00564 l -2.64341,2.35609 c -0.42013,0.37438 -0.53844,0.73115 -0.40226,1.00564 0.073,-0.15935 0.21062,-0.34642 0.40226,-0.51719 l 2.64341,-2.35608 C 398.36608,524.32019 398.54196,523.761 398.4575,523.23109 z m 20.22784,0 c -0.0845,0.52992 0.0914,1.0891 0.54592,1.4941 l 2.64341,2.35608 c 0.22358,0.19924 0.36504,0.40423 0.43099,0.60339 0.11242,-0.32484 -0.0196,-0.72528 -0.43099,-1.09184 l -2.64341,-2.35609 C 418.91697,523.95668 418.74191,523.59772 418.68534,523.23109 z m -11.63675,1.29297 0,0.48846 3.04567,0 0,-0.48846 L 407.04859,524.52406 z m 0,4.9133 0,0.48845 3.04567,0 0,-0.48845 L 407.04859,529.43736 z m -6.80966,0.74705 c -0.0152,0.0933 -0.0259,0.19179 -0.0575,0.28732 l -1.6665,4.97076 c -0.10402,0.31514 -0.10428,0.56477 -0.0575,0.74706 0.0167,-0.0806 0.0274,-0.16758 0.0575,-0.2586 l 1.6665,-4.97076 C 400.26997,530.69181 400.27349,530.42621 400.23893,530.18441 z m 17.2109,1.4079 c -0.004,0.0699 -0.0325,0.13118 -0.0287,0.20113 l 0.11493,2.21242 c 0.004,-0.0695 0.0327,-0.12538 0.0287,-0.20113 L 417.44983,531.59231 Z"
         id="path4599"
         inkscape:connector-curvature="0" />
      <path
         inkscape:connector-curvature="0"
         id="path4601"
         d="m 408.57142,507.79802 c -0.33561,-0.004 -0.69107,0.21499 -0.94818,0.66085 l -1.37917,2.44228 c -0.51515,0.8918 -1.68586,1.26019 -2.61468,0.83325 l -2.47101,-1.12057 c -0.92883,-0.42695 -1.63817,0.0673 -1.5803,1.09184 l 0.0287,0.28733 c 0.0488,-0.87661 0.6908,-1.28637 1.55156,-0.89072 l 2.47102,1.12058 c 0.92881,0.42694 2.09953,0.0586 2.61468,-0.83325 l 1.37917,-2.44228 c 0.51421,-0.89174 1.36481,-0.87257 1.86762,0.0287 l 1.4941,2.67214 c 0.5066,0.8918 1.62883,1.19213 2.49975,0.66085 l 4.13751,-2.58594 c 0.54372,-0.33798 0.91747,-0.32262 1.03438,-0.0287 0.14036,-0.71444 -0.27318,-0.9329 -1.03438,-0.45972 l -4.13751,2.58594 c -0.87092,0.53128 -1.99315,0.23095 -2.49975,-0.66085 l -1.4941,-2.67214 C 409.23946,508.03696 408.90703,507.80159 408.57142,507.79802 z m -8.87841,6.60853 c -0.0543,0.95983 -0.75319,1.87961 -1.6665,2.12622 l -2.38481,0.66085 c -0.69238,0.18694 -0.95778,0.60905 -0.80452,1.09184 0.10234,-0.27478 0.35809,-0.48284 0.80452,-0.60338 l 2.38481,-0.66086 c 0.98385,-0.26565 1.75123,-1.32195 1.69523,-2.35608 L 399.69301,514.40655 z m 16.95231,1.5803 c -0.16429,0.85333 0.37566,1.5721 1.29297,1.66649 l 3.50539,0.31606 c 0.44413,0.0415 0.71278,0.19506 0.83325,0.40226 0.19542,-0.45927 -0.0858,-0.82086 -0.83325,-0.89071 l -3.50539,-0.31606 C 417.21315,517.09027 416.73639,516.60096 416.64532,515.98685 z m -18.18782,6.75219 c -0.0565,0.36663 -0.23162,0.72559 -0.54592,1.00564 l -2.64341,2.35608 c -0.42013,0.37438 -0.53844,0.73116 -0.40226,1.00565 0.073,-0.15935 0.21062,-0.34642 0.40226,-0.51719 l 2.64341,-2.35608 C 398.36608,523.82814 398.54196,523.26895 398.4575,522.73904 z m 20.22784,0 c -0.0845,0.52992 0.0914,1.0891 0.54592,1.4941 l 2.64341,2.35608 c 0.22358,0.19924 0.36504,0.40423 0.43099,0.60339 0.11242,-0.32484 -0.0196,-0.72528 -0.43099,-1.09185 l -2.64341,-2.35608 C 418.91697,523.46463 418.74191,523.10567 418.68534,522.73904 z m -11.63675,1.29297 0,0.48845 3.04567,0 0,-0.48845 L 407.04859,524.03201 z m 0,4.91329 0,0.48846 3.04567,0 0,-0.48846 L 407.04859,528.9453 z m -6.80966,0.74705 c -0.0152,0.0933 -0.0259,0.1918 -0.0575,0.28733 l -1.6665,4.97076 c -0.10402,0.31513 -0.10428,0.56477 -0.0575,0.74705 0.0167,-0.0805 0.0274,-0.16757 0.0575,-0.25859 l 1.6665,-4.97076 C 400.26997,530.19976 400.27349,529.93416 400.23893,529.69235 z m 17.2109,1.40791 c -0.004,0.0699 -0.0325,0.13118 -0.0287,0.20113 l 0.11493,2.21242 c 0.004,-0.0695 0.0327,-0.12538 0.0287,-0.20113 L 417.44983,531.10026 Z"
         style="fill:#000000;fill-opacity:0.06034486;fill-rule:nonzero;stroke:none" />
    </g>
  </g>
</svg>
