<?xml version="1.0" encoding="UTF-8" standalone="no"?>
<!-- Created with Inkscape (http://www.inkscape.org/) -->

<svg
   xmlns:dc="http://purl.org/dc/elements/1.1/"
   xmlns:cc="http://creativecommons.org/ns#"
   xmlns:rdf="http://www.w3.org/1999/02/22-rdf-syntax-ns#"
   xmlns:svg="http://www.w3.org/2000/svg"
   xmlns="http://www.w3.org/2000/svg"
   xmlns:xlink="http://www.w3.org/1999/xlink"
   xmlns:sodipodi="http://sodipodi.sourceforge.net/DTD/sodipodi-0.dtd"
   xmlns:inkscape="http://www.inkscape.org/namespaces/inkscape"
   width="48"
   height="48"
   id="svg5453"
   version="1.1"
   inkscape:version="0.48+devel r12338"
   sodipodi:docname="wps-office-wpsmain.svg">
  <defs
     id="defs5455">
    <linearGradient
       inkscape:collect="always"
       id="linearGradient4691">
      <stop
         style="stop-color:#ffffff;stop-opacity:1;"
         offset="0"
         id="stop4693" />
      <stop
         style="stop-color:#ffffff;stop-opacity:0;"
         offset="1"
         id="stop4695" />
    </linearGradient>
    <linearGradient
       inkscape:collect="always"
       id="linearGradient4675">
      <stop
         style="stop-color:#c0cfe7;stop-opacity:1"
         offset="0"
         id="stop4677" />
      <stop
         style="stop-color:#ffffff;stop-opacity:0;"
         offset="1"
         id="stop4679" />
    </linearGradient>
    <linearGradient
       inkscape:collect="always"
       id="linearGradient4631">
      <stop
         style="stop-color:#3055c2;stop-opacity:1"
         offset="0"
         id="stop4633" />
      <stop
         style="stop-color:#4f79e3;stop-opacity:1"
         offset="1"
         id="stop4635" />
    </linearGradient>
    <linearGradient
       inkscape:collect="always"
       xlink:href="#linearGradient4631"
       id="linearGradient4637"
       x1="411.07144"
       y1="-547.8136"
       x2="411.07144"
       y2="-499.78238"
       gradientUnits="userSpaceOnUse" />
    <linearGradient
       inkscape:collect="always"
       xlink:href="#linearGradient4675"
       id="linearGradient4681"
       x1="16.705399"
       y1="33.239147"
       x2="24.130018"
       y2="33.239147"
       gradientUnits="userSpaceOnUse"
       gradientTransform="matrix(0.93023553,0,0,0.93023553,386.24578,501.34588)" />
    <linearGradient
       inkscape:collect="always"
       xlink:href="#linearGradient4675"
       id="linearGradient4685"
       gradientUnits="userSpaceOnUse"
       x1="16.705399"
       y1="33.239147"
       x2="24.130018"
       y2="33.239147"
       gradientTransform="matrix(-0.93023553,0,0,0.93023553,430.89469,501.34588)" />
    <radialGradient
       inkscape:collect="always"
       xlink:href="#linearGradient4691"
       id="radialGradient4697"
       cx="408.57144"
       cy="-523.79797"
       fx="408.57144"
       fy="-523.79797"
       r="24"
       gradientUnits="userSpaceOnUse"
       gradientTransform="matrix(0.91666666,0,0,0.91666666,34.047608,-43.649858)" />
  </defs>
  <sodipodi:namedview
     id="base"
     pagecolor="#ffffff"
     bordercolor="#666666"
     borderopacity="1.0"
     inkscape:pageopacity="0"
     inkscape:pageshadow="2"
     inkscape:zoom="8"
     inkscape:cx="-8.1893885"
     inkscape:cy="21.287687"
     inkscape:document-units="px"
     inkscape:current-layer="layer1"
     showgrid="false"
     fit-margin-top="0"
     fit-margin-left="0"
     fit-margin-right="0"
     fit-margin-bottom="0"
     inkscape:window-width="1366"
     inkscape:window-height="714"
     inkscape:window-x="0"
     inkscape:window-y="30"
     inkscape:window-maximized="1" />
  <metadata
     id="metadata5458">
    <rdf:RDF>
      <cc:Work
         rdf:about="">
        <dc:format>image/svg+xml</dc:format>
        <dc:type
           rdf:resource="http://purl.org/dc/dcmitype/StillImage" />
        <dc:title />
      </cc:Work>
    </rdf:RDF>
  </metadata>
  <g
     inkscape:label="Capa 1"
     inkscape:groupmode="layer"
     id="layer1"
     transform="translate(-384.57143,-499.798)">
    <rect
       style="fill:url(#linearGradient4637);fill-opacity:1;stroke:none"
       id="rect2991-1-7"
       width="48"
       height="48"
       x="384.57144"
       y="-547.79797"
       ry="1.9445436"
       transform="scale(1,-1)" />
    <rect
       transform="scale(1,-1)"
       ry="1.7824984"
       y="-545.79797"
       x="386.57144"
       height="44"
       width="44"
       id="rect4687"
       style="opacity:0.23999999;fill:url(#radialGradient4697);fill-opacity:1;stroke:none" />
    <path
       inkscape:connector-curvature="0"
       style="fill:#000000;fill-opacity:1;stroke:none"
       d="m 384.57142,544.79802 0,1.0625 c 0,1.0773 0.86022,1.9375 1.9375,1.9375 l 44.125,0 c 1.07728,0 1.9375,-0.8602 1.9375,-1.9375 l 0,-1.0625 c 0,1.0773 -0.86022,1.9375 -1.9375,1.9375 l -44.125,0 C 385.43164,546.73552 384.57142,545.87532 384.57142,544.79802 Z"
       id="rect846" />
    <path
       inkscape:connector-curvature="0"
       style="fill:#ffffff;fill-opacity:0.5372549;stroke:none"
       d="m 387.10267,500.45432 c -0.91709,0 -1.67115,0.6395 -1.84375,1.5 0.33561,-0.2799 0.77451,-0.4375 1.25,-0.4375 l 44.125,0 c 0.47549,0 0.91439,0.1576 1.25,0.4375 -0.1726,-0.8605 -0.92666,-1.5 -1.84375,-1.5 L 387.10267,500.45432 Z"
       id="path7515" />
    <path
       inkscape:connector-curvature="0"
       style="fill:#000000;fill-opacity:0.39215686;stroke:none"
       d="m 386.50892,499.79802 c -1.07728,0 -1.9375,0.8602 -1.9375,1.9375 l 0,43.0625 c 0,0.7934 0.48002,1.449 1.15625,1.75 -0.30934,-0.3333 -0.5,-0.7824 -0.5,-1.2812 l 0,-42.9375 c 0,-1.0482 0.8269,-1.875 1.875,-1.875 l 42.9375,0 c 1.0481,0 1.875,0.8268 1.875,1.875 l 0,42.9375 c 0,0.4988 -0.19066,0.9479 -0.5,1.2812 0.67623,-0.301 1.15625,-0.9566 1.15625,-1.75 l 0,-43.0625 c 0,-1.0773 -0.86022,-1.9375 -1.9375,-1.9375 L 386.50892,499.79802 Z"
       id="rect4280" />
    <path
       style="fill:#ffffff;fill-opacity:0.11764706;stroke:none"
       d="m 394.42797,509.30664 0,27.06115 0,2.89156 7.85748,0 6.28598,-6.44314 6.34885,6.44314 7.79461,0 0,-2.92299 0,-27.02972 -0.40858,0 0,26.52685 0,2.89155 -7.00888,0 -6.726,-6.726 -6.726,6.726 -7.00887,0 0,-2.89155 0,-26.52685 L 394.42797,509.30664 Z"
       id="path4707"
       inkscape:connector-curvature="0" />
    <path
       style="fill:#ffffff;fill-opacity:1;stroke:none"
       d="m 408.57142,522.24259 -6.72456,6.72455 0,9.76524 6.72456,-6.72456 6.72457,6.72456 0,-9.79447 L 408.57142,522.24259 Z"
       id="path4660"
       inkscape:connector-curvature="0" />
    <path
       style="fill:#ffffff;fill-opacity:1;stroke:none"
       d="m 394.83875,508.79348 0,27.0424 0,2.89649 7.01052,0 0,-9.89419 0,-20.0447 L 394.83875,508.79348 z m 20.45483,0 0,20.03188 0,9.89419 0,0.0129 0.0128,0 6.99769,0 0,-2.9093 0,-27.0296 L 415.29358,508.79348 Z"
       id="rect4639"
       inkscape:connector-curvature="0" />
    <g
       id="g834"
       transform="matrix(1.0057573,0,0,1.0057573,-2.3522683,-2.9235617)">
      <path
         inkscape:connector-curvature="0"
         id="rect4670"
         d="m 408.57143,522.1599 -6.68607,6.68606 0,9.70934 6.68607,-6.68607 L 408.57143,522.1599 Z"
         style="fill:url(#linearGradient4681);fill-opacity:1;stroke:none" />
      <path
         inkscape:connector-curvature="0"
         id="path4683"
         d="m 408.57143,522.1599 0,9.70933 6.68607,6.68607 0,-9.7384 L 408.57143,522.1599 Z"
         style="fill:url(#linearGradient4685);fill-opacity:1;stroke:none" />
    </g>
    <path
       style="fill:#000000;fill-opacity:0.05875591;stroke:none"
       d="m 394.82993,508.29574 0,0.49773 7.01693,0 L 401.84686,508.29574 z m 20.46606,0 0,0.49773 7.01693,0 L 422.31292,508.29574 Z"
       id="rect4830"
       inkscape:connector-curvature="0"
       sodipodi:nodetypes="cccccccccc" />
    <path
       sodipodi:nodetypes="cccccccccc"
       inkscape:connector-curvature="0"
       id="path832"
       d="m 394.82993,507.798 0,0.49774 7.01693,0 L 401.84686,507.798 z m 20.46606,0 0,0.49774 7.01693,0 L 422.31292,507.798 Z"
       style="fill:#000000;fill-opacity:0.11764706;stroke:none" />
    <path
       id="path844"
       d="m 394.42797,509.84529 0,27.06116 0,2.89155 8.25952,0 5.88394,-6.14173 5.94653,6.14173 8.19693,0 0,-2.92298 0,-27.02973 -0.40858,0 0,26.52685 0,2.89155 -7.41119,0 -6.32369,-6.4246 -6.32396,6.4246 -7.41091,0 0,-2.89155 L 394.83656,509.84529 Z"
       style="fill:#ffffff;fill-opacity:0.05882353;stroke:none"
       inkscape:connector-curvature="0"
       sodipodi:nodetypes="ccccccccccccccccccc" />
    <path
       style="fill:#000000;fill-opacity:0.05882353;stroke:none"
       d="m 408.57143,521.60317 -6.71875,6.71875 0,0.625 6.71875,-6.71875 6.71875,6.6875 0,-0.625 L 408.57143,521.60317 Z"
       id="path848"
       inkscape:connector-curvature="0" />
    <path
       inkscape:connector-curvature="0"
       id="path865"
       d="m 408.57143,520.97426 -6.71875,6.71875 0,0.625 6.71875,-6.71875 6.71875,6.6875 0,-0.625 L 408.57143,520.97426 Z"
       style="fill:#000000;fill-opacity:0.11764706;stroke:none" />
  </g>
</svg>
