<?xml version="1.0" encoding="UTF-8" standalone="no"?>
<!-- Created with Inkscape (http://www.inkscape.org/) -->

<svg
   xmlns:dc="http://purl.org/dc/elements/1.1/"
   xmlns:cc="http://creativecommons.org/ns#"
   xmlns:rdf="http://www.w3.org/1999/02/22-rdf-syntax-ns#"
   xmlns:svg="http://www.w3.org/2000/svg"
   xmlns="http://www.w3.org/2000/svg"
   xmlns:xlink="http://www.w3.org/1999/xlink"
   xmlns:sodipodi="http://sodipodi.sourceforge.net/DTD/sodipodi-0.dtd"
   xmlns:inkscape="http://www.inkscape.org/namespaces/inkscape"
   width="48"
   height="48"
   id="svg5453"
   version="1.1"
   inkscape:version="0.48+devel r12338"
   sodipodi:docname="wps-office-wppmain.svg">
  <defs
     id="defs5455">
    <linearGradient
       id="linearGradient992"
       inkscape:collect="always">
      <stop
         id="stop994"
         offset="0"
         style="stop-color:#efd8ca;stop-opacity:1" />
      <stop
         id="stop996"
         offset="1"
         style="stop-color:#ffffff;stop-opacity:0" />
    </linearGradient>
    <linearGradient
       inkscape:collect="always"
       id="linearGradient980">
      <stop
         style="stop-color:#ebd2c4;stop-opacity:1"
         offset="0"
         id="stop982" />
      <stop
         style="stop-color:#ffffff;stop-opacity:0"
         offset="1"
         id="stop984" />
    </linearGradient>
    <linearGradient
       id="linearGradient947"
       inkscape:collect="always">
      <stop
         id="stop949"
         offset="0"
         style="stop-color:#e36203;stop-opacity:1" />
      <stop
         id="stop951"
         offset="1"
         style="stop-color:#f38b1e;stop-opacity:1" />
    </linearGradient>
    <radialGradient
       inkscape:collect="always"
       xlink:href="#linearGradient4691"
       id="radialGradient4697"
       cx="408.57144"
       cy="-523.79797"
       fx="408.57144"
       fy="-523.79797"
       r="24"
       gradientUnits="userSpaceOnUse"
       gradientTransform="matrix(0.91666666,0,0,0.91666666,34.0476,-43.649877)" />
    <linearGradient
       inkscape:collect="always"
       id="linearGradient4691">
      <stop
         style="stop-color:#ffffff;stop-opacity:1;"
         offset="0"
         id="stop4693" />
      <stop
         style="stop-color:#ffffff;stop-opacity:0;"
         offset="1"
         id="stop4695" />
    </linearGradient>
    <linearGradient
       gradientTransform="translate(1.7425781e-6,-2.7433047e-5)"
       y2="-499.78238"
       x2="411.07144"
       y1="-547.8136"
       x1="411.07144"
       gradientUnits="userSpaceOnUse"
       id="linearGradient912"
       xlink:href="#linearGradient947"
       inkscape:collect="always" />
    <linearGradient
       inkscape:collect="always"
       xlink:href="#linearGradient980"
       id="linearGradient986"
       x1="18.031223"
       y1="25.54936"
       x2="25.544233"
       y2="25.54936"
       gradientUnits="userSpaceOnUse" />
    <linearGradient
       inkscape:collect="always"
       xlink:href="#linearGradient992"
       id="linearGradient990"
       gradientUnits="userSpaceOnUse"
       x1="18.031223"
       y1="25.54936"
       x2="20.329319"
       y2="25.54936"
       gradientTransform="matrix(-1,0,0,1,434.07143,499.798)" />
  </defs>
  <sodipodi:namedview
     id="base"
     pagecolor="#ffffff"
     bordercolor="#666666"
     borderopacity="1.0"
     inkscape:pageopacity="0"
     inkscape:pageshadow="2"
     inkscape:zoom="11.020833"
     inkscape:cx="15.442888"
     inkscape:cy="16.692947"
     inkscape:document-units="px"
     inkscape:current-layer="layer1"
     showgrid="false"
     fit-margin-top="0"
     fit-margin-left="0"
     fit-margin-right="0"
     fit-margin-bottom="0"
     inkscape:window-width="1366"
     inkscape:window-height="714"
     inkscape:window-x="0"
     inkscape:window-y="30"
     inkscape:window-maximized="1"
     showguides="true"
     inkscape:guide-bbox="true" />
  <metadata
     id="metadata5458">
    <rdf:RDF>
      <cc:Work
         rdf:about="">
        <dc:format>image/svg+xml</dc:format>
        <dc:type
           rdf:resource="http://purl.org/dc/dcmitype/StillImage" />
        <dc:title />
      </cc:Work>
    </rdf:RDF>
  </metadata>
  <g
     inkscape:label="Capa 1"
     inkscape:groupmode="layer"
     id="layer1"
     transform="translate(-384.57143,-499.798)">
    <rect
       style="fill:url(#linearGradient912);fill-opacity:1;stroke:none"
       id="rect2991-1-7"
       width="48"
       height="48"
       x="384.57144"
       y="-547.79797"
       ry="1.9445436"
       transform="scale(1,-1)" />
    <rect
       transform="scale(1,-1)"
       ry="1.7824984"
       y="-545.79797"
       x="386.57144"
       height="44"
       width="44"
       id="rect4687"
       style="opacity:0.23999999;fill:url(#radialGradient4697);fill-opacity:1;stroke:none" />
    <path
       inkscape:connector-curvature="0"
       style="fill:#000000;fill-opacity:1;stroke:none"
       d="m 384.57142,544.79805 0,1.0625 c 0,1.0773 0.86022,1.9375 1.9375,1.9375 l 44.125,0 c 1.07728,0 1.9375,-0.8602 1.9375,-1.9375 l 0,-1.0625 c 0,1.0773 -0.86022,1.9375 -1.9375,1.9375 l -44.125,0 C 385.43164,546.73555 384.57142,545.87535 384.57142,544.79805 Z"
       id="rect846" />
    <path
       inkscape:connector-curvature="0"
       style="fill:#ffffff;fill-opacity:0.5372549;stroke:none"
       d="m 387.10267,500.45435 c -0.91709,0 -1.67115,0.6395 -1.84375,1.5 0.33561,-0.2799 0.77451,-0.4375 1.25,-0.4375 l 44.125,0 c 0.47549,0 0.91439,0.1576 1.25,0.4375 -0.1726,-0.8605 -0.92666,-1.5 -1.84375,-1.5 L 387.10267,500.45435 Z"
       id="path7515" />
    <path
       inkscape:connector-curvature="0"
       style="fill:#000000;fill-opacity:0.39215686;stroke:none"
       d="m 386.50892,499.79805 c -1.07728,0 -1.9375,0.8602 -1.9375,1.9375 l 0,43.0625 c 0,0.7934 0.48002,1.449 1.15625,1.75 -0.30934,-0.3333 -0.5,-0.7824 -0.5,-1.2812 l 0,-42.9375 c 0,-1.0482 0.8269,-1.875 1.875,-1.875 l 42.9375,0 c 1.0481,0 1.875,0.8268 1.875,1.875 l 0,42.9375 c 0,0.4988 -0.19066,0.9479 -0.5,1.2812 0.67623,-0.301 1.15625,-0.9566 1.15625,-1.75 l 0,-43.0625 c 0,-1.0773 -0.86022,-1.9375 -1.9375,-1.9375 L 386.50892,499.79805 Z"
       id="rect4280" />
    <path
       style="fill:#ffffff;fill-opacity:1;stroke:none"
       d="m 395.60268,508.7965 0,27.0326 0,2.9064 7,0 0,-9.90675 0,-13.0319 13.4375,0 0,5.37527 0,7.00035 7,0 0,-7.00035 0,-12.37562 -20.03125,0 -0.40625,0 L 395.60268,508.7965 Z"
       id="path945"
       inkscape:connector-curvature="0" />
    <path
       style="fill:#ffffff;fill-opacity:1;stroke:none"
       d="M 11.03125 9 L 11.03125 16 L 11.4375 16 L 18.03125 16 L 18.03125 9 L 11.03125 9 z "
       id="path969"
       transform="translate(384.57143,499.798)" />
    <path
       style="fill:#ffffff;fill-opacity:1;stroke:none"
       d="M 18.03125 21.375 L 18.03125 28.375 L 31.46875 28.375 L 31.46875 21.375 L 18.4375 21.375 L 18.03125 21.375 z "
       transform="translate(384.57143,499.798)"
       id="path973" />
    <g
       id="g1254">
      <path
         style="fill:url(#linearGradient986);fill-opacity:1;stroke:none"
         d="M 18.03125 21.375 L 18.03125 28.375 L 31.46875 28.375 L 31.46875 21.375 L 18.4375 21.375 L 18.03125 21.375 z "
         transform="translate(384.57143,499.798)"
         id="path978" />
      <path
         sodipodi:nodetypes="cccccc"
         inkscape:connector-curvature="0"
         id="path988"
         d="m 416.04018,521.173 0,7 -9.4375,0 0,-7 L 415.63393,521.173 Z"
         style="fill:url(#linearGradient990);fill-opacity:1;stroke:none;opacity:0.6" />
    </g>
    <path
       style="fill:#000000;fill-opacity:0.11764706;stroke:none"
       d="m 395.60243,507.79803 0,0.498 27.438,0 0,-0.498 -1.18111,0 L 395.60243,507.79803 Z"
       id="path1006"
       inkscape:connector-curvature="0" />
    <path
       inkscape:connector-curvature="0"
       id="path1125"
       d="m 395.60243,508.2955 0,0.498 27.438,0 0,-0.498 -1.18111,0 L 395.60243,508.2955 Z"
       style="fill:#000000;fill-opacity:0.05882353;stroke:none" />
    <path
       style="fill:#ffffff;fill-opacity:0.11764706;stroke:none"
       d="m 402.60268,515.82188 0,0.5 13.4375,0 0,-0.5 L 402.60268,515.82188 Z"
       id="path1192" />
    <path
       style="fill:#ffffff;fill-opacity:0.11764706;stroke:none"
       d="m 402.60268,528.19688 0,0.5 4,0 9.4375,0 7,0 0,-0.5 -7,0 -9.4375,0 L 402.60268,528.19688 Z"
       id="path1190" />
    <path
       style="fill:#ffffff;fill-opacity:0.11764706;stroke:none"
       d="m 395.60268,538.75938 0,0.5 7,0 0,-0.5 L 395.60268,538.75938 Z"
       id="path1143" />
    <path
       style="fill:#ffffff;fill-opacity:0.05882353;stroke:none"
       d="m 402.60268,516.36053 0,0.5 13.4375,0 0,-0.5 L 402.60268,516.36053 Z"
       id="path1186" />
    <path
       style="fill:#ffffff;fill-opacity:0.05882353;stroke:none"
       d="m 402.60268,528.73553 0,0.5 4,0 9.4375,0 7,0 0,-0.5 -7,0 -9.4375,0 L 402.60268,528.73553 Z"
       id="path1184" />
    <path
       style="fill:#ffffff;fill-opacity:0.05882353;stroke:none"
       d="m 395.60268,539.29803 0,0.5 7,0 0,-0.5 L 395.60268,539.29803 Z"
       id="path1146" />
  </g>
</svg>
