<?xml version="1.0" encoding="UTF-8" standalone="no"?>
<!-- Created with Inkscape (http://www.inkscape.org/) -->

<svg
   xmlns:dc="http://purl.org/dc/elements/1.1/"
   xmlns:cc="http://creativecommons.org/ns#"
   xmlns:rdf="http://www.w3.org/1999/02/22-rdf-syntax-ns#"
   xmlns:svg="http://www.w3.org/2000/svg"
   xmlns="http://www.w3.org/2000/svg"
   xmlns:xlink="http://www.w3.org/1999/xlink"
   xmlns:sodipodi="http://sodipodi.sourceforge.net/DTD/sodipodi-0.dtd"
   xmlns:inkscape="http://www.inkscape.org/namespaces/inkscape"
   width="48"
   height="48"
   id="svg2"
   version="1.1"
   inkscape:version="0.48+devel r12274"
   sodipodi:docname="y-ppa-manager.svg"
   inkscape:export-filename="/home/uri/Descargas/ApexIconPackSample/res/drawable-xhdpi/box.png"
   inkscape:export-xdpi="180"
   inkscape:export-ydpi="180">
  <defs
     id="defs4">
    <linearGradient
       id="linearGradient3795">
      <stop
         style="stop-color:#2497ea;stop-opacity:1;"
         offset="0"
         id="stop3797" />
      <stop
         style="stop-color:#116dad;stop-opacity:1;"
         offset="1"
         id="stop3799" />
    </linearGradient>
    <linearGradient
       inkscape:collect="always"
       xlink:href="#linearGradient3795"
       id="linearGradient1399"
       x1="-25.625002"
       y1="-1004.3622"
       x2="-25.625002"
       y2="-1052.2372"
       gradientUnits="userSpaceOnUse"
       gradientTransform="translate(49.749999,0.12500293)" />
  </defs>
  <sodipodi:namedview
     id="base"
     pagecolor="#ffffff"
     bordercolor="#666666"
     borderopacity="1.0"
     inkscape:pageopacity="0.0"
     inkscape:pageshadow="2"
     inkscape:zoom="5.6568542"
     inkscape:cx="26.785622"
     inkscape:cy="16.858034"
     inkscape:document-units="px"
     inkscape:current-layer="layer1"
     showgrid="false"
     inkscape:window-width="1366"
     inkscape:window-height="716"
     inkscape:window-x="0"
     inkscape:window-y="28"
     inkscape:window-maximized="1">
    <inkscape:grid
       type="xygrid"
       id="grid3850" />
  </sodipodi:namedview>
  <metadata
     id="metadata7">
    <rdf:RDF>
      <cc:Work
         rdf:about="">
        <dc:format>image/svg+xml</dc:format>
        <dc:type
           rdf:resource="http://purl.org/dc/dcmitype/StillImage" />
        <dc:title />
      </cc:Work>
    </rdf:RDF>
  </metadata>
  <g
     inkscape:label="Capa 1"
     inkscape:groupmode="layer"
     id="layer1"
     transform="translate(0,-1004.3622)">
    <rect
       style="fill:url(#linearGradient1399);fill-opacity:1;stroke:none"
       id="rect2991-1"
       width="48"
       height="48"
       x="-8.2500003e-07"
       y="-1052.3622"
       ry="1.9445436"
       transform="scale(1,-1)" />
    <path
       inkscape:connector-curvature="0"
       style="fill:#000000;fill-opacity:0.39215686;stroke:none"
       d="m 1.9375001,1004.3622 c -1.07727693,0 -1.93749992500001,0.8602 -1.93749992500001,1.9375 l 0,43.0625 c 0,0.7934 0.48002399500001,1.449 1.15624992500001,1.75 -0.30934093,-0.3333 -0.49999993,-0.7824 -0.49999993,-1.2812 l 0,-42.9375 c 0,-1.0482 0.82689893,-1.875 1.87499993,-1.875 l 42.9375009,0 c 1.048101,0 1.875,0.8268 1.875,1.875 l 0,42.9375 c 0,0.4988 -0.190658,0.9479 -0.5,1.2812 0.676226,-0.301 1.15625,-0.9566 1.15625,-1.75 l 0,-43.0625 c 0,-1.0773 -0.860223,-1.9375 -1.9375,-1.9375 L 1.9375001,1004.3622 Z"
       id="rect4280-1" />
    <g
       id="g1453"
       transform="matrix(0.52771145,0,0,0.52771145,-1.9314775,497.86225)">
      <path
         d="m 27.16,1031.5518 0,10.76 -6,0 0,-10.84 -9.92,-17.88 7.08,0 5.92,12.48 5.72,-12.48 6.8,0 L 27.16,1031.5518 Z"
         style="font-size:40px;font-style:normal;font-variant:normal;font-weight:normal;font-stretch:normal;line-height:125%;letter-spacing:0px;word-spacing:0px;fill:#ffffff;fill-opacity:1;stroke:none;font-family:Helvetica;-inkscape-font-specification:Helvetica"
         id="path1413"
         inkscape:connector-curvature="0" />
      <path
         style="font-size:40px;font-style:normal;font-variant:normal;font-weight:normal;font-stretch:normal;line-height:125%;letter-spacing:0px;word-spacing:0px;fill:#ffffff;fill-opacity:0.19607843;stroke:none;font-family:Helvetica;-inkscape-font-specification:Helvetica"
         d="m 11.25,1014.4648 9.90625,17.9063 0,-0.9063 -9.40625,-17 L 11.25,1014.4648 z m 25.03125,0 -9.125,17.0938 0,0.875 L 36.75,1014.4648 36.28125,1014.4648 z m -15.125,27.8438 0,0.875 6,0 0,-0.875 L 21.15625,1042.3086 Z"
         id="path1423"
         inkscape:connector-curvature="0" />
      <path
         style="font-size:40px;font-style:normal;font-variant:normal;font-weight:normal;font-stretch:normal;line-height:125%;letter-spacing:0px;word-spacing:0px;fill:#000000;fill-opacity:0.23529412;stroke:none;font-family:Helvetica;-inkscape-font-specification:Helvetica"
         d="m 11.25,1012.864 0.40625,0.7187 6.65625,0 5.9375,12.4688 5.71875,-12.4688 6.40625,0 0.375,-0.7187 -6.78125,0 -5.71875,12.5 -5.9375,-12.5 L 11.25,1012.864 Z"
         id="path1439"
         inkscape:connector-curvature="0" />
      <path
         transform="translate(0,1004.3622)"
         id="path1448"
         d="m 17.6875,9.21875 5.9375,12.5 L 23.9375,21.0625 18.3125,9.21875 17.6875,9.21875 z m 18.46875,0 -9.625,17.96875 0,10.75 0.625,0 0,-10.75 L 36.75,9.21875 36.15625,9.21875 Z"
         style="font-size:40px;font-style:normal;font-variant:normal;font-weight:normal;font-stretch:normal;line-height:125%;letter-spacing:0px;word-spacing:0px;fill:#000000;fill-opacity:0.14705882;stroke:none;font-family:Helvetica;-inkscape-font-specification:Helvetica"
         inkscape:connector-curvature="0" />
    </g>
    <path
       inkscape:connector-curvature="0"
       style="fill:#000000;fill-opacity:1;stroke:none"
       d="m 1.7499999e-7,1049.3622 0,1.0625 c 0,1.0773 0.86022299500001,1.9375 1.93749992500001,1.9375 l 44.1250009,0 c 1.077277,0 1.9375,-0.8602 1.9375,-1.9375 l 0,-1.0625 c 0,1.0773 -0.860223,1.9375 -1.9375,1.9375 l -44.1250009,0 C 0.86022317,1051.2997 1.7499999e-7,1050.4395 1.7499999e-7,1049.3622 Z"
       id="rect846" />
    <path
       inkscape:connector-curvature="0"
       style="fill:#ffffff;fill-opacity:0.5372549;stroke:none"
       d="m 2.5312501,1005.0185 c -0.917088,0 -1.67114693,0.6395 -1.84374993,1.5 0.33561193,-0.2799 0.77451193,-0.4375 1.24999993,-0.4375 l 44.1250009,0 c 0.475488,0 0.914388,0.1576 1.25,0.4375 -0.172603,-0.8605 -0.926662,-1.5 -1.84375,-1.5 L 2.5312501,1005.0185 Z"
       id="path7515" />
    <g
       id="g1534"
       transform="matrix(1,0,0,0.93060889,0,71.707177)">
      <path
         inkscape:connector-curvature="0"
         id="rect1459"
         d="m 20.296875,1004.081 0,24.2812 0,24.2813 c 0.30494,-0.5297 0.61332,-0.1511 0.90625,-0.6875 l 0.9375,0.6875 0.9375,-0.6875 c 0.30541,0.5293 0.611694,0.1519 0.90625,0.6875 0.310564,-0.5324 0.621108,-0.1586 0.9375,-0.6875 l 0.9375,0.6875 0.90625,-0.6875 c 0.3125,0.5312 0.625,0.1562 0.9375,0.6875 l 0,-24.2813 0,-24.2812 c -0.3125,0.5312 -0.625,0.1562 -0.9375,0.6875 l -0.90625,-0.6875 -0.9375,0.6875 c -0.316392,-0.529 -0.626936,-0.1553 -0.9375,-0.6875 -0.294556,0.5354 -0.60084,0.1581 -0.90625,0.6875 l -0.9375,-0.6875 -0.9375,0.6875 C 20.910195,1004.2319 20.601815,1004.6105 20.296875,1004.081 Z"
         style="color:#000000;fill:#000000;fill-opacity:0.14705882;fill-rule:nonzero;stroke:none;stroke-width:0.2;marker:none;visibility:visible;display:inline;overflow:visible;enable-background:accumulate" />
      <path
         inkscape:connector-curvature="0"
         id="rect1461"
         d="m 22.15625,1004.3935 -0.9375,0.625 -0.3125,-0.1875 0,23.5312 0,23.5313 0.3125,-0.1875 0.9375,0.625 0.9375,-0.625 0.46875,0.4375 0,-23.7813 0,-23.7812 -0.46875,0.4375 L 22.15625,1004.3935 z m 3.71875,0 -0.9375,0.625 -0.5,-0.4688 0,23.8125 0,23.8125 0.5,-0.4687 0.9375,0.625 0.90625,-0.625 0.3125,0.1562 0,-23.5 0,-23.5 -0.3125,0.1563 L 25.875,1004.3935 Z"
         style="color:#000000;fill:#ffffff;fill-opacity:0.5372549;fill-rule:nonzero;stroke:none;stroke-width:0.2;marker:none;visibility:visible;display:inline;overflow:visible;enable-background:accumulate" />
    </g>
    <g
       id="g1019"
       transform="matrix(0,-0.125,0.125,0,-101.40242,1056.3572)">
      <rect
         style="fill:#f9f9f9;fill-opacity:1;fill-rule:nonzero;stroke:#0e0101;stroke-width:0.96467829;stroke-linejoin:round;stroke-miterlimit:4;stroke-opacity:1;stroke-dasharray:none;stroke-dashoffset:0"
         id="rect2233"
         width="172.79243"
         height="88.219154"
         x="137.56409"
         y="1067.9097" />
      <rect
         style="fill:#000000;fill-opacity:1;fill-rule:nonzero;stroke:#0e0101;stroke-width:0.20340976;stroke-linejoin:round;stroke-miterlimit:4;stroke-opacity:1;stroke-dasharray:none;stroke-dashoffset:0"
         id="rect2160"
         width="2.2126935"
         height="67.492714"
         x="151.92722"
         y="1074.9924"
         ry="0" />
      <rect
         ry="0"
         y="1074.9924"
         x="155.82408"
         height="67.492714"
         width="2.2126935"
         id="rect2162"
         style="fill:#000000;fill-opacity:1;fill-rule:nonzero;stroke:#0e0101;stroke-width:0.20340976;stroke-linejoin:round;stroke-miterlimit:4;stroke-opacity:1;stroke-dasharray:none;stroke-dashoffset:0" />
      <rect
         style="fill:#000000;fill-opacity:1;fill-rule:nonzero;stroke:#0e0101;stroke-width:0.19223759;stroke-linejoin:round;stroke-miterlimit:4;stroke-opacity:1;stroke-dasharray:none;stroke-dashoffset:0"
         id="rect2164"
         width="2.2228489"
         height="60.006912"
         x="163.61284"
         y="1074.9863"
         ry="0" />
      <rect
         ry="0"
         y="1075.0115"
         x="167.57169"
         height="59.956688"
         width="4.4247365"
         id="rect2166"
         style="fill:#000000;fill-opacity:1;fill-rule:nonzero;stroke:#0e0101;stroke-width:0.27110976;stroke-linejoin:round;stroke-miterlimit:4;stroke-opacity:1;stroke-dasharray:none;stroke-dashoffset:0" />
      <rect
         style="fill:#000000;fill-opacity:1;fill-rule:nonzero;stroke:#0e0101;stroke-width:0.15801622;stroke-linejoin:round;stroke-miterlimit:4;stroke-opacity:1;stroke-dasharray:none;stroke-dashoffset:0"
         id="rect2168"
         width="1.5013397"
         height="60.028709"
         x="175.2767"
         y="1074.9755"
         ry="0" />
      <rect
         ry="0"
         y="1075.0115"
         x="183.15932"
         height="59.956688"
         width="4.4247365"
         id="rect2170"
         style="fill:#000000;fill-opacity:1;fill-rule:nonzero;stroke:#0e0101;stroke-width:0.27110976;stroke-linejoin:round;stroke-miterlimit:4;stroke-opacity:1;stroke-dasharray:none;stroke-dashoffset:0" />
      <rect
         style="fill:#000000;fill-opacity:1;fill-rule:nonzero;stroke:#0e0101;stroke-width:0.24749546;stroke-linejoin:round;stroke-miterlimit:4;stroke-opacity:1;stroke-dasharray:none;stroke-dashoffset:0"
         id="rect2172"
         width="3.6865706"
         height="59.971718"
         x="190.9346"
         y="1075.0039"
         ry="0" />
      <rect
         ry="0"
         y="1074.9755"
         x="198.65816"
         height="60.028694"
         width="1.5013396"
         id="rect2174"
         style="fill:#000000;fill-opacity:1;fill-rule:nonzero;stroke:#0e0101;stroke-width:0.15801622;stroke-linejoin:round;stroke-miterlimit:4;stroke-opacity:1;stroke-dasharray:none;stroke-dashoffset:0" />
      <rect
         style="fill:#000000;fill-opacity:1;fill-rule:nonzero;stroke:#0e0101;stroke-width:0.15801622;stroke-linejoin:round;stroke-miterlimit:4;stroke-opacity:1;stroke-dasharray:none;stroke-dashoffset:0"
         id="rect2176"
         width="1.5013396"
         height="60.028694"
         x="202.55505"
         y="1074.9755"
         ry="0" />
      <rect
         ry="0"
         y="1074.9755"
         x="206.45197"
         height="60.028694"
         width="1.5013396"
         id="rect2178"
         style="fill:#000000;fill-opacity:1;fill-rule:nonzero;stroke:#0e0101;stroke-width:0.15801622;stroke-linejoin:round;stroke-miterlimit:4;stroke-opacity:1;stroke-dasharray:none;stroke-dashoffset:0" />
      <rect
         style="fill:#000000;fill-opacity:1;fill-rule:nonzero;stroke:#0e0101;stroke-width:0.29289949;stroke-linejoin:round;stroke-miterlimit:4;stroke-opacity:1;stroke-dasharray:none;stroke-dashoffset:0"
         id="rect2180"
         width="5.1657667"
         height="59.942799"
         x="214.35167"
         y="1075.0184"
         ry="0" />
      <rect
         ry="0"
         y="1074.9863"
         x="225.16745"
         height="60.006905"
         width="2.2228484"
         id="rect2182"
         style="fill:#000000;fill-opacity:1;fill-rule:nonzero;stroke:#0e0101;stroke-width:0.19223757;stroke-linejoin:round;stroke-miterlimit:4;stroke-opacity:1;stroke-dasharray:none;stroke-dashoffset:0" />
      <rect
         style="fill:#000000;fill-opacity:1;fill-rule:nonzero;stroke:#0e0101;stroke-width:0.19223757;stroke-linejoin:round;stroke-miterlimit:4;stroke-opacity:1;stroke-dasharray:none;stroke-dashoffset:0"
         id="rect2184"
         width="2.2228484"
         height="60.006905"
         x="229.06436"
         y="1074.9863"
         ry="0" />
      <rect
         ry="0"
         y="1075.0184"
         x="234.98877"
         height="59.942799"
         width="5.1657667"
         id="rect2186"
         style="fill:#000000;fill-opacity:1;fill-rule:nonzero;stroke:#0e0101;stroke-width:0.29289949;stroke-linejoin:round;stroke-miterlimit:4;stroke-opacity:1;stroke-dasharray:none;stroke-dashoffset:0" />
      <rect
         style="fill:#000000;fill-opacity:1;fill-rule:nonzero;stroke:#0e0101;stroke-width:0.1580162;stroke-linejoin:round;stroke-miterlimit:4;stroke-opacity:1;stroke-dasharray:none;stroke-dashoffset:0"
         id="rect2188"
         width="1.5013396"
         height="60.028694"
         x="248.50136"
         y="1074.9755"
         ry="0" />
      <rect
         ry="0"
         y="1074.9806"
         x="252.40257"
         height="67.516418"
         width="1.4989549"
         id="rect2190"
         style="fill:#000000;fill-opacity:1;fill-rule:nonzero;stroke:#0e0101;stroke-width:0.16744864;stroke-linejoin:round;stroke-miterlimit:4;stroke-opacity:1;stroke-dasharray:none;stroke-dashoffset:0" />
      <rect
         style="fill:#000000;fill-opacity:1;fill-rule:nonzero;stroke:#0e0101;stroke-width:0.16744864;stroke-linejoin:round;stroke-miterlimit:4;stroke-opacity:1;stroke-dasharray:none;stroke-dashoffset:0"
         id="rect2192"
         width="1.4989549"
         height="67.516418"
         x="256.29327"
         y="1074.9806"
         ry="0" />
      <rect
         ry="0"
         y="1074.9755"
         x="264.08902"
         height="60.028694"
         width="1.5013396"
         id="rect2194"
         style="fill:#000000;fill-opacity:1;fill-rule:nonzero;stroke:#0e0101;stroke-width:0.1580162;stroke-linejoin:round;stroke-miterlimit:4;stroke-opacity:1;stroke-dasharray:none;stroke-dashoffset:0" />
      <rect
         style="fill:#000000;fill-opacity:1;fill-rule:nonzero;stroke:#0e0101;stroke-width:0.27110976;stroke-linejoin:round;stroke-miterlimit:4;stroke-opacity:1;stroke-dasharray:none;stroke-dashoffset:0"
         id="rect2196"
         width="4.4247365"
         height="59.95668"
         x="268.07471"
         y="1075.0115"
         ry="0" />
      <rect
         ry="0"
         y="1075.0115"
         x="275.86853"
         height="59.95668"
         width="4.4247365"
         id="rect2198"
         style="fill:#000000;fill-opacity:1;fill-rule:nonzero;stroke:#0e0101;stroke-width:0.27110976;stroke-linejoin:round;stroke-miterlimit:4;stroke-opacity:1;stroke-dasharray:none;stroke-dashoffset:0" />
      <rect
         style="fill:#000000;fill-opacity:1;fill-rule:nonzero;stroke:#0e0101;stroke-width:0.15445498;stroke-linejoin:round;stroke-miterlimit:4;stroke-opacity:1;stroke-dasharray:none;stroke-dashoffset:0"
         id="rect2204"
         width="1.4330857"
         height="60.085014"
         x="282.80594"
         y="1074.9473"
         ry="0" />
      <rect
         ry="0"
         y="1074.9473"
         x="286.6987"
         height="60.085014"
         width="1.4330857"
         id="rect2206"
         style="fill:#000000;fill-opacity:1;fill-rule:nonzero;stroke:#0e0101;stroke-width:0.15445498;stroke-linejoin:round;stroke-miterlimit:4;stroke-opacity:1;stroke-dasharray:none;stroke-dashoffset:0" />
      <rect
         style="fill:#000000;fill-opacity:1;fill-rule:nonzero;stroke:#0e0101;stroke-width:0.27110976;stroke-linejoin:round;stroke-miterlimit:4;stroke-opacity:1;stroke-dasharray:none;stroke-dashoffset:0"
         id="rect2208"
         width="4.4247365"
         height="59.95668"
         x="290.6445"
         y="1075.0115"
         ry="0" />
    </g>
  </g>
</svg>
