<?xml version="1.0" encoding="UTF-8" standalone="no"?>
<!-- Created with Inkscape (http://www.inkscape.org/) -->

<svg
   xmlns:dc="http://purl.org/dc/elements/1.1/"
   xmlns:cc="http://creativecommons.org/ns#"
   xmlns:rdf="http://www.w3.org/1999/02/22-rdf-syntax-ns#"
   xmlns:svg="http://www.w3.org/2000/svg"
   xmlns="http://www.w3.org/2000/svg"
   xmlns:sodipodi="http://sodipodi.sourceforge.net/DTD/sodipodi-0.dtd"
   xmlns:inkscape="http://www.inkscape.org/namespaces/inkscape"
   version="1.1"
   width="24"
   height="24"
   id="svg4106"
   inkscape:version="0.48+devel r12339"
   sodipodi:docname="mail-archive.svg">
  <sodipodi:namedview
     pagecolor="#ffffff"
     bordercolor="#666666"
     borderopacity="1"
     objecttolerance="10"
     gridtolerance="10"
     guidetolerance="10"
     inkscape:pageopacity="0"
     inkscape:pageshadow="2"
     inkscape:window-width="1366"
     inkscape:window-height="714"
     id="namedview1385"
     showgrid="false"
     inkscape:zoom="5.6145833"
     inkscape:cx="-42.855761"
     inkscape:cy="-1.6246537"
     inkscape:window-x="0"
     inkscape:window-y="30"
     inkscape:window-maximized="1"
     inkscape:current-layer="svg4106" />
  <defs
     id="defs4108" />
  <metadata
     id="metadata4111">
    <rdf:RDF>
      <cc:Work
         rdf:about="">
        <dc:format>image/svg+xml</dc:format>
        <dc:type
           rdf:resource="http://purl.org/dc/dcmitype/StillImage" />
        <dc:title />
      </cc:Work>
    </rdf:RDF>
  </metadata>
  <path
     id="path908"
     d="m 20.117126,9.7500011 c 0,-2.89875 -2.35125,-5.25 -5.25,-5.25 -2.89875,0 -5.2500002,2.35125 -5.2500002,5.25 0,-2.071124 1.6788762,-3.75 3.7500002,-3.75 2.071126,0 3.75,1.678876 3.75,3.75 l 0,0.7499999 -1.5,0 3,3 3,-3 -1.5,0 L 20.117126,9.7500011 Z"
     style="fill:#1a1a1a"
     inkscape:connector-curvature="0" />
  <g
     transform="matrix(0.18609538,0,0,0.18609538,-45.107736,-403.67252)"
     id="_x35__content_email"
     style="fill:#1a1a1a;fill-opacity:1">
    <g
       id="g944"
       style="fill:#1a1a1a;fill-opacity:1">
      <polygon
         style="fill:#1a1a1a;fill-opacity:1;fill-rule:evenodd;clip-rule:evenodd"
         points="255.195,2239.345 255.195,2273.955 321.359,2273.955 321.359,2239.345 288.276,2255.793 "
         id="polygon946" />
      <polygon
         style="fill:#1a1a1a;fill-opacity:1;fill-rule:evenodd;clip-rule:evenodd"
         points="255.195,2224.854 255.195,2234.063 288.276,2250.506 321.359,2234.063 321.359,2224.854 "
         id="polygon948" />
    </g>
  </g>
</svg>
