<?xml version="1.0" encoding="UTF-8" standalone="no"?>
<!-- Created with Inkscape (http://www.inkscape.org/) -->

<svg
   xmlns:dc="http://purl.org/dc/elements/1.1/"
   xmlns:cc="http://creativecommons.org/ns#"
   xmlns:rdf="http://www.w3.org/1999/02/22-rdf-syntax-ns#"
   xmlns:svg="http://www.w3.org/2000/svg"
   xmlns="http://www.w3.org/2000/svg"
   xmlns:sodipodi="http://sodipodi.sourceforge.net/DTD/sodipodi-0.dtd"
   xmlns:inkscape="http://www.inkscape.org/namespaces/inkscape"
   version="1.1"
   width="24"
   height="24"
   id="svg4532"
   inkscape:version="0.48+devel r12339"
   sodipodi:docname="mail-move.svg">
  <sodipodi:namedview
     pagecolor="#ffffff"
     bordercolor="#666666"
     borderopacity="1"
     objecttolerance="10"
     gridtolerance="10"
     guidetolerance="10"
     inkscape:pageopacity="0"
     inkscape:pageshadow="2"
     inkscape:window-width="1366"
     inkscape:window-height="714"
     id="namedview3449"
     showgrid="false"
     inkscape:zoom="19.666667"
     inkscape:cx="1.8796002"
     inkscape:cy="12.746395"
     inkscape:window-x="0"
     inkscape:window-y="30"
     inkscape:window-maximized="1"
     inkscape:current-layer="svg4532" />
  <defs
     id="defs4534" />
  <metadata
     id="metadata4537">
    <rdf:RDF>
      <cc:Work
         rdf:about="">
        <dc:format>image/svg+xml</dc:format>
        <dc:type
           rdf:resource="http://purl.org/dc/dcmitype/StillImage" />
        <dc:title />
      </cc:Work>
    </rdf:RDF>
  </metadata>
  <g
     transform="matrix(0.18609538,0,0,0.18609538,-39.186301,-403.67252)"
     id="_x35__content_email"
     style="fill:#1a1a1a;fill-opacity:1">
    <g
       id="g944"
       style="fill:#1a1a1a;fill-opacity:1">
      <polygon
         style="fill:#1a1a1a;fill-opacity:1;fill-rule:evenodd;clip-rule:evenodd"
         points="321.359,2273.955 321.359,2239.345 288.276,2255.793 255.195,2239.345 255.195,2273.955 "
         id="polygon946" />
      <polygon
         style="fill:#1a1a1a;fill-opacity:1;fill-rule:evenodd;clip-rule:evenodd"
         points="288.276,2250.506 321.359,2234.063 321.359,2224.854 255.195,2224.854 255.195,2234.063 "
         id="polygon948" />
    </g>
  </g>
  <path
     style="fill:#1a1a1a;fill-opacity:1;fill-rule:nonzero;stroke:none"
     d="m 3.382874,4.5000033 0,2.5511228 2.5511228,0 0,-2.5511228 L 3.382874,4.5000033 Z"
     id="path1030"
     inkscape:connector-curvature="0" />
  <path
     style="fill:#1a1a1a;fill-opacity:1;fill-rule:nonzero;stroke:none"
     d="m 18.066003,4.5000033 0,2.5511228 2.551123,0 0,-2.5511228 L 18.066003,4.5000033 Z"
     id="path1028"
     inkscape:connector-curvature="0" />
  <path
     style="fill:#1a1a1a;fill-opacity:1;fill-rule:nonzero;stroke:none"
     d="m 8.0103272,5.3503776 0,0.8503742 1.2755614,0 0,-0.8503742 L 8.0103272,5.3503776 Z"
     id="path1026"
     inkscape:connector-curvature="0" />
  <path
     style="fill:#1a1a1a;fill-opacity:1;fill-rule:nonzero;stroke:none"
     d="m 11.362219,5.3503776 0,0.8503742 1.275561,0 0,-0.8503742 L 11.362219,5.3503776 Z"
     id="path1024"
     inkscape:connector-curvature="0" />
  <path
     style="fill:#1a1a1a;fill-opacity:1;fill-rule:nonzero;stroke:none"
     d="m 4.2332483,9.0353327 0,1.2755613 0.8503742,0 0,-1.2755613 L 4.2332483,9.0353327 Z"
     id="path1022"
     inkscape:connector-curvature="0" />
  <path
     style="fill:#1a1a1a;fill-opacity:1;fill-rule:nonzero;stroke:none"
     d="m 4.2332483,12.295101 0,1.275561 0.8503742,0 0,-1.275561 L 4.2332483,12.295101 Z"
     id="path1018"
     inkscape:connector-curvature="0" />
  <path
     style="fill:#1a1a1a;fill-opacity:1;fill-rule:nonzero;stroke:none"
     d="m 3.382874,15.554869 0,2.551123 2.5511228,0 0,-2.551123 L 3.382874,15.554869 Z"
     id="path1014"
     inkscape:connector-curvature="0" />
  <path
     id="path1032"
     d="m 14.714111,5.3503776 0,0.8503742 1.275561,0 0,-0.8503742 L 14.714111,5.3503776 Z"
     style="fill:#1a1a1a;fill-opacity:1;fill-rule:nonzero;stroke:none"
     inkscape:connector-curvature="0" />
</svg>
