<?xml version="1.0" encoding="UTF-8" standalone="no"?>
<!-- Created with Inkscape (http://www.inkscape.org/) -->

<svg
   xmlns:dc="http://purl.org/dc/elements/1.1/"
   xmlns:cc="http://creativecommons.org/ns#"
   xmlns:rdf="http://www.w3.org/1999/02/22-rdf-syntax-ns#"
   xmlns:svg="http://www.w3.org/2000/svg"
   xmlns="http://www.w3.org/2000/svg"
   xmlns:xlink="http://www.w3.org/1999/xlink"
   xmlns:sodipodi="http://sodipodi.sourceforge.net/DTD/sodipodi-0.dtd"
   xmlns:inkscape="http://www.inkscape.org/namespaces/inkscape"
   width="24"
   height="24"
   id="svg2"
   version="1.1"
   inkscape:version="0.48+devel r12370"
   sodipodi:docname="emblem-ubuntuone-updating.svg">
  <defs
     id="defs4">
    <linearGradient
       inkscape:collect="always"
       xlink:href="#linearGradient830-0"
       id="linearGradient836"
       x1="-3.3402286"
       y1="1038.5532"
       x2="-3.3402286"
       y2="1030.2434"
       gradientUnits="userSpaceOnUse"
       gradientTransform="matrix(2.1715905,0,0,2.1715905,19.342067,-1205.8388)" />
    <linearGradient
       inkscape:collect="always"
       id="linearGradient830-0">
      <stop
         style="stop-color:#80b22e;stop-opacity:1"
         offset="0"
         id="stop832-1" />
      <stop
         style="stop-color:#aee063;stop-opacity:1"
         offset="1"
         id="stop834-6" />
    </linearGradient>
  </defs>
  <sodipodi:namedview
     id="base"
     pagecolor="#ffffff"
     bordercolor="#666666"
     borderopacity="1.0"
     inkscape:pageopacity="0.0"
     inkscape:pageshadow="2"
     inkscape:zoom="3.2124954"
     inkscape:cx="11.01875"
     inkscape:cy="21.085377"
     inkscape:document-units="px"
     inkscape:current-layer="layer1"
     showgrid="false"
     width="0px"
     height="0px"
     fit-margin-top="0"
     fit-margin-left="0"
     fit-margin-right="0"
     fit-margin-bottom="0"
     inkscape:window-width="1366"
     inkscape:window-height="714"
     inkscape:window-x="0"
     inkscape:window-y="30"
     inkscape:window-maximized="1" />
  <metadata
     id="metadata7">
    <rdf:RDF>
      <cc:Work
         rdf:about="">
        <dc:format>image/svg+xml</dc:format>
        <dc:type
           rdf:resource="http://purl.org/dc/dcmitype/StillImage" />
        <dc:title></dc:title>
      </cc:Work>
    </rdf:RDF>
  </metadata>
  <g
     inkscape:label="Capa 1"
     inkscape:groupmode="layer"
     id="layer1"
     transform="translate(0,-1028.3622)">
    <rect
       ry="1.6408838"
       y="1030.3622"
       x="2"
       height="20"
       width="20"
       id="rect846"
       style="fill:#000000;fill-opacity:0.09411765;stroke:none" />
    <rect
       style="fill:#000000;fill-opacity:0.17647059;stroke:none"
       id="rect844"
       width="19.34852"
       height="19.34852"
       x="2.3257396"
       y="1030.6879"
       ry="1.5874341" />
    <rect
       ry="1.5339843"
       y="1031.0137"
       x="2.6514792"
       height="18.697042"
       width="18.697042"
       id="rect838"
       style="fill:#000000;fill-opacity:0.35294118;stroke:none" />
    <rect
       style="fill:#000000;fill-opacity:0.42672412;stroke:none"
       id="rect848"
       width="18.469109"
       height="18.469109"
       x="2.7654459"
       y="1031.1277"
       ry="1.5152837" />
    <rect
       style="fill:url(#linearGradient836);fill-opacity:1.0;stroke:none"
       id="rect828"
       width="18.045561"
       height="18.045561"
       x="2.9772196"
       y="1031.3394"
       ry="1.4805344" />
    <path
       d="m 6.6218245,1035.404 0,4.2487 c 0,3.533 0.1241046,4.3788 0.262279,4.9575 0.5194562,2.1756 1.9169227,3.4228 4.1689605,3.7238 1.219077,0.1629 3.681223,-0.026 5.617578,-0.4303 l 0.707533,-0.1453 0,-12.3544 -3.585445,-0.012 0,9.8599 -3.585452,0 0,-6.9468 -1.3445467,0 L 10.65546,1035.3951 Z"
       inkscape:connector-curvature="0"
       id="path950"
       style="fill:#000000;fill-opacity:0.06666667" />
    <path
       style="fill:#000000;fill-opacity:0.1372549"
       id="path952"
       inkscape:connector-curvature="0"
       d="m 6.6218245,1034.8717 0,4.2487 c 0,3.533 0.1241046,4.3788 0.262279,4.9575 0.5194562,2.1756 1.9169227,3.4228 4.1689605,3.7238 1.219077,0.1629 3.681223,-0.026 5.617578,-0.4303 l 0.707533,-0.1453 0,-12.3544 -3.585445,-0.012 0,9.8599 -3.585452,0 0,-6.9468 -1.3445467,0 L 10.65546,1034.8628 Z" />
    <path
       d="m 6.6218245,1034.3393 0,4.2487 c 0,3.533 0.1241046,4.3788 0.262279,4.9575 0.5194562,2.1756 1.9169227,3.4228 4.1689605,3.7238 1.219077,0.1629 3.681223,-0.026 5.617578,-0.4303 l 0.707533,-0.1453 0,-12.3544 -3.585445,-0.012 0,9.8599 -3.585452,0 0,-6.9468 -1.3445467,0 L 10.65546,1034.3304 Z"
       inkscape:connector-curvature="0"
       id="path954"
       style="fill:#000000;fill-opacity:0.2745098" />
    <path
       style="fill:#ffffff;fill-opacity:1"
       id="path3865"
       inkscape:connector-curvature="0"
       d="m 6.6218245,1033.874 0,4.2487 c 0,3.533 0.1241046,4.3788 0.262279,4.9575 0.5194562,2.1756 1.9169227,3.4228 4.1689605,3.7238 1.219077,0.1629 3.681223,-0.026 5.617578,-0.4303 l 0.707533,-0.1453 0,-12.3544 -3.585445,-0.012 0,9.8599 -3.585452,0 0,-6.9468 -1.3445467,0 L 10.65546,1033.8651 Z" />
  </g>
</svg>
