<?xml version="1.0" encoding="UTF-8" standalone="no"?>
<!-- Created with Inkscape (http://www.inkscape.org/) -->

<svg
   xmlns:dc="http://purl.org/dc/elements/1.1/"
   xmlns:cc="http://creativecommons.org/ns#"
   xmlns:rdf="http://www.w3.org/1999/02/22-rdf-syntax-ns#"
   xmlns:svg="http://www.w3.org/2000/svg"
   xmlns="http://www.w3.org/2000/svg"
   xmlns:xlink="http://www.w3.org/1999/xlink"
   xmlns:sodipodi="http://sodipodi.sourceforge.net/DTD/sodipodi-0.dtd"
   xmlns:inkscape="http://www.inkscape.org/namespaces/inkscape"
   width="16"
   height="16"
   id="svg2"
   version="1.1"
   inkscape:version="0.48+devel r12353"
   sodipodi:docname="drive-harddisk.svg">
  <defs
     id="defs4">
    <linearGradient
       inkscape:collect="always"
       id="linearGradient2321">
      <stop
         style="stop-color:#353535;stop-opacity:1"
         offset="0"
         id="stop2323" />
      <stop
         style="stop-color:#000000;stop-opacity:1"
         offset="1"
         id="stop2325" />
    </linearGradient>
    <linearGradient
       inkscape:collect="always"
       id="linearGradient1540">
      <stop
         style="stop-color:#ffffff;stop-opacity:1;"
         offset="0"
         id="stop1542" />
      <stop
         style="stop-color:#ffffff;stop-opacity:0;"
         offset="1"
         id="stop1544" />
    </linearGradient>
    <linearGradient
       id="linearGradient1264-7">
      <stop
         style="stop-color:#626262;stop-opacity:1;"
         offset="0"
         id="stop1266-5" />
      <stop
         id="stop1268-3"
         offset="0.01761973"
         style="stop-color:#ababab;stop-opacity:1;" />
      <stop
         id="stop1270-5"
         offset="0.04698669"
         style="stop-color:#d2d2d2;stop-opacity:1" />
      <stop
         id="stop1272-4"
         offset="0.35622254"
         style="stop-color:#ffffff;stop-opacity:1" />
      <stop
         style="stop-color:#d2d2d2;stop-opacity:1"
         offset="0.95644945"
         id="stop1274-3" />
      <stop
         id="stop1276-4"
         offset="0.97822475"
         style="stop-color:#ababab;stop-opacity:1;" />
      <stop
         style="stop-color:#626262;stop-opacity:1;"
         offset="1"
         id="stop1278-6" />
    </linearGradient>
    <linearGradient
       inkscape:collect="always"
       xlink:href="#linearGradient1264-7"
       id="linearGradient1511"
       x1="5.7942061e-06"
       y1="-1028.3622"
       x2="48.000008"
       y2="-1028.3622"
       gradientUnits="userSpaceOnUse"
       gradientTransform="matrix(0.33333329,0,0,0.33333329,-5.7942062e-6,-701.57484)" />
    <linearGradient
       inkscape:collect="always"
       xlink:href="#linearGradient1540"
       id="linearGradient1546"
       x1="3"
       y1="46.59375"
       x2="3"
       y2="43.0625"
       gradientUnits="userSpaceOnUse" />
    <linearGradient
       inkscape:collect="always"
       xlink:href="#linearGradient1540"
       id="linearGradient1595"
       gradientUnits="userSpaceOnUse"
       x1="3"
       y1="46.59375"
       x2="3"
       y2="43.0625" />
    <linearGradient
       inkscape:collect="always"
       xlink:href="#linearGradient1540"
       id="linearGradient1623"
       gradientUnits="userSpaceOnUse"
       x1="3"
       y1="46.59375"
       x2="3"
       y2="43.0625" />
    <linearGradient
       inkscape:collect="always"
       xlink:href="#linearGradient1540"
       id="linearGradient1627"
       gradientUnits="userSpaceOnUse"
       x1="3"
       y1="46.59375"
       x2="3"
       y2="43.0625" />
    <radialGradient
       inkscape:collect="always"
       xlink:href="#linearGradient2321"
       id="radialGradient2336"
       cx="24"
       cy="2.3061709"
       fx="24"
       fy="2.3061709"
       r="12.46875"
       gradientTransform="matrix(0.57059306,2.8890788e-8,-1.3366748e-8,0.26399328,-5.6942388,1036.5659)"
       gradientUnits="userSpaceOnUse" />
    <linearGradient
       id="linearGradient2462"
       inkscape:collect="always">
      <stop
         id="stop2464"
         offset="0"
         style="stop-color:#ffd70c;stop-opacity:1" />
      <stop
         id="stop2466"
         offset="1"
         style="stop-color:#fff054;stop-opacity:1" />
    </linearGradient>
    <linearGradient
       y2="1007.704"
       x2="-34.703476"
       y1="1009.6486"
       x1="-34.703476"
       gradientTransform="matrix(1.4246891,0,0,0.47677063,59.975935,556.64068)"
       gradientUnits="userSpaceOnUse"
       id="linearGradient2492"
       xlink:href="#linearGradient2462"
       inkscape:collect="always" />
    <linearGradient
       inkscape:collect="always"
       xlink:href="#linearGradient2462"
       id="linearGradient872"
       gradientUnits="userSpaceOnUse"
       gradientTransform="matrix(1.4246891,0,0,0.47677063,55.309033,556.64068)"
       x1="-34.703476"
       y1="1009.6486"
       x2="-34.703476"
       y2="1007.704" />
    <linearGradient
       inkscape:collect="always"
       xlink:href="#linearGradient2462"
       id="linearGradient876"
       gradientUnits="userSpaceOnUse"
       gradientTransform="matrix(1.4246891,0,0,0.47677063,57.642483,556.64068)"
       x1="-34.703476"
       y1="1009.6486"
       x2="-34.703476"
       y2="1007.704" />
  </defs>
  <sodipodi:namedview
     id="base"
     pagecolor="#ffffff"
     bordercolor="#666666"
     borderopacity="1.0"
     inkscape:pageopacity="0.0"
     inkscape:pageshadow="2"
     inkscape:zoom="8"
     inkscape:cx="-8.9744709"
     inkscape:cy="0.12213735"
     inkscape:document-units="px"
     inkscape:current-layer="layer1"
     showgrid="false"
     inkscape:window-width="1366"
     inkscape:window-height="714"
     inkscape:window-x="0"
     inkscape:window-y="30"
     inkscape:window-maximized="1" />
  <metadata
     id="metadata7">
    <rdf:RDF>
      <cc:Work
         rdf:about="">
        <dc:format>image/svg+xml</dc:format>
        <dc:type
           rdf:resource="http://purl.org/dc/dcmitype/StillImage" />
        <dc:title />
      </cc:Work>
    </rdf:RDF>
  </metadata>
  <g
     inkscape:label="Capa 1"
     inkscape:groupmode="layer"
     id="layer1"
     transform="translate(0,-1036.3622)">
    <rect
       style="fill:url(#linearGradient1511);fill-opacity:1;stroke:none"
       id="rect2991-1-7"
       width="15.999998"
       height="15.999998"
       x="-3.8628045e-06"
       y="-1052.3622"
       ry="0.64818114"
       transform="scale(1,-1)" />
    <path
       style="fill:#ffffff;fill-opacity:1;stroke:none"
       d="m 3.583329,1039.3622 c -0.3590923,0 -0.6458332,0.2867 -0.6458332,0.6458 l 0,12.3542 10.1249992,0 0,-12.3542 c 0,-0.3591 -0.286741,-0.6458 -0.645834,-0.6458 L 3.583329,1039.3622 Z"
       id="rect2991"
       inkscape:connector-curvature="0" />
    <path
       id="path2334"
       d="m 3.8437457,1036.3622 0,1.2083 c 0,0.4155 0.3344999,0.75 0.7499999,0.75 l 6.8124994,0 c 0.4155,0 0.75,-0.3345 0.75,-0.75 l 0,-1.2083 L 3.8437457,1036.3622 Z"
       style="fill:url(#radialGradient2336);fill-opacity:1;stroke:none"
       inkscape:connector-curvature="0" />
    <path
       inkscape:connector-curvature="0"
       style="fill:#ffffff;fill-opacity:0.5372549;stroke:none"
       d="m 0.8437441,1036.581 c -0.30569663,0 -0.55704993,0.2131 -0.61458325,0.5 0.11186998,-0.093 0.25816996,-0.1459 0.41666661,-0.1459 l 14.70833154,0 c 0.158497,0 0.304797,0.053 0.416667,0.1459 -0.05753,-0.2869 -0.308887,-0.5 -0.614584,-0.5 L 0.8437441,1036.581 Z"
       id="path7515-7" />
    <path
       inkscape:connector-curvature="0"
       style="fill:#000000;fill-opacity:0.39215686;stroke:none"
       d="m 0.64582746,1036.3622 c -0.35909329,0 -0.6458332542062,0.2867 -0.6458332542062,0.6458 l 0,14.3542 c 0,0.2645 0.1600066442062,0.483 0.3854166142062,0.5833 -0.10311331,-0.1111 -0.16666664,-0.2608 -0.16666664,-0.427 l 0,-14.3125 c 0,-0.3494 0.2756333,-0.625 0.62499992,-0.625 l 14.3124979,0 c 0.349367,0 0.625,0.2756 0.625,0.625 l 0,14.3125 c 0,0.1662 -0.06355,0.3159 -0.166666,0.427 0.22541,-0.1003 0.385416,-0.3188 0.385416,-0.5833 l 0,-14.3542 c 0,-0.3591 -0.28674,-0.6458 -0.645833,-0.6458 L 0.64582746,1036.3622 Z"
       id="rect4280-9" />
    <path
       style="fill:#000000;fill-opacity:0.15686275;stroke:none"
       d="m 3.583329,1039.4143 c -0.3590923,0 -0.6458332,0.2867 -0.6458332,0.6458 l 0,12.3021 0.09375,0 0,-12.1979 c 0,-0.3571 0.2887534,-0.6458 0.6458332,-0.6458 l 8.645832,0 c 0.35708,0 0.645834,0.2887 0.645834,0.6458 l 0,12.1979 0.09375,0 0,-12.3021 c 0,-0.3591 -0.286741,-0.6458 -0.645834,-0.6458 L 3.583329,1039.4143 Z"
       id="rect1515"
       inkscape:connector-curvature="0" />
    <path
       style="fill:#000000;fill-opacity:0.07843137;stroke:none"
       d="m 3.6666624,1039.5185 c -0.3519984,0 -0.625,0.2783 -0.625,0.6354 l 0,12.2083 0.083333,0 0,-12.1042 c 0,-0.355 0.2853909,-0.6354 0.6354165,-0.6354 l 8.4791657,0 c 0.350026,0 0.635417,0.2804 0.635417,0.6354 l 0,12.1042 0.08333,0 0,-12.2083 c 0,-0.3571 -0.273002,-0.6354 -0.625,-0.6354 L 3.6666624,1039.5185 Z"
       id="path1520"
       inkscape:connector-curvature="0" />
    <rect
       ry="0"
       y="1046.8259"
       x="3.958329"
       height="0.38265872"
       width="2.0214968"
       id="rect951"
       style="fill:#000000;fill-opacity:0.70980392;stroke:none" />
    <rect
       ry="0"
       y="1048.7413"
       x="3.958329"
       height="0.72516358"
       width="3.4199343"
       id="rect955"
       style="fill:#000000;fill-opacity:0.70980392;stroke:none" />
    <path
       style="fill:#000000;fill-opacity:0.03918188;stroke:none"
       d="m 3.7604123,1039.6122 c -0.3449042,0 -0.6249999,0.2908 -0.6249999,0.6458 l 0,12.1042 0.09375,0 0,-12.0104 c 0,-0.3531 0.2716116,-0.6354 0.6145833,-0.6354 l 8.3124993,0 c 0.342972,0 0.614583,0.2823 0.614583,0.6354 l 0,12.0104 0.09375,0 0,-12.1042 c 0,-0.355 -0.280096,-0.6458 -0.625,-0.6458 L 3.7604123,1039.6122 Z"
       id="path1522"
       inkscape:connector-curvature="0" />
    <path
       style="fill:#ffffff;fill-opacity:1;stroke:none"
       d="m 3.583329,1039.3609 c -0.3327795,0 -0.5972447,0.2507 -0.6354166,0.5729 0.060243,-0.2959 0.3212108,-0.5208 0.6354166,-0.5208 l 8.833332,0 c 0.314206,0 0.575174,0.2249 0.635417,0.5208 -0.03817,-0.3222 -0.302637,-0.5729 -0.635417,-0.5729 L 3.583329,1039.3609 Z"
       id="rect1524"
       inkscape:connector-curvature="0" />
    <path
       inkscape:connector-curvature="0"
       style="fill:#000000;fill-opacity:1;stroke:none"
       d="m -5.7942062e-6,1051.3622 0,0.3542 c 0,0.3591 0.2867399642062,0.6458 0.6458332542062,0.6458 l 14.70833154,0 c 0.359093,0 0.645833,-0.2867 0.645833,-0.6458 l 0,-0.3542 c 0,0.3591 -0.28674,0.6458 -0.645833,0.6458 l -14.70833154,0 C 0.28673417,1052.008 -5.7942062e-6,1051.7213 -5.7942062e-6,1051.3622 Z"
       id="rect846-1" />
    <path
       sodipodi:type="arc"
       style="fill:url(#linearGradient1546);fill-opacity:1;stroke:none"
       id="path1538"
       sodipodi:cx="2.921875"
       sodipodi:cy="44.828125"
       sodipodi:rx="1.765625"
       sodipodi:ry="1.765625"
       d="m 4.6875,44.828125 c 0,0.975128 -0.7904972,1.765625 -1.765625,1.765625 -0.9751278,0 -1.765625,-0.790497 -1.765625,-1.765625 0,-0.975128 0.7904972,-1.765625 1.765625,-1.765625 C 3.8970028,43.0625 4.6875,43.852997 4.6875,44.828125 Z"
       transform="matrix(0.34808255,0,0,0.34808255,0.26419227,1035.4771)" />
    <path
       transform="matrix(0.29203537,0,0,-0.29203537,0.42795515,1064.1724)"
       d="m 4.6875,44.828125 c 0,0.975128 -0.7904972,1.765625 -1.765625,1.765625 -0.9751278,0 -1.765625,-0.790497 -1.765625,-1.765625 0,-0.975128 0.7904972,-1.765625 1.765625,-1.765625 C 3.8970028,43.0625 4.6875,43.852997 4.6875,44.828125 Z"
       sodipodi:ry="1.765625"
       sodipodi:rx="1.765625"
       sodipodi:cy="44.828125"
       sodipodi:cx="2.921875"
       id="path1548"
       style="fill:#000000;fill-opacity:0.68103452;stroke:none"
       sodipodi:type="arc" />
    <path
       transform="matrix(0.34808255,0,0,0.34808255,13.70169,1035.4771)"
       d="m 4.6875,44.828125 c 0,0.975128 -0.7904972,1.765625 -1.765625,1.765625 -0.9751278,0 -1.765625,-0.790497 -1.765625,-1.765625 0,-0.975128 0.7904972,-1.765625 1.765625,-1.765625 C 3.8970028,43.0625 4.6875,43.852997 4.6875,44.828125 Z"
       sodipodi:ry="1.765625"
       sodipodi:rx="1.765625"
       sodipodi:cy="44.828125"
       sodipodi:cx="2.921875"
       id="path1584"
       style="fill:url(#linearGradient1595);fill-opacity:1;stroke:none"
       sodipodi:type="arc" />
    <path
       sodipodi:type="arc"
       style="fill:#000000;fill-opacity:0.68103452;stroke:none"
       id="path1586"
       sodipodi:cx="2.921875"
       sodipodi:cy="44.828125"
       sodipodi:rx="1.765625"
       sodipodi:ry="1.765625"
       d="m 4.6875,44.828125 c 0,0.975128 -0.7904972,1.765625 -1.765625,1.765625 -0.9751278,0 -1.765625,-0.790497 -1.765625,-1.765625 0,-0.975128 0.7904972,-1.765625 1.765625,-1.765625 C 3.8970028,43.0625 4.6875,43.852997 4.6875,44.828125 Z"
       transform="matrix(0.29203537,0,0,-0.29203537,13.865453,1064.1724)" />
    <path
       transform="matrix(0.34808255,0,0,0.34808255,0.26419227,1022.1437)"
       d="m 4.6875,44.828125 c 0,0.975128 -0.7904972,1.765625 -1.765625,1.765625 -0.9751278,0 -1.765625,-0.790497 -1.765625,-1.765625 0,-0.975128 0.7904972,-1.765625 1.765625,-1.765625 C 3.8970028,43.0625 4.6875,43.852997 4.6875,44.828125 Z"
       sodipodi:ry="1.765625"
       sodipodi:rx="1.765625"
       sodipodi:cy="44.828125"
       sodipodi:cx="2.921875"
       id="path1601"
       style="fill:url(#linearGradient1623);fill-opacity:1;stroke:none"
       sodipodi:type="arc" />
    <path
       sodipodi:type="arc"
       style="fill:#000000;fill-opacity:0.68103452;stroke:none"
       id="path1603"
       sodipodi:cx="2.921875"
       sodipodi:cy="44.828125"
       sodipodi:rx="1.765625"
       sodipodi:ry="1.765625"
       d="m 4.6875,44.828125 c 0,0.975128 -0.7904972,1.765625 -1.765625,1.765625 -0.9751278,0 -1.765625,-0.790497 -1.765625,-1.765625 0,-0.975128 0.7904972,-1.765625 1.765625,-1.765625 C 3.8970028,43.0625 4.6875,43.852997 4.6875,44.828125 Z"
       transform="matrix(0.29203537,0,0,-0.29203537,0.42795515,1050.839)" />
    <path
       sodipodi:type="arc"
       style="fill:url(#linearGradient1627);fill-opacity:1;stroke:none"
       id="path1613"
       sodipodi:cx="2.921875"
       sodipodi:cy="44.828125"
       sodipodi:rx="1.765625"
       sodipodi:ry="1.765625"
       d="m 4.6875,44.828125 c 0,0.975128 -0.7904972,1.765625 -1.765625,1.765625 -0.9751278,0 -1.765625,-0.790497 -1.765625,-1.765625 0,-0.975128 0.7904972,-1.765625 1.765625,-1.765625 C 3.8970028,43.0625 4.6875,43.852997 4.6875,44.828125 Z"
       transform="matrix(0.34808255,0,0,0.34808255,13.70169,1022.1437)" />
    <path
       transform="matrix(0.29203537,0,0,-0.29203537,13.865453,1050.839)"
       d="m 4.6875,44.828125 c 0,0.975128 -0.7904972,1.765625 -1.765625,1.765625 -0.9751278,0 -1.765625,-0.790497 -1.765625,-1.765625 0,-0.975128 0.7904972,-1.765625 1.765625,-1.765625 C 3.8970028,43.0625 4.6875,43.852997 4.6875,44.828125 Z"
       sodipodi:ry="1.765625"
       sodipodi:rx="1.765625"
       sodipodi:cy="44.828125"
       sodipodi:cx="2.921875"
       id="path1615"
       style="fill:#000000;fill-opacity:0.68103452;stroke:none"
       sodipodi:type="arc" />
    <rect
       ry="0.055055246"
       y="1037.0844"
       x="9.4796448"
       height="0.92050463"
       width="1.7"
       id="rect2490"
       style="fill:url(#linearGradient2492);fill-opacity:1;stroke:none" />
    <path
       style="fill:#ffffff;fill-opacity:1;stroke:none"
       d="m 3.8541623,1037.7255 c 0.036103,0.3814 0.3484433,0.6771 0.7395833,0.6771 l 6.8124994,0 c 0.39114,0 0.70348,-0.2957 0.739583,-0.6771 -0.06971,0.3424 -0.376021,0.5937 -0.739583,0.5937 l -6.8124994,0 C 4.2301833,1038.3192 3.9238683,1038.0679 3.8541623,1037.7255 Z"
       id="path2329"
       inkscape:connector-curvature="0" />
    <rect
       style="fill:#000000;fill-opacity:0.70980392;stroke:none"
       id="rect949"
       width="4.2478118"
       height="1.3979026"
       x="3.958329"
       y="1043.8207"
       ry="0" />
    <path
       style="fill:#000000;fill-opacity:0.70980392;stroke:none"
       d="m 10.90625,1049.1435 0,0.6562 1.40625,0 0,-0.6562 L 10.90625,1049.1435 Z"
       id="path968"
       inkscape:connector-curvature="0" />
    <path
       style="fill:#000000;fill-opacity:0.70980392;stroke:none"
       d="m 8.40625,1050.6747 0,0.5938 1.4375,0 0,-0.5938 L 8.40625,1050.6747 Z"
       id="path966"
       inkscape:connector-curvature="0" />
    <path
       style="fill:#000000;fill-opacity:0.70980392;stroke:none"
       d="m 10.90625,1050.6747 0,0.5938 1.40625,0 0,-0.5938 L 10.90625,1050.6747 Z"
       id="rect957" />
    <rect
       style="fill:url(#linearGradient872);fill-opacity:1;stroke:none"
       id="rect870"
       width="1.7"
       height="0.92050463"
       x="4.8127432"
       y="1037.0844"
       ry="0.055055246" />
    <rect
       ry="0.055055246"
       y="1037.0844"
       x="7.1461935"
       height="0.92050463"
       width="1.7"
       id="rect874"
       style="fill:url(#linearGradient876);fill-opacity:1;stroke:none" />
  </g>
</svg>
