<?xml version="1.0" encoding="UTF-8" standalone="no"?>
<!-- Created with Inkscape (http://www.inkscape.org/) -->

<svg
   xmlns:dc="http://purl.org/dc/elements/1.1/"
   xmlns:cc="http://creativecommons.org/ns#"
   xmlns:rdf="http://www.w3.org/1999/02/22-rdf-syntax-ns#"
   xmlns:svg="http://www.w3.org/2000/svg"
   xmlns="http://www.w3.org/2000/svg"
   xmlns:sodipodi="http://sodipodi.sourceforge.net/DTD/sodipodi-0.dtd"
   xmlns:inkscape="http://www.inkscape.org/namespaces/inkscape"
   sodipodi:docname="user-offline-symbolic.svg"
   height="16"
   id="svg7384"
   style="enable-background:new"
   inkscape:version="0.48+devel r12388"
   version="1.1"
   width="16">
  <sodipodi:namedview
     inkscape:bbox-nodes="false"
     inkscape:bbox-paths="true"
     bordercolor="#666666"
     borderlayer="false"
     borderopacity="1"
     inkscape:current-layer="layer9"
     inkscape:cx="5.3480131"
     inkscape:cy="8.4290249"
     gridtolerance="10"
     inkscape:guide-bbox="true"
     guidetolerance="10"
     id="namedview88"
     inkscape:object-nodes="false"
     inkscape:object-paths="false"
     objecttolerance="10"
     pagecolor="#ffffff"
     inkscape:pageopacity="0"
     inkscape:pageshadow="2"
     showborder="true"
     showgrid="false"
     showguides="true"
     inkscape:showpageshadow="true"
     inkscape:snap-bbox="true"
     inkscape:snap-bbox-midpoints="false"
     inkscape:snap-global="true"
     inkscape:snap-grids="true"
     inkscape:snap-nodes="true"
     inkscape:snap-others="false"
     inkscape:snap-to-guides="true"
     inkscape:window-height="714"
     inkscape:window-maximized="1"
     inkscape:window-width="1366"
     inkscape:window-x="0"
     inkscape:window-y="30"
     inkscape:zoom="32">
    <inkscape:grid
       empspacing="2"
       enabled="true"
       id="grid4866"
       originx="-20.000198px"
       originy="-429.99998px"
       snapvisiblegridlinesonly="true"
       spacingx="1px"
       spacingy="1px"
       type="xygrid"
       visible="true" />
  </sodipodi:namedview>
  <metadata
     id="metadata90">
    <rdf:RDF>
      <cc:Work
         rdf:about="">
        <dc:format>image/svg+xml</dc:format>
        <dc:type
           rdf:resource="http://purl.org/dc/dcmitype/StillImage" />
        <dc:title>Moka Symbolic Icon Theme</dc:title>
      </cc:Work>
    </rdf:RDF>
  </metadata>
  <title
     id="title8473">Moka Symbolic Icon Theme</title>
  <defs
     id="defs7386">
    <filter
       inkscape:collect="always"
       color-interpolation-filters="sRGB"
       id="filter7554">
      <feBlend
         inkscape:collect="always"
         id="feBlend7556"
         in2="BackgroundImage"
         mode="darken" />
    </filter>
  </defs>
  <g
     inkscape:groupmode="layer"
     id="layer9"
     inkscape:label="status"
     style="display:inline"
     transform="translate(-261.0004,212.99998)">
    <path
       style="fill:#bebebe;fill-opacity:1;fill-rule:nonzero;stroke:none"
       d="M 8 2 C 4.38689 2 1.46875 4.41419 1.46875 7.375 C 1.46875 9.07566 2.08779 10.45744 3.375 11.375 C 3.3965 11.3954 3.43425 11.42865 3.5 11.46875 C 4.45558 12.05039 3.125 13.6875 3.125 13.6875 C 2.98905 13.92677 3.125 13.96875 3.125 13.96875 C 3.78482 14.14853 5.375 13.09375 5.375 13.09375 C 5.96093 12.66353 6.59375 12.5 6.59375 12.5 C 6.83151 12.5253 7.08901 12.52115 7.34375 12.53125 C 10.95407 12.6758 14.53125 10.33645 14.53125 7.375 C 14.53125 4.41419 11.61311 2 8 2 z M 6.4375 4.75 C 6.7190793 4.75 7.0029894 4.8467394 7.21875 5.0625 L 8 5.84375 L 8.78125 5.0625 C 9.2127712 4.6309788 9.9122288 4.6309788 10.34375 5.0625 C 10.775271 5.4940212 10.775271 6.1934788 10.34375 6.625 L 9.5625 7.40625 L 10.34375 8.1875 C 10.775271 8.6190212 10.775271 9.3184788 10.34375 9.75 C 9.9122288 10.181521 9.2127712 10.181521 8.78125 9.75 L 8 8.96875 L 7.21875 9.75 C 6.7872288 10.181521 6.0877712 10.181521 5.65625 9.75 C 5.2247288 9.3184788 5.2247288 8.6190212 5.65625 8.1875 L 6.4375 7.40625 L 5.65625 6.625 C 5.2247288 6.1934788 5.2247288 5.4940212 5.65625 5.0625 C 5.8720106 4.8467394 6.1559207 4.75 6.4375 4.75 z "
       transform="translate(261.0004,-212.99998)"
       id="path1246" />
  </g>
  <g
     inkscape:groupmode="layer"
     id="layer10"
     inkscape:label="devices"
     style="display:inline;filter:url(#filter7554)"
     transform="translate(-261.0004,212.99998)" />
  <g
     inkscape:groupmode="layer"
     id="layer1"
     inkscape:label="places"
     style="display:inline"
     transform="translate(-20.000198,-404.00002)" />
  <g
     inkscape:groupmode="layer"
     id="layer14"
     inkscape:label="mimetypes"
     style="display:inline"
     transform="translate(-261.0004,212.99998)" />
  <g
     inkscape:groupmode="layer"
     id="layer15"
     inkscape:label="emblems"
     style="display:inline"
     transform="translate(-261.0004,212.99998)" />
  <g
     inkscape:groupmode="layer"
     id="g71291"
     inkscape:label="emotes"
     style="display:inline"
     transform="translate(-261.0004,212.99998)" />
  <g
     inkscape:groupmode="layer"
     id="g4953"
     inkscape:label="categories"
     style="display:inline"
     transform="translate(-261.0004,212.99998)" />
  <g
     inkscape:groupmode="layer"
     id="layer12"
     inkscape:label="actions"
     style="display:inline"
     transform="translate(-261.0004,212.99998)" />
</svg>
