<?xml version="1.0" encoding="UTF-8" standalone="no"?>
<!-- Created with Inkscape (http://www.inkscape.org/) -->

<svg
   xmlns:dc="http://purl.org/dc/elements/1.1/"
   xmlns:cc="http://creativecommons.org/ns#"
   xmlns:rdf="http://www.w3.org/1999/02/22-rdf-syntax-ns#"
   xmlns:svg="http://www.w3.org/2000/svg"
   xmlns="http://www.w3.org/2000/svg"
   xmlns:xlink="http://www.w3.org/1999/xlink"
   xmlns:sodipodi="http://sodipodi.sourceforge.net/DTD/sodipodi-0.dtd"
   xmlns:inkscape="http://www.inkscape.org/namespaces/inkscape"
   width="48"
   height="48"
   id="svg1239"
   version="1.1"
   inkscape:version="0.48+devel r12353"
   sodipodi:docname="folder-remote.svg">
  <defs
     id="defs1241">
    <linearGradient
       inkscape:collect="always"
       xlink:href="#linearGradient1035-5"
       id="linearGradient1033-0"
       x1="23.875"
       y1="-1052.4872"
       x2="23.875"
       y2="-1004.4247"
       gradientUnits="userSpaceOnUse"
       gradientTransform="translate(644.57142,584.57143)" />
    <linearGradient
       id="linearGradient1035-5"
       inkscape:collect="always">
      <stop
         id="stop1037-0"
         offset="0"
         style="stop-color:#ffffff;stop-opacity:1" />
      <stop
         id="stop1039-8"
         offset="1"
         style="stop-color:#ececec;stop-opacity:1" />
    </linearGradient>
    <linearGradient
       y2="-1026.1804"
       x2="1.2499999"
       y1="-1026.1804"
       x1="48.5"
       gradientTransform="matrix(0,1,0.63020833,0,1307.7788,419.79116)"
       gradientUnits="userSpaceOnUse"
       id="linearGradient928"
       xlink:href="#linearGradient2476-4"
       inkscape:collect="always" />
    <linearGradient
       id="linearGradient2476-4"
       inkscape:collect="always">
      <stop
         id="stop2478-4"
         offset="0"
         style="stop-color:#2c2525;stop-opacity:1" />
      <stop
         id="stop2480-0"
         offset="1"
         style="stop-color:#3f3535;stop-opacity:1" />
    </linearGradient>
    <linearGradient
       id="linearGradient1055-1"
       inkscape:collect="always">
      <stop
         id="stop1057-4"
         offset="0"
         style="stop-color:#cad9e5;stop-opacity:1" />
      <stop
         id="stop1059-7"
         offset="1"
         style="stop-color:#f3f6f9;stop-opacity:1" />
    </linearGradient>
    <linearGradient
       gradientTransform="matrix(1.15,0,0,1.15,665.16333,-738.82578)"
       gradientUnits="userSpaceOnUse"
       y2="1018.3658"
       x2="4.5961943"
       y1="1038.368"
       x1="4.5961943"
       id="linearGradient936"
       xlink:href="#linearGradient1055-1"
       inkscape:collect="always" />
  </defs>
  <sodipodi:namedview
     id="base"
     pagecolor="#ffffff"
     bordercolor="#666666"
     borderopacity="1.0"
     inkscape:pageopacity="0.0"
     inkscape:pageshadow="2"
     inkscape:zoom="7.9999996"
     inkscape:cx="8.9059673"
     inkscape:cy="25.496389"
     inkscape:document-units="px"
     inkscape:current-layer="layer1"
     showgrid="false"
     fit-margin-top="0"
     fit-margin-left="0"
     fit-margin-right="0"
     fit-margin-bottom="0"
     inkscape:window-width="1366"
     inkscape:window-height="714"
     inkscape:window-x="0"
     inkscape:window-y="30"
     inkscape:window-maximized="1"
     showguides="false" />
  <metadata
     id="metadata1244">
    <rdf:RDF>
      <cc:Work
         rdf:about="">
        <dc:format>image/svg+xml</dc:format>
        <dc:type
           rdf:resource="http://purl.org/dc/dcmitype/StillImage" />
        <dc:title />
      </cc:Work>
    </rdf:RDF>
  </metadata>
  <g
     inkscape:label="Capa 1"
     inkscape:groupmode="layer"
     id="layer1"
     transform="translate(-644.57142,-419.79076)">
    <rect
       transform="scale(1,-1)"
       ry="1.9445436"
       y="-467.79074"
       x="644.57141"
       height="48"
       width="48"
       id="rect1041"
       style="fill:url(#linearGradient1033-0);fill-opacity:1;stroke:none" />
    <path
       inkscape:connector-curvature="0"
       style="fill:url(#linearGradient928);fill-opacity:1.0;stroke:none"
       d="m 646.50882,419.79116 c -0.12436,0 -0.25741,0.009 -0.375,0.0312 -0.12681,0.0258 -0.2586,0.0759 -0.375,0.125 -0.1164,0.0491 -0.24033,0.11775 -0.34375,0.1875 -0.0685,0.046 -0.1255,0.10243 -0.1875,0.15625 -0.0358,0.0317 -0.0604,0.0595 -0.0937,0.0937 -0.0367,0.0377 -0.0915,0.0532 -0.125,0.0937 -0.0403,0.0487 -0.0583,0.10375 -0.0937,0.15625 -0.055,0.0779 -0.11357,0.16376 -0.15625,0.25 -0.0135,0.0282 -0.0191,0.0648 -0.0312,0.0937 -0.0486,0.11325 -0.0998,0.21913 -0.125,0.34375 -0.002,0.009 0.002,0.0217 0,0.0312 -0.0219,0.11759 -0.0312,0.25064 -0.0312,0.375 l 0,44.125 c 0,0.13466 0.005,0.24819 0.0312,0.375 0.0258,0.12681 0.0759,0.2586 0.125,0.375 0.0391,0.0944 0.10297,0.16445 0.15625,0.25 0.0286,0.0471 0.0301,0.1119 0.0625,0.15625 0.007,0.0122 0.0227,0.0201 0.0312,0.0312 0.0138,0.0173 0.0169,0.0457 0.0312,0.0625 0.039,0.0472 0.0817,0.0817 0.125,0.125 0.041,0.041 0.0778,0.086 0.125,0.125 0.0275,0.0226 0.065,0.0414 0.0937,0.0625 0.0194,0.0141 0.0426,0.0178 0.0625,0.0312 0.11041,0.0751 0.21874,0.13501 0.34375,0.1875 0.1164,0.0491 0.24819,0.0992 0.375,0.125 0.11759,0.0219 0.25064,0.0312 0.375,0.0312 l 40.375,0 0,-25.875 4.75,-1.46875 0,27.0625 c 0.5657,-0.33672 0.9375,-0.94436 0.9375,-1.65625 l 0,-25.6875 0,-2.59375 0,-15.84375 c 0,-1.07728 -0.86022,-1.9375 -1.9375,-1.9375 l -6.65625,0 L 646.50882,419.79116 Z"
       id="rect2991-1-9" />
    <g
       id="g1588"
       transform="translate(644.57142,-584.57144)">
      <g
         transform="translate(0.023437,8.6914063e-6)"
         id="g2708">
        <path
           inkscape:connector-curvature="0"
           style="fill:#ffffff;fill-opacity:0.5372549;stroke:none"
           d="m 2.5312499,1005.0185 c -0.9170885,0 -1.67114682,0.6395 -1.84375002,1.5 0.33561202,-0.2799 0.77451212,-0.4375 1.24999992,-0.4375 l 44.1250002,0 c 0.475488,0 0.914388,0.1576 1.25,0.4375 -0.172603,-0.8605 -0.926662,-1.5 -1.84375,-1.5 L 2.5312499,1005.0185 Z"
           id="path7515" />
        <path
           inkscape:connector-curvature="0"
           style="fill:#000000;fill-opacity:1;stroke:none"
           d="m 47.976563,1049.3622 0,1.0625 c 0,1.0773 -0.860223,1.9375 -1.9375,1.9375 l -44.1250005,0 c -1.077277,0 -1.9375,-0.8602 -1.9375,-1.9375 l 0,-1.0625 c 0,1.0773 0.860223,1.9375 1.9375,1.9375 l 44.1250005,0 C 47.11634,1051.2997 47.976563,1050.4395 47.976563,1049.3622 Z"
           id="rect846" />
      </g>
      <path
         id="rect4280"
         d="m 1.9375,1004.3622 c -1.077277,0 -1.9375,0.8602 -1.9375,1.9375 l 0,43.0625 c 0,0.7934 0.480024,1.449 1.15625,1.75 -0.309342,-0.3333 -0.5,-0.7824 -0.5,-1.2812 l 0,-42.9375 c 0,-1.0482 0.826899,-1.875 1.875,-1.875 l 42.9375,0 c 1.048101,0 1.875,0.8268 1.875,1.875 l 0,42.9375 c 0,0.4988 -0.190658,0.9479 -0.5,1.2812 0.676226,-0.301 1.15625,-0.9566 1.15625,-1.75 l 0,-43.0625 c 0,-1.0773 -0.860223,-1.9375 -1.9375,-1.9375 L 1.9375,1004.3622 Z"
         style="fill:#000000;fill-opacity:0.39215686;stroke:none"
         inkscape:connector-curvature="0" />
    </g>
    <g
       transform="translate(637.46088,421.87045)"
       id="layer2"
       inkscape:label="Capa 2" />
    <path
       inkscape:connector-curvature="0"
       id="path959"
       d="m 672.57645,433.84076 c -6.59959,0 -11.95503,5.35503 -11.95503,11.95502 0,6.59986 5.35577,11.94498 11.95503,11.94498 6.59894,0 11.94497,-5.34547 11.94497,-11.94498 C 684.52175,439.19579 679.17539,433.84076 672.57645,433.84076 z m -0.0805,1.26897 c 1.40938,-0.0125 2.75206,0.25406 3.98838,0.73528 l -0.71509,1.91356 -3.04163,2.6186 -0.38273,-0.38276 -0.24171,-0.70493 0.0906,-0.66478 0.38272,-0.9064 -0.22157,-1.51072 -0.78561,-0.10044 -0.11076,-0.21152 0.06,-0.27198 0.28202,-0.41287 0.14098,-0.0705 C 672.12533,435.12861 672.31056,435.11164 672.49589,435.10973 z m -1.26901,0.0908 -1.15825,0.75536 -0.59422,0.0203 0.45322,-0.30207 0.21151,-0.28202 C 670.4959,435.30989 670.85623,435.24716 671.22685,435.20043 z m -2.47764,0.69489 0.22157,0.0406 0.77553,0.44312 0.19136,0.0299 -0.31222,0.30223 -0.50359,-0.0705 -0.39278,-0.31225 L 668.74923,435.89532 z m -0.46329,0.10044 0.0503,0.0705 -0.13093,0.15105 -0.24173,0.10044 -0.21152,0.0203 -0.0503,-0.0611 C 667.89419,436.18069 668.08741,436.08079 668.28593,435.99606 z m 0.0503,0.88633 0.0805,0 0.0705,0.0299 0.0705,0.0607 -0.80573,1.50075 0.31224,0.28202 0.43308,-0.29206 0.10066,-1.3396 0.54388,-0.18128 -0.26186,0.43307 0.81579,-0.4633 0.282,0.0705 0.0302,0.13091 -0.52372,0.0908 0.98703,0.83593 0.37263,0.65462 -0.49352,0.54384 0.0805,0.0908 -0.35252,0.56404 -0.0906,-0.0115 -0.18128,0.10044 -0.84604,-0.52364 0.84604,-0.69502 -0.12088,-0.28202 -0.80571,-0.51361 -0.26187,0.7352 -1.75247,1.35963 -0.57408,0.85611 0.48343,0.55399 0.79565,0.36257 0.33238,0.30213 0.68488,-1.76254 0.26184,-0.26179 1.18847,0.57404 0.13092,-0.0203 0.96689,2.34674 -0.29207,0.11113 -0.35253,-0.0203 -0.12084,-0.16109 0.16113,-0.11113 0.0907,-0.12082 0.0202,-0.12093 -0.0503,-0.13097 -1.48051,0.41299 0.58413,0.43307 0.32229,0.0406 -2.24598,1.25893 -1.01721,1.48064 0,0.7754 -0.37264,-0.0801 -0.18132,-0.51361 -1.21866,-0.23171 -0.48342,0.27197 -0.41297,0.56404 -0.0805,0.3021 0.0503,0.36256 0.23165,0.25179 0.65466,-0.31213 0.2115,0.0203 0.78558,1.33959 2.61863,0.0908 1.11797,0.42303 0.90643,1.18842 1.54098,0.45327 0.54385,0.40283 -0.69493,2.246 -1.17839,0.86615 -1.31938,1.70215 c -0.76706,-0.23113 -1.4919,-0.55029 -2.17549,-0.93664 l -0.0403,-1.35967 -1.26901,-2.44748 0.0202,-0.48338 0.36258,-0.86626 -0.01,-0.58411 -0.3928,-0.44311 -2.92078,-1.28917 -0.97694,-1.65184 -0.26186,-0.10044 -0.01,0.0203 c -6.4e-4,-0.0354 0,-0.0669 0,-0.10045 -0.0216,-2.86189 1.08443,-5.46892 2.89054,-7.41269 l 0.33238,0.19144 1.83303,-0.38277 0.21152,-0.12081 0.0503,0.0908 -0.13094,0.2518 -0.0202,0.11113 1.27911,-1.78271 L 668.3363,436.88239 z m -0.79567,0.0299 0.15108,0.0813 -0.0606,0.29207 -0.20143,0.25177 -0.29204,-0.0502 0,-0.13085 L 667.54063,436.91251 z m -0.63452,0.11113 -0.0102,0.58424 -0.60431,0.64458 -0.77551,0.35253 -0.52372,-0.29218 0.0403,-0.0801 0.31224,-0.21152 -0.0606,-0.0611 c 0.33036,-0.30457 0.68067,-0.59511 1.04746,-0.85606 l 0.0503,0.0203 L 666.90613,437.02328 z m 12.52914,0.82599 0.33236,0.0203 c 0.39158,0.35169 0.76166,0.72358 1.09782,1.12808 l -0.14101,0.0502 0.39279,0.3928 0.0607,-0.0203 c 0.91663,1.21641 1.58947,2.62757 1.92368,4.16972 l -0.0202,0.0705 0.0603,0.12082 c 0.1289,0.65402 0.20477,1.33123 0.21153,2.02445 0.005,0.97583 -0.12634,1.91988 -0.36257,2.82008 l -0.0805,0.0502 0.0503,0.0609 c -0.66166,2.41271 -2.13719,4.49141 -4.11929,5.91203 l -1.45031,-4.88469 -0.76545,-0.22167 -1.7021,0.012 -1.02731,-0.60431 0.0605,-1.20862 1.37983,-2.69915 -0.0705,-0.5742 0.0705,-0.46318 0.89637,-0.35243 -0.0503,-0.25188 -0.17119,-0.28202 -0.01,-0.20148 2.07476,-1.53091 0,-0.29206 -0.7453,-0.57408 -0.0705,-0.27186 1.57121,-2.13523 L 679.43524,437.84927 z m -3.77689,1.2287 0.35253,0.0801 0.37265,-0.0801 0.17121,0.0609 -0.0907,0.2819 -0.30214,0.24175 -0.48345,-0.0502 -0.0403,-0.0908 L 675.65837,439.07797 z m -7.61414,0.17124 0.10074,0.0203 0.10074,0.15104 0.0907,0.27199 -0.141,0.0908 -0.44315,0 -0.0705,-0.0705 L 668.04421,439.24921 z m 11.51189,0.0203 -1.28918,2.09495 -0.34243,0.26177 0.63451,0.2418 1.59133,-1.33959 -0.11078,-0.0607 -0.52375,-0.0299 -0.22156,-0.19132 L 679.5561,439.26929 z m -3.72651,1.70215 0.72515,1.0776 -0.0302,0.34242 -0.48344,0.11114 -0.21163,-0.52379 L 675.8296,440.97144 z m -9.17526,1.67193 0,0.0299 -0.65466,0.30222 0.82586,-0.16121 L 666.65434,442.64337 z m 0.53378,0.40283 -0.12085,0.0299 -0.0805,0.0801 -0.0302,0.14101 0.10074,0.13087 0.0906,0.0299 0.0805,-0.0596 0.0604,-0.14101 0.0101,-0.0203 0.0403,-0.17127 L 667.18811,443.0462 z m -0.6345,0.0705 -0.13093,0.21151 -0.11078,0.42291 0.37265,-0.43306 0.0302,-0.14101 L 666.55362,443.11671 z m 14.79522,0.0705 -0.0503,0.15105 0.0607,0.0801 0.11078,0 0.10074,-0.0502 0.0403,-0.10044 -0.0202,0.0125 L 681.48,443.20977 681.34884,443.18721 z m -0.6345,0.0908 -0.22158,0.24175 -0.11078,0.3021 0.0907,0.1612 1.55104,0.14101 -0.0503,-0.17124 -1.01729,-0.65467 L 680.71435,443.27779 z m -2.54813,0.25179 0.0604,0.26194 0.50358,0.36257 0.0403,0.26182 -0.10074,0.17123 -0.0705,0.0502 -0.0907,0.0299 -0.47336,-0.74532 -0.71509,0 -1.49061,1.10788 1.9539,-0.0705 0.88627,0.80579 0.41297,0.14101 2.3467,-0.47334 0.0302,-0.46328 -1.61146,-0.43321 -0.17122,-0.20136 0.0403,0.47334 -0.0503,0.0299 -1.25895,-1.30936 -0.20144,0.0502 L 678.16621,443.52958 z m 3.21286,2.81004 1.28915,2.05457 -1.04742,-1.94377 L 681.37907,446.33962 z m -19.55913,0.0203 0.23166,0.39278 -0.01,0.19145 -0.21153,-0.4835 C 661.82809,446.42471 661.81994,446.39555 661.81994,446.3597 Z"
       style="fill:#ffffff;fill-opacity:0.23529412" />
    <path
       style="fill:#000000;fill-opacity:0.23529412"
       d="m 664.57645,429.84076 c -6.59959,0 -11.95503,5.35503 -11.95503,11.95502 0,6.59986 5.35577,11.94498 11.95503,11.94498 6.59894,0 11.94497,-5.34547 11.94497,-11.94498 C 676.52175,435.19579 671.17539,429.84076 664.57645,429.84076 z m -0.0805,1.26897 c 1.40938,-0.0125 2.75206,0.25406 3.98838,0.73528 l -0.71509,1.91356 -3.04163,2.6186 -0.38273,-0.38276 -0.24171,-0.70493 0.0906,-0.66478 0.38272,-0.9064 -0.22157,-1.51072 -0.78561,-0.10044 -0.11076,-0.21152 0.06,-0.27198 0.28202,-0.41287 0.14098,-0.0705 C 664.12533,431.12861 664.31056,431.11164 664.49589,431.10973 z m -1.26901,0.0908 -1.15825,0.75536 -0.59422,0.0203 0.45322,-0.30207 0.21151,-0.28202 C 662.4959,431.30989 662.85623,431.24716 663.22685,431.20043 z m -2.47764,0.69489 0.22157,0.0406 0.77553,0.44312 0.19136,0.0299 -0.31222,0.30223 -0.50359,-0.0705 -0.39278,-0.31225 L 660.74923,431.89532 z m -0.46329,0.10044 0.0503,0.0705 -0.13093,0.15105 -0.24173,0.10044 -0.21152,0.0203 -0.0503,-0.0611 C 659.89419,432.18069 660.08741,432.08079 660.28593,431.99606 z m 0.0503,0.88633 0.0805,0 0.0705,0.0299 0.0705,0.0607 -0.80573,1.50075 0.31224,0.28202 0.43308,-0.29206 0.10066,-1.3396 0.54388,-0.18128 -0.26186,0.43307 0.81579,-0.4633 0.282,0.0705 0.0302,0.13091 -0.52372,0.0908 0.98703,0.83593 0.37263,0.65462 -0.49352,0.54384 0.0805,0.0908 -0.35252,0.56404 -0.0906,-0.0115 -0.18128,0.10044 -0.84604,-0.52364 0.84604,-0.69502 -0.12088,-0.28202 -0.80571,-0.51361 -0.26187,0.7352 -1.75247,1.35963 -0.57408,0.85611 0.48343,0.55399 0.79565,0.36257 0.33238,0.30213 0.68488,-1.76254 0.26184,-0.26179 1.18847,0.57404 0.13092,-0.0203 0.96689,2.34674 -0.29207,0.11113 -0.35253,-0.0203 -0.12084,-0.16109 0.16113,-0.11113 0.0907,-0.12082 0.0202,-0.12093 -0.0503,-0.13097 -1.48051,0.41299 0.58413,0.43307 0.32229,0.0406 -2.24598,1.25893 -1.01721,1.48064 0,0.7754 -0.37264,-0.0801 -0.18132,-0.51361 -1.21866,-0.23171 -0.48342,0.27197 -0.41297,0.56404 -0.0805,0.3021 0.0503,0.36256 0.23165,0.25179 0.65466,-0.31213 0.2115,0.0203 0.78558,1.33959 2.61863,0.0908 1.11797,0.42303 0.90643,1.18842 1.54098,0.45327 0.54385,0.40283 -0.69493,2.246 -1.17839,0.86615 -1.31938,1.70215 c -0.76706,-0.23113 -1.4919,-0.55029 -2.17549,-0.93664 l -0.0403,-1.35967 -1.26901,-2.44748 0.0202,-0.48338 0.36258,-0.86626 -0.01,-0.58411 -0.3928,-0.44311 -2.92078,-1.28917 -0.97694,-1.65184 -0.26186,-0.10044 -0.01,0.0203 c -6.4e-4,-0.0354 0,-0.0669 0,-0.10045 -0.0216,-2.86189 1.08443,-5.46892 2.89054,-7.41269 l 0.33238,0.19144 1.83303,-0.38277 0.21152,-0.12081 0.0503,0.0908 -0.13094,0.2518 -0.0202,0.11113 1.27911,-1.78271 L 660.3363,432.88239 z m -0.79567,0.0299 0.15108,0.0813 -0.0606,0.29207 -0.20143,0.25177 -0.29204,-0.0502 0,-0.13085 L 659.54063,432.91251 z m -0.63452,0.11113 -0.0102,0.58424 -0.60431,0.64458 -0.77551,0.35253 -0.52372,-0.29218 0.0403,-0.0801 0.31224,-0.21152 -0.0606,-0.0611 c 0.33036,-0.30457 0.68067,-0.59511 1.04746,-0.85606 l 0.0503,0.0203 L 658.90613,433.02328 z m 12.52914,0.82599 0.33236,0.0203 c 0.39158,0.35169 0.76166,0.72358 1.09782,1.12808 l -0.14101,0.0502 0.39279,0.3928 0.0607,-0.0203 c 0.91663,1.21641 1.58947,2.62757 1.92368,4.16972 l -0.0202,0.0705 0.0603,0.12082 c 0.1289,0.65402 0.20477,1.33123 0.21153,2.02445 0.005,0.97583 -0.12634,1.91988 -0.36257,2.82008 l -0.0805,0.0502 0.0503,0.0609 c -0.66166,2.41271 -2.13719,4.49141 -4.11929,5.91203 l -1.45031,-4.88469 -0.76545,-0.22167 -1.7021,0.012 -1.02731,-0.60431 0.0605,-1.20862 1.37983,-2.69915 -0.0705,-0.5742 0.0705,-0.46318 0.89637,-0.35243 -0.0503,-0.25188 -0.17119,-0.28202 -0.01,-0.20148 2.07476,-1.53091 0,-0.29206 -0.7453,-0.57408 -0.0705,-0.27186 1.57121,-2.13523 L 671.43524,433.84927 z m -3.77689,1.2287 0.35253,0.0801 0.37265,-0.0801 0.17121,0.0609 -0.0907,0.2819 -0.30214,0.24175 -0.48345,-0.0502 -0.0403,-0.0908 L 667.65837,435.07797 z m -7.61414,0.17124 0.10074,0.0203 0.10074,0.15104 0.0907,0.27199 -0.141,0.0908 -0.44315,0 -0.0705,-0.0705 L 660.04421,435.24921 z m 11.51189,0.0203 -1.28918,2.09495 -0.34243,0.26177 0.63451,0.2418 1.59133,-1.33959 -0.11078,-0.0607 -0.52375,-0.0299 -0.22156,-0.19132 L 671.5561,435.26929 z m -3.72651,1.70215 0.72515,1.0776 -0.0302,0.34242 -0.48344,0.11114 -0.21163,-0.52379 L 667.8296,436.97144 z m -9.17526,1.67193 0,0.0299 -0.65466,0.30222 0.82586,-0.16121 L 658.65434,438.64337 z m 0.53378,0.40283 -0.12085,0.0299 -0.0805,0.0801 -0.0302,0.14101 0.10074,0.13087 0.0906,0.0299 0.0805,-0.0596 0.0604,-0.14101 0.0101,-0.0203 0.0403,-0.17127 L 659.18811,439.0462 z m -0.6345,0.0705 -0.13093,0.21151 -0.11078,0.42291 0.37265,-0.43306 0.0302,-0.14101 L 658.55362,439.11671 z m 14.79522,0.0705 -0.0503,0.15105 0.0607,0.0801 0.11078,0 0.10074,-0.0502 0.0403,-0.10044 -0.0202,0.0125 L 673.48,439.20977 673.34884,439.18721 z m -0.6345,0.0908 -0.22158,0.24175 -0.11078,0.3021 0.0907,0.1612 1.55104,0.14101 -0.0503,-0.17124 -1.01729,-0.65467 L 672.71435,439.27779 z m -2.54813,0.25179 0.0604,0.26194 0.50358,0.36257 0.0403,0.26182 -0.10074,0.17123 -0.0705,0.0502 -0.0907,0.0299 -0.47336,-0.74532 -0.71509,0 -1.49061,1.10788 1.9539,-0.0705 0.88627,0.80579 0.41297,0.14101 2.3467,-0.47334 0.0302,-0.46328 -1.61146,-0.43321 -0.17122,-0.20136 0.0403,0.47334 -0.0503,0.0299 -1.25895,-1.30936 -0.20144,0.0502 L 670.16621,439.52958 z m 3.21286,2.81004 1.28915,2.05457 -1.04742,-1.94377 L 673.37907,442.33962 z m -19.55913,0.0203 0.23166,0.39278 -0.01,0.19145 -0.21153,-0.4835 C 653.82809,442.42471 653.81994,442.39555 653.81994,442.3597 Z"
       id="path967"
       inkscape:connector-curvature="0" />
    <path
       style="fill:url(#linearGradient936);fill-opacity:1"
       d="m 668.57627,432.29076 c -6.3511,0 -11.50485,5.15334 -11.50485,11.50484 0,6.35128 5.15408,11.49516 11.50485,11.49516 6.35045,0 11.49515,-5.14414 11.49515,-11.49516 C 680.07175,437.4441 674.92672,432.29076 668.57627,432.29076 z m -0.0778,1.22118 c 1.35628,-0.0118 2.64838,0.24452 3.83817,0.70756 l -0.68818,1.84156 -2.92706,2.51996 -0.36833,-0.36836 -0.23262,-0.67838 0.087,-0.63976 0.36832,-0.8722 -0.2132,-1.45384 -0.75607,-0.0968 -0.10655,-0.2036 0.058,-0.26172 0.2714,-0.3973 0.13567,-0.0678 C 668.14216,433.5301 668.32037,433.51376 668.49877,433.51194 z m -1.22122,0.0872 -1.11469,0.72692 -0.57181,0.0194 0.43612,-0.29075 0.20359,-0.2714 C 666.57402,433.70454 666.92085,433.64424 667.27752,433.59922 z m -2.3844,0.6687 0.2133,0.0388 0.74627,0.42645 0.18416,0.029 -0.30043,0.29088 -0.48469,-0.0678 -0.37793,-0.30048 L 664.89314,434.26792 z m -0.44583,0.0968 0.0485,0.0678 -0.12598,0.14538 -0.23264,0.0968 -0.20355,0.0194 -0.0485,-0.0584 C 664.07032,434.54258 664.25625,434.44646 664.4473,434.36488 z m 0.0485,0.85294 0.0778,0 0.0678,0.029 0.0678,0.0583 -0.7754,1.44423 0.30054,0.2714 0.41679,-0.28108 0.097,-1.2892 0.52345,-0.17444 -0.25205,0.41678 0.7851,-0.44584 0.27138,0.0678 0.0293,0.12605 -0.50396,0.0872 0.94986,0.80443 0.35861,0.62996 -0.47498,0.52332 0.0778,0.0872 -0.33922,0.5428 -0.087,-0.0114 -0.17446,0.0968 -0.81418,-0.50393 0.81418,-0.66883 -0.11636,-0.2714 -0.77538,-0.49426 -0.25197,0.70753 -1.6865,1.30847 -0.55247,0.82379 0.46524,0.53321 0.76568,0.34888 0.31987,0.29075 0.6591,-1.69617 0.25198,-0.25193 1.14373,0.55239 0.12598,-0.0194 0.93046,2.25836 -0.28105,0.1069 -0.33927,-0.0194 -0.11627,-0.15506 0.15503,-0.1069 0.0871,-0.11632 0.0193,-0.11634 -0.0485,-0.12602 -1.42478,0.39742 0.56215,0.41678 0.31014,0.0388 -2.16138,1.2115 -0.97891,1.42489 0,0.74619 -0.35863,-0.0774 -0.1745,-0.49428 -1.17276,-0.223 -0.46521,0.26176 -0.39743,0.5428 -0.0778,0.29066 0.0485,0.34897 0.22292,0.24225 0.63,-0.30034 0.20358,0.0194 0.75597,1.28916 2.51999,0.0872 1.07589,0.4071 0.87228,1.14369 1.48296,0.43617 0.52339,0.38767 -0.66874,2.16144 -1.13402,0.83349 -1.2697,1.63806 c -0.73817,-0.22238 -1.43574,-0.52956 -2.09359,-0.90136 l -0.0385,-1.30846 -1.22122,-2.35532 0.0193,-0.4652 0.34899,-0.83359 -0.01,-0.56215 -0.37804,-0.42641 -2.8108,-1.24061 -0.94013,-1.58966 -0.25196,-0.0968 -0.01,0.0194 c -6.4e-4,-0.0343 0,-0.0642 0,-0.0968 -0.0207,-2.75415 1.04357,-5.26297 2.78172,-7.13358 l 0.3198,0.18423 1.76404,-0.36835 0.20355,-0.11624 0.0485,0.0872 -0.12599,0.2423 -0.0193,0.10695 1.23096,-1.71557 L 664.49578,435.21782 z m -0.7657,0.029 0.14541,0.0786 -0.0584,0.28108 -0.19386,0.24224 -0.28099,-0.0484 0,-0.1259 L 663.73008,435.24686 z m -0.61063,0.1069 -0.01,0.56228 -0.58155,0.62028 -0.74634,0.3393 -0.50401,-0.2812 0.0385,-0.0774 0.30051,-0.2036 -0.0583,-0.0584 c 0.31794,-0.29314 0.65503,-0.5727 1.00804,-0.82384 l 0.0485,0.0194 L 663.11943,435.3534 z m 12.05732,0.79494 0.31985,0.0194 c 0.37682,0.33846 0.73295,0.6964 1.05651,1.0856 l -0.1357,0.0484 0.37794,0.37804 0.0583,-0.0194 c 0.88213,1.17061 1.52962,2.52866 1.85123,4.01276 l -0.0193,0.0678 0.0578,0.11632 c 0.12407,0.62936 0.1971,1.2811 0.20359,1.94822 0.005,0.93902 -0.12157,1.84752 -0.34891,2.71388 l -0.0778,0.0484 0.0485,0.0582 c -0.63673,2.3219 -2.05668,4.3223 -3.96413,5.68946 l -1.39568,-4.70082 -0.73665,-0.2133 -1.63802,0.0118 -0.98861,-0.58154 0.0582,-1.16308 1.32781,-2.59754 -0.0678,-0.5526 0.0678,-0.44572 0.86262,-0.33921 -0.0485,-0.24233 -0.16473,-0.2714 -0.01,-0.19392 1.99664,-1.47322 0,-0.28108 -0.71722,-0.55248 -0.0678,-0.2616 1.51203,-2.05486 L 675.17676,436.14834 z m -3.63467,1.18244 0.33928,0.0774 0.35861,-0.0774 0.16473,0.0582 -0.0871,0.27128 -0.29071,0.23266 -0.46527,-0.0484 -0.0385,-0.0872 L 671.54209,437.33078 z m -7.32742,0.16476 0.0971,0.0194 0.0971,0.14528 0.0871,0.26182 -0.13569,0.0872 -0.4265,0 -0.0678,-0.0678 L 664.21467,437.49554 z m 11.07845,0.0194 -1.24067,2.01602 -0.32956,0.25197 0.61066,0.23261 1.53139,-1.2891 -0.10664,-0.0587 -0.50402,-0.029 -0.21321,-0.18412 L 675.29312,437.5149 z m -3.5862,1.63798 0.69779,1.03711 -0.0293,0.32945 -0.46526,0.107 -0.20356,-0.50406 L 671.70693,439.15288 z m -8.82975,1.60902 0,0.029 -0.63,0.29088 0.79472,-0.15518 L 662.87718,440.7619 z m 0.51366,0.38762 -0.1163,0.029 -0.0778,0.0774 -0.0293,0.1357 0.0971,0.12592 0.087,0.029 0.0778,-0.0574 0.0579,-0.1357 0.01,-0.0194 0.0385,-0.16479 L 663.39079,441.14952 z m -0.6106,0.0678 -0.12598,0.2035 -0.10664,0.40698 0.35861,-0.41668 0.0293,-0.1357 L 662.78024,441.21742 z m 14.23808,0.0678 -0.0485,0.14538 0.058,0.0774 0.10664,0 0.0971,-0.0484 0.0385,-0.0968 -0.0193,0.0116 -0.10654,-0.0678 L 677.01827,441.28522 z m -0.61061,0.0872 -0.21321,0.23266 -0.10664,0.29076 0.0871,0.15508 1.49263,0.1357 -0.0485,-0.16476 -0.97889,-0.62996 L 676.40772,441.37238 z m -2.45219,0.24234 0.0583,0.25204 0.48459,0.34898 0.0385,0.25192 -0.0971,0.16482 -0.0678,0.0484 -0.0871,0.029 -0.45554,-0.71724 -0.68818,0 -1.43445,1.06612 1.88028,-0.0678 0.85295,0.77546 0.39742,0.1357 2.25832,-0.45552 0.0293,-0.44591 -1.5508,-0.41683 -0.16474,-0.1938 0.0385,0.45552 -0.0485,0.029 -1.21152,-1.26004 -0.19388,0.0484 L 673.95552,441.61472 z m 3.0919,2.7042 1.24057,1.97726 -1.00793,-1.87062 L 677.04742,444.31892 z m -18.82256,0.0194 0.22292,0.37797 -0.01,0.18421 -0.20358,-0.46522 C 658.23264,444.40086 658.22485,444.37278 658.22485,444.33828 Z"
       id="polygon749"
       inkscape:connector-curvature="0" />
  </g>
</svg>
