<?xml version="1.0" encoding="UTF-8" standalone="no"?>
<!-- Created with Inkscape (http://www.inkscape.org/) -->

<svg
   xmlns:dc="http://purl.org/dc/elements/1.1/"
   xmlns:cc="http://creativecommons.org/ns#"
   xmlns:rdf="http://www.w3.org/1999/02/22-rdf-syntax-ns#"
   xmlns:svg="http://www.w3.org/2000/svg"
   xmlns="http://www.w3.org/2000/svg"
   xmlns:xlink="http://www.w3.org/1999/xlink"
   xmlns:sodipodi="http://sodipodi.sourceforge.net/DTD/sodipodi-0.dtd"
   xmlns:inkscape="http://www.inkscape.org/namespaces/inkscape"
   width="48"
   height="48"
   id="svg1239"
   version="1.1"
   inkscape:version="0.48+devel r12353"
   sodipodi:docname="application-x-gnome-saved-search.svg">
  <defs
     id="defs1241">
    <linearGradient
       inkscape:collect="always"
       xlink:href="#linearGradient1035-5"
       id="linearGradient1033-0"
       x1="23.875"
       y1="-1052.4872"
       x2="23.875"
       y2="-1004.4247"
       gradientUnits="userSpaceOnUse"
       gradientTransform="translate(644.57142,584.57143)" />
    <linearGradient
       id="linearGradient1035-5"
       inkscape:collect="always">
      <stop
         id="stop1037-0"
         offset="0"
         style="stop-color:#ffffff;stop-opacity:1" />
      <stop
         id="stop1039-8"
         offset="1"
         style="stop-color:#ececec;stop-opacity:1" />
    </linearGradient>
    <linearGradient
       y2="-1026.1804"
       x2="1.2499999"
       y1="-1026.1804"
       x1="48.5"
       gradientTransform="matrix(0,1,0.63020833,0,1307.7788,419.79116)"
       gradientUnits="userSpaceOnUse"
       id="linearGradient928"
       xlink:href="#linearGradient2476-8"
       inkscape:collect="always" />
    <linearGradient
       gradientUnits="userSpaceOnUse"
       y2="1018.3622"
       x2="27.687502"
       y1="1038.3622"
       x1="27.687502"
       id="linearGradient1034"
       xlink:href="#linearGradient1055"
       inkscape:collect="always"
       gradientTransform="matrix(1.1500033,0,0,1.1500033,640.97134,-738.82909)" />
    <linearGradient
       id="linearGradient2476-8"
       inkscape:collect="always">
      <stop
         id="stop2478-5"
         offset="0"
         style="stop-color:#2c2525;stop-opacity:1" />
      <stop
         id="stop2480-8"
         offset="1"
         style="stop-color:#3f3535;stop-opacity:1" />
    </linearGradient>
    <linearGradient
       id="linearGradient1055"
       inkscape:collect="always">
      <stop
         id="stop1057"
         offset="0"
         style="stop-color:#cad9e5;stop-opacity:1" />
      <stop
         id="stop1059"
         offset="1"
         style="stop-color:#f3f6f9;stop-opacity:1" />
    </linearGradient>
  </defs>
  <sodipodi:namedview
     id="base"
     pagecolor="#ffffff"
     bordercolor="#666666"
     borderopacity="1.0"
     inkscape:pageopacity="0.0"
     inkscape:pageshadow="2"
     inkscape:zoom="3.9999998"
     inkscape:cx="37.826906"
     inkscape:cy="24.940217"
     inkscape:document-units="px"
     inkscape:current-layer="layer1"
     showgrid="false"
     fit-margin-top="0"
     fit-margin-left="0"
     fit-margin-right="0"
     fit-margin-bottom="0"
     inkscape:window-width="1366"
     inkscape:window-height="714"
     inkscape:window-x="0"
     inkscape:window-y="30"
     inkscape:window-maximized="1"
     showguides="false" />
  <metadata
     id="metadata1244">
    <rdf:RDF>
      <cc:Work
         rdf:about="">
        <dc:format>image/svg+xml</dc:format>
        <dc:type
           rdf:resource="http://purl.org/dc/dcmitype/StillImage" />
        <dc:title />
      </cc:Work>
    </rdf:RDF>
  </metadata>
  <g
     inkscape:label="Capa 1"
     inkscape:groupmode="layer"
     id="layer1"
     transform="translate(-644.57142,-419.79076)">
    <rect
       transform="scale(1,-1)"
       ry="1.9445436"
       y="-467.79074"
       x="644.57141"
       height="48"
       width="48"
       id="rect1041"
       style="fill:url(#linearGradient1033-0);fill-opacity:1;stroke:none" />
    <path
       inkscape:connector-curvature="0"
       style="fill:url(#linearGradient928);fill-opacity:1.0;stroke:none"
       d="m 646.50882,419.79116 c -0.12436,0 -0.25741,0.009 -0.375,0.0312 -0.12681,0.0258 -0.2586,0.0759 -0.375,0.125 -0.1164,0.0491 -0.24033,0.11775 -0.34375,0.1875 -0.0685,0.046 -0.1255,0.10243 -0.1875,0.15625 -0.0358,0.0317 -0.0604,0.0595 -0.0937,0.0937 -0.0367,0.0377 -0.0915,0.0532 -0.125,0.0937 -0.0403,0.0487 -0.0583,0.10375 -0.0937,0.15625 -0.055,0.0779 -0.11357,0.16376 -0.15625,0.25 -0.0135,0.0282 -0.0191,0.0648 -0.0312,0.0937 -0.0486,0.11325 -0.0998,0.21913 -0.125,0.34375 -0.002,0.009 0.002,0.0217 0,0.0312 -0.0219,0.11759 -0.0312,0.25064 -0.0312,0.375 l 0,44.125 c 0,0.13466 0.005,0.24819 0.0312,0.375 0.0258,0.12681 0.0759,0.2586 0.125,0.375 0.0391,0.0944 0.10297,0.16445 0.15625,0.25 0.0286,0.0471 0.0301,0.1119 0.0625,0.15625 0.007,0.0122 0.0227,0.0201 0.0312,0.0312 0.0138,0.0173 0.0169,0.0457 0.0312,0.0625 0.039,0.0472 0.0817,0.0817 0.125,0.125 0.041,0.041 0.0778,0.086 0.125,0.125 0.0275,0.0226 0.065,0.0414 0.0937,0.0625 0.0194,0.0141 0.0426,0.0178 0.0625,0.0312 0.11041,0.0751 0.21874,0.13501 0.34375,0.1875 0.1164,0.0491 0.24819,0.0992 0.375,0.125 0.11759,0.0219 0.25064,0.0312 0.375,0.0312 l 40.375,0 0,-25.875 4.75,-1.46875 0,27.0625 c 0.5657,-0.33672 0.9375,-0.94436 0.9375,-1.65625 l 0,-25.6875 0,-2.59375 0,-15.84375 c 0,-1.07728 -0.86022,-1.9375 -1.9375,-1.9375 l -6.65625,0 L 646.50882,419.79116 Z"
       id="rect2991-1" />
    <g
       id="g1588"
       transform="translate(644.57142,-584.57144)">
      <g
         transform="translate(0.023437,8.6914063e-6)"
         id="g2708">
        <path
           inkscape:connector-curvature="0"
           style="fill:#ffffff;fill-opacity:0.5372549;stroke:none"
           d="m 2.5312499,1005.0185 c -0.9170885,0 -1.67114682,0.6395 -1.84375002,1.5 0.33561202,-0.2799 0.77451212,-0.4375 1.24999992,-0.4375 l 44.1250002,0 c 0.475488,0 0.914388,0.1576 1.25,0.4375 -0.172603,-0.8605 -0.926662,-1.5 -1.84375,-1.5 L 2.5312499,1005.0185 Z"
           id="path7515" />
        <path
           inkscape:connector-curvature="0"
           style="fill:#000000;fill-opacity:1;stroke:none"
           d="m 47.976563,1049.3622 0,1.0625 c 0,1.0773 -0.860223,1.9375 -1.9375,1.9375 l -44.1250005,0 c -1.077277,0 -1.9375,-0.8602 -1.9375,-1.9375 l 0,-1.0625 c 0,1.0773 0.860223,1.9375 1.9375,1.9375 l 44.1250005,0 C 47.11634,1051.2997 47.976563,1050.4395 47.976563,1049.3622 Z"
           id="rect846" />
      </g>
      <path
         id="rect4280"
         d="m 1.9375,1004.3622 c -1.077277,0 -1.9375,0.8602 -1.9375,1.9375 l 0,43.0625 c 0,0.7934 0.480024,1.449 1.15625,1.75 -0.309342,-0.3333 -0.5,-0.7824 -0.5,-1.2812 l 0,-42.9375 c 0,-1.0482 0.826899,-1.875 1.875,-1.875 l 42.9375,0 c 1.048101,0 1.875,0.8268 1.875,1.875 l 0,42.9375 c 0,0.4988 -0.190658,0.9479 -0.5,1.2812 0.676226,-0.301 1.15625,-0.9566 1.15625,-1.75 l 0,-43.0625 c 0,-1.0773 -0.860223,-1.9375 -1.9375,-1.9375 L 1.9375,1004.3622 Z"
         style="fill:#000000;fill-opacity:0.39215686;stroke:none"
         inkscape:connector-curvature="0" />
    </g>
    <path
       inkscape:connector-curvature="0"
       id="path839"
       d="m 661.26902,430.65694 c 1.00394,-0.54552 2.16476,-0.86616 3.38765,-0.86616 3.91322,0 7.07723,3.1926 7.07723,7.10556 0,2.12508 -0.93461,4.01124 -2.41242,5.31024 l 1.3901,2.40756 c 0.48543,-0.18972 1.06192,0 1.33084,0.4686 l 3.39239,5.87582 c 0.29674,0.51384 0.12187,1.16664 -0.39214,1.4634 l -2.12054,1.22448 c -0.51401,0.29652 -1.16664,0.12156 -1.4634,-0.39216 l -3.39236,-5.87594 c -0.27201,-0.47088 -0.15892,-1.06356 0.25958,-1.3866 l -1.3901,-2.40816 c -0.71555,0.24432 -1.47396,0.3996 -2.27294,0.3996 -3.91325,0 -7.09934,-3.17988 -7.09934,-7.09308 C 657.56357,434.19958 659.06029,431.8567 661.26902,430.65694 z m 1.18013,2.14572 c -1.44557,0.78576 -2.44002,2.32824 -2.44002,4.08936 0,2.56092 2.08165,4.62348 4.64279,4.62348 2.56112,0 4.63642,-2.0598 4.63642,-4.62084 0,-2.56104 -2.05958,-4.63644 -4.62069,-4.63644 C 663.8673,432.25822 663.10622,432.44602 662.44915,432.80266 Z"
       style="fill:#000000;fill-opacity:0.23529412;stroke:none" />
    <path
       inkscape:connector-curvature="0"
       id="path843"
       d="m 665.26902,434.65694 c 1.00394,-0.54552 2.16476,-0.86616 3.38765,-0.86616 3.91322,0 7.07723,3.1926 7.07723,7.10556 0,2.12508 -0.93461,4.01124 -2.41242,5.31024 l 1.3901,2.40756 c 0.48543,-0.18972 1.06192,0 1.33084,0.4686 l 3.39239,5.87582 c 0.29674,0.51384 0.12187,1.16664 -0.39214,1.4634 l -2.12054,1.22448 c -0.51401,0.29652 -1.16664,0.12156 -1.4634,-0.39216 l -3.39236,-5.87594 c -0.27201,-0.47088 -0.15892,-1.06356 0.25958,-1.3866 l -1.3901,-2.40816 c -0.71555,0.24432 -1.47396,0.3996 -2.27294,0.3996 -3.91325,0 -7.09934,-3.17988 -7.09934,-7.09308 C 661.56357,438.19958 663.06029,435.8567 665.26902,434.65694 z m 1.18013,2.14572 c -1.44557,0.78576 -2.44002,2.32824 -2.44002,4.08936 0,2.56092 2.08165,4.62348 4.64279,4.62348 2.56112,0 4.63642,-2.0598 4.63642,-4.62084 0,-2.56104 -2.05958,-4.63644 -4.62069,-4.63644 C 667.8673,436.25822 667.10622,436.44602 666.44915,436.80266 Z"
       style="fill:#ffffff;fill-opacity:0.23529412;stroke:none" />
    <g
       inkscape:label="Capa 2"
       id="layer2-8"
       transform="translate(517.07142,419.79076)" />
    <g
       transform="translate(619.18286,419.79076)"
       id="layer2"
       inkscape:label="Capa 2" />
    <path
       style="fill:url(#linearGradient1034);fill-opacity:1;stroke:none"
       d="m 663.48994,433.12084 c 0.96212,-0.5228 2.07456,-0.83008 3.24648,-0.83008 3.7502,0 6.78238,3.05959 6.78238,6.80952 0,2.03654 -0.89566,3.84411 -2.3119,5.08899 l 1.33219,2.30725 c 0.46518,-0.18181 1.01766,0 1.27537,0.44908 l 3.25105,5.63099 c 0.28437,0.49243 0.11681,1.11803 -0.3758,1.40243 l -2.0322,1.17346 c -0.49257,0.28417 -1.11802,0.1165 -1.40242,-0.37582 l -3.25101,-5.6311 c -0.26067,-0.45127 -0.15231,-1.01925 0.24877,-1.32883 l -1.33219,-2.30783 c -0.68574,0.23414 -1.41255,0.38295 -2.17825,0.38295 -3.75019,0 -6.80353,-3.04739 -6.80353,-6.79755 C 659.93888,436.51588 661.37323,434.27061 663.48994,433.12084 z m 1.13095,2.05632 c -1.38533,0.75302 -2.33835,2.23123 -2.33835,3.91898 0,2.45422 1.99492,4.43085 4.44935,4.43085 2.45441,0 4.44323,-1.97399 4.44323,-4.42832 0,-2.45434 -1.97376,-4.44327 -4.42815,-4.44327 C 665.97995,434.6554 665.2506,434.83538 664.62089,435.17716 Z"
       id="rect3910-7"
       inkscape:connector-curvature="0" />
  </g>
</svg>
