<?xml version="1.0" encoding="UTF-8" standalone="no"?>
<!-- Created with Inkscape (http://www.inkscape.org/) -->

<svg
   xmlns:dc="http://purl.org/dc/elements/1.1/"
   xmlns:cc="http://creativecommons.org/ns#"
   xmlns:rdf="http://www.w3.org/1999/02/22-rdf-syntax-ns#"
   xmlns:svg="http://www.w3.org/2000/svg"
   xmlns="http://www.w3.org/2000/svg"
   xmlns:xlink="http://www.w3.org/1999/xlink"
   xmlns:sodipodi="http://sodipodi.sourceforge.net/DTD/sodipodi-0.dtd"
   xmlns:inkscape="http://www.inkscape.org/namespaces/inkscape"
   width="48"
   height="48"
   id="svg1239"
   version="1.1"
   inkscape:version="0.48+devel r12353"
   sodipodi:docname="folder-publicshare.svg">
  <defs
     id="defs1241">
    <linearGradient
       inkscape:collect="always"
       xlink:href="#linearGradient1035-5"
       id="linearGradient1033-0"
       x1="23.875"
       y1="-1052.4872"
       x2="23.875"
       y2="-1004.4247"
       gradientUnits="userSpaceOnUse"
       gradientTransform="translate(644.57142,584.57143)" />
    <linearGradient
       id="linearGradient1035-5"
       inkscape:collect="always">
      <stop
         id="stop1037-0"
         offset="0"
         style="stop-color:#ffffff;stop-opacity:1" />
      <stop
         id="stop1039-8"
         offset="1"
         style="stop-color:#ececec;stop-opacity:1" />
    </linearGradient>
    <linearGradient
       gradientUnits="userSpaceOnUse"
       y2="1018.3598"
       x2="24.748737"
       y1="1038.3527"
       x1="24.748737"
       id="linearGradient1124"
       xlink:href="#linearGradient1055"
       inkscape:collect="always"
       gradientTransform="matrix(1.15,0,0,1.15,640.97142,-738.82577)" />
    <linearGradient
       y2="-1026.1804"
       x2="1.2499999"
       y1="-1026.1804"
       x1="48.5"
       gradientTransform="matrix(0,1,0.63020833,0,1307.7788,419.79116)"
       gradientUnits="userSpaceOnUse"
       id="linearGradient928"
       xlink:href="#linearGradient2476-4"
       inkscape:collect="always" />
    <linearGradient
       inkscape:collect="always"
       id="linearGradient2476-4">
      <stop
         style="stop-color:#2c2525;stop-opacity:1"
         offset="0"
         id="stop2478-4" />
      <stop
         style="stop-color:#3f3535;stop-opacity:1"
         offset="1"
         id="stop2480-0" />
    </linearGradient>
    <linearGradient
       inkscape:collect="always"
       id="linearGradient1055">
      <stop
         style="stop-color:#cad9e5;stop-opacity:1"
         offset="0"
         id="stop1057" />
      <stop
         style="stop-color:#f3f6f9;stop-opacity:1"
         offset="1"
         id="stop1059" />
    </linearGradient>
  </defs>
  <sodipodi:namedview
     id="base"
     pagecolor="#ffffff"
     bordercolor="#666666"
     borderopacity="1.0"
     inkscape:pageopacity="0.0"
     inkscape:pageshadow="2"
     inkscape:zoom="7.9999996"
     inkscape:cx="14.597639"
     inkscape:cy="32.140949"
     inkscape:document-units="px"
     inkscape:current-layer="layer1"
     showgrid="false"
     fit-margin-top="0"
     fit-margin-left="0"
     fit-margin-right="0"
     fit-margin-bottom="0"
     inkscape:window-width="1366"
     inkscape:window-height="714"
     inkscape:window-x="0"
     inkscape:window-y="30"
     inkscape:window-maximized="1"
     showguides="false" />
  <metadata
     id="metadata1244">
    <rdf:RDF>
      <cc:Work
         rdf:about="">
        <dc:format>image/svg+xml</dc:format>
        <dc:type
           rdf:resource="http://purl.org/dc/dcmitype/StillImage" />
        <dc:title />
      </cc:Work>
    </rdf:RDF>
  </metadata>
  <g
     inkscape:label="Capa 1"
     inkscape:groupmode="layer"
     id="layer1"
     transform="translate(-644.57142,-419.79076)">
    <rect
       transform="scale(1,-1)"
       ry="1.9445436"
       y="-467.79074"
       x="644.57141"
       height="48"
       width="48"
       id="rect1041"
       style="fill:url(#linearGradient1033-0);fill-opacity:1;stroke:none" />
    <path
       inkscape:connector-curvature="0"
       style="fill:url(#linearGradient928);fill-opacity:1.0;stroke:none"
       d="m 646.50882,419.79116 c -0.12436,0 -0.25741,0.009 -0.375,0.0312 -0.12681,0.0258 -0.2586,0.0759 -0.375,0.125 -0.1164,0.0491 -0.24033,0.11775 -0.34375,0.1875 -0.0685,0.046 -0.1255,0.10243 -0.1875,0.15625 -0.0358,0.0317 -0.0604,0.0595 -0.0937,0.0937 -0.0367,0.0377 -0.0915,0.0532 -0.125,0.0937 -0.0403,0.0487 -0.0583,0.10375 -0.0937,0.15625 -0.055,0.0779 -0.11357,0.16376 -0.15625,0.25 -0.0135,0.0282 -0.0191,0.0648 -0.0312,0.0937 -0.0486,0.11325 -0.0998,0.21913 -0.125,0.34375 -0.002,0.009 0.002,0.0217 0,0.0312 -0.0219,0.11759 -0.0312,0.25064 -0.0312,0.375 l 0,44.125 c 0,0.13466 0.005,0.24819 0.0312,0.375 0.0258,0.12681 0.0759,0.2586 0.125,0.375 0.0391,0.0944 0.10297,0.16445 0.15625,0.25 0.0286,0.0471 0.0301,0.1119 0.0625,0.15625 0.007,0.0122 0.0227,0.0201 0.0312,0.0312 0.0138,0.0173 0.0169,0.0457 0.0312,0.0625 0.039,0.0472 0.0817,0.0817 0.125,0.125 0.041,0.041 0.0778,0.086 0.125,0.125 0.0275,0.0226 0.065,0.0414 0.0937,0.0625 0.0194,0.0141 0.0426,0.0178 0.0625,0.0312 0.11041,0.0751 0.21874,0.13501 0.34375,0.1875 0.1164,0.0491 0.24819,0.0992 0.375,0.125 0.11759,0.0219 0.25064,0.0312 0.375,0.0312 l 40.375,0 0,-25.875 4.75,-1.46875 0,27.0625 c 0.5657,-0.33672 0.9375,-0.94436 0.9375,-1.65625 l 0,-25.6875 0,-2.59375 0,-15.84375 c 0,-1.07728 -0.86022,-1.9375 -1.9375,-1.9375 l -6.65625,0 L 646.50882,419.79116 Z"
       id="rect2991-1" />
    <g
       id="g1588"
       transform="translate(644.57142,-584.57144)">
      <g
         transform="translate(0.023437,8.6914063e-6)"
         id="g2708">
        <path
           inkscape:connector-curvature="0"
           style="fill:#ffffff;fill-opacity:0.5372549;stroke:none"
           d="m 2.5312499,1005.0185 c -0.9170885,0 -1.67114682,0.6395 -1.84375002,1.5 0.33561202,-0.2799 0.77451212,-0.4375 1.24999992,-0.4375 l 44.1250002,0 c 0.475488,0 0.914388,0.1576 1.25,0.4375 -0.172603,-0.8605 -0.926662,-1.5 -1.84375,-1.5 L 2.5312499,1005.0185 Z"
           id="path7515" />
        <path
           inkscape:connector-curvature="0"
           style="fill:#000000;fill-opacity:1;stroke:none"
           d="m 47.976563,1049.3622 0,1.0625 c 0,1.0773 -0.860223,1.9375 -1.9375,1.9375 l -44.1250005,0 c -1.077277,0 -1.9375,-0.8602 -1.9375,-1.9375 l 0,-1.0625 c 0,1.0773 0.860223,1.9375 1.9375,1.9375 l 44.1250005,0 C 47.11634,1051.2997 47.976563,1050.4395 47.976563,1049.3622 Z"
           id="rect846" />
      </g>
      <path
         id="rect4280"
         d="m 1.9375,1004.3622 c -1.077277,0 -1.9375,0.8602 -1.9375,1.9375 l 0,43.0625 c 0,0.7934 0.480024,1.449 1.15625,1.75 -0.309342,-0.3333 -0.5,-0.7824 -0.5,-1.2812 l 0,-42.9375 c 0,-1.0482 0.826899,-1.875 1.875,-1.875 l 42.9375,0 c 1.048101,0 1.875,0.8268 1.875,1.875 l 0,42.9375 c 0,0.4988 -0.190658,0.9479 -0.5,1.2812 0.676226,-0.301 1.15625,-0.9566 1.15625,-1.75 l 0,-43.0625 c 0,-1.0773 -0.860223,-1.9375 -1.9375,-1.9375 L 1.9375,1004.3622 Z"
         style="fill:#000000;fill-opacity:0.39215686;stroke:none"
         inkscape:connector-curvature="0" />
    </g>
    <path
       style="fill:#000000;fill-opacity:0.23529412;stroke:none"
       d="m 660.13176,429.79076 c -1.94933,0 -3.51723,1.56792 -3.51723,3.5172 0,1.94928 1.5679,3.51732 3.51723,3.51732 l 2.89656,10.81044 c -0.73031,0.6432 -1.18966,1.58292 -1.18966,2.63784 0,1.94928 1.5679,3.5172 3.51725,3.5172 1.94933,0 3.51723,-1.56792 3.51723,-3.5172 0,-0.97476 -0.39575,-1.84404 -1.03449,-2.4828 l 4.39656,-7.60332 c 0.24468,0.0528 0.51506,0.1032 0.77587,0.1032 1.94933,0 3.51723,-1.61976 3.51723,-3.56904 0,-1.94928 -1.5679,-3.51732 -3.51723,-3.51732 -1.94936,0 -3.51726,1.56804 -3.51726,3.51732 0,0.9102 0.31364,1.75332 0.87932,2.37924 l -4.44827,7.707 c -0.18344,-0.03 -0.37726,-0.0516 -0.56896,-0.0516 -0.10397,0 -0.20879,-0.0168 -0.31036,0 l -2.84481,-10.55172 c 0.90581,-0.639 1.5,-1.70388 1.5,-2.89656 C 663.70074,431.35868 662.08112,429.79076 660.13176,429.79076 Z"
       id="path968"
       inkscape:connector-curvature="0" />
    <path
       inkscape:connector-curvature="0"
       id="path972"
       d="m 664.13176,433.79076 c -1.94933,0 -3.51723,1.56792 -3.51723,3.5172 0,1.94928 1.5679,3.51732 3.51723,3.51732 l 2.89656,10.81044 c -0.73031,0.6432 -1.18966,1.58292 -1.18966,2.63784 0,1.94928 1.5679,3.5172 3.51725,3.5172 1.94933,0 3.51723,-1.56792 3.51723,-3.5172 0,-0.97476 -0.39575,-1.84404 -1.03449,-2.4828 l 4.39656,-7.60332 c 0.24468,0.0528 0.51506,0.1032 0.77587,0.1032 1.94933,0 3.51723,-1.61976 3.51723,-3.56904 0,-1.94928 -1.5679,-3.51732 -3.51723,-3.51732 -1.94936,0 -3.51726,1.56804 -3.51726,3.51732 0,0.9102 0.31364,1.75332 0.87932,2.37924 l -4.44827,7.707 c -0.18344,-0.03 -0.37726,-0.0516 -0.56896,-0.0516 -0.10397,0 -0.20879,-0.0168 -0.31036,0 l -2.84481,-10.55172 c 0.90581,-0.639 1.5,-1.70388 1.5,-2.89656 C 667.70074,435.35868 666.08112,433.79076 664.13176,433.79076 Z"
       style="fill:#ffffff;fill-opacity:0.23529412;stroke:none" />
    <path
       inkscape:connector-curvature="0"
       id="path815"
       d="m 662.40008,432.29076 c -1.86811,0 -3.37068,1.50259 -3.37068,3.37065 0,1.86806 1.50257,3.37076 3.37068,3.37076 l 2.77587,10.36001 c -0.69988,0.6164 -1.14009,1.51696 -1.14009,2.52793 0,1.86806 1.50257,3.37065 3.3707,3.37065 1.8681,0 3.37067,-1.50259 3.37067,-3.37065 0,-0.93415 -0.37926,-1.76721 -0.99138,-2.37935 l 4.21337,-7.28652 c 0.23448,0.0506 0.4936,0.0989 0.74354,0.0989 1.86811,0 3.37068,-1.55227 3.37068,-3.42033 0,-1.86806 -1.50257,-3.37076 -3.37068,-3.37076 -1.86814,0 -3.37071,1.5027 -3.37071,3.37076 0,0.87228 0.30057,1.68027 0.84268,2.28011 l -4.26292,7.38587 c -0.1758,-0.0288 -0.36154,-0.0495 -0.54525,-0.0495 -0.0996,0 -0.20009,-0.0161 -0.29743,0 l -2.72628,-10.11206 c 0.86807,-0.61238 1.4375,-1.63289 1.4375,-2.77587 C 665.82035,433.79335 664.26822,432.29076 662.40008,432.29076 Z"
       style="fill:url(#linearGradient1124);fill-opacity:1.0;stroke:none" />
  </g>
</svg>
