<?xml version="1.0" encoding="UTF-8" standalone="no"?>
<!-- Created with Inkscape (http://www.inkscape.org/) -->

<svg
   xmlns:dc="http://purl.org/dc/elements/1.1/"
   xmlns:cc="http://creativecommons.org/ns#"
   xmlns:rdf="http://www.w3.org/1999/02/22-rdf-syntax-ns#"
   xmlns:svg="http://www.w3.org/2000/svg"
   xmlns="http://www.w3.org/2000/svg"
   xmlns:sodipodi="http://sodipodi.sourceforge.net/DTD/sodipodi-0.dtd"
   xmlns:inkscape="http://www.inkscape.org/namespaces/inkscape"
   width="48"
   height="48"
   id="svg3048"
   version="1.1"
   inkscape:version="0.48+devel r12388"
   sodipodi:docname="applications-chat-panel.svg">
  <defs
     id="defs3050" />
  <sodipodi:namedview
     id="base"
     pagecolor="#ffffff"
     bordercolor="#666666"
     borderopacity="1.0"
     inkscape:pageopacity="0.0"
     inkscape:pageshadow="2"
     inkscape:zoom="11.725"
     inkscape:cx="18.812158"
     inkscape:cy="27.628075"
     inkscape:document-units="px"
     inkscape:current-layer="layer1"
     showgrid="false"
     inkscape:window-width="1366"
     inkscape:window-height="714"
     inkscape:window-x="0"
     inkscape:window-y="30"
     inkscape:window-maximized="1"
     showguides="true"
     inkscape:guide-bbox="true" />
  <metadata
     id="metadata3053">
    <rdf:RDF>
      <cc:Work
         rdf:about="">
        <dc:format>image/svg+xml</dc:format>
        <dc:type
           rdf:resource="http://purl.org/dc/dcmitype/StillImage" />
        <dc:title />
      </cc:Work>
    </rdf:RDF>
  </metadata>
  <g
     inkscape:label="Capa 1"
     inkscape:groupmode="layer"
     id="layer1"
     transform="translate(0,-1004.3622)">
    <path
       style="color:#000000;fill:#1a1a1a;fill-opacity:1;fill-rule:nonzero;stroke:none;stroke-width:0.5;marker:none;visibility:visible;display:inline;overflow:visible;enable-background:accumulate"
       d="m 7.916084,1012.3622 c -0.5421227,0 -1.006993,0.4369 -1.006993,0.979 l 0,23.8182 c 0,0.5421 0.4648703,1.007 1.006993,1.007 l 6.405594,0 0,6.1958 10.013986,-6.1958 15.776224,0 c 0.542123,0 0.979021,-0.4649 0.979021,-1.007 l 0,-23.8182 C 41.090909,1012.7991 40.654011,1012.3622 40.111888,1012.3622 z m 5.594406,10.7674 c 1.342677,0 2.433566,1.0908 2.433566,2.4336 0,1.3426 -1.090889,2.4336 -2.433566,2.4336 -1.342677,0 -2.405595,-1.0909 -2.405595,-2.4336 C 11.104895,1024.2204 12.167813,1023.1296 13.51049,1023.1296 z m 10.48951,0 c 1.342677,0 2.433567,1.0908 2.433567,2.4336 0,1.3426 -1.09089,2.4336 -2.433567,2.4336 -1.342677,0 -2.433566,-1.0909 -2.433566,-2.4336 C 21.566434,1024.2204 22.657323,1023.1296 24,1023.1296 z m 10.489511,0 c 1.342677,0 2.405594,1.0908 2.405594,2.4336 0,1.3426 -1.062917,2.4336 -2.405594,2.4336 -1.342677,0 -2.433567,-1.0909 -2.433567,-2.4336 C 32.055944,1024.2204 33.146834,1023.1296 34.489511,1023.1296 Z"
       id="rect833"
       inkscape:connector-curvature="0"
       sodipodi:nodetypes="sssscccssssssssssssssssssss" />
  </g>
</svg>
