<?xml version="1.0" encoding="UTF-8" standalone="no"?>
<!-- Created with Inkscape (http://www.inkscape.org/) -->

<svg
   xmlns:dc="http://purl.org/dc/elements/1.1/"
   xmlns:cc="http://creativecommons.org/ns#"
   xmlns:rdf="http://www.w3.org/1999/02/22-rdf-syntax-ns#"
   xmlns:svg="http://www.w3.org/2000/svg"
   xmlns="http://www.w3.org/2000/svg"
   xmlns:sodipodi="http://sodipodi.sourceforge.net/DTD/sodipodi-0.dtd"
   xmlns:inkscape="http://www.inkscape.org/namespaces/inkscape"
   id="svg2882"
   height="48"
   width="48"
   version="1.1"
   inkscape:version="0.48+devel r12339"
   sodipodi:docname="audacious-panel.svg">
  <defs
     id="defs9">
    <linearGradient
       gradientTransform="matrix(1.0058652,0,0,0.994169,-122.19617,-5.448485)"
       gradientUnits="userSpaceOnUse"
       id="ButtonShadow"
       y2="7.0165396"
       x2="45.447727"
       y1="92.539597"
       x1="45.447727">
      <stop
         offset="0"
         style="stop-color:#000000;stop-opacity:1"
         id="stop3750" />
      <stop
         offset="1"
         style="stop-color:#000000;stop-opacity:0.58823532"
         id="stop3752" />
    </linearGradient>
    <filter
       id="filter3174"
       style="color-interpolation-filters:sRGB">
      <feGaussianBlur
         stdDeviation="1.71"
         id="feGaussianBlur3176" />
    </filter>
  </defs>
  <sodipodi:namedview
     pagecolor="#ffffff"
     bordercolor="#666666"
     borderopacity="1"
     objecttolerance="10"
     gridtolerance="10"
     guidetolerance="10"
     inkscape:pageopacity="0"
     inkscape:pageshadow="2"
     inkscape:window-width="1366"
     inkscape:window-height="722"
     id="namedview7"
     showgrid="false"
     inkscape:zoom="9.8333333"
     inkscape:cx="1.6150231"
     inkscape:cy="29.52196"
     inkscape:window-x="0"
     inkscape:window-y="22"
     inkscape:window-maximized="1"
     inkscape:current-layer="svg2882" />
  <metadata
     id="metadata10">
    <rdf:RDF>
      <cc:Work
         rdf:about="">
        <dc:format>image/svg+xml</dc:format>
        <dc:type
           rdf:resource="http://purl.org/dc/dcmitype/StillImage" />
        <dc:title></dc:title>
      </cc:Work>
    </rdf:RDF>
  </metadata>
  <rect
     style="opacity:0.9;fill:url(#ButtonShadow);fill-opacity:1;fill-rule:nonzero;stroke:none;display:none;filter:url(#filter3174)"
     id="rect3745"
     y="1.5515156"
     x="-117.19617"
     ry="6"
     rx="6"
     height="85"
     width="86" />
  <path
     style="color:#000000;fill:#1a1a1a;fill-opacity:1;fill-rule:nonzero;stroke:none;stroke-width:1.5;marker:none;visibility:visible;display:inline;overflow:visible;enable-background:accumulate"
     d="m 23.343938,8.0033639 c -4.18879,0.085885 -7.985458,1.8952286 -10.886636,4.9172581 -2.9011784,3.022029 -4.5401703,7.219652 -4.4542671,11.407561 0.085903,4.187911 1.8956419,8.314677 4.9183061,11.215246 3.022663,2.90057 6.890057,4.539241 11.078847,4.453356 4.18879,0 8.351787,-1.724008 11.313707,-4.685307 2.961921,-2.9613 4.686286,-7.123421 4.686286,-11.311331 0,-4.187909 -1.724365,-8.350177 -4.686286,-11.311476 C 32.351975,9.727371 28.188978,8.0033639 24.000188,8.0033639 23.781469,7.9988785 23.562657,7.9988785 23.343938,8.0033639 z m 1.40625,8.7170631 c 3.621394,0.128467 5.763773,2.432757 6,5.780035 0.266291,3.773283 -0.91382,4.771859 -0.40625,5.530088 1.059906,1.583335 -0.441067,1.975771 -1.4375,2.749422 -0.619765,0.481201 -1.812795,0.278659 -2.40625,-0.406165 -1.803313,-0.977691 -1.119452,0.897962 -4.84375,0.90606 -1.936052,-0.07435 -3.71736,-1.389581 -4.21875,-3.155587 -0.768927,-2.708346 0.359656,-4.711717 3.5,-5.655061 0.908319,-0.272855 2.707505,-0.112852 3.5,-0.656112 0.74846,-0.513077 0.481567,-1.247338 -0.4375,-1.343468 -1.318123,-0.137873 -3.377486,0.413711 -4.59375,0.187461 -0.976306,-0.181614 -1.262096,-1.935172 -0.625,-2.686935 1.042601,-1.230171 3.707888,-1.152938 5.21875,-1.218494 C 24.254624,16.74063 24.508762,16.711863 24.750188,16.720427 z m -0.5,8.092049 c -0.838792,0 -1.53125,0.612806 -1.53125,1.343468 0,0.73066 0.692456,1.312224 1.53125,1.312224 0.838792,0 1.5,-0.581564 1.5,-1.312224 C 25.750188,25.425282 25.08898,24.812476 24.250188,24.812476 Z"
     id="path3663"
     inkscape:connector-curvature="0"
     sodipodi:nodetypes="sssscssscsssssccssssscsssssss" />
</svg>
