<?xml version="1.0" encoding="UTF-8" standalone="no"?>
<!-- Created with Inkscape (http://www.inkscape.org/) -->

<svg
   xmlns:dc="http://purl.org/dc/elements/1.1/"
   xmlns:cc="http://creativecommons.org/ns#"
   xmlns:rdf="http://www.w3.org/1999/02/22-rdf-syntax-ns#"
   xmlns:svg="http://www.w3.org/2000/svg"
   xmlns="http://www.w3.org/2000/svg"
   xmlns:sodipodi="http://sodipodi.sourceforge.net/DTD/sodipodi-0.dtd"
   xmlns:inkscape="http://www.inkscape.org/namespaces/inkscape"
   width="48"
   height="48"
   id="svg1593"
   version="1.1"
   inkscape:version="0.48+devel r12346"
   sodipodi:docname="dialog-error.svg">
  <defs
     id="defs1595">
    <linearGradient
       id="linearGradient3758">
      <stop
         offset="0"
         style="stop-color:#c00000;stop-opacity:1"
         id="stop3760" />
      <stop
         offset="1"
         style="stop-color:#ff7e7e;stop-opacity:1"
         id="stop3762" />
    </linearGradient>
  </defs>
  <sodipodi:namedview
     id="base"
     pagecolor="#ffffff"
     bordercolor="#666666"
     borderopacity="1.0"
     inkscape:pageopacity="0.0"
     inkscape:pageshadow="2"
     inkscape:zoom="8.2289552"
     inkscape:cx="14.331486"
     inkscape:cy="26.787752"
     inkscape:document-units="px"
     inkscape:current-layer="layer1"
     showgrid="false"
     inkscape:window-width="1366"
     inkscape:window-height="714"
     inkscape:window-x="0"
     inkscape:window-y="30"
     inkscape:window-maximized="1" />
  <metadata
     id="metadata1598">
    <rdf:RDF>
      <cc:Work
         rdf:about="">
        <dc:format>image/svg+xml</dc:format>
        <dc:type
           rdf:resource="http://purl.org/dc/dcmitype/StillImage" />
        <dc:title />
      </cc:Work>
    </rdf:RDF>
  </metadata>
  <g
     inkscape:label="Capa 1"
     inkscape:groupmode="layer"
     id="layer1"
     transform="translate(0,-1004.3622)">
    <path
       style="fill:#1a1a1a;fill-opacity:1;fill-rule:nonzero;stroke:none"
       d="m 24.005698,1012.3622 -13.868945,8 0,16 13.868945,8 13.857549,-8 0,-16 L 24.005698,1012.3622 z m 0,3.4416 10.871795,6.2792 -0.0114,12.5584 -10.860399,6.2792 -10.883191,-6.2792 0.0114,-12.5584 L 24.005698,1015.8038 z m -2.08547,5.8689 0.501424,9.1739 2.894588,0 0.490029,-9.1739 L 21.920228,1021.6727 z m 1.937323,10.3818 c -1.077151,0 -1.960114,0.9049 -1.960114,1.983 0,1.0561 0.882963,1.9601 1.960114,1.9601 1.077607,0 1.994301,-0.904 1.994301,-1.9601 C 25.851852,1032.9594 24.935158,1032.0545 23.857551,1032.0545 Z"
       id="path756"
       inkscape:connector-curvature="0" />
  </g>
</svg>
