<?xml version="1.0" encoding="UTF-8" standalone="no"?>
<!-- Created with Inkscape (http://www.inkscape.org/) -->

<svg
   xmlns:dc="http://purl.org/dc/elements/1.1/"
   xmlns:cc="http://creativecommons.org/ns#"
   xmlns:rdf="http://www.w3.org/1999/02/22-rdf-syntax-ns#"
   xmlns:svg="http://www.w3.org/2000/svg"
   xmlns="http://www.w3.org/2000/svg"
   xmlns:sodipodi="http://sodipodi.sourceforge.net/DTD/sodipodi-0.dtd"
   xmlns:inkscape="http://www.inkscape.org/namespaces/inkscape"
   width="48"
   height="48"
   id="svg2"
   version="1.1"
   inkscape:version="0.48+devel r12388"
   sodipodi:docname="dialog-question.svg">
  <defs
     id="defs4" />
  <sodipodi:namedview
     id="base"
     pagecolor="#ffffff"
     bordercolor="#666666"
     borderopacity="1.0"
     inkscape:pageopacity="0.0"
     inkscape:pageshadow="2"
     inkscape:zoom="7.085364"
     inkscape:cx="-3.5897195"
     inkscape:cy="20.041021"
     inkscape:document-units="px"
     inkscape:current-layer="layer1"
     showgrid="false"
     inkscape:window-width="1366"
     inkscape:window-height="714"
     inkscape:window-x="0"
     inkscape:window-y="30"
     inkscape:window-maximized="1" />
  <metadata
     id="metadata7">
    <rdf:RDF>
      <cc:Work
         rdf:about="">
        <dc:format>image/svg+xml</dc:format>
        <dc:type
           rdf:resource="http://purl.org/dc/dcmitype/StillImage" />
        <dc:title />
      </cc:Work>
    </rdf:RDF>
  </metadata>
  <g
     inkscape:label="Capa 1"
     inkscape:groupmode="layer"
     id="layer1"
     transform="translate(0,-1004.3622)">
    <path
       style="fill:#1a1a1a;fill-opacity:0.98039216;stroke:none"
       d="M 24 8 C 21.928256 7.9997 19.884999 8.77005 18.375 10.28125 C 16.861008 11.79325 16 13.76955 16 15.90625 L 20 15.90625 C 20 14.83535 20.429501 13.8794 21.1875 13.125 C 22.745491 11.5632 25.316007 11.5661 26.875 13.125 C 27.631 13.8794 28 14.83615 28 15.90625 C 28 16.97215 27.630002 18.02315 26.875 18.78125 L 20.125 25.40625 C 19.179999 26.18705 18.6875 27.4765 18.6875 28.8125 C 18.6875 30.1485 19.179999 31.3949 20.125 32.5 C 21.069995 33.4459 22.351502 33.96875 23.6875 33.96875 C 25.023492 33.96875 26.243503 33.4459 27.1875 32.5 C 28.132495 31.3949 28.6875 30.1485 28.6875 28.8125 L 24.6875 28.8125 C 24.6875 28.9687 24.629008 29.2417 24.375 29.5 C 23.984002 29.8909 23.359745 29.8909 22.96875 29.5 C 22.579752 29.1088 22.579752 28.5163 22.96875 28.125 L 29.625 21.59375 C 31.136992 20.08305 32 18.04335 32 15.90625 C 32 13.76525 31.135993 11.78825 29.625 10.28125 C 28.113001 8.77155 26.071744 8.0003 24 8 z M 23.625 36 C 22.520006 36 21.625 36.8911 21.625 38 C 21.625 39.1021 22.520006 40 23.625 40 C 24.729996 40 25.625 39.1021 25.625 38 C 25.625 36.8911 24.729996 36 23.625 36 z "
       transform="translate(0,1004.3622)"
       id="path825" />
  </g>
</svg>
