<?xml version="1.0" encoding="UTF-8" standalone="no"?>
<!-- Created with Inkscape (http://www.inkscape.org/) -->

<svg
   xmlns:dc="http://purl.org/dc/elements/1.1/"
   xmlns:cc="http://creativecommons.org/ns#"
   xmlns:rdf="http://www.w3.org/1999/02/22-rdf-syntax-ns#"
   xmlns:svg="http://www.w3.org/2000/svg"
   xmlns="http://www.w3.org/2000/svg"
   xmlns:xlink="http://www.w3.org/1999/xlink"
   xmlns:sodipodi="http://sodipodi.sourceforge.net/DTD/sodipodi-0.dtd"
   xmlns:inkscape="http://www.inkscape.org/namespaces/inkscape"
   width="48"
   height="48"
   id="svg1647"
   version="1.1"
   inkscape:version="0.48+devel r12310"
   sodipodi:docname="image-loading.svg">
  <defs
     id="defs1649">
    <linearGradient
       inkscape:collect="always"
       xlink:href="#linearGradient1035-3"
       id="linearGradient1033-8"
       x1="23.875"
       y1="-1052.4872"
       x2="23.875"
       y2="-1004.4247"
       gradientUnits="userSpaceOnUse" />
    <linearGradient
       id="linearGradient1035-3"
       inkscape:collect="always">
      <stop
         id="stop1037-8"
         offset="0"
         style="stop-color:#ffffff;stop-opacity:1" />
      <stop
         id="stop1039-5"
         offset="1"
         style="stop-color:#ececec;stop-opacity:1" />
    </linearGradient>
  </defs>
  <sodipodi:namedview
     id="base"
     pagecolor="#ffffff"
     bordercolor="#666666"
     borderopacity="1.0"
     inkscape:pageopacity="0.0"
     inkscape:pageshadow="2"
     inkscape:zoom="5.6"
     inkscape:cx="-5.5493867"
     inkscape:cy="35.861356"
     inkscape:document-units="px"
     inkscape:current-layer="layer1"
     showgrid="false"
     inkscape:window-width="1366"
     inkscape:window-height="714"
     inkscape:window-x="0"
     inkscape:window-y="30"
     inkscape:window-maximized="1" />
  <metadata
     id="metadata1652">
    <rdf:RDF>
      <cc:Work
         rdf:about="">
        <dc:format>image/svg+xml</dc:format>
        <dc:type
           rdf:resource="http://purl.org/dc/dcmitype/StillImage" />
        <dc:title />
      </cc:Work>
    </rdf:RDF>
  </metadata>
  <g
     inkscape:label="Capa 1"
     inkscape:groupmode="layer"
     id="layer1"
     transform="translate(0,-1004.3622)">
    <path
       style="fill:#1a1a1a;fill-opacity:1;fill-rule:nonzero;stroke:none"
       d="m 8,1012.3622 0,6 6,0 0,-6 L 8,1012.3622 Z"
       id="path848" />
    <path
       style="fill:#1a1a1a;fill-opacity:1;fill-rule:nonzero;stroke:none"
       d="m 34,1012.3622 0,6 6,0 0,-6 L 34,1012.3622 Z"
       id="path846" />
    <path
       style="fill:#1a1a1a;fill-opacity:1;fill-rule:nonzero;stroke:none"
       d="m 18.6875,1014.3935 0,1.9375 2.96875,0 0,-1.9375 L 18.6875,1014.3935 Z"
       id="path844" />
    <path
       style="fill:#1a1a1a;fill-opacity:1;fill-rule:nonzero;stroke:none"
       d="m 26.34375,1014.3935 0,1.9375 2.96875,0 0,-1.9375 L 26.34375,1014.3935 Z"
       id="path842" />
    <path
       style="fill:#1a1a1a;fill-opacity:1;fill-rule:nonzero;stroke:none"
       d="m 10.03125,1023.0497 0,2.9688 1.9375,0 0,-2.9688 L 10.03125,1023.0497 Z"
       id="path838" />
    <path
       style="fill:#1a1a1a;fill-opacity:1;fill-rule:nonzero;stroke:none"
       d="m 36.03125,1023.0497 0,2.9688 1.9375,0 0,-2.9688 L 36.03125,1023.0497 Z"
       id="path836" />
    <path
       style="fill:#1a1a1a;fill-opacity:1;fill-rule:nonzero;stroke:none"
       d="m 10.03125,1030.706 0,2.9687 1.9375,0 0,-2.9687 L 10.03125,1030.706 Z"
       id="path834" />
    <path
       style="fill:#1a1a1a;fill-opacity:1;fill-rule:nonzero;stroke:none"
       d="m 36.03125,1030.706 0,2.9687 1.9375,0 0,-2.9687 L 36.03125,1030.706 Z"
       id="path832" />
    <path
       style="fill:#1a1a1a;fill-opacity:1;fill-rule:nonzero;stroke:none"
       d="m 8,1038.3622 0,6 6,0 0,-6 L 8,1038.3622 Z"
       id="path830" />
    <path
       style="fill:#1a1a1a;fill-opacity:1;fill-rule:nonzero;stroke:none"
       d="m 34,1038.3622 0,6 6,0 0,-6 L 34,1038.3622 Z"
       id="path828" />
    <path
       style="fill:#1a1a1a;fill-opacity:1;fill-rule:nonzero;stroke:none"
       d="m 18.6875,1040.3935 0,1.9375 2.96875,0 0,-1.9375 L 18.6875,1040.3935 Z"
       id="path826" />
    <path
       style="fill:#1a1a1a;fill-opacity:1;fill-rule:nonzero;stroke:none"
       d="m 26.34375,1040.3935 0,1.9375 2.96875,0 0,-1.9375 L 26.34375,1040.3935 Z"
       id="path126" />
    <path
       style="fill:#1a1a1a;fill-opacity:1"
       d="m 24.000002,1021.8622 c -3.589642,0 -6.5,2.9099 -6.5,6.5 0,3.5901 2.910358,6.5 6.5,6.5 3.590067,0 6.5,-2.9099 6.5,-6.5 C 30.500002,1024.7721 27.590069,1021.8622 24.000002,1021.8622 z m 0,1.036 c 3.015073,0 5.464073,2.4502 5.464073,5.464 0,3.0138 -2.448797,5.4438 -5.464073,5.4438 -3.01301,0 -5.464073,-2.43 -5.464073,-5.4438 C 18.535929,1025.3484 20.986992,1022.8982 24.000002,1022.8982 z m -0.589073,1.0562 -0.223427,4.4484 0.06091,0.4672 3.310948,2.9453 0.528125,-0.5281 -2.742198,-2.9453 -0.24375,-4.3875 L 23.410929,1023.9544 Z"
       id="path365"
       inkscape:connector-curvature="0" />
  </g>
</svg>
