<?xml version="1.0" encoding="UTF-8" standalone="no"?>
<!-- Created with Inkscape (http://www.inkscape.org/) -->

<svg
   xmlns:dc="http://purl.org/dc/elements/1.1/"
   xmlns:cc="http://creativecommons.org/ns#"
   xmlns:rdf="http://www.w3.org/1999/02/22-rdf-syntax-ns#"
   xmlns:svg="http://www.w3.org/2000/svg"
   xmlns="http://www.w3.org/2000/svg"
   xmlns:xlink="http://www.w3.org/1999/xlink"
   xmlns:sodipodi="http://sodipodi.sourceforge.net/DTD/sodipodi-0.dtd"
   xmlns:inkscape="http://www.inkscape.org/namespaces/inkscape"
   width="48"
   height="48"
   id="svg1618"
   version="1.1"
   inkscape:version="0.48+devel r12399"
   sodipodi:docname="image-missing.svg">
  <defs
     id="defs1620">
    <linearGradient
       gradientUnits="userSpaceOnUse"
       y2="-1004.4247"
       x2="23.875"
       y1="-1052.4872"
       x1="23.875"
       id="linearGradient1033-8"
       xlink:href="#linearGradient1035-3"
       inkscape:collect="always" />
    <linearGradient
       inkscape:collect="always"
       id="linearGradient1035-3">
      <stop
         style="stop-color:#ffffff;stop-opacity:1"
         offset="0"
         id="stop1037-8" />
      <stop
         style="stop-color:#ececec;stop-opacity:1"
         offset="1"
         id="stop1039-5" />
    </linearGradient>
  </defs>
  <sodipodi:namedview
     id="base"
     pagecolor="#ffffff"
     bordercolor="#666666"
     borderopacity="1.0"
     inkscape:pageopacity="0.0"
     inkscape:pageshadow="2"
     inkscape:zoom="2.93125"
     inkscape:cx="-51.447483"
     inkscape:cy="35.08922"
     inkscape:document-units="px"
     inkscape:current-layer="layer1"
     showgrid="false"
     inkscape:window-width="1366"
     inkscape:window-height="714"
     inkscape:window-x="0"
     inkscape:window-y="30"
     inkscape:window-maximized="1" />
  <metadata
     id="metadata1623">
    <rdf:RDF>
      <cc:Work
         rdf:about="">
        <dc:format>image/svg+xml</dc:format>
        <dc:type
           rdf:resource="http://purl.org/dc/dcmitype/StillImage" />
        <dc:title />
      </cc:Work>
    </rdf:RDF>
  </metadata>
  <g
     inkscape:label="Capa 1"
     inkscape:groupmode="layer"
     id="layer1"
     transform="translate(0,-1004.3622)">
    <path
       style="fill:#1a1a1a;fill-opacity:1;stroke:none"
       d="m 19.618361,1021.8627 c 0.38409,0 0.784654,0.1458 1.077153,0.4382 L 24,1026.0984 l 3.304486,-3.7975 c 0.587322,-0.585 1.55105,-0.585 2.13605,0 0.584973,0.5873 0.584973,1.5319 0,2.1178 l -3.450542,3.9435 3.450542,3.9434 c 0.584973,0.5874 0.584973,1.5329 0,2.1179 -0.585,0.5849 -1.548728,0.5849 -2.13605,0 L 24,1030.6443 l -3.304486,3.7792 c -0.584997,0.5849 -1.54875,0.5849 -2.136049,0 -0.584974,-0.585 -0.584974,-1.5305 0,-2.1179 l 3.450541,-3.9434 -3.450541,-3.9435 c -0.584974,-0.5859 -0.584974,-1.5305 0,-2.1178 C 18.853115,1022.0085 19.23427,1021.8627 19.618361,1021.8627 Z"
       id="rect859"
       inkscape:connector-curvature="0"
       sodipodi:nodetypes="sccccccccccccccccs" />
    <path
       inkscape:connector-curvature="0"
       style="fill:#1a1a1a;fill-opacity:1;fill-rule:nonzero;stroke:none"
       d="m 8,1012.3622 0,6 6,0 0,-6 L 8,1012.3622 Z"
       id="path848" />
    <path
       inkscape:connector-curvature="0"
       style="fill:#1a1a1a;fill-opacity:1;fill-rule:nonzero;stroke:none"
       d="m 34,1012.3622 0,6 6,0 0,-6 L 34,1012.3622 Z"
       id="path846" />
    <path
       inkscape:connector-curvature="0"
       style="fill:#1a1a1a;fill-opacity:1;fill-rule:nonzero;stroke:none"
       d="m 18.6875,1014.3935 0,1.9375 2.96875,0 0,-1.9375 L 18.6875,1014.3935 Z"
       id="path844" />
    <path
       inkscape:connector-curvature="0"
       style="fill:#1a1a1a;fill-opacity:1;fill-rule:nonzero;stroke:none"
       d="m 26.34375,1014.3935 0,1.9375 2.96875,0 0,-1.9375 L 26.34375,1014.3935 Z"
       id="path842" />
    <path
       inkscape:connector-curvature="0"
       style="fill:#1a1a1a;fill-opacity:1;fill-rule:nonzero;stroke:none"
       d="m 10.03125,1023.0497 0,2.9688 1.9375,0 0,-2.9688 L 10.03125,1023.0497 Z"
       id="path838" />
    <path
       inkscape:connector-curvature="0"
       style="fill:#1a1a1a;fill-opacity:1;fill-rule:nonzero;stroke:none"
       d="m 36.03125,1023.0497 0,2.9688 1.9375,0 0,-2.9688 L 36.03125,1023.0497 Z"
       id="path836" />
    <path
       inkscape:connector-curvature="0"
       style="fill:#1a1a1a;fill-opacity:1;fill-rule:nonzero;stroke:none"
       d="m 10.03125,1030.706 0,2.9687 1.9375,0 0,-2.9687 L 10.03125,1030.706 Z"
       id="path834" />
    <path
       inkscape:connector-curvature="0"
       style="fill:#1a1a1a;fill-opacity:1;fill-rule:nonzero;stroke:none"
       d="m 36.03125,1030.706 0,2.9687 1.9375,0 0,-2.9687 L 36.03125,1030.706 Z"
       id="path832" />
    <path
       inkscape:connector-curvature="0"
       style="fill:#1a1a1a;fill-opacity:1;fill-rule:nonzero;stroke:none"
       d="m 8,1038.3622 0,6 6,0 0,-6 L 8,1038.3622 Z"
       id="path830" />
    <path
       inkscape:connector-curvature="0"
       style="fill:#1a1a1a;fill-opacity:1;fill-rule:nonzero;stroke:none"
       d="m 34,1038.3622 0,6 6,0 0,-6 L 34,1038.3622 Z"
       id="path828" />
    <path
       inkscape:connector-curvature="0"
       style="fill:#1a1a1a;fill-opacity:1;fill-rule:nonzero;stroke:none"
       d="m 18.6875,1040.3935 0,1.9375 2.96875,0 0,-1.9375 L 18.6875,1040.3935 Z"
       id="path826" />
    <path
       inkscape:connector-curvature="0"
       style="fill:#1a1a1a;fill-opacity:1;fill-rule:nonzero;stroke:none"
       d="m 26.34375,1040.3935 0,1.9375 2.96875,0 0,-1.9375 L 26.34375,1040.3935 Z"
       id="path126" />
  </g>
</svg>
