<?xml version="1.0" encoding="UTF-8" standalone="no"?>
<!-- Created with Inkscape (http://www.inkscape.org/) -->

<svg
   xmlns:dc="http://purl.org/dc/elements/1.1/"
   xmlns:cc="http://creativecommons.org/ns#"
   xmlns:rdf="http://www.w3.org/1999/02/22-rdf-syntax-ns#"
   xmlns:svg="http://www.w3.org/2000/svg"
   xmlns="http://www.w3.org/2000/svg"
   xmlns:sodipodi="http://sodipodi.sourceforge.net/DTD/sodipodi-0.dtd"
   xmlns:inkscape="http://www.inkscape.org/namespaces/inkscape"
   width="48"
   height="48"
   id="svg3048"
   version="1.1"
   inkscape:version="0.48+devel r12346"
   sodipodi:docname="indicator-messages-new.svg">
  <defs
     id="defs3050" />
  <sodipodi:namedview
     id="base"
     pagecolor="#ffffff"
     bordercolor="#666666"
     borderopacity="1.0"
     inkscape:pageopacity="0.0"
     inkscape:pageshadow="2"
     inkscape:zoom="5.8625"
     inkscape:cx="19.769607"
     inkscape:cy="13.026017"
     inkscape:document-units="px"
     inkscape:current-layer="layer1"
     showgrid="false"
     inkscape:window-width="1366"
     inkscape:window-height="714"
     inkscape:window-x="0"
     inkscape:window-y="30"
     inkscape:window-maximized="1"
     showguides="true"
     inkscape:guide-bbox="true" />
  <metadata
     id="metadata3053">
    <rdf:RDF>
      <cc:Work
         rdf:about="">
        <dc:format>image/svg+xml</dc:format>
        <dc:type
           rdf:resource="http://purl.org/dc/dcmitype/StillImage" />
        <dc:title />
      </cc:Work>
    </rdf:RDF>
  </metadata>
  <g
     inkscape:label="Capa 1"
     inkscape:groupmode="layer"
     id="layer1"
     transform="translate(0,-1004.3622)">
    <path
       id="bubble_x2C__filled"
       d="m 33.36172,1019.8521 c -0.247153,0 -0.489553,0.017 -0.733538,0.031 0.24953,1.1408 0.392911,2.371 0.392911,3.7137 0,4.5549 -3.490247,9.2223 -7.509655,13.0912 l 10.233885,7.6744 0,-5.7875 c 5.267056,-0.8872 8.850777,-4.5945 8.850777,-9.1906 C 44.5961,1024.1305 39.747303,1019.8521 33.36172,1019.8521 Z"
       inkscape:connector-curvature="0"
       style="fill:#ff0075;fill-rule:evenodd;clip-rule:evenodd;fill-opacity:1" />
    <path
       style="fill:#ff0075;fill-rule:evenodd;clip-rule:evenodd;fill-opacity:1"
       d="m 17.36172,1012.3622 c -7.6332307,0 -13.9578173,5.1704 -13.9578173,11.575 0,5.6029 4.9367264,10.1531 11.2343793,11.2336 l 0,7.4906 c 0,0 16.34142,-9.753 16.34142,-19.0648 C 30.979702,1016.3143 24.994951,1012.3622 17.36172,1012.3622 Z"
       id="path812" />
  </g>
</svg>
