<?xml version="1.0" encoding="UTF-8" standalone="no"?>
<!-- Created with Inkscape (http://www.inkscape.org/) -->

<svg
   xmlns:dc="http://purl.org/dc/elements/1.1/"
   xmlns:cc="http://creativecommons.org/ns#"
   xmlns:rdf="http://www.w3.org/1999/02/22-rdf-syntax-ns#"
   xmlns:svg="http://www.w3.org/2000/svg"
   xmlns="http://www.w3.org/2000/svg"
   xmlns:sodipodi="http://sodipodi.sourceforge.net/DTD/sodipodi-0.dtd"
   xmlns:inkscape="http://www.inkscape.org/namespaces/inkscape"
   width="48"
   height="48"
   id="svg2"
   version="1.1"
   inkscape:version="0.48+devel r12274"
   sodipodi:docname="input-keyboard.svg">
  <defs
     id="defs4" />
  <sodipodi:namedview
     id="base"
     pagecolor="#ffffff"
     bordercolor="#666666"
     borderopacity="1.0"
     inkscape:pageopacity="0.0"
     inkscape:pageshadow="2"
     inkscape:zoom="8.375"
     inkscape:cx="30.435508"
     inkscape:cy="28.539369"
     inkscape:document-units="px"
     inkscape:current-layer="layer1"
     showgrid="false"
     inkscape:window-width="1366"
     inkscape:window-height="716"
     inkscape:window-x="0"
     inkscape:window-y="28"
     inkscape:window-maximized="1" />
  <metadata
     id="metadata7">
    <rdf:RDF>
      <cc:Work
         rdf:about="">
        <dc:format>image/svg+xml</dc:format>
        <dc:type
           rdf:resource="http://purl.org/dc/dcmitype/StillImage" />
        <dc:title />
      </cc:Work>
    </rdf:RDF>
  </metadata>
  <g
     inkscape:label="Capa 1"
     inkscape:groupmode="layer"
     id="layer1"
     transform="translate(0,-1004.3622)">
    <path
       style="fill:#1a1a1a;fill-opacity:1;stroke:none"
       d="M 8 8 L 8 40 L 40 40 L 40 8 L 8 8 z M 21.90625 15.625 L 24 15.625 L 26.09375 15.625 L 31.5625 32.375 L 27.46875 32.375 L 26.46875 29.125 L 21.5 29.125 L 20.53125 32.375 L 16.4375 32.375 L 21.90625 15.625 z M 23.96875 20.9375 L 22.40625 26.125 L 25.59375 26.125 L 24.03125 20.9375 L 23.96875 20.9375 z M 30.375 34.625 C 31.463084 34.625 32.34375 35.505666 32.34375 36.59375 C 32.34375 37.681833 31.463084 38.5625 30.375 38.5625 C 29.286917 38.5625 28.40625 37.681833 28.40625 36.59375 C 28.40625 35.505666 29.286917 34.625 30.375 34.625 z M 36.1875 34.625 C 37.275584 34.625 38.15625 35.505666 38.15625 36.59375 C 38.15625 37.681833 37.275584 38.5625 36.1875 38.5625 C 35.099417 38.5625 34.21875 37.681833 34.21875 36.59375 C 34.21875 35.505666 35.099417 34.625 36.1875 34.625 z "
       transform="translate(0,1004.3622)"
       id="rect819" />
  </g>
</svg>
