<?xml version="1.0" encoding="UTF-8" standalone="no"?>
<!-- Created with Inkscape (http://www.inkscape.org/) -->

<svg
   xmlns:osb="http://www.openswatchbook.org/uri/2009/osb"
   xmlns:dc="http://purl.org/dc/elements/1.1/"
   xmlns:cc="http://creativecommons.org/ns#"
   xmlns:rdf="http://www.w3.org/1999/02/22-rdf-syntax-ns#"
   xmlns:svg="http://www.w3.org/2000/svg"
   xmlns="http://www.w3.org/2000/svg"
   xmlns:xlink="http://www.w3.org/1999/xlink"
   xmlns:sodipodi="http://sodipodi.sourceforge.net/DTD/sodipodi-0.dtd"
   xmlns:inkscape="http://www.inkscape.org/namespaces/inkscape"
   version="1.0"
   width="48"
   height="48"
   id="svg3229"
   inkscape:version="0.48+devel r12388"
   sodipodi:docname="nm-signal-100.svg">
  <sodipodi:namedview
     pagecolor="#ffffff"
     bordercolor="#666666"
     borderopacity="1"
     objecttolerance="10"
     gridtolerance="10"
     guidetolerance="10"
     inkscape:pageopacity="0"
     inkscape:pageshadow="2"
     inkscape:window-width="1366"
     inkscape:window-height="714"
     id="namedview16"
     showgrid="false"
     width="0px"
     height="0px"
     fit-margin-top="0"
     fit-margin-left="0"
     fit-margin-right="0"
     fit-margin-bottom="0"
     inkscape:zoom="5.3884075"
     inkscape:cx="7.3938308"
     inkscape:cy="27.372558"
     inkscape:window-x="0"
     inkscape:window-y="30"
     inkscape:window-maximized="1"
     inkscape:current-layer="svg3229" />
  <metadata
     id="metadata9">
    <rdf:RDF>
      <cc:Work
         rdf:about="">
        <dc:format>image/svg+xml</dc:format>
        <dc:type
           rdf:resource="http://purl.org/dc/dcmitype/StillImage" />
        <dc:title />
      </cc:Work>
    </rdf:RDF>
  </metadata>
  <defs
     id="defs3231">
    <linearGradient
       osb:paint="solid"
       id="linearGradient5606">
      <stop
         style="stop-color:#000000;stop-opacity:1;"
         offset="0"
         id="stop5608" />
    </linearGradient>
    <linearGradient
       y2="520.1709"
       y1="408.39655"
       x2="365.97757"
       x1="365.51193"
       id="linearGradient3189"
       xlink:href="#linearGradient3785"
       gradientUnits="userSpaceOnUse"
       gradientTransform="matrix(0.08112299,0,0,0.07855526,540.8143,254.8467)"
       inkscape:collect="always" />
    <linearGradient
       id="linearGradient3785">
      <stop
         style="stop-color:#384880;stop-opacity:1;"
         offset="0"
         id="stop3787" />
      <stop
         style="stop-color:#000000;stop-opacity:1;"
         offset="1"
         id="stop3789" />
    </linearGradient>
    <clipPath
       id="clipPath5694-0-9"
       clipPathUnits="userSpaceOnUse">
      <path
         style="color:#bebebe;fill:#000000;fill-opacity:1;fill-rule:nonzero;stroke:none;stroke-width:2;marker:none;visibility:visible;display:inline;overflow:visible;enable-background:accumulate"
         id="path5696-0-0"
         d="m -40,102 0,3 8,9 8,-9 0,-3 -16,0 z"
         inkscape:connector-curvature="0" />
    </clipPath>
    <clipPath
       id="clipPath5698-4-5"
       clipPathUnits="userSpaceOnUse">
      <path
         style="color:#bebebe;fill:#000000;fill-opacity:1;fill-rule:nonzero;stroke:none;stroke-width:2;marker:none;visibility:visible;display:inline;overflow:visible;enable-background:accumulate"
         id="path5700-6-0"
         d="m -40,102 0,3 8,9 8,-9 0,-3 -16,0 z"
         inkscape:connector-curvature="0" />
    </clipPath>
    <clipPath
       id="clipPath5702-3-0"
       clipPathUnits="userSpaceOnUse">
      <path
         style="color:#bebebe;fill:#000000;fill-opacity:1;fill-rule:nonzero;stroke:none;stroke-width:2;marker:none;visibility:visible;display:inline;overflow:visible;enable-background:accumulate"
         id="path5704-7-0"
         d="m -40,102 0,3 8,9 8,-9 0,-3 -16,0 z"
         inkscape:connector-curvature="0" />
    </clipPath>
    <clipPath
       id="clipPath5706-8-7"
       clipPathUnits="userSpaceOnUse">
      <path
         style="color:#bebebe;fill:#000000;fill-opacity:1;fill-rule:nonzero;stroke:none;stroke-width:2;marker:none;visibility:visible;display:inline;overflow:visible;enable-background:accumulate"
         id="path5708-3-5"
         d="m -40,106 0,3 8,9 8,-9 0,-3 -16,0 z"
         inkscape:connector-curvature="0" />
    </clipPath>
  </defs>
  <g
     id="layer9"
     inkscape:label="status"
     style="fill:#1a1a1a;display:inline"
     transform="matrix(2.666667,0,0,2.666667,-693.33396,1056.0002)">
    <path
       clip-path="url(#clipPath5694-0-9)"
       inkscape:connector-curvature="0"
       d="m -32,102 c -6.627417,0 -12,5.37258 -12,12 0,6.62742 5.372583,12 12,12 6.627417,0 12,-5.37258 12,-12 C -20,107.37258 -25.372583,102 -32,102 z m 0,2 c 0.354067,0 0.68785,0.0227 1.03125,0.0625 0.27105,0.0275 0.517039,0.0763 0.78125,0.125 0.06154,0.0126 0.126423,0.0174 0.1875,0.0312 4.556831,0.93246 8,4.94876 8,9.78125 0,5.52285 -4.477153,10 -10,10 -5.522847,0 -10,-4.47715 -10,-10 0,-4.83249 3.443169,-8.84879 8,-9.78125 0.06305,-0.0129 0.124023,-0.0195 0.1875,-0.0312 0.252009,-0.0516 0.522048,-0.095 0.78125,-0.125 C -32.68785,104.02272 -32.354067,104 -32,104 Z"
       id="path5580"
       style="color:#bebebe;fill:#1a1a1a;fill-opacity:1;fill-rule:nonzero;stroke:none;stroke-width:2;marker:none;visibility:visible;display:inline;overflow:visible;enable-background:accumulate"
       transform="translate(301.0002,-495.00003)" />
    <path
       clip-path="url(#clipPath5698-4-5)"
       inkscape:connector-curvature="0"
       d="m -32,105 c -4.970563,0 -9,4.02944 -9,9 0,4.97056 4.029437,9 9,9 4.970563,0 9,-4.02944 9,-9 C -23,109.02944 -27.029437,105 -32,105 z m 0,2 c 0.207107,0 0.423298,0.0108 0.625,0.0312 0.03075,0.003 0.06311,-0.003 0.09375,0 0.169849,0.0199 0.334793,0.0599 0.5,0.0937 3.282441,0.57884 5.78125,3.42653 5.78125,6.875 0,3.86599 -3.134007,7 -7,7 -3.865993,0 -7,-3.13401 -7,-7 0,-3.44847 2.498809,-6.29616 5.78125,-6.875 0.165207,-0.0338 0.330151,-0.0738 0.5,-0.0937 C -32.48343,107.00735 -32.241625,107 -32,107 Z"
       id="path5598"
       style="color:#bebebe;fill:#1a1a1a;fill-opacity:1;fill-rule:nonzero;stroke:none;stroke-width:2;marker:none;visibility:visible;display:inline;overflow:visible;enable-background:accumulate"
       transform="translate(301.0002,-495.00003)" />
    <path
       clip-path="url(#clipPath5702-3-0)"
       inkscape:connector-curvature="0"
       d="m -32,108 c -3.313709,0 -6,2.68629 -6,6 0,3.31371 2.686291,6 6,6 3.313709,0 6,-2.68629 6,-6 C -26,110.68629 -28.686291,108 -32,108 z m 0,2 c 0.201564,0 0.400193,0.0337 0.59375,0.0625 0.0098,0.002 0.02152,-0.002 0.03125,0 1.913072,0.29936 3.375,1.94041 3.375,3.9375 0,2.20914 -1.790861,4 -4,4 -2.209139,0 -4,-1.79086 -4,-4 0,-1.99709 1.461928,-3.63814 3.375,-3.9375 0.01004,-0.002 0.02119,0.001 0.03125,0 C -32.398457,110.02254 -32.207107,110 -32,110 Z"
       id="path5600"
       style="color:#bebebe;fill:#1a1a1a;fill-opacity:1;fill-rule:nonzero;stroke:none;stroke-width:2;marker:none;visibility:visible;display:inline;overflow:visible;enable-background:accumulate"
       transform="translate(301.0002,-495.00003)" />
    <path
       clip-path="url(#clipPath5706-8-7)"
       sodipodi:cx="-32"
       sodipodi:cy="118"
       d="m -29,118 c 0,1.65685 -1.343146,3 -3,3 -1.656854,0 -3,-1.34315 -3,-3 0,-1.65685 1.343146,-3 3,-3 C -30.343146,115 -29,116.34315 -29,118 Z"
       id="path5612"
       sodipodi:rx="3"
       sodipodi:ry="3"
       style="color:#bebebe;fill:#1a1a1a;fill-opacity:1;fill-rule:nonzero;stroke:none;stroke-width:2;marker:none;visibility:visible;display:inline;overflow:visible;enable-background:accumulate"
       transform="translate(301.0002,-499.00003)"
       sodipodi:type="arc" />
  </g>
</svg>
