<?xml version="1.0" encoding="UTF-8" standalone="no"?>
<!-- Created with Inkscape (http://www.inkscape.org/) -->

<svg
   xmlns:osb="http://www.openswatchbook.org/uri/2009/osb"
   xmlns:dc="http://purl.org/dc/elements/1.1/"
   xmlns:cc="http://creativecommons.org/ns#"
   xmlns:rdf="http://www.w3.org/1999/02/22-rdf-syntax-ns#"
   xmlns:svg="http://www.w3.org/2000/svg"
   xmlns="http://www.w3.org/2000/svg"
   xmlns:sodipodi="http://sodipodi.sourceforge.net/DTD/sodipodi-0.dtd"
   xmlns:inkscape="http://www.inkscape.org/namespaces/inkscape"
   width="48"
   height="48"
   id="svg2"
   version="1.1"
   inkscape:version="0.48+devel r12306"
   sodipodi:docname="screencloud-uploading.svg">
  <defs
     id="defs4">
    <linearGradient
       id="linearGradient2997">
      <stop
         id="stop2999"
         offset="0"
         style="stop-color:#8ebeea;stop-opacity:1;" />
      <stop
         id="stop3001"
         offset="1"
         style="stop-color:#4c98de;stop-opacity:1;" />
    </linearGradient>
    <linearGradient
       osb:paint="solid"
       id="linearGradient3794">
      <stop
         id="stop3796"
         offset="0"
         style="stop-color:#ffffff;stop-opacity:1;" />
    </linearGradient>
  </defs>
  <sodipodi:namedview
     id="base"
     pagecolor="#ffffff"
     bordercolor="#666666"
     borderopacity="1.0"
     inkscape:pageopacity="0.0"
     inkscape:pageshadow="2"
     inkscape:zoom="3.542682"
     inkscape:cx="-56.227418"
     inkscape:cy="15.362366"
     inkscape:document-units="px"
     inkscape:current-layer="layer1"
     showgrid="false"
     inkscape:window-width="1366"
     inkscape:window-height="714"
     inkscape:window-x="0"
     inkscape:window-y="30"
     inkscape:window-maximized="1" />
  <metadata
     id="metadata7">
    <rdf:RDF>
      <cc:Work
         rdf:about="">
        <dc:format>image/svg+xml</dc:format>
        <dc:type
           rdf:resource="http://purl.org/dc/dcmitype/StillImage" />
        <dc:title></dc:title>
      </cc:Work>
    </rdf:RDF>
  </metadata>
  <g
     inkscape:label="Capa 1"
     inkscape:groupmode="layer"
     id="layer1"
     transform="translate(0,-1004.3622)">
    <g
       id="g662"
       transform="matrix(0.50793651,0,0,-0.50793651,31.669841,1025.9068)"
       style="fill:#1a1a1a" />
    <path
       style="fill:#4c98de;fill-opacity:1;stroke:none"
       d="M 20.125 8 C 13.785666 8 8.59375 13.12935 8.59375 19.46875 C 8.59375 20.65735 8.7896246 21.82795 9.125 22.90625 C 5.8627397 24.21645 3.59375 27.42545 3.59375 31.15625 C 3.59375 36.05475 7.5389219 40 12.4375 40 C 12.468032 40.001411 12.500357 40 12.53125 40 L 14.875 40 L 34.5625 40 L 36.03125 40 C 36.110188 40 36.173575 39.977805 36.25 39.96875 C 36.374259 39.974684 36.500305 40 36.625 40 C 40.922676 40 44.40625 36.51635 44.40625 32.21875 C 44.40625 30.29875 43.715087 28.5446 42.5625 27.1875 C 42.998238 25.975 43.21875 24.64375 43.21875 23.28125 C 43.21875 16.94185 38.089335 11.8125 31.75 11.8125 C 30.789381 11.8125 29.86054 11.93395 28.96875 12.15625 C 26.863444 9.60525 23.690876 8 20.125 8 z M 24 16.125 C 29.456308 16.125 33.875 20.5437 33.875 26 C 33.875 31.4563 29.456308 35.875 24 35.875 C 18.543692 35.875 14.125 31.4563 14.125 26 C 14.125 20.5437 18.543692 16.125 24 16.125 z M 24 19.125 C 20.200546 19.125 17.125 22.2005 17.125 26 C 17.125 29.7995 20.200546 32.875 24 32.875 C 27.799454 32.875 30.875 29.7995 30.875 26 C 30.875 22.2005 27.799454 19.125 24 19.125 z M 38.4375 31.96875 C 39.976959 31.96875 41.21875 33.241791 41.21875 34.78125 C 41.21875 36.320709 39.976959 37.5625 38.4375 37.5625 C 36.898041 37.5625 35.625 36.320709 35.625 34.78125 C 35.625 33.241791 36.898041 31.96875 38.4375 31.96875 z "
       transform="translate(0,1004.3622)"
       id="path821" />
  </g>
</svg>
