<?xml version="1.0" encoding="UTF-8" standalone="no"?>
<!-- Created with Inkscape (http://www.inkscape.org/) -->

<svg
   xmlns:dc="http://purl.org/dc/elements/1.1/"
   xmlns:cc="http://creativecommons.org/ns#"
   xmlns:rdf="http://www.w3.org/1999/02/22-rdf-syntax-ns#"
   xmlns:svg="http://www.w3.org/2000/svg"
   xmlns="http://www.w3.org/2000/svg"
   xmlns:sodipodi="http://sodipodi.sourceforge.net/DTD/sodipodi-0.dtd"
   xmlns:inkscape="http://www.inkscape.org/namespaces/inkscape"
   width="48"
   height="48"
   id="svg2"
   version="1.1"
   inkscape:version="0.48+devel r12180"
   sodipodi:docname="steam_tray.svg"
   inkscape:export-filename="/home/uri/Iconos/NITRUX/apps/16/screenlets.png"
   inkscape:export-xdpi="30"
   inkscape:export-ydpi="30">
  <defs
     id="defs4" />
  <sodipodi:namedview
     id="base"
     pagecolor="#ffffff"
     bordercolor="#666666"
     borderopacity="1.0"
     inkscape:pageopacity="0.0"
     inkscape:pageshadow="2"
     inkscape:zoom="9.110062"
     inkscape:cx="22.81356"
     inkscape:cy="33.935643"
     inkscape:document-units="px"
     inkscape:current-layer="layer1"
     showgrid="false"
     inkscape:window-width="1366"
     inkscape:window-height="716"
     inkscape:window-x="0"
     inkscape:window-y="28"
     inkscape:window-maximized="1">
    <inkscape:grid
       type="xygrid"
       id="grid3850" />
  </sodipodi:namedview>
  <metadata
     id="metadata7">
    <rdf:RDF>
      <cc:Work
         rdf:about="">
        <dc:format>image/svg+xml</dc:format>
        <dc:type
           rdf:resource="http://purl.org/dc/dcmitype/StillImage" />
        <dc:title></dc:title>
      </cc:Work>
    </rdf:RDF>
  </metadata>
  <g
     inkscape:label="Capa 1"
     inkscape:groupmode="layer"
     id="layer1"
     transform="translate(0,-1004.3622)">
    <path
       style="color:#000000;fill:#1a1a1a;fill-opacity:1;fill-rule:nonzero;stroke:none;stroke-width:1.5;marker:none;visibility:visible;display:inline;overflow:visible;enable-background:accumulate"
       d="m 37.130556,1012.3661 c -0.58322,-0.017 -1.183802,0.02 -1.780631,0.125 -4.601473,0.806 -7.686844,5.0796 -7.153764,9.6841 l -4.810828,8.8407 c -0.09916,0.01 -0.182094,0.049 -0.281152,0.062 -1.184704,0.2122 -2.229121,0.7174 -3.092675,1.437 l -17.681355,-5.4039 0,7.9347 15.650811,4.8421 c 1.066447,3.0339 4.211088,4.9451 7.466155,4.3735 3.477695,-0.6106 5.813026,-3.8312 5.435611,-7.31 l 7.185003,-6.9975 c 0.129345,-0.013 0.248707,-0.018 0.374869,-0.062 4.77477,-0.8367 7.933792,-5.4165 7.091286,-10.2152 C 44.79656,1015.4745 41.213095,1012.4855 37.130556,1012.3661 z m -0.656022,2.7803 c 0.200404,-0.01 0.425218,-0.01 0.624783,0 2.793897,0.081 5.24322,2.0912 5.748002,4.967 0.576969,3.2867 -1.604438,6.4239 -4.873306,6.9976 -3.268798,0.5743 -6.38943,-1.6181 -6.966329,-4.9045 -0.577174,-3.2884 1.604375,-6.4239 4.873307,-6.9976 C 36.085291,1015.173 36.274131,1015.1559 36.474534,1015.1464 z m 0.562305,1.5932 c -0.29274,-0.01 -0.606295,0.014 -0.905935,0.062 -2.397891,0.4159 -3.984306,2.7445 -3.561263,5.1544 0.42322,2.4103 2.694875,4.0139 5.091981,3.5925 2.397617,-0.4181 4.015607,-2.7131 3.592501,-5.1232 C 40.883957,1018.3181 39.086016,1016.8012 37.036839,1016.7396 z m -12.651853,15.5883 c 2.458197,0.074 4.648345,1.9087 5.09198,4.436 0.50697,2.8883 -1.407019,5.6506 -4.279762,6.1541 -2.220116,0.3879 -4.348101,-0.6895 -5.435611,-2.5304 l 3.405066,0.9372 c 1.929313,0.5458 4.175388,-0.6937 4.717111,-2.6241 0.541723,-1.9304 -0.723743,-4.1794 -2.655327,-4.7171 l -3.498784,-0.9996 c 0.491605,-0.2722 1.0399,-0.4603 1.624435,-0.5624 C 23.713178,1032.3587 24.033808,1032.3174 24.384986,1032.3279 Z"
       id="path3907"
       inkscape:connector-curvature="0" />
  </g>
</svg>
