<?xml version="1.0" encoding="UTF-8" standalone="no"?>
<!-- Created with Inkscape (http://www.inkscape.org/) -->

<svg
   xmlns:dc="http://purl.org/dc/elements/1.1/"
   xmlns:cc="http://creativecommons.org/ns#"
   xmlns:rdf="http://www.w3.org/1999/02/22-rdf-syntax-ns#"
   xmlns:svg="http://www.w3.org/2000/svg"
   xmlns="http://www.w3.org/2000/svg"
   xmlns:sodipodi="http://sodipodi.sourceforge.net/DTD/sodipodi-0.dtd"
   xmlns:inkscape="http://www.inkscape.org/namespaces/inkscape"
   id="svg3801"
   height="48"
   width="48"
   version="1.1"
   inkscape:version="0.48+devel r12346"
   sodipodi:docname="system-file-manager-panel.svg">
  <defs
     id="defs10" />
  <sodipodi:namedview
     pagecolor="#ffffff"
     bordercolor="#666666"
     borderopacity="1"
     objecttolerance="10"
     gridtolerance="10"
     guidetolerance="10"
     inkscape:pageopacity="0"
     inkscape:pageshadow="2"
     inkscape:window-width="1366"
     inkscape:window-height="714"
     id="namedview8"
     showgrid="false"
     inkscape:zoom="9.8333333"
     inkscape:cx="-6.9661018"
     inkscape:cy="24.20339"
     inkscape:window-x="0"
     inkscape:window-y="30"
     inkscape:window-maximized="1"
     inkscape:current-layer="svg3801" />
  <metadata
     id="metadata16">
    <rdf:RDF>
      <cc:Work
         rdf:about="">
        <dc:format>image/svg+xml</dc:format>
        <dc:type
           rdf:resource="http://purl.org/dc/dcmitype/StillImage" />
        <dc:title />
      </cc:Work>
    </rdf:RDF>
  </metadata>
  <path
     d="m 20,32 8,0 0,-2 -8,0 L 20,32 z m 0,-12 8,0 0,-2 -8,0 L 20,20 z m 16,2.888891 C 36,23.502669 35.565778,24 35.030222,24 L 12.969777,24 C 12.434222,24 12,23.502669 12,22.888891 l 0,-7.777782 C 12,14.497331 12.434222,14 12.969777,14 l 22.060445,0 C 35.565778,14 36,14.497331 36,15.111109 L 36,22.888891 z m 0,12 C 36,35.502669 35.565778,36 35.030222,36 L 12.969777,36 C 12.434222,36 12,35.502669 12,34.888891 l 0,-7.777782 C 12,26.497331 12.434222,26 12.969777,26 l 22.060445,0 C 35.565778,26 36,26.497331 36,27.111109 L 36,34.888891 Z M 36,8 12,8 10,12 10,40 38,40 38,12 36,8 Z"
     style="fill:#1a1a1a;fill-opacity:1;fill-rule:nonzero;stroke:none"
     id="path548"
     inkscape:connector-curvature="0" />
</svg>
