<?xml version="1.0" encoding="UTF-8" standalone="no"?>
<!-- Created with Inkscape (http://www.inkscape.org/) -->

<svg
   xmlns:dc="http://purl.org/dc/elements/1.1/"
   xmlns:cc="http://creativecommons.org/ns#"
   xmlns:rdf="http://www.w3.org/1999/02/22-rdf-syntax-ns#"
   xmlns:svg="http://www.w3.org/2000/svg"
   xmlns="http://www.w3.org/2000/svg"
   xmlns:sodipodi="http://sodipodi.sourceforge.net/DTD/sodipodi-0.dtd"
   xmlns:inkscape="http://www.inkscape.org/namespaces/inkscape"
   version="1.1"
   width="16"
   height="16"
   id="svg7384"
   inkscape:version="0.48+devel r12388"
   sodipodi:docname="camera-photo-symbolic.svg">
  <sodipodi:namedview
     pagecolor="#ffffff"
     bordercolor="#666666"
     borderopacity="1"
     objecttolerance="10"
     gridtolerance="10"
     guidetolerance="10"
     inkscape:pageopacity="0"
     inkscape:pageshadow="2"
     inkscape:window-width="1366"
     inkscape:window-height="714"
     id="namedview8"
     showgrid="false"
     inkscape:zoom="10.429825"
     inkscape:cx="-0.80880643"
     inkscape:cy="4.5887066"
     inkscape:window-x="0"
     inkscape:window-y="30"
     inkscape:window-maximized="1"
     inkscape:current-layer="svg7384" />
  <title
     id="title9167">Gnome Symbolic Icon Theme</title>
  <defs
     id="defs11" />
  <metadata
     id="metadata90">
    <rdf:RDF>
      <cc:Work
         rdf:about="">
        <dc:format>image/svg+xml</dc:format>
        <dc:type
           rdf:resource="http://purl.org/dc/dcmitype/StillImage" />
        <dc:title>Gnome Symbolic Icon Theme</dc:title>
      </cc:Work>
    </rdf:RDF>
  </metadata>
  <g
     id="g4046"
     transform="matrix(0.375,0,0,0.375,2,2)"
     style="fill:#bebebe;fill-opacity:1">
    <g
       id="Layer_1"
       style="fill:#bebebe;fill-opacity:1">
</g>
    <g
       id="camera"
       style="fill:#bebebe;fill-opacity:1">
	<g
   id="g4034"
   style="fill:#bebebe;fill-opacity:1">
		<circle
   id="circle4036"
   r="4"
   cy="20"
   cx="20"
   style="fill:#bebebe;fill-opacity:1"
   sodipodi:cx="20"
   sodipodi:cy="20"
   sodipodi:rx="4"
   sodipodi:ry="4"
   d="m 24,20 c 0,2.209139 -1.790861,4 -4,4 -2.209139,0 -4,-1.790861 -4,-4 0,-2.209139 1.790861,-4 4,-4 C 22.209139,16 24,17.790861 24,20 Z" />

		<path
   id="path4038"
   d="M 28,8 24.711,1.357 C 24.441,0.568 23.695,0 22.812,0 L 17.32,0 C 16.427,0 15.674,0.582 15.416,1.385 L 12.004,8 4,8 C 1.791,8 0,9.791 0,12 l 0,20 32,0 0,-20 C 32,9.791 30.211,8 28,8 Z M 6,16 C 4.895,16 4,15.105 4,14 4,12.895 4.895,12 6,12 7.105,12 8,12.895 8,14 8,15.105 7.105,16 6,16 z m 14,12 c -4.418,0 -8,-3.582 -8,-8 0,-4.418 3.582,-8 8,-8 4.418,0 8,3.582 8,8 C 28,24.418 24.418,28 20,28 Z"
   style="fill:#bebebe;fill-opacity:1"
   inkscape:connector-curvature="0" />

	</g>

</g>
  </g>
</svg>
