<?xml version="1.0" encoding="UTF-8" standalone="no"?>
<!-- Created with Inkscape (http://www.inkscape.org/) -->

<svg
   xmlns:dc="http://purl.org/dc/elements/1.1/"
   xmlns:cc="http://creativecommons.org/ns#"
   xmlns:rdf="http://www.w3.org/1999/02/22-rdf-syntax-ns#"
   xmlns:svg="http://www.w3.org/2000/svg"
   xmlns="http://www.w3.org/2000/svg"
   xmlns:sodipodi="http://sodipodi.sourceforge.net/DTD/sodipodi-0.dtd"
   xmlns:inkscape="http://www.inkscape.org/namespaces/inkscape"
   id="svg7384"
   height="16"
   width="16"
   version="1.1"
   inkscape:version="0.48+devel r12388"
   sodipodi:docname="drive-harddisk-symbolic.svg">
  <defs
     id="defs11">
    <linearGradient
       id="linearGradient1264-7">
      <stop
         id="stop1266-5"
         offset="0"
         style="stop-color:#626262;stop-opacity:1;" />
      <stop
         style="stop-color:#ababab;stop-opacity:1;"
         offset="0.01761973"
         id="stop1268-3" />
      <stop
         style="stop-color:#d2d2d2;stop-opacity:1"
         offset="0.04698669"
         id="stop1270-5" />
      <stop
         style="stop-color:#ffffff;stop-opacity:1"
         offset="0.35622254"
         id="stop1272-4" />
      <stop
         id="stop1274-3"
         offset="0.95644945"
         style="stop-color:#d2d2d2;stop-opacity:1" />
      <stop
         style="stop-color:#ababab;stop-opacity:1;"
         offset="0.97822475"
         id="stop1276-4" />
      <stop
         id="stop1278-6"
         offset="1"
         style="stop-color:#626262;stop-opacity:1;" />
    </linearGradient>
  </defs>
  <sodipodi:namedview
     pagecolor="#ffffff"
     bordercolor="#666666"
     borderopacity="1"
     objecttolerance="10"
     gridtolerance="10"
     guidetolerance="10"
     inkscape:pageopacity="0"
     inkscape:pageshadow="2"
     inkscape:window-width="1366"
     inkscape:window-height="714"
     id="namedview9"
     showgrid="false"
     inkscape:zoom="5.6568543"
     inkscape:cx="-7.0557777"
     inkscape:cy="18.201112"
     inkscape:window-x="0"
     inkscape:window-y="30"
     inkscape:window-maximized="1"
     inkscape:current-layer="svg7384"
     inkscape:showpageshadow="false"
     showborder="true" />
  <metadata
     id="metadata90">
    <rdf:RDF>
      <cc:Work
         rdf:about="">
        <dc:format>image/svg+xml</dc:format>
        <dc:type
           rdf:resource="http://purl.org/dc/dcmitype/StillImage" />
        <dc:title>Gnome Symbolic Icon Theme</dc:title>
      </cc:Work>
    </rdf:RDF>
  </metadata>
  <title
     id="title9167">Gnome Symbolic Icon Theme</title>
  <path
     style="color:#000000;color-interpolation:sRGB;color-interpolation-filters:linearRGB;fill:#bebebe;fill-opacity:1;fill-rule:nonzero;stroke:none;stroke-width:1;marker:none;visibility:visible;display:inline;overflow:visible;enable-background:accumulate;clip-rule:nonzero"
     d="M 2.5 2 C 2.2306807 2 2 2.2306807 2 2.5 L 2 13.5 C 2 13.769319 2.2306807 14 2.5 14 L 13.5 14 C 13.769319 14 14 13.769319 14 13.5 L 14 2.5 C 14 2.2306807 13.769319 2 13.5 2 L 2.5 2 z M 3.40625 3 L 12.59375 3 C 12.818183 3 13 3.1818172 13 3.40625 L 13 12.59375 C 13 12.818183 12.818183 13 12.59375 13 L 3.40625 13 C 3.1818172 13 3 12.818183 3 12.59375 L 3 3.40625 C 3 3.1818172 3.1818172 3 3.40625 3 z "
     id="rect813" />
  <path
     id="path834"
     d="m 5.0485692,3.9386295 6.0037648,0 1.135166,1.1099398 0,2.6991717 -1.311747,1.1603915 0,1.2865215 0.958584,0.201807 -0.02523,1.261295 -0.378388,0.403614 -6.3064761,0 -1.0847138,-0.605421 0,-2.9514309 0.6810994,-0.4036145 0,-1.2360693 L 3.8125,6.0828313 3.8125,4.4179217 Z"
     style="color:#000000;color-interpolation:sRGB;color-interpolation-filters:linearRGB;fill:#bebebe;fill-opacity:1;fill-rule:nonzero;stroke:none;stroke-width:1;marker:none;visibility:visible;display:inline;overflow:visible;enable-background:accumulate;clip-rule:nonzero"
     inkscape:connector-curvature="0"
     sodipodi:nodetypes="ccccccccccccccccc" />
</svg>
