<?xml version="1.0" encoding="UTF-8" standalone="no"?>
<!-- Created with Inkscape (http://www.inkscape.org/) -->

<svg
   xmlns:dc="http://purl.org/dc/elements/1.1/"
   xmlns:cc="http://creativecommons.org/ns#"
   xmlns:rdf="http://www.w3.org/1999/02/22-rdf-syntax-ns#"
   xmlns:svg="http://www.w3.org/2000/svg"
   xmlns="http://www.w3.org/2000/svg"
   xmlns:sodipodi="http://sodipodi.sourceforge.net/DTD/sodipodi-0.dtd"
   xmlns:inkscape="http://www.inkscape.org/namespaces/inkscape"
   width="16px"
   height="16px"
   id="svg3279"
   version="1.1"
   inkscape:version="0.48+devel r12339"
   sodipodi:docname="tag-new.svg">
  <defs
     id="defs3281" />
  <sodipodi:namedview
     id="base"
     pagecolor="#ffffff"
     bordercolor="#666666"
     borderopacity="1.0"
     inkscape:pageopacity="0.0"
     inkscape:pageshadow="2"
     inkscape:zoom="22.197802"
     inkscape:cx="8"
     inkscape:cy="8"
     inkscape:current-layer="layer1"
     showgrid="true"
     inkscape:grid-bbox="true"
     inkscape:document-units="px"
     inkscape:window-width="1366"
     inkscape:window-height="714"
     inkscape:window-x="0"
     inkscape:window-y="30"
     inkscape:window-maximized="1" />
  <metadata
     id="metadata3284">
    <rdf:RDF>
      <cc:Work
         rdf:about="">
        <dc:format>image/svg+xml</dc:format>
        <dc:type
           rdf:resource="http://purl.org/dc/dcmitype/StillImage" />
        <dc:title />
      </cc:Work>
    </rdf:RDF>
  </metadata>
  <g
     id="layer1"
     inkscape:label="Layer 1"
     inkscape:groupmode="layer">
    <path
       inkscape:connector-curvature="0"
       style="fill:#1a1a1a"
       d="m 1.4420935,2.015 0.022916,4.3770014 4.9040748,4.8582426 0,-2.383289 -3.1166083,-3.1395245 0.572906,-0.5729059 3.5061843,3.5061843 1.6041366,0 0,-0.481241 -0.3437433,0.3437436 -4.0561741,-4.0790903 0.572906,-0.5729058 3.8270116,3.8499278 0,-1.924964 0.7104034,0 L 5.8420111,2.015 1.4420935,2.015 z m 1.4208068,0.9166495 c 0.2770772,0 0.481241,0.2267621 0.481241,0.5041573 0,0.2767593 -0.2041638,0.5041572 -0.481241,0.5041572 C 2.5858229,3.939964 2.358743,3.7125661 2.358743,3.4358068 2.358743,3.1584116 2.5858229,2.9316495 2.8629003,2.9316495 z m -0.481241,5.1790698 2.6582835,4.9040747 1.3291418,-0.618739 0,-0.412492 L 2.3816593,8.1107193 Z"
       id="path1084" />
    <path
       inkscape:connector-curvature="0"
       style="fill:#1a1a1a;fill-opacity:1;stroke:none"
       d="m 7.4842613,9.3368449 -5.1e-6,2.2226551 2.4254942,6e-6 5.9e-6,2.425494 2.2226557,-5e-6 -6e-6,-2.425495 2.425496,6e-6 4e-6,-2.2226551 -2.425494,-6e-6 -7e-6,-2.425494 -2.2226546,5e-6 5.9e-6,2.425495 L 7.4842613,9.3368449 Z"
       id="rect1923-0" />
  </g>
</svg>
