<?xml version="1.0" encoding="UTF-8" standalone="no"?>
<!-- Created with Inkscape (http://www.inkscape.org/) -->

<svg
   xmlns:dc="http://purl.org/dc/elements/1.1/"
   xmlns:cc="http://creativecommons.org/ns#"
   xmlns:rdf="http://www.w3.org/1999/02/22-rdf-syntax-ns#"
   xmlns:svg="http://www.w3.org/2000/svg"
   xmlns="http://www.w3.org/2000/svg"
   xmlns:xlink="http://www.w3.org/1999/xlink"
   xmlns:sodipodi="http://sodipodi.sourceforge.net/DTD/sodipodi-0.dtd"
   xmlns:inkscape="http://www.inkscape.org/namespaces/inkscape"
   width="48"
   height="48"
   id="svg6391"
   version="1.1"
   inkscape:version="0.48+devel r12269"
   sodipodi:docname="application-x-python-bytecode.svg">
  <defs
     id="defs6393">
    <linearGradient
       id="linearGradient943">
      <stop
         id="stop945"
         offset="0"
         style="stop-color:#e9871d;stop-opacity:1" />
      <stop
         id="stop947"
         offset="1"
         style="stop-color:#fcd250;stop-opacity:1" />
    </linearGradient>
    <linearGradient
       y2="13.07393"
       x2="11.579766"
       y1="21.890017"
       x1="20.395853"
       gradientTransform="matrix(-1,0,0,1,529.71371,531.21941)"
       gradientUnits="userSpaceOnUse"
       id="linearGradient6280"
       xlink:href="#linearGradient6288"
       inkscape:collect="always" />
    <linearGradient
       inkscape:collect="always"
       id="linearGradient6288">
      <stop
         style="stop-color:#000000;stop-opacity:0.13080169"
         offset="0"
         id="stop6290" />
      <stop
         style="stop-color:#ffffff;stop-opacity:0;"
         offset="1"
         id="stop6292" />
    </linearGradient>
    <linearGradient
       gradientUnits="userSpaceOnUse"
       y2="13.07393"
       x2="11.019455"
       y1="13.07393"
       x1="23.533073"
       id="linearGradient6268"
       xlink:href="#linearGradient6262"
       inkscape:collect="always"
       gradientTransform="translate(481.71371,531.21941)" />
    <linearGradient
       id="linearGradient6262"
       inkscape:collect="always">
      <stop
         id="stop6264"
         offset="0"
         style="stop-color:#ffffff;stop-opacity:0.25738397" />
      <stop
         id="stop6266"
         offset="1"
         style="stop-color:#ffffff;stop-opacity:0;" />
    </linearGradient>
    <linearGradient
       inkscape:collect="always"
       xlink:href="#linearGradient6282"
       id="linearGradient942"
       gradientUnits="userSpaceOnUse"
       gradientTransform="matrix(1,0,0,-1,481.71371,579.21941)"
       x1="17.60643"
       y1="19.660906"
       x2="11.019455"
       y2="13.07393" />
    <linearGradient
       inkscape:collect="always"
       id="linearGradient6282">
      <stop
         style="stop-color:#000000;stop-opacity:0.10970464"
         offset="0"
         id="stop6284" />
      <stop
         style="stop-color:#ffffff;stop-opacity:0;"
         offset="1"
         id="stop6286" />
    </linearGradient>
    <linearGradient
       inkscape:collect="always"
       xlink:href="#linearGradient6262"
       id="linearGradient924"
       gradientUnits="userSpaceOnUse"
       gradientTransform="matrix(-1,0,0,1,529.71371,554.06311)"
       x1="23.533073"
       y1="13.07393"
       x2="11.579766"
       y2="13.07393" />
    <linearGradient
       gradientTransform="translate(416.82086,469.86875)"
       gradientUnits="userSpaceOnUse"
       y2="-1001.0899"
       x2="92.14286"
       y1="-1049.092"
       x1="92.14286"
       id="linearGradient58"
       xlink:href="#linearGradient943"
       inkscape:collect="always" />
  </defs>
  <sodipodi:namedview
     id="base"
     pagecolor="#ffffff"
     bordercolor="#666666"
     borderopacity="1.0"
     inkscape:pageopacity="0.0"
     inkscape:pageshadow="2"
     inkscape:zoom="1.979899"
     inkscape:cx="129.49374"
     inkscape:cy="50.617613"
     inkscape:document-units="px"
     inkscape:current-layer="layer1"
     showgrid="false"
     fit-margin-top="0"
     fit-margin-left="0"
     fit-margin-right="0"
     fit-margin-bottom="0"
     inkscape:window-width="1366"
     inkscape:window-height="716"
     inkscape:window-x="0"
     inkscape:window-y="28"
     inkscape:window-maximized="1" />
  <metadata
     id="metadata6396">
    <rdf:RDF>
      <cc:Work
         rdf:about="">
        <dc:format>image/svg+xml</dc:format>
        <dc:type
           rdf:resource="http://purl.org/dc/dcmitype/StillImage" />
        <dc:title />
      </cc:Work>
    </rdf:RDF>
  </metadata>
  <g
     inkscape:label="Capa 1"
     inkscape:groupmode="layer"
     id="layer1"
     transform="translate(-481.71429,-531.2193)">
    <rect
       style="fill:url(#linearGradient58);fill-opacity:1;stroke:none"
       id="rect2991-1-7-3"
       width="48"
       height="48"
       x="481.71429"
       y="-579.2193"
       ry="1.9445436"
       transform="scale(1,-1)" />
    <g
       id="g4136"
       transform="matrix(0.68995986,0,0,0.68995986,114.20827,178.84503)"
       style="fill:#ffffff">
      <path
         id="path2732"
         transform="translate(481.71429,531.2193)"
         d="m 97.75,4.0625 0,3.625 0,0.03125 -0.25,1.25 c 0,0.1780269 -0.02025,0.3600366 -0.03125,0.53125 -0.781953,2.525937 -3.092374,4.738606 -5.625,5.375 -0.02161,9.7e-4 -0.04079,0.03044 -0.0625,0.03125 -0.106015,0.0039 -0.204228,0 -0.3125,0 l -3.03125,0.1875 -7.75,0.03125 c -2.91888,0 -5.46875,1.90096 -5.46875,5.375 l 0,0.53125 0,10.1875 c 0,2.89997 2.57287,4.60552 5.46875,5.4375 3.46775,0.99599 6.78838,1.176 10.9375,0 0.353993,-0.100114 0.715503,-0.21624 1.0625,-0.34375 2.472792,-0.864106 4.96875,-2.391776 4.96875,-5.09375 l 0,-5.03125 4.9375,0 c 2.38787,0 3.6443,-1.468172 4.59375,-3.5625 0.004,-0.0086 -0.004,-0.02263 0,-0.03125 0.31648,-0.661868 0.59819,-1.436007 0.875,-2.25 1.14375,-3.35197 1.09507,-6.5438 0,-10.84375 -0.78683,-3.09597 -2.28086,-5.4375 -5.46875,-5.4375 l -4.125,0 L 97.75,4.0625 Z M 91.78125,29.375 c 1.13564,0 2.03125,0.90726 2.03125,2.03125 0,1.12799 -0.89561,2.03125 -2.03125,2.03125 -1.13158,0 -2.0625,-0.90326 -2.0625,-2.03125 C 89.71875,30.28226 90.64967,29.375 91.78125,29.375 Z"
         style="fill:#ffffff;fill-opacity:1;stroke:none"
         inkscape:connector-curvature="0" />
      <path
         id="path2730"
         transform="translate(481.71429,531.2193)"
         d="m 85.53125,-8.90625 c -0.996902,-0.012569 -2.022833,0.081355 -3.09375,0.25 -0.01982,0.00312 -0.04265,-0.00319 -0.0625,0 -0.881694,0.074313 -1.713167,0.1765025 -2.5,0.3125 -3.187133,0.5499931 -4.567704,1.5106741 -5.125,3.0625 -0.597093,0.7226782 -0.96875,1.5846755 -0.96875,2.625 l 0,5.03125 0.625,0 0,0.03125 -0.625,0 -4.9375,0 c -2.510011,0 -3.752242,1.6055086 -4.71875,3.875 -0.04492,0.1054712 -0.112538,0.2041971 -0.15625,0.3125 -0.0395,0.084431 -0.08813,0.162941 -0.125,0.25 -0.02422,0.062364 -0.03857,0.124326 -0.0625,0.1875 -0.132841,0.3376031 -0.251764,0.6873885 -0.34375,1.0625 -0.01531,0.044645 -0.04723,0.080087 -0.0625,0.125 -1.14375,3.35196 -1.09508,6.57504 0,10.875 0.78683,3.09597 2.28086,5.4375 5.46875,5.4375 l 4.8125,0 0,-4.3125 c 0,-3.68396 4.01167,-6.78125 6.875,-6.78125 l 10.21875,0 c 2.130872,0 3.972837,-1.516732 4.875,-3.4375 0.05648,-0.1040125 0.106527,-0.2045865 0.15625,-0.3125 0.02083,-0.051525 0.04307,-0.1042465 0.0625,-0.15625 0.05081,-0.1201734 0.0828,-0.2506712 0.125,-0.375 0.185969,-0.5479679 0.3125,-1.1411499 0.3125,-1.75 l 0,-10.1875 c 0,-2.89997 -2.49583,-5.0785 -5.46875,-5.5625 -0.879211,-0.1429573 -1.766138,-0.2402193 -2.65625,-0.3125 -0.06197,-0.00993 -0.125462,-0.021933 -0.1875,-0.03125 -0.01033,-7.832e-4 -0.02092,7.739e-4 -0.03125,0 C 87.143837,-8.8053801 86.349178,-8.8959375 85.53125,-8.90625 z m -5.8125,2.25 c 1.09789,0 2,0.86832 2,1.9375 0,1.06537 -0.90211,1.9375 -2,1.9375 -1.10181,0 -1.96875,-0.87213 -1.96875,-1.9375 C 77.75,-5.78793 78.61694,-6.65625 79.71875,-6.65625 Z"
         style="fill:#ffffff;fill-opacity:1;stroke:none"
         inkscape:connector-curvature="0" />
    </g>
    <path
       inkscape:connector-curvature="0"
       style="fill:#000000;fill-opacity:1;stroke:none"
       d="m 481.71428,576.21931 0,1.0625 c 0,1.0773 0.86022,1.9375 1.9375,1.9375 l 44.125,0 c 1.07728,0 1.9375,-0.8602 1.9375,-1.9375 l 0,-1.0625 c 0,1.0773 -0.86022,1.9375 -1.9375,1.9375 l -44.125,0 C 482.5745,578.15681 481.71428,577.29661 481.71428,576.21931 Z"
       id="rect846-0" />
    <path
       inkscape:connector-curvature="0"
       style="fill:#ffffff;fill-opacity:0.5372549;stroke:none"
       d="m 484.24553,531.87561 c -0.91709,0 -1.67115,0.6395 -1.84375,1.5 0.33561,-0.2799 0.77451,-0.4375 1.25,-0.4375 l 44.125,0 c 0.47549,0 0.91439,0.1576 1.25,0.4375 -0.1726,-0.8605 -0.92666,-1.5 -1.84375,-1.5 L 484.24553,531.87561 Z"
       id="path7515-3" />
    <path
       inkscape:connector-curvature="0"
       style="fill:#000000;fill-opacity:0.39215686;stroke:none"
       d="m 483.65178,531.21931 c -1.07728,0 -1.9375,0.8602 -1.9375,1.9375 l 0,43.0625 c 0,0.7934 0.48002,1.449 1.15625,1.75 -0.30934,-0.3333 -0.5,-0.7824 -0.5,-1.2812 l 0,-42.9375 c 0,-1.0482 0.8269,-1.875 1.875,-1.875 l 42.9375,0 c 1.0481,0 1.875,0.8268 1.875,1.875 l 0,42.9375 c 0,0.4988 -0.19066,0.9479 -0.5,1.2812 0.67623,-0.301 1.15625,-0.9566 1.15625,-1.75 l 0,-43.0625 c 0,-1.0773 -0.86022,-1.9375 -1.9375,-1.9375 L 483.65178,531.21931 Z"
       id="rect4280-1" />
    <path
       style="opacity:0.6;color:#000000;fill:url(#linearGradient924);fill-opacity:1;fill-rule:nonzero;stroke:none;stroke-width:1;marker:none;visibility:visible;display:inline;overflow:visible;enable-background:accumulate"
       d="m 505.71341,555.21931 0,22.8438 20.0625,0 c 0.10844,-0.2427 0.1875,-0.4974 0.1875,-0.7813 l 0,-21.5625 c -0.64338,-0.3128 -1.36133,-0.5 -2.125,-0.5 L 505.71341,555.21931 Z"
       id="path6270"
       inkscape:connector-curvature="0" />
    <path
       style="opacity:0.6;color:#000000;fill:url(#linearGradient942);fill-opacity:1;fill-rule:nonzero;stroke:none;stroke-width:1;marker:none;visibility:visible;display:inline;overflow:visible;enable-background:accumulate"
       d="m 485.46341,555.21931 0,22.0625 c 0,0.1012 0.0165,0.1843 0.0312,0.2813 0.63718,0.3053 1.33979,0.5 2.09375,0.5 l 18.125,0 0,-22.8438 L 485.46341,555.21931 Z"
       id="path6274"
       inkscape:connector-curvature="0" />
    <path
       style="opacity:0.6;color:#000000;fill:url(#linearGradient6268);fill-opacity:1;fill-rule:nonzero;stroke:none;stroke-width:1;marker:none;visibility:visible;display:inline;overflow:visible;enable-background:accumulate"
       d="m 487.58841,532.37561 c -0.75396,0 -1.45657,0.1946 -2.09375,0.5 -0.0148,0.097 -0.0312,0.18 -0.0312,0.2812 l 0,22.0625 20.25,0 0,-22.8437 L 487.58841,532.37561 Z"
       id="path6249"
       inkscape:connector-curvature="0" />
    <path
       style="opacity:0.6;color:#000000;fill:url(#linearGradient6280);fill-opacity:1;fill-rule:nonzero;stroke:none;stroke-width:1;marker:none;visibility:visible;display:inline;overflow:visible;enable-background:accumulate"
       d="m 505.71341,532.37561 0,22.8437 20.25,0 0,-22.0625 c 0,-0.1012 -0.0165,-0.1843 -0.0312,-0.2812 -0.63718,-0.3054 -1.33979,-0.5 -2.09375,-0.5 L 505.71341,532.37561 Z"
       id="path6276"
       inkscape:connector-curvature="0" />
  </g>
</svg>
