<?xml version="1.0" encoding="UTF-8" standalone="no"?>
<!-- Created with Inkscape (http://www.inkscape.org/) -->

<svg
   xmlns:dc="http://purl.org/dc/elements/1.1/"
   xmlns:cc="http://creativecommons.org/ns#"
   xmlns:rdf="http://www.w3.org/1999/02/22-rdf-syntax-ns#"
   xmlns:svg="http://www.w3.org/2000/svg"
   xmlns="http://www.w3.org/2000/svg"
   xmlns:xlink="http://www.w3.org/1999/xlink"
   xmlns:sodipodi="http://sodipodi.sourceforge.net/DTD/sodipodi-0.dtd"
   xmlns:inkscape="http://www.inkscape.org/namespaces/inkscape"
   width="48"
   height="48"
   id="svg5453"
   version="1.1"
   inkscape:version="0.48+devel r12388"
   sodipodi:docname="goa-account.svg">
  <defs
     id="defs5455">
    <linearGradient
       inkscape:collect="always"
       id="linearGradient4616">
      <stop
         style="stop-color:#64717f;stop-opacity:1"
         offset="0"
         id="stop4618" />
      <stop
         style="stop-color:#444e56;stop-opacity:1"
         offset="1"
         id="stop4620" />
    </linearGradient>
    <linearGradient
       inkscape:collect="always"
       id="linearGradient4592">
      <stop
         style="stop-color:#bcc6cf;stop-opacity:1"
         offset="0"
         id="stop4594" />
      <stop
         style="stop-color:#ebeef1;stop-opacity:1"
         offset="1"
         id="stop4596" />
    </linearGradient>
    <linearGradient
       inkscape:collect="always"
       xlink:href="#linearGradient4592"
       id="linearGradient4598"
       x1="414.98352"
       y1="-547.80841"
       x2="414.98352"
       y2="-499.79495"
       gradientUnits="userSpaceOnUse" />
    <linearGradient
       inkscape:collect="always"
       xlink:href="#linearGradient4616"
       id="linearGradient4622"
       x1="410.57144"
       y1="539.7959"
       x2="410.57144"
       y2="507.798"
       gradientUnits="userSpaceOnUse"
       gradientTransform="matrix(0.94985369,0,0,0.94985369,20.489452,25.464202)" />
  </defs>
  <sodipodi:namedview
     id="base"
     pagecolor="#ffffff"
     bordercolor="#666666"
     borderopacity="1.0"
     inkscape:pageopacity="0"
     inkscape:pageshadow="2"
     inkscape:zoom="2"
     inkscape:cx="-141.07336"
     inkscape:cy="18.585296"
     inkscape:document-units="px"
     inkscape:current-layer="layer1"
     showgrid="false"
     fit-margin-top="0"
     fit-margin-left="0"
     fit-margin-right="0"
     fit-margin-bottom="0"
     inkscape:window-width="1366"
     inkscape:window-height="714"
     inkscape:window-x="0"
     inkscape:window-y="30"
     inkscape:window-maximized="1" />
  <metadata
     id="metadata5458">
    <rdf:RDF>
      <cc:Work
         rdf:about="">
        <dc:format>image/svg+xml</dc:format>
        <dc:type
           rdf:resource="http://purl.org/dc/dcmitype/StillImage" />
        <dc:title></dc:title>
      </cc:Work>
    </rdf:RDF>
  </metadata>
  <g
     inkscape:label="Capa 1"
     inkscape:groupmode="layer"
     id="layer1"
     transform="translate(-384.57143,-499.798)">
    <rect
       style="fill:url(#linearGradient4598);fill-opacity:1;stroke:none"
       id="rect2991-1-7"
       width="48"
       height="48"
       x="384.57144"
       y="-547.79797"
       ry="1.9445436"
       transform="scale(1,-1)" />
    <path
       style="fill:#ffffff;fill-opacity:0.39215687;stroke:none"
       d="M 1.9375 0 C 0.86022285 0 0 0.86022285 0 1.9375 L 0 24 L 48 24 L 48 1.9375 C 48 0.86022285 47.139777 0 46.0625 0 L 1.9375 0 z "
       transform="translate(384.57143,499.798)"
       id="rect4676" />
    <path
       inkscape:connector-curvature="0"
       style="fill:#000000;fill-opacity:1;stroke:none"
       d="m 384.57143,544.79799 0,1.0625 c 0,1.0773 0.86022,1.9375 1.9375,1.9375 l 44.125,0 c 1.07728,0 1.9375,-0.8602 1.9375,-1.9375 l 0,-1.0625 c 0,1.0773 -0.86022,1.9375 -1.9375,1.9375 l -44.125,0 C 385.43165,546.73549 384.57143,545.87529 384.57143,544.79799 Z"
       id="rect846" />
    <path
       inkscape:connector-curvature="0"
       style="fill:#ffffff;fill-opacity:0.5372549;stroke:none"
       d="m 387.10268,500.45429 c -0.91709,0 -1.67115,0.6395 -1.84375,1.5 0.33561,-0.2799 0.77451,-0.4375 1.25,-0.4375 l 44.125,0 c 0.47549,0 0.91439,0.1576 1.25,0.4375 -0.1726,-0.8605 -0.92666,-1.5 -1.84375,-1.5 L 387.10268,500.45429 Z"
       id="path7515" />
    <path
       inkscape:connector-curvature="0"
       style="fill:#000000;fill-opacity:0.39215686;stroke:none"
       d="m 386.50893,499.79799 c -1.07728,0 -1.9375,0.8602 -1.9375,1.9375 l 0,43.0625 c 0,0.7934 0.48002,1.449 1.15625,1.75 -0.30934,-0.3333 -0.5,-0.7824 -0.5,-1.2812 l 0,-42.9375 c 0,-1.0482 0.8269,-1.875 1.875,-1.875 l 42.9375,0 c 1.0481,0 1.875,0.8268 1.875,1.875 l 0,42.9375 c 0,0.4988 -0.19066,0.9479 -0.5,1.2812 0.67623,-0.301 1.15625,-0.9566 1.15625,-1.75 l 0,-43.0625 c 0,-1.0773 -0.86022,-1.9375 -1.9375,-1.9375 L 386.50893,499.79799 Z"
       id="rect4280" />
    <path
       style="fill:#ffffff;fill-opacity:0.23529412;stroke:none"
       d="m 424.83878,519.46433 c -0.0177,0.93253 -0.0889,1.83164 -0.32651,2.70115 0.0334,0.013 0.0559,0.046 0.089,0.0594 0.17611,-0.79817 0.26715,-1.59913 0.26715,-2.46368 C 424.86847,519.66061 424.84143,519.56429 424.83878,519.46433 z m -31.8201,2.93861 c -0.004,0.1005 0,0.19529 0,0.29683 0,0.70121 0.18177,1.39188 0.38588,2.04812 0.0508,-0.006 0.0973,0.005 0.14842,0 C 393.31479,524.01632 393.06425,523.21188 393.01868,522.40294 z m 36.80683,7.71756 c -0.12618,4.44709 -3.77601,8.07376 -8.25185,8.07376 l -27.45671,0 c -0.0638,0 -0.11465,0.002 -0.1781,0 -3.56331,-0.0987 -6.50842,-3.00456 -6.64897,-6.55993 -0.004,0.0894 0,0.1767 0,0.26715 0,3.67691 2.99649,6.72595 6.64897,6.82707 0.0635,0.002 0.11423,0 0.1781,0 l 27.45671,0 c 4.55467,0 8.28154,-3.72687 8.28154,-8.28154 C 429.8552,530.33735 429.82991,530.2292 429.82551,530.1205 Z"
       id="path4624"
       inkscape:connector-curvature="0" />
    <path
       inkscape:connector-curvature="0"
       id="path4629"
       d="m 424.83878,519.99862 c -0.0177,0.93253 -0.0889,1.83164 -0.32651,2.70115 0.0334,0.013 0.0559,0.046 0.089,0.0594 0.17611,-0.79817 0.26715,-1.59913 0.26715,-2.46368 C 424.86847,520.1949 424.84143,520.09858 424.83878,519.99862 z m -31.8201,2.93861 c -0.004,0.10051 0,0.19529 0,0.29683 0,0.70121 0.18177,1.39188 0.38588,2.04812 0.0508,-0.006 0.0973,0.005 0.14842,0 C 393.31479,524.55061 393.06425,523.74617 393.01868,522.93723 z m 36.80683,7.71756 c -0.12618,4.44709 -3.77601,8.07376 -8.25185,8.07376 l -27.45671,0 c -0.0638,0 -0.11465,0.002 -0.1781,0 -3.56331,-0.0987 -6.50842,-3.00456 -6.64897,-6.55993 -0.004,0.0894 0,0.1767 0,0.26715 0,3.67691 2.99649,6.72595 6.64897,6.82707 0.0635,0.002 0.11423,0 0.1781,0 l 27.45671,0 c 4.55467,0 8.28154,-3.72686 8.28154,-8.28154 C 429.8552,530.87164 429.82991,530.76349 429.82551,530.65479 Z"
       style="fill:#ffffff;fill-opacity:0.11886411;stroke:none" />
    <path
       style="fill:#ffffff;fill-opacity:0.05882353;stroke:none"
       d="m 424.83878,520.53291 c -0.0177,0.93253 -0.0889,1.83165 -0.32651,2.70115 0.0334,0.013 0.0559,0.046 0.089,0.0594 0.17611,-0.79817 0.26715,-1.59914 0.26715,-2.46369 C 424.86847,520.72919 424.84143,520.63288 424.83878,520.53291 z m -31.8201,2.93861 c -0.004,0.10051 0,0.19529 0,0.29683 0,0.70121 0.18177,1.39188 0.38588,2.04813 0.0508,-0.006 0.0973,0.005 0.14842,0 C 393.31479,525.08491 393.06425,524.28047 393.01868,523.47152 z m 36.80683,7.71757 c -0.12618,4.44709 -3.77601,8.07375 -8.25185,8.07375 l -27.45671,0 c -0.0638,0 -0.11465,0.002 -0.1781,0 -3.56331,-0.0987 -6.50842,-3.00456 -6.64897,-6.55993 -0.004,0.0894 0,0.17671 0,0.26715 0,3.67691 2.99649,6.72595 6.64897,6.82707 0.0635,0.002 0.11423,0 0.1781,0 l 27.45671,0 c 4.55467,0 8.28154,-3.72686 8.28154,-8.28153 C 429.8552,531.40594 429.82991,531.29779 429.82551,531.18909 Z"
       id="path4631"
       inkscape:connector-curvature="0" />
    <path
       style="fill:url(#linearGradient4622);fill-opacity:1;stroke:none"
       d="m 413.45408,507.79798 c -4.49044,0 -8.29725,2.66004 -10.13152,6.44733 -0.66364,-0.17221 -1.30878,-0.18421 -2.02629,-0.18421 -4.55468,0 -8.28942,3.55053 -8.28942,8.10521 0,0.89195 0.29067,1.77438 0.55262,2.57893 -3.46786,0.29562 -6.26311,3.08714 -6.26311,6.63154 0,3.67691 2.97905,6.71462 6.63153,6.81574 0.0634,0.002 0.12034,0 0.18421,0 l 27.44719,0 c 4.55467,0 8.28943,-3.73475 8.28943,-8.28942 0,-3.5018 -2.26307,-6.54061 -5.34207,-7.73679 0.26068,-0.95393 0.36842,-1.91074 0.36842,-2.94735 C 424.87506,512.96021 419.71283,507.79798 413.45408,507.79798 Z"
       id="path4600"
       inkscape:connector-curvature="0" />
    <path
       style="fill:#000000;fill-opacity:0.234618;stroke:none"
       d="m 413.44054,507.79801 c -4.49044,0 -8.28762,2.6539 -10.12188,6.44119 -0.66364,-0.17221 -1.30093,-0.17809 -2.01844,-0.17809 -4.55468,0 -8.28154,3.54875 -8.28154,8.10343 0,0.0871 -0.005,0.1803 0,0.26715 0.17697,-4.39346 3.83855,-7.77693 8.28154,-7.77693 0.71751,0 1.3548,0.006 2.01844,0.1781 1.83426,-3.78729 5.63144,-6.44119 10.12188,-6.44119 6.14819,0 11.22033,4.99251 11.39824,11.10141 0.002,-0.0923 0.0297,-0.17357 0.0297,-0.26715 C 424.86846,512.96718 419.69929,507.79801 413.44054,507.79801 z m 11.19046,14.4259 c -0.0385,0.18007 -0.0697,0.35494 -0.11873,0.53429 2.97385,1.15533 5.16559,4.04094 5.31324,7.39105 0.002,-0.0811 0.0297,-0.15582 0.0297,-0.23746 C 429.8552,526.45757 427.64604,523.45297 424.631,522.22391 z m -31.22644,2.55273 c -3.39549,0.36456 -6.11468,3.09838 -6.11468,6.58961 0,0.0997 -0.004,0.19809 0,0.29683 0.15234,-3.40107 2.89355,-6.03522 6.2631,-6.32246 C 393.49408,525.15972 393.46273,524.96464 393.40456,524.77664 Z"
       id="path4633"
       inkscape:connector-curvature="0" />
    <path
       id="path4638"
       d="m 413.44054,508.39167 c -4.49044,0 -8.28762,2.6539 -10.12188,6.44119 -0.66364,-0.17221 -1.30093,-0.1781 -2.01844,-0.1781 -4.55468,0 -8.28154,3.54876 -8.28154,8.10344 0,0.0871 -0.006,0.1803 0,0.26715 0.17697,-4.39345 3.83855,-7.77693 8.28154,-7.77693 0.71751,0 1.3548,0.006 2.01844,0.1781 1.83426,-3.78729 5.63144,-6.4412 10.12188,-6.4412 6.14819,0 11.22033,4.99252 11.39824,11.10142 0.002,-0.0923 0.0296,-0.17357 0.0296,-0.26715 C 424.86846,513.56084 419.69929,508.39167 413.44054,508.39167 z m 11.19046,14.4259 c -0.0385,0.18007 -0.0697,0.35493 -0.11873,0.53429 2.97385,1.15533 5.16559,4.04094 5.31324,7.39105 0.003,-0.0811 0.0296,-0.15582 0.0296,-0.23746 C 429.8552,527.05122 427.64604,524.04663 424.631,522.81757 z m -31.22644,2.55273 c -3.3955,0.36455 -6.11468,3.09838 -6.11468,6.58961 0,0.0997 -0.005,0.19809 0,0.29683 0.15235,-3.40107 2.89356,-6.03522 6.2631,-6.32246 C 393.49408,525.75338 393.46273,525.5583 393.40456,525.3703 Z"
       style="fill:#000000;fill-opacity:0.11832317;stroke:none"
       inkscape:connector-curvature="0" />
    <path
       inkscape:connector-curvature="0"
       style="fill:#000000;fill-opacity:0.05747124;stroke:none"
       d="m 413.44054,508.98532 c -4.49044,0 -8.28762,2.65391 -10.12188,6.4412 -0.66364,-0.17221 -1.30093,-0.1781 -2.01844,-0.1781 -4.55468,0 -8.28154,3.54876 -8.28154,8.10344 0,0.0871 -0.006,0.1803 0,0.26715 0.17697,-4.39346 3.83855,-7.77693 8.28154,-7.77693 0.71751,0 1.3548,0.006 2.01844,0.1781 1.83426,-3.7873 5.63144,-6.4412 10.12188,-6.4412 6.14819,0 11.22033,4.99252 11.39824,11.10142 0.002,-0.0923 0.0296,-0.17357 0.0296,-0.26715 C 424.86846,514.15449 419.69929,508.98532 413.44054,508.98532 z m 11.19046,14.42591 c -0.0385,0.18007 -0.0697,0.35493 -0.11873,0.53429 2.97385,1.15533 5.16559,4.04093 5.31324,7.39105 0.003,-0.0811 0.0296,-0.15582 0.0296,-0.23746 C 429.8552,527.64488 427.64604,524.64029 424.631,523.41123 z m -31.22644,2.55273 c -3.3955,0.36455 -6.11468,3.09837 -6.11468,6.58961 0,0.0997 -0.005,0.19809 0,0.29683 0.15235,-3.40108 2.89356,-6.03522 6.2631,-6.32247 C 393.49408,526.34704 393.46273,526.15195 393.40456,525.96396 Z"
       id="path4640" />
  </g>
</svg>
