<?xml version="1.0" encoding="UTF-8" standalone="no"?>
<!-- Created with Inkscape (http://www.inkscape.org/) -->

<svg
   xmlns:dc="http://purl.org/dc/elements/1.1/"
   xmlns:cc="http://creativecommons.org/ns#"
   xmlns:rdf="http://www.w3.org/1999/02/22-rdf-syntax-ns#"
   xmlns:svg="http://www.w3.org/2000/svg"
   xmlns="http://www.w3.org/2000/svg"
   xmlns:xlink="http://www.w3.org/1999/xlink"
   xmlns:sodipodi="http://sodipodi.sourceforge.net/DTD/sodipodi-0.dtd"
   xmlns:inkscape="http://www.inkscape.org/namespaces/inkscape"
   width="48"
   height="48"
   id="svg2"
   version="1.1"
   inkscape:version="0.48+devel r12191"
   sodipodi:docname="redhat-internet.svg">
  <defs
     id="defs4">
    <linearGradient
       inkscape:collect="always"
       xlink:href="#linearGradient3795-17"
       id="linearGradient3801"
       x1="23.204165"
       y1="1053.158"
       x2="23.204165"
       y2="1004.8474"
       gradientUnits="userSpaceOnUse"
       gradientTransform="translate(0,-2056.7244)" />
    <linearGradient
       id="linearGradient3795-17">
      <stop
         id="stop3797-46"
         offset="0"
         style="stop-color:#74bef2;stop-opacity:1;" />
      <stop
         id="stop3799-73"
         offset="1"
         style="stop-color:#1482cf;stop-opacity:1;" />
    </linearGradient>
    <linearGradient
       id="linearGradient5944-6-9-3">
      <stop
         id="stop5946-9-5-0"
         style="stop-color:#f0f0f0;stop-opacity:1"
         offset="0" />
      <stop
         id="stop5952-4-9-7"
         style="stop-color:#e6e6e6;stop-opacity:1"
         offset="0.5" />
      <stop
         id="stop5954-4-7-2"
         style="stop-color:#d2d2d2;stop-opacity:1"
         offset="0.5" />
      <stop
         id="stop5948-6-2-1"
         style="stop-color:#bebebe;stop-opacity:1"
         offset="1" />
    </linearGradient>
    <linearGradient
       x1="59"
       y1="88"
       x2="69"
       y2="88"
       id="linearGradient4580"
       xlink:href="#linearGradient5944-6-9-3"
       gradientUnits="userSpaceOnUse" />
    <linearGradient
       id="linearGradient5932-3-2-4">
      <stop
         id="stop5934-3-2-9"
         style="stop-color:#ff7c53;stop-opacity:1"
         offset="0" />
      <stop
         id="stop5940-1-4-5"
         style="stop-color:#f21919;stop-opacity:1"
         offset="0.5" />
      <stop
         id="stop5942-5-4-7"
         style="stop-color:#db1414;stop-opacity:1"
         offset="0.5" />
      <stop
         id="stop5936-2-5-0"
         style="stop-color:#9b1818;stop-opacity:1"
         offset="1" />
    </linearGradient>
    <linearGradient
       x1="59"
       y1="40"
       x2="69"
       y2="40"
       id="linearGradient4578"
       xlink:href="#linearGradient5932-3-2-4"
       gradientUnits="userSpaceOnUse" />
    <linearGradient
       x1="48"
       y1="20.220806"
       x2="48"
       y2="138.66119"
       id="linearGradient2885"
       xlink:href="#linearGradient3737-6"
       gradientUnits="userSpaceOnUse" />
    <filter
       x="-0.192"
       y="-0.192"
       width="1.3839999"
       height="1.3839999"
       color-interpolation-filters="sRGB"
       id="filter3794">
      <feGaussianBlur
         id="feGaussianBlur3796"
         stdDeviation="5.28" />
    </filter>
    <clipPath
       id="clipPath3613">
      <rect
         width="84"
         height="84"
         rx="6"
         ry="6"
         x="6"
         y="6"
         id="rect3615"
         style="fill:#ffffff;fill-opacity:1;fill-rule:nonzero;stroke:none" />
    </clipPath>
    <linearGradient
       id="linearGradient3737-6">
      <stop
         id="stop3739-73"
         style="stop-color:#ffffff;stop-opacity:1"
         offset="0" />
      <stop
         id="stop3741-6"
         style="stop-color:#ffffff;stop-opacity:0"
         offset="1" />
    </linearGradient>
    <filter
       color-interpolation-filters="sRGB"
       id="filter3174">
      <feGaussianBlur
         id="feGaussianBlur3176"
         stdDeviation="1.71" />
    </filter>
    <linearGradient
       x1="45.447727"
       y1="92.539597"
       x2="45.447727"
       y2="7.0165396"
       id="ButtonShadow"
       gradientUnits="userSpaceOnUse"
       gradientTransform="scale(1.0058652,0.994169)">
      <stop
         id="stop3750"
         style="stop-color:#000000;stop-opacity:1"
         offset="0" />
      <stop
         id="stop3752-8"
         style="stop-color:#000000;stop-opacity:0.58823532"
         offset="1" />
    </linearGradient>
  </defs>
  <sodipodi:namedview
     id="base"
     pagecolor="#ffffff"
     bordercolor="#666666"
     borderopacity="1.0"
     inkscape:pageopacity="0.0"
     inkscape:pageshadow="2"
     inkscape:zoom="8.0000004"
     inkscape:cx="26.265921"
     inkscape:cy="31.261023"
     inkscape:document-units="px"
     inkscape:current-layer="layer1"
     showgrid="false"
     inkscape:window-width="1366"
     inkscape:window-height="716"
     inkscape:window-x="0"
     inkscape:window-y="28"
     inkscape:window-maximized="1">
    <inkscape:grid
       type="xygrid"
       id="grid3850" />
  </sodipodi:namedview>
  <metadata
     id="metadata7">
    <rdf:RDF>
      <cc:Work
         rdf:about="">
        <dc:format>image/svg+xml</dc:format>
        <dc:type
           rdf:resource="http://purl.org/dc/dcmitype/StillImage" />
        <dc:title />
      </cc:Work>
    </rdf:RDF>
  </metadata>
  <g
     inkscape:label="Capa 1"
     inkscape:groupmode="layer"
     id="layer1"
     transform="translate(0,-1004.3622)">
    <rect
       style="fill:url(#linearGradient3801);fill-opacity:1.0;stroke:none"
       id="rect2991"
       width="48"
       height="48"
       x="0"
       y="-1052.3622"
       ry="1.9445436"
       transform="scale(1,-1)" />
    <g
       id="layer2"
       style="display:none"
       transform="translate(-145.09362,976.21837)">
      <rect
         width="86"
         height="85"
         rx="6"
         ry="6"
         x="5"
         y="7"
         id="rect3745"
         style="opacity:0.9;fill:url(#ButtonShadow);fill-opacity:1;fill-rule:nonzero;stroke:none;filter:url(#filter3174)" />
    </g>
    <g
       id="layer4"
       style="display:none"
       transform="translate(-145.09362,976.21837)">
      <rect
         width="66"
         height="66"
         rx="12"
         ry="12"
         x="15"
         y="15"
         clip-path="url(#clipPath3613)"
         id="rect3171"
         style="opacity:0.15;fill:url(#linearGradient2885);fill-opacity:1;fill-rule:nonzero;stroke:#ffffff;stroke-width:0.5;stroke-linecap:round;stroke-linejoin:miter;stroke-miterlimit:4;stroke-opacity:1;stroke-dasharray:none;stroke-dashoffset:0;filter:url(#filter3794)" />
    </g>
    <path
       style="opacity:0.2;fill:#000000;fill-opacity:1;stroke:none;display:inline"
       d="M 25 0.21875 C 24.864574 0.239175 24.745844 0.2878 24.625 0.3125 L 24.625 0.28125 L 16.90625 0.28125 A 0.42518752 0.42708384 0 0 0 16.5625 0.9375 C 16.933844 1.4385 16.983289 2.24265 17.0625 2.96875 C 17.1021 3.33195 17.143673 3.6729 17.34375 4 C 17.449139 4.1724 17.613017 4.30915 17.8125 4.40625 C 17.75998 4.42725 17.698117 4.43125 17.625 4.53125 C 17.60709 4.55525 17.63627 4.5937 17.625 4.625 A 0.42518752 0.42708384 0 0 0 17.5625 4.65625 C 17.415558 4.77905 17.267552 4.89325 17.21875 5.09375 C 17.16997 5.29415 17.263406 5.559 17.375 5.6875 C 17.59818 5.9442 17.854248 5.95575 18.09375 5.96875 C 18.00439 6.08895 17.91296 6.2068 17.90625 6.4375 C 17.90165 6.5981 17.964013 6.7421 18.0625 6.875 C 18.066 6.885 18.059 6.9335 18.0625 6.9375 C 17.90654 7.1633 17.800005 7.39155 17.78125 7.65625 C 17.74903 8.11125 17.857372 8.6006 18.03125 9.0625 C 18.375512 9.9775 18.942547 10.83705 19.53125 11.28125 C 19.53825 11.29125 19.55562 11.28125 19.5625 11.28125 C 19.779055 11.46125 19.963535 11.5991 20.21875 11.625 C 20.482083 11.652 20.765147 11.4874 20.90625 11.3125 C 21.188459 10.9627 21.248214 10.5627 21.34375 10.125 C 21.43928 9.6876 21.506608 9.22225 21.65625 8.90625 C 21.805892 8.59015 21.962748 8.43755 22.21875 8.40625 A 0.42518752 0.42708384 0 0 0 22.5 8.28125 C 23.315931 7.34515 24.957081 6.6383 26.1875 5.5 A 0.42518752 0.42708384 0 0 0 26.25 4.96875 C 26.33889 4.91975 26.428279 4.92185 26.46875 4.84375 C 26.54379 4.69775 26.51009 4.5876 26.5 4.5 C 26.47981 4.3248 26.450173 4.19025 26.375 4.03125 C 26.22465 3.71275 26.001633 3.34 25.71875 3 C 25.65157 2.92 25.539867 2.8886 25.46875 2.8125 C 25.667972 2.7825 25.873375 2.70135 26.0625 2.65625 C 26.283686 2.60425 26.53193 2.5859 26.71875 2.375 C 26.832746 2.2459 26.789851 2.02255 26.8125 1.84375 C 26.931708 1.74475 27.085119 1.66515 27.15625 1.53125 C 27.24769 1.35925 27.23848 1.09175 27.15625 0.90625 C 26.991805 0.53515 26.705318 0.4605 26.40625 0.375 C 26.107193 0.2903 25.758374 0.23145 25.4375 0.21875 C 25.293327 0.21375 25.135426 0.198325 25 0.21875 z M 7.3125 1.21875 A 0.42518752 0.42708384 0 0 0 7.09375 1.40625 C 6.9740423 1.59495 6.9374383 1.78545 6.875 1.96875 C 6.7563054 1.78865 6.6368817 1.6156 6.375 1.5625 A 0.42518752 0.42708384 0 0 0 6.15625 1.5625 C 5.4615201 1.7952 5.0568172 2.41125 5.125 3.03125 C 5.193183 3.65125 5.7291148 4.2176 6.53125 4.3125 A 0.42518752 0.42708384 0 0 0 6.59375 4.3125 C 6.58868 4.4211 6.571982 4.55795 6.59375 4.65625 C 6.620569 4.77785 6.6360423 4.87415 6.6875 4.96875 A 0.42518752 0.42708384 0 0 0 6.25 5.0625 C 6.1011908 5.219 5.9912317 5.3769 5.9375 5.5625 C 5.883771 5.7478 5.900473 5.99605 6 6.15625 C 6.024268 6.19625 6.0665044 6.18675 6.09375 6.21875 C 6.076463 6.22875 6.048019 6.242 6.03125 6.25 C 5.8809368 6.331 5.741401 6.3684 5.625 6.375 C 5.5085989 6.386 5.389544 6.41165 5.15625 6.21875 C 5.3847449 6.19775 5.6420037 6.0835 5.78125 5.875 C 5.9204961 5.6664 5.9365293 5.4383 5.90625 5.25 C 5.875969 5.0618 5.8278383 4.8706 5.75 4.6875 C 5.5943228 4.3214 5.3433773 3.96575 5.15625 3.59375 C 4.9691224 3.22155 4.8143943 2.80885 4.78125 2.59375 A 0.42518752 0.42708384 0 0 0 4.6875 2.40625 C 4.542887 2.25035 4.4095685 2.0993 4.15625 2.0625 C 4.0295904 2.0435 3.8568062 2.07795 3.75 2.15625 C 3.656908 2.22425 3.6282682 2.3036 3.59375 2.375 A 0.42518752 0.42708384 0 0 0 3.15625 2.59375 C 3.127275 2.65775 3.107775 2.65325 3.09375 2.65625 C 3.079724 2.66625 3.0251178 2.658 2.9375 2.625 C 2.7622675 2.553 2.5363307 2.3304 2.53125 2.3125 A 0.42518752 0.42708384 0 0 0 2.09375 2 C 2.09078 1.8469 2.1036206 1.6882 2 1.5625 C 1.979346 1.5375 1.959535 1.521 1.9375 1.5 C 1.0077581 2.2584 0.35749688 3.28715 0 4.46875 C 0.1930934 4.48575 0.37732766 4.38195 0.53125 4.28125 C 0.69553221 4.17275 0.83903808 4.0125 1 3.8125 C 1.0286776 3.8815 1.0259785 3.96945 1.0625 4.03125 C 1.019871 4.07325 1.0010175 4.1047 0.96875 4.1875 C 0.9323235 4.2825 0.9050885 4.43435 0.9375 4.53125 C 1.0023157 4.72585 1.1137712 4.73865 1.1875 4.78125 C 1.3028059 4.84825 1.4232766 4.9083 1.53125 4.9375 C 1.510676 4.9585 1.487872 4.98 1.46875 5 C 1.373849 5.1157 1.40556 5.2719 1.40625 5.4375 C 1.0558852 5.2168 0.73713083 5.06505 0.3125 4.84375 A 0.42518752 0.42708384 0 0 0 0.1875 4.8125 C 0.12379471 4.8041 0.059406144 4.810604 0 4.8125 L 0 20.96875 C 0.24265562 21.367456 0.56827761 21.705093 1.03125 21.96875 C 1.2295084 22.33975 1.6647064 23.1795 2.09375 23.875 C 2.318731 24.2394 2.5343499 24.5303 2.75 24.75 C 2.8578254 24.8595 2.9244226 25.0157 3.25 25 C 3.3692293 24.989 3.4765151 24.8952 3.5625 24.8125 C 4.6804275 26.2408 6.1518557 27.24265 8.03125 27.65625 C 8.5565857 27.83615 9.0771051 28.25425 9.65625 28.65625 C 10.095543 28.96095 10.643961 29.2203 11.1875 29.25 C 11.22358 29.4792 11.26203 29.7344 11.1875 30 C 11.086898 30.3585 10.877404 30.73305 10.71875 31.15625 C 10.560094 31.57915 10.403516 32.02485 10.46875 32.53125 C 10.52952 33.00325 10.802316 33.48935 11.28125 33.90625 C 11.826061 34.74925 12.540233 35.4002 12.9375 36.0625 C 13.334768 36.7245 13.479364 37.3165 13.0625 38.3125 A 0.42518752 0.42708384 0 0 0 13.0625 38.34375 C 12.381926 40.61505 12.651942 42.9804 12.125 44.875 A 0.42518752 0.42708384 0 0 0 12.125 44.9375 C 12.06302 45.3746 12.120183 45.81995 12.28125 46.28125 C 12.442279 46.74245 12.696386 47.17975 12.9375 47.53125 C 13.058056 47.70705 13.196998 47.8772 13.34375 48 L 14.25 48 C 14.354777 47.882741 14.406242 47.72695 14.4375 47.59375 C 14.48265 47.40115 14.48083 47.17835 14.46875 46.90625 C 15.012144 45.15155 15.086252 43.4423 16.125 42.375 C 16.521086 42.332 16.837929 42.20445 17.03125 41.96875 C 17.264203 41.68455 17.301421 41.37785 17.34375 41.15625 C 17.38608 40.93455 17.44662 40.80385 17.46875 40.78125 C 17.49088 40.75825 17.567525 40.696 17.9375 40.75 A 0.42518752 0.42708384 0 0 0 18.3125 40.59375 C 18.883579 39.84145 19.250939 39.0586 19.65625 38.4375 C 20.061561 37.8163 20.488808 37.33915 21.28125 37.09375 A 0.42518752 0.42708384 0 0 0 21.5625 36.78125 C 21.64473 36.12915 22.38636 35.00185 22.78125 33.96875 C 22.978694 33.45185 23.076273 32.9027 22.875 32.375 C 22.68282 31.8713 22.170766 31.53495 21.4375 31.34375 C 21.40862 31.33275 21.40461 31.3175 21.375 31.3125 C 20.879648 31.0887 20.24078 30.9746 19.6875 30.875 C 19.419245 30.826 19.154548 30.7853 19 30.75 C 18.9904 30.339 18.930724 29.94495 18.6875 29.65625 C 18.377918 29.28885 17.947437 29.035 17.5 28.8125 C 16.605123 28.3674 15.53181 28.0477 15 27.75 L 15 27.78125 C 14.492108 27.44365 13.917794 27.4085 13.40625 27.5 C 12.877813 27.594 12.391976 27.7983 11.96875 27.9375 C 11.545527 28.0765 11.169262 28.115 11 28.0625 C 10.830736 28.0105 10.720026 27.8987 10.59375 27.3125 A 0.42518752 0.42708384 0 0 0 10.53125 27.21875 C 10.292015 26.63305 9.8124499 26.36525 9.59375 26.15625 C 9.4843985 26.05255 9.4554245 26.0224 9.4375 25.9375 C 9.419576 25.8515 9.4112423 25.7074 9.53125 25.4375 A 0.42518752 0.42708384 0 0 0 8.84375 24.96875 C 8.439886 25.37245 7.7883306 25.47605 7.40625 25.34375 C 7.2152095 25.27775 7.144564 25.1831 7.0625 25 C 6.983718 24.8242 6.964069 24.55885 7.0625 24.15625 C 7.3891009 23.53315 8.1554691 23.1078 8.9375 23.125 C 9.7383715 23.143 10.445049 23.53255 10.65625 24.34375 L 11.0625 24.25 L 11.4375 24.09375 C 11.120921 23.12755 11.442205 22.32575 12 21.46875 C 12.557803 20.61185 13.344888 19.7692 13.96875 18.9375 A 0.42518752 0.42708384 0 0 0 14.03125 18.8125 C 14.06603 18.704 14.253051 18.5691 14.40625 18.4375 A 0.42518752 0.42708384 0 0 0 14.84375 18.71875 C 15.178348 18.70675 15.432206 18.56755 15.6875 18.40625 C 15.942793 18.24475 16.152781 18.0731 16.3125 17.875 C 16.39236 17.776 16.48579 17.6483 16.53125 17.5 C 16.55398 17.426 16.59007 17.34155 16.5625 17.21875 C 16.54872 17.15775 16.510169 17.08955 16.46875 17.03125 C 16.895165 17.51495 17.63127 17.63045 18.3125 17.34375 A 0.42518752 0.42708384 0 0 0 18.53125 16.8125 C 18.385965 16.4133 18.141485 16.13415 17.96875 15.90625 C 17.796013 15.67815 17.752365 15.54135 17.75 15.40625 A 0.42518752 0.42708384 0 0 0 17.53125 15.0625 C 17.56876 14.8971 17.640345 14.7303 17.59375 14.5625 C 17.51963 14.2959 17.356595 14.06205 17.125 13.78125 A 0.42518752 0.42708384 0 0 0 16.96875 13.65625 C 16.780459 13.58025 16.607566 13.3595 16.4375 13.0625 C 16.267433 12.7657 16.128636 12.3953 15.96875 12.0625 C 15.808863 11.7294 15.636893 11.3784 15.1875 11.25 C 14.962804 11.186 14.693208 11.22135 14.5 11.34375 C 14.42846 11.21995 14.371254 11.08495 14.28125 10.96875 C 14.002857 10.61035 13.662476 10.3039 13.28125 10.0625 C 12.900025 9.8213 12.474406 9.6173 12.03125 9.6875 C 11.809671 9.7225 11.570591 9.88205 11.4375 10.09375 C 11.304411 10.30575 11.271818 10.56805 11.28125 10.84375 A 0.42518752 0.42708384 0 0 0 11.28125 10.90625 C 11.516148 12.00455 11.445132 13.2536 11.125 14.1875 C 10.984956 13.9744 10.842452 13.74775 10.65625 13.59375 C 10.213107 13.22755 9.6525903 13.0448 9.1875 12.8125 C 8.7224103 12.5802 8.3527981 12.34765 8.125 12.09375 C 7.9040978 11.84755 7.7851515 11.6079 7.875 11.125 C 8.2326235 10.545 8.6071525 9.84935 8.90625 9.34375 C 9.004315 9.17785 9.0800761 9.08995 9.15625 8.96875 C 9.17389 9.11605 9.139186 9.269 9.21875 9.375 C 9.4954029 9.7434 9.9424421 9.8515 10.3125 9.875 C 10.497528 9.885 10.664262 9.8765 10.84375 9.8125 C 11.023236 9.7555 11.235296 9.62055 11.3125 9.34375 C 11.3897 9.06675 11.286742 8.83485 11.125 8.65625 C 10.963279 8.47725 10.72419 8.3084 10.40625 8.125 A 0.42518752 0.42708384 0 0 0 10.40625 8.09375 L 10.34375 8.09375 C 10.634791 7.83965 10.851264 7.5315 11 7.1875 C 11.152054 6.8361 11.225513 6.392 11.09375 6 C 11.0196 5.7794 10.894245 5.626 10.71875 5.4375 C 10.857108 5.4376 11.019347 5.4275 11.125 5.4375 C 11.345593 5.4535 11.446579 5.4765 11.5625 5.5625 C 11.64274 5.6205 11.750327 5.79425 11.84375 5.96875 A 0.42518752 0.42708384 0 0 0 11.6875 6.15625 C 11.582906 6.32845 11.474986 6.4696 11.4375 6.625 C 11.40002 6.7808 11.43617 6.9524 11.53125 7.125 C 11.62632 7.2982 11.82028 7.419 11.96875 7.4375 C 12.117224 7.4565 12.202185 7.417 12.3125 7.375 C 12.38603 7.344 12.462642 7.27275 12.53125 7.21875 C 12.51042 7.30675 12.54989 7.36895 12.5 7.46875 C 12.273315 7.92315 11.736104 8.4602 11.5 8.625 L 11.71875 8.9375 L 12 9.28125 C 12.05897 9.23025 12.08829 9.21675 12.15625 9.21875 C 12.22419 9.21875 12.338399 9.2501 12.46875 9.3125 C 12.72945 9.4422 13.060917 9.71315 13.34375 9.96875 C 13.485168 10.09645 13.627345 10.2061 13.75 10.3125 C 13.872656 10.4184 13.972481 10.489 14.15625 10.5625 C 14.24813 10.5995 14.406456 10.6747 14.59375 10.5625 C 14.781045 10.4494 14.80381 10.2326 14.8125 10.125 C 14.8141 10.106 14.811952 10.10975 14.8125 10.09375 C 14.89631 10.10375 14.988599 10.11175 15.09375 10.09375 C 15.240832 10.07175 15.476029 9.9795 15.5625 9.75 C 15.64896 9.5201 15.6088 9.31995 15.53125 9.15625 C 15.49843 9.08825 15.390781 8.97945 15.34375 8.90625 A 0.42518752 0.42708384 0 0 0 15.65625 8.8125 C 15.888285 8.6036 16.058602 8.4169 16.15625 8.1875 C 16.2539 7.9579 16.258258 7.68265 16.1875 7.46875 C 16.046 7.04105 15.689829 6.8387 15.40625 6.625 C 15.12267 6.4113 14.890636 6.1557 14.78125 6 C 14.671866 5.8443 14.628456 5.8288 14.78125 5.5625 A 0.42518752 0.42708384 0 0 0 14.6875 5.03125 C 14.402608 4.79925 13.955964 4.1628 13.40625 3.625 C 13.131393 3.3562 12.830421 3.1024 12.46875 2.9375 C 12.107079 2.7723 11.654897 2.6939 11.21875 2.8125 C 11.20033 2.7135 11.20514 2.6758 11.1875 2.5625 C 11.16498 2.4179 11.143628 2.2745 11.09375 2.125 C 11.04387 1.9755 10.984226 1.77985 10.75 1.65625 C 10.632883 1.59525 10.467351 1.599 10.34375 1.625 C 10.220148 1.652 10.11757 1.6858 10.03125 1.75 C 10.00709 1.768 9.992046 1.82375 9.96875 1.84375 C 9.956618 1.81875 9.954064 1.774 9.9375 1.75 C 9.849798 1.6245 9.7157982 1.56405 9.59375 1.53125 A 0.42518752 0.42708384 0 0 0 9.3125 1.5625 C 9.1070171 1.6575 8.9274906 1.77325 8.78125 1.90625 C 8.713883 1.67275 8.563789 1.5174 8.40625 1.4375 C 8.0656957 1.2645 7.6693215 1.23125 7.4375 1.21875 A 0.42518752 0.42708384 0 0 0 7.34375 1.21875 A 0.42518752 0.42708384 0 0 0 7.3125 1.21875 z M 45.71875 2.125 A 0.42518752 0.42708384 0 0 0 45.65625 2.15625 C 45.073969 2.38535 44.830763 2.9049 44.84375 3.375 C 44.85673 3.8452 45.075728 4.23645 45.34375 4.53125 C 45.477761 4.67905 45.606826 4.82095 45.78125 4.90625 C 45.955675 4.99225 46.190848 5.04445 46.4375 4.90625 C 46.684155 4.76895 46.771039 4.4903 46.78125 4.25 C 46.79125 4.0149 46.753063 3.73485 46.65625 3.40625 C 46.65845 3.40615 46.65295 3.3509 46.65625 3.25 C 46.66005 3.1394 46.66925 2.99755 46.65625 2.84375 C 46.65534 2.83375 46.65735 2.8225 46.65625 2.8125 C 46.505603 2.5882 46.334408 2.35825 46.15625 2.15625 C 46.088 2.13725 46.007553 2.125 45.9375 2.125 C 45.875541 2.1239 45.838519 2.1184 45.78125 2.125 A 0.42518752 0.42708384 0 0 0 45.71875 2.125 z M 8.3125 3 C 8.299851 3.1967 8.247841 3.41535 8.28125 3.59375 C 8.343894 3.92795 8.4661128 4.2032 8.5625 4.4375 C 8.634793 4.6132 8.696962 4.80475 8.71875 4.84375 A 0.42518752 0.42708384 0 0 0 9 5.15625 C 9.2138621 5.23025 9.3696734 5.24675 9.5625 5.28125 A 0.42518752 0.42708384 0 0 0 9.5625 5.34375 C 9.55323 5.43875 9.4656022 5.56305 9.40625 5.71875 A 0.42518752 0.42708384 0 0 0 8.65625 5.5625 C 8.61786 5.4755 8.59353 5.4075 8.53125 5.1875 C 8.441682 4.8711 8.3616239 4.51225 8.21875 4.15625 C 8.129032 3.93295 7.9901135 3.7423 7.8125 3.5625 C 7.859644 3.5465 7.9264033 3.523 7.96875 3.5 C 8.1291539 3.4033 8.1900739 3.1733 8.3125 3 z M 38.84375 4.03125 C 38.80044 4.03125 38.775945 4.07775 38.71875 4.09375 L 38.6875 4.0625 C 37.420926 4.3742 36.507872 5.13085 35.8125 6.03125 C 35.13393 6.90975 34.636142 7.9322 34.09375 8.8125 C 33.155505 9.3292 32.705722 10.4122 32.75 11.3125 C 32.77335 11.7875 32.946103 12.25035 33.34375 12.53125 C 33.465914 12.61825 33.63209 12.5966 33.78125 12.625 C 33.661007 12.7934 33.562312 12.98455 33.53125 13.15625 C 33.47673 13.45815 33.50389 13.7284 33.5 13.9375 C 33.4961 14.1467 33.47351 14.2654 33.4375 14.3125 C 33.4015 14.3595 33.343415 14.44875 33 14.46875 A 0.42518752 0.42708384 0 0 0 32.59375 14.78125 C 32.58985 14.79525 32.56751 14.7985 32.5625 14.8125 C 32.555 14.6486 32.560589 14.48935 32.46875 14.34375 C 32.361779 14.17395 32.192512 14.03195 32 13.90625 C 31.880927 13.45095 31.689443 13.0153 31.5 12.6875 C 31.388533 12.4947 31.258479 12.3358 31.21875 12.25 C 31.22135 12.28 31.21911 12.33225 31.1875 12.40625 C 31.15201 12.48725 31.043936 12.56355 30.96875 12.59375 L 30.8125 12.1875 L 30.59375 11.8125 C 30.209936 12.0641 30.014681 12.5029 30 12.875 C 29.9939 13.0276 30.03483 13.14035 30.0625 13.28125 L 30.03125 13.28125 A 0.42518752 0.42708384 0 0 0 29.9375 13.28125 C 29.432733 13.42465 29.085086 13.78875 28.9375 14.15625 C 28.789914 14.52325 28.820748 14.8818 28.96875 15.1875 C 29.04275 15.3402 29.166888 15.4685 29.34375 15.5625 C 29.520612 15.6565 29.745121 15.6565 29.9375 15.5625 C 30.185596 15.4418 30.342719 15.2287 30.46875 14.9375 C 30.46255 14.9565 30.47845 15.01885 30.46875 15.03125 A 0.42518752 0.42708384 0 0 0 30.4375 15.0625 C 30.320251 15.2678 30.24944 15.4941 30.3125 15.75 C 30.35903 15.939 30.501934 16.0489 30.65625 16.125 C 30.553119 16.223 30.418343 16.30035 30.375 16.46875 C 30.31639 16.69675 30.376795 16.96535 30.5 17.15625 C 30.59452 17.30275 30.746018 17.45645 30.90625 17.59375 C 30.94733 17.73115 30.97319 17.8476 30.96875 17.875 C 30.96325 17.909 30.99912 17.88525 30.96875 17.90625 C 30.90802 17.94725 30.601382 18.0209 30.25 18.0625 C 29.898618 18.1045 29.458544 18.11665 29.125 18.46875 C 28.958229 18.64455 28.873436 18.9192 28.875 19.1875 C 28.8766 19.4502 28.956346 19.70735 29.09375 20.03125 C 29.09585 20.04225 29.09165 20.0585 29.09375 20.0625 C 29.216603 20.3885 29.370826 20.64805 29.5625 20.84375 C 29.707215 20.99175 29.876437 21.0074 30.0625 21.0625 C 29.735084 21.2553 29.414051 21.46865 29.15625 21.78125 A 0.42518752 0.42708384 0 0 0 29.15625 21.8125 C 28.565338 22.6274 27.814758 23.60875 27.375 24.71875 C 26.942522 25.81025 26.844326 27.06175 27.53125 28.21875 C 27.54075 28.24075 27.5528 28.26125 27.5625 28.28125 C 27.919332 29.09375 28.461653 29.5899 29.0625 29.8125 C 29.679717 30.0412 30.291939 29.9969 30.90625 29.9375 C 31.520559 29.8795 32.139646 29.81605 32.65625 29.84375 C 33.163821 29.87075 33.566573 29.98605 33.9375 30.34375 C 33.99424 30.43475 34.00035 30.52305 34 30.65625 C 33.999615 30.80655 33.95805 30.97855 33.9375 31.21875 C 33.91693 31.45875 33.912321 31.762 34.03125 32.0625 C 34.12121 32.2897 34.3676 32.52165 34.59375 32.71875 C 34.778112 33.47585 34.702078 34.2715 34.65625 35.125 C 34.61084 35.9706 34.641022 36.86905 35.21875 37.78125 C 35.496948 38.53205 35.698328 39.55455 36.21875 40.28125 C 36.478963 40.64465 36.88643 40.96985 37.375 41.03125 C 37.859379 41.09225 38.35035 40.8859 38.9375 40.5 C 38.9453 40.49 38.96103 40.47275 38.96875 40.46875 C 40.216579 39.70395 40.687249 38.6261 41.0625 37.625 C 41.440075 36.6176 41.759301 35.7496 42.59375 35.125 A 0.42518752 0.42708384 0 0 0 42.71875 34.53125 C 42.378037 33.86855 42.310445 33.38055 42.40625 32.90625 C 42.50205 32.43195 42.768117 31.9671 43.125 31.5 C 43.838766 30.5661 44.937778 29.6457 45.40625 28.3125 A 0.42518752 0.42708384 0 0 0 44.9375 27.75 C 44.773101 27.775 44.630193 27.7025 44.46875 27.6875 C 44.622454 27.6115 44.777745 27.52595 44.9375 27.40625 C 45.482971 27.17695 46.38437 26.71285 47 26.09375 C 47.307813 25.78435 47.625045 25.38545 47.5625 24.90625 C 47.54305 24.75725 47.400916 24.6275 47.3125 24.5 C 47.441263 24.474 47.568556 24.42255 47.6875 24.34375 L 47.6875 6.25 C 47.6875 5.8847 47.654179 5.50365 47.59375 5.15625 C 47.384954 5.35565 47.050352 5.6557 46.71875 5.8125 C 46.537192 5.8995 46.368561 5.9335 46.25 5.9375 C 46.131439 5.9475 46.061986 5.90405 46 5.84375 A 0.42518752 0.42708384 0 0 0 45.625 5.75 C 45.24461 5.803 44.945042 5.9938 44.65625 6.1875 C 44.408911 6.3533 44.208463 6.5017 44.03125 6.625 C 44.03815 6.557 44.04745 6.5292 44.0625 6.4375 A 0.42518752 0.42708384 0 0 0 43.65625 5.96875 C 43.475418 5.95575 43.308677 5.9611 43.15625 6.0625 C 43.003824 6.1595 42.873366 6.3081 42.8125 6.4375 C 42.71863 6.6371 42.715476 6.8256 42.6875 7 C 42.558952 6.563 42.219971 6.25055 41.84375 5.96875 C 41.425726 5.65565 40.933618 5.3591 40.53125 5.125 C 40.330064 5.0078 40.161801 4.8945 40.03125 4.8125 C 40.02745 4.7435 40.05245 4.6715 40.03125 4.625 C 39.915507 4.371 39.776441 4.3381 39.625 4.25 C 39.473562 4.162 39.294749 4.1038 39.125 4.0625 C 39.040129 4.0447 38.952939 4.02485 38.84375 4.03125 z M 27.65625 7.28125 A 0.42518752 0.42708384 0 0 0 27.375 7.46875 C 27.225143 7.64215 27.105605 7.6659 26.96875 7.6875 C 26.831895 7.7085 26.648185 7.68925 26.46875 7.65625 C 26.289311 7.61725 26.120925 7.55275 25.84375 7.59375 C 25.705161 7.61475 25.542046 7.7257 25.4375 7.875 C 25.33296 8.024 25.315811 8.1595 25.3125 8.3125 A 0.42518752 0.42708384 0 0 0 25.375 8.53125 C 25.36211 8.51025 25.45162 8.7332 25.5625 8.9375 C 25.673382 9.142 25.807185 9.38475 26.03125 9.59375 C 26.255318 9.80275 26.585274 9.98995 26.96875 9.96875 C 27.352229 9.94775 27.746255 9.72055 28.125 9.34375 C 28.517201 9.10095 28.730254 8.6931 28.65625 8.3125 C 28.57305 7.8848 28.255207 7.5457 27.84375 7.375 A 0.42518752 0.42708384 0 0 0 27.6875 7.28125 A 0.42518752 0.42708384 0 0 0 27.65625 7.28125 z M 41.1875 8.21875 C 41.22456 8.24275 41.24107 8.227 41.28125 8.25 A 0.42518752 0.42708384 0 0 0 41.40625 8.34375 C 41.38054 8.35375 41.346498 8.364 41.3125 8.375 C 41.27234 8.316 41.221683 8.27835 41.1875 8.21875 z M 36.96875 10.8125 C 36.98117 10.9957 36.977505 11.16995 37.09375 11.34375 C 37.225403 11.54045 37.47605 11.66255 37.71875 11.71875 C 37.68542 11.75175 37.624709 11.74325 37.59375 11.78125 C 37.465137 11.94195 37.369867 12.16055 37.375 12.40625 C 37.375161 12.41625 37.40594 12.4315 37.40625 12.4375 C 37.31332 12.4805 37.185965 12.4993 37.125 12.5625 C 36.89088 12.8032 36.831537 13.06885 36.75 13.28125 C 36.66845 13.49355 36.608244 13.6495 36.5625 13.6875 C 36.51675 13.7275 36.480226 13.75925 36.21875 13.65625 A 0.42518752 0.42708384 0 0 0 36.0625 13.625 C 36.0678 13.625 36.056 13.5665 36.0625 13.5625 A 0.42518752 0.42708384 0 0 0 36.125 13.46875 C 36.75398 12.63085 36.84495 11.6826 36.96875 10.8125 z M 16.25 16.03125 C 16.15901 16.37145 16.237612 16.7555 16.4375 17 C 16.40285 16.959 16.353939 16.8993 16.3125 16.875 C 16.091502 16.7475 15.933214 16.80575 15.78125 16.84375 C 15.75487 16.85475 15.714718 16.868 15.6875 16.875 C 15.63465 16.7215 15.659295 16.52135 15.5625 16.40625 C 15.49466 16.32625 15.39409 16.33725 15.3125 16.28125 C 15.624729 16.20245 15.933124 16.11585 16.25 16.03125 z M 44.53125 17.84375 C 44.49453 17.90175 44.49224 17.989 44.46875 18.0625 C 44.45935 17.9935 44.42901 17.9198 44.46875 17.875 C 44.473486 17.8641 44.524097 17.85005 44.53125 17.84375 z M 39.875 17.90625 C 39.8722 17.91625 39.894861 17.9045 40 17.9375 C 40.142246 17.9875 40.326133 18.07655 40.5 18.15625 C 40.58693 18.19725 40.635161 18.25385 40.75 18.28125 C 40.80741 18.29525 40.897681 18.3295 41 18.3125 C 41.102321 18.2965 41.264208 18.1863 41.34375 18.0625 C 41.35395 18.0815 41.36468 18.109 41.375 18.125 C 41.526681 18.3949 41.675469 18.6309 41.78125 18.8125 C 41.653603 18.8025 41.539776 18.796 41.3125 18.75 A 0.42518752 0.42708384 0 0 0 41.15625 18.75 C 40.563764 18.82 39.812477 18.72885 39.5625 18.59375 C 39.50001 18.56075 39.441558 18.5675 39.4375 18.5625 C 39.4335 18.5525 39.4336 18.56425 39.4375 18.53125 C 39.444496 18.47135 39.593661 18.21185 39.875 17.90625 z M 33.53125 18.6875 C 33.636598 18.6655 33.754519 18.6595 33.875 18.6875 C 33.95448 18.7065 34.071794 18.80345 34.15625 18.84375 A 0.42518752 0.42708384 0 0 0 33.90625 18.90625 C 33.607217 19.09975 33.386714 19.39145 33.40625 19.71875 C 33.42348 20.00745 33.60503 20.1599 33.8125 20.25 C 33.134245 20.297 32.417818 20.32805 31.6875 20.46875 C 31.994174 20.18295 32.310921 19.88975 32.5625 19.59375 C 32.850832 19.25435 33.099426 18.94555 33.21875 18.84375 C 33.327088 18.76035 33.425899 18.7099 33.53125 18.6875 z M 44.71875 18.90625 C 44.78081 18.95925 44.861418 18.98525 44.9375 19.03125 C 44.9406 19.03125 44.9344 19.0605 44.9375 19.0625 C 45.201406 19.3871 45.290317 20.0194 45.21875 20.25 C 45.20965 20.279 45.22625 20.26925 45.21875 20.28125 C 45.21055 20.27125 45.061316 20.20445 44.875 20.03125 C 44.877689 19.60995 44.836244 19.22475 44.71875 18.90625 z M 34.46875 19.03125 C 34.51668 19.07025 34.61083 19.11295 34.65625 19.15625 C 34.891588 19.37585 35.059536 19.62545 35.15625 19.84375 C 35.25296 20.06185 35.219201 20.1699 35.25 20.125 A 0.42518752 0.42708384 0 0 0 35.75 20.78125 C 36.25616 20.57485 36.494 20.11855 36.53125 19.65625 C 36.5841 19.78825 36.651485 19.99565 36.65625 19.96875 A 0.42518752 0.42708384 0 0 0 36.6875 20.21875 C 36.814742 20.45795 36.945055 20.64485 37.09375 20.78125 C 37.1681 20.84925 37.278183 20.9055 37.40625 20.9375 C 37.534314 20.9695 37.703056 20.942 37.8125 20.875 C 38.031388 20.7544 38.039399 20.6276 38.09375 20.5 C 38.14811 20.3723 38.214645 20.2426 38.25 20.125 C 38.27663 20.2797 38.289757 20.4452 38.375 20.5625 C 38.526097 20.77 38.733869 20.9076 38.9375 21 C 39.344763 21.1848 39.778424 21.2405 40.125 21.3125 C 40.298287 21.3505 40.443539 21.37085 40.53125 21.40625 C 40.56633 21.42125 40.58207 21.4295 40.59375 21.4375 C 40.58965 21.4495 40.57302 21.44775 40.5625 21.46875 C 40.52966 21.54575 40.417291 21.73705 40.28125 21.90625 C 39.610544 22.01215 38.910325 21.92575 38.1875 21.84375 C 37.458789 21.76375 36.724065 21.7172 35.96875 21.9375 L 35.96875 21.90625 C 35.475665 21.89425 35.354932 21.7597 35.1875 21.4375 C 35.10378 21.2764 35.025268 21.0716 34.9375 20.875 C 34.84972 20.6783 34.729056 20.45035 34.5 20.28125 A 0.42518752 0.42708384 0 0 0 34.4375 20.21875 C 34.52817 20.16575 34.612308 20.1002 34.65625 20 C 34.795093 19.6826 34.662252 19.35155 34.46875 19.03125 z M 10.65625 24.4375 A 0.42518752 0.42708384 0 0 0 10.375 24.75 C 10.29747 25.01 10.470988 25.28705 10.59375 25.40625 C 10.716503 25.52505 10.827424 25.5579 10.96875 25.625 C 11.251406 25.7586 11.567245 25.85285 11.84375 25.90625 C 11.982002 25.93325 12.092827 25.96975 12.21875 25.96875 C 12.2817 25.96795 12.357695 25.9855 12.46875 25.9375 C 12.49925 25.9275 12.553986 25.87315 12.59375 25.84375 C 12.54943 26.05765 12.712697 26.3355 12.875 26.4375 C 13.199608 26.6415 13.409627 26.58895 13.65625 26.53125 C 13.779562 26.50225 13.910277 26.4508 14.03125 26.375 C 14.09173 26.335 14.157127 26.2774 14.21875 26.1875 C 14.28037 26.0985 14.34152 25.99155 14.3125 25.84375 C 14.25446 25.54815 14.036771 25.40905 13.875 25.34375 C 13.713231 25.27875 13.47998 25.25795 13.21875 25.21875 A 0.42518752 0.42708384 0 0 0 12.90625 25.3125 C 12.849939 25.369883 12.788808 25.433023 12.75 25.5 C 12.765419 25.4601 12.75771 25.44085 12.75 25.40625 C 12.70227 25.19225 12.623826 25.14205 12.5625 25.09375 C 12.50116 25.04475 12.448258 25.00785 12.375 24.96875 C 12.228484 24.88975 12.026166 24.7962 11.75 24.6875 A 0.42518752 0.42708384 0 0 0 11.71875 24.6875 L 11.40625 24.59375 A 0.42518752 0.42708384 0 0 0 11.375 24.59375 L 10.875 24.4375 A 0.42518752 0.42708384 0 0 0 10.78125 24.4375 A 0.42518752 0.42708384 0 0 0 10.71875 24.4375 A 0.42518752 0.42708384 0 0 0 10.65625 24.4375 z M 44.59375 33.96875 C 43.900646 33.98675 43.406596 34.5269 43.125 35.0625 C 42.843406 35.598 42.723607 36.2155 42.71875 36.75 C 42.71625 37.0168 42.742601 37.2153 42.8125 37.4375 C 42.88241 37.6599 42.997121 37.93915 43.3125 38.03125 C 43.470191 38.07825 43.650495 38.064 43.78125 38 C 43.912002 37.937 43.998668 37.82395 44.09375 37.71875 C 44.28391 37.50795 44.436715 37.2269 44.625 36.8125 A 0.42518752 0.42708384 0 0 0 44.65625 36.75 C 44.70956 36.4817 44.910771 36.0506 45.03125 35.625 C 45.151728 35.1991 45.245448 34.69415 45 34.21875 A 0.42518752 0.42708384 0 0 0 44.59375 33.96875 z "
       transform="translate(0,1004.3622)"
       id="path3798" />
    <g
       transform="matrix(0.50134178,0,0,0.5,-0.06440544,1004.3622)"
       id="layer7">
      <path
         d="m 48,16 -4.625,16.6875 c -1.750115,0.528895 -3.372187,1.350473 -4.8125,2.40625 l -7.53125,-4.0625 4.0625,7.53125 c -1.055777,1.440313 -1.877355,3.062385 -2.40625,4.8125 L 16,48 32.6875,52.625 c 0.528895,1.750115 1.350473,3.372187 2.40625,4.8125 l -4.0625,7.53125 7.53125,-4.0625 c 1.440313,1.055777 3.062385,1.877355 4.8125,2.40625 L 48,80 52.625,63.3125 c 1.750115,-0.528895 3.372187,-1.350473 4.8125,-2.40625 l 7.53125,4.0625 -4.0625,-7.53125 c 1.055777,-1.440313 1.877355,-3.062385 2.40625,-4.8125 L 80,48 63.3125,43.375 c -0.528895,-1.750115 -1.350473,-3.372187 -2.40625,-4.8125 l 4.0625,-7.53125 -7.53125,4.0625 C 55.997187,34.037973 54.375115,33.216395 52.625,32.6875 L 48,16 z m 0,20 c 6.627417,0 12,5.372583 12,12 0,6.627417 -5.372583,12 -12,12 C 41.372583,60 36,54.627417 36,48 36,41.372583 41.372583,36 48,36 Z"
         inkscape:connector-curvature="0"
         id="path4588"
         style="color:#000000;fill:#ffffff;fill-opacity:1;fill-rule:nonzero;stroke:none;stroke-width:0.80000001;marker:none;visibility:visible;display:inline;overflow:visible;enable-background:accumulate" />
      <g
         transform="matrix(0.70710678,0.70710678,-0.70710678,0.70710678,48.020021,-19.873366)"
         id="g4572">
        <g
           transform="matrix(0.98983765,0,0,0.77048859,-15.350324,-1.2826605)"
           id="g5928-7-4">
          <path
             d="M 69,64 59,64 64,16 69,64 Z"
             inkscape:connector-curvature="0"
             id="path5923-0-5"
             style="fill:url(#linearGradient4578);fill-opacity:1;fill-rule:evenodd;stroke:none" />
          <path
             d="m 69,63.999997 -10,0 L 64,112 69,63.999997 Z"
             inkscape:connector-curvature="0"
             id="path5926-8-6"
             style="fill:url(#linearGradient4580);fill-opacity:1;fill-rule:evenodd;stroke:none" />
        </g>
        <path
           inkscape:connector-curvature="0"
           d="m 65.503089,63.920891 a 1.7404205,1.7404205 0 1 1 -3.480841,0 A 1.7404205,1.7404205 0 1 1 65.503089,63.920891 Z"
           transform="matrix(0.88540527,0,0,0.88540527,-8.4565171,-8.5672842)"
           id="path5958-8-4"
           style="fill:#000000;fill-opacity:1;fill-rule:evenodd;stroke:none" />
      </g>
    </g>
    <path
       inkscape:connector-curvature="0"
       style="fill:#000000;fill-opacity:1;stroke:none"
       d="m 2e-7,1049.3622 0,1.0625 c 0,1.0773 0.86022,1.9375 1.9375,1.9375 l 44.1249998,0 c 1.07728,0 1.9375,-0.8602 1.9375,-1.9375 l 0,-1.0625 c 0,1.0773 -0.86022,1.9375 -1.9375,1.9375 l -44.1249998,0 c -1.07728,0 -1.9375,-0.8602 -1.9375,-1.9375 z"
       id="rect846" />
    <path
       inkscape:connector-curvature="0"
       style="fill:#ffffff;fill-opacity:0.5372549;stroke:none"
       d="m 2.5312502,1005.0185 c -0.91709,0 -1.67115,0.6395 -1.84375,1.5 0.33561,-0.2799 0.77451,-0.4375 1.25,-0.4375 l 44.1249998,0 c 0.47549,0 0.91439,0.1576 1.25,0.4375 -0.1726,-0.8605 -0.92666,-1.5 -1.84375,-1.5 l -42.9374998,0 z"
       id="path7515" />
    <path
       inkscape:connector-curvature="0"
       style="fill:#000000;fill-opacity:0.39215686;stroke:none"
       d="m 1.9375002,1004.3622 c -1.07728,0 -1.9375,0.8602 -1.9375,1.9375 l 0,43.0625 c 0,0.7934 0.48002,1.449 1.15625,1.75 -0.30934,-0.3333 -0.5,-0.7824 -0.5,-1.2812 l 0,-42.9375 c 0,-1.0482 0.8269,-1.875 1.875,-1.875 l 42.9374998,0 c 1.0481,0 1.875,0.8268 1.875,1.875 l 0,42.9375 c 0,0.4988 -0.19066,0.9479 -0.5,1.2812 0.67623,-0.301 1.15625,-0.9566 1.15625,-1.75 l 0,-43.0625 c 0,-1.0773 -0.86022,-1.9375 -1.9375,-1.9375 l -44.1249998,0 z"
       id="rect4280" />
  </g>
</svg>
