<?xml version="1.0" encoding="UTF-8" standalone="no"?>
<!-- Created with Inkscape (http://www.inkscape.org/) -->

<svg
   xmlns:dc="http://purl.org/dc/elements/1.1/"
   xmlns:cc="http://creativecommons.org/ns#"
   xmlns:rdf="http://www.w3.org/1999/02/22-rdf-syntax-ns#"
   xmlns:svg="http://www.w3.org/2000/svg"
   xmlns="http://www.w3.org/2000/svg"
   xmlns:sodipodi="http://sodipodi.sourceforge.net/DTD/sodipodi-0.dtd"
   xmlns:inkscape="http://www.inkscape.org/namespaces/inkscape"
   width="16"
   height="16"
   id="svg2"
   sodipodi:version="0.32"
   inkscape:version="0.48+devel r12378"
   version="1.0"
   sodipodi:docname="format-text-strikethrough-symbolic.svg"
   inkscape:output_extension="org.inkscape.output.svg.inkscape"
   inkscape:export-filename="/home/matt/.icons/Sirocco/scalable/mimetypes/text-plain.png"
   inkscape:export-xdpi="90"
   inkscape:export-ydpi="90"
   sodipodi:modified="true"
   style="display:inline">
  <sodipodi:namedview
     id="base"
     pagecolor="#ffffff"
     bordercolor="#666666"
     borderopacity="1.0"
     inkscape:pageopacity="0.0"
     inkscape:pageshadow="2"
     inkscape:zoom="12.392884"
     inkscape:cx="-22.188946"
     inkscape:cy="13.34529"
     inkscape:document-units="px"
     inkscape:current-layer="layer1"
     width="128px"
     height="128px"
     inkscape:showpageshadow="false"
     inkscape:window-width="1366"
     inkscape:window-height="714"
     inkscape:window-x="0"
     inkscape:window-y="30"
     showguides="true"
     inkscape:guide-bbox="true"
     showgrid="false"
     inkscape:window-maximized="1"
     inkscape:snap-global="false">
    <sodipodi:guide
       id="guide2226"
       position="32.637397,117.99844"
       orientation="horizontal" />
    <sodipodi:guide
       id="guide2230"
       position="110,57.402344"
       orientation="vertical" />
    <sodipodi:guide
       id="guide2232"
       position="33.760911"
       orientation="horizontal" />
    <sodipodi:guide
       id="guide2231"
       position="46.774696"
       orientation="horizontal" />
    <inkscape:grid
       enabled="true"
       visible="true"
       id="grid3231"
       type="xygrid" />
    <sodipodi:guide
       orientation="1,0"
       position="100,67.625"
       id="guide2713" />
  </sodipodi:namedview>
  <defs
     id="defs4" />
  <metadata
     id="metadata7">
    <rdf:RDF>
      <cc:Work
         rdf:about="">
        <dc:format>image/svg+xml</dc:format>
        <dc:type
           rdf:resource="http://purl.org/dc/dcmitype/StillImage" />
        <dc:title />
      </cc:Work>
    </rdf:RDF>
  </metadata>
  <g
     style="display:inline"
     inkscape:label="Calque 1"
     id="layer1"
     inkscape:groupmode="layer">
    <path
       style="font-size:22.01834869px;font-style:normal;font-variant:normal;font-weight:500;font-stretch:normal;text-align:start;line-height:125%;letter-spacing:0px;word-spacing:0px;writing-mode:lr-tb;text-anchor:start;fill:#bebebe;fill-opacity:1;stroke:none;font-family:Helvetica 65 Medium;-inkscape-font-specification:'Helvetica 65 Medium, Medium'"
       d="M 7.90625 2 C 5.4143628 2 2.9580413 2.8412889 2.75 5.71875 L 5.25 5.71875 C 5.38764 4.5289192 6.3648848 3.96875 7.75 3.96875 C 8.7628441 3.96875 10.125 4.2321675 10.125 5.53125 C 10.125 5.6045386 10.101511 5.6534514 10.09375 5.71875 L 12.46875 5.71875 L 12.46875 5.3125 C 12.46875 2.9125 10.130103 2 7.90625 2 z M 2.34375 10.28125 C 2.3336323 10.406496 2.3125 10.551603 2.3125 10.6875 C 2.3125 12.911353 4.1710436 14 6.21875 14 C 7.5618693 14 9.1654245 13.593807 10.15625 12.625 C 10.354415 13.659862 11.080906 14 12.09375 14 C 12.512098 14 13.313188 13.85086 13.6875 13.71875 L 13.6875 11.96875 C 13.42328 12.01279 13.216629 12.03125 13.0625 12.03125 C 12.600115 12.03125 12.46875 11.772764 12.46875 11.15625 L 12.46875 10.28125 L 9.90625 10.28125 C 9.6294768 11.544716 8.1523401 12.03125 7.15625 12.03125 C 6.275516 12.03125 4.84375 11.685436 4.84375 10.5625 C 4.84375 10.456041 4.862867 10.376068 4.875 10.28125 L 2.34375 10.28125 z "
       id="path4109" />
    <rect
       style="fill:#bebebe;fill-opacity:1;stroke:none"
       id="rect4104"
       width="14.282391"
       height="2.3803985"
       x="0.8588047"
       y="6.8098006" />
  </g>
</svg>
