<?xml version="1.0" encoding="UTF-8" standalone="no"?>
<!-- Created with Inkscape (http://www.inkscape.org/) -->

<svg
   xmlns:dc="http://purl.org/dc/elements/1.1/"
   xmlns:cc="http://creativecommons.org/ns#"
   xmlns:rdf="http://www.w3.org/1999/02/22-rdf-syntax-ns#"
   xmlns:svg="http://www.w3.org/2000/svg"
   xmlns="http://www.w3.org/2000/svg"
   xmlns:sodipodi="http://sodipodi.sourceforge.net/DTD/sodipodi-0.dtd"
   xmlns:inkscape="http://www.inkscape.org/namespaces/inkscape"
   width="16"
   height="16"
   id="svg3049"
   version="1.1"
   inkscape:version="0.48+devel r12383"
   sodipodi:docname="view-list-details-symbolic.svg">
  <defs
     id="defs3051" />
  <sodipodi:namedview
     id="base"
     pagecolor="#ffffff"
     bordercolor="#666666"
     borderopacity="1.0"
     inkscape:pageopacity="0.0"
     inkscape:pageshadow="2"
     inkscape:zoom="17.229375"
     inkscape:cx="-5.6678406"
     inkscape:cy="12.228748"
     inkscape:document-units="px"
     inkscape:current-layer="layer1"
     showgrid="false"
     fit-margin-top="0"
     fit-margin-left="0"
     fit-margin-right="0"
     fit-margin-bottom="0"
     inkscape:window-width="1366"
     inkscape:window-height="714"
     inkscape:window-x="0"
     inkscape:window-y="30"
     inkscape:window-maximized="1" />
  <metadata
     id="metadata3054">
    <rdf:RDF>
      <cc:Work
         rdf:about="">
        <dc:format>image/svg+xml</dc:format>
        <dc:type
           rdf:resource="http://purl.org/dc/dcmitype/StillImage" />
        <dc:title />
      </cc:Work>
    </rdf:RDF>
  </metadata>
  <g
     inkscape:label="Capa 1"
     inkscape:groupmode="layer"
     id="layer1"
     transform="translate(-421.71429,-531.79074)">
    <g
       transform="matrix(0.4,0,0,0.4,251.42857,330.27444)"
       id="layer1-3"
       inkscape:label="Capa 1"
       style="fill:#bebebe;fill-opacity:1">
      <path
         sodipodi:nodetypes="ccccccccccc"
         inkscape:connector-curvature="0"
         id="path3022"
         transform="translate(421.71429,499.79074)"
         d="m 25.96875,29.40625 0,6.25 1.1875,0 2.875,0 1.8125,0 7.15625,0 0,-6.25 -7.15625,0 -1.8125,0 L 27.15625,29.40625 Z"
         style="fill:#bebebe;fill-opacity:1;fill-rule:nonzero;stroke:none" />
      <path
         id="path3015"
         transform="translate(421.71429,499.79074)"
         d="m 9,9 0,12.96875 12.96875,0 L 21.96875,9 9,9 z m 2,2 8.96875,0 0,8.96875 -8.96875,0 L 11,11 Z"
         style="fill:#bebebe;fill-opacity:1;stroke:none"
         inkscape:connector-curvature="0" />
      <path
         id="path3007"
         transform="translate(421.71429,499.79074)"
         d="M 9,26.03125 9,39 l 12.96875,0 0,-12.96875 L 9,26.03125 z m 2,2 8.96875,0 0,8.96875 L 11,37 11,28.03125 Z"
         style="fill:#bebebe;fill-opacity:1;stroke:none"
         inkscape:connector-curvature="0" />
      <path
         sodipodi:nodetypes="ccccccccccc"
         inkscape:connector-curvature="0"
         style="fill:#bebebe;fill-opacity:1;fill-rule:nonzero;stroke:none"
         d="m 447.68304,512.15012 0,6.25 1.1875,0 2.875,0 1.8125,0 7.15625,0 0,-6.25 -7.15625,0 -1.8125,0 L 448.87054,512.15012 Z"
         id="path3027" />
    </g>
  </g>
</svg>
