<?xml version="1.0" encoding="UTF-8" standalone="no"?>
<!-- Created with Inkscape (http://www.inkscape.org/) -->

<svg
   xmlns:dc="http://purl.org/dc/elements/1.1/"
   xmlns:cc="http://creativecommons.org/ns#"
   xmlns:rdf="http://www.w3.org/1999/02/22-rdf-syntax-ns#"
   xmlns:svg="http://www.w3.org/2000/svg"
   xmlns="http://www.w3.org/2000/svg"
   xmlns:sodipodi="http://sodipodi.sourceforge.net/DTD/sodipodi-0.dtd"
   xmlns:inkscape="http://www.inkscape.org/namespaces/inkscape"
   version="1.1"
   width="16"
   height="16"
   id="svg7384"
   inkscape:version="0.48+devel r12384"
   sodipodi:docname="view-filter-symbolic.svg">
  <sodipodi:namedview
     pagecolor="#ffffff"
     bordercolor="#666666"
     borderopacity="1"
     objecttolerance="10"
     gridtolerance="10"
     guidetolerance="10"
     inkscape:pageopacity="0"
     inkscape:pageshadow="2"
     inkscape:window-width="1366"
     inkscape:window-height="714"
     id="namedview7"
     showgrid="false"
     inkscape:zoom="20.85965"
     inkscape:cx="10.66729"
     inkscape:cy="7.7244135"
     inkscape:window-x="0"
     inkscape:window-y="30"
     inkscape:window-maximized="1"
     inkscape:current-layer="svg7384" />
  <title
     id="title9167">Gnome Symbolic Icon Theme</title>
  <defs
     id="defs11" />
  <metadata
     id="metadata90">
    <rdf:RDF>
      <cc:Work
         rdf:about="">
        <dc:format>image/svg+xml</dc:format>
        <dc:type
           rdf:resource="http://purl.org/dc/dcmitype/StillImage" />
        <dc:title>Gnome Symbolic Icon Theme</dc:title>
      </cc:Work>
    </rdf:RDF>
  </metadata>
  <path
     style="fill:#bebebe;fill-opacity:1;stroke:none"
     d="m 1.25,12 0,2 3.5,0 L 4.75,12 Z"
     id="path4100"
     inkscape:connector-curvature="0"
     sodipodi:nodetypes="ccccc" />
  <path
     style="fill:#bebebe;fill-opacity:1;stroke:none"
     d="m 1.25,7 0,2 3.5,0 L 4.75,7 Z"
     id="path4096"
     inkscape:connector-curvature="0"
     sodipodi:nodetypes="ccccc" />
  <path
     inkscape:connector-curvature="0"
     style="fill:#bebebe;fill-opacity:1;fill-rule:nonzero;stroke:none"
     d="m 6.658854,14 1,0 c 0,-4 0,-8 0,-12 l -1,0 C 6.658854,6 6.658854,10 6.658854,14 Z"
     id="path380"
     sodipodi:nodetypes="ccccc" />
  <path
     style="fill:#bebebe;fill-opacity:1;stroke:none"
     d="m 1.25,2 0,2 3.5,0 L 4.75,2 Z"
     id="path4092"
     inkscape:connector-curvature="0"
     sodipodi:nodetypes="ccccc" />
  <path
     inkscape:connector-curvature="0"
     style="fill:#bebebe;fill-opacity:1;stroke:none"
     d="m 14.755208,1.999996 0,5.1875 -5.1875,0 0,-5.1875 L 14.755208,1.999996 z m -0.8,0.8 -3.5875,0 0,3.5875 3.5875,0 L 13.955208,2.799996 Z"
     id="path3015" />
  <path
     inkscape:connector-curvature="0"
     style="fill:#bebebe;fill-opacity:1;stroke:none"
     d="m 14.755208,8.8125 0,5.1875 -5.1875,0 0,-5.1875 L 14.755208,8.8125 z m -0.8,0.8 -3.5875,0 0,3.5875 3.5875,0 L 13.955208,9.6125 Z"
     id="path3007" />
</svg>
