<?xml version="1.0" encoding="UTF-8" standalone="no"?>
<!-- Created with Inkscape (http://www.inkscape.org/) -->

<svg
   xmlns:dc="http://purl.org/dc/elements/1.1/"
   xmlns:cc="http://creativecommons.org/ns#"
   xmlns:rdf="http://www.w3.org/1999/02/22-rdf-syntax-ns#"
   xmlns:svg="http://www.w3.org/2000/svg"
   xmlns="http://www.w3.org/2000/svg"
   xmlns:sodipodi="http://sodipodi.sourceforge.net/DTD/sodipodi-0.dtd"
   xmlns:inkscape="http://www.inkscape.org/namespaces/inkscape"
   width="16"
   height="16"
   id="svg1805"
   version="1.1"
   inkscape:version="0.48+devel r12312"
   sodipodi:docname="folder-remote-symbolic.svg">
  <defs
     id="defs1807" />
  <sodipodi:namedview
     id="base"
     pagecolor="#ffffff"
     bordercolor="#666666"
     borderopacity="1.0"
     inkscape:pageopacity="0.0"
     inkscape:pageshadow="2"
     inkscape:zoom="32"
     inkscape:cx="9.1550941"
     inkscape:cy="7.7045369"
     inkscape:document-units="px"
     inkscape:current-layer="layer1"
     showgrid="false"
     inkscape:window-width="1366"
     inkscape:window-height="714"
     inkscape:window-x="0"
     inkscape:window-y="30"
     inkscape:window-maximized="1" />
  <metadata
     id="metadata1810">
    <rdf:RDF>
      <cc:Work
         rdf:about="">
        <dc:format>image/svg+xml</dc:format>
        <dc:type
           rdf:resource="http://purl.org/dc/dcmitype/StillImage" />
        <dc:title />
      </cc:Work>
    </rdf:RDF>
  </metadata>
  <g
     inkscape:label="Capa 1"
     inkscape:groupmode="layer"
     id="layer1"
     transform="translate(0,-1036.3622)">
    <path
       style="fill:#bebebe;fill-opacity:1;stroke:none"
       d="m 3.074875,1038.3622 0,0.031 0,4.0625 0,1.4062 0,4.0625 0.75,0 2.84375,0 0,0.875 -3.5625,0 0,1.5625 9.78775,0 0,-1.5625 -3.53125,0 0,-0.875 0.84375,0 2.71875,0 0,-9.5625 -1,0 L 3.824875,1038.3622 z m 7.7945,0.4375 1.1495,0 c -0.02644,1.5412 -0.03125,3.1476 -0.03125,4.625 l 0,4.0938 -1.587,0 0,-4.7188 0.46875,-0.8125 L 10.869375,1040.0497 Z"
       id="path7481"
       inkscape:connector-curvature="0"
       sodipodi:nodetypes="ccccccccccccccccccccccscccccc" />
  </g>
</svg>
