<?xml version="1.0" encoding="UTF-8" standalone="no"?>
<!-- Created with Inkscape (http://www.inkscape.org/) -->

<svg
   xmlns:dc="http://purl.org/dc/elements/1.1/"
   xmlns:cc="http://creativecommons.org/ns#"
   xmlns:rdf="http://www.w3.org/1999/02/22-rdf-syntax-ns#"
   xmlns:svg="http://www.w3.org/2000/svg"
   xmlns="http://www.w3.org/2000/svg"
   xmlns:sodipodi="http://sodipodi.sourceforge.net/DTD/sodipodi-0.dtd"
   xmlns:inkscape="http://www.inkscape.org/namespaces/inkscape"
   id="svg7384"
   height="16"
   width="16"
   version="1.1"
   inkscape:version="0.48+devel r12388"
   sodipodi:docname="folder-publicshare-symbolic.svg">
  <defs
     id="defs10" />
  <sodipodi:namedview
     pagecolor="#ffffff"
     bordercolor="#666666"
     borderopacity="1"
     objecttolerance="10"
     gridtolerance="10"
     guidetolerance="10"
     inkscape:pageopacity="0"
     inkscape:pageshadow="2"
     inkscape:window-width="1366"
     inkscape:window-height="714"
     id="namedview8"
     showgrid="false"
     inkscape:zoom="16.881836"
     inkscape:cx="2.374105"
     inkscape:cy="12.634672"
     inkscape:window-x="0"
     inkscape:window-y="30"
     inkscape:window-maximized="1"
     inkscape:current-layer="svg7384" />
  <metadata
     id="metadata90">
    <rdf:RDF>
      <cc:Work
         rdf:about="">
        <dc:format>image/svg+xml</dc:format>
        <dc:type
           rdf:resource="http://purl.org/dc/dcmitype/StillImage" />
        <dc:title>Gnome Symbolic Icon Theme</dc:title>
      </cc:Work>
    </rdf:RDF>
  </metadata>
  <title
     id="title9167">Gnome Symbolic Icon Theme</title>
  <path
     style="fill:#bebebe;fill-opacity:1;stroke:none"
     d="M 14.421606,3.5373724 C 14.12429,2.4277734 12.992683,1.7744394 11.883084,2.0717556 10.773484,2.3690718 10.120151,3.5006794 10.417467,4.6102783 L 4.7058313,7.9078456 C 4.2281782,7.5902901 3.6233008,7.4721195 3.0228316,7.6330146 1.9132328,7.9303308 1.2598988,9.061939 1.5572149,10.171537 1.854531,11.281136 2.9861388,11.93447 4.0957376,11.637154 4.650537,11.488496 5.0850263,11.130634 5.351183,10.669638 l 4.99857,1.342901 c 0.0068,0.147461 0.01967,0.308965 0.05945,0.457411 0.297316,1.109599 1.458365,1.755044 2.567964,1.457728 1.109599,-0.297316 1.762933,-1.428924 1.465617,-2.538523 -0.297316,-1.109598 -1.428924,-1.762932 -2.538523,-1.465616 -0.518062,0.138814 -0.950205,0.445944 -1.220228,0.863412 L 5.6186913,9.430385 C 5.6074613,9.321489 5.5905953,9.207761 5.5613543,9.098632 5.5455083,9.039492 5.5345023,8.978445 5.5140203,8.921978 L 11.086334,5.6932982 c 0.501848,0.4181582 1.198605,0.5939605 1.877545,0.4120391 C 14.073478,5.8080211 14.718922,4.6469712 14.421606,3.5373724 Z"
     id="path815"
     inkscape:connector-curvature="0" />
</svg>
