<?xml version="1.0" encoding="UTF-8" standalone="no"?>
<!-- Created with Inkscape (http://www.inkscape.org/) -->

<svg
   xmlns:dc="http://purl.org/dc/elements/1.1/"
   xmlns:cc="http://creativecommons.org/ns#"
   xmlns:rdf="http://www.w3.org/1999/02/22-rdf-syntax-ns#"
   xmlns:svg="http://www.w3.org/2000/svg"
   xmlns="http://www.w3.org/2000/svg"
   xmlns:sodipodi="http://sodipodi.sourceforge.net/DTD/sodipodi-0.dtd"
   xmlns:inkscape="http://www.inkscape.org/namespaces/inkscape"
   id="svg7384"
   height="16"
   width="16"
   version="1.1"
   inkscape:version="0.48+devel r12387"
   sodipodi:docname="user-trash-full-symbolic.svg">
  <defs
     id="defs9" />
  <sodipodi:namedview
     pagecolor="#ffffff"
     bordercolor="#666666"
     borderopacity="1"
     objecttolerance="10"
     gridtolerance="10"
     guidetolerance="10"
     inkscape:pageopacity="0"
     inkscape:pageshadow="2"
     inkscape:window-width="1366"
     inkscape:window-height="714"
     id="namedview7"
     showgrid="false"
     inkscape:zoom="22.627417"
     inkscape:cx="11.674974"
     inkscape:cy="8.7651955"
     inkscape:window-x="0"
     inkscape:window-y="30"
     inkscape:window-maximized="1"
     inkscape:current-layer="svg7384" />
  <metadata
     id="metadata90">
    <rdf:RDF>
      <cc:Work
         rdf:about="">
        <dc:format>image/svg+xml</dc:format>
        <dc:type
           rdf:resource="http://purl.org/dc/dcmitype/StillImage" />
        <dc:title>Gnome Symbolic Icon Theme</dc:title>
      </cc:Work>
    </rdf:RDF>
  </metadata>
  <title
     id="title9167">Gnome Symbolic Icon Theme</title>
  <path
     style="fill:#bebebe;fill-opacity:1;fill-rule:nonzero;stroke:none"
     d="M 5,2 C 4.7632382,2 4.5625,2.18545 4.5625,2.40625 l 0,0.40625 -2.125,0 C 2.2007379,2.8125 2,2.9667 2,3.1875 2,3.4083 2.2007379,3.59375 2.4375,3.59375 l 11.125,0 C 13.799262,3.59375 14,3.4083 14,3.1875 14,2.9667 13.799261,2.8125 13.5625,2.8125 l -2.125,0 0,-0.40625 C 11.4375,2.18545 11.236762,2 11,2 z m -2.15625,3.3 0,8.7 10.3125,0 L 13.15625,5.3 Z M 6.28125,7.409375 8,9.096875 l 1.71875,-1.6875 0.6875,0.6875 -1.71875,1.6875 1.71875,1.71875 -0.6875,0.6875 L 8,10.471875 6.28125,12.190625 5.59375,11.503125 7.3125,9.784375 5.59375,8.096875 Z"
     id="path494"
     inkscape:connector-curvature="0"
     sodipodi:nodetypes="sscsssssscssscccccccccccccccccc" />
</svg>
