<?xml version="1.0" encoding="UTF-8" standalone="no"?>
<!-- Created with Inkscape (http://www.inkscape.org/) -->

<svg
   xmlns:dc="http://purl.org/dc/elements/1.1/"
   xmlns:cc="http://creativecommons.org/ns#"
   xmlns:rdf="http://www.w3.org/1999/02/22-rdf-syntax-ns#"
   xmlns:svg="http://www.w3.org/2000/svg"
   xmlns="http://www.w3.org/2000/svg"
   xmlns:xlink="http://www.w3.org/1999/xlink"
   xmlns:sodipodi="http://sodipodi.sourceforge.net/DTD/sodipodi-0.dtd"
   xmlns:inkscape="http://www.inkscape.org/namespaces/inkscape"
   width="48"
   height="48"
   id="svg2"
   version="1.1"
   inkscape:version="0.48+devel r12180"
   sodipodi:docname="package-purge.svg">
  <defs
     id="defs4">
    <linearGradient
       id="linearGradient1022">
      <stop
         style="stop-color:#e6e6e6;stop-opacity:1"
         offset="0"
         id="stop1024" />
      <stop
         style="stop-color:#ffffff;stop-opacity:1"
         offset="1"
         id="stop1026" />
    </linearGradient>
    <linearGradient
       id="linearGradient3758">
      <stop
         offset="0"
         style="stop-color:#c00000;stop-opacity:1"
         id="stop3760" />
      <stop
         offset="1"
         style="stop-color:#ff7e7e;stop-opacity:1"
         id="stop3762" />
    </linearGradient>
    <linearGradient
       inkscape:collect="always"
       xlink:href="#linearGradient1022"
       id="linearGradient845"
       x1="-74.625595"
       y1="-1052.403"
       x2="-74.625595"
       y2="-1004.4404"
       gradientUnits="userSpaceOnUse"
       gradientTransform="translate(100.58085,-8.6914063e-6)" />
    <linearGradient
       inkscape:collect="always"
       xlink:href="#linearGradient3758"
       id="linearGradient825"
       x1="24.92951"
       y1="1044.5411"
       x2="24.92951"
       y2="1012.2795"
       gradientUnits="userSpaceOnUse" />
  </defs>
  <sodipodi:namedview
     id="base"
     pagecolor="#ffffff"
     bordercolor="#666666"
     borderopacity="1.0"
     inkscape:pageopacity="0.0"
     inkscape:pageshadow="2"
     inkscape:zoom="1.5343262"
     inkscape:cx="-153.06528"
     inkscape:cy="2.6787738"
     inkscape:document-units="px"
     inkscape:current-layer="layer1"
     showgrid="false"
     inkscape:window-width="1366"
     inkscape:window-height="716"
     inkscape:window-x="0"
     inkscape:window-y="28"
     inkscape:window-maximized="1" />
  <metadata
     id="metadata7">
    <rdf:RDF>
      <cc:Work
         rdf:about="">
        <dc:format>image/svg+xml</dc:format>
        <dc:type
           rdf:resource="http://purl.org/dc/dcmitype/StillImage" />
        <dc:title></dc:title>
      </cc:Work>
    </rdf:RDF>
  </metadata>
  <g
     inkscape:label="Capa 1"
     inkscape:groupmode="layer"
     id="layer1"
     transform="translate(0,-1004.3622)">
    <rect
       style="fill:url(#linearGradient845);fill-opacity:1.0;stroke:none"
       id="rect2991-1-7"
       width="48"
       height="48"
       x="4.4677736e-06"
       y="-1052.3622"
       ry="1.9445436"
       transform="scale(1,-1)" />
    <path
       inkscape:connector-curvature="0"
       style="fill:#000000;fill-opacity:1;stroke:none"
       d="m -4.4677734e-6,1049.3622 0,1.0625 c 0,1.0773 0.8602159977734,1.9375 1.9374959677734,1.9375 l 44.1250005,0 c 1.07728,0 1.9375,-0.8602 1.9375,-1.9375 l 0,-1.0625 c 0,1.0773 -0.86022,1.9375 -1.9375,1.9375 l -44.1250005,0 C 0.86021153,1051.2997 -4.4677734e-6,1050.4395 -4.4677734e-6,1049.3622 Z"
       id="rect846" />
    <path
       inkscape:connector-curvature="0"
       style="fill:#ffffff;fill-opacity:0.5372549;stroke:none"
       d="m 2.5312415,1005.0185 c -0.91709,0 -1.67114997,0.6395 -1.84374997,1.5 0.33560997,-0.2799 0.77450997,-0.4375 1.24999997,-0.4375 l 44.1250005,0 c 0.47549,0 0.91439,0.1576 1.25,0.4375 -0.1726,-0.8605 -0.92666,-1.5 -1.84375,-1.5 L 2.5312415,1005.0185 Z"
       id="path7515" />
    <path
       inkscape:connector-curvature="0"
       style="fill:#000000;fill-opacity:0.39215686;stroke:none"
       d="m 1.9374915,1004.3622 c -1.07727997,0 -1.9374959677734,0.8602 -1.9374959677734,1.9375 l 0,43.0625 c 0,0.7934 0.4800199977734,1.449 1.1562459677734,1.75 -0.30933997,-0.3333 -0.49999997,-0.7824 -0.49999997,-1.2812 l 0,-42.9375 c 0,-1.0482 0.82689997,-1.875 1.87499997,-1.875 l 42.9375005,0 c 1.0481,0 1.875,0.8268 1.875,1.875 l 0,42.9375 c 0,0.4988 -0.19066,0.9479 -0.5,1.2812 0.67623,-0.301 1.15625,-0.9566 1.15625,-1.75 l 0,-43.0625 c 0,-1.0773 -0.86022,-1.9375 -1.9375,-1.9375 L 1.9374915,1004.3622 Z"
       id="rect4280" />
    <path
       inkscape:connector-curvature="0"
       style="fill:url(#linearGradient825);fill-opacity:1;stroke:none"
       d="m 15.650923,1012.3622 -7.6508945,7.651 8.3490755,8.3491 -8.3490755,8.349 7.6508945,7.6509 8.349077,-8.3491 8.349077,8.3491 7.650894,-7.6509 -8.349074,-8.349 8.349074,-8.3491 -7.650894,-7.651 -8.349076,8.3491 L 15.650923,1012.3622 Z"
       id="rect1923-0" />
  </g>
</svg>
