<?xml version="1.0" encoding="UTF-8" standalone="no"?>
<!-- Created with Inkscape (http://www.inkscape.org/) -->

<svg
   xmlns:dc="http://purl.org/dc/elements/1.1/"
   xmlns:cc="http://creativecommons.org/ns#"
   xmlns:rdf="http://www.w3.org/1999/02/22-rdf-syntax-ns#"
   xmlns:svg="http://www.w3.org/2000/svg"
   xmlns="http://www.w3.org/2000/svg"
   xmlns:xlink="http://www.w3.org/1999/xlink"
   xmlns:sodipodi="http://sodipodi.sourceforge.net/DTD/sodipodi-0.dtd"
   xmlns:inkscape="http://www.inkscape.org/namespaces/inkscape"
   width="48"
   height="48"
   id="svg2"
   version="1.1"
   inkscape:version="0.48+devel r12180"
   sodipodi:docname="package-install.svg">
  <defs
     id="defs4">
    <linearGradient
       id="linearGradient1433">
      <stop
         style="stop-color:#ececec;stop-opacity:1"
         offset="0"
         id="stop1435" />
      <stop
         style="stop-color:#ffffff;stop-opacity:1"
         offset="1"
         id="stop1437" />
    </linearGradient>
    <linearGradient
       y2="398.18994"
       x2="-168.51685"
       y1="432.34732"
       x1="-168.51685"
       gradientUnits="userSpaceOnUse"
       id="linearGradient3354"
       xlink:href="#linearGradient3618"
       inkscape:collect="always"
       gradientTransform="matrix(0.93086184,0,0,0.93086184,175.59749,641.89188)" />
    <linearGradient
       id="linearGradient3618">
      <stop
         style="stop-color:#7cc430;stop-opacity:1;"
         offset="0"
         id="stop3620" />
      <stop
         style="stop-color:#bada59;stop-opacity:1;"
         offset="1"
         id="stop3622-3" />
    </linearGradient>
    <linearGradient
       inkscape:collect="always"
       xlink:href="#linearGradient1433"
       id="linearGradient1431"
       x1="82.731491"
       y1="-1052.7157"
       x2="82.731491"
       y2="-1004.4557"
       gradientUnits="userSpaceOnUse"
       gradientTransform="translate(-56.568542,0.12498262)" />
  </defs>
  <sodipodi:namedview
     id="base"
     pagecolor="#ffffff"
     bordercolor="#666666"
     borderopacity="1.0"
     inkscape:pageopacity="0.0"
     inkscape:pageshadow="2"
     inkscape:zoom="5.6568543"
     inkscape:cx="-25.30392"
     inkscape:cy="32.025347"
     inkscape:document-units="px"
     inkscape:current-layer="layer1"
     showgrid="false"
     inkscape:window-width="1366"
     inkscape:window-height="716"
     inkscape:window-x="0"
     inkscape:window-y="28"
     inkscape:window-maximized="1" />
  <metadata
     id="metadata7">
    <rdf:RDF>
      <cc:Work
         rdf:about="">
        <dc:format>image/svg+xml</dc:format>
        <dc:type
           rdf:resource="http://purl.org/dc/dcmitype/StillImage" />
        <dc:title />
      </cc:Work>
    </rdf:RDF>
  </metadata>
  <g
     inkscape:label="Capa 1"
     inkscape:groupmode="layer"
     id="layer1"
     transform="translate(0,-1004.3622)">
    <rect
       style="fill:url(#linearGradient1431);fill-opacity:1;stroke:none"
       id="rect2991-1-7"
       width="48"
       height="48"
       x="0"
       y="-1052.3622"
       ry="1.9445436"
       transform="scale(1,-1)" />
    <rect
       style="fill:none;stroke:none"
       id="rect3762"
       width="48"
       height="48"
       x="0"
       y="1004.3668" />
    <path
       style="fill:url(#linearGradient3354);fill-opacity:1;stroke:none"
       d="m 4.391823,1029.4959 7.216284,7.2164 7.650046,7.6499 7.669761,-7.6697 16.680263,-16.6802 -7.650046,-7.6501 -16.680262,16.6802 -7.216275,-7.2164 L 4.391823,1029.4959 Z"
       id="rect1172"
       inkscape:connector-curvature="0" />
    <rect
       style="fill:none;stroke:none"
       id="rect3345"
       width="27.999998"
       height="27.999998"
       x="10.000004"
       y="1014.3622" />
    <path
       inkscape:connector-curvature="0"
       style="fill:#000000;fill-opacity:1;stroke:none"
       d="m 0,1049.3622 0,1.0625 c 0,1.0773 0.86022,1.9375 1.9375,1.9375 l 44.125,0 c 1.07728,0 1.9375,-0.8602 1.9375,-1.9375 l 0,-1.0625 c 0,1.0773 -0.86022,1.9375 -1.9375,1.9375 l -44.125,0 C 0.86022,1051.2997 0,1050.4395 0,1049.3622 Z"
       id="rect846" />
    <path
       inkscape:connector-curvature="0"
       style="fill:#ffffff;fill-opacity:0.5372549;stroke:none"
       d="m 2.53125,1005.0185 c -0.91709,0 -1.67115,0.6395 -1.84375,1.5 0.33561,-0.2799 0.77451,-0.4375 1.25,-0.4375 l 44.125,0 c 0.47549,0 0.91439,0.1576 1.25,0.4375 -0.1726,-0.8605 -0.92666,-1.5 -1.84375,-1.5 L 2.53125,1005.0185 Z"
       id="path7515" />
    <path
       inkscape:connector-curvature="0"
       style="fill:#000000;fill-opacity:0.39215686;stroke:none"
       d="m 1.9375,1004.3622 c -1.07728,0 -1.9375,0.8602 -1.9375,1.9375 l 0,43.0625 c 0,0.7934 0.48002,1.449 1.15625,1.75 -0.30934,-0.3333 -0.5,-0.7824 -0.5,-1.2812 l 0,-42.9375 c 0,-1.0482 0.8269,-1.875 1.875,-1.875 l 42.9375,0 c 1.0481,0 1.875,0.8268 1.875,1.875 l 0,42.9375 c 0,0.4988 -0.19066,0.9479 -0.5,1.2812 0.67623,-0.301 1.15625,-0.9566 1.15625,-1.75 l 0,-43.0625 c 0,-1.0773 -0.86022,-1.9375 -1.9375,-1.9375 L 1.9375,1004.3622 Z"
       id="rect4280" />
  </g>
</svg>
