<?xml version="1.0" encoding="UTF-8" standalone="no"?>
<!-- Created with Inkscape (http://www.inkscape.org/) -->

<svg
   xmlns:dc="http://purl.org/dc/elements/1.1/"
   xmlns:cc="http://creativecommons.org/ns#"
   xmlns:rdf="http://www.w3.org/1999/02/22-rdf-syntax-ns#"
   xmlns:svg="http://www.w3.org/2000/svg"
   xmlns="http://www.w3.org/2000/svg"
   xmlns:xlink="http://www.w3.org/1999/xlink"
   xmlns:sodipodi="http://sodipodi.sourceforge.net/DTD/sodipodi-0.dtd"
   xmlns:inkscape="http://www.inkscape.org/namespaces/inkscape"
   width="48"
   height="48"
   id="svg2"
   version="1.1"
   inkscape:version="0.48+devel r12180"
   sodipodi:docname="package-downgrade.svg">
  <defs
     id="defs4">
    <linearGradient
       inkscape:collect="always"
       xlink:href="#linearGradient3758"
       id="linearGradient838"
       x1="-19.226681"
       y1="-1054.4803"
       x2="-19.226681"
       y2="-1006.5767"
       gradientUnits="userSpaceOnUse"
       gradientTransform="translate(44.041371,2.0034003)" />
    <linearGradient
       id="linearGradient3758">
      <stop
         offset="0"
         style="stop-color:#c00000;stop-opacity:1"
         id="stop3760" />
      <stop
         offset="1"
         style="stop-color:#ff7e7e;stop-opacity:1"
         id="stop3762" />
    </linearGradient>
  </defs>
  <sodipodi:namedview
     id="base"
     pagecolor="#ffffff"
     bordercolor="#666666"
     borderopacity="1.0"
     inkscape:pageopacity="0.0"
     inkscape:pageshadow="2"
     inkscape:zoom="6.1373048"
     inkscape:cx="8.5256615"
     inkscape:cy="24.570013"
     inkscape:document-units="px"
     inkscape:current-layer="layer1"
     showgrid="false"
     inkscape:window-width="1366"
     inkscape:window-height="716"
     inkscape:window-x="0"
     inkscape:window-y="28"
     inkscape:window-maximized="1" />
  <metadata
     id="metadata7">
    <rdf:RDF>
      <cc:Work
         rdf:about="">
        <dc:format>image/svg+xml</dc:format>
        <dc:type
           rdf:resource="http://purl.org/dc/dcmitype/StillImage" />
        <dc:title></dc:title>
      </cc:Work>
    </rdf:RDF>
  </metadata>
  <g
     inkscape:label="Capa 1"
     inkscape:groupmode="layer"
     id="layer1"
     transform="translate(0,-1004.3622)">
    <rect
       style="fill:url(#linearGradient838);fill-opacity:1.0;stroke:none"
       id="rect2991-1-7"
       width="48"
       height="48"
       x="4.7114258e-06"
       y="-1052.3622"
       ry="1.9445436"
       transform="scale(1,-1)" />
    <path
       inkscape:connector-curvature="0"
       style="fill:#000000;fill-opacity:1;stroke:none"
       d="m -4.7114258e-6,1049.3622 0,1.0625 c 0,1.0773 0.8602200014258,1.9375 1.9375000114258,1.9375 l 44.1249997,0 c 1.07728,0 1.9375,-0.8602 1.9375,-1.9375 l 0,-1.0625 c 0,1.0773 -0.86022,1.9375 -1.9375,1.9375 l -44.1249997,0 C 0.86021529,1051.2997 -4.7114258e-6,1050.4395 -4.7114258e-6,1049.3622 Z"
       id="rect846" />
    <path
       inkscape:connector-curvature="0"
       style="fill:#ffffff;fill-opacity:0.5372549;stroke:none"
       d="m 2.5312453,1005.0185 c -0.91709,0 -1.67115001,0.6395 -1.84375001,1.5 0.33561001,-0.2799 0.77451001,-0.4375 1.25000001,-0.4375 l 44.1249997,0 c 0.47549,0 0.91439,0.1576 1.25,0.4375 -0.1726,-0.8605 -0.92666,-1.5 -1.84375,-1.5 L 2.5312453,1005.0185 Z"
       id="path7515" />
    <path
       inkscape:connector-curvature="0"
       style="fill:#000000;fill-opacity:0.39215686;stroke:none"
       d="m 1.9374953,1004.3622 c -1.07728001,0 -1.9375000114258,0.8602 -1.9375000114258,1.9375 l 0,43.0625 c 0,0.7934 0.4800200014258,1.449 1.1562500114258,1.75 -0.30934001,-0.3333 -0.50000001,-0.7824 -0.50000001,-1.2812 l 0,-42.9375 c 0,-1.0482 0.82690001,-1.875 1.87500001,-1.875 l 42.9374997,0 c 1.0481,0 1.875,0.8268 1.875,1.875 l 0,42.9375 c 0,0.4988 -0.19066,0.9479 -0.5,1.2812 0.67623,-0.301 1.15625,-0.9566 1.15625,-1.75 l 0,-43.0625 c 0,-1.0773 -0.86022,-1.9375 -1.9375,-1.9375 L 1.9374953,1004.3622 Z"
       id="rect4280" />
    <path
       inkscape:connector-curvature="0"
       style="fill:#ffffff;fill-opacity:1;stroke:none"
       d="m 8.500976,1026.4523 7.201567,0 0,-14.0901 16.657538,0 0,14.0901 7.138943,0 -7.702545,8.955 -7.765169,8.9549 -7.765168,-8.9549 L 8.500976,1026.4523 Z"
       id="rect3036" />
  </g>
</svg>
