<?xml version="1.0" encoding="UTF-8" standalone="no"?>
<!-- Created with Inkscape (http://www.inkscape.org/) -->

<svg
   xmlns:dc="http://purl.org/dc/elements/1.1/"
   xmlns:cc="http://creativecommons.org/ns#"
   xmlns:rdf="http://www.w3.org/1999/02/22-rdf-syntax-ns#"
   xmlns:svg="http://www.w3.org/2000/svg"
   xmlns="http://www.w3.org/2000/svg"
   xmlns:xlink="http://www.w3.org/1999/xlink"
   xmlns:sodipodi="http://sodipodi.sourceforge.net/DTD/sodipodi-0.dtd"
   xmlns:inkscape="http://www.inkscape.org/namespaces/inkscape"
   width="48"
   height="48"
   id="svg2"
   version="1.1"
   inkscape:version="0.48+devel r12180"
   sodipodi:docname="package-reinstall.svg">
  <defs
     id="defs4">
    <linearGradient
       id="linearGradient3618">
      <stop
         style="stop-color:#7cc430;stop-opacity:1;"
         offset="0"
         id="stop3620" />
      <stop
         style="stop-color:#bada59;stop-opacity:1;"
         offset="1"
         id="stop3622-3" />
    </linearGradient>
    <linearGradient
       inkscape:collect="always"
       xlink:href="#linearGradient3618"
       id="linearGradient838"
       x1="-19.226681"
       y1="-1054.4803"
       x2="-19.226681"
       y2="-1006.5767"
       gradientUnits="userSpaceOnUse"
       gradientTransform="translate(44.041371,2.0034003)" />
  </defs>
  <sodipodi:namedview
     id="base"
     pagecolor="#ffffff"
     bordercolor="#666666"
     borderopacity="1.0"
     inkscape:pageopacity="0.0"
     inkscape:pageshadow="2"
     inkscape:zoom="6.1373048"
     inkscape:cx="54.066825"
     inkscape:cy="24.570013"
     inkscape:document-units="px"
     inkscape:current-layer="layer1"
     showgrid="false"
     inkscape:window-width="1366"
     inkscape:window-height="716"
     inkscape:window-x="0"
     inkscape:window-y="28"
     inkscape:window-maximized="1" />
  <metadata
     id="metadata7">
    <rdf:RDF>
      <cc:Work
         rdf:about="">
        <dc:format>image/svg+xml</dc:format>
        <dc:type
           rdf:resource="http://purl.org/dc/dcmitype/StillImage" />
        <dc:title></dc:title>
      </cc:Work>
    </rdf:RDF>
  </metadata>
  <g
     inkscape:label="Capa 1"
     inkscape:groupmode="layer"
     id="layer1"
     transform="translate(0,-1004.3622)">
    <rect
       style="fill:url(#linearGradient838);fill-opacity:1;stroke:none"
       id="rect2991-1-7"
       width="48"
       height="48"
       x="4.7114258e-06"
       y="-1052.3622"
       ry="1.9445436"
       transform="scale(1,-1)" />
    <path
       inkscape:connector-curvature="0"
       style="fill:#000000;fill-opacity:1;stroke:none"
       d="m -4.7114258e-6,1049.3622 0,1.0625 c 0,1.0773 0.8602200014258,1.9375 1.9375000114258,1.9375 l 44.1249997,0 c 1.07728,0 1.9375,-0.8602 1.9375,-1.9375 l 0,-1.0625 c 0,1.0773 -0.86022,1.9375 -1.9375,1.9375 l -44.1249997,0 C 0.86021529,1051.2997 -4.7114258e-6,1050.4395 -4.7114258e-6,1049.3622 Z"
       id="rect846" />
    <path
       inkscape:connector-curvature="0"
       style="fill:#ffffff;fill-opacity:0.5372549;stroke:none"
       d="m 2.5312453,1005.0185 c -0.91709,0 -1.67115001,0.6395 -1.84375001,1.5 0.33561001,-0.2799 0.77451001,-0.4375 1.25000001,-0.4375 l 44.1249997,0 c 0.47549,0 0.91439,0.1576 1.25,0.4375 -0.1726,-0.8605 -0.92666,-1.5 -1.84375,-1.5 L 2.5312453,1005.0185 Z"
       id="path7515" />
    <path
       inkscape:connector-curvature="0"
       style="fill:#000000;fill-opacity:0.39215686;stroke:none"
       d="m 1.9374953,1004.3622 c -1.07728001,0 -1.9375000114258,0.8602 -1.9375000114258,1.9375 l 0,43.0625 c 0,0.7934 0.4800200014258,1.449 1.1562500114258,1.75 -0.30934001,-0.3333 -0.50000001,-0.7824 -0.50000001,-1.2812 l 0,-42.9375 c 0,-1.0482 0.82690001,-1.875 1.87500001,-1.875 l 42.9374997,0 c 1.0481,0 1.875,0.8268 1.875,1.875 l 0,42.9375 c 0,0.4988 -0.19066,0.9479 -0.5,1.2812 0.67623,-0.301 1.15625,-0.9566 1.15625,-1.75 l 0,-43.0625 c 0,-1.0773 -0.86022,-1.9375 -1.9375,-1.9375 L 1.9374953,1004.3622 Z"
       id="rect4280" />
    <g
       id="g124"
       transform="matrix(2.4362271,0,0,-2.4362271,41.366112,1020.7089)"
       style="fill:#ffffff;fill-opacity:1">
      <path
         d="m 0,0 -0.074,-2.439 -2.44,-0.075 -2.437,-0.076 1.398,1.401 c -0.006,0.005 -0.01,0.013 -0.017,0.021 -0.426,0.426 -0.91,0.748 -1.451,0.969 -0.542,0.22 -1.096,0.332 -1.661,0.334 -0.566,0.002 -1.121,-0.106 -1.66,-0.324 -0.541,-0.217 -1.021,-0.538 -1.445,-0.961 -0.436,-0.436 -0.756,-0.924 -0.961,-1.463 -0.205,-0.541 -0.299,-1.094 -0.283,-1.66 0.013,-0.567 0.136,-1.122 0.371,-1.663 0.226,-0.523 0.547,-0.992 0.953,-1.408 l -2.365,-2.365 c -0.739,0.744 -1.297,1.586 -1.674,2.527 -0.381,0.952 -0.576,1.916 -0.586,2.901 -0.012,0.982 0.168,1.949 0.537,2.902 0.371,0.951 0.932,1.803 1.684,2.553 0.763,0.765 1.623,1.334 2.574,1.703 0.951,0.371 1.922,0.553 2.912,0.549 C -5.637,3.42 -4.666,3.229 -3.717,2.85 -2.783,2.475 -1.941,1.916 -1.189,1.174 L 0.076,2.438 0,0 Z"
         style="fill:#ffffff;fill-opacity:1;fill-rule:nonzero;stroke:none"
         id="path126"
         inkscape:connector-curvature="0" />
    </g>
  </g>
</svg>
