<?xml version="1.0" encoding="UTF-8" standalone="no"?>
<!-- Created with Inkscape (http://www.inkscape.org/) -->

<svg
   xmlns:dc="http://purl.org/dc/elements/1.1/"
   xmlns:cc="http://creativecommons.org/ns#"
   xmlns:rdf="http://www.w3.org/1999/02/22-rdf-syntax-ns#"
   xmlns:svg="http://www.w3.org/2000/svg"
   xmlns="http://www.w3.org/2000/svg"
   xmlns:xlink="http://www.w3.org/1999/xlink"
   xmlns:sodipodi="http://sodipodi.sourceforge.net/DTD/sodipodi-0.dtd"
   xmlns:inkscape="http://www.inkscape.org/namespaces/inkscape"
   width="16"
   height="16"
   id="svg2"
   version="1.1"
   inkscape:version="0.48+devel r12388"
   sodipodi:docname="help.svg">
  <defs
     id="defs4">
    <linearGradient
       x1="45.447727"
       y1="92.539597"
       x2="45.447727"
       y2="7.0165396"
       id="ButtonShadow"
       gradientUnits="userSpaceOnUse"
       gradientTransform="matrix(1.0058652,0,0,0.994169,-95.41278,992.8032)">
      <stop
         id="stop3750"
         style="stop-color:#000000;stop-opacity:1"
         offset="0" />
      <stop
         id="stop3752"
         style="stop-color:#000000;stop-opacity:0.58823532"
         offset="1" />
    </linearGradient>
    <linearGradient
       id="linearGradient3737">
      <stop
         id="stop3739"
         style="stop-color:#ffffff;stop-opacity:1"
         offset="0" />
      <stop
         id="stop3741"
         style="stop-color:#ffffff;stop-opacity:0"
         offset="1" />
    </linearGradient>
    <filter
       id="filter3174"
       style="color-interpolation-filters:sRGB">
      <feGaussianBlur
         id="feGaussianBlur3176"
         stdDeviation="1.71" />
    </filter>
    <filter
       x="-0.192"
       y="-0.192"
       width="1.3839999"
       height="1.3839999"
       id="filter3794"
       style="color-interpolation-filters:sRGB">
      <feGaussianBlur
         id="feGaussianBlur3796"
         stdDeviation="5.28" />
    </filter>
    <linearGradient
       x1="48"
       y1="20.220806"
       x2="48"
       y2="138.66119"
       id="linearGradient3613"
       xlink:href="#linearGradient3737"
       gradientUnits="userSpaceOnUse" />
    <clipPath
       id="clipPath3613">
      <rect
         width="84"
         height="84"
         rx="6"
         ry="6"
         x="6"
         y="6"
         id="rect3615"
         style="fill:#ffffff;fill-opacity:1;fill-rule:nonzero;stroke:none" />
    </clipPath>
  </defs>
  <sodipodi:namedview
     id="base"
     pagecolor="#ffffff"
     bordercolor="#666666"
     borderopacity="1.0"
     inkscape:pageopacity="0.0"
     inkscape:pageshadow="2"
     inkscape:zoom="15.839192"
     inkscape:cx="2.645328"
     inkscape:cy="8.9844109"
     inkscape:document-units="px"
     inkscape:current-layer="layer1"
     showgrid="false"
     inkscape:window-width="1366"
     inkscape:window-height="714"
     inkscape:window-x="0"
     inkscape:window-y="30"
     inkscape:window-maximized="1" />
  <metadata
     id="metadata7">
    <rdf:RDF>
      <cc:Work
         rdf:about="">
        <dc:format>image/svg+xml</dc:format>
        <dc:type
           rdf:resource="http://purl.org/dc/dcmitype/StillImage" />
        <dc:title />
      </cc:Work>
    </rdf:RDF>
  </metadata>
  <g
     inkscape:label="Ebene 1"
     inkscape:groupmode="layer"
     id="layer1"
     transform="translate(0,-1036.3622)">
    <rect
       width="86"
       height="85"
       rx="6"
       ry="6"
       x="-90.412781"
       y="999.80322"
       id="rect3745"
       style="opacity:0.9;fill:url(#ButtonShadow);fill-opacity:1;fill-rule:nonzero;stroke:none;display:none;filter:url(#filter3174)" />
    <rect
       width="66"
       height="66"
       rx="12"
       ry="12"
       x="15"
       y="15"
       clip-path="url(#clipPath3613)"
       id="rect3171"
       style="opacity:0.1;fill:url(#linearGradient3613);fill-opacity:1;fill-rule:nonzero;stroke:#ffffff;stroke-width:0.5;stroke-linecap:round;stroke-linejoin:miter;stroke-miterlimit:4;stroke-opacity:1;stroke-dasharray:none;stroke-dashoffset:0;display:none;filter:url(#filter3794)"
       transform="translate(-95.41278,992.8032)" />
    <g
       inkscape:label="Capa 1"
       id="layer1-7"
       transform="matrix(0.46875,0,0,0.46875,-3.25,562.31742)">
      <path
         inkscape:connector-curvature="0"
         style="fill:#1a1a1a;fill-opacity:0.98039216;stroke:none"
         d="m 24,8 c -2.071744,-3e-4 -4.115001,0.77005 -5.625,2.28125 -1.513992,1.512 -2.375,3.4883 -2.375,5.625 l 4,0 c 0,-1.0709 0.429501,-2.02685 1.1875,-2.78125 1.557991,-1.5618 4.128507,-1.5589 5.6875,0 0.756,0.7544 1.125,1.71115 1.125,2.78125 0,1.0659 -0.369998,2.1169 -1.125,2.875 l -6.75,6.625 c -0.945001,0.7808 -1.4375,2.07025 -1.4375,3.40625 0,1.336 0.492499,2.5824 1.4375,3.6875 0.944995,0.9459 2.226502,1.46875 3.5625,1.46875 1.335992,0 2.556003,-0.52285 3.5,-1.46875 0.944995,-1.1051 1.5,-2.3515 1.5,-3.6875 l -4,0 c 0,0.1562 -0.05849,0.4292 -0.3125,0.6875 -0.390998,0.3909 -1.015255,0.3909 -1.40625,0 -0.388998,-0.3912 -0.388998,-0.9837 0,-1.375 L 29.625,21.59375 c 1.511992,-1.5107 2.375,-3.5504 2.375,-5.6875 0,-2.141 -0.864007,-4.118 -2.375,-5.625 C 28.113001,8.77155 26.071744,8.0003 24,8 z m -0.375,28 c -1.104994,0 -2,0.8911 -2,2 0,1.1021 0.895006,2 2,2 1.104996,0 2,-0.8979 2,-2 C 25.625,36.8911 24.729996,36 23.625,36 Z"
         transform="translate(0,1004.3622)"
         id="path825" />
    </g>
  </g>
</svg>
