<?xml version="1.0" encoding="UTF-8" standalone="no"?>
<!-- Created with Inkscape (http://www.inkscape.org/) -->

<svg
   xmlns:dc="http://purl.org/dc/elements/1.1/"
   xmlns:cc="http://creativecommons.org/ns#"
   xmlns:rdf="http://www.w3.org/1999/02/22-rdf-syntax-ns#"
   xmlns:svg="http://www.w3.org/2000/svg"
   xmlns="http://www.w3.org/2000/svg"
   xmlns:sodipodi="http://sodipodi.sourceforge.net/DTD/sodipodi-0.dtd"
   xmlns:inkscape="http://www.inkscape.org/namespaces/inkscape"
   width="16"
   height="16"
   id="svg2"
   version="1.1"
   inkscape:version="0.48+devel r12388"
   sodipodi:docname="info.svg">
  <defs
     id="defs4" />
  <sodipodi:namedview
     id="base"
     pagecolor="#ffffff"
     bordercolor="#666666"
     borderopacity="1.0"
     inkscape:pageopacity="0.0"
     inkscape:pageshadow="2"
     inkscape:zoom="1.979899"
     inkscape:cx="72.9885"
     inkscape:cy="18.815406"
     inkscape:document-units="px"
     inkscape:current-layer="layer1"
     showgrid="false"
     inkscape:window-width="1366"
     inkscape:window-height="714"
     inkscape:window-x="0"
     inkscape:window-y="30"
     inkscape:window-maximized="1" />
  <metadata
     id="metadata7">
    <rdf:RDF>
      <cc:Work
         rdf:about="">
        <dc:format>image/svg+xml</dc:format>
        <dc:type
           rdf:resource="http://purl.org/dc/dcmitype/StillImage" />
      </cc:Work>
    </rdf:RDF>
  </metadata>
  <g
     inkscape:label="Ebene 1"
     inkscape:groupmode="layer"
     id="layer1"
     transform="translate(0,-1036.3622)">
    <text
       xml:space="preserve"
       style="font-size:34.6678772px;font-style:normal;font-variant:normal;font-weight:bold;font-stretch:normal;line-height:125%;letter-spacing:0px;word-spacing:0px;fill:#000000;fill-opacity:1;stroke:none;font-family:Impact;-inkscape-font-specification:Impact Bold"
       x="-32.280514"
       y="1047.6528"
       id="text818"
       sodipodi:linespacing="125%"><tspan
         sodipodi:role="line"
         id="tspan820"
         x="-32.280514"
         y="1047.6528" /></text>
    <path
       style="fill:#1a1a1a;fill-opacity:1;fill-rule:nonzero;stroke:none"
       d="m 9.2106709,1037.862 c -0.951748,0 -1.724182,0.7276 -1.724182,1.6249 0,0.897 0.772434,1.6248 1.724182,1.6248 0.9512811,0 1.7241811,-0.7278 1.7241811,-1.6248 C 10.934852,1038.5896 10.161952,1037.862 9.2106709,1037.862 z m -1.426103,3.8984 c -0.432857,0.01 -0.978282,0.078 -1.642356,0.2864 0,0 -0.829944,0.2368 -1.046197,0.6195 0,0 -0.154534,0.2748 0.227942,0.2455 0,0 1.630432,-0.1309 1.630666,0.5845 -0.0026,0.042 -0.0058,0.087 -0.0058,0.1286 0,0.055 0.0016,0.1092 0.0058,0.1636 0,0 -0.0056,0.4638 -0.222098,1.3735 0,0 -0.786694,2.7868 -0.859167,3.3198 -0.04699,0.1681 -0.07013,0.3519 -0.07013,0.5377 0,0.6165 0.27774,1.1543 0.695518,1.4553 0,0 0.0159,0.012 0.0526,0.035 0.07925,0.052 0.163885,0.095 0.251321,0.1285 0.43578,0.1857 1.340303,0.4073 2.729467,-0.029 0,0 0.8304121,-0.2369 1.0461981,-0.6195 0,0 0.154299,-0.2748 -0.227942,-0.2455 0,0 -1.6304341,0.1311 -1.6306671,-0.5845 0.003,-0.047 0.0058,-0.098 0.0058,-0.1461 0,-0.019 4.77e-4,-0.034 0,-0.053 -0.0019,-0.2121 0.01661,-1.0177 0.368216,-2.11 0,0 0.575349,-1.6888 0.753963,-2.7703 0.02876,-0.13 0.04325,-0.2633 0.04676,-0.4032 0.0047,-0.075 0.004,-0.1443 0,-0.2046 -6.94e-4,-0.013 -0.0016,-0.024 -0.0058,-0.035 -0.0526,-0.6064 -0.359799,-1.1226 -0.789032,-1.3911 0,0 -0.02034,-0.017 -0.06429,-0.041 -0.08861,-0.048 -0.183757,-0.084 -0.280545,-0.111 C 8.5381819,1041.8254 8.2174249,1041.757 7.7845679,1041.7604 Z"
       id="path1640"
       inkscape:connector-curvature="0" />
  </g>
</svg>
