<?xml version="1.0" encoding="UTF-8" standalone="no"?>
<!-- Created with Inkscape (http://www.inkscape.org/) -->

<svg
   xmlns:dc="http://purl.org/dc/elements/1.1/"
   xmlns:cc="http://creativecommons.org/ns#"
   xmlns:rdf="http://www.w3.org/1999/02/22-rdf-syntax-ns#"
   xmlns:svg="http://www.w3.org/2000/svg"
   xmlns="http://www.w3.org/2000/svg"
   xmlns:sodipodi="http://sodipodi.sourceforge.net/DTD/sodipodi-0.dtd"
   xmlns:inkscape="http://www.inkscape.org/namespaces/inkscape"
   id="svg7384"
   height="16"
   width="16"
   version="1.1"
   inkscape:version="0.48+devel r12370"
   sodipodi:docname="battery-caution-symbolic.svg">
  <defs
     id="defs11" />
  <sodipodi:namedview
     pagecolor="#ffffff"
     bordercolor="#666666"
     borderopacity="1"
     objecttolerance="10"
     gridtolerance="10"
     guidetolerance="10"
     inkscape:pageopacity="0"
     inkscape:pageshadow="2"
     inkscape:window-width="1366"
     inkscape:window-height="714"
     id="namedview9"
     showgrid="false"
     inkscape:zoom="16"
     inkscape:cx="-1.2264489"
     inkscape:cy="11.892921"
     inkscape:window-x="0"
     inkscape:window-y="30"
     inkscape:window-maximized="1"
     inkscape:current-layer="svg7384" />
  <metadata
     id="metadata90">
    <rdf:RDF>
      <cc:Work
         rdf:about="">
        <dc:format>image/svg+xml</dc:format>
        <dc:type
           rdf:resource="http://purl.org/dc/dcmitype/StillImage" />
        <dc:title>Gnome Symbolic Icon Theme</dc:title>
      </cc:Work>
    </rdf:RDF>
  </metadata>
  <title
     id="title9167">Gnome Symbolic Icon Theme</title>
  <path
     style="fill:#ef2929;fill-opacity:1;stroke:none"
     d="m 5.2641334,10.6875 0,1.5 1.40625,0 L 7.5141334,10.6875 Z"
     id="rect838-8"
     inkscape:connector-curvature="0"
     sodipodi:nodetypes="ccccc" />
  <path
     style="fill:#bebebe;fill-opacity:1;stroke:none"
     d="m 5.1703834,2 0,1.125 3.25,0 0,-1.125 L 5.1703834,2 z m -1.5625,1.75 0,10.25 2.09375,0 0,-1.3125 -0.84375,0 0,-7.59375 3.875,0 0,3.25 1.25,0 0,-4.59375 L 3.6078834,3.75 Z"
     id="path822"
     inkscape:connector-curvature="0" />
  <path
     inkscape:connector-curvature="0"
     id="path2993"
     d="m 5.1092596,3.1379798 3.0143755,0 0,-1.1379818 L 5.1092596,1.999998 Z"
     style="fill:#bebebe;fill-opacity:1;stroke:none" />
  <path
     style="fill:#f57900;fill-opacity:1"
     inkscape:connector-curvature="0"
     d="M 12.329917,13.540916 9.6440854,8.8894199 c -0.1454598,-0.2525766 -0.3839512,-0.2525766 -0.5297588,0 L 6.428668,13.540916 c -0.1458945,0.252576 -0.026692,0.459072 0.264749,0.459072 l 5.371925,0 C 12.35661,14.000075 12.475551,13.793579 12.329917,13.540916 z m -2.579932,-0.278661 -0.7410363,0 0,-0.717213 0.7410363,0 L 9.749985,13.262255 z m 0,-1.171155 -0.7410363,0 0,-1.69761 0.7410363,0 L 9.749985,12.0911 Z"
     id="path336" />
  <g
     transform="matrix(0.1875,0,0,0.1875,-0.3721044,-181.81792)"
     id="g13005"
     inkscape:label="Capa 1"
     style="fill:#f57900;fill-opacity:1">
    <g
       style="fill:#f57900;fill-opacity:1"
       id="g13007"
       transform="matrix(0.52495376,0,0,0.52495376,-127.33203,212.74148)" />
  </g>
</svg>
