<?xml version="1.0" encoding="UTF-8" standalone="no"?>
<!-- Created with Inkscape (http://www.inkscape.org/) -->

<svg
   xmlns:dc="http://purl.org/dc/elements/1.1/"
   xmlns:cc="http://creativecommons.org/ns#"
   xmlns:rdf="http://www.w3.org/1999/02/22-rdf-syntax-ns#"
   xmlns:svg="http://www.w3.org/2000/svg"
   xmlns="http://www.w3.org/2000/svg"
   xmlns:xlink="http://www.w3.org/1999/xlink"
   xmlns:sodipodi="http://sodipodi.sourceforge.net/DTD/sodipodi-0.dtd"
   xmlns:inkscape="http://www.inkscape.org/namespaces/inkscape"
   version="1.1"
   width="24"
   height="24"
   id="svg3122"
   inkscape:version="0.48+devel r12387"
   sodipodi:docname="twitter-search.svg">
  <sodipodi:namedview
     pagecolor="#ffffff"
     bordercolor="#666666"
     borderopacity="1"
     objecttolerance="10"
     gridtolerance="10"
     guidetolerance="10"
     inkscape:pageopacity="0"
     inkscape:pageshadow="2"
     inkscape:window-width="1366"
     inkscape:window-height="714"
     id="namedview12"
     showgrid="false"
     inkscape:zoom="9.8333333"
     inkscape:cx="-25.728814"
     inkscape:cy="12"
     inkscape:window-x="0"
     inkscape:window-y="30"
     inkscape:window-maximized="1"
     inkscape:current-layer="svg3122" />
  <defs
     id="defs3124">
    <linearGradient
       id="linearGradient6613-8">
      <stop
         id="stop6615-4"
         style="stop-color:#868686;stop-opacity:1"
         offset="0" />
      <stop
         id="stop6617-3"
         style="stop-color:#979797;stop-opacity:1"
         offset="1" />
    </linearGradient>
    <linearGradient
       x1="12.54946"
       y1="2.7817998"
       x2="12.54946"
       y2="22.124352"
       id="linearGradient3120"
       xlink:href="#linearGradient6613-8"
       gradientUnits="userSpaceOnUse"
       gradientTransform="translate(0,7.9999996)" />
  </defs>
  <metadata
     id="metadata3127">
    <rdf:RDF>
      <cc:Work
         rdf:about="">
        <dc:format>image/svg+xml</dc:format>
        <dc:type
           rdf:resource="http://purl.org/dc/dcmitype/StillImage" />
        <dc:title />
      </cc:Work>
    </rdf:RDF>
  </metadata>
  <g
     transform="matrix(-0.49999725,0,0,0.49999725,23.999934,-502.17826)"
     id="layer1-7"
     inkscape:label="Capa 1">
    <path
       inkscape:connector-curvature="0"
       id="path2983"
       d="m 25.697602,1013.3624 c -0.2303,-2e-4 -0.457615,0.01 -0.687046,0.026 -3.058921,0.2163 -5.961764,1.9009 -7.610428,4.7566 -2.63787,4.5687 -1.080791,10.4163 3.488098,13.054 4.568934,2.6381 10.389706,1.0806 13.027575,-3.4882 2.637888,-4.569 1.080811,-10.416 -3.488097,-13.054 C 28.928501,1013.7913 27.309796,1013.3637 25.697602,1013.3621 z m 0.132106,2.5368 c 1.133265,0.029 2.305234,0.3183 3.356002,0.9249 3.362473,1.9416 4.504577,6.2826 2.563224,9.6452 -1.94131,3.3625 -6.256219,4.5043 -9.618715,2.5632 -3.362473,-1.9415 -4.504574,-6.2565 -2.563239,-9.6188 C 20.901637,1017.1021 23.336603,1015.8344 25.829708,1015.8992 Z"
       style="fill:#1a1a1a;fill-opacity:1;stroke:none" />
    <rect
       transform="matrix(0.8660254,0.5,-0.5,0.8660254,0,0)"
       ry="2.14045"
       y="885.3316"
       x="531.27948"
       height="10.833299"
       width="4.8050919"
       id="rect2987"
       style="fill:#1a1a1a;fill-opacity:1;stroke:none" />
  </g>
</svg>
