<?xml version="1.0" encoding="UTF-8" standalone="no"?>
<!-- Created with Inkscape (http://www.inkscape.org/) -->

<svg
   xmlns:dc="http://purl.org/dc/elements/1.1/"
   xmlns:cc="http://creativecommons.org/ns#"
   xmlns:rdf="http://www.w3.org/1999/02/22-rdf-syntax-ns#"
   xmlns:svg="http://www.w3.org/2000/svg"
   xmlns="http://www.w3.org/2000/svg"
   xmlns:xlink="http://www.w3.org/1999/xlink"
   xmlns:sodipodi="http://sodipodi.sourceforge.net/DTD/sodipodi-0.dtd"
   xmlns:inkscape="http://www.inkscape.org/namespaces/inkscape"
   version="1.1"
   width="24"
   height="24"
   id="svg4427"
   inkscape:version="0.48+devel r12387"
   sodipodi:docname="twitter-favret-banner.svg">
  <sodipodi:namedview
     pagecolor="#ffffff"
     bordercolor="#666666"
     borderopacity="1"
     objecttolerance="10"
     gridtolerance="10"
     guidetolerance="10"
     inkscape:pageopacity="0"
     inkscape:pageshadow="2"
     inkscape:window-width="1366"
     inkscape:window-height="714"
     id="namedview38"
     showgrid="false"
     inkscape:zoom="9.8333333"
     inkscape:cx="9.4724328"
     inkscape:cy="15.985097"
     inkscape:window-x="0"
     inkscape:window-y="30"
     inkscape:window-maximized="1"
     inkscape:current-layer="svg4427" />
  <defs
     id="defs4429">
    <linearGradient
       x1="14.71241"
       y1="5.9830747"
       x2="14.71241"
       y2="18.779682"
       id="linearGradient3949"
       xlink:href="#linearGradient3943"
       gradientUnits="userSpaceOnUse" />
    <linearGradient
       id="linearGradient3943">
      <stop
         id="stop3945"
         style="stop-color:#ffffff;stop-opacity:1"
         offset="0" />
      <stop
         id="stop3947"
         style="stop-color:#ffffff;stop-opacity:0"
         offset="1" />
    </linearGradient>
  </defs>
  <metadata
     id="metadata4432">
    <rdf:RDF>
      <cc:Work
         rdf:about="">
        <dc:format>image/svg+xml</dc:format>
        <dc:type
           rdf:resource="http://purl.org/dc/dcmitype/StillImage" />
        <dc:title />
      </cc:Work>
    </rdf:RDF>
  </metadata>
  <path
     style="fill:#1a1a1a;fill-opacity:1;stroke:none"
     d="M 0 0 L 8 8 L 10.53125 8 L 11.03125 7 L 10 7 L 6.75 4 L 12.5 4 L 13 3 L 13.5 4 L 20 4 L 20 11 L 23.5 11 L 18.5 16 L 13.5 11 L 17.0625 11 L 17.0625 7 L 15 7 L 15.5 8 L 16 8 L 12 12 L 24 24 L 24 0 L 0 0 z "
     id="path2995-3" />
  <path
     style="fill:#1a1a1a;fill-opacity:1;stroke:none"
     d="M 0 0 L 8 8 L 10.53125 8 L 13 3 L 15.5 8 L 16 8 L 24 0 L 0 0 z "
     id="path2995" />
  <path
     inkscape:connector-curvature="0"
     style="opacity:0.3;fill:none;stroke:url(#linearGradient3949);stroke-width:1px;stroke-linecap:butt;stroke-linejoin:miter;stroke-opacity:1"
     id="path3906"
     d="M 7.9572747,8.5 10.848851,8.5 13,4.201532 15.151149,8.5" />
</svg>
