<?xml version="1.0" encoding="UTF-8" standalone="no"?>
<!-- Created with Inkscape (http://www.inkscape.org/) -->

<svg
   xmlns:dc="http://purl.org/dc/elements/1.1/"
   xmlns:cc="http://creativecommons.org/ns#"
   xmlns:rdf="http://www.w3.org/1999/02/22-rdf-syntax-ns#"
   xmlns:svg="http://www.w3.org/2000/svg"
   xmlns="http://www.w3.org/2000/svg"
   xmlns:sodipodi="http://sodipodi.sourceforge.net/DTD/sodipodi-0.dtd"
   xmlns:inkscape="http://www.inkscape.org/namespaces/inkscape"
   version="1.1"
   width="24"
   height="24"
   id="svg3331"
   inkscape:version="0.48+devel r12387"
   sodipodi:docname="twitter-mentions.svg">
  <sodipodi:namedview
     pagecolor="#ffffff"
     bordercolor="#666666"
     borderopacity="1"
     objecttolerance="10"
     gridtolerance="10"
     guidetolerance="10"
     inkscape:pageopacity="0"
     inkscape:pageshadow="2"
     inkscape:window-width="1366"
     inkscape:window-height="714"
     id="namedview12"
     showgrid="false"
     inkscape:zoom="19.666667"
     inkscape:cx="-1.3339457"
     inkscape:cy="20.389831"
     inkscape:window-x="0"
     inkscape:window-y="30"
     inkscape:window-maximized="1"
     inkscape:current-layer="svg3331"
     showguides="false" />
  <defs
     id="defs3333" />
  <metadata
     id="metadata3336">
    <rdf:RDF>
      <cc:Work
         rdf:about="">
        <dc:format>image/svg+xml</dc:format>
        <dc:type
           rdf:resource="http://purl.org/dc/dcmitype/StillImage" />
        <dc:title />
      </cc:Work>
    </rdf:RDF>
  </metadata>
  <g
     style="font-size:22.5px;font-style:normal;font-variant:normal;font-weight:500;font-stretch:normal;text-align:start;line-height:125%;letter-spacing:0px;word-spacing:0px;writing-mode:lr-tb;text-anchor:start;fill:#1a1a1a;fill-opacity:1;stroke:none;font-family:Helvetica 65 Medium;-inkscape-font-specification:'Helvetica 65 Medium, Medium'"
     id="text4033"
     transform="matrix(0.89126559,0,0,0.89126559,-0.10006323,8.7811338)">
    <path
       d="m 12.698771,6.7840678 c -1.1025,0 -1.8,-0.855 -1.8,-2.0475 0,-1.6875 1.2375,-3.93750004 3.105,-3.93750004 0.9675,0 1.7775,0.92250004 1.7775,1.98000004 C 15.781271,4.4215678 14.476271,6.7840678 12.698771,6.7840678 z m 5.715,-7.33500004 -1.575,0 -0.405,1.2825 c -0.5625,-1.1475 -1.4625,-1.62 -2.52,-1.62 -2.9475,0 -4.9274999,2.97000004 -4.9274999,5.82750004 0,1.935 1.4174999,3.5325 3.2849999,3.5325 0.9675,0 1.9125,-0.6075 2.52,-1.2825 l 0.045,0 c 0.045,0.8775 0.63,1.305 1.3275,1.305 1.8225,0 5.31,-2.1825 5.31,-6.705 0,-3.87 -3.5325,-6.5925 -7.5375,-6.5925 -4.4774999,0 -8.2574999,3.5775 -8.2574999,8.1225 0,5.1525 3.735,8.7075002 8.3699999,8.7075002 2.7675,0 5.2875,-1.3725 6.7275,-3.6900002 l -1.575,0 c -1.215,1.395 -3.105,2.2275002 -5.0625,2.2275002 -3.8025,0 -6.6599999,-2.7675002 -6.6599999,-7.1550002 0,-3.75750004 2.6324999,-6.75 6.4574999,-6.75 3.285,0 6.0075,2.0475 6.0075,5.4 0,2.745 -1.53,4.86 -2.925,4.86 -0.6075,0 -0.45,-0.855 -0.225,-1.5525 L 18.413771,-0.55093224 Z"
       id="path4038"
       inkscape:connector-curvature="0" />
  </g>
</svg>
