<?xml version="1.0" encoding="UTF-8" standalone="no"?>
<!-- Created with Inkscape (http://www.inkscape.org/) -->

<svg
   xmlns:dc="http://purl.org/dc/elements/1.1/"
   xmlns:cc="http://creativecommons.org/ns#"
   xmlns:rdf="http://www.w3.org/1999/02/22-rdf-syntax-ns#"
   xmlns:svg="http://www.w3.org/2000/svg"
   xmlns="http://www.w3.org/2000/svg"
   xmlns:xlink="http://www.w3.org/1999/xlink"
   xmlns:sodipodi="http://sodipodi.sourceforge.net/DTD/sodipodi-0.dtd"
   xmlns:inkscape="http://www.inkscape.org/namespaces/inkscape"
   width="48"
   height="48"
   id="svg6391"
   version="1.1"
   inkscape:version="0.48+devel r12272"
   sodipodi:docname="application-x-cbz.svg">
  <defs
     id="defs6393">
    <linearGradient
       id="linearGradient943">
      <stop
         style="stop-color:#00d415;stop-opacity:1"
         offset="0"
         id="stop945" />
      <stop
         style="stop-color:#00ff18;stop-opacity:1"
         offset="1"
         id="stop947" />
    </linearGradient>
    <linearGradient
       y2="13.07393"
       x2="11.579766"
       y1="13.07393"
       x1="23.533073"
       gradientTransform="matrix(-1,0,0,1,529.71372,554.06308)"
       gradientUnits="userSpaceOnUse"
       id="linearGradient924"
       xlink:href="#linearGradient6262"
       inkscape:collect="always" />
    <linearGradient
       inkscape:collect="always"
       id="linearGradient6262">
      <stop
         style="stop-color:#ffffff;stop-opacity:0.25738397"
         offset="0"
         id="stop6264" />
      <stop
         style="stop-color:#ffffff;stop-opacity:0;"
         offset="1"
         id="stop6266" />
    </linearGradient>
    <linearGradient
       y2="13.07393"
       x2="11.019455"
       y1="19.660906"
       x1="17.60643"
       gradientTransform="matrix(1,0,0,-1,481.71372,579.21938)"
       gradientUnits="userSpaceOnUse"
       id="linearGradient942"
       xlink:href="#linearGradient6282"
       inkscape:collect="always" />
    <linearGradient
       id="linearGradient6282"
       inkscape:collect="always">
      <stop
         id="stop6284"
         offset="0"
         style="stop-color:#000000;stop-opacity:0.10970464" />
      <stop
         id="stop6286"
         offset="1"
         style="stop-color:#ffffff;stop-opacity:0;" />
    </linearGradient>
    <linearGradient
       gradientTransform="translate(481.71372,531.21938)"
       inkscape:collect="always"
       xlink:href="#linearGradient6262"
       id="linearGradient6268"
       x1="23.533073"
       y1="13.07393"
       x2="11.019455"
       y2="13.07393"
       gradientUnits="userSpaceOnUse" />
    <linearGradient
       inkscape:collect="always"
       xlink:href="#linearGradient6288"
       id="linearGradient6280"
       gradientUnits="userSpaceOnUse"
       gradientTransform="matrix(-1,0,0,1,529.71372,531.21938)"
       x1="20.395853"
       y1="21.890017"
       x2="11.579766"
       y2="13.07393" />
    <linearGradient
       id="linearGradient6288"
       inkscape:collect="always">
      <stop
         id="stop6290"
         offset="0"
         style="stop-color:#000000;stop-opacity:0.13080169" />
      <stop
         id="stop6292"
         offset="1"
         style="stop-color:#ffffff;stop-opacity:0;" />
    </linearGradient>
    <linearGradient
       inkscape:collect="always"
       xlink:href="#linearGradient943"
       id="linearGradient4117"
       gradientUnits="userSpaceOnUse"
       gradientTransform="translate(416.82087,469.86874)"
       x1="92.14286"
       y1="-1049.092"
       x2="92.14286"
       y2="-1001.4687" />
  </defs>
  <sodipodi:namedview
     id="base"
     pagecolor="#ffffff"
     bordercolor="#666666"
     borderopacity="1.0"
     inkscape:pageopacity="0.0"
     inkscape:pageshadow="2"
     inkscape:zoom="3.959798"
     inkscape:cx="18.748265"
     inkscape:cy="22.450439"
     inkscape:document-units="px"
     inkscape:current-layer="layer1"
     showgrid="false"
     fit-margin-top="0"
     fit-margin-left="0"
     fit-margin-right="0"
     fit-margin-bottom="0"
     inkscape:window-width="1366"
     inkscape:window-height="716"
     inkscape:window-x="0"
     inkscape:window-y="28"
     inkscape:window-maximized="1" />
  <metadata
     id="metadata6396">
    <rdf:RDF>
      <cc:Work
         rdf:about="">
        <dc:format>image/svg+xml</dc:format>
        <dc:type
           rdf:resource="http://purl.org/dc/dcmitype/StillImage" />
        <dc:title />
      </cc:Work>
    </rdf:RDF>
  </metadata>
  <g
     inkscape:label="Capa 1"
     inkscape:groupmode="layer"
     id="layer1"
     transform="translate(-481.71429,-531.2193)">
    <rect
       style="fill:url(#linearGradient4117);fill-opacity:1;stroke:none"
       id="rect2991-1-7-3"
       width="48"
       height="48"
       x="481.71429"
       y="-579.2193"
       ry="1.9445436"
       transform="scale(1,-1)" />
    <path
       style="opacity:0.95400002;color:#000000;fill:#000000;fill-opacity:1;fill-rule:nonzero;stroke:none;stroke-width:0.40000001;marker:none;visibility:visible;display:inline;overflow:visible;enable-background:accumulate"
       d="m 505.73677,539.21929 c -10.73156,0 -19.46067,6.2548 -19.46067,13.97753 0,4.48939 2.98057,8.49768 7.55056,11.05618 l -1.88764,6.96629 8,-4.62921 c 1.82535,0.40856 3.78557,0.62921 5.79775,0.62921 10.73158,0 19.41573,-6.29974 19.41573,-14.02247 C 525.1525,545.47409 516.46835,539.21929 505.73677,539.21929 Z"
       id="path877-6"
       inkscape:connector-curvature="0" />
    <path
       style="color:#000000;fill:#ffffff;fill-opacity:1;fill-rule:nonzero;stroke:none;stroke-width:0.40000001;marker:none;visibility:visible;display:inline;overflow:visible;enable-background:accumulate"
       d="m 505.73677,540.61255 c -9.93727,0 -18.02247,5.63373 -18.02247,12.58427 0,4.22166 2.99025,8.00915 7.55056,10.29214 l -1.97753,5.79775 6.74157,-4.13483 c 1.79481,0.41998 3.71103,0.62921 5.70787,0.62921 9.9373,0 17.97753,-5.63372 17.97753,-12.58427 C 523.7143,546.24628 515.67407,540.61255 505.73677,540.61255 Z"
       id="path879-7"
       inkscape:connector-curvature="0" />
    <path
       inkscape:connector-curvature="0"
       style="color:#000000;fill:#000000;fill-opacity:1;fill-rule:nonzero;stroke:none;stroke-width:0.40000001;marker:none;visibility:visible;display:inline;overflow:visible;enable-background:accumulate"
       d="m 497.6518,540.84429 c -0.40779,0 -0.75,0.31096 -0.75,0.71875 0,0.40779 0.34221,0.75 0.75,0.75 0.40779,0 0.71875,-0.34221 0.71875,-0.75 C 498.37055,541.15525 498.05959,540.84429 497.6518,540.84429 z m 2.875,0 c -0.40779,0 -0.75,0.31096 -0.75,0.71875 0,0.40779 0.34221,0.75 0.75,0.75 0.40779,0 0.71875,-0.34221 0.71875,-0.75 C 501.24555,541.15525 500.93459,540.84429 500.5268,540.84429 z m 2.875,0 c -0.40779,0 -0.75,0.31096 -0.75,0.71875 0,0.40779 0.34221,0.75 0.75,0.75 0.40779,0 0.71875,-0.34221 0.71875,-0.75 C 504.12055,541.15525 503.80959,540.84429 503.4018,540.84429 z m 2.875,0 c -0.40779,0 -0.75,0.31096 -0.75,0.71875 0,0.40779 0.34221,0.75 0.75,0.75 0.40779,0 0.75,-0.34221 0.75,-0.75 C 507.0268,541.15525 506.68459,540.84429 506.2768,540.84429 z m 2.875,0 c -0.40779,0 -0.75,0.31096 -0.75,0.71875 0,0.40779 0.34221,0.75 0.75,0.75 0.40779,0 0.75,-0.34221 0.75,-0.75 C 509.9018,541.15525 509.55959,540.84429 509.1518,540.84429 z m 2.875,0 c -0.40779,0 -0.75,0.31096 -0.75,0.71875 0,0.40779 0.34221,0.75 0.75,0.75 0.40779,0 0.75,-0.34221 0.75,-0.75 C 512.7768,541.15525 512.43459,540.84429 512.0268,540.84429 z m -20.125,2.875 c -0.40779,0 -0.75,0.31096 -0.75,0.71875 0,0.40779 0.34221,0.75 0.75,0.75 0.40779,0 0.71875,-0.34221 0.71875,-0.75 C 492.62055,544.03025 492.30959,543.71929 491.9018,543.71929 z m 2.875,0 c -0.40779,0 -0.75,0.31096 -0.75,0.71875 0,0.40779 0.34221,0.75 0.75,0.75 0.40779,0 0.71875,-0.34221 0.71875,-0.75 C 495.49555,544.03025 495.18459,543.71929 494.7768,543.71929 z m 2.875,0 c -0.40779,0 -0.75,0.31096 -0.75,0.71875 0,0.40779 0.34221,0.75 0.75,0.75 0.40779,0 0.71875,-0.34221 0.71875,-0.75 C 498.37055,544.03025 498.05959,543.71929 497.6518,543.71929 z m 2.875,0 c -0.40779,0 -0.75,0.31096 -0.75,0.71875 0,0.40779 0.34221,0.75 0.75,0.75 0.40779,0 0.71875,-0.34221 0.71875,-0.75 C 501.24555,544.03025 500.93459,543.71929 500.5268,543.71929 z m 2.875,0 c -0.10195,0 -0.19291,0.0251 -0.28125,0.0625 -0.26501,0.11209 -0.46875,0.35041 -0.46875,0.65625 0,0.40779 0.34221,0.75 0.75,0.75 0.40779,0 0.71875,-0.34221 0.71875,-0.75 C 504.12055,544.03025 503.80959,543.71929 503.4018,543.71929 z m 2.875,0 c -0.40779,0 -0.75,0.31096 -0.75,0.71875 0,0.40779 0.34221,0.75 0.75,0.75 0.40779,0 0.75,-0.34221 0.75,-0.75 C 507.0268,544.03025 506.68459,543.71929 506.2768,543.71929 z m -17.25,2.875 c -0.40779,0 -0.75,0.31096 -0.75,0.71875 0,0.40779 0.34221,0.75 0.75,0.75 0.40779,0 0.71875,-0.34221 0.71875,-0.75 C 489.74555,546.90525 489.43459,546.59429 489.0268,546.59429 z m 2.875,0 c -0.40779,0 -0.75,0.31096 -0.75,0.71875 0,0.40779 0.34221,0.75 0.75,0.75 0.40779,0 0.71875,-0.34221 0.71875,-0.75 C 492.62055,546.90525 492.30959,546.59429 491.9018,546.59429 z m 2.875,0 c -0.40779,0 -0.75,0.31096 -0.75,0.71875 0,0.40779 0.34221,0.75 0.75,0.75 0.40779,0 0.71875,-0.34221 0.71875,-0.75 C 495.49555,546.90525 495.18459,546.59429 494.7768,546.59429 z m 2.875,0 c -0.40779,0 -0.75,0.31096 -0.75,0.71875 0,0.40779 0.34221,0.75 0.75,0.75 0.40779,0 0.71875,-0.34221 0.71875,-0.75 C 498.37055,546.90525 498.05959,546.59429 497.6518,546.59429 z m 2.875,0 c -0.40779,0 -0.75,0.31096 -0.75,0.71875 0,0.40779 0.34221,0.75 0.75,0.75 0.40779,0 0.71875,-0.34221 0.71875,-0.75 C 501.24555,546.90525 500.93459,546.59429 500.5268,546.59429 z m 2.875,0 c -0.40779,0 -0.75,0.31096 -0.75,0.71875 0,0.40779 0.34221,0.75 0.75,0.75 0.40779,0 0.71875,-0.34221 0.71875,-0.75 C 504.12055,546.90525 503.80959,546.59429 503.4018,546.59429 z m -14.375,2.875 c -0.40779,0 -0.75,0.34221 -0.75,0.75 0,0.40779 0.34221,0.71875 0.75,0.71875 0.40779,0 0.71875,-0.31096 0.71875,-0.71875 C 489.74555,549.8115 489.43459,549.46929 489.0268,549.46929 z m 2.875,0 c -0.40779,0 -0.75,0.34221 -0.75,0.75 0,0.40779 0.34221,0.71875 0.75,0.71875 0.40779,0 0.71875,-0.31096 0.71875,-0.71875 C 492.62055,549.8115 492.30959,549.46929 491.9018,549.46929 z m 2.875,0 c -0.40779,0 -0.75,0.34221 -0.75,0.75 0,0.40779 0.34221,0.71875 0.75,0.71875 0.40779,0 0.71875,-0.31096 0.71875,-0.71875 C 495.49555,549.8115 495.18459,549.46929 494.7768,549.46929 z m 2.875,0 c -0.40779,0 -0.75,0.34221 -0.75,0.75 0,0.40779 0.34221,0.71875 0.75,0.71875 0.40779,0 0.71875,-0.31096 0.71875,-0.71875 C 498.37055,549.8115 498.05959,549.46929 497.6518,549.46929 z m 2.875,0 c -0.40779,0 -0.75,0.34221 -0.75,0.75 0,0.40779 0.34221,0.71875 0.75,0.71875 0.40779,0 0.71875,-0.31096 0.71875,-0.71875 C 501.24555,549.8115 500.93459,549.46929 500.5268,549.46929 z m -11.5,2.875 c -0.40779,0 -0.75,0.34221 -0.75,0.75 0,0.40779 0.34221,0.71875 0.75,0.71875 0.40779,0 0.71875,-0.31096 0.71875,-0.71875 C 489.74555,552.6865 489.43459,552.34429 489.0268,552.34429 z m 2.875,0 c -0.40779,0 -0.75,0.34221 -0.75,0.75 0,0.40779 0.34221,0.71875 0.75,0.71875 0.40779,0 0.71875,-0.31096 0.71875,-0.71875 C 492.62055,552.6865 492.30959,552.34429 491.9018,552.34429 z m 2.875,0 c -0.40779,0 -0.75,0.34221 -0.75,0.75 0,0.40779 0.34221,0.71875 0.75,0.71875 0.40779,0 0.71875,-0.31096 0.71875,-0.71875 C 495.49555,552.6865 495.18459,552.34429 494.7768,552.34429 z m 2.875,0 c -0.40779,0 -0.75,0.34221 -0.75,0.75 0,0.40779 0.34221,0.71875 0.75,0.71875 0.40779,0 0.71875,-0.31096 0.71875,-0.71875 C 498.37055,552.6865 498.05959,552.34429 497.6518,552.34429 z m 2.875,0 c -0.40779,0 -0.75,0.34221 -0.75,0.75 0,0.40779 0.34221,0.71875 0.75,0.71875 0.40779,0 0.71875,-0.31096 0.71875,-0.71875 C 501.24555,552.6865 500.93459,552.34429 500.5268,552.34429 z m -11.5,2.875 c -0.40779,0 -0.75,0.34221 -0.75,0.75 0,0.40779 0.34221,0.71875 0.75,0.71875 0.40779,0 0.71875,-0.31096 0.71875,-0.71875 C 489.74555,555.5615 489.43459,555.21929 489.0268,555.21929 z m 2.875,0 c -0.40779,0 -0.75,0.34221 -0.75,0.75 0,0.40779 0.34221,0.71875 0.75,0.71875 0.40779,0 0.71875,-0.31096 0.71875,-0.71875 C 492.62055,555.5615 492.30959,555.21929 491.9018,555.21929 z m 2.875,0 c -0.40779,0 -0.75,0.34221 -0.75,0.75 0,0.40779 0.34221,0.71875 0.75,0.71875 0.40779,0 0.71875,-0.31096 0.71875,-0.71875 C 495.49555,555.5615 495.18459,555.21929 494.7768,555.21929 z m 2.875,0 c -0.40779,0 -0.75,0.34221 -0.75,0.75 0,0.40779 0.34221,0.71875 0.75,0.71875 0.40779,0 0.71875,-0.31096 0.71875,-0.71875 C 498.37055,555.5615 498.05959,555.21929 497.6518,555.21929 z m 2.875,0 c -0.40779,0 -0.75,0.34221 -0.75,0.75 0,0.40779 0.34221,0.71875 0.75,0.71875 0.40779,0 0.71875,-0.31096 0.71875,-0.71875 C 501.24555,555.5615 500.93459,555.21929 500.5268,555.21929 z m -11.5,2.875 c -0.40779,0 -0.75,0.34221 -0.75,0.75 0,0.40779 0.34221,0.71875 0.75,0.71875 0.40779,0 0.71875,-0.31096 0.71875,-0.71875 C 489.74555,558.4365 489.43459,558.09429 489.0268,558.09429 z m 2.875,0 c -0.40779,0 -0.75,0.34221 -0.75,0.75 0,0.40779 0.34221,0.71875 0.75,0.71875 0.40779,0 0.71875,-0.31096 0.71875,-0.71875 C 492.62055,558.4365 492.30959,558.09429 491.9018,558.09429 z m 2.875,0 c -0.40779,0 -0.75,0.34221 -0.75,0.75 0,0.40779 0.34221,0.71875 0.75,0.71875 0.40779,0 0.71875,-0.31096 0.71875,-0.71875 C 495.49555,558.4365 495.18459,558.09429 494.7768,558.09429 z m 2.875,0 c -0.40779,0 -0.75,0.34221 -0.75,0.75 0,0.40779 0.34221,0.71875 0.75,0.71875 0.40779,0 0.71875,-0.31096 0.71875,-0.71875 C 498.37055,558.4365 498.05959,558.09429 497.6518,558.09429 z m 2.875,0 c -0.40779,0 -0.75,0.34221 -0.75,0.75 0,0.40779 0.34221,0.71875 0.75,0.71875 0.40779,0 0.71875,-0.31096 0.71875,-0.71875 C 501.24555,558.4365 500.93459,558.09429 500.5268,558.09429 z m -8.625,2.875 c -0.40779,0 -0.75,0.34221 -0.75,0.75 0,0.40779 0.34221,0.71875 0.75,0.71875 0.40779,0 0.71875,-0.31096 0.71875,-0.71875 C 492.62055,561.3115 492.30959,560.96929 491.9018,560.96929 z m 2.875,0 c -0.40779,0 -0.75,0.34221 -0.75,0.75 0,0.40779 0.34221,0.71875 0.75,0.71875 0.40779,0 0.71875,-0.31096 0.71875,-0.71875 C 495.49555,561.3115 495.18459,560.96929 494.7768,560.96929 z m 2.875,0 c -0.40779,0 -0.75,0.34221 -0.75,0.75 0,0.40779 0.34221,0.71875 0.75,0.71875 0.40779,0 0.71875,-0.31096 0.71875,-0.71875 C 498.37055,561.3115 498.05959,560.96929 497.6518,560.96929 z m 2.875,0 c -0.40779,0 -0.75,0.34221 -0.75,0.75 0,0.40779 0.34221,0.71875 0.75,0.71875 0.40779,0 0.71875,-0.31096 0.71875,-0.71875 C 501.24555,561.3115 500.93459,560.96929 500.5268,560.96929 z m 2.875,0 c -0.40779,0 -0.75,0.34221 -0.75,0.75 0,0.40779 0.34221,0.71875 0.75,0.71875 0.40779,0 0.71875,-0.31096 0.71875,-0.71875 C 504.12055,561.3115 503.80959,560.96929 503.4018,560.96929 z m -8.625,2.875 c -0.40779,0 -0.75,0.34221 -0.75,0.75 0,0.40779 0.34221,0.71875 0.75,0.71875 0.40779,0 0.71875,-0.31096 0.71875,-0.71875 C 495.49555,564.1865 495.18459,563.84429 494.7768,563.84429 z m 2.875,0 c -0.40779,0 -0.75,0.34221 -0.75,0.75 0,0.40779 0.34221,0.71875 0.75,0.71875 0.40779,0 0.71875,-0.31096 0.71875,-0.71875 C 498.37055,564.1865 498.05959,563.84429 497.6518,563.84429 z m 2.875,0 c -0.40779,0 -0.75,0.34221 -0.75,0.75 0,0.40779 0.34221,0.71875 0.75,0.71875 0.40779,0 0.71875,-0.31096 0.71875,-0.71875 C 501.24555,564.1865 500.93459,563.84429 500.5268,563.84429 z m 2.875,0 c -0.40779,0 -0.75,0.34221 -0.75,0.75 0,0.40779 0.34221,0.71875 0.75,0.71875 0.40779,0 0.71875,-0.31096 0.71875,-0.71875 C 504.12055,564.1865 503.80959,563.84429 503.4018,563.84429 z m 2.875,0 c -0.40779,0 -0.75,0.34221 -0.75,0.75 0,0.40779 0.34221,0.71875 0.75,0.71875 0.40779,0 0.75,-0.31096 0.75,-0.71875 C 507.0268,564.1865 506.68459,563.84429 506.2768,563.84429 z m -11.5,2.875 c -0.40779,0 -0.75,0.34221 -0.75,0.75 0,0.40779 0.34221,0.71875 0.75,0.71875 0.40779,0 0.71875,-0.31096 0.71875,-0.71875 C 495.49555,567.0615 495.18459,566.71929 494.7768,566.71929 Z"
       id="path947-4" />
    <path
       inkscape:connector-curvature="0"
       style="fill:#000000;fill-opacity:1;stroke:none"
       d="m 481.71429,576.21928 0,1.0625 c 0,1.0773 0.86022,1.9375 1.9375,1.9375 l 44.125,0 c 1.07728,0 1.9375,-0.8602 1.9375,-1.9375 l 0,-1.0625 c 0,1.0773 -0.86022,1.9375 -1.9375,1.9375 l -44.125,0 C 482.57451,578.15678 481.71429,577.29658 481.71429,576.21928 Z"
       id="rect846-0" />
    <path
       inkscape:connector-curvature="0"
       style="fill:#ffffff;fill-opacity:0.5372549;stroke:none"
       d="m 484.24554,531.87558 c -0.91709,0 -1.67115,0.6395 -1.84375,1.5 0.33561,-0.2799 0.77451,-0.4375 1.25,-0.4375 l 44.125,0 c 0.47549,0 0.91439,0.1576 1.25,0.4375 -0.1726,-0.8605 -0.92666,-1.5 -1.84375,-1.5 L 484.24554,531.87558 Z"
       id="path7515-3" />
    <path
       inkscape:connector-curvature="0"
       style="fill:#000000;fill-opacity:0.39215686;stroke:none"
       d="m 483.65179,531.21928 c -1.07728,0 -1.9375,0.8602 -1.9375,1.9375 l 0,43.0625 c 0,0.7934 0.48002,1.449 1.15625,1.75 -0.30934,-0.3333 -0.5,-0.7824 -0.5,-1.2812 l 0,-42.9375 c 0,-1.0482 0.8269,-1.875 1.875,-1.875 l 42.9375,0 c 1.0481,0 1.875,0.8268 1.875,1.875 l 0,42.9375 c 0,0.4988 -0.19066,0.9479 -0.5,1.2812 0.67623,-0.301 1.15625,-0.9566 1.15625,-1.75 l 0,-43.0625 c 0,-1.0773 -0.86022,-1.9375 -1.9375,-1.9375 L 483.65179,531.21928 Z"
       id="rect4280-1" />
    <path
       style="opacity:0.6;color:#000000;fill:url(#linearGradient924);fill-opacity:1;fill-rule:nonzero;stroke:none;stroke-width:1;marker:none;visibility:visible;display:inline;overflow:visible;enable-background:accumulate"
       d="m 505.71342,555.21928 0,22.8438 20.0625,0 c 0.10844,-0.2427 0.1875,-0.4974 0.1875,-0.7813 l 0,-21.5625 c -0.64338,-0.3128 -1.36133,-0.5 -2.125,-0.5 L 505.71342,555.21928 Z"
       id="path6270"
       inkscape:connector-curvature="0" />
    <path
       style="opacity:0.6;color:#000000;fill:url(#linearGradient942);fill-opacity:1;fill-rule:nonzero;stroke:none;stroke-width:1;marker:none;visibility:visible;display:inline;overflow:visible;enable-background:accumulate"
       d="m 485.46342,555.21928 0,22.0625 c 0,0.1012 0.0165,0.1843 0.0312,0.2813 0.63718,0.3053 1.33979,0.5 2.09375,0.5 l 18.125,0 0,-22.8438 L 485.46342,555.21928 Z"
       id="path6274"
       inkscape:connector-curvature="0" />
    <path
       style="opacity:0.6;color:#000000;fill:url(#linearGradient6268);fill-opacity:1;fill-rule:nonzero;stroke:none;stroke-width:1;marker:none;visibility:visible;display:inline;overflow:visible;enable-background:accumulate"
       d="m 487.58842,532.37558 c -0.75396,0 -1.45657,0.1946 -2.09375,0.5 -0.0148,0.097 -0.0312,0.18 -0.0312,0.2812 l 0,22.0625 20.25,0 0,-22.8437 L 487.58842,532.37558 Z"
       id="path6249"
       inkscape:connector-curvature="0" />
    <path
       style="opacity:0.6;color:#000000;fill:url(#linearGradient6280);fill-opacity:1;fill-rule:nonzero;stroke:none;stroke-width:1;marker:none;visibility:visible;display:inline;overflow:visible;enable-background:accumulate"
       d="m 505.71342,532.37558 0,22.8437 20.25,0 0,-22.0625 c 0,-0.1012 -0.0165,-0.1843 -0.0312,-0.2812 -0.63718,-0.3054 -1.33979,-0.5 -2.09375,-0.5 L 505.71342,532.37558 Z"
       id="path6276"
       inkscape:connector-curvature="0" />
  </g>
</svg>
