<?xml version="1.0" encoding="UTF-8" standalone="no"?>
<!-- Created with Inkscape (http://www.inkscape.org/) -->

<svg
   xmlns:dc="http://purl.org/dc/elements/1.1/"
   xmlns:cc="http://creativecommons.org/ns#"
   xmlns:rdf="http://www.w3.org/1999/02/22-rdf-syntax-ns#"
   xmlns:svg="http://www.w3.org/2000/svg"
   xmlns="http://www.w3.org/2000/svg"
   xmlns:xlink="http://www.w3.org/1999/xlink"
   xmlns:sodipodi="http://sodipodi.sourceforge.net/DTD/sodipodi-0.dtd"
   xmlns:inkscape="http://www.inkscape.org/namespaces/inkscape"
   width="48"
   height="48"
   id="svg6387"
   version="1.1"
   inkscape:version="0.48+devel r12269"
   sodipodi:docname="application-x-deb.svg">
  <defs
     id="defs6389">
    <linearGradient
       id="linearGradient943-9">
      <stop
         id="stop945-1"
         offset="0"
         style="stop-color:#8e6136;stop-opacity:1" />
      <stop
         id="stop947-6"
         offset="1"
         style="stop-color:#bf8f57;stop-opacity:1" />
    </linearGradient>
    <linearGradient
       y2="13.07393"
       x2="11.579766"
       y1="21.890017"
       x1="20.395853"
       gradientTransform="matrix(-1,0,0,1,149.7137,648.36229)"
       gradientUnits="userSpaceOnUse"
       id="linearGradient6280"
       xlink:href="#linearGradient6288"
       inkscape:collect="always" />
    <linearGradient
       inkscape:collect="always"
       id="linearGradient6288">
      <stop
         style="stop-color:#000000;stop-opacity:0.13080169"
         offset="0"
         id="stop6290" />
      <stop
         style="stop-color:#ffffff;stop-opacity:0;"
         offset="1"
         id="stop6292" />
    </linearGradient>
    <linearGradient
       gradientUnits="userSpaceOnUse"
       y2="13.07393"
       x2="11.019455"
       y1="13.07393"
       x1="23.533073"
       id="linearGradient6268"
       xlink:href="#linearGradient6262"
       inkscape:collect="always"
       gradientTransform="translate(101.7137,648.36229)" />
    <linearGradient
       id="linearGradient6262"
       inkscape:collect="always">
      <stop
         id="stop6264"
         offset="0"
         style="stop-color:#ffffff;stop-opacity:0.25738397" />
      <stop
         id="stop6266"
         offset="1"
         style="stop-color:#ffffff;stop-opacity:0;" />
    </linearGradient>
    <linearGradient
       inkscape:collect="always"
       xlink:href="#linearGradient6282"
       id="linearGradient942"
       gradientUnits="userSpaceOnUse"
       gradientTransform="matrix(1,0,0,-1,101.7137,696.36229)"
       x1="17.60643"
       y1="19.660906"
       x2="11.019455"
       y2="13.07393" />
    <linearGradient
       inkscape:collect="always"
       id="linearGradient6282">
      <stop
         style="stop-color:#000000;stop-opacity:0.10970464"
         offset="0"
         id="stop6284" />
      <stop
         style="stop-color:#ffffff;stop-opacity:0;"
         offset="1"
         id="stop6286" />
    </linearGradient>
    <linearGradient
       inkscape:collect="always"
       xlink:href="#linearGradient6262"
       id="linearGradient924"
       gradientUnits="userSpaceOnUse"
       gradientTransform="matrix(-1,0,0,1,149.7137,671.20599)"
       x1="23.533073"
       y1="13.07393"
       x2="11.579766"
       y2="13.07393" />
    <linearGradient
       gradientTransform="translate(36.820851,352.72587)"
       gradientUnits="userSpaceOnUse"
       y2="-1001.0899"
       x2="92.14286"
       y1="-1049.092"
       x1="92.14286"
       id="linearGradient58"
       xlink:href="#linearGradient943-9"
       inkscape:collect="always" />
  </defs>
  <sodipodi:namedview
     id="base"
     pagecolor="#ffffff"
     bordercolor="#666666"
     borderopacity="1.0"
     inkscape:pageopacity="0.0"
     inkscape:pageshadow="2"
     inkscape:zoom="1.979899"
     inkscape:cx="20.774534"
     inkscape:cy="16.193382"
     inkscape:document-units="px"
     inkscape:current-layer="layer1"
     showgrid="false"
     fit-margin-top="0"
     fit-margin-left="0"
     fit-margin-right="0"
     fit-margin-bottom="0"
     inkscape:window-width="1366"
     inkscape:window-height="716"
     inkscape:window-x="0"
     inkscape:window-y="28"
     inkscape:window-maximized="1" />
  <metadata
     id="metadata6392">
    <rdf:RDF>
      <cc:Work
         rdf:about="">
        <dc:format>image/svg+xml</dc:format>
        <dc:type
           rdf:resource="http://purl.org/dc/dcmitype/StillImage" />
        <dc:title />
      </cc:Work>
    </rdf:RDF>
  </metadata>
  <g
     inkscape:label="Capa 1"
     inkscape:groupmode="layer"
     id="layer1"
     transform="translate(-101.71429,-648.36218)">
    <rect
       style="fill:url(#linearGradient58);fill-opacity:1;stroke:none"
       id="rect2991-1-7-3"
       width="48"
       height="48"
       x="101.71431"
       y="-696.36218"
       ry="1.9445436"
       transform="scale(1,-1)" />
    <path
       inkscape:connector-curvature="0"
       style="fill:#5f3915;fill-opacity:1"
       d="m 127.5798,656.3623 c -0.49513,0.0401 -0.98714,0.0596 -1.47515,0.12151 l 0.21072,0.0336 C 126.67314,656.38713 127.19826,656.45024 127.5798,656.36218 z m -2.16282,0.23287 c -0.80571,0.0478 -1.93147,0.47139 -1.5861,0.0891 -1.31432,0.58632 -3.64754,1.41028 -4.95793,2.63969 l -0.0331,-0.27719 c -0.60054,0.71937 -2.6246,2.1489 -2.78396,3.08342 l -0.1553,0.0336 c -0.31165,0.52814 -0.51864,1.13115 -0.76531,1.67492 -0.40783,0.69597 -0.60207,0.26779 -0.5435,0.37715 -0.80286,1.62905 -1.1978,3.00262 -1.54173,4.12601 0.24561,0.3659 0.008,2.20594 0.10001,3.68242 -0.40179,7.29125 5.11318,14.37166 11.14699,16.0051 0.88342,0.31624 2.19764,0.30229 3.31638,0.33279 -1.32,-0.37689 -1.48628,-0.19406 -2.7729,-0.64334 -0.92636,-0.43673 -1.12876,-0.9389 -1.78574,-1.50856 l 0.25511,0.46597 c -1.28803,-0.45483 -0.74872,-0.56707 -1.79682,-0.89844 l 0.27729,-0.366 c -0.4174,-0.0324 -1.0978,-0.70333 -1.28664,-1.07596 l -0.46583,0.0218 c -0.54765,-0.67644 -0.83062,-1.16334 -0.8097,-1.54178 l -0.1553,0.25509 c -0.16605,-0.2856 -2.01449,-2.53135 -1.05369,-2.00748 -0.17747,-0.16212 -0.42033,-0.26503 -0.67658,-0.73202 l 0.19964,-0.23299 c -0.4614,-0.59485 -0.84987,-1.35443 -0.82078,-1.60822 0.24526,0.33254 0.41891,0.39795 0.58786,0.45471 -1.16737,-2.89608 -1.23401,-0.15957 -2.11849,-2.95025 l 0.18856,-0.012 c -0.14301,-0.21643 -0.22885,-0.45755 -0.34384,-0.68757 l 0.0776,-0.80961 c -0.84047,-0.97043 -0.233,-4.12327 -0.1111,-5.85641 0.0834,-0.70424 0.69612,-1.46148 1.16462,-2.63982 l -0.28837,-0.044 c 0.54625,-0.95377 3.13208,-3.82931 4.32569,-3.68228 0.5782,-0.72521 -0.11929,-0.012 -0.23292,-0.18863 1.26995,-1.31296 1.67208,-0.92752 2.52888,-1.16464 0.92353,-0.54768 -0.79292,0.21058 -0.35492,-0.21075 1.59717,-0.40779 1.13132,-0.9248 3.21655,-1.13142 0.0899,0.0503 0.005,0.10205 -0.1222,0.14438 1.46874,-0.39614 3.87489,-0.18875 5.5125,0.56565 2.17107,1.01505 4.61666,4.02075 4.7139,6.84354 l 0.0998,0.0336 c -0.0538,1.12158 0.17071,2.41226 -0.22184,3.60483 l 0.25512,-0.54353 c 0.0259,0.84089 -0.2463,1.25604 -0.49913,1.98536 l -0.45474,0.22187 c -0.37446,0.72788 0.0345,0.46299 -0.23293,1.04258 -0.58528,0.52 -1.78164,1.62776 -2.16285,1.73027 -0.27756,-0.0119 0.19406,-0.3298 0.25511,-0.4547 -0.78333,0.53799 -0.63223,0.81515 -1.83011,1.1424 l -0.0331,-0.0777 c -2.95585,1.39063 -7.06274,-1.37371 -7.00983,-5.13524 -0.0305,0.23841 -0.0901,0.18139 -0.1553,0.27718 -0.15274,-1.93404 0.88619,-3.87518 2.65088,-4.66953 1.72496,-0.85279 3.75602,-0.50876 4.99121,0.64334 -0.67793,-0.88873 -2.03661,-1.82868 -3.63805,-1.74139 -1.56806,0.0248 -3.03623,1.02449 -3.5271,2.10742 -0.80249,0.50435 -0.89299,1.95356 -1.24225,2.2182 -0.47135,3.46353 0.88617,4.9501 3.18325,6.71038 0.36061,0.24293 0.10701,0.28043 0.15531,0.46597 -0.76239,-0.35646 -1.46693,-0.89134 -2.04084,-1.55291 0.30486,0.44514 0.63924,0.87904 1.06478,1.2201 -0.71944,-0.2428 -1.68315,-1.74682 -1.96321,-1.80797 1.23942,2.22118 5.03441,3.90272 7.02094,3.07243 -0.91782,0.0324 -2.09495,0.0136 -3.1278,-0.36602 -0.43372,-0.22315 -1.01494,-0.67941 -0.90952,-0.76539 2.70918,1.0109 5.50708,0.7584 7.85281,-1.12016 0.5963,-0.46428 1.24235,-1.25347 1.43081,-1.26446 -0.24751,0.37237 -0.0254,0.24966 -0.1111,0.46584 0.44437,-0.78506 -0.27558,-0.33615 0.55459,-1.54164 l 0.32165,0.44358 c -0.11929,-0.79603 0.98841,-1.75794 0.87625,-3.01683 0.12697,-0.19213 0.20555,-0.0855 0.21072,0.17738 -0.0137,-0.23544 -0.043,-0.46662 0,-0.83185 0.10256,0.27163 0.23994,0.56731 0.31056,0.85409 -0.24274,-0.94795 0.24253,-1.60023 0.36604,-2.15177 -0.12083,-0.0531 -0.37436,0.41994 -0.43258,-0.6988 0.008,-0.48665 0.13994,-0.25782 0.18857,-0.37714 -0.0944,-0.0531 -0.34685,-0.42575 -0.49913,-1.1424 0.10956,-0.16776 0.29281,0.44061 0.44366,0.46583 -0.0954,-0.56862 -0.25945,-1.00524 -0.26619,-1.44184 -0.43974,-0.91924 -0.15394,0.11622 -0.51023,-0.39938 -0.46708,-1.46018 0.38547,-0.3355 0.44368,-0.99824 0.70843,1.0276 1.11209,2.62329 1.2977,3.28318 -0.1413,-0.80391 -0.37436,-1.58651 -0.65441,-2.3404 0.21652,0.0891 -0.34914,-1.65542 0.27729,-0.49904 -0.66938,-2.46362 -2.85893,-4.76523 -4.88027,-5.8453 0.24526,0.22573 0.55583,0.50874 0.44367,0.55463 -1.00517,-0.59743 -0.83159,-0.64605 -0.97606,-0.89841 -0.81777,-0.33294 -0.86666,0.0259 -1.40863,0 -1.54322,-0.81814 -1.84012,-0.72945 -3.2609,-1.24223 l 0.0664,0.29945 c -1.02183,-0.33964 -1.19068,0.128 -2.29594,0 -0.0664,-0.0503 0.35236,-0.18334 0.69877,-0.23298 -0.98705,0.13055 -0.93986,-0.19524 -1.90775,0.0336 C 124.91102,656.8509 125.16327,656.73814 125.41705,656.5954 z m 11.81248,14.03083 c 0.007,0.26222 -0.0645,0.67802 -0.19966,1.1203 C 137.23531,671.20756 137.24678,670.91252 137.22946,670.626 z m -11.01393,-13.85333 c 0.28289,0.049 0.6018,0.0879 0.55459,0.1553 C 127.07928,656.85942 127.15967,656.79996 126.21553,656.77267 z m 0.55459,0.1553 -0.18854,0.044 0.17747,-0.0218 L 126.77067,656.92795 z m -1.60828,2.8061 c -0.1775,0.0531 -0.39644,0.10734 -0.48802,0.18863 C 124.81893,659.85155 124.98321,659.78627 125.16184,659.73405 z m -11.43537,3.48293 c 0.0821,0.76369 -0.57419,1.05888 0.14421,0.55451 C 114.25719,662.90048 113.72116,663.53308 113.72647,663.21698 z m -0.58784,2.42907 c -0.45892,0.58631 -0.20682,0.70981 -0.25512,1.10904 C 113.04963,666.2461 113.07474,665.94121 113.13863,665.64606 z m 18.89996,3.53815 c -0.0652,0 -0.14643,0.17335 -0.18855,0.35488 0.0968,0.0519 0.17073,0.67232 0.26622,0.28832 C 132.14819,669.35046 132.10332,669.18237 132.03856,669.1842 z m 5.80087,1.60819 -0.0777,0.19964 c -0.1413,1.01377 -0.44747,2.01874 -0.92059,2.95025 C 137.36257,672.96072 137.69782,671.88088 137.83941,670.7924 z m -6.1447,0.36605 c -0.0707,0.35074 -0.26336,0.656 -0.44366,0.97613 -0.99132,0.62381 -0.093,-0.37585 0,-0.75429 -1.06479,1.34202 -0.13858,0.79979 -0.17747,1.17577 C 131.38954,672.12047 131.61457,671.6522 131.69476,671.15845 z m -2.16284,2.04082 c -0.42981,0.10616 -0.86656,0.10616 -1.3088,0.0672 -0.52955,0.0119 0.0956,0.27061 0.78748,0.37714 C 129.20227,673.49415 129.37824,673.34692 129.53192,673.1999 z m -6.68821,0.0777 c 0.11622,0.42975 0.35353,0.78904 0.57678,1.16449 l -0.16639,-0.47694 C 123.06955,673.76076 122.96724,673.52055 122.84371,673.27685 z m -0.41038,0.72091 -0.0776,0.36602 c 0.34784,0.4728 0.63077,0.99409 1.07585,1.36426 C 123.11291,675.10407 122.87138,674.84342 122.43341,673.99775 Z"
       id="path2820" />
    <path
       inkscape:connector-curvature="0"
       style="fill:#000000;fill-opacity:1;stroke:none"
       d="m 101.71427,693.36219 0,1.0625 c 0,1.0773 0.86022,1.9375 1.9375,1.9375 l 44.125,0 c 1.07728,0 1.9375,-0.8602 1.9375,-1.9375 l 0,-1.0625 c 0,1.0773 -0.86022,1.9375 -1.9375,1.9375 l -44.125,0 C 102.57449,695.29969 101.71427,694.43949 101.71427,693.36219 Z"
       id="rect846-0" />
    <path
       inkscape:connector-curvature="0"
       style="fill:#ffffff;fill-opacity:0.5372549;stroke:none"
       d="m 104.24552,649.01849 c -0.91709,0 -1.67115,0.6395 -1.84375,1.5 0.33561,-0.2799 0.77451,-0.4375 1.25,-0.4375 l 44.125,0 c 0.47549,0 0.91439,0.1576 1.25,0.4375 -0.1726,-0.8605 -0.92666,-1.5 -1.84375,-1.5 L 104.24552,649.01849 Z"
       id="path7515-3" />
    <path
       inkscape:connector-curvature="0"
       style="fill:#000000;fill-opacity:0.39215686;stroke:none"
       d="m 103.65177,648.36219 c -1.07728,0 -1.9375,0.8602 -1.9375,1.9375 l 0,43.0625 c 0,0.7934 0.48002,1.449 1.15625,1.75 -0.30934,-0.3333 -0.5,-0.7824 -0.5,-1.2812 l 0,-42.9375 c 0,-1.0482 0.8269,-1.875 1.875,-1.875 l 42.9375,0 c 1.0481,0 1.875,0.8268 1.875,1.875 l 0,42.9375 c 0,0.4988 -0.19066,0.9479 -0.5,1.2812 0.67623,-0.301 1.15625,-0.9566 1.15625,-1.75 l 0,-43.0625 c 0,-1.0773 -0.86022,-1.9375 -1.9375,-1.9375 L 103.65177,648.36219 Z"
       id="rect4280-1" />
    <path
       style="opacity:0.6;color:#000000;fill:url(#linearGradient924);fill-opacity:1;fill-rule:nonzero;stroke:none;stroke-width:1;marker:none;visibility:visible;display:inline;overflow:visible;enable-background:accumulate"
       d="m 125.7134,672.36219 0,22.8438 20.0625,0 c 0.10844,-0.2427 0.1875,-0.4974 0.1875,-0.7813 l 0,-21.5625 c -0.64338,-0.3128 -1.36133,-0.5 -2.125,-0.5 L 125.7134,672.36219 Z"
       id="path6270"
       inkscape:connector-curvature="0" />
    <path
       style="opacity:0.6;color:#000000;fill:url(#linearGradient942);fill-opacity:1;fill-rule:nonzero;stroke:none;stroke-width:1;marker:none;visibility:visible;display:inline;overflow:visible;enable-background:accumulate"
       d="m 105.4634,672.36219 0,22.0625 c 0,0.1012 0.0165,0.1843 0.0312,0.2813 0.63718,0.3053 1.33979,0.5 2.09375,0.5 l 18.125,0 0,-22.8438 L 105.4634,672.36219 Z"
       id="path6274"
       inkscape:connector-curvature="0" />
    <path
       style="opacity:0.6;color:#000000;fill:url(#linearGradient6268);fill-opacity:1;fill-rule:nonzero;stroke:none;stroke-width:1;marker:none;visibility:visible;display:inline;overflow:visible;enable-background:accumulate"
       d="m 107.5884,649.51849 c -0.75396,0 -1.45657,0.1946 -2.09375,0.5 -0.0148,0.097 -0.0312,0.18 -0.0312,0.2812 l 0,22.0625 20.25,0 0,-22.8437 L 107.5884,649.51849 Z"
       id="path6249"
       inkscape:connector-curvature="0" />
    <path
       style="opacity:0.6;color:#000000;fill:url(#linearGradient6280);fill-opacity:1;fill-rule:nonzero;stroke:none;stroke-width:1;marker:none;visibility:visible;display:inline;overflow:visible;enable-background:accumulate"
       d="m 125.7134,649.51849 0,22.8437 20.25,0 0,-22.0625 c 0,-0.1012 -0.0165,-0.1843 -0.0312,-0.2812 -0.63718,-0.3054 -1.33979,-0.5 -2.09375,-0.5 L 125.7134,649.51849 Z"
       id="path6276"
       inkscape:connector-curvature="0" />
  </g>
</svg>
