<?xml version="1.0" encoding="UTF-8" standalone="no"?>
<!-- Created with Inkscape (http://www.inkscape.org/) -->

<svg
   xmlns:dc="http://purl.org/dc/elements/1.1/"
   xmlns:cc="http://creativecommons.org/ns#"
   xmlns:rdf="http://www.w3.org/1999/02/22-rdf-syntax-ns#"
   xmlns:svg="http://www.w3.org/2000/svg"
   xmlns="http://www.w3.org/2000/svg"
   xmlns:xlink="http://www.w3.org/1999/xlink"
   xmlns:sodipodi="http://sodipodi.sourceforge.net/DTD/sodipodi-0.dtd"
   xmlns:inkscape="http://www.inkscape.org/namespaces/inkscape"
   width="48"
   height="48"
   id="svg6391"
   version="1.1"
   inkscape:version="0.48+devel r12272"
   sodipodi:docname="application-x-cbr.svg">
  <defs
     id="defs6393">
    <linearGradient
       id="linearGradient1052">
      <stop
         style="stop-color:#d400be;stop-opacity:1"
         offset="0"
         id="stop1054" />
      <stop
         style="stop-color:#ff00c4;stop-opacity:1"
         offset="1"
         id="stop1056" />
    </linearGradient>
    <linearGradient
       inkscape:collect="always"
       xlink:href="#linearGradient6262"
       id="linearGradient924"
       gradientUnits="userSpaceOnUse"
       gradientTransform="matrix(-1,0,0,1,529.71372,554.06311)"
       x1="23.533073"
       y1="13.07393"
       x2="11.579766"
       y2="13.07393" />
    <linearGradient
       id="linearGradient6262"
       inkscape:collect="always">
      <stop
         id="stop6264"
         offset="0"
         style="stop-color:#ffffff;stop-opacity:0.25738397" />
      <stop
         id="stop6266"
         offset="1"
         style="stop-color:#ffffff;stop-opacity:0;" />
    </linearGradient>
    <linearGradient
       inkscape:collect="always"
       xlink:href="#linearGradient6282"
       id="linearGradient942"
       gradientUnits="userSpaceOnUse"
       gradientTransform="matrix(1,0,0,-1,481.71372,579.21941)"
       x1="17.60643"
       y1="19.660906"
       x2="11.019455"
       y2="13.07393" />
    <linearGradient
       inkscape:collect="always"
       id="linearGradient6282">
      <stop
         style="stop-color:#000000;stop-opacity:0.10970464"
         offset="0"
         id="stop6284" />
      <stop
         style="stop-color:#ffffff;stop-opacity:0;"
         offset="1"
         id="stop6286" />
    </linearGradient>
    <linearGradient
       gradientUnits="userSpaceOnUse"
       y2="13.07393"
       x2="11.019455"
       y1="13.07393"
       x1="23.533073"
       id="linearGradient6268"
       xlink:href="#linearGradient6262"
       inkscape:collect="always"
       gradientTransform="translate(481.71372,531.21941)" />
    <linearGradient
       y2="13.07393"
       x2="11.579766"
       y1="21.890017"
       x1="20.395853"
       gradientTransform="matrix(-1,0,0,1,529.71372,531.21941)"
       gradientUnits="userSpaceOnUse"
       id="linearGradient6280"
       xlink:href="#linearGradient6288"
       inkscape:collect="always" />
    <linearGradient
       inkscape:collect="always"
       id="linearGradient6288">
      <stop
         style="stop-color:#000000;stop-opacity:0.13080169"
         offset="0"
         id="stop6290" />
      <stop
         style="stop-color:#ffffff;stop-opacity:0;"
         offset="1"
         id="stop6292" />
    </linearGradient>
    <linearGradient
       y2="-1001.4687"
       x2="92.14286"
       y1="-1049.092"
       x1="92.14286"
       gradientTransform="translate(416.82087,469.86869)"
       gradientUnits="userSpaceOnUse"
       id="linearGradient1095"
       xlink:href="#linearGradient1052"
       inkscape:collect="always" />
  </defs>
  <sodipodi:namedview
     id="base"
     pagecolor="#ffffff"
     bordercolor="#666666"
     borderopacity="1.0"
     inkscape:pageopacity="0.0"
     inkscape:pageshadow="2"
     inkscape:zoom="11.2"
     inkscape:cx="26.12867"
     inkscape:cy="23.152432"
     inkscape:document-units="px"
     inkscape:current-layer="layer1"
     showgrid="false"
     fit-margin-top="0"
     fit-margin-left="0"
     fit-margin-right="0"
     fit-margin-bottom="0"
     inkscape:window-width="1366"
     inkscape:window-height="716"
     inkscape:window-x="0"
     inkscape:window-y="28"
     inkscape:window-maximized="1" />
  <metadata
     id="metadata6396">
    <rdf:RDF>
      <cc:Work
         rdf:about="">
        <dc:format>image/svg+xml</dc:format>
        <dc:type
           rdf:resource="http://purl.org/dc/dcmitype/StillImage" />
        <dc:title />
      </cc:Work>
    </rdf:RDF>
  </metadata>
  <g
     inkscape:label="Capa 1"
     inkscape:groupmode="layer"
     id="layer1"
     transform="translate(-481.71429,-531.2193)">
    <rect
       style="fill:url(#linearGradient1095);fill-opacity:1;stroke:none"
       id="rect2991-1-7-3"
       width="48"
       height="48"
       x="481.71429"
       y="-579.2193"
       ry="1.9445436"
       transform="scale(1,-1)" />
    <path
       style="opacity:0.95400002;color:#000000;fill:#000000;fill-opacity:1;fill-rule:nonzero;stroke:none;stroke-width:0.40000001;marker:none;visibility:visible;display:inline;overflow:visible;enable-background:accumulate"
       d="m 505.73677,539.21932 c -10.73156,0 -19.46067,6.2548 -19.46067,13.97753 0,4.48939 2.98057,8.49768 7.55056,11.05618 l -1.88764,6.96629 8,-4.62921 c 1.82535,0.40856 3.78557,0.62921 5.79775,0.62921 10.73158,0 19.41573,-6.29974 19.41573,-14.02247 C 525.1525,545.47412 516.46835,539.21932 505.73677,539.21932 Z"
       id="path877-1"
       inkscape:connector-curvature="0" />
    <path
       style="color:#000000;fill:#ffffff;fill-opacity:1;fill-rule:nonzero;stroke:none;stroke-width:0.40000001;marker:none;visibility:visible;display:inline;overflow:visible;enable-background:accumulate"
       d="m 505.73677,540.61258 c -9.93727,0 -18.02247,5.63373 -18.02247,12.58427 0,4.22166 2.99025,8.00915 7.55056,10.29214 l -1.97753,5.79775 6.74157,-4.13483 c 1.79481,0.41998 3.71103,0.62921 5.70787,0.62921 9.9373,0 17.97753,-5.63372 17.97753,-12.58427 C 523.7143,546.24631 515.67407,540.61258 505.73677,540.61258 Z"
       id="path879-9"
       inkscape:connector-curvature="0" />
    <path
       style="color:#000000;fill:#000000;fill-opacity:1;fill-rule:nonzero;stroke:none;stroke-width:0.40000001;marker:none;visibility:visible;display:inline;overflow:visible;enable-background:accumulate"
       d="M 15.9375 9.625 C 15.529714 9.625 15.1875 9.9359635 15.1875 10.34375 C 15.1875 10.751536 15.529714 11.09375 15.9375 11.09375 C 16.345286 11.09375 16.65625 10.751536 16.65625 10.34375 C 16.65625 9.9359635 16.345286 9.625 15.9375 9.625 z M 18.8125 9.625 C 18.404714 9.625 18.0625 9.9359635 18.0625 10.34375 C 18.0625 10.751536 18.404714 11.09375 18.8125 11.09375 C 19.220286 11.09375 19.53125 10.751536 19.53125 10.34375 C 19.53125 9.9359635 19.220286 9.625 18.8125 9.625 z M 21.6875 9.625 C 21.279714 9.625 20.9375 9.9359635 20.9375 10.34375 C 20.9375 10.751536 21.279714 11.09375 21.6875 11.09375 C 22.095286 11.09375 22.40625 10.751536 22.40625 10.34375 C 22.40625 9.9359635 22.095286 9.625 21.6875 9.625 z M 24.5625 9.625 C 24.154714 9.625 23.8125 9.9359635 23.8125 10.34375 C 23.8125 10.751536 24.154714 11.09375 24.5625 11.09375 C 24.970286 11.09375 25.3125 10.751536 25.3125 10.34375 C 25.3125 9.9359635 24.970286 9.625 24.5625 9.625 z M 27.4375 9.625 C 27.029714 9.625 26.6875 9.9359635 26.6875 10.34375 C 26.6875 10.751536 27.029714 11.09375 27.4375 11.09375 C 27.845286 11.09375 28.1875 10.751536 28.1875 10.34375 C 28.1875 9.9359635 27.845286 9.625 27.4375 9.625 z M 30.3125 9.625 C 29.904714 9.625 29.5625 9.9359635 29.5625 10.34375 C 29.5625 10.751536 29.904714 11.09375 30.3125 11.09375 C 30.720286 11.09375 31.0625 10.751536 31.0625 10.34375 C 31.0625 9.9359635 30.720286 9.625 30.3125 9.625 z M 10.1875 12.5 C 9.7797135 12.5 9.4375 12.810964 9.4375 13.21875 C 9.4375 13.626536 9.7797135 13.96875 10.1875 13.96875 C 10.595286 13.96875 10.90625 13.626536 10.90625 13.21875 C 10.90625 12.810964 10.595286 12.5 10.1875 12.5 z M 13.0625 12.5 C 12.654714 12.5 12.3125 12.810964 12.3125 13.21875 C 12.3125 13.626536 12.654714 13.96875 13.0625 13.96875 C 13.470286 13.96875 13.78125 13.626536 13.78125 13.21875 C 13.78125 12.810964 13.470286 12.5 13.0625 12.5 z M 15.9375 12.5 C 15.529714 12.5 15.1875 12.810964 15.1875 13.21875 C 15.1875 13.626536 15.529714 13.96875 15.9375 13.96875 C 16.345286 13.96875 16.65625 13.626536 16.65625 13.21875 C 16.65625 12.810964 16.345286 12.5 15.9375 12.5 z M 18.8125 12.5 C 18.404714 12.5 18.0625 12.810964 18.0625 13.21875 C 18.0625 13.626536 18.404714 13.96875 18.8125 13.96875 C 19.220286 13.96875 19.53125 13.626536 19.53125 13.21875 C 19.53125 12.810964 19.220286 12.5 18.8125 12.5 z M 21.6875 12.5 C 21.585553 12.5 21.494586 12.525137 21.40625 12.5625 C 21.141241 12.67459 20.9375 12.91291 20.9375 13.21875 C 20.9375 13.626536 21.279714 13.96875 21.6875 13.96875 C 22.095286 13.96875 22.40625 13.626536 22.40625 13.21875 C 22.40625 12.810964 22.095286 12.5 21.6875 12.5 z M 24.5625 12.5 C 24.154714 12.5 23.8125 12.810964 23.8125 13.21875 C 23.8125 13.626536 24.154714 13.96875 24.5625 13.96875 C 24.970286 13.96875 25.3125 13.626536 25.3125 13.21875 C 25.3125 12.810964 24.970286 12.5 24.5625 12.5 z M 7.3125 15.375 C 6.9047135 15.375 6.5625 15.685964 6.5625 16.09375 C 6.5625 16.501536 6.9047135 16.84375 7.3125 16.84375 C 7.7202865 16.84375 8.03125 16.501536 8.03125 16.09375 C 8.03125 15.685964 7.7202865 15.375 7.3125 15.375 z M 10.1875 15.375 C 9.7797135 15.375 9.4375 15.685964 9.4375 16.09375 C 9.4375 16.501536 9.7797135 16.84375 10.1875 16.84375 C 10.595286 16.84375 10.90625 16.501536 10.90625 16.09375 C 10.90625 15.685964 10.595286 15.375 10.1875 15.375 z M 13.0625 15.375 C 12.654714 15.375 12.3125 15.685964 12.3125 16.09375 C 12.3125 16.501536 12.654714 16.84375 13.0625 16.84375 C 13.470286 16.84375 13.78125 16.501536 13.78125 16.09375 C 13.78125 15.685964 13.470286 15.375 13.0625 15.375 z M 15.9375 15.375 C 15.529714 15.375 15.1875 15.685964 15.1875 16.09375 C 15.1875 16.501536 15.529714 16.84375 15.9375 16.84375 C 16.345286 16.84375 16.65625 16.501536 16.65625 16.09375 C 16.65625 15.685964 16.345286 15.375 15.9375 15.375 z M 18.8125 15.375 C 18.404714 15.375 18.0625 15.685964 18.0625 16.09375 C 18.0625 16.501536 18.404714 16.84375 18.8125 16.84375 C 19.220286 16.84375 19.53125 16.501536 19.53125 16.09375 C 19.53125 15.685964 19.220286 15.375 18.8125 15.375 z M 21.6875 15.375 C 21.279714 15.375 20.9375 15.685964 20.9375 16.09375 C 20.9375 16.501536 21.279714 16.84375 21.6875 16.84375 C 22.095286 16.84375 22.40625 16.501536 22.40625 16.09375 C 22.40625 15.685964 22.095286 15.375 21.6875 15.375 z M 7.3125 18.25 C 6.9047135 18.25 6.5625 18.592214 6.5625 19 C 6.5625 19.407786 6.9047135 19.71875 7.3125 19.71875 C 7.7202865 19.71875 8.03125 19.407786 8.03125 19 C 8.03125 18.592214 7.7202865 18.25 7.3125 18.25 z M 10.1875 18.25 C 9.7797135 18.25 9.4375 18.592214 9.4375 19 C 9.4375 19.407786 9.7797135 19.71875 10.1875 19.71875 C 10.595286 19.71875 10.90625 19.407786 10.90625 19 C 10.90625 18.592214 10.595286 18.25 10.1875 18.25 z M 13.0625 18.25 C 12.654714 18.25 12.3125 18.592214 12.3125 19 C 12.3125 19.407786 12.654714 19.71875 13.0625 19.71875 C 13.470286 19.71875 13.78125 19.407786 13.78125 19 C 13.78125 18.592214 13.470286 18.25 13.0625 18.25 z M 15.9375 18.25 C 15.529714 18.25 15.1875 18.592214 15.1875 19 C 15.1875 19.407786 15.529714 19.71875 15.9375 19.71875 C 16.345286 19.71875 16.65625 19.407786 16.65625 19 C 16.65625 18.592214 16.345286 18.25 15.9375 18.25 z M 18.8125 18.25 C 18.404714 18.25 18.0625 18.592214 18.0625 19 C 18.0625 19.407786 18.404714 19.71875 18.8125 19.71875 C 19.220286 19.71875 19.53125 19.407786 19.53125 19 C 19.53125 18.592214 19.220286 18.25 18.8125 18.25 z M 7.3125 21.125 C 6.9047135 21.125 6.5625 21.467214 6.5625 21.875 C 6.5625 22.282786 6.9047135 22.59375 7.3125 22.59375 C 7.7202865 22.59375 8.03125 22.282786 8.03125 21.875 C 8.03125 21.467214 7.7202865 21.125 7.3125 21.125 z M 10.1875 21.125 C 9.7797135 21.125 9.4375 21.467214 9.4375 21.875 C 9.4375 22.282786 9.7797135 22.59375 10.1875 22.59375 C 10.595286 22.59375 10.90625 22.282786 10.90625 21.875 C 10.90625 21.467214 10.595286 21.125 10.1875 21.125 z M 13.0625 21.125 C 12.654714 21.125 12.3125 21.467214 12.3125 21.875 C 12.3125 22.282786 12.654714 22.59375 13.0625 22.59375 C 13.470286 22.59375 13.78125 22.282786 13.78125 21.875 C 13.78125 21.467214 13.470286 21.125 13.0625 21.125 z M 15.9375 21.125 C 15.529714 21.125 15.1875 21.467214 15.1875 21.875 C 15.1875 22.282786 15.529714 22.59375 15.9375 22.59375 C 16.345286 22.59375 16.65625 22.282786 16.65625 21.875 C 16.65625 21.467214 16.345286 21.125 15.9375 21.125 z M 18.8125 21.125 C 18.404714 21.125 18.0625 21.467214 18.0625 21.875 C 18.0625 22.282786 18.404714 22.59375 18.8125 22.59375 C 19.220286 22.59375 19.53125 22.282786 19.53125 21.875 C 19.53125 21.467214 19.220286 21.125 18.8125 21.125 z M 7.3125 24 C 6.9047135 24 6.5625 24.342214 6.5625 24.75 C 6.5625 25.157786 6.9047135 25.46875 7.3125 25.46875 C 7.7202865 25.46875 8.03125 25.157786 8.03125 24.75 C 8.03125 24.342214 7.7202865 24 7.3125 24 z M 10.1875 24 C 9.7797135 24 9.4375 24.342214 9.4375 24.75 C 9.4375 25.157786 9.7797135 25.46875 10.1875 25.46875 C 10.595286 25.46875 10.90625 25.157786 10.90625 24.75 C 10.90625 24.342214 10.595286 24 10.1875 24 z M 13.0625 24 C 12.654714 24 12.3125 24.342214 12.3125 24.75 C 12.3125 25.157786 12.654714 25.46875 13.0625 25.46875 C 13.470286 25.46875 13.78125 25.157786 13.78125 24.75 C 13.78125 24.342214 13.470286 24 13.0625 24 z M 15.9375 24 C 15.529714 24 15.1875 24.342214 15.1875 24.75 C 15.1875 25.157786 15.529714 25.46875 15.9375 25.46875 C 16.345286 25.46875 16.65625 25.157786 16.65625 24.75 C 16.65625 24.342214 16.345286 24 15.9375 24 z M 18.8125 24 C 18.404714 24 18.0625 24.342214 18.0625 24.75 C 18.0625 25.157786 18.404714 25.46875 18.8125 25.46875 C 19.220286 25.46875 19.53125 25.157786 19.53125 24.75 C 19.53125 24.342214 19.220286 24 18.8125 24 z M 7.3125 26.875 C 6.9047135 26.875 6.5625 27.217214 6.5625 27.625 C 6.5625 28.032786 6.9047135 28.34375 7.3125 28.34375 C 7.7202865 28.34375 8.03125 28.032786 8.03125 27.625 C 8.03125 27.217214 7.7202865 26.875 7.3125 26.875 z M 10.1875 26.875 C 9.7797135 26.875 9.4375 27.217214 9.4375 27.625 C 9.4375 28.032786 9.7797135 28.34375 10.1875 28.34375 C 10.595286 28.34375 10.90625 28.032786 10.90625 27.625 C 10.90625 27.217214 10.595286 26.875 10.1875 26.875 z M 13.0625 26.875 C 12.654714 26.875 12.3125 27.217214 12.3125 27.625 C 12.3125 28.032786 12.654714 28.34375 13.0625 28.34375 C 13.470286 28.34375 13.78125 28.032786 13.78125 27.625 C 13.78125 27.217214 13.470286 26.875 13.0625 26.875 z M 15.9375 26.875 C 15.529714 26.875 15.1875 27.217214 15.1875 27.625 C 15.1875 28.032786 15.529714 28.34375 15.9375 28.34375 C 16.345286 28.34375 16.65625 28.032786 16.65625 27.625 C 16.65625 27.217214 16.345286 26.875 15.9375 26.875 z M 18.8125 26.875 C 18.404714 26.875 18.0625 27.217214 18.0625 27.625 C 18.0625 28.032786 18.404714 28.34375 18.8125 28.34375 C 19.220286 28.34375 19.53125 28.032786 19.53125 27.625 C 19.53125 27.217214 19.220286 26.875 18.8125 26.875 z M 10.1875 29.75 C 9.7797135 29.75 9.4375 30.092214 9.4375 30.5 C 9.4375 30.907786 9.7797135 31.21875 10.1875 31.21875 C 10.595286 31.21875 10.90625 30.907786 10.90625 30.5 C 10.90625 30.092214 10.595286 29.75 10.1875 29.75 z M 13.0625 29.75 C 12.654714 29.75 12.3125 30.092214 12.3125 30.5 C 12.3125 30.907786 12.654714 31.21875 13.0625 31.21875 C 13.470286 31.21875 13.78125 30.907786 13.78125 30.5 C 13.78125 30.092214 13.470286 29.75 13.0625 29.75 z M 15.9375 29.75 C 15.529714 29.75 15.1875 30.092214 15.1875 30.5 C 15.1875 30.907786 15.529714 31.21875 15.9375 31.21875 C 16.345286 31.21875 16.65625 30.907786 16.65625 30.5 C 16.65625 30.092214 16.345286 29.75 15.9375 29.75 z M 18.8125 29.75 C 18.404714 29.75 18.0625 30.092214 18.0625 30.5 C 18.0625 30.907786 18.404714 31.21875 18.8125 31.21875 C 19.220286 31.21875 19.53125 30.907786 19.53125 30.5 C 19.53125 30.092214 19.220286 29.75 18.8125 29.75 z M 21.6875 29.75 C 21.279714 29.75 20.9375 30.092214 20.9375 30.5 C 20.9375 30.907786 21.279714 31.21875 21.6875 31.21875 C 22.095286 31.21875 22.40625 30.907786 22.40625 30.5 C 22.40625 30.092214 22.095286 29.75 21.6875 29.75 z M 13.0625 32.625 C 12.654714 32.625 12.3125 32.967214 12.3125 33.375 C 12.3125 33.782786 12.654714 34.09375 13.0625 34.09375 C 13.470286 34.09375 13.78125 33.782786 13.78125 33.375 C 13.78125 32.967214 13.470286 32.625 13.0625 32.625 z M 15.9375 32.625 C 15.529714 32.625 15.1875 32.967214 15.1875 33.375 C 15.1875 33.782786 15.529714 34.09375 15.9375 34.09375 C 16.345286 34.09375 16.65625 33.782786 16.65625 33.375 C 16.65625 32.967214 16.345286 32.625 15.9375 32.625 z M 18.8125 32.625 C 18.404714 32.625 18.0625 32.967214 18.0625 33.375 C 18.0625 33.782786 18.404714 34.09375 18.8125 34.09375 C 19.220286 34.09375 19.53125 33.782786 19.53125 33.375 C 19.53125 32.967214 19.220286 32.625 18.8125 32.625 z M 21.6875 32.625 C 21.279714 32.625 20.9375 32.967214 20.9375 33.375 C 20.9375 33.782786 21.279714 34.09375 21.6875 34.09375 C 22.095286 34.09375 22.40625 33.782786 22.40625 33.375 C 22.40625 32.967214 22.095286 32.625 21.6875 32.625 z M 24.5625 32.625 C 24.154714 32.625 23.8125 32.967214 23.8125 33.375 C 23.8125 33.782786 24.154714 34.09375 24.5625 34.09375 C 24.970286 34.09375 25.3125 33.782786 25.3125 33.375 C 25.3125 32.967214 24.970286 32.625 24.5625 32.625 z M 13.0625 35.5 C 12.654714 35.5 12.3125 35.842214 12.3125 36.25 C 12.3125 36.657786 12.654714 36.96875 13.0625 36.96875 C 13.470286 36.96875 13.78125 36.657786 13.78125 36.25 C 13.78125 35.842214 13.470286 35.5 13.0625 35.5 z "
       transform="translate(481.71429,531.2193)"
       id="path947-6" />
    <path
       inkscape:connector-curvature="0"
       style="fill:#000000;fill-opacity:1;stroke:none"
       d="m 481.71429,576.21931 0,1.0625 c 0,1.0773 0.86022,1.9375 1.9375,1.9375 l 44.125,0 c 1.07728,0 1.9375,-0.8602 1.9375,-1.9375 l 0,-1.0625 c 0,1.0773 -0.86022,1.9375 -1.9375,1.9375 l -44.125,0 C 482.57451,578.15681 481.71429,577.29661 481.71429,576.21931 Z"
       id="rect846-0" />
    <path
       inkscape:connector-curvature="0"
       style="fill:#ffffff;fill-opacity:0.5372549;stroke:none"
       d="m 484.24554,531.87561 c -0.91709,0 -1.67115,0.6395 -1.84375,1.5 0.33561,-0.2799 0.77451,-0.4375 1.25,-0.4375 l 44.125,0 c 0.47549,0 0.91439,0.1576 1.25,0.4375 -0.1726,-0.8605 -0.92666,-1.5 -1.84375,-1.5 L 484.24554,531.87561 Z"
       id="path7515-3" />
    <path
       inkscape:connector-curvature="0"
       style="fill:#000000;fill-opacity:0.39215686;stroke:none"
       d="m 483.65179,531.21931 c -1.07728,0 -1.9375,0.8602 -1.9375,1.9375 l 0,43.0625 c 0,0.7934 0.48002,1.449 1.15625,1.75 -0.30934,-0.3333 -0.5,-0.7824 -0.5,-1.2812 l 0,-42.9375 c 0,-1.0482 0.8269,-1.875 1.875,-1.875 l 42.9375,0 c 1.0481,0 1.875,0.8268 1.875,1.875 l 0,42.9375 c 0,0.4988 -0.19066,0.9479 -0.5,1.2812 0.67623,-0.301 1.15625,-0.9566 1.15625,-1.75 l 0,-43.0625 c 0,-1.0773 -0.86022,-1.9375 -1.9375,-1.9375 L 483.65179,531.21931 Z"
       id="rect4280-1" />
    <path
       style="opacity:0.6;color:#000000;fill:url(#linearGradient924);fill-opacity:1;fill-rule:nonzero;stroke:none;stroke-width:1;marker:none;visibility:visible;display:inline;overflow:visible;enable-background:accumulate"
       d="m 505.71342,555.21931 0,22.8438 20.0625,0 c 0.10844,-0.2427 0.1875,-0.4974 0.1875,-0.7813 l 0,-21.5625 c -0.64338,-0.3128 -1.36133,-0.5 -2.125,-0.5 L 505.71342,555.21931 Z"
       id="path6270"
       inkscape:connector-curvature="0" />
    <path
       style="opacity:0.6;color:#000000;fill:url(#linearGradient942);fill-opacity:1;fill-rule:nonzero;stroke:none;stroke-width:1;marker:none;visibility:visible;display:inline;overflow:visible;enable-background:accumulate"
       d="m 485.46342,555.21931 0,22.0625 c 0,0.1012 0.0165,0.1843 0.0312,0.2813 0.63718,0.3053 1.33979,0.5 2.09375,0.5 l 18.125,0 0,-22.8438 L 485.46342,555.21931 Z"
       id="path6274"
       inkscape:connector-curvature="0" />
    <path
       style="opacity:0.6;color:#000000;fill:url(#linearGradient6268);fill-opacity:1;fill-rule:nonzero;stroke:none;stroke-width:1;marker:none;visibility:visible;display:inline;overflow:visible;enable-background:accumulate"
       d="m 487.58842,532.37561 c -0.75396,0 -1.45657,0.1946 -2.09375,0.5 -0.0148,0.097 -0.0312,0.18 -0.0312,0.2812 l 0,22.0625 20.25,0 0,-22.8437 L 487.58842,532.37561 Z"
       id="path6249"
       inkscape:connector-curvature="0" />
    <path
       style="opacity:0.6;color:#000000;fill:url(#linearGradient6280);fill-opacity:1;fill-rule:nonzero;stroke:none;stroke-width:1;marker:none;visibility:visible;display:inline;overflow:visible;enable-background:accumulate"
       d="m 505.71342,532.37561 0,22.8437 20.25,0 0,-22.0625 c 0,-0.1012 -0.0165,-0.1843 -0.0312,-0.2812 -0.63718,-0.3054 -1.33979,-0.5 -2.09375,-0.5 L 505.71342,532.37561 Z"
       id="path6276"
       inkscape:connector-curvature="0" />
  </g>
</svg>
