<?xml version="1.0" encoding="UTF-8" standalone="no"?>
<!-- Created with Inkscape (http://www.inkscape.org/) -->

<svg
   xmlns:dc="http://purl.org/dc/elements/1.1/"
   xmlns:cc="http://creativecommons.org/ns#"
   xmlns:rdf="http://www.w3.org/1999/02/22-rdf-syntax-ns#"
   xmlns:svg="http://www.w3.org/2000/svg"
   xmlns="http://www.w3.org/2000/svg"
   xmlns:xlink="http://www.w3.org/1999/xlink"
   xmlns:sodipodi="http://sodipodi.sourceforge.net/DTD/sodipodi-0.dtd"
   xmlns:inkscape="http://www.inkscape.org/namespaces/inkscape"
   width="48"
   height="48"
   id="svg6654"
   version="1.1"
   inkscape:version="0.48+devel r12272"
   sodipodi:docname="application-ogg.svg">
  <defs
     id="defs6656">
    <linearGradient
       inkscape:collect="always"
       xlink:href="#linearGradient6262"
       id="linearGradient924"
       gradientUnits="userSpaceOnUse"
       gradientTransform="matrix(-1,0,0,1,215.42799,834.06311)"
       x1="23.533073"
       y1="13.07393"
       x2="11.579766"
       y2="13.07393" />
    <linearGradient
       id="linearGradient6262"
       inkscape:collect="always">
      <stop
         id="stop6264"
         offset="0"
         style="stop-color:#ffffff;stop-opacity:0.25738397" />
      <stop
         id="stop6266"
         offset="1"
         style="stop-color:#ffffff;stop-opacity:0;" />
    </linearGradient>
    <linearGradient
       inkscape:collect="always"
       xlink:href="#linearGradient6282"
       id="linearGradient942"
       gradientUnits="userSpaceOnUse"
       gradientTransform="matrix(1,0,0,-1,167.42799,859.21941)"
       x1="17.60643"
       y1="19.660906"
       x2="11.019455"
       y2="13.07393" />
    <linearGradient
       inkscape:collect="always"
       id="linearGradient6282">
      <stop
         style="stop-color:#000000;stop-opacity:0.10970464"
         offset="0"
         id="stop6284" />
      <stop
         style="stop-color:#ffffff;stop-opacity:0;"
         offset="1"
         id="stop6286" />
    </linearGradient>
    <linearGradient
       gradientUnits="userSpaceOnUse"
       y2="13.07393"
       x2="11.019455"
       y1="13.07393"
       x1="23.533073"
       id="linearGradient6268"
       xlink:href="#linearGradient6262"
       inkscape:collect="always"
       gradientTransform="translate(167.42799,811.21941)" />
    <linearGradient
       y2="13.07393"
       x2="11.579766"
       y1="21.890017"
       x1="20.395853"
       gradientTransform="matrix(-1,0,0,1,215.42799,811.21941)"
       gradientUnits="userSpaceOnUse"
       id="linearGradient6280"
       xlink:href="#linearGradient6288"
       inkscape:collect="always" />
    <linearGradient
       inkscape:collect="always"
       id="linearGradient6288">
      <stop
         style="stop-color:#000000;stop-opacity:0.13080169"
         offset="0"
         id="stop6290" />
      <stop
         style="stop-color:#ffffff;stop-opacity:0;"
         offset="1"
         id="stop6292" />
    </linearGradient>
    <linearGradient
       y2="-1001.0899"
       x2="92.14286"
       y1="-1049.092"
       x1="92.14286"
       gradientTransform="translate(102.53514,189.86871)"
       gradientUnits="userSpaceOnUse"
       id="linearGradient4117"
       xlink:href="#linearGradient943-6"
       inkscape:collect="always" />
    <linearGradient
       id="linearGradient943-6">
      <stop
         style="stop-color:#218720;stop-opacity:1"
         offset="0"
         id="stop945-0" />
      <stop
         style="stop-color:#7acd20;stop-opacity:1"
         offset="1"
         id="stop947-8" />
    </linearGradient>
  </defs>
  <sodipodi:namedview
     id="base"
     pagecolor="#ffffff"
     bordercolor="#666666"
     borderopacity="1.0"
     inkscape:pageopacity="0.0"
     inkscape:pageshadow="2"
     inkscape:zoom="1.979899"
     inkscape:cx="-7.7857763"
     inkscape:cy="48.308553"
     inkscape:document-units="px"
     inkscape:current-layer="layer1"
     showgrid="false"
     fit-margin-top="0"
     fit-margin-left="0"
     fit-margin-right="0"
     fit-margin-bottom="0"
     inkscape:window-width="1366"
     inkscape:window-height="716"
     inkscape:window-x="0"
     inkscape:window-y="28"
     inkscape:window-maximized="1" />
  <metadata
     id="metadata6659">
    <rdf:RDF>
      <cc:Work
         rdf:about="">
        <dc:format>image/svg+xml</dc:format>
        <dc:type
           rdf:resource="http://purl.org/dc/dcmitype/StillImage" />
        <dc:title />
      </cc:Work>
    </rdf:RDF>
  </metadata>
  <g
     inkscape:label="Capa 1"
     inkscape:groupmode="layer"
     id="layer1"
     transform="translate(-167.42857,-811.2193)">
    <rect
       style="fill:url(#linearGradient4117);fill-opacity:1.0;stroke:none"
       id="rect2991-1-7-3"
       width="48"
       height="48"
       x="167.42857"
       y="-859.2193"
       ry="1.9445436"
       transform="scale(1,-1)" />
    <path
       inkscape:connector-curvature="0"
       id="path288"
       style="fill:#ffffff;fill-opacity:1;fill-rule:nonzero;stroke:none"
       d="m 185.91513,823.06946 0.006,19.83056 c -1.08363,-0.21734 -2.33808,-0.13456 -3.58523,0.32081 -2.80485,1.04541 -3.79429,3.58111 -3.04906,5.66143 0.7421,2.09072 2.93624,2.92912 5.7411,1.89408 2.38051,-0.89008 3.93919,-2.84624 3.90197,-4.69888 0,0 0,-10.51556 0,-16.384 l 11.87035,-2.72208 0,12.5856 c -1.08361,-0.21737 -2.33706,-0.13456 -3.58422,0.3208 -2.80584,1.04539 -3.79529,3.58112 -3.05011,5.66144 0.74207,2.09072 2.93631,2.92908 5.74112,1.88368 2.38048,-0.87968 3.9392,-2.83584 3.90191,-4.68848 l 0,-23.51512 -17.89089,3.85016" />
    <path
       inkscape:connector-curvature="0"
       style="fill:#000000;fill-opacity:1;stroke:none"
       d="m 167.42856,856.21931 0,1.0625 c 0,1.0773 0.86022,1.9375 1.9375,1.9375 l 44.125,0 c 1.07728,0 1.9375,-0.8602 1.9375,-1.9375 l 0,-1.0625 c 0,1.0773 -0.86022,1.9375 -1.9375,1.9375 l -44.125,0 C 168.28878,858.15681 167.42856,857.29661 167.42856,856.21931 Z"
       id="rect846-0" />
    <path
       inkscape:connector-curvature="0"
       style="fill:#ffffff;fill-opacity:0.5372549;stroke:none"
       d="m 169.95981,811.87561 c -0.91709,0 -1.67115,0.6395 -1.84375,1.5 0.33561,-0.2799 0.77451,-0.4375 1.25,-0.4375 l 44.125,0 c 0.47549,0 0.91439,0.1576 1.25,0.4375 -0.1726,-0.8605 -0.92666,-1.5 -1.84375,-1.5 L 169.95981,811.87561 Z"
       id="path7515-3" />
    <path
       inkscape:connector-curvature="0"
       style="fill:#000000;fill-opacity:0.39215686;stroke:none"
       d="m 169.36606,811.21931 c -1.07728,0 -1.9375,0.8602 -1.9375,1.9375 l 0,43.0625 c 0,0.7934 0.48002,1.449 1.15625,1.75 -0.30934,-0.3333 -0.5,-0.7824 -0.5,-1.2812 l 0,-42.9375 c 0,-1.0482 0.8269,-1.875 1.875,-1.875 l 42.9375,0 c 1.0481,0 1.875,0.8268 1.875,1.875 l 0,42.9375 c 0,0.4988 -0.19066,0.9479 -0.5,1.2812 0.67623,-0.301 1.15625,-0.9566 1.15625,-1.75 l 0,-43.0625 c 0,-1.0773 -0.86022,-1.9375 -1.9375,-1.9375 L 169.36606,811.21931 Z"
       id="rect4280-1" />
    <path
       style="opacity:0.6;color:#000000;fill:url(#linearGradient924);fill-opacity:1;fill-rule:nonzero;stroke:none;stroke-width:1;marker:none;visibility:visible;display:inline;overflow:visible;enable-background:accumulate"
       d="m 191.42769,835.21931 0,22.8438 20.0625,0 c 0.10844,-0.2427 0.1875,-0.4974 0.1875,-0.7813 l 0,-21.5625 c -0.64338,-0.3128 -1.36133,-0.5 -2.125,-0.5 L 191.42769,835.21931 Z"
       id="path6270"
       inkscape:connector-curvature="0" />
    <path
       style="opacity:0.6;color:#000000;fill:url(#linearGradient942);fill-opacity:1;fill-rule:nonzero;stroke:none;stroke-width:1;marker:none;visibility:visible;display:inline;overflow:visible;enable-background:accumulate"
       d="m 171.17769,835.21931 0,22.0625 c 0,0.1012 0.0165,0.1843 0.0312,0.2813 0.63718,0.3053 1.33979,0.5 2.09375,0.5 l 18.125,0 0,-22.8438 L 171.17769,835.21931 Z"
       id="path6274"
       inkscape:connector-curvature="0" />
    <path
       style="opacity:0.6;color:#000000;fill:url(#linearGradient6268);fill-opacity:1;fill-rule:nonzero;stroke:none;stroke-width:1;marker:none;visibility:visible;display:inline;overflow:visible;enable-background:accumulate"
       d="m 173.30269,812.37561 c -0.75396,0 -1.45657,0.1946 -2.09375,0.5 -0.0148,0.097 -0.0312,0.18 -0.0312,0.2812 l 0,22.0625 20.25,0 0,-22.8437 L 173.30269,812.37561 Z"
       id="path6249"
       inkscape:connector-curvature="0" />
    <path
       style="opacity:0.6;color:#000000;fill:url(#linearGradient6280);fill-opacity:1;fill-rule:nonzero;stroke:none;stroke-width:1;marker:none;visibility:visible;display:inline;overflow:visible;enable-background:accumulate"
       d="m 191.42769,812.37561 0,22.8437 20.25,0 0,-22.0625 c 0,-0.1012 -0.0165,-0.1843 -0.0312,-0.2812 -0.63718,-0.3054 -1.33979,-0.5 -2.09375,-0.5 L 191.42769,812.37561 Z"
       id="path6276"
       inkscape:connector-curvature="0" />
  </g>
</svg>
