<?xml version="1.0" encoding="UTF-8" standalone="no"?>
<!-- Created with Inkscape (http://www.inkscape.org/) -->

<svg
   xmlns:dc="http://purl.org/dc/elements/1.1/"
   xmlns:cc="http://creativecommons.org/ns#"
   xmlns:rdf="http://www.w3.org/1999/02/22-rdf-syntax-ns#"
   xmlns:svg="http://www.w3.org/2000/svg"
   xmlns="http://www.w3.org/2000/svg"
   xmlns:xlink="http://www.w3.org/1999/xlink"
   xmlns:sodipodi="http://sodipodi.sourceforge.net/DTD/sodipodi-0.dtd"
   xmlns:inkscape="http://www.inkscape.org/namespaces/inkscape"
   width="48"
   height="48"
   id="svg6407"
   version="1.1"
   inkscape:version="0.48+devel r12269"
   sodipodi:docname="application-x-glade.svg">
  <defs
     id="defs6409">
    <linearGradient
       id="linearGradient943">
      <stop
         style="stop-color:#028edb;stop-opacity:1"
         offset="0"
         id="stop945" />
      <stop
         style="stop-color:#019cef;stop-opacity:1"
         offset="1"
         id="stop947" />
    </linearGradient>
    <linearGradient
       inkscape:collect="always"
       xlink:href="#linearGradient6288"
       id="linearGradient6280"
       gradientUnits="userSpaceOnUse"
       gradientTransform="matrix(-1,0,0,1,709.71373,651.21942)"
       x1="20.395853"
       y1="21.890017"
       x2="11.579766"
       y2="13.07393" />
    <linearGradient
       id="linearGradient6288"
       inkscape:collect="always">
      <stop
         id="stop6290"
         offset="0"
         style="stop-color:#000000;stop-opacity:0.13080169" />
      <stop
         id="stop6292"
         offset="1"
         style="stop-color:#ffffff;stop-opacity:0;" />
    </linearGradient>
    <linearGradient
       gradientTransform="translate(661.71373,651.21942)"
       inkscape:collect="always"
       xlink:href="#linearGradient6262"
       id="linearGradient6268"
       x1="23.533073"
       y1="13.07393"
       x2="11.019455"
       y2="13.07393"
       gradientUnits="userSpaceOnUse" />
    <linearGradient
       inkscape:collect="always"
       id="linearGradient6262">
      <stop
         style="stop-color:#ffffff;stop-opacity:0.25738397"
         offset="0"
         id="stop6264" />
      <stop
         style="stop-color:#ffffff;stop-opacity:0;"
         offset="1"
         id="stop6266" />
    </linearGradient>
    <linearGradient
       y2="13.07393"
       x2="11.019455"
       y1="19.660906"
       x1="17.60643"
       gradientTransform="matrix(1,0,0,-1,661.71373,699.21942)"
       gradientUnits="userSpaceOnUse"
       id="linearGradient942"
       xlink:href="#linearGradient6282"
       inkscape:collect="always" />
    <linearGradient
       id="linearGradient6282"
       inkscape:collect="always">
      <stop
         id="stop6284"
         offset="0"
         style="stop-color:#000000;stop-opacity:0.10970464" />
      <stop
         id="stop6286"
         offset="1"
         style="stop-color:#ffffff;stop-opacity:0;" />
    </linearGradient>
    <linearGradient
       y2="13.07393"
       x2="11.579766"
       y1="13.07393"
       x1="23.533073"
       gradientTransform="matrix(-1,0,0,1,709.71373,674.06312)"
       gradientUnits="userSpaceOnUse"
       id="linearGradient924"
       xlink:href="#linearGradient6262"
       inkscape:collect="always" />
    <linearGradient
       inkscape:collect="always"
       xlink:href="#linearGradient943"
       id="linearGradient58"
       x1="92.14286"
       y1="-1049.092"
       x2="92.14286"
       y2="-1001.0899"
       gradientUnits="userSpaceOnUse"
       gradientTransform="translate(596.82088,349.86874)" />
  </defs>
  <sodipodi:namedview
     id="base"
     pagecolor="#ffffff"
     bordercolor="#666666"
     borderopacity="1.0"
     inkscape:pageopacity="0.0"
     inkscape:pageshadow="2"
     inkscape:zoom="4"
     inkscape:cx="-1.6913445"
     inkscape:cy="63.547086"
     inkscape:document-units="px"
     inkscape:current-layer="layer1"
     showgrid="false"
     fit-margin-top="0"
     fit-margin-left="0"
     fit-margin-right="0"
     fit-margin-bottom="0"
     inkscape:window-width="1366"
     inkscape:window-height="716"
     inkscape:window-x="0"
     inkscape:window-y="28"
     inkscape:window-maximized="1" />
  <metadata
     id="metadata6412">
    <rdf:RDF>
      <cc:Work
         rdf:about="">
        <dc:format>image/svg+xml</dc:format>
        <dc:type
           rdf:resource="http://purl.org/dc/dcmitype/StillImage" />
        <dc:title />
      </cc:Work>
    </rdf:RDF>
  </metadata>
  <g
     inkscape:label="Capa 1"
     inkscape:groupmode="layer"
     id="layer1"
     transform="translate(-661.71429,-651.21932)">
    <rect
       style="fill:url(#linearGradient58);fill-opacity:1;stroke:none"
       id="rect2991-1-7-3"
       width="48"
       height="48"
       x="661.71429"
       y="-699.2193"
       ry="1.9445436"
       transform="scale(1,-1)" />
    <g
       id="g1072"
       transform="matrix(1.2736387,0,0,1.2736387,-187.63797,-184.7661)">
      <rect
         ry="0"
         y="662.65686"
         x="673.11487"
         height="25.124865"
         width="25.198841"
         id="rect971"
         style="fill:#ffffff;fill-opacity:0.34099618" />
      <rect
         y="682.51178"
         x="676.34454"
         height="2.0967488"
         width="5.8534245"
         id="rect1260"
         style="fill:#ffffff;fill-opacity:0.5372549;fill-rule:nonzero;stroke:none" />
      <path
         inkscape:connector-curvature="0"
         id="rect1264"
         d="m 675.39667,668.06664 0,2.39116 2.36723,0 0,-2.39116 L 675.39667,668.06664 z m 1.69771,0.59779 0.23912,0.23912 -0.71735,0.74126 -0.23911,0.23911 -0.28694,-0.28694 -0.26303,-0.26302 0.23911,-0.23912 0.28694,0.28693 L 677.09438,668.66443 Z"
         style="fill:#ffffff;fill-opacity:0.5372549;fill-rule:nonzero;stroke:none" />
      <path
         inkscape:connector-curvature="0"
         style="fill:#ffffff;fill-opacity:0.5372549;fill-rule:nonzero;stroke:none"
         d="m 675.39667,672.34577 0,2.39115 2.36723,0 0,-2.39115 L 675.39667,672.34577 z m 1.69771,0.59779 0.23912,0.23911 -0.71735,0.74126 -0.23911,0.23911 -0.28694,-0.28693 -0.26303,-0.26303 0.23911,-0.23912 0.28694,0.28695 L 677.09438,672.94356 Z"
         id="path879" />
      <rect
         style="fill:#ffffff;fill-opacity:0.5372549;fill-rule:nonzero;stroke:none"
         id="rect881"
         width="5.8534245"
         height="2.0967488"
         x="688.96869"
         y="682.51178" />
      <rect
         style="fill:#ffffff;fill-opacity:0.34099618"
         id="rect1070"
         width="25.198841"
         height="3.2045543"
         x="673.11487"
         y="662.65686"
         ry="0" />
    </g>
    <path
       inkscape:connector-curvature="0"
       style="fill:#000000;fill-opacity:0.39215686;stroke:none"
       d="m 663.65179,651.21932 c -1.07728,0 -1.9375,0.8602 -1.9375,1.9375 l 0,43.0625 c 0,0.7934 0.48002,1.449 1.15625,1.75 -0.30934,-0.3333 -0.5,-0.7824 -0.5,-1.2812 l 0,-42.9375 c 0,-1.0482 0.8269,-1.875 1.875,-1.875 l 42.9375,0 c 1.0481,0 1.875,0.8268 1.875,1.875 l 0,42.9375 c 0,0.4988 -0.19066,0.9479 -0.5,1.2812 0.67623,-0.301 1.15625,-0.9566 1.15625,-1.75 l 0,-43.0625 c 0,-1.0773 -0.86022,-1.9375 -1.9375,-1.9375 L 663.65179,651.21932 Z"
       id="rect4280-1" />
    <flowRoot
       xml:space="preserve"
       id="flowRoot1042"
       style="font-size:40px;font-style:normal;font-variant:normal;font-weight:bold;font-stretch:normal;line-height:125%;letter-spacing:0px;word-spacing:0px;fill:#000000;fill-opacity:1;stroke:none;font-family:Impact;-inkscape-font-specification:Impact Bold"
       transform="translate(661.71429,651.21932)"><flowRegion
         id="flowRegion1044"><rect
           id="rect1046"
           width="70.178574"
           height="63.57143"
           x="-79.821426"
           y="2.1071429" /></flowRegion><flowPara
         id="flowPara1048">\documentclass[12pt]{article}</flowPara><flowPara
         id="flowPara1050" /></flowRoot>    <path
       style="fill:#ffffff;fill-opacity:0.23529412;fill-rule:nonzero;stroke:none"
       d="M 3.84375 0 L 3.84375 3.84375 L 0 3.84375 L 0 4.15625 L 3.84375 4.15625 L 3.84375 7.5 L 0 7.5 L 0 7.78125 L 3.84375 7.78125 L 3.84375 11.125 L 0 11.125 L 0 11.40625 L 3.84375 11.40625 L 3.84375 14.78125 L 0 14.78125 L 0 15.0625 L 3.84375 15.0625 L 3.84375 18.40625 L 0 18.40625 L 0 18.6875 L 3.84375 18.6875 L 3.84375 22.03125 L 0 22.03125 L 0 22.3125 L 3.84375 22.3125 L 3.84375 25.6875 L 0 25.6875 L 0 25.96875 L 3.84375 25.96875 L 3.84375 29.3125 L 0 29.3125 L 0 29.59375 L 3.84375 29.59375 L 3.84375 32.9375 L 0 32.9375 L 0 33.21875 L 3.84375 33.21875 L 3.84375 36.59375 L 0 36.59375 L 0 36.875 L 3.84375 36.875 L 3.84375 40.21875 L 0 40.21875 L 0 40.5 L 3.84375 40.5 L 3.84375 43.84375 L 0 43.84375 L 0 44.15625 L 3.84375 44.15625 L 3.84375 48 L 4.15625 48 L 4.15625 44.15625 L 7.5 44.15625 L 7.5 48 L 7.78125 48 L 7.78125 44.15625 L 11.125 44.15625 L 11.125 48 L 11.40625 48 L 11.40625 44.15625 L 14.78125 44.15625 L 14.78125 48 L 15.0625 48 L 15.0625 44.15625 L 18.40625 44.15625 L 18.40625 48 L 18.6875 48 L 18.6875 44.15625 L 22.03125 44.15625 L 22.03125 48 L 22.3125 48 L 22.3125 44.15625 L 25.6875 44.15625 L 25.6875 48 L 25.96875 48 L 25.96875 44.15625 L 29.3125 44.15625 L 29.3125 48 L 29.59375 48 L 29.59375 44.15625 L 32.9375 44.15625 L 32.9375 48 L 33.21875 48 L 33.21875 44.15625 L 36.59375 44.15625 L 36.59375 48 L 36.875 48 L 36.875 44.15625 L 40.21875 44.15625 L 40.21875 48 L 40.5 48 L 40.5 44.15625 L 43.84375 44.15625 L 43.84375 48 L 44.15625 48 L 44.15625 44.15625 L 48 44.15625 L 48 43.84375 L 44.15625 43.84375 L 44.15625 40.5 L 48 40.5 L 48 40.21875 L 44.15625 40.21875 L 44.15625 36.875 L 48 36.875 L 48 36.59375 L 44.15625 36.59375 L 44.15625 33.21875 L 48 33.21875 L 48 32.9375 L 44.15625 32.9375 L 44.15625 29.59375 L 48 29.59375 L 48 29.3125 L 44.15625 29.3125 L 44.15625 25.96875 L 48 25.96875 L 48 25.6875 L 44.15625 25.6875 L 44.15625 22.3125 L 48 22.3125 L 48 22.03125 L 44.15625 22.03125 L 44.15625 18.6875 L 48 18.6875 L 48 18.40625 L 44.15625 18.40625 L 44.15625 15.0625 L 48 15.0625 L 48 14.78125 L 44.15625 14.78125 L 44.15625 11.40625 L 48 11.40625 L 48 11.125 L 44.15625 11.125 L 44.15625 7.78125 L 48 7.78125 L 48 7.5 L 44.15625 7.5 L 44.15625 4.15625 L 48 4.15625 L 48 3.84375 L 44.15625 3.84375 L 44.15625 0 L 43.84375 0 L 43.84375 3.84375 L 40.5 3.84375 L 40.5 0 L 40.21875 0 L 40.21875 3.84375 L 36.875 3.84375 L 36.875 0 L 36.59375 0 L 36.59375 3.84375 L 33.21875 3.84375 L 33.21875 0 L 32.9375 0 L 32.9375 3.84375 L 29.59375 3.84375 L 29.59375 0 L 29.3125 0 L 29.3125 3.84375 L 25.96875 3.84375 L 25.96875 0 L 25.6875 0 L 25.6875 3.84375 L 22.3125 3.84375 L 22.3125 0 L 22.03125 0 L 22.03125 3.84375 L 18.6875 3.84375 L 18.6875 0 L 18.40625 0 L 18.40625 3.84375 L 15.0625 3.84375 L 15.0625 0 L 14.78125 0 L 14.78125 3.84375 L 11.40625 3.84375 L 11.40625 0 L 11.125 0 L 11.125 3.84375 L 7.78125 3.84375 L 7.78125 0 L 7.5 0 L 7.5 3.84375 L 4.15625 3.84375 L 4.15625 0 L 3.84375 0 z M 4.15625 4.15625 L 7.5 4.15625 L 7.5 7.5 L 4.15625 7.5 L 4.15625 4.15625 z M 7.78125 4.15625 L 11.125 4.15625 L 11.125 7.5 L 7.78125 7.5 L 7.78125 4.15625 z M 11.40625 4.15625 L 14.78125 4.15625 L 14.78125 7.5 L 11.40625 7.5 L 11.40625 4.15625 z M 15.0625 4.15625 L 18.40625 4.15625 L 18.40625 7.5 L 15.0625 7.5 L 15.0625 4.15625 z M 18.6875 4.15625 L 22.03125 4.15625 L 22.03125 7.5 L 18.6875 7.5 L 18.6875 4.15625 z M 22.3125 4.15625 L 25.6875 4.15625 L 25.6875 7.5 L 22.3125 7.5 L 22.3125 4.15625 z M 25.96875 4.15625 L 29.3125 4.15625 L 29.3125 7.5 L 25.96875 7.5 L 25.96875 4.15625 z M 29.59375 4.15625 L 32.9375 4.15625 L 32.9375 7.5 L 29.59375 7.5 L 29.59375 4.15625 z M 33.21875 4.15625 L 36.59375 4.15625 L 36.59375 7.5 L 33.21875 7.5 L 33.21875 4.15625 z M 36.875 4.15625 L 40.21875 4.15625 L 40.21875 7.5 L 36.875 7.5 L 36.875 4.15625 z M 40.5 4.15625 L 43.84375 4.15625 L 43.84375 7.5 L 40.5 7.5 L 40.5 4.15625 z M 4.15625 7.78125 L 7.5 7.78125 L 7.5 11.125 L 4.15625 11.125 L 4.15625 7.78125 z M 7.78125 7.78125 L 11.125 7.78125 L 11.125 11.125 L 7.78125 11.125 L 7.78125 7.78125 z M 11.40625 7.78125 L 14.78125 7.78125 L 14.78125 11.125 L 11.40625 11.125 L 11.40625 7.78125 z M 15.0625 7.78125 L 18.40625 7.78125 L 18.40625 11.125 L 15.0625 11.125 L 15.0625 7.78125 z M 18.6875 7.78125 L 22.03125 7.78125 L 22.03125 11.125 L 18.6875 11.125 L 18.6875 7.78125 z M 22.3125 7.78125 L 25.6875 7.78125 L 25.6875 11.125 L 22.3125 11.125 L 22.3125 7.78125 z M 25.96875 7.78125 L 29.3125 7.78125 L 29.3125 11.125 L 25.96875 11.125 L 25.96875 7.78125 z M 29.59375 7.78125 L 32.9375 7.78125 L 32.9375 11.125 L 29.59375 11.125 L 29.59375 7.78125 z M 33.21875 7.78125 L 36.59375 7.78125 L 36.59375 11.125 L 33.21875 11.125 L 33.21875 7.78125 z M 36.875 7.78125 L 40.21875 7.78125 L 40.21875 11.125 L 36.875 11.125 L 36.875 7.78125 z M 40.5 7.78125 L 43.84375 7.78125 L 43.84375 11.125 L 40.5 11.125 L 40.5 7.78125 z M 4.15625 11.40625 L 7.5 11.40625 L 7.5 14.78125 L 4.15625 14.78125 L 4.15625 11.40625 z M 7.78125 11.40625 L 11.125 11.40625 L 11.125 14.78125 L 7.78125 14.78125 L 7.78125 11.40625 z M 11.40625 11.40625 L 14.78125 11.40625 L 14.78125 14.78125 L 11.40625 14.78125 L 11.40625 11.40625 z M 15.0625 11.40625 L 18.40625 11.40625 L 18.40625 14.78125 L 15.0625 14.78125 L 15.0625 11.40625 z M 18.6875 11.40625 L 22.03125 11.40625 L 22.03125 14.78125 L 18.6875 14.78125 L 18.6875 11.40625 z M 22.3125 11.40625 L 25.6875 11.40625 L 25.6875 14.78125 L 22.3125 14.78125 L 22.3125 11.40625 z M 25.96875 11.40625 L 29.3125 11.40625 L 29.3125 14.78125 L 25.96875 14.78125 L 25.96875 11.40625 z M 29.59375 11.40625 L 32.9375 11.40625 L 32.9375 14.78125 L 29.59375 14.78125 L 29.59375 11.40625 z M 33.21875 11.40625 L 36.59375 11.40625 L 36.59375 14.78125 L 33.21875 14.78125 L 33.21875 11.40625 z M 36.875 11.40625 L 40.21875 11.40625 L 40.21875 14.78125 L 36.875 14.78125 L 36.875 11.40625 z M 40.5 11.40625 L 43.84375 11.40625 L 43.84375 14.78125 L 40.5 14.78125 L 40.5 11.40625 z M 4.15625 15.0625 L 7.5 15.0625 L 7.5 18.40625 L 4.15625 18.40625 L 4.15625 15.0625 z M 7.78125 15.0625 L 11.125 15.0625 L 11.125 18.40625 L 7.78125 18.40625 L 7.78125 15.0625 z M 11.40625 15.0625 L 14.78125 15.0625 L 14.78125 18.40625 L 11.40625 18.40625 L 11.40625 15.0625 z M 15.0625 15.0625 L 18.40625 15.0625 L 18.40625 18.40625 L 15.0625 18.40625 L 15.0625 15.0625 z M 18.6875 15.0625 L 22.03125 15.0625 L 22.03125 18.40625 L 18.6875 18.40625 L 18.6875 15.0625 z M 22.3125 15.0625 L 25.6875 15.0625 L 25.6875 18.40625 L 22.3125 18.40625 L 22.3125 15.0625 z M 25.96875 15.0625 L 29.3125 15.0625 L 29.3125 18.40625 L 25.96875 18.40625 L 25.96875 15.0625 z M 29.59375 15.0625 L 32.9375 15.0625 L 32.9375 18.40625 L 29.59375 18.40625 L 29.59375 15.0625 z M 33.21875 15.0625 L 36.59375 15.0625 L 36.59375 18.40625 L 33.21875 18.40625 L 33.21875 15.0625 z M 36.875 15.0625 L 40.21875 15.0625 L 40.21875 18.40625 L 36.875 18.40625 L 36.875 15.0625 z M 40.5 15.0625 L 43.84375 15.0625 L 43.84375 18.40625 L 40.5 18.40625 L 40.5 15.0625 z M 4.15625 18.6875 L 7.5 18.6875 L 7.5 22.03125 L 4.15625 22.03125 L 4.15625 18.6875 z M 7.78125 18.6875 L 11.125 18.6875 L 11.125 22.03125 L 7.78125 22.03125 L 7.78125 18.6875 z M 11.40625 18.6875 L 14.78125 18.6875 L 14.78125 22.03125 L 11.40625 22.03125 L 11.40625 18.6875 z M 15.0625 18.6875 L 18.40625 18.6875 L 18.40625 22.03125 L 15.0625 22.03125 L 15.0625 18.6875 z M 18.6875 18.6875 L 22.03125 18.6875 L 22.03125 22.03125 L 18.6875 22.03125 L 18.6875 18.6875 z M 22.3125 18.6875 L 25.6875 18.6875 L 25.6875 22.03125 L 22.3125 22.03125 L 22.3125 18.6875 z M 25.96875 18.6875 L 29.3125 18.6875 L 29.3125 22.03125 L 25.96875 22.03125 L 25.96875 18.6875 z M 29.59375 18.6875 L 32.9375 18.6875 L 32.9375 22.03125 L 29.59375 22.03125 L 29.59375 18.6875 z M 33.21875 18.6875 L 36.59375 18.6875 L 36.59375 22.03125 L 33.21875 22.03125 L 33.21875 18.6875 z M 36.875 18.6875 L 40.21875 18.6875 L 40.21875 22.03125 L 36.875 22.03125 L 36.875 18.6875 z M 40.5 18.6875 L 43.84375 18.6875 L 43.84375 22.03125 L 40.5 22.03125 L 40.5 18.6875 z M 4.15625 22.3125 L 7.5 22.3125 L 7.5 25.6875 L 4.15625 25.6875 L 4.15625 22.3125 z M 7.78125 22.3125 L 11.125 22.3125 L 11.125 25.6875 L 7.78125 25.6875 L 7.78125 22.3125 z M 11.40625 22.3125 L 14.78125 22.3125 L 14.78125 25.6875 L 11.40625 25.6875 L 11.40625 22.3125 z M 15.0625 22.3125 L 18.40625 22.3125 L 18.40625 25.6875 L 15.0625 25.6875 L 15.0625 22.3125 z M 18.6875 22.3125 L 22.03125 22.3125 L 22.03125 25.6875 L 18.6875 25.6875 L 18.6875 22.3125 z M 22.3125 22.3125 L 25.6875 22.3125 L 25.6875 25.6875 L 22.3125 25.6875 L 22.3125 22.3125 z M 25.96875 22.3125 L 29.3125 22.3125 L 29.3125 25.6875 L 25.96875 25.6875 L 25.96875 22.3125 z M 29.59375 22.3125 L 32.9375 22.3125 L 32.9375 25.6875 L 29.59375 25.6875 L 29.59375 22.3125 z M 33.21875 22.3125 L 36.59375 22.3125 L 36.59375 25.6875 L 33.21875 25.6875 L 33.21875 22.3125 z M 36.875 22.3125 L 40.21875 22.3125 L 40.21875 25.6875 L 36.875 25.6875 L 36.875 22.3125 z M 40.5 22.3125 L 43.84375 22.3125 L 43.84375 25.6875 L 40.5 25.6875 L 40.5 22.3125 z M 4.15625 25.96875 L 7.5 25.96875 L 7.5 29.3125 L 4.15625 29.3125 L 4.15625 25.96875 z M 7.78125 25.96875 L 11.125 25.96875 L 11.125 29.3125 L 7.78125 29.3125 L 7.78125 25.96875 z M 11.40625 25.96875 L 14.78125 25.96875 L 14.78125 29.3125 L 11.40625 29.3125 L 11.40625 25.96875 z M 15.0625 25.96875 L 18.40625 25.96875 L 18.40625 29.3125 L 15.0625 29.3125 L 15.0625 25.96875 z M 18.6875 25.96875 L 22.03125 25.96875 L 22.03125 29.3125 L 18.6875 29.3125 L 18.6875 25.96875 z M 22.3125 25.96875 L 25.6875 25.96875 L 25.6875 29.3125 L 22.3125 29.3125 L 22.3125 25.96875 z M 25.96875 25.96875 L 29.3125 25.96875 L 29.3125 29.3125 L 25.96875 29.3125 L 25.96875 25.96875 z M 29.59375 25.96875 L 32.9375 25.96875 L 32.9375 29.3125 L 29.59375 29.3125 L 29.59375 25.96875 z M 33.21875 25.96875 L 36.59375 25.96875 L 36.59375 29.3125 L 33.21875 29.3125 L 33.21875 25.96875 z M 36.875 25.96875 L 40.21875 25.96875 L 40.21875 29.3125 L 36.875 29.3125 L 36.875 25.96875 z M 40.5 25.96875 L 43.84375 25.96875 L 43.84375 29.3125 L 40.5 29.3125 L 40.5 25.96875 z M 4.15625 29.59375 L 7.5 29.59375 L 7.5 32.9375 L 4.15625 32.9375 L 4.15625 29.59375 z M 7.78125 29.59375 L 11.125 29.59375 L 11.125 32.9375 L 7.78125 32.9375 L 7.78125 29.59375 z M 11.40625 29.59375 L 14.78125 29.59375 L 14.78125 32.9375 L 11.40625 32.9375 L 11.40625 29.59375 z M 15.0625 29.59375 L 18.40625 29.59375 L 18.40625 32.9375 L 15.0625 32.9375 L 15.0625 29.59375 z M 18.6875 29.59375 L 22.03125 29.59375 L 22.03125 32.9375 L 18.6875 32.9375 L 18.6875 29.59375 z M 22.3125 29.59375 L 25.6875 29.59375 L 25.6875 32.9375 L 22.3125 32.9375 L 22.3125 29.59375 z M 25.96875 29.59375 L 29.3125 29.59375 L 29.3125 32.9375 L 25.96875 32.9375 L 25.96875 29.59375 z M 29.59375 29.59375 L 32.9375 29.59375 L 32.9375 32.9375 L 29.59375 32.9375 L 29.59375 29.59375 z M 33.21875 29.59375 L 36.59375 29.59375 L 36.59375 32.9375 L 33.21875 32.9375 L 33.21875 29.59375 z M 36.875 29.59375 L 40.21875 29.59375 L 40.21875 32.9375 L 36.875 32.9375 L 36.875 29.59375 z M 40.5 29.59375 L 43.84375 29.59375 L 43.84375 32.9375 L 40.5 32.9375 L 40.5 29.59375 z M 4.15625 33.21875 L 7.5 33.21875 L 7.5 36.59375 L 4.15625 36.59375 L 4.15625 33.21875 z M 7.78125 33.21875 L 11.125 33.21875 L 11.125 36.59375 L 7.78125 36.59375 L 7.78125 33.21875 z M 11.40625 33.21875 L 14.78125 33.21875 L 14.78125 36.59375 L 11.40625 36.59375 L 11.40625 33.21875 z M 15.0625 33.21875 L 18.40625 33.21875 L 18.40625 36.59375 L 15.0625 36.59375 L 15.0625 33.21875 z M 18.6875 33.21875 L 22.03125 33.21875 L 22.03125 36.59375 L 18.6875 36.59375 L 18.6875 33.21875 z M 22.3125 33.21875 L 25.6875 33.21875 L 25.6875 36.59375 L 22.3125 36.59375 L 22.3125 33.21875 z M 25.96875 33.21875 L 29.3125 33.21875 L 29.3125 36.59375 L 25.96875 36.59375 L 25.96875 33.21875 z M 29.59375 33.21875 L 32.9375 33.21875 L 32.9375 36.59375 L 29.59375 36.59375 L 29.59375 33.21875 z M 33.21875 33.21875 L 36.59375 33.21875 L 36.59375 36.59375 L 33.21875 36.59375 L 33.21875 33.21875 z M 36.875 33.21875 L 40.21875 33.21875 L 40.21875 36.59375 L 36.875 36.59375 L 36.875 33.21875 z M 40.5 33.21875 L 43.84375 33.21875 L 43.84375 36.59375 L 40.5 36.59375 L 40.5 33.21875 z M 4.15625 36.875 L 7.5 36.875 L 7.5 40.21875 L 4.15625 40.21875 L 4.15625 36.875 z M 7.78125 36.875 L 11.125 36.875 L 11.125 40.21875 L 7.78125 40.21875 L 7.78125 36.875 z M 11.40625 36.875 L 14.78125 36.875 L 14.78125 40.21875 L 11.40625 40.21875 L 11.40625 36.875 z M 15.0625 36.875 L 18.40625 36.875 L 18.40625 40.21875 L 15.0625 40.21875 L 15.0625 36.875 z M 18.6875 36.875 L 22.03125 36.875 L 22.03125 40.21875 L 18.6875 40.21875 L 18.6875 36.875 z M 22.3125 36.875 L 25.6875 36.875 L 25.6875 40.21875 L 22.3125 40.21875 L 22.3125 36.875 z M 25.96875 36.875 L 29.3125 36.875 L 29.3125 40.21875 L 25.96875 40.21875 L 25.96875 36.875 z M 29.59375 36.875 L 32.9375 36.875 L 32.9375 40.21875 L 29.59375 40.21875 L 29.59375 36.875 z M 33.21875 36.875 L 36.59375 36.875 L 36.59375 40.21875 L 33.21875 40.21875 L 33.21875 36.875 z M 36.875 36.875 L 40.21875 36.875 L 40.21875 40.21875 L 36.875 40.21875 L 36.875 36.875 z M 40.5 36.875 L 43.84375 36.875 L 43.84375 40.21875 L 40.5 40.21875 L 40.5 36.875 z M 4.15625 40.5 L 7.5 40.5 L 7.5 43.84375 L 4.15625 43.84375 L 4.15625 40.5 z M 7.78125 40.5 L 11.125 40.5 L 11.125 43.84375 L 7.78125 43.84375 L 7.78125 40.5 z M 11.40625 40.5 L 14.78125 40.5 L 14.78125 43.84375 L 11.40625 43.84375 L 11.40625 40.5 z M 15.0625 40.5 L 18.40625 40.5 L 18.40625 43.84375 L 15.0625 43.84375 L 15.0625 40.5 z M 18.6875 40.5 L 22.03125 40.5 L 22.03125 43.84375 L 18.6875 43.84375 L 18.6875 40.5 z M 22.3125 40.5 L 25.6875 40.5 L 25.6875 43.84375 L 22.3125 43.84375 L 22.3125 40.5 z M 25.96875 40.5 L 29.3125 40.5 L 29.3125 43.84375 L 25.96875 43.84375 L 25.96875 40.5 z M 29.59375 40.5 L 32.9375 40.5 L 32.9375 43.84375 L 29.59375 43.84375 L 29.59375 40.5 z M 33.21875 40.5 L 36.59375 40.5 L 36.59375 43.84375 L 33.21875 43.84375 L 33.21875 40.5 z M 36.875 40.5 L 40.21875 40.5 L 40.21875 43.84375 L 36.875 43.84375 L 36.875 40.5 z M 40.5 40.5 L 43.84375 40.5 L 43.84375 43.84375 L 40.5 43.84375 L 40.5 40.5 z "
       transform="translate(661.71429,651.21932)"
       id="rect1146" />
    <path
       inkscape:connector-curvature="0"
       style="fill:#000000;fill-opacity:1;stroke:none"
       d="m 661.7143,696.21932 0,1.0625 c 0,1.0773 0.86022,1.9375 1.9375,1.9375 l 44.125,0 c 1.07728,0 1.9375,-0.8602 1.9375,-1.9375 l 0,-1.0625 c 0,1.0773 -0.86022,1.9375 -1.9375,1.9375 l -44.125,0 C 662.57452,698.15682 661.7143,697.29662 661.7143,696.21932 Z"
       id="rect846-0" />
    <path
       inkscape:connector-curvature="0"
       style="fill:#ffffff;fill-opacity:0.5372549;stroke:none"
       d="m 664.24555,651.87562 c -0.91709,0 -1.67115,0.6395 -1.84375,1.5 0.33561,-0.2799 0.77451,-0.4375 1.25,-0.4375 l 44.125,0 c 0.47549,0 0.91439,0.1576 1.25,0.4375 -0.1726,-0.8605 -0.92666,-1.5 -1.84375,-1.5 L 664.24555,651.87562 Z"
       id="path7515-3" />
    <path
       style="opacity:0.6;color:#000000;fill:url(#linearGradient924);fill-opacity:1;fill-rule:nonzero;stroke:none;stroke-width:1;marker:none;visibility:visible;display:inline;overflow:visible;enable-background:accumulate"
       d="m 685.71343,675.21932 0,22.8438 20.0625,0 c 0.10844,-0.2427 0.1875,-0.4974 0.1875,-0.7813 l 0,-21.5625 c -0.64338,-0.3128 -1.36133,-0.5 -2.125,-0.5 L 685.71343,675.21932 Z"
       id="path6270"
       inkscape:connector-curvature="0" />
    <path
       style="opacity:0.6;color:#000000;fill:url(#linearGradient942);fill-opacity:1;fill-rule:nonzero;stroke:none;stroke-width:1;marker:none;visibility:visible;display:inline;overflow:visible;enable-background:accumulate"
       d="m 665.46343,675.21932 0,22.0625 c 0,0.1012 0.0165,0.1843 0.0312,0.2813 0.63718,0.3053 1.33979,0.5 2.09375,0.5 l 18.125,0 0,-22.8438 L 665.46343,675.21932 Z"
       id="path6274"
       inkscape:connector-curvature="0" />
    <path
       style="opacity:0.6;color:#000000;fill:url(#linearGradient6268);fill-opacity:1;fill-rule:nonzero;stroke:none;stroke-width:1;marker:none;visibility:visible;display:inline;overflow:visible;enable-background:accumulate"
       d="m 667.58843,652.37562 c -0.75396,0 -1.45657,0.1946 -2.09375,0.5 -0.0148,0.097 -0.0312,0.18 -0.0312,0.2812 l 0,22.0625 20.25,0 0,-22.8437 L 667.58843,652.37562 Z"
       id="path6249"
       inkscape:connector-curvature="0" />
    <path
       style="opacity:0.6;color:#000000;fill:url(#linearGradient6280);fill-opacity:1;fill-rule:nonzero;stroke:none;stroke-width:1;marker:none;visibility:visible;display:inline;overflow:visible;enable-background:accumulate"
       d="m 685.71343,652.37562 0,22.8437 20.25,0 0,-22.0625 c 0,-0.1012 -0.0165,-0.1843 -0.0312,-0.2812 -0.63718,-0.3054 -1.33979,-0.5 -2.09375,-0.5 L 685.71343,652.37562 Z"
       id="path6276"
       inkscape:connector-curvature="0" />
  </g>
</svg>
