<?xml version="1.0" encoding="UTF-8" standalone="no"?>
<!-- Created with Inkscape (http://www.inkscape.org/) -->

<svg
   xmlns:dc="http://purl.org/dc/elements/1.1/"
   xmlns:cc="http://creativecommons.org/ns#"
   xmlns:rdf="http://www.w3.org/1999/02/22-rdf-syntax-ns#"
   xmlns:svg="http://www.w3.org/2000/svg"
   xmlns="http://www.w3.org/2000/svg"
   xmlns:xlink="http://www.w3.org/1999/xlink"
   xmlns:sodipodi="http://sodipodi.sourceforge.net/DTD/sodipodi-0.dtd"
   xmlns:inkscape="http://www.inkscape.org/namespaces/inkscape"
   width="48"
   height="48"
   id="svg6391"
   version="1.1"
   inkscape:version="0.48+devel r12269"
   sodipodi:docname="application-x-font-ttf.svg">
  <defs
     id="defs6393">
    <linearGradient
       id="linearGradient900">
      <stop
         style="stop-color:#f2f2f2;stop-opacity:1"
         offset="0"
         id="stop902" />
      <stop
         style="stop-color:#ffffff;stop-opacity:1"
         offset="1"
         id="stop904" />
    </linearGradient>
    <linearGradient
       y2="13.07393"
       x2="11.579766"
       y1="21.890017"
       x1="20.395853"
       gradientTransform="matrix(-1,0,0,1,529.7137,531.2194)"
       gradientUnits="userSpaceOnUse"
       id="linearGradient6280"
       xlink:href="#linearGradient6288"
       inkscape:collect="always" />
    <linearGradient
       inkscape:collect="always"
       id="linearGradient6288">
      <stop
         style="stop-color:#000000;stop-opacity:0.13080169"
         offset="0"
         id="stop6290" />
      <stop
         style="stop-color:#ffffff;stop-opacity:0;"
         offset="1"
         id="stop6292" />
    </linearGradient>
    <linearGradient
       gradientUnits="userSpaceOnUse"
       y2="13.07393"
       x2="11.019455"
       y1="13.07393"
       x1="23.533073"
       id="linearGradient6268"
       xlink:href="#linearGradient6262"
       inkscape:collect="always"
       gradientTransform="translate(481.7137,531.2194)" />
    <linearGradient
       id="linearGradient6262"
       inkscape:collect="always">
      <stop
         id="stop6264"
         offset="0"
         style="stop-color:#ffffff;stop-opacity:0.25738397" />
      <stop
         id="stop6266"
         offset="1"
         style="stop-color:#ffffff;stop-opacity:0;" />
    </linearGradient>
    <linearGradient
       inkscape:collect="always"
       xlink:href="#linearGradient6282"
       id="linearGradient942"
       gradientUnits="userSpaceOnUse"
       gradientTransform="matrix(1,0,0,-1,481.7137,579.2194)"
       x1="17.60643"
       y1="19.660906"
       x2="11.019455"
       y2="13.07393" />
    <linearGradient
       inkscape:collect="always"
       id="linearGradient6282">
      <stop
         style="stop-color:#000000;stop-opacity:0.10970464"
         offset="0"
         id="stop6284" />
      <stop
         style="stop-color:#ffffff;stop-opacity:0;"
         offset="1"
         id="stop6286" />
    </linearGradient>
    <linearGradient
       inkscape:collect="always"
       xlink:href="#linearGradient6262"
       id="linearGradient924"
       gradientUnits="userSpaceOnUse"
       gradientTransform="matrix(-1,0,0,1,529.7137,554.0631)"
       x1="23.533073"
       y1="13.07393"
       x2="11.579766"
       y2="13.07393" />
    <linearGradient
       y2="-1001.0899"
       x2="92.14286"
       y1="-1049.092"
       x1="92.14286"
       gradientTransform="translate(416.82085,469.86881)"
       gradientUnits="userSpaceOnUse"
       id="linearGradient1003"
       xlink:href="#linearGradient900"
       inkscape:collect="always" />
  </defs>
  <sodipodi:namedview
     id="base"
     pagecolor="#ffffff"
     bordercolor="#666666"
     borderopacity="1.0"
     inkscape:pageopacity="0.0"
     inkscape:pageshadow="2"
     inkscape:zoom="2.8284271"
     inkscape:cx="-50.873229"
     inkscape:cy="32.30125"
     inkscape:document-units="px"
     inkscape:current-layer="layer1"
     showgrid="false"
     fit-margin-top="0"
     fit-margin-left="0"
     fit-margin-right="0"
     fit-margin-bottom="0"
     inkscape:window-width="1366"
     inkscape:window-height="716"
     inkscape:window-x="0"
     inkscape:window-y="28"
     inkscape:window-maximized="1"
     showguides="true"
     inkscape:guide-bbox="true" />
  <metadata
     id="metadata6396">
    <rdf:RDF>
      <cc:Work
         rdf:about="">
        <dc:format>image/svg+xml</dc:format>
        <dc:type
           rdf:resource="http://purl.org/dc/dcmitype/StillImage" />
        <dc:title />
      </cc:Work>
    </rdf:RDF>
  </metadata>
  <g
     inkscape:label="Capa 1"
     inkscape:groupmode="layer"
     id="layer1"
     transform="translate(-481.71429,-531.2193)">
    <rect
       style="fill:url(#linearGradient1003);fill-opacity:1;stroke:none"
       id="rect2991-1-7-3"
       width="48"
       height="48"
       x="481.71429"
       y="-579.2193"
       ry="1.9445436"
       transform="scale(1,-1)" />
    <path
       style="font-size:40px;font-style:normal;font-weight:normal;line-height:125%;letter-spacing:0px;word-spacing:0px;fill:#322e5f;fill-opacity:1;stroke:none;font-family:sans-serif"
       d="m 499.40179,543.0318 0,24.375 2.96875,0 0,-10.84375 9.34375,0 0,-2.5 -9.34375,0 0,-8.5 9.35156,0 L 511.7221,543.0318 Z"
       id="path911"
       inkscape:connector-curvature="0"
       sodipodi:nodetypes="ccccccccccc" />
    <path
       style="fill:#ff5555;fill-opacity:0.39215687"
       d="m 511.42523,541.3443 0,1.40625 0,0.5625 0.5625,0 1.40625,0 0,-0.5625 -1.40625,0 0,-1.40625 L 511.42523,541.3443 Z"
       id="rect851"
       inkscape:connector-curvature="0" />
    <path
       inkscape:connector-curvature="0"
       style="fill:#ff5555;fill-opacity:0.39215687"
       d="m 493.65179,567.4068 0,0.625 5.03125,0 0,5.3125 0.71875,0 0,-5.3125 0,-0.625 -0.71875,0 L 493.65179,567.4068 Z"
       id="rect856" />
    <path
       inkscape:connector-curvature="0"
       id="path860"
       d="m 511.42523,547.31305 0,-1.40625 0,-0.5625 0.5625,0 1.40625,0 0,0.5625 -1.40625,0 0,1.40625 L 511.42523,547.31305 Z"
       style="fill:#ff5555;fill-opacity:0.39215687" />
    <path
       id="path863"
       d="m 508.11864,567.4068 0,0.625 -5.03125,0 0,5.3125 -0.71875,0 0,-5.3125 0,-0.625 0.71875,0 L 508.11864,567.4068 Z"
       style="fill:#ff5555;fill-opacity:0.39215687"
       inkscape:connector-curvature="0" />
    <path
       inkscape:connector-curvature="0"
       id="path865"
       d="m 499.39398,541.3443 0,1.40625 0,0.5625 -0.5625,0 -1.40625,0 0,-0.5625 1.40625,0 0,-1.40625 L 499.39398,541.3443 Z"
       style="fill:#ff5555;fill-opacity:0.39215687" />
    <path
       style="fill:#ff5555;fill-opacity:0.39215687"
       d="m 499.39398,547.31305 0,-1.40625 0,-0.5625 -0.5625,0 -1.40625,0 0,0.5625 1.40625,0 0,1.40625 L 499.39398,547.31305 Z"
       id="path867"
       inkscape:connector-curvature="0" />
    <path
       inkscape:connector-curvature="0"
       style="fill:#ff5555;fill-opacity:0.39215687"
       d="m 505.71429,548.81305 c -3.53932,0 -6.40625,2.86693 -6.40625,6.40625 0,3.53932 2.86693,6.40625 6.40625,6.40625 3.53932,0 6.40625,-2.86693 6.40625,-6.40625 C 512.12054,551.67998 509.25361,548.81305 505.71429,548.81305 z m 0,0.84375 c 3.07213,0 5.5625,2.49037 5.5625,5.5625 0,3.07216 -2.49037,5.5625 -5.5625,5.5625 -3.07215,0 -5.5625,-2.49035 -5.5625,-5.5625 C 500.15179,552.14718 502.64215,549.6568 505.71429,549.6568 Z"
       id="path873" />
    <path
       inkscape:connector-curvature="0"
       style="fill:#ff5555;fill-opacity:0.39215687"
       d="m 496.74554,555.18805 c -1.65621,0 -3,1.34379 -3,3 0,1.65621 1.34379,2.96875 3,2.96875 1.65621,0 3,-1.31254 3,-2.96875 C 499.74554,556.53184 498.40175,555.18805 496.74554,555.18805 z m 0,0.375 c 1.44013,0 2.625,1.18487 2.625,2.625 0,1.44014 -1.18487,2.59375 -2.625,2.59375 -1.44014,0 -2.59375,-1.15361 -2.59375,-2.59375 C 494.15179,556.74793 495.3054,555.56305 496.74554,555.56305 Z"
       id="path881" />
    <path
       inkscape:connector-curvature="0"
       style="fill:#ff5555;fill-opacity:0.39215687"
       d="m 509.71429,545.2193 c -5.5248,0 -10,4.4752 -10,10 0,5.5248 4.4752,10 10,10 5.5248,0 10,-4.4752 10,-10 C 519.71429,549.6945 515.23909,545.2193 509.71429,545.2193 z m 0,1 c 4.97232,0 9,4.02768 9,9 0,4.97232 -4.02768,9 -9,9 -4.97232,0 -9,-4.02768 -9,-9 C 500.71429,550.24698 504.74197,546.2193 509.71429,546.2193 Z"
       id="path889" />
    <path
       style="fill:#000000;fill-opacity:0.19607843"
       d="M 5.875 0 L 5.875 5.4375 C 5.6580323 5.4896993 5.4896993 5.6580323 5.4375 5.875 L 0 5.875 L 0 6.125 L 5.4375 6.125 C 5.4896993 6.3419677 5.6580323 6.5103007 5.875 6.5625 L 5.875 11.4375 C 5.6580323 11.489699 5.4896993 11.658032 5.4375 11.875 L 0 11.875 L 0 12.125 L 5.4375 12.125 C 5.4896993 12.341968 5.6580323 12.510301 5.875 12.5625 L 5.875 17.4375 C 5.6580323 17.489699 5.4896993 17.658032 5.4375 17.875 L 0 17.875 L 0 18.125 L 5.4375 18.125 C 5.4896993 18.341968 5.6580323 18.510301 5.875 18.5625 L 5.875 23.4375 C 5.6580323 23.489699 5.4896993 23.658032 5.4375 23.875 L 0 23.875 L 0 24.125 L 5.4375 24.125 C 5.4896993 24.341968 5.6580323 24.510301 5.875 24.5625 L 5.875 29.4375 C 5.6580323 29.489699 5.4896993 29.658032 5.4375 29.875 L 0 29.875 L 0 30.125 L 5.4375 30.125 C 5.4896993 30.341968 5.6580323 30.510301 5.875 30.5625 L 5.875 35.4375 C 5.6580323 35.489699 5.4896993 35.658032 5.4375 35.875 L 0 35.875 L 0 36.125 L 5.4375 36.125 C 5.4896993 36.341968 5.6580323 36.510301 5.875 36.5625 L 5.875 41.4375 C 5.6580323 41.489699 5.4896993 41.658032 5.4375 41.875 L 0 41.875 L 0 42.125 L 5.4375 42.125 C 5.4896993 42.341968 5.6580323 42.510301 5.875 42.5625 L 5.875 48 L 6.125 48 L 6.125 42.5625 C 6.3419677 42.510301 6.5103007 42.341968 6.5625 42.125 L 11.4375 42.125 C 11.489699 42.341968 11.658032 42.510301 11.875 42.5625 L 11.875 48 L 12.125 48 L 12.125 42.5625 C 12.341968 42.510301 12.510301 42.341968 12.5625 42.125 L 17.4375 42.125 C 17.489699 42.341968 17.658032 42.510301 17.875 42.5625 L 17.875 48 L 18.125 48 L 18.125 42.5625 C 18.341968 42.510301 18.510301 42.341968 18.5625 42.125 L 23.4375 42.125 C 23.489699 42.341968 23.658032 42.510301 23.875 42.5625 L 23.875 48 L 24.125 48 L 24.125 42.5625 C 24.341968 42.510301 24.510301 42.341968 24.5625 42.125 L 29.4375 42.125 C 29.489699 42.341968 29.658032 42.510301 29.875 42.5625 L 29.875 48 L 30.125 48 L 30.125 42.5625 C 30.341968 42.510301 30.510301 42.341968 30.5625 42.125 L 35.4375 42.125 C 35.489699 42.341968 35.658032 42.510301 35.875 42.5625 L 35.875 48 L 36.125 48 L 36.125 42.5625 C 36.341968 42.510301 36.510301 42.341968 36.5625 42.125 L 41.4375 42.125 C 41.489699 42.341968 41.658032 42.510301 41.875 42.5625 L 41.875 48 L 42.125 48 L 42.125 42.5625 C 42.341968 42.510301 42.510301 42.341968 42.5625 42.125 L 48 42.125 L 48 41.875 L 42.5625 41.875 C 42.510301 41.658032 42.341968 41.489699 42.125 41.4375 L 42.125 36.5625 C 42.341968 36.510301 42.510301 36.341968 42.5625 36.125 L 48 36.125 L 48 35.875 L 42.5625 35.875 C 42.510301 35.658032 42.341968 35.489699 42.125 35.4375 L 42.125 30.5625 C 42.341968 30.510301 42.510301 30.341968 42.5625 30.125 L 48 30.125 L 48 29.875 L 42.5625 29.875 C 42.510301 29.658032 42.341968 29.489699 42.125 29.4375 L 42.125 24.5625 C 42.341968 24.510301 42.510301 24.341968 42.5625 24.125 L 48 24.125 L 48 23.875 L 42.5625 23.875 C 42.510301 23.658032 42.341968 23.489699 42.125 23.4375 L 42.125 18.5625 C 42.341968 18.510301 42.510301 18.341968 42.5625 18.125 L 48 18.125 L 48 17.875 L 42.5625 17.875 C 42.510301 17.658032 42.341968 17.489699 42.125 17.4375 L 42.125 12.5625 C 42.341968 12.510301 42.510301 12.341968 42.5625 12.125 L 48 12.125 L 48 11.875 L 42.5625 11.875 C 42.510301 11.658032 42.341968 11.489699 42.125 11.4375 L 42.125 6.5625 C 42.341968 6.5103007 42.510301 6.3419677 42.5625 6.125 L 48 6.125 L 48 5.875 L 42.5625 5.875 C 42.510301 5.6580323 42.341968 5.4896993 42.125 5.4375 L 42.125 0 L 41.875 0 L 41.875 5.4375 C 41.658032 5.4896993 41.489699 5.6580323 41.4375 5.875 L 36.5625 5.875 C 36.510301 5.6580323 36.341968 5.4896993 36.125 5.4375 L 36.125 0 L 35.875 0 L 35.875 5.4375 C 35.658032 5.4896993 35.489699 5.6580323 35.4375 5.875 L 30.5625 5.875 C 30.510301 5.6580323 30.341968 5.4896993 30.125 5.4375 L 30.125 0 L 29.875 0 L 29.875 5.4375 C 29.658032 5.4896993 29.489699 5.6580323 29.4375 5.875 L 24.5625 5.875 C 24.510301 5.6580323 24.341968 5.4896993 24.125 5.4375 L 24.125 0 L 23.875 0 L 23.875 5.4375 C 23.658032 5.4896993 23.489699 5.6580323 23.4375 5.875 L 18.5625 5.875 C 18.510301 5.6580323 18.341968 5.4896993 18.125 5.4375 L 18.125 0 L 17.875 0 L 17.875 5.4375 C 17.658032 5.4896993 17.489699 5.6580323 17.4375 5.875 L 12.5625 5.875 C 12.510301 5.6580323 12.341968 5.4896993 12.125 5.4375 L 12.125 0 L 11.875 0 L 11.875 5.4375 C 11.658032 5.4896993 11.489699 5.6580323 11.4375 5.875 L 6.5625 5.875 C 6.5103007 5.6580323 6.3419677 5.4896993 6.125 5.4375 L 6.125 0 L 5.875 0 z M 6.5625 6.125 L 11.4375 6.125 C 11.489699 6.3419677 11.658032 6.5103007 11.875 6.5625 L 11.875 11.4375 C 11.658032 11.489699 11.489699 11.658032 11.4375 11.875 L 6.5625 11.875 C 6.5103007 11.658032 6.3419677 11.489699 6.125 11.4375 L 6.125 6.5625 C 6.3419677 6.5103007 6.5103007 6.3419677 6.5625 6.125 z M 12.5625 6.125 L 17.4375 6.125 C 17.489699 6.3419677 17.658032 6.5103007 17.875 6.5625 L 17.875 11.4375 C 17.658032 11.489699 17.489699 11.658032 17.4375 11.875 L 12.5625 11.875 C 12.510301 11.658032 12.341968 11.489699 12.125 11.4375 L 12.125 6.5625 C 12.341968 6.5103007 12.510301 6.3419677 12.5625 6.125 z M 18.5625 6.125 L 23.4375 6.125 C 23.489699 6.3419677 23.658032 6.5103007 23.875 6.5625 L 23.875 11.4375 C 23.658032 11.489699 23.489699 11.658032 23.4375 11.875 L 18.5625 11.875 C 18.510301 11.658032 18.341968 11.489699 18.125 11.4375 L 18.125 6.5625 C 18.341968 6.5103007 18.510301 6.3419677 18.5625 6.125 z M 24.5625 6.125 L 29.4375 6.125 C 29.489699 6.3419677 29.658032 6.5103007 29.875 6.5625 L 29.875 11.4375 C 29.658032 11.489699 29.489699 11.658032 29.4375 11.875 L 24.5625 11.875 C 24.510301 11.658032 24.341968 11.489699 24.125 11.4375 L 24.125 6.5625 C 24.341968 6.5103007 24.510301 6.3419677 24.5625 6.125 z M 30.5625 6.125 L 35.4375 6.125 C 35.489699 6.3419677 35.658032 6.5103007 35.875 6.5625 L 35.875 11.4375 C 35.658032 11.489699 35.489699 11.658032 35.4375 11.875 L 30.5625 11.875 C 30.510301 11.658032 30.341968 11.489699 30.125 11.4375 L 30.125 6.5625 C 30.341968 6.5103007 30.510301 6.3419677 30.5625 6.125 z M 36.5625 6.125 L 41.4375 6.125 C 41.489699 6.3419677 41.658032 6.5103007 41.875 6.5625 L 41.875 11.4375 C 41.658032 11.489699 41.489699 11.658032 41.4375 11.875 L 36.5625 11.875 C 36.510301 11.658032 36.341968 11.489699 36.125 11.4375 L 36.125 6.5625 C 36.341968 6.5103007 36.510301 6.3419677 36.5625 6.125 z M 6.5625 12.125 L 11.4375 12.125 C 11.489699 12.341968 11.658032 12.510301 11.875 12.5625 L 11.875 17.4375 C 11.658032 17.489699 11.489699 17.658032 11.4375 17.875 L 6.5625 17.875 C 6.5103007 17.658032 6.3419677 17.489699 6.125 17.4375 L 6.125 12.5625 C 6.3419677 12.510301 6.5103007 12.341968 6.5625 12.125 z M 12.5625 12.125 L 17.4375 12.125 C 17.489699 12.341968 17.658032 12.510301 17.875 12.5625 L 17.875 17.4375 C 17.658032 17.489699 17.489699 17.658032 17.4375 17.875 L 12.5625 17.875 C 12.510301 17.658032 12.341968 17.489699 12.125 17.4375 L 12.125 12.5625 C 12.341968 12.510301 12.510301 12.341968 12.5625 12.125 z M 18.5625 12.125 L 23.4375 12.125 C 23.489699 12.341968 23.658032 12.510301 23.875 12.5625 L 23.875 17.4375 C 23.658032 17.489699 23.489699 17.658032 23.4375 17.875 L 18.5625 17.875 C 18.510301 17.658032 18.341968 17.489699 18.125 17.4375 L 18.125 12.5625 C 18.341968 12.510301 18.510301 12.341968 18.5625 12.125 z M 24.5625 12.125 L 29.4375 12.125 C 29.489699 12.341968 29.658032 12.510301 29.875 12.5625 L 29.875 17.4375 C 29.658032 17.489699 29.489699 17.658032 29.4375 17.875 L 24.5625 17.875 C 24.510301 17.658032 24.341968 17.489699 24.125 17.4375 L 24.125 12.5625 C 24.341968 12.510301 24.510301 12.341968 24.5625 12.125 z M 30.5625 12.125 L 35.4375 12.125 C 35.489699 12.341968 35.658032 12.510301 35.875 12.5625 L 35.875 17.4375 C 35.658032 17.489699 35.489699 17.658032 35.4375 17.875 L 30.5625 17.875 C 30.510301 17.658032 30.341968 17.489699 30.125 17.4375 L 30.125 12.5625 C 30.341968 12.510301 30.510301 12.341968 30.5625 12.125 z M 36.5625 12.125 L 41.4375 12.125 C 41.489699 12.341968 41.658032 12.510301 41.875 12.5625 L 41.875 17.4375 C 41.658032 17.489699 41.489699 17.658032 41.4375 17.875 L 36.5625 17.875 C 36.510301 17.658032 36.341968 17.489699 36.125 17.4375 L 36.125 12.5625 C 36.341968 12.510301 36.510301 12.341968 36.5625 12.125 z M 6.5625 18.125 L 11.4375 18.125 C 11.489699 18.341968 11.658032 18.510301 11.875 18.5625 L 11.875 23.4375 C 11.844047 23.448647 11.811381 23.456005 11.78125 23.46875 C 11.608137 23.541971 11.481338 23.687608 11.4375 23.875 L 6.5625 23.875 C 6.5103007 23.658032 6.3419677 23.489699 6.125 23.4375 L 6.125 18.5625 C 6.3419677 18.510301 6.5103007 18.341968 6.5625 18.125 z M 12.5625 18.125 L 17.4375 18.125 C 17.489699 18.341968 17.658032 18.510301 17.875 18.5625 L 17.875 23.4375 C 17.844047 23.448647 17.811381 23.456005 17.78125 23.46875 C 17.608137 23.541971 17.481338 23.687608 17.4375 23.875 L 12.5625 23.875 C 12.510301 23.658032 12.341968 23.489699 12.125 23.4375 L 12.125 18.5625 C 12.341968 18.510301 12.510301 18.341968 12.5625 18.125 z M 18.5625 18.125 L 23.4375 18.125 C 23.489699 18.341968 23.658032 18.510301 23.875 18.5625 L 23.875 23.4375 C 23.844047 23.448647 23.811381 23.456005 23.78125 23.46875 C 23.608137 23.541971 23.481338 23.687608 23.4375 23.875 L 18.5625 23.875 C 18.510301 23.658032 18.341968 23.489699 18.125 23.4375 L 18.125 18.5625 C 18.341968 18.510301 18.510301 18.341968 18.5625 18.125 z M 24.5625 18.125 L 29.4375 18.125 C 29.489699 18.341968 29.658032 18.510301 29.875 18.5625 L 29.875 23.4375 C 29.844047 23.448647 29.811381 23.456005 29.78125 23.46875 C 29.608137 23.541971 29.481338 23.687608 29.4375 23.875 L 24.5625 23.875 C 24.510301 23.658032 24.341968 23.489699 24.125 23.4375 L 24.125 18.5625 C 24.341968 18.510301 24.510301 18.341968 24.5625 18.125 z M 30.5625 18.125 L 35.4375 18.125 C 35.489699 18.341968 35.658032 18.510301 35.875 18.5625 L 35.875 23.4375 C 35.844047 23.448647 35.811381 23.456005 35.78125 23.46875 C 35.608137 23.541971 35.481338 23.687608 35.4375 23.875 L 30.5625 23.875 C 30.510301 23.658032 30.341968 23.489699 30.125 23.4375 L 30.125 18.5625 C 30.341968 18.510301 30.510301 18.341968 30.5625 18.125 z M 36.5625 18.125 L 41.4375 18.125 C 41.489699 18.341968 41.658032 18.510301 41.875 18.5625 L 41.875 23.4375 C 41.844047 23.448647 41.811381 23.456005 41.78125 23.46875 C 41.608137 23.541971 41.481338 23.687608 41.4375 23.875 L 36.5625 23.875 C 36.510301 23.658032 36.341968 23.489699 36.125 23.4375 L 36.125 18.5625 C 36.341968 18.510301 36.510301 18.341968 36.5625 18.125 z M 6.5625 24.125 L 11.4375 24.125 C 11.489699 24.341968 11.658032 24.510301 11.875 24.5625 L 11.875 29.4375 C 11.658032 29.489699 11.489699 29.658032 11.4375 29.875 L 6.5625 29.875 C 6.5103007 29.658032 6.3419677 29.489699 6.125 29.4375 L 6.125 24.5625 C 6.3419677 24.510301 6.5103007 24.341968 6.5625 24.125 z M 12.5625 24.125 L 17.4375 24.125 C 17.489699 24.341968 17.658032 24.510301 17.875 24.5625 L 17.875 29.4375 C 17.658032 29.489699 17.489699 29.658032 17.4375 29.875 L 12.5625 29.875 C 12.510301 29.658032 12.341968 29.489699 12.125 29.4375 L 12.125 24.5625 C 12.341968 24.510301 12.510301 24.341968 12.5625 24.125 z M 18.5625 24.125 L 23.4375 24.125 C 23.489699 24.341968 23.658032 24.510301 23.875 24.5625 L 23.875 29.4375 C 23.658032 29.489699 23.489699 29.658032 23.4375 29.875 L 18.5625 29.875 C 18.510301 29.658032 18.341968 29.489699 18.125 29.4375 L 18.125 24.5625 C 18.341968 24.510301 18.510301 24.341968 18.5625 24.125 z M 24.5625 24.125 L 29.4375 24.125 C 29.489699 24.341968 29.658032 24.510301 29.875 24.5625 L 29.875 29.4375 C 29.658032 29.489699 29.489699 29.658032 29.4375 29.875 L 24.5625 29.875 C 24.510301 29.658032 24.341968 29.489699 24.125 29.4375 L 24.125 24.5625 C 24.341968 24.510301 24.510301 24.341968 24.5625 24.125 z M 30.5625 24.125 L 35.4375 24.125 C 35.489699 24.341968 35.658032 24.510301 35.875 24.5625 L 35.875 29.4375 C 35.658032 29.489699 35.489699 29.658032 35.4375 29.875 L 30.5625 29.875 C 30.510301 29.658032 30.341968 29.489699 30.125 29.4375 L 30.125 24.5625 C 30.341968 24.510301 30.510301 24.341968 30.5625 24.125 z M 36.5625 24.125 L 41.4375 24.125 C 41.489699 24.341968 41.658032 24.510301 41.875 24.5625 L 41.875 29.4375 C 41.658032 29.489699 41.489699 29.658032 41.4375 29.875 L 36.5625 29.875 C 36.510301 29.658032 36.341968 29.489699 36.125 29.4375 L 36.125 24.5625 C 36.341968 24.510301 36.510301 24.341968 36.5625 24.125 z M 6.5625 30.125 L 11.4375 30.125 C 11.489699 30.341968 11.658032 30.510301 11.875 30.5625 L 11.875 35.4375 C 11.658032 35.489699 11.489699 35.658032 11.4375 35.875 L 6.5625 35.875 C 6.5103007 35.658032 6.3419677 35.489699 6.125 35.4375 L 6.125 30.5625 C 6.3419677 30.510301 6.5103007 30.341968 6.5625 30.125 z M 12.5625 30.125 L 17.4375 30.125 C 17.489699 30.341968 17.658032 30.510301 17.875 30.5625 L 17.875 35.4375 C 17.658032 35.489699 17.489699 35.658032 17.4375 35.875 L 12.5625 35.875 C 12.510301 35.658032 12.341968 35.489699 12.125 35.4375 L 12.125 30.5625 C 12.341968 30.510301 12.510301 30.341968 12.5625 30.125 z M 18.5625 30.125 L 23.4375 30.125 C 23.489699 30.341968 23.658032 30.510301 23.875 30.5625 L 23.875 35.4375 C 23.658032 35.489699 23.489699 35.658032 23.4375 35.875 L 18.5625 35.875 C 18.510301 35.658032 18.341968 35.489699 18.125 35.4375 L 18.125 30.5625 C 18.341968 30.510301 18.510301 30.341968 18.5625 30.125 z M 24.5625 30.125 L 29.4375 30.125 C 29.489699 30.341968 29.658032 30.510301 29.875 30.5625 L 29.875 35.4375 C 29.658032 35.489699 29.489699 35.658032 29.4375 35.875 L 24.5625 35.875 C 24.510301 35.658032 24.341968 35.489699 24.125 35.4375 L 24.125 30.5625 C 24.341968 30.510301 24.510301 30.341968 24.5625 30.125 z M 30.5625 30.125 L 35.4375 30.125 C 35.489699 30.341968 35.658032 30.510301 35.875 30.5625 L 35.875 35.4375 C 35.658032 35.489699 35.489699 35.658032 35.4375 35.875 L 30.5625 35.875 C 30.510301 35.658032 30.341968 35.489699 30.125 35.4375 L 30.125 30.5625 C 30.341968 30.510301 30.510301 30.341968 30.5625 30.125 z M 36.5625 30.125 L 41.4375 30.125 C 41.489699 30.341968 41.658032 30.510301 41.875 30.5625 L 41.875 35.4375 C 41.658032 35.489699 41.489699 35.658032 41.4375 35.875 L 36.5625 35.875 C 36.510301 35.658032 36.341968 35.489699 36.125 35.4375 L 36.125 30.5625 C 36.341968 30.510301 36.510301 30.341968 36.5625 30.125 z M 6.5625 36.125 L 11.4375 36.125 C 11.489699 36.341968 11.658032 36.510301 11.875 36.5625 L 11.875 41.4375 C 11.658032 41.489699 11.489699 41.658032 11.4375 41.875 L 6.5625 41.875 C 6.5103007 41.658032 6.3419677 41.489699 6.125 41.4375 L 6.125 36.5625 C 6.3419677 36.510301 6.5103007 36.341968 6.5625 36.125 z M 12.5625 36.125 L 17.4375 36.125 C 17.489699 36.341968 17.658032 36.510301 17.875 36.5625 L 17.875 41.4375 C 17.658032 41.489699 17.489699 41.658032 17.4375 41.875 L 12.5625 41.875 C 12.510301 41.658032 12.341968 41.489699 12.125 41.4375 L 12.125 36.5625 C 12.341968 36.510301 12.510301 36.341968 12.5625 36.125 z M 18.5625 36.125 L 23.4375 36.125 C 23.489699 36.341968 23.658032 36.510301 23.875 36.5625 L 23.875 41.4375 C 23.658032 41.489699 23.489699 41.658032 23.4375 41.875 L 18.5625 41.875 C 18.510301 41.658032 18.341968 41.489699 18.125 41.4375 L 18.125 36.5625 C 18.341968 36.510301 18.510301 36.341968 18.5625 36.125 z M 24.5625 36.125 L 29.4375 36.125 C 29.489699 36.341968 29.658032 36.510301 29.875 36.5625 L 29.875 41.4375 C 29.658032 41.489699 29.489699 41.658032 29.4375 41.875 L 24.5625 41.875 C 24.510301 41.658032 24.341968 41.489699 24.125 41.4375 L 24.125 36.5625 C 24.341968 36.510301 24.510301 36.341968 24.5625 36.125 z M 30.5625 36.125 L 35.4375 36.125 C 35.489699 36.341968 35.658032 36.510301 35.875 36.5625 L 35.875 41.4375 C 35.658032 41.489699 35.489699 41.658032 35.4375 41.875 L 30.5625 41.875 C 30.510301 41.658032 30.341968 41.489699 30.125 41.4375 L 30.125 36.5625 C 30.341968 36.510301 30.510301 36.341968 30.5625 36.125 z M 36.5625 36.125 L 41.4375 36.125 C 41.489699 36.341968 41.658032 36.510301 41.875 36.5625 L 41.875 41.4375 C 41.658032 41.489699 41.489699 41.658032 41.4375 41.875 L 36.5625 41.875 C 36.510301 41.658032 36.341968 41.489699 36.125 41.4375 L 36.125 36.5625 C 36.341968 36.510301 36.510301 36.341968 36.5625 36.125 z "
       id="rect913"
       transform="translate(481.71429,531.2193)" />
    <path
       inkscape:connector-curvature="0"
       style="fill:#000000;fill-opacity:1;stroke:none"
       d="m 481.71427,576.2193 0,1.0625 c 0,1.0773 0.86022,1.9375 1.9375,1.9375 l 44.125,0 c 1.07728,0 1.9375,-0.8602 1.9375,-1.9375 l 0,-1.0625 c 0,1.0773 -0.86022,1.9375 -1.9375,1.9375 l -44.125,0 C 482.57449,578.1568 481.71427,577.2966 481.71427,576.2193 Z"
       id="rect846-0" />
    <path
       inkscape:connector-curvature="0"
       style="fill:#ffffff;fill-opacity:0.5372549;stroke:none"
       d="m 484.24552,531.8756 c -0.91709,0 -1.67115,0.6395 -1.84375,1.5 0.33561,-0.2799 0.77451,-0.4375 1.25,-0.4375 l 44.125,0 c 0.47549,0 0.91439,0.1576 1.25,0.4375 -0.1726,-0.8605 -0.92666,-1.5 -1.84375,-1.5 L 484.24552,531.8756 Z"
       id="path7515-3" />
    <path
       inkscape:connector-curvature="0"
       style="fill:#000000;fill-opacity:0.39215686;stroke:none"
       d="m 483.65177,531.2193 c -1.07728,0 -1.9375,0.8602 -1.9375,1.9375 l 0,43.0625 c 0,0.7934 0.48002,1.449 1.15625,1.75 -0.30934,-0.3333 -0.5,-0.7824 -0.5,-1.2812 l 0,-42.9375 c 0,-1.0482 0.8269,-1.875 1.875,-1.875 l 42.9375,0 c 1.0481,0 1.875,0.8268 1.875,1.875 l 0,42.9375 c 0,0.4988 -0.19066,0.9479 -0.5,1.2812 0.67623,-0.301 1.15625,-0.9566 1.15625,-1.75 l 0,-43.0625 c 0,-1.0773 -0.86022,-1.9375 -1.9375,-1.9375 L 483.65177,531.2193 Z"
       id="rect4280-1" />
    <path
       style="opacity:0.6;color:#000000;fill:url(#linearGradient924);fill-opacity:1;fill-rule:nonzero;stroke:none;stroke-width:1;marker:none;visibility:visible;display:inline;overflow:visible;enable-background:accumulate"
       d="m 505.7134,555.2193 0,22.8438 20.0625,0 c 0.10844,-0.2427 0.1875,-0.4974 0.1875,-0.7813 l 0,-21.5625 c -0.64338,-0.3128 -1.36133,-0.5 -2.125,-0.5 L 505.7134,555.2193 Z"
       id="path6270"
       inkscape:connector-curvature="0" />
    <path
       style="opacity:0.6;color:#000000;fill:url(#linearGradient942);fill-opacity:1;fill-rule:nonzero;stroke:none;stroke-width:1;marker:none;visibility:visible;display:inline;overflow:visible;enable-background:accumulate"
       d="m 485.4634,555.2193 0,22.0625 c 0,0.1012 0.0165,0.1843 0.0312,0.2813 0.63718,0.3053 1.33979,0.5 2.09375,0.5 l 18.125,0 0,-22.8438 L 485.4634,555.2193 Z"
       id="path6274"
       inkscape:connector-curvature="0" />
    <path
       style="opacity:0.6;color:#000000;fill:url(#linearGradient6268);fill-opacity:1;fill-rule:nonzero;stroke:none;stroke-width:1;marker:none;visibility:visible;display:inline;overflow:visible;enable-background:accumulate"
       d="m 487.5884,532.3756 c -0.75396,0 -1.45657,0.1946 -2.09375,0.5 -0.0148,0.097 -0.0312,0.18 -0.0312,0.2812 l 0,22.0625 20.25,0 0,-22.8437 L 487.5884,532.3756 Z"
       id="path6249"
       inkscape:connector-curvature="0" />
    <path
       style="opacity:0.6;color:#000000;fill:url(#linearGradient6280);fill-opacity:1;fill-rule:nonzero;stroke:none;stroke-width:1;marker:none;visibility:visible;display:inline;overflow:visible;enable-background:accumulate"
       d="m 505.7134,532.3756 0,22.8437 20.25,0 0,-22.0625 c 0,-0.1012 -0.0165,-0.1843 -0.0312,-0.2812 -0.63718,-0.3054 -1.33979,-0.5 -2.09375,-0.5 L 505.7134,532.3756 Z"
       id="path6276"
       inkscape:connector-curvature="0" />
  </g>
</svg>
