<?xml version="1.0" encoding="UTF-8" standalone="no"?>
<!-- Created with Inkscape (http://www.inkscape.org/) -->

<svg
   xmlns:dc="http://purl.org/dc/elements/1.1/"
   xmlns:cc="http://creativecommons.org/ns#"
   xmlns:rdf="http://www.w3.org/1999/02/22-rdf-syntax-ns#"
   xmlns:svg="http://www.w3.org/2000/svg"
   xmlns="http://www.w3.org/2000/svg"
   xmlns:xlink="http://www.w3.org/1999/xlink"
   xmlns:sodipodi="http://sodipodi.sourceforge.net/DTD/sodipodi-0.dtd"
   xmlns:inkscape="http://www.inkscape.org/namespaces/inkscape"
   width="48"
   height="48"
   id="svg6391"
   version="1.1"
   inkscape:version="0.48+devel r12272"
   sodipodi:docname="application-x-blender.svg">
  <defs
     id="defs6393">
    <linearGradient
       id="linearGradient943">
      <stop
         style="stop-color:#2952a3;stop-opacity:1"
         offset="0"
         id="stop945" />
      <stop
         style="stop-color:#3c6dd5;stop-opacity:1"
         offset="1"
         id="stop947" />
    </linearGradient>
    <linearGradient
       y2="13.07393"
       x2="11.579766"
       y1="13.07393"
       x1="23.533073"
       gradientTransform="matrix(-1,0,0,1,529.71372,554.0631)"
       gradientUnits="userSpaceOnUse"
       id="linearGradient924"
       xlink:href="#linearGradient6262"
       inkscape:collect="always" />
    <linearGradient
       inkscape:collect="always"
       id="linearGradient6262">
      <stop
         style="stop-color:#ffffff;stop-opacity:0.25738397"
         offset="0"
         id="stop6264" />
      <stop
         style="stop-color:#ffffff;stop-opacity:0;"
         offset="1"
         id="stop6266" />
    </linearGradient>
    <linearGradient
       y2="13.07393"
       x2="11.019455"
       y1="19.660906"
       x1="17.60643"
       gradientTransform="matrix(1,0,0,-1,481.71372,579.2194)"
       gradientUnits="userSpaceOnUse"
       id="linearGradient942"
       xlink:href="#linearGradient6282"
       inkscape:collect="always" />
    <linearGradient
       id="linearGradient6282"
       inkscape:collect="always">
      <stop
         id="stop6284"
         offset="0"
         style="stop-color:#000000;stop-opacity:0.10970464" />
      <stop
         id="stop6286"
         offset="1"
         style="stop-color:#ffffff;stop-opacity:0;" />
    </linearGradient>
    <linearGradient
       gradientTransform="translate(481.71372,531.2194)"
       inkscape:collect="always"
       xlink:href="#linearGradient6262"
       id="linearGradient6268"
       x1="23.533073"
       y1="13.07393"
       x2="11.019455"
       y2="13.07393"
       gradientUnits="userSpaceOnUse" />
    <linearGradient
       inkscape:collect="always"
       xlink:href="#linearGradient6288"
       id="linearGradient6280"
       gradientUnits="userSpaceOnUse"
       gradientTransform="matrix(-1,0,0,1,529.71372,531.2194)"
       x1="20.395853"
       y1="21.890017"
       x2="11.579766"
       y2="13.07393" />
    <linearGradient
       id="linearGradient6288"
       inkscape:collect="always">
      <stop
         id="stop6290"
         offset="0"
         style="stop-color:#000000;stop-opacity:0.13080169" />
      <stop
         id="stop6292"
         offset="1"
         style="stop-color:#ffffff;stop-opacity:0;" />
    </linearGradient>
    <linearGradient
       inkscape:collect="always"
       xlink:href="#linearGradient943"
       id="linearGradient4117"
       gradientUnits="userSpaceOnUse"
       gradientTransform="translate(416.82087,469.86872)"
       x1="92.14286"
       y1="-1049.092"
       x2="92.14286"
       y2="-1001.4687" />
  </defs>
  <sodipodi:namedview
     id="base"
     pagecolor="#ffffff"
     bordercolor="#666666"
     borderopacity="1.0"
     inkscape:pageopacity="0.0"
     inkscape:pageshadow="2"
     inkscape:zoom="5.6"
     inkscape:cx="10.460391"
     inkscape:cy="41.162636"
     inkscape:document-units="px"
     inkscape:current-layer="layer1"
     showgrid="false"
     fit-margin-top="0"
     fit-margin-left="0"
     fit-margin-right="0"
     fit-margin-bottom="0"
     inkscape:window-width="1366"
     inkscape:window-height="716"
     inkscape:window-x="0"
     inkscape:window-y="28"
     inkscape:window-maximized="1" />
  <metadata
     id="metadata6396">
    <rdf:RDF>
      <cc:Work
         rdf:about="">
        <dc:format>image/svg+xml</dc:format>
        <dc:type
           rdf:resource="http://purl.org/dc/dcmitype/StillImage" />
        <dc:title />
      </cc:Work>
    </rdf:RDF>
  </metadata>
  <g
     inkscape:label="Capa 1"
     inkscape:groupmode="layer"
     id="layer1"
     transform="translate(-481.71429,-531.2193)">
    <rect
       style="fill:url(#linearGradient4117);fill-opacity:1;stroke:none"
       id="rect2991-1-7-3"
       width="48"
       height="48"
       x="481.71429"
       y="-579.2193"
       ry="1.9445436"
       transform="scale(1,-1)" />
    <path
       inkscape:connector-curvature="0"
       style="fill:#ffffff"
       d="m 503.65693,569.81809 -5.34951,-1.39223 -0.38808,-0.3771 c -1.10071,-1.0695 -5.6022,-5.81253 -5.62894,-5.93096 -0.0171,-0.0756 0.41764,-1.36014 0.96597,-2.85468 l 0.99698,-2.71734 7.52533,-8.66324 c 5.63247,-6.48416 7.57291,-8.66324 7.71456,-8.66324 0.16868,0 0.65059,1.12498 4.43892,10.36228 2.33733,5.69926 4.46498,10.89577 4.72811,11.5478 l 0.4784,1.18553 -0.38745,3.06794 c -0.2404,1.90358 -0.43003,3.10946 -0.49968,3.17733 -0.17521,0.17073 -8.56097,2.66926 -8.92469,2.65909 C 509.15062,571.21436 506.59915,570.58382 503.65693,569.81809 z m 5.30561,0.84532 c 0,-0.19905 -3.31091,-7.98855 -3.40949,-8.02141 -0.10263,-0.0342 -6.62681,5.33833 -6.63799,5.46626 -0.006,0.0629 9.57689,2.62962 9.98161,2.67371 C 508.93289,570.78592 508.96254,570.73256 508.96254,570.66341 z m 4.67191,-1.03213 c 2.11542,-0.63682 3.84623,-1.18997 3.84623,-1.22922 0,-0.10743 -7.72377,-3.94853 -7.82008,-3.889 -0.0945,0.0584 -0.11867,6.12368 -0.0248,6.21754 0.0322,0.0322 0.0797,0.0585 0.10548,0.0585 C 509.7671,570.78914 511.51903,570.2681 513.63445,569.63128 z m -4.40848,-2.57383 0,-2.85353 -1.49189,-0.74692 c -0.82055,-0.41081 -1.5121,-0.74693 -1.53678,-0.74693 -0.10787,0 0.0304,0.35676 1.37062,3.53583 1.46386,3.47247 1.54886,3.66509 1.61724,3.66509 C 509.2076,569.91099 509.22598,568.6269 509.22598,567.05745 z m 8.57297,0.76791 c -0.86999,-2.98243 -1.5832,-5.25915 -1.66368,-5.31081 -0.057,-0.0365 -1.54592,-0.0569 -3.30884,-0.0452 l -3.20527,0.0212 -0.0225,0.65862 c -0.0124,0.36224 0.007,0.70331 0.0439,0.75794 0.0786,0.11747 7.9167,4.06015 8.08557,4.06715 C 517.7976,567.97713 517.82587,567.9177 517.79894,567.82536 Z M 499.34,565.1182 c 0.5677,-1.47688 1.00683,-2.71057 0.97586,-2.74154 -0.10006,-0.10006 -7.361,-0.1364 -7.32475,-0.0367 0.0456,0.12546 5.18078,5.46342 5.25587,5.46342 C 498.28046,567.80342 498.77232,566.59507 499.34,565.1182 z m 2.68507,-0.17016 c 1.5697,-1.2938 2.86679,-2.40566 2.88241,-2.47079 0.0232,-0.0968 -0.34745,-0.11843 -2.02951,-0.11843 l -2.0579,0 -0.93604,2.43689 c -0.93079,2.42327 -1.03812,2.76127 -0.82275,2.5913 C 499.12165,567.33938 500.45536,566.24184 502.02507,564.94804 z m 16.15655,2.17479 c -0.002,-0.0362 0.12284,-1.06511 0.27491,-2.2864 0.15207,-1.22129 0.26146,-2.23342 0.24308,-2.24918 -0.0184,-0.0158 -0.46027,-0.0517 -0.98199,-0.08 -0.77393,-0.0419 -0.95741,-0.0283 -0.99657,0.0737 -0.0264,0.0688 0.19541,0.94595 0.4929,1.94924 0.73216,2.46932 0.79539,2.65843 0.8885,2.65843 C 518.14686,567.1887 518.1825,567.15905 518.18162,567.12283 z m -8.95564,-4.04846 0,-0.60171 -0.72449,-0.0564 c -0.95812,-0.0746 -1.69026,-0.0723 -1.76809,0.006 -0.0639,0.0639 2.18098,1.24123 2.38281,1.24966 C 509.19379,563.67472 509.22598,563.49962 509.22598,563.07437 z m 8.99671,-0.97183 c 0.0274,-0.0444 -0.39507,-0.4459 -0.93884,-0.89231 -1.25979,-1.0342 -1.20375,-0.99274 -1.26261,-0.93389 -0.0612,0.0612 0.39231,1.64358 0.51503,1.79707 C 516.64004,562.20322 518.14442,562.22919 518.22269,562.10254 z m -9.05219,-0.0763 c 0.089,-0.14391 0.16415,-2.19242 0.0857,-2.3327 -0.0681,-0.12173 -0.30648,0.0401 -1.50051,1.01877 -0.78072,0.63993 -1.42133,1.19097 -1.42356,1.22454 C 506.32384,562.0614 509.09486,562.14867 509.1705,562.02627 z m 6.90306,0.003 c -0.006,-0.18539 -0.70356,-2.33479 -0.79285,-2.4424 -0.17734,-0.21368 -2.96424,-2.49726 -3.04768,-2.49726 -0.0941,0 -2.38817,1.87912 -2.54602,2.08548 -0.11482,0.15009 -0.16261,2.50449 -0.0565,2.78113 0.0472,0.12314 0.41596,0.1389 3.24919,0.1389 C 514.63746,562.09537 516.0747,562.06574 516.07356,562.02952 z m -15.57662,-0.0892 c 0.1102,-0.0737 0.64996,-1.43819 0.64996,-1.64307 0,-0.15599 -4.97346,-2.6238 -5.15074,-2.55577 -0.12804,0.0491 -3.00317,3.85588 -3.03688,4.02092 -0.0231,0.11313 0.1167,0.11806 6.3435,0.22379 C 499.90651,561.99648 500.44389,561.97583 500.49694,561.94036 z m 4.02902,-0.0236 c -0.0985,-0.1594 -2.87191,-1.50525 -2.94704,-1.43011 -0.0972,0.0972 -0.51982,1.22821 -0.51982,1.39121 0,0.1101 0.26635,0.12972 1.76149,0.12972 C 504.01147,562.00757 504.56391,561.97815 504.52596,561.91674 z m 2.83079,-1.36573 c 0.85904,-0.70451 1.65079,-1.3785 1.75946,-1.49777 0.18511,-0.20317 0.19758,-0.29422 0.19758,-1.44326 0,-1.18824 -0.006,-1.22904 -0.19758,-1.31092 -0.18962,-0.0811 -5.23773,-1.22896 -5.40482,-1.22896 -0.0447,0 -0.16533,0.21969 -0.26808,0.48821 l -0.18683,0.48821 1.19405,2.82684 c 1.23871,2.9326 1.2502,2.95857 1.30877,2.95857 C 505.77889,561.83194 506.49774,561.25551 507.35675,560.55102 z m -2.18494,1.02748 c -0.3897,-1.03579 -2.06523,-4.83449 -2.12382,-4.81496 -0.0886,0.0295 -1.33363,3.20789 -1.27708,3.26028 0.10249,0.0949 3.21437,1.6239 3.31308,1.62783 C 505.14838,561.65421 505.1879,561.6213 505.17181,561.5785 Z M 518.35885,561.44 c 0,-0.0222 -1.54066,-3.79691 -3.42366,-8.38823 -3.08904,-7.53198 -3.86686,-9.36671 -3.7423,-8.82724 0.11236,0.48658 4.37519,14.78614 4.46766,14.98666 0.0592,0.12847 0.65928,0.69158 1.33342,1.25137 C 518.09998,561.38127 518.35885,561.56665 518.35885,561.4403 z m -23.89925,-2.40387 c 0.56847,-0.75668 1.06239,-1.42385 1.0976,-1.4826 0.0427,-0.0712 -0.114,-0.19667 -0.4695,-0.37613 l -0.53351,-0.26931 -0.11898,0.28831 c -0.17677,0.4284 -1.19175,3.22054 -1.19175,3.27842 C 493.24346,560.61479 493.51639,560.29193 494.4596,559.03645 z m 7.6981,-1.21869 0.68039,-1.77485 -0.24577,-0.57824 c -0.13516,-0.31803 -0.27235,-0.59468 -0.30486,-0.61477 -0.047,-0.029 -2.2173,0.5053 -4.84074,1.1918 -0.23669,0.0619 -0.41343,0.20824 -0.68324,0.56562 -0.20018,0.26513 -0.38707,0.54229 -0.41533,0.6159 -0.0727,0.18941 4.88195,2.62431 5.02983,2.47184 C 501.43263,559.63871 501.78351,558.79393 502.1577,557.81776 z m 12.90965,0.83083 c -0.0202,-0.0604 -1.07014,-3.58728 -2.33312,-7.83757 -1.26298,-4.25029 -2.33072,-7.78708 -2.37274,-7.85953 -0.0667,-0.11508 -0.0767,-0.11423 -0.0791,0.007 -0.002,0.0762 0.47184,3.17716 1.05178,6.89109 0.75385,4.82749 1.09271,6.79084 1.18863,6.88676 0.0738,0.0738 0.63661,0.55599 1.25071,1.07156 C 514.82606,558.6913 515.15283,558.90368 515.06735,558.64859 z m -4.27693,-0.93447 c 0.49191,-0.40529 0.89441,-0.76758 0.89441,-0.80509 0,-0.0564 -1.40574,-0.41013 -1.8383,-0.46254 -0.0693,-0.008 -0.15421,0.0835 -0.18885,0.20429 -0.0796,0.27771 -0.0994,1.79593 -0.0244,1.87095 C 509.70938,558.59778 509.76483,558.55908 510.79042,557.71412 z m -14.62175,-0.94886 c 0.12703,-0.17853 0.21335,-0.34221 0.19184,-0.36372 -0.0593,-0.0593 -1.0958,0.17579 -1.1481,0.26043 -0.0482,0.0779 0.4658,0.427 0.62956,0.42756 C 495.89463,557.0897 496.04164,556.94379 496.16867,556.76526 z m 15.7796,-0.4558 c 0,-0.34859 -2.12327,-13.75252 -2.19887,-13.88112 -0.048,-0.0816 -0.0718,2.5863 -0.06,6.71418 l 0.0196,6.84964 0.92206,0.23273 C 511.78241,556.51549 511.94827,556.52614 511.94827,556.30946 z m -15.93022,-0.28548 c 0.41164,-0.10324 0.82146,-0.25143 0.91067,-0.32931 0.15111,-0.13187 7.87726,-10.44907 8.03397,-10.72822 0.20479,-0.36483 -1.15664,1.15855 -5.25706,5.88239 -2.49162,2.87044 -4.53021,5.25135 -4.53021,5.29092 C 495.17542,556.23644 495.16556,556.23779 496.01805,556.02398 z m 13.27427,-7.84354 c 0.0132,-4.48501 -0.01,-7.60146 -0.056,-7.55217 -0.10584,0.11322 -5.36712,13.78395 -5.36712,13.94573 0,0.0906 0.28695,0.19396 0.98793,0.35591 3.43673,0.79402 3.99568,0.91413 4.1932,0.9011 l 0.21954,-0.0145 L 509.29232,548.18045 z m -9.24311,6.80347 c 1.15917,-0.29488 2.15514,-0.58382 2.21325,-0.6421 0.1095,-0.10979 5.84969,-12.45945 5.95622,-12.81446 0.0534,-0.1777 0.0454,-0.1855 -0.0701,-0.0687 -0.21753,0.21993 -10.433,13.87753 -10.48886,14.0231 -0.0388,0.10102 -0.009,0.12316 0.11496,0.0869 C 497.86649,555.54191 498.89003,555.27878 500.04921,554.98391 z m 3.11746,0.17124 c 0,-0.0981 -0.061,-0.20179 -0.13551,-0.23038 -0.18073,-0.0694 -0.2189,-0.0174 -0.15812,0.21502 C 502.93668,555.38311 503.16667,555.39514 503.16667,555.15515 z m 0.28814,-0.72172 c 0.40438,-1.02084 2.53331,-6.56506 2.75666,-7.17896 0.16694,-0.45884 0.26289,-0.79419 0.21323,-0.74522 -0.0497,0.049 -0.8971,1.82724 -1.88318,3.95172 -1.28075,2.75925 -1.76775,3.89405 -1.70485,3.97246 0.0484,0.0604 0.19755,0.10977 0.33137,0.10977 C 503.30184,554.5432 503.4309,554.4938 503.45481,554.43343 Z"
       id="path2919"
       sodipodi:nodetypes="scccscsssscsscsscccssscsssccssssccccsccccccscscscscscscscccsscscsscscsccccccccccsccscccscccccccsccccsscsccsccccccccccsscsccscsccssccccssccccsccscsccsscccsscccsscscssscssssccssccccsccsccscccccsccscss" />
    <path
       inkscape:connector-curvature="0"
       style="fill:#000000;fill-opacity:1;stroke:none"
       d="m 481.71429,576.2193 0,1.0625 c 0,1.0773 0.86022,1.9375 1.9375,1.9375 l 44.125,0 c 1.07728,0 1.9375,-0.8602 1.9375,-1.9375 l 0,-1.0625 c 0,1.0773 -0.86022,1.9375 -1.9375,1.9375 l -44.125,0 C 482.57451,578.1568 481.71429,577.2966 481.71429,576.2193 Z"
       id="rect846-0" />
    <path
       inkscape:connector-curvature="0"
       style="fill:#ffffff;fill-opacity:0.5372549;stroke:none"
       d="m 484.24554,531.8756 c -0.91709,0 -1.67115,0.6395 -1.84375,1.5 0.33561,-0.2799 0.77451,-0.4375 1.25,-0.4375 l 44.125,0 c 0.47549,0 0.91439,0.1576 1.25,0.4375 -0.1726,-0.8605 -0.92666,-1.5 -1.84375,-1.5 L 484.24554,531.8756 Z"
       id="path7515-3" />
    <path
       inkscape:connector-curvature="0"
       style="fill:#000000;fill-opacity:0.39215686;stroke:none"
       d="m 483.65179,531.2193 c -1.07728,0 -1.9375,0.8602 -1.9375,1.9375 l 0,43.0625 c 0,0.7934 0.48002,1.449 1.15625,1.75 -0.30934,-0.3333 -0.5,-0.7824 -0.5,-1.2812 l 0,-42.9375 c 0,-1.0482 0.8269,-1.875 1.875,-1.875 l 42.9375,0 c 1.0481,0 1.875,0.8268 1.875,1.875 l 0,42.9375 c 0,0.4988 -0.19066,0.9479 -0.5,1.2812 0.67623,-0.301 1.15625,-0.9566 1.15625,-1.75 l 0,-43.0625 c 0,-1.0773 -0.86022,-1.9375 -1.9375,-1.9375 L 483.65179,531.2193 Z"
       id="rect4280-1" />
    <path
       style="opacity:0.6;color:#000000;fill:url(#linearGradient924);fill-opacity:1;fill-rule:nonzero;stroke:none;stroke-width:1;marker:none;visibility:visible;display:inline;overflow:visible;enable-background:accumulate"
       d="m 505.71342,555.2193 0,22.8438 20.0625,0 c 0.10844,-0.2427 0.1875,-0.4974 0.1875,-0.7813 l 0,-21.5625 c -0.64338,-0.3128 -1.36133,-0.5 -2.125,-0.5 L 505.71342,555.2193 Z"
       id="path6270"
       inkscape:connector-curvature="0" />
    <path
       style="opacity:0.6;color:#000000;fill:url(#linearGradient942);fill-opacity:1;fill-rule:nonzero;stroke:none;stroke-width:1;marker:none;visibility:visible;display:inline;overflow:visible;enable-background:accumulate"
       d="m 485.46342,555.2193 0,22.0625 c 0,0.1012 0.0165,0.1843 0.0312,0.2813 0.63718,0.3053 1.33979,0.5 2.09375,0.5 l 18.125,0 0,-22.8438 L 485.46342,555.2193 Z"
       id="path6274"
       inkscape:connector-curvature="0" />
    <path
       style="opacity:0.6;color:#000000;fill:url(#linearGradient6268);fill-opacity:1;fill-rule:nonzero;stroke:none;stroke-width:1;marker:none;visibility:visible;display:inline;overflow:visible;enable-background:accumulate"
       d="m 487.58842,532.3756 c -0.75396,0 -1.45657,0.1946 -2.09375,0.5 -0.0148,0.097 -0.0312,0.18 -0.0312,0.2812 l 0,22.0625 20.25,0 0,-22.8437 L 487.58842,532.3756 Z"
       id="path6249"
       inkscape:connector-curvature="0" />
    <path
       style="opacity:0.6;color:#000000;fill:url(#linearGradient6280);fill-opacity:1;fill-rule:nonzero;stroke:none;stroke-width:1;marker:none;visibility:visible;display:inline;overflow:visible;enable-background:accumulate"
       d="m 505.71342,532.3756 0,22.8437 20.25,0 0,-22.0625 c 0,-0.1012 -0.0165,-0.1843 -0.0312,-0.2812 -0.63718,-0.3054 -1.33979,-0.5 -2.09375,-0.5 L 505.71342,532.3756 Z"
       id="path6276"
       inkscape:connector-curvature="0" />
  </g>
</svg>
