<?xml version="1.0" encoding="UTF-8" standalone="no"?>
<!-- Created with Inkscape (http://www.inkscape.org/) -->

<svg
   xmlns:dc="http://purl.org/dc/elements/1.1/"
   xmlns:cc="http://creativecommons.org/ns#"
   xmlns:rdf="http://www.w3.org/1999/02/22-rdf-syntax-ns#"
   xmlns:svg="http://www.w3.org/2000/svg"
   xmlns="http://www.w3.org/2000/svg"
   xmlns:xlink="http://www.w3.org/1999/xlink"
   xmlns:sodipodi="http://sodipodi.sourceforge.net/DTD/sodipodi-0.dtd"
   xmlns:inkscape="http://www.inkscape.org/namespaces/inkscape"
   width="48"
   height="48"
   id="svg6536"
   version="1.1"
   inkscape:version="0.48+devel r12269"
   sodipodi:docname="gnome-mime-application.svg">
  <defs
     id="defs6538">
    <linearGradient
       inkscape:collect="always"
       id="linearGradient909">
      <stop
         style="stop-color:#000000;stop-opacity:1"
         offset="0"
         id="stop911" />
      <stop
         style="stop-color:#1a1a1a;stop-opacity:1"
         offset="1"
         id="stop913" />
    </linearGradient>
    <linearGradient
       y2="13.07393"
       x2="11.579766"
       y1="21.890017"
       x1="20.395853"
       gradientTransform="matrix(-1,0,0,1,569.71371,605.50518)"
       gradientUnits="userSpaceOnUse"
       id="linearGradient6280"
       xlink:href="#linearGradient6288"
       inkscape:collect="always" />
    <linearGradient
       inkscape:collect="always"
       id="linearGradient6288">
      <stop
         style="stop-color:#000000;stop-opacity:0.13080169"
         offset="0"
         id="stop6290" />
      <stop
         style="stop-color:#ffffff;stop-opacity:0;"
         offset="1"
         id="stop6292" />
    </linearGradient>
    <linearGradient
       gradientUnits="userSpaceOnUse"
       y2="13.07393"
       x2="11.019455"
       y1="13.07393"
       x1="23.533073"
       id="linearGradient6268"
       xlink:href="#linearGradient6262"
       inkscape:collect="always"
       gradientTransform="translate(521.71371,605.50518)" />
    <linearGradient
       id="linearGradient6262"
       inkscape:collect="always">
      <stop
         id="stop6264"
         offset="0"
         style="stop-color:#ffffff;stop-opacity:0.25738397" />
      <stop
         id="stop6266"
         offset="1"
         style="stop-color:#ffffff;stop-opacity:0;" />
    </linearGradient>
    <linearGradient
       gradientTransform="matrix(-1,0,0,1,569.71371,628.34888)"
       y2="13.07393"
       x2="11.579766"
       y1="13.07393"
       x1="23.533073"
       gradientUnits="userSpaceOnUse"
       id="linearGradient6272"
       xlink:href="#linearGradient6262"
       inkscape:collect="always" />
    <linearGradient
       inkscape:collect="always"
       id="linearGradient6282">
      <stop
         style="stop-color:#000000;stop-opacity:0.10970464"
         offset="0"
         id="stop6284" />
      <stop
         style="stop-color:#ffffff;stop-opacity:0;"
         offset="1"
         id="stop6286" />
    </linearGradient>
    <linearGradient
       inkscape:collect="always"
       xlink:href="#linearGradient6282"
       id="linearGradient942"
       gradientUnits="userSpaceOnUse"
       gradientTransform="matrix(1,0,0,-1,521.71371,653.50518)"
       x1="17.60643"
       y1="19.660906"
       x2="11.019455"
       y2="13.07393" />
    <linearGradient
       gradientTransform="translate(463.6899,400.05291)"
       gradientUnits="userSpaceOnUse"
       y2="-1005.5661"
       x2="81.84761"
       y1="-1053.5555"
       x1="81.84761"
       id="linearGradient14035"
       xlink:href="#linearGradient909"
       inkscape:collect="always" />
  </defs>
  <sodipodi:namedview
     id="base"
     pagecolor="#ffffff"
     bordercolor="#666666"
     borderopacity="1.0"
     inkscape:pageopacity="0.0"
     inkscape:pageshadow="2"
     inkscape:zoom="6.2534756"
     inkscape:cx="14.583037"
     inkscape:cy="30.22424"
     inkscape:document-units="px"
     inkscape:current-layer="layer1"
     showgrid="false"
     fit-margin-top="0"
     fit-margin-left="0"
     fit-margin-right="0"
     fit-margin-bottom="0"
     inkscape:window-width="1366"
     inkscape:window-height="716"
     inkscape:window-x="0"
     inkscape:window-y="28"
     inkscape:window-maximized="1"
     showguides="false">
    <inkscape:grid
       type="xygrid"
       id="grid3918" />
  </sodipodi:namedview>
  <metadata
     id="metadata6541">
    <rdf:RDF>
      <cc:Work
         rdf:about="">
        <dc:format>image/svg+xml</dc:format>
        <dc:type
           rdf:resource="http://purl.org/dc/dcmitype/StillImage" />
        <dc:title />
      </cc:Work>
    </rdf:RDF>
  </metadata>
  <g
     inkscape:label="Capa 1"
     inkscape:groupmode="layer"
     id="layer1"
     transform="translate(-521.71429,-605.50507)">
    <g
       style="font-size:10px;font-style:normal;font-variant:normal;font-weight:normal;font-stretch:normal;line-height:125%;letter-spacing:0px;word-spacing:0px;fill:#000000;fill-opacity:1;stroke:none;font-family:Decker;-inkscape-font-specification:Decker"
       id="text6661" />
    <rect
       style="fill:url(#linearGradient14035);fill-opacity:1;stroke:none"
       id="rect2991-1-7-5"
       width="48"
       height="48"
       x="521.71429"
       y="-653.50507"
       ry="1.9445436"
       transform="scale(1,-1)" />
    <path
       inkscape:connector-curvature="0"
       id="path164"
       style="fill:#ffffff;fill-opacity:1;fill-rule:nonzero;stroke:none"
       d="m 545.71434,636.46158 c -3.84211,0 -6.95698,-3.11274 -6.95698,-6.95651 0,-3.84377 3.11487,-6.95651 6.95698,-6.95651 3.84248,0 6.95735,3.11274 6.95735,6.95651 C 552.67169,633.34884 549.55682,636.46158 545.71434,636.46158 z m 12.92098,-6.95651 c 0,-1.99264 1.22789,-3.57257 3.07702,-4.65732 -0.33298,-1.10832 -0.77418,-2.1813 -1.31727,-3.1835 -2.07397,0.54237 -3.75227,-0.27116 -5.16302,-1.67428 -1.41076,-1.41487 -1.84278,-3.08916 -1.30017,-5.16433 -1.0041,-0.54239 -2.07033,-0.99044 -3.18443,-1.32057 -1.08274,1.85116 -3.03753,3.07739 -5.03311,3.07739 -1.99474,0 -3.94989,-1.22623 -5.03274,-3.07739 -1.11363,0.33014 -2.17986,0.77818 -3.18396,1.32057 0.54213,2.07517 0.11056,3.74946 -1.30017,5.16433 -1.41075,1.40312 -3.08999,2.21665 -5.1635,1.67428 -0.54308,1.0022 -0.98429,2.07518 -1.31773,3.1835 1.84973,1.08475 3.07762,2.66468 3.07762,4.65732 0,1.99264 -1.22789,3.94989 -3.07762,5.03464 0.33344,1.10833 0.77465,2.18126 1.31773,3.18351 2.07399,-0.54238 3.75275,-0.10617 5.1635,1.29695 1.4103,1.41487 1.8423,3.08918 1.30017,5.16434 1.0041,0.54238 2.07033,0.97862 3.18443,1.32056 1.08287,-1.85114 3.03753,-3.07739 5.03228,-3.07739 1.99558,0 3.95037,1.22625 5.03311,3.07739 1.1141,-0.34194 2.18033,-0.77818 3.1849,-1.32056 -0.54214,-2.07516 -0.11104,-3.74947 1.2997,-5.16434 1.41075,-1.40307 3.08951,-2.22843 5.16302,-1.67428 0.54309,-1.01398 0.98428,-2.07514 1.31727,-3.18348 -1.84913,-1.08474 -3.07702,-2.6647 -3.07702,-4.65734" />
    <path
       inkscape:connector-curvature="0"
       style="fill:#000000;fill-opacity:1;stroke:none"
       d="m 521.71428,650.50508 0,1.0625 c 0,1.0773 0.86022,1.9375 1.9375,1.9375 l 44.125,0 c 1.07728,0 1.9375,-0.8602 1.9375,-1.9375 l 0,-1.0625 c 0,1.0773 -0.86022,1.9375 -1.9375,1.9375 l -44.125,0 C 522.5745,652.44258 521.71428,651.58238 521.71428,650.50508 Z"
       id="rect846-0" />
    <path
       inkscape:connector-curvature="0"
       style="fill:#ffffff;fill-opacity:0.5372549;stroke:none"
       d="m 524.24553,606.16138 c -0.91709,0 -1.67115,0.6395 -1.84375,1.5 0.33561,-0.2799 0.77451,-0.4375 1.25,-0.4375 l 44.125,0 c 0.47549,0 0.91439,0.1576 1.25,0.4375 -0.1726,-0.8605 -0.92666,-1.5 -1.84375,-1.5 L 524.24553,606.16138 Z"
       id="path7515-2" />
    <path
       inkscape:connector-curvature="0"
       style="fill:#000000;fill-opacity:0.39215686;stroke:none"
       d="m 523.65178,605.50508 c -1.07728,0 -1.9375,0.8602 -1.9375,1.9375 l 0,43.0625 c 0,0.7934 0.48002,1.449 1.15625,1.75 -0.30934,-0.3333 -0.5,-0.7824 -0.5,-1.2812 l 0,-42.9375 c 0,-1.0482 0.8269,-1.875 1.875,-1.875 l 42.9375,0 c 1.0481,0 1.875,0.8268 1.875,1.875 l 0,42.9375 c 0,0.4988 -0.19066,0.9479 -0.5,1.2812 0.67623,-0.301 1.15625,-0.9566 1.15625,-1.75 l 0,-43.0625 c 0,-1.0773 -0.86022,-1.9375 -1.9375,-1.9375 L 523.65178,605.50508 Z"
       id="rect4280-6" />
    <path
       style="opacity:0.6;color:#000000;fill:url(#linearGradient6272);fill-opacity:1;fill-rule:nonzero;stroke:none;stroke-width:1;marker:none;visibility:visible;display:inline;overflow:visible;enable-background:accumulate"
       d="m 545.71341,629.50508 0,22.8438 20.0625,0 c 0.10844,-0.2427 0.1875,-0.4974 0.1875,-0.7813 l 0,-21.5625 c -0.64338,-0.3128 -1.36133,-0.5 -2.125,-0.5 L 545.71341,629.50508 Z"
       id="path6270"
       inkscape:connector-curvature="0" />
    <path
       style="opacity:0.6;color:#000000;fill:url(#linearGradient942);fill-opacity:1;fill-rule:nonzero;stroke:none;stroke-width:1;marker:none;visibility:visible;display:inline;overflow:visible;enable-background:accumulate"
       d="m 525.46341,629.50508 0,22.0625 c 0,0.1012 0.0165,0.1843 0.0312,0.2813 0.63718,0.3053 1.33979,0.5 2.09375,0.5 l 18.125,0 0,-22.8438 L 525.46341,629.50508 Z"
       id="path6274"
       inkscape:connector-curvature="0" />
    <path
       style="opacity:0.6;color:#000000;fill:url(#linearGradient6268);fill-opacity:1;fill-rule:nonzero;stroke:none;stroke-width:1;marker:none;visibility:visible;display:inline;overflow:visible;enable-background:accumulate"
       d="m 527.58841,606.66138 c -0.75396,0 -1.45657,0.1946 -2.09375,0.5 -0.0148,0.097 -0.0312,0.18 -0.0312,0.2812 l 0,22.0625 20.25,0 0,-22.8437 L 527.58841,606.66138 Z"
       id="path6249"
       inkscape:connector-curvature="0" />
    <path
       style="opacity:0.6;color:#000000;fill:url(#linearGradient6280);fill-opacity:1;fill-rule:nonzero;stroke:none;stroke-width:1;marker:none;visibility:visible;display:inline;overflow:visible;enable-background:accumulate"
       d="m 545.71341,606.66138 0,22.8437 20.25,0 0,-22.0625 c 0,-0.1012 -0.0165,-0.1843 -0.0312,-0.2812 -0.63718,-0.3054 -1.33979,-0.5 -2.09375,-0.5 L 545.71341,606.66138 Z"
       id="path6276"
       inkscape:connector-curvature="0" />
  </g>
</svg>
