<?xml version="1.0" encoding="UTF-8" standalone="no"?>
<!-- Created with Inkscape (http://www.inkscape.org/) -->

<svg
   xmlns:dc="http://purl.org/dc/elements/1.1/"
   xmlns:cc="http://creativecommons.org/ns#"
   xmlns:rdf="http://www.w3.org/1999/02/22-rdf-syntax-ns#"
   xmlns:svg="http://www.w3.org/2000/svg"
   xmlns="http://www.w3.org/2000/svg"
   xmlns:xlink="http://www.w3.org/1999/xlink"
   xmlns:sodipodi="http://sodipodi.sourceforge.net/DTD/sodipodi-0.dtd"
   xmlns:inkscape="http://www.inkscape.org/namespaces/inkscape"
   width="48"
   height="48"
   id="svg4214"
   version="1.1"
   inkscape:version="0.48+devel r12306"
   sodipodi:docname="application-pdf.svg">
  <defs
     id="defs4216">
    <linearGradient
       inkscape:collect="always"
       id="linearGradient1506">
      <stop
         style="stop-color:#df020c;stop-opacity:1"
         offset="0"
         id="stop1508" />
      <stop
         style="stop-color:#fd2b34;stop-opacity:1"
         offset="1"
         id="stop1510" />
    </linearGradient>
    <linearGradient
       inkscape:collect="always"
       xlink:href="#linearGradient6288"
       id="linearGradient6280"
       gradientUnits="userSpaceOnUse"
       gradientTransform="matrix(-1,0,0,1,47.99942,1004.3623)"
       x1="20.395853"
       y1="21.890017"
       x2="11.579766"
       y2="13.07393" />
    <linearGradient
       id="linearGradient6288"
       inkscape:collect="always">
      <stop
         id="stop6290"
         offset="0"
         style="stop-color:#000000;stop-opacity:0.13080169" />
      <stop
         id="stop6292"
         offset="1"
         style="stop-color:#ffffff;stop-opacity:0;" />
    </linearGradient>
    <linearGradient
       gradientTransform="translate(-5.835e-4,1004.3623)"
       inkscape:collect="always"
       xlink:href="#linearGradient6262"
       id="linearGradient6268"
       x1="23.533073"
       y1="13.07393"
       x2="11.019455"
       y2="13.07393"
       gradientUnits="userSpaceOnUse" />
    <linearGradient
       inkscape:collect="always"
       id="linearGradient6262">
      <stop
         style="stop-color:#ffffff;stop-opacity:0.25738397"
         offset="0"
         id="stop6264" />
      <stop
         style="stop-color:#ffffff;stop-opacity:0;"
         offset="1"
         id="stop6266" />
    </linearGradient>
    <linearGradient
       inkscape:collect="always"
       xlink:href="#linearGradient6262"
       id="linearGradient6272"
       gradientUnits="userSpaceOnUse"
       x1="23.533073"
       y1="13.07393"
       x2="11.579766"
       y2="13.07393"
       gradientTransform="matrix(-1,0,0,1,47.99942,1027.206)" />
    <linearGradient
       id="linearGradient6282"
       inkscape:collect="always">
      <stop
         id="stop6284"
         offset="0"
         style="stop-color:#000000;stop-opacity:0.10970464" />
      <stop
         id="stop6286"
         offset="1"
         style="stop-color:#ffffff;stop-opacity:0;" />
    </linearGradient>
    <linearGradient
       y2="13.07393"
       x2="11.019455"
       y1="19.660906"
       x1="17.60643"
       gradientTransform="matrix(1,0,0,-1,-5.835e-4,1052.3623)"
       gradientUnits="userSpaceOnUse"
       id="linearGradient942"
       xlink:href="#linearGradient6282"
       inkscape:collect="always" />
    <linearGradient
       inkscape:collect="always"
       xlink:href="#linearGradient1506"
       id="linearGradient14035"
       x1="81.84761"
       y1="-1053.5555"
       x2="81.84761"
       y2="-1005.5661"
       gradientUnits="userSpaceOnUse"
       gradientTransform="translate(-58.024386,1.1957917)" />
  </defs>
  <sodipodi:namedview
     id="base"
     pagecolor="#ffffff"
     bordercolor="#666666"
     borderopacity="1.0"
     inkscape:pageopacity="0.0"
     inkscape:pageshadow="2"
     inkscape:zoom="4.0000001"
     inkscape:cx="30.705509"
     inkscape:cy="30.967856"
     inkscape:document-units="px"
     inkscape:current-layer="layer1"
     showgrid="false"
     width="0px"
     height="0px"
     fit-margin-top="0"
     fit-margin-left="0"
     fit-margin-right="0"
     fit-margin-bottom="0"
     inkscape:window-width="1366"
     inkscape:window-height="714"
     inkscape:window-x="0"
     inkscape:window-y="30"
     inkscape:window-maximized="1" />
  <metadata
     id="metadata4219">
    <rdf:RDF>
      <cc:Work
         rdf:about="">
        <dc:format>image/svg+xml</dc:format>
        <dc:type
           rdf:resource="http://purl.org/dc/dcmitype/StillImage" />
        <dc:title></dc:title>
      </cc:Work>
    </rdf:RDF>
  </metadata>
  <g
     inkscape:label="Capa 1"
     inkscape:groupmode="layer"
     id="layer1"
     transform="translate(0,-1004.3622)">
    <rect
       style="fill:url(#linearGradient14035);fill-opacity:1;stroke:none"
       id="rect2991-1-7-5"
       width="48"
       height="48"
       x="5.5871583e-06"
       y="-1052.3622"
       ry="1.9445436"
       transform="scale(1,-1)" />
    <path
       inkscape:connector-curvature="0"
       style="fill:#000000;fill-opacity:1;stroke:none"
       d="m -5.5871582e-6,1049.3622 0,1.0625 c 0,1.0773 0.8602199971582,1.9375 1.9374999871582,1.9375 l 44.1249996,0 c 1.07728,0 1.9375,-0.8602 1.9375,-1.9375 l 0,-1.0625 c 0,1.0773 -0.86022,1.9375 -1.9375,1.9375 l -44.1249996,0 C 0.86021441,1051.2997 -5.5871582e-6,1050.4395 -5.5871582e-6,1049.3622 Z"
       id="rect846-0" />
    <path
       inkscape:connector-curvature="0"
       style="fill:#ffffff;fill-opacity:0.5372549;stroke:none"
       d="m 2.5312444,1005.0185 c -0.91709,0 -1.67114999,0.6395 -1.84374999,1.5 0.33560999,-0.2799 0.77450999,-0.4375 1.24999999,-0.4375 l 44.1249996,0 c 0.47549,0 0.91439,0.1576 1.25,0.4375 -0.1726,-0.8605 -0.92666,-1.5 -1.84375,-1.5 L 2.5312444,1005.0185 Z"
       id="path7515-2" />
    <path
       inkscape:connector-curvature="0"
       style="fill:#000000;fill-opacity:0.39215686;stroke:none"
       d="m 1.9374944,1004.3622 c -1.07727999,0 -1.9374999871582,0.8602 -1.9374999871582,1.9375 l 0,43.0625 c 0,0.7934 0.4800199971582,1.449 1.1562499871582,1.75 -0.30933999,-0.3333 -0.49999999,-0.7824 -0.49999999,-1.2812 l 0,-42.9375 c 0,-1.0482 0.82689999,-1.875 1.87499999,-1.875 l 42.9374996,0 c 1.0481,0 1.875,0.8268 1.875,1.875 l 0,42.9375 c 0,0.4988 -0.19066,0.9479 -0.5,1.2812 0.67623,-0.301 1.15625,-0.9566 1.15625,-1.75 l 0,-43.0625 c 0,-1.0773 -0.86022,-1.9375 -1.9375,-1.9375 L 1.9374944,1004.3622 Z"
       id="rect4280-6" />
    <path
       style="fill:#ffffff;fill-opacity:1;fill-rule:nonzero;stroke:none;enable-background:new"
       id="rect3364-1"
       inkscape:connector-curvature="0"
       d="m 22.270921,1013.3622 c -0.517235,0 -0.619258,0.022 -0.827326,0.1987 -0.414237,0.3469 -0.6503,1.4156 -0.647908,2.9685 0.0022,1.6065 0.22237,3.135 0.727649,5.124 l 0.318973,1.2406 -0.299036,0.9338 c -0.94979,3.0351 -2.326809,6.1941 -4.355935,9.9785 -3.075231,5.7374 -5.451833,8.7486 -7.107058,9.0166 -0.2663233,0.041 -0.2790993,0.034 -0.2790993,-0.159 0,-0.9685 1.8358243,-3.3894 3.8774823,-5.1134 1.042918,-0.8812 -0.17074,-0.2926 -1.574915,0.7642 -1.415053,1.0648 -2.5872065,2.4457 -2.9504756,3.475 -0.2583127,0.7323 -0.2036695,0.9912 0.2691313,1.2312 0.8447733,0.4296 1.2746683,0.4468 1.9935643,0.09 1.397436,-0.6942 3.245508,-2.889 5.302879,-6.2955 0.667104,-1.1043 0.876435,-1.38 1.046621,-1.38 0.05995,0 0.690416,-0.1753 1.395495,-0.3872 2.818044,-0.8495 6.201856,-1.5349 9.519269,-1.9364 l 1.106428,-0.1394 0.558197,0.2784 c 1.453706,0.7295 3.47927,1.4367 4.963975,1.7274 1.004165,0.1969 2.31178,0.2335 2.751119,0.08 0.276826,-0.096 0.853514,-0.4382 0.853525,-0.5506 -1.126852,0.5281 -2.825329,-0.1246 -4.103037,-0.5015 -0.84243,-0.2653 -2.696384,-0.9905 -2.800954,-1.0925 2.244701,-0.4341 6.455253,-0.5306 6.907699,1.0226 0.132557,-1e-4 0.09847,-0.6234 -0.04985,-0.8731 -0.277823,-0.4691 -1.082868,-0.8473 -2.242763,-1.063 -0.939081,-0.1745 -3.16428,-0.2236 -4.904168,-0.109 l -1.545013,0.099 -0.558196,-0.3375 c -3.200755,-1.9395 -4.895928,-4.1265 -6.429244,-8.2813 -0.230098,-0.6238 -0.245579,-0.7095 -0.169453,-1.1025 0.268025,-1.3838 0.516759,-6.0601 0.328938,-6.1756 -0.34208,1.532 -0.618719,3.0644 -0.966878,4.448 -0.07192,0 -0.282636,-1.0779 -0.448554,-2.333 -0.180516,-1.366 -0.11496,-3.213 0.129585,-3.8431 0.09799,-0.252 0.225806,-0.4821 0.289064,-0.5063 0.626827,0.1796 0.975696,0.6761 1.066556,1.4396 0.08894,0 0.111779,-0.1457 0.129584,-0.6152 C 23.585968,1013.6494 23.309113,1013.3622 22.270921,1013.3622 z m 0.249194,11.3992 c 0.0355,-0.01 0.05572,0.066 0.09968,0.1885 0.05409,0.1521 0.356946,0.773 0.667845,1.3803 1.337726,2.6117 2.819103,4.3246 4.954008,5.7287 0.10816,0.071 0.174987,0.1528 0.149517,0.1787 -0.02544,0.023 -0.460034,0.1202 -0.95691,0.2085 -3.388314,0.6038 -7.606662,1.8732 -9.658818,2.8993 -0.03264,0.017 -0.05979,-0.016 -0.05979,-0.067 1e-6,-0.053 0.201718,-0.4741 0.458519,-0.9334 1.934248,-3.4601 3.233977,-6.2562 3.96719,-8.5592 C 22.37394,1025.0532 22.46091,1024.7797 22.520115,1024.7614 Z" />
    <path
       style="opacity:0.6;color:#000000;fill:url(#linearGradient6272);fill-opacity:1;fill-rule:nonzero;stroke:none;stroke-width:1;marker:none;visibility:visible;display:inline;overflow:visible;enable-background:accumulate"
       d="m 23.999121,1028.3622 0,22.8438 20.0625,0 c 0.108435,-0.2427 0.1875,-0.4974 0.1875,-0.7813 l 0,-21.5625 c -0.643377,-0.3128 -1.361327,-0.5 -2.125,-0.5 L 23.999121,1028.3622 Z"
       id="path6270"
       inkscape:connector-curvature="0" />
    <path
       style="opacity:0.6;color:#000000;fill:url(#linearGradient942);fill-opacity:1;fill-rule:nonzero;stroke:none;stroke-width:1;marker:none;visibility:visible;display:inline;overflow:visible;enable-background:accumulate"
       d="m 3.7491215,1028.3622 0,22.0625 c 0,0.1012 0.01648,0.1843 0.03125,0.2813 0.637177,0.3053 1.339791,0.5 2.09375,0.5 l 18.1249995,0 0,-22.8438 L 3.7491215,1028.3622 Z"
       id="path6274"
       inkscape:connector-curvature="0" />
    <path
       style="opacity:0.6;color:#000000;fill:url(#linearGradient6268);fill-opacity:1;fill-rule:nonzero;stroke:none;stroke-width:1;marker:none;visibility:visible;display:inline;overflow:visible;enable-background:accumulate"
       d="m 5.8741215,1005.5185 c -0.753959,0 -1.456573,0.1946 -2.09375,0.5 -0.01477,0.097 -0.03125,0.18 -0.03125,0.2812 l 0,22.0625 20.2499995,0 0,-22.8437 L 5.8741215,1005.5185 Z"
       id="path6249"
       inkscape:connector-curvature="0" />
    <path
       style="opacity:0.6;color:#000000;fill:url(#linearGradient6280);fill-opacity:1;fill-rule:nonzero;stroke:none;stroke-width:1;marker:none;visibility:visible;display:inline;overflow:visible;enable-background:accumulate"
       d="m 23.999121,1005.5185 0,22.8437 20.25,0 0,-22.0625 c 0,-0.1012 -0.01648,-0.1843 -0.03125,-0.2812 -0.637177,-0.3054 -1.33979,-0.5 -2.09375,-0.5 L 23.999121,1005.5185 Z"
       id="path6276"
       inkscape:connector-curvature="0" />
  </g>
</svg>
