<?xml version="1.0" encoding="UTF-8" standalone="no"?>
<!-- Created with Inkscape (http://www.inkscape.org/) -->

<svg
   xmlns:dc="http://purl.org/dc/elements/1.1/"
   xmlns:cc="http://creativecommons.org/ns#"
   xmlns:rdf="http://www.w3.org/1999/02/22-rdf-syntax-ns#"
   xmlns:svg="http://www.w3.org/2000/svg"
   xmlns="http://www.w3.org/2000/svg"
   xmlns:xlink="http://www.w3.org/1999/xlink"
   xmlns:sodipodi="http://sodipodi.sourceforge.net/DTD/sodipodi-0.dtd"
   xmlns:inkscape="http://www.inkscape.org/namespaces/inkscape"
   width="48"
   height="48"
   id="svg6391"
   version="1.1"
   inkscape:version="0.48+devel r12262"
   sodipodi:docname="application-vnd.sun.xml.draw.svg">
  <defs
     id="defs6393">
    <linearGradient
       id="linearGradient868">
      <stop
         id="stop870"
         offset="0"
         style="stop-color:#39b6b6;stop-opacity:1" />
      <stop
         id="stop872"
         offset="1"
         style="stop-color:#a8e5e5;stop-opacity:1" />
    </linearGradient>
    <linearGradient
       inkscape:collect="always"
       xlink:href="#linearGradient6288"
       id="linearGradient6280"
       gradientUnits="userSpaceOnUse"
       gradientTransform="matrix(-1,0,0,1,529.71371,531.21942)"
       x1="20.395853"
       y1="21.890017"
       x2="11.579766"
       y2="13.07393" />
    <linearGradient
       id="linearGradient6288"
       inkscape:collect="always">
      <stop
         id="stop6290"
         offset="0"
         style="stop-color:#000000;stop-opacity:0.13080169" />
      <stop
         id="stop6292"
         offset="1"
         style="stop-color:#ffffff;stop-opacity:0;" />
    </linearGradient>
    <linearGradient
       gradientTransform="translate(481.7137,531.21942)"
       inkscape:collect="always"
       xlink:href="#linearGradient6262"
       id="linearGradient6268"
       x1="23.533073"
       y1="13.07393"
       x2="11.019455"
       y2="13.07393"
       gradientUnits="userSpaceOnUse" />
    <linearGradient
       inkscape:collect="always"
       id="linearGradient6262">
      <stop
         style="stop-color:#ffffff;stop-opacity:0.25738397"
         offset="0"
         id="stop6264" />
      <stop
         style="stop-color:#ffffff;stop-opacity:0;"
         offset="1"
         id="stop6266" />
    </linearGradient>
    <linearGradient
       y2="13.07393"
       x2="11.019455"
       y1="19.660906"
       x1="17.60643"
       gradientTransform="matrix(1,0,0,-1,481.7137,579.21942)"
       gradientUnits="userSpaceOnUse"
       id="linearGradient942"
       xlink:href="#linearGradient6282"
       inkscape:collect="always" />
    <linearGradient
       id="linearGradient6282"
       inkscape:collect="always">
      <stop
         id="stop6284"
         offset="0"
         style="stop-color:#000000;stop-opacity:0.10970464" />
      <stop
         id="stop6286"
         offset="1"
         style="stop-color:#ffffff;stop-opacity:0;" />
    </linearGradient>
    <linearGradient
       y2="13.07393"
       x2="11.579766"
       y1="13.07393"
       x1="23.533073"
       gradientTransform="matrix(-1,0,0,1,529.71371,554.06312)"
       gradientUnits="userSpaceOnUse"
       id="linearGradient924"
       xlink:href="#linearGradient6262"
       inkscape:collect="always" />
    <linearGradient
       inkscape:collect="always"
       xlink:href="#linearGradient868"
       id="linearGradient862"
       x1="557.21429"
       y1="-579.3443"
       x2="557.21429"
       y2="-531.3443"
       gradientUnits="userSpaceOnUse"
       gradientTransform="translate(-50.972857,0.11523185)" />
  </defs>
  <sodipodi:namedview
     id="base"
     pagecolor="#ffffff"
     bordercolor="#666666"
     borderopacity="1.0"
     inkscape:pageopacity="0.0"
     inkscape:pageshadow="2"
     inkscape:zoom="4"
     inkscape:cx="25.912031"
     inkscape:cy="26.66622"
     inkscape:document-units="px"
     inkscape:current-layer="layer1"
     showgrid="false"
     fit-margin-top="0"
     fit-margin-left="0"
     fit-margin-right="0"
     fit-margin-bottom="0"
     inkscape:window-width="1366"
     inkscape:window-height="716"
     inkscape:window-x="0"
     inkscape:window-y="28"
     inkscape:window-maximized="1" />
  <metadata
     id="metadata6396">
    <rdf:RDF>
      <cc:Work
         rdf:about="">
        <dc:format>image/svg+xml</dc:format>
        <dc:type
           rdf:resource="http://purl.org/dc/dcmitype/StillImage" />
        <dc:title />
      </cc:Work>
    </rdf:RDF>
  </metadata>
  <g
     inkscape:label="Capa 1"
     inkscape:groupmode="layer"
     id="layer1"
     transform="translate(-481.71429,-531.2193)">
    <rect
       style="fill:url(#linearGradient862);fill-opacity:1;stroke:none"
       id="rect2991-1-7-7"
       width="48"
       height="48"
       x="481.71426"
       y="-579.2193"
       ry="1.9445436"
       transform="scale(1,-1)" />
    <path
       inkscape:connector-curvature="0"
       style="fill:#000000;fill-opacity:1;stroke:none"
       d="m 481.7143,576.2193 0,1.0625 c 0,1.0773 0.86022,1.9375 1.9375,1.9375 l 44.125,0 c 1.07728,0 1.9375,-0.8602 1.9375,-1.9375 l 0,-1.0625 c 0,1.0773 -0.86022,1.9375 -1.9375,1.9375 l -44.125,0 C 482.57452,578.1568 481.7143,577.2966 481.7143,576.2193 Z"
       id="rect846-3" />
    <path
       inkscape:connector-curvature="0"
       style="fill:#ffffff;fill-opacity:0.5372549;stroke:none"
       d="m 484.24555,531.8756 c -0.91709,0 -1.67115,0.6395 -1.84375,1.5 0.33561,-0.2799 0.77451,-0.4375 1.25,-0.4375 l 44.125,0 c 0.47549,0 0.91439,0.1576 1.25,0.4375 -0.1726,-0.8605 -0.92666,-1.5 -1.84375,-1.5 L 484.24555,531.8756 Z"
       id="path7515-1" />
    <path
       inkscape:connector-curvature="0"
       style="fill:#000000;fill-opacity:0.39215686;stroke:none"
       d="m 483.6518,531.2193 c -1.07728,0 -1.9375,0.8602 -1.9375,1.9375 l 0,43.0625 c 0,0.7934 0.48002,1.449 1.15625,1.75 -0.30934,-0.3333 -0.5,-0.7824 -0.5,-1.2812 l 0,-42.9375 c 0,-1.0482 0.8269,-1.875 1.875,-1.875 l 42.9375,0 c 1.0481,0 1.875,0.8268 1.875,1.875 l 0,42.9375 c 0,0.4988 -0.19066,0.9479 -0.5,1.2812 0.67623,-0.301 1.15625,-0.9566 1.15625,-1.75 l 0,-43.0625 c 0,-1.0773 -0.86022,-1.9375 -1.9375,-1.9375 L 483.6518,531.2193 Z"
       id="rect4280-0" />
    <g
       id="g855"
       transform="matrix(1.2471379,0,0,1.2471379,-106.86048,-135.80953)">
      <path
         id="path2783"
         style="fill:#ffffff;fill-rule:evenodd;stroke:#000000;stroke-width:1px;fill-opacity:1"
         d="m 482.67747,564.69549 c 4.3862,2.8138 13.963,-0.9506 6.0011,-11.025 -7.889,-9.983 7.839,-16.5299 12.506,-4.985"
         inkscape:connector-curvature="0" />
      <rect
         id="rect3565"
         style="fill:#000000;stroke:none"
         height="3"
         width="3"
         y="563.11755"
         x="480.18448" />
      <rect
         id="rect3567"
         style="fill:#000000;stroke:none"
         height="3"
         width="3"
         y="547.11761"
         x="499.18448" />
      <path
         id="path3571"
         style="fill:none;stroke:#000000;stroke-width:1px"
         d="m 481.62247,544.59849 15.13,18.921"
         inkscape:connector-curvature="0" />
      <path
         id="path3573"
         style="fill:#e6e6e6;stroke:#000000;stroke-opacity:1"
         d="m 482.68447,544.61749 c 3.7e-4,0.5526 -0.44745,1.0007 -1,1.0007 -0.55255,0 -1.0004,-0.4481 -1,-1.0007 -3.7e-4,-0.5525 0.44745,-1.0007 1,-1.0007 C 482.23702,543.61679 482.68487,544.06489 482.68447,544.61749 Z"
         inkscape:connector-curvature="0" />
      <path
         id="path3575"
         style="fill:#e6e6e6;stroke:#000000;stroke-opacity:1"
         d="m 497.68447,563.61749 c 3.7e-4,0.5526 -0.44745,1.0007 -1,1.0007 -0.55255,0 -1.0004,-0.4481 -1,-1.0007 -3.7e-4,-0.5525 0.44745,-1.0007 1,-1.0007 C 497.23702,562.61679 497.68487,563.06489 497.68447,563.61749 Z"
         inkscape:connector-curvature="0" />
      <rect
         id="rect3569"
         style="fill:#000000;stroke:none"
         height="3"
         width="3"
         y="552.11768"
         x="487.18448" />
    </g>
    <path
       style="opacity:0.6;color:#000000;fill:url(#linearGradient924);fill-opacity:1;fill-rule:nonzero;stroke:none;stroke-width:1;marker:none;visibility:visible;display:inline;overflow:visible;enable-background:accumulate"
       d="m 505.71341,555.21932 0,22.8438 20.0625,0 c 0.10843,-0.2427 0.1875,-0.4974 0.1875,-0.7813 l 0,-21.5625 c -0.64338,-0.3128 -1.36133,-0.5 -2.125,-0.5 L 505.71341,555.21932 Z"
       id="path6270"
       inkscape:connector-curvature="0" />
    <path
       style="opacity:0.6;color:#000000;fill:url(#linearGradient942);fill-opacity:1;fill-rule:nonzero;stroke:none;stroke-width:1;marker:none;visibility:visible;display:inline;overflow:visible;enable-background:accumulate"
       d="m 485.46341,555.21932 0,22.0625 c 0,0.1012 0.0165,0.1843 0.0312,0.2813 0.63718,0.3053 1.33979,0.5 2.09375,0.5 l 18.125,0 0,-22.8438 L 485.46341,555.21932 Z"
       id="path6274"
       inkscape:connector-curvature="0" />
    <path
       style="opacity:0.6;color:#000000;fill:url(#linearGradient6268);fill-opacity:1;fill-rule:nonzero;stroke:none;stroke-width:1;marker:none;visibility:visible;display:inline;overflow:visible;enable-background:accumulate"
       d="m 487.58841,532.37562 c -0.75396,0 -1.45657,0.1946 -2.09375,0.5 -0.0148,0.097 -0.0312,0.18 -0.0312,0.2812 l 0,22.0625 20.25,0 0,-22.8437 L 487.58841,532.37562 Z"
       id="path6249"
       inkscape:connector-curvature="0" />
    <path
       style="opacity:0.6;color:#000000;fill:url(#linearGradient6280);fill-opacity:1;fill-rule:nonzero;stroke:none;stroke-width:1;marker:none;visibility:visible;display:inline;overflow:visible;enable-background:accumulate"
       d="m 505.71341,532.37562 0,22.8437 20.25,0 0,-22.0625 c 0,-0.1012 -0.0165,-0.1843 -0.0312,-0.2812 -0.63718,-0.3054 -1.33979,-0.5 -2.09375,-0.5 L 505.71341,532.37562 Z"
       id="path6276"
       inkscape:connector-curvature="0" />
  </g>
</svg>
