<?xml version="1.0" encoding="UTF-8" standalone="no"?>
<!-- Created with Inkscape (http://www.inkscape.org/) -->

<svg
   xmlns:dc="http://purl.org/dc/elements/1.1/"
   xmlns:cc="http://creativecommons.org/ns#"
   xmlns:rdf="http://www.w3.org/1999/02/22-rdf-syntax-ns#"
   xmlns:svg="http://www.w3.org/2000/svg"
   xmlns="http://www.w3.org/2000/svg"
   xmlns:xlink="http://www.w3.org/1999/xlink"
   xmlns:sodipodi="http://sodipodi.sourceforge.net/DTD/sodipodi-0.dtd"
   xmlns:inkscape="http://www.inkscape.org/namespaces/inkscape"
   width="48"
   height="48"
   id="svg6399"
   version="1.1"
   inkscape:version="0.48+devel r12272"
   sodipodi:docname="javascript.svg">
  <defs
     id="defs6401">
    <linearGradient
       id="linearGradient943">
      <stop
         style="stop-color:#f2f2f2;stop-opacity:1"
         offset="0"
         id="stop945" />
      <stop
         style="stop-color:#ffffff;stop-opacity:1"
         offset="1"
         id="stop947" />
    </linearGradient>
    <linearGradient
       y2="13.07393"
       x2="11.579766"
       y1="13.07393"
       x1="23.533073"
       gradientTransform="matrix(-1,0,0,1,-1.6212939,20.536352)"
       gradientUnits="userSpaceOnUse"
       id="linearGradient924"
       xlink:href="#linearGradient6262"
       inkscape:collect="always" />
    <linearGradient
       inkscape:collect="always"
       id="linearGradient6262">
      <stop
         style="stop-color:#ffffff;stop-opacity:0.25738397"
         offset="0"
         id="stop6264" />
      <stop
         style="stop-color:#ffffff;stop-opacity:0;"
         offset="1"
         id="stop6266" />
    </linearGradient>
    <linearGradient
       y2="13.07393"
       x2="11.019455"
       y1="19.660906"
       x1="17.60643"
       gradientTransform="matrix(1,0,0,-1,-49.621294,45.692652)"
       gradientUnits="userSpaceOnUse"
       id="linearGradient942"
       xlink:href="#linearGradient6282"
       inkscape:collect="always" />
    <linearGradient
       id="linearGradient6282"
       inkscape:collect="always">
      <stop
         id="stop6284"
         offset="0"
         style="stop-color:#000000;stop-opacity:0.10970464" />
      <stop
         id="stop6286"
         offset="1"
         style="stop-color:#ffffff;stop-opacity:0;" />
    </linearGradient>
    <linearGradient
       gradientTransform="translate(-49.621294,-2.3073481)"
       inkscape:collect="always"
       xlink:href="#linearGradient6262"
       id="linearGradient6268"
       x1="23.533073"
       y1="13.07393"
       x2="11.019455"
       y2="13.07393"
       gradientUnits="userSpaceOnUse" />
    <linearGradient
       inkscape:collect="always"
       xlink:href="#linearGradient6288"
       id="linearGradient6280"
       gradientUnits="userSpaceOnUse"
       gradientTransform="matrix(-1,0,0,1,-1.6212939,-2.3073481)"
       x1="20.395853"
       y1="21.890017"
       x2="11.579766"
       y2="13.07393" />
    <linearGradient
       id="linearGradient6288"
       inkscape:collect="always">
      <stop
         id="stop6290"
         offset="0"
         style="stop-color:#000000;stop-opacity:0.13080169" />
      <stop
         id="stop6292"
         offset="1"
         style="stop-color:#ffffff;stop-opacity:0;" />
    </linearGradient>
    <linearGradient
       inkscape:collect="always"
       xlink:href="#linearGradient943"
       id="linearGradient4117"
       gradientUnits="userSpaceOnUse"
       gradientTransform="translate(-114.51414,1003.3955)"
       x1="92.14286"
       y1="-1049.092"
       x2="92.14286"
       y2="-1001.4687" />
  </defs>
  <sodipodi:namedview
     id="base"
     pagecolor="#ffffff"
     bordercolor="#666666"
     borderopacity="1.0"
     inkscape:pageopacity="0.0"
     inkscape:pageshadow="2"
     inkscape:zoom="5.6"
     inkscape:cx="-6.1729069"
     inkscape:cy="49.043862"
     inkscape:document-units="px"
     inkscape:current-layer="text832"
     showgrid="false"
     fit-margin-top="0"
     fit-margin-left="0"
     fit-margin-right="0"
     fit-margin-bottom="0"
     inkscape:window-width="1366"
     inkscape:window-height="716"
     inkscape:window-x="0"
     inkscape:window-y="28"
     inkscape:window-maximized="1"
     showguides="false" />
  <metadata
     id="metadata6404">
    <rdf:RDF>
      <cc:Work
         rdf:about="">
        <dc:format>image/svg+xml</dc:format>
        <dc:type
           rdf:resource="http://purl.org/dc/dcmitype/StillImage" />
        <dc:title />
      </cc:Work>
    </rdf:RDF>
  </metadata>
  <g
     inkscape:label="Capa 1"
     inkscape:groupmode="layer"
     id="layer1"
     transform="translate(-456,-605.50507)">
    <g
       transform="translate(505.62072,607.81252)"
       style="font-size:7.5px;font-style:normal;font-variant:normal;font-weight:bold;font-stretch:normal;line-height:125%;letter-spacing:0px;word-spacing:0px;fill:#ffffff;fill-opacity:1;stroke:none;font-family:Impact;-inkscape-font-specification:Impact Bold"
       id="text832">
      <rect
         style="fill:url(#linearGradient4117);fill-opacity:1;stroke:none"
         id="rect2991-1-7-3"
         width="48"
         height="48"
         x="-49.620716"
         y="-45.692547"
         ry="1.9445436"
         transform="scale(1,-1)" />
      <path
         style="fill:#ff7f2a;fill-opacity:1;fill-rule:evenodd;display:inline"
         id="path3672"
         inkscape:connector-curvature="0"
         d="m -22.414361,5.69255 c 1.340945,5.282808 -4.733776,6.889144 -6.924847,10.179148 -1.492076,2.241612 0.732378,4.642893 3.765147,7.378938 -1.182693,-2.67347 -5.195106,-5.016287 0,-9.119611 C -19.09584,9.0177482 -22.414361,5.69255 -22.414361,5.69255 z m 3.992192,6.546441 c 7.2e-5,0 -10.945433,2.731668 -5.713946,8.760124 1.544383,1.777758 -0.397326,3.367821 -0.397326,3.367821 0,0 3.918569,-2.006577 2.11908,-4.540884 C -24.09564,17.463754 -25.400481,16.285968 -18.422169,12.238991 z m 1.778513,10.765679 c -0.335497,0.0172 -0.681242,0.08184 -1.040617,0.208125 -0.336157,0.118986 -0.51085,0.397327 -0.51085,0.397327 0,0 0.2073,-0.09032 0.681132,-0.189203 1.937663,-0.403756 4.717236,2.594957 -1.286582,5.713945 -0.02782,0.07432 -0.113589,0.170284 -0.113513,0.170284 C -11.648744,27.395248 -13.4005,22.838307 -16.643656,23.00467 z m -12.979358,0.302726 c -0.765451,0.02003 -2.571901,0.184522 -4.654406,1.191982 -3.284765,1.588268 8.132339,2.310327 14.038899,0.756813 0.614059,-0.419044 1.456866,-0.775732 1.456866,-0.775732 0,0 -2.417583,0.422351 -4.824688,0.624371 -2.946203,0.24718 -6.095235,0.306884 -7.68166,0.09461 -3.756054,-0.502148 2.062314,-1.892036 2.062314,-1.892036 C -29.225689,23.307396 -29.367866,23.300721 -29.623014,23.307396 z m -0.964939,3.632707 c -5.418502,1.798359 3.022417,3.842289 10.595397,1.62715 -0.804611,-0.283634 -1.324426,-0.794653 -1.324426,-0.794653 -3.702677,0.712589 -5.842995,0.676998 -8.551998,0.397326 C -31.96336,27.953468 -30.587953,26.940103 -30.587953,26.940103 z m 0.756815,3.500264 c -4.920039,1.374712 3.006448,4.216495 9.27097,1.53255 -1.026023,-0.398729 -1.759591,-0.851415 -1.759591,-0.851415 -2.793593,0.528053 -4.105251,0.573312 -6.641046,0.283805 C -31.053623,31.165275 -29.831138,30.440367 -29.831138,30.440367 z m -3.178618,2.327204 c -2.114287,-0.08135 -6.898127,2.021675 -2.800212,2.686689 12.771622,2.070171 23.273342,-0.927184 19.960967,-2.421804 0,0 0.89836,0.74767 -1.002777,1.324424 -3.615047,1.094971 -15.044472,1.419277 -18.220297,0.03786 -1.140836,-0.49691 0.991542,-1.178963 1.664994,-1.324427 0.702182,-0.151904 1.116298,-0.113512 1.116298,-0.113512 C -32.449492,32.845016 -32.707716,32.779192 -33.009756,32.767571 z m 19.185235,1.892036 c 0,0 -0.408436,1.034082 -4.76793,1.854195 -4.918196,0.925935 -10.971459,0.820998 -14.568671,0.227044 0,0 0.735262,0.607703 4.521965,0.851415 C -22.87749,37.960624 -14.033977,37.386164 -13.824521,34.659607 Z" />
      <path
         inkscape:connector-curvature="0"
         style="fill:#000000;fill-opacity:1;stroke:none"
         d="m -49.620724,42.692552 0,1.0625 c 0,1.0773 0.86022,1.9375 1.9375,1.9375 l 44.1250001,0 c 1.07728,0 1.9375,-0.8602 1.9375,-1.9375 l 0,-1.0625 c 0,1.0773 -0.86022,1.9375 -1.9375,1.9375 l -44.1250001,0 C -48.760504,44.630052 -49.620724,43.769852 -49.620724,42.692552 Z"
         id="rect846-0" />
      <path
         inkscape:connector-curvature="0"
         style="fill:#ffffff;fill-opacity:0.5372549;stroke:none"
         d="m -47.089474,-1.6511481 c -0.91709,0 -1.67115,0.6395 -1.84375,1.49999999 0.33561,-0.2799 0.77451,-0.4375 1.25,-0.4375 l 44.1250001,0 c 0.47549,0 0.91439,0.1576 1.25,0.4375 -0.1726,-0.86049999 -0.92666,-1.49999999 -1.84375,-1.49999999 L -47.089474,-1.6511481 Z"
         id="path7515-3" />
      <path
         inkscape:connector-curvature="0"
         style="fill:#000000;fill-opacity:0.39215686;stroke:none"
         d="m -47.683224,-2.3074481 c -1.07728,0 -1.9375,0.8602 -1.9375,1.93749999 l 0,43.06250011 c 0,0.7934 0.48002,1.449 1.15625,1.75 -0.30934,-0.3333 -0.5,-0.7824 -0.5,-1.2812 l 0,-42.93750011 c 0,-1.0482 0.8269,-1.87499999 1.875,-1.87499999 l 42.9375001,0 c 1.0481,0 1.875,0.82679999 1.875,1.87499999 l 0,42.93750011 c 0,0.4988 -0.19066,0.9479 -0.5,1.2812 0.67623,-0.301 1.15625,-0.9566 1.15625,-1.75 l 0,-43.06250011 c 0,-1.07729999 -0.86022,-1.93749999 -1.9375,-1.93749999 L -47.683224,-2.3074481 Z"
         id="rect4280-1" />
      <path
         style="opacity:0.6;color:#000000;fill:url(#linearGradient924);fill-opacity:1;fill-rule:nonzero;stroke:none;stroke-width:1;marker:none;visibility:visible;display:inline;overflow:visible;enable-background:accumulate"
         d="m -25.621594,21.692552 0,22.8438 20.0625001,0 c 0.10844,-0.2427 0.1875,-0.4974 0.1875,-0.7813 l 0,-21.5625 c -0.64338,-0.3128 -1.36133,-0.5 -2.125,-0.5 L -25.621594,21.692552 Z"
         id="path6270"
         inkscape:connector-curvature="0" />
      <path
         style="opacity:0.6;color:#000000;fill:url(#linearGradient942);fill-opacity:1;fill-rule:nonzero;stroke:none;stroke-width:1;marker:none;visibility:visible;display:inline;overflow:visible;enable-background:accumulate"
         d="m -45.871594,21.692552 0,22.0625 c 0,0.1012 0.0165,0.1843 0.0312,0.2813 0.63718,0.3053 1.33979,0.5 2.09375,0.5 l 18.125,0 0,-22.8438 L -45.871594,21.692552 Z"
         id="path6274"
         inkscape:connector-curvature="0" />
      <path
         style="opacity:0.6;color:#000000;fill:url(#linearGradient6268);fill-opacity:1;fill-rule:nonzero;stroke:none;stroke-width:1;marker:none;visibility:visible;display:inline;overflow:visible;enable-background:accumulate"
         d="m -43.746594,-1.1511481 c -0.75396,0 -1.45657,0.19459999 -2.09375,0.49999999 -0.0148,0.097 -0.0312,0.18 -0.0312,0.2812 l 0,22.06250011 20.25,0 0,-22.8437001 L -43.746594,-1.1511481 Z"
         id="path6249"
         inkscape:connector-curvature="0" />
      <path
         style="opacity:0.6;color:#000000;fill:url(#linearGradient6280);fill-opacity:1;fill-rule:nonzero;stroke:none;stroke-width:1;marker:none;visibility:visible;display:inline;overflow:visible;enable-background:accumulate"
         d="m -25.621594,-1.1511481 0,22.8437001 20.2500001,0 0,-22.06250011 c 0,-0.1012 -0.0165,-0.1843 -0.0312,-0.2812 -0.63718,-0.3054 -1.33979,-0.49999999 -2.09375,-0.49999999 L -25.621594,-1.1511481 Z"
         id="path6276"
         inkscape:connector-curvature="0" />
      <g
         style="font-size:10px;font-style:normal;font-variant:normal;font-weight:normal;font-stretch:normal;line-height:125%;letter-spacing:0px;word-spacing:0px;fill:#000000;fill-opacity:1;stroke:none;font-family:Decker;-inkscape-font-specification:Decker"
         id="text6661"
         transform="translate(-630.33501,-607.02681)" />
    </g>
  </g>
</svg>
