<?xml version="1.0" encoding="UTF-8" standalone="no"?>
<!-- Created with Inkscape (http://www.inkscape.org/) -->

<svg
   xmlns:dc="http://purl.org/dc/elements/1.1/"
   xmlns:cc="http://creativecommons.org/ns#"
   xmlns:rdf="http://www.w3.org/1999/02/22-rdf-syntax-ns#"
   xmlns:svg="http://www.w3.org/2000/svg"
   xmlns="http://www.w3.org/2000/svg"
   xmlns:xlink="http://www.w3.org/1999/xlink"
   xmlns:sodipodi="http://sodipodi.sourceforge.net/DTD/sodipodi-0.dtd"
   xmlns:inkscape="http://www.inkscape.org/namespaces/inkscape"
   width="48"
   height="48"
   id="svg6399"
   version="1.1"
   inkscape:version="0.48+devel r12269"
   sodipodi:docname="text-css.svg">
  <defs
     id="defs6401">
    <linearGradient
       id="linearGradient1506"
       inkscape:collect="always">
      <stop
         id="stop1508"
         offset="0"
         style="stop-color:#ff9600;stop-opacity:1" />
      <stop
         id="stop1510"
         offset="1"
         style="stop-color:#ffdd55;stop-opacity:1" />
    </linearGradient>
    <linearGradient
       y2="13.07393"
       x2="11.579766"
       y1="21.890017"
       x1="20.395853"
       gradientTransform="matrix(-1,0,0,1,503.99942,605.50517)"
       gradientUnits="userSpaceOnUse"
       id="linearGradient6280"
       xlink:href="#linearGradient6288"
       inkscape:collect="always" />
    <linearGradient
       inkscape:collect="always"
       id="linearGradient6288">
      <stop
         style="stop-color:#000000;stop-opacity:0.13080169"
         offset="0"
         id="stop6290" />
      <stop
         style="stop-color:#ffffff;stop-opacity:0;"
         offset="1"
         id="stop6292" />
    </linearGradient>
    <linearGradient
       gradientUnits="userSpaceOnUse"
       y2="13.07393"
       x2="11.019455"
       y1="13.07393"
       x1="23.533073"
       id="linearGradient6268"
       xlink:href="#linearGradient6262"
       inkscape:collect="always"
       gradientTransform="translate(455.99942,605.50517)" />
    <linearGradient
       id="linearGradient6262"
       inkscape:collect="always">
      <stop
         id="stop6264"
         offset="0"
         style="stop-color:#ffffff;stop-opacity:0.25738397" />
      <stop
         id="stop6266"
         offset="1"
         style="stop-color:#ffffff;stop-opacity:0;" />
    </linearGradient>
    <linearGradient
       gradientTransform="matrix(-1,0,0,1,503.99942,628.34887)"
       y2="13.07393"
       x2="11.579766"
       y1="13.07393"
       x1="23.533073"
       gradientUnits="userSpaceOnUse"
       id="linearGradient6272"
       xlink:href="#linearGradient6262"
       inkscape:collect="always" />
    <linearGradient
       inkscape:collect="always"
       id="linearGradient6282">
      <stop
         style="stop-color:#000000;stop-opacity:0.10970464"
         offset="0"
         id="stop6284" />
      <stop
         style="stop-color:#ffffff;stop-opacity:0;"
         offset="1"
         id="stop6286" />
    </linearGradient>
    <linearGradient
       inkscape:collect="always"
       xlink:href="#linearGradient6282"
       id="linearGradient942"
       gradientUnits="userSpaceOnUse"
       gradientTransform="matrix(1,0,0,-1,455.99942,653.50517)"
       x1="17.60643"
       y1="19.660906"
       x2="11.019455"
       y2="13.07393" />
    <linearGradient
       gradientTransform="translate(397.97561,400.05292)"
       gradientUnits="userSpaceOnUse"
       y2="-1005.5661"
       x2="81.84761"
       y1="-1053.5555"
       x1="81.84761"
       id="linearGradient14035"
       xlink:href="#linearGradient1506"
       inkscape:collect="always" />
  </defs>
  <sodipodi:namedview
     id="base"
     pagecolor="#ffffff"
     bordercolor="#666666"
     borderopacity="1.0"
     inkscape:pageopacity="0.0"
     inkscape:pageshadow="2"
     inkscape:zoom="0.98994949"
     inkscape:cx="-465.8053"
     inkscape:cy="17.71271"
     inkscape:document-units="px"
     inkscape:current-layer="layer1"
     showgrid="false"
     fit-margin-top="0"
     fit-margin-left="0"
     fit-margin-right="0"
     fit-margin-bottom="0"
     inkscape:window-width="1366"
     inkscape:window-height="716"
     inkscape:window-x="0"
     inkscape:window-y="28"
     inkscape:window-maximized="1" />
  <metadata
     id="metadata6404">
    <rdf:RDF>
      <cc:Work
         rdf:about="">
        <dc:format>image/svg+xml</dc:format>
        <dc:type
           rdf:resource="http://purl.org/dc/dcmitype/StillImage" />
        <dc:title />
      </cc:Work>
    </rdf:RDF>
  </metadata>
  <g
     inkscape:label="Capa 1"
     inkscape:groupmode="layer"
     id="layer1"
     transform="translate(-456,-605.50507)">
    <rect
       style="fill:url(#linearGradient14035);fill-opacity:1;stroke:none"
       id="rect2991-1-7-5"
       width="48"
       height="48"
       x="456"
       y="-653.50507"
       ry="1.9445436"
       transform="scale(1,-1)" />
    <g
       style="font-size:25.26984215px;font-style:normal;font-variant:normal;font-weight:bold;font-stretch:normal;line-height:125%;letter-spacing:0px;word-spacing:0px;fill:#000000;fill-opacity:1;stroke:none;font-family:Impact;-inkscape-font-specification:Impact Bold"
       id="text842"
       transform="matrix(1.3493478,0,0,1.3493478,-167.68696,-214.51886)">
      <path
         d="m 466.67412,626.98575 0,-2.96131 q 1.34492,-0.0123 2.02356,-0.78968 0.67863,-0.78968 0.67863,-3.52889 0,-2.08526 0.14807,-3.0847 0.1604,-1.01178 0.75266,-1.69041 0.59226,-0.67864 1.53001,-0.97477 0.93775,-0.30847 2.65284,-0.30847 l 0.65396,0 0,2.94897 q -1.78913,0 -2.14695,0.37017 -0.34549,0.37016 -0.37016,1.44364 -0.074,2.9613 -0.19743,3.8497 -0.11104,0.88839 -0.5429,1.70275 -0.41952,0.80202 -1.57937,1.54235 1.09815,0.66629 1.59171,1.5917 0.50589,0.92541 0.59226,2.66518 l 0.18508,3.59059 q 0.11105,0.51823 0.53057,0.77734 0.41952,0.27146 1.92485,0.27146 l 0,2.96131 -0.64162,0 q -1.9742,0 -3.04768,-0.45654 -1.07347,-0.44419 -1.55469,-1.46831 -0.48121,-1.02412 -0.48121,-3.3068 0,-2.51711 -0.17274,-3.22042 -0.17275,-0.70332 -0.6663,-1.28324 Q 468.04372,627.03511 466.67412,626.98575 Z"
         style="fill:#000000"
         id="path853"
         inkscape:connector-curvature="0" />
      <path
         d="m 493.3259,626.98575 q -1.34492,0.0123 -2.02356,0.80203 -0.67863,0.78968 -0.67863,3.50421 0,2.0976 -0.14807,3.09704 -0.14806,1.01178 -0.74032,1.69041 -0.59227,0.67864 -1.53001,0.97477 -0.93775,0.30847 -2.65284,0.30847 l -0.65396,0 0,-2.96131 q 1.71509,0 2.09759,-0.35783 0.39485,-0.35782 0.41952,-1.45597 0.074,-3.15874 0.2221,-4.04713 0.16041,-0.90073 0.61694,-1.67807 0.46887,-0.77735 1.46832,-1.35727 -1.06114,-0.69097 -1.48066,-1.35727 -0.41952,-0.66629 -0.56758,-1.44364 -0.14807,-0.78968 -0.2221,-2.91195 -0.074,-2.13461 -0.17274,-2.44308 -0.0987,-0.30847 -0.48122,-0.53057 -0.37016,-0.2221 -1.91251,-0.2221 l 0,-2.94897 0.65396,0 q 1.9742,0 3.04768,0.45654 1.07347,0.44419 1.55469,1.46831 0.48121,1.02412 0.48121,3.3068 0,2.61582 0.18508,3.29446 0.19742,0.67863 0.67863,1.24621 0.49356,0.55525 1.83848,0.6046 L 493.3259,626.98575 Z"
         style="fill:#000000"
         id="path855"
         inkscape:connector-curvature="0" />
    </g>
    <path
       inkscape:connector-curvature="0"
       style="fill:#000000;fill-opacity:1;stroke:none"
       d="m 455.99999,650.50507 0,1.0625 c 0,1.0773 0.86022,1.9375 1.9375,1.9375 l 44.125,0 c 1.07728,0 1.9375,-0.8602 1.9375,-1.9375 l 0,-1.0625 c 0,1.0773 -0.86022,1.9375 -1.9375,1.9375 l -44.125,0 C 456.86021,652.44257 455.99999,651.58237 455.99999,650.50507 Z"
       id="rect846-0" />
    <path
       inkscape:connector-curvature="0"
       style="fill:#ffffff;fill-opacity:0.5372549;stroke:none"
       d="m 458.53124,606.16137 c -0.91709,0 -1.67115,0.6395 -1.84375,1.5 0.33561,-0.2799 0.77451,-0.4375 1.25,-0.4375 l 44.125,0 c 0.47549,0 0.91439,0.1576 1.25,0.4375 -0.1726,-0.8605 -0.92666,-1.5 -1.84375,-1.5 L 458.53124,606.16137 Z"
       id="path7515-2" />
    <path
       inkscape:connector-curvature="0"
       style="fill:#000000;fill-opacity:0.39215686;stroke:none"
       d="m 457.93749,605.50507 c -1.07728,0 -1.9375,0.8602 -1.9375,1.9375 l 0,43.0625 c 0,0.7934 0.48002,1.449 1.15625,1.75 -0.30934,-0.3333 -0.5,-0.7824 -0.5,-1.2812 l 0,-42.9375 c 0,-1.0482 0.8269,-1.875 1.875,-1.875 l 42.9375,0 c 1.0481,0 1.875,0.8268 1.875,1.875 l 0,42.9375 c 0,0.4988 -0.19066,0.9479 -0.5,1.2812 0.67623,-0.301 1.15625,-0.9566 1.15625,-1.75 l 0,-43.0625 c 0,-1.0773 -0.86022,-1.9375 -1.9375,-1.9375 L 457.93749,605.50507 Z"
       id="rect4280-6" />
    <path
       style="opacity:0.6;color:#000000;fill:url(#linearGradient6272);fill-opacity:1;fill-rule:nonzero;stroke:none;stroke-width:1;marker:none;visibility:visible;display:inline;overflow:visible;enable-background:accumulate"
       d="m 479.99912,629.50507 0,22.8438 20.0625,0 c 0.10844,-0.2427 0.1875,-0.4974 0.1875,-0.7813 l 0,-21.5625 c -0.64338,-0.3128 -1.36133,-0.5 -2.125,-0.5 L 479.99912,629.50507 Z"
       id="path6270"
       inkscape:connector-curvature="0" />
    <path
       style="opacity:0.6;color:#000000;fill:url(#linearGradient942);fill-opacity:1;fill-rule:nonzero;stroke:none;stroke-width:1;marker:none;visibility:visible;display:inline;overflow:visible;enable-background:accumulate"
       d="m 459.74912,629.50507 0,22.0625 c 0,0.1012 0.0165,0.1843 0.0312,0.2813 0.63718,0.3053 1.33979,0.5 2.09375,0.5 l 18.125,0 0,-22.8438 L 459.74912,629.50507 Z"
       id="path6274"
       inkscape:connector-curvature="0" />
    <path
       style="opacity:0.6;color:#000000;fill:url(#linearGradient6268);fill-opacity:1;fill-rule:nonzero;stroke:none;stroke-width:1;marker:none;visibility:visible;display:inline;overflow:visible;enable-background:accumulate"
       d="m 461.87412,606.66137 c -0.75396,0 -1.45657,0.1946 -2.09375,0.5 -0.0148,0.097 -0.0312,0.18 -0.0312,0.2812 l 0,22.0625 20.25,0 0,-22.8437 L 461.87412,606.66137 Z"
       id="path6249"
       inkscape:connector-curvature="0" />
    <path
       style="opacity:0.6;color:#000000;fill:url(#linearGradient6280);fill-opacity:1;fill-rule:nonzero;stroke:none;stroke-width:1;marker:none;visibility:visible;display:inline;overflow:visible;enable-background:accumulate"
       d="m 479.99912,606.66137 0,22.8437 20.25,0 0,-22.0625 c 0,-0.1012 -0.0165,-0.1843 -0.0312,-0.2812 -0.63718,-0.3054 -1.33979,-0.5 -2.09375,-0.5 L 479.99912,606.66137 Z"
       id="path6276"
       inkscape:connector-curvature="0" />
  </g>
</svg>
