<?xml version="1.0" encoding="UTF-8" standalone="no"?>
<!-- Created with Inkscape (http://www.inkscape.org/) -->

<svg
   xmlns:dc="http://purl.org/dc/elements/1.1/"
   xmlns:cc="http://creativecommons.org/ns#"
   xmlns:rdf="http://www.w3.org/1999/02/22-rdf-syntax-ns#"
   xmlns:svg="http://www.w3.org/2000/svg"
   xmlns="http://www.w3.org/2000/svg"
   xmlns:xlink="http://www.w3.org/1999/xlink"
   xmlns:sodipodi="http://sodipodi.sourceforge.net/DTD/sodipodi-0.dtd"
   xmlns:inkscape="http://www.inkscape.org/namespaces/inkscape"
   width="48"
   height="48"
   id="svg6390"
   version="1.1"
   inkscape:version="0.48+devel r12272"
   sodipodi:docname="text-x-generic-template.svg">
  <defs
     id="defs6392">
    <linearGradient
       id="linearGradient943">
      <stop
         id="stop945"
         offset="0"
         style="stop-color:#0032a5;stop-opacity:1" />
      <stop
         id="stop947"
         offset="1"
         style="stop-color:#71c4d2;stop-opacity:1" />
    </linearGradient>
    <linearGradient
       inkscape:collect="always"
       xlink:href="#linearGradient6262"
       id="linearGradient924"
       gradientUnits="userSpaceOnUse"
       gradientTransform="matrix(-1,0,0,1,332.57086,536.92027)"
       x1="23.533073"
       y1="13.07393"
       x2="11.579766"
       y2="13.07393" />
    <linearGradient
       id="linearGradient6262"
       inkscape:collect="always">
      <stop
         id="stop6264"
         offset="0"
         style="stop-color:#ffffff;stop-opacity:0.25738397" />
      <stop
         id="stop6266"
         offset="1"
         style="stop-color:#ffffff;stop-opacity:0;" />
    </linearGradient>
    <linearGradient
       inkscape:collect="always"
       xlink:href="#linearGradient6282"
       id="linearGradient942"
       gradientUnits="userSpaceOnUse"
       gradientTransform="matrix(1,0,0,-1,284.57086,562.07657)"
       x1="17.60643"
       y1="19.660906"
       x2="11.019455"
       y2="13.07393" />
    <linearGradient
       inkscape:collect="always"
       id="linearGradient6282">
      <stop
         style="stop-color:#000000;stop-opacity:0.10970464"
         offset="0"
         id="stop6284" />
      <stop
         style="stop-color:#ffffff;stop-opacity:0;"
         offset="1"
         id="stop6286" />
    </linearGradient>
    <linearGradient
       gradientUnits="userSpaceOnUse"
       y2="13.07393"
       x2="11.019455"
       y1="13.07393"
       x1="23.533073"
       id="linearGradient6268"
       xlink:href="#linearGradient6262"
       inkscape:collect="always"
       gradientTransform="translate(284.57086,514.07657)" />
    <linearGradient
       y2="13.07393"
       x2="11.579766"
       y1="21.890017"
       x1="20.395853"
       gradientTransform="matrix(-1,0,0,1,332.57086,514.07657)"
       gradientUnits="userSpaceOnUse"
       id="linearGradient6280"
       xlink:href="#linearGradient6288"
       inkscape:collect="always" />
    <linearGradient
       inkscape:collect="always"
       id="linearGradient6288">
      <stop
         style="stop-color:#000000;stop-opacity:0.13080169"
         offset="0"
         id="stop6290" />
      <stop
         style="stop-color:#ffffff;stop-opacity:0;"
         offset="1"
         id="stop6292" />
    </linearGradient>
    <linearGradient
       y2="-1001.4687"
       x2="92.14286"
       y1="-1049.092"
       x1="92.14286"
       gradientTransform="translate(219.67801,487.01155)"
       gradientUnits="userSpaceOnUse"
       id="linearGradient4117"
       xlink:href="#linearGradient943"
       inkscape:collect="always" />
  </defs>
  <sodipodi:namedview
     id="base"
     pagecolor="#ffffff"
     bordercolor="#666666"
     borderopacity="1.0"
     inkscape:pageopacity="0.0"
     inkscape:pageshadow="2"
     inkscape:zoom="3.959798"
     inkscape:cx="-8.4248137"
     inkscape:cy="40.271408"
     inkscape:document-units="px"
     inkscape:current-layer="layer1"
     showgrid="false"
     fit-margin-top="0"
     fit-margin-left="0"
     fit-margin-right="0"
     fit-margin-bottom="0"
     inkscape:window-width="1366"
     inkscape:window-height="716"
     inkscape:window-x="0"
     inkscape:window-y="28"
     inkscape:window-maximized="1"
     showguides="false" />
  <metadata
     id="metadata6395">
    <rdf:RDF>
      <cc:Work
         rdf:about="">
        <dc:format>image/svg+xml</dc:format>
        <dc:type
           rdf:resource="http://purl.org/dc/dcmitype/StillImage" />
        <dc:title />
      </cc:Work>
    </rdf:RDF>
  </metadata>
  <g
     inkscape:label="Capa 1"
     inkscape:groupmode="layer"
     id="layer1"
     transform="translate(-284.57143,-514.07647)">
    <rect
       style="fill:url(#linearGradient4117);fill-opacity:1;stroke:none"
       id="rect2991-1-7-3"
       width="48"
       height="48"
       x="284.57144"
       y="-562.07648"
       ry="1.9445436"
       transform="scale(1,-1)" />
    <path
       style="fill:#ffffff;fill-opacity:0.19760717;stroke:none"
       d="M 5.71875 0 L 5.71875 5.71875 L 0 5.71875 L 0 6.28125 L 5.71875 6.28125 L 5.71875 11.71875 L 0 11.71875 L 0 12.28125 L 5.71875 12.28125 L 5.71875 17.71875 L 0 17.71875 L 0 18.28125 L 5.71875 18.28125 L 5.71875 23.71875 L 0 23.71875 L 0 24.28125 L 5.71875 24.28125 L 5.71875 29.71875 L 0 29.71875 L 0 30.28125 L 5.71875 30.28125 L 5.71875 35.71875 L 0 35.71875 L 0 36.28125 L 5.71875 36.28125 L 5.71875 41.71875 L 0 41.71875 L 0 42.28125 L 5.71875 42.28125 L 5.71875 48 L 6.28125 48 L 6.28125 42.28125 L 11.71875 42.28125 L 11.71875 48 L 12.28125 48 L 12.28125 42.28125 L 17.71875 42.28125 L 17.71875 48 L 18.28125 48 L 18.28125 42.28125 L 23.71875 42.28125 L 23.71875 48 L 24.28125 48 L 24.28125 42.28125 L 29.71875 42.28125 L 29.71875 48 L 30.28125 48 L 30.28125 42.28125 L 35.71875 42.28125 L 35.71875 48 L 36.28125 48 L 36.28125 42.28125 L 41.71875 42.28125 L 41.71875 48 L 42.28125 48 L 42.28125 42.28125 L 48 42.28125 L 48 41.71875 L 42.28125 41.71875 L 42.28125 36.28125 L 48 36.28125 L 48 35.71875 L 42.28125 35.71875 L 42.28125 30.28125 L 48 30.28125 L 48 29.71875 L 42.28125 29.71875 L 42.28125 24.28125 L 48 24.28125 L 48 23.71875 L 42.28125 23.71875 L 42.28125 18.28125 L 48 18.28125 L 48 17.71875 L 42.28125 17.71875 L 42.28125 12.28125 L 48 12.28125 L 48 11.71875 L 42.28125 11.71875 L 42.28125 6.28125 L 48 6.28125 L 48 5.71875 L 42.28125 5.71875 L 42.28125 0 L 41.71875 0 L 41.71875 5.71875 L 36.28125 5.71875 L 36.28125 0 L 35.71875 0 L 35.71875 5.71875 L 30.28125 5.71875 L 30.28125 0 L 29.71875 0 L 29.71875 5.71875 L 24.28125 5.71875 L 24.28125 0 L 23.71875 0 L 23.71875 5.71875 L 18.28125 5.71875 L 18.28125 0 L 17.71875 0 L 17.71875 5.71875 L 12.28125 5.71875 L 12.28125 0 L 11.71875 0 L 11.71875 5.71875 L 6.28125 5.71875 L 6.28125 0 L 5.71875 0 z M 6.28125 6.28125 L 11.71875 6.28125 L 11.71875 11.71875 L 6.28125 11.71875 L 6.28125 6.28125 z M 12.28125 6.28125 L 17.71875 6.28125 L 17.71875 11.71875 L 12.28125 11.71875 L 12.28125 6.28125 z M 18.28125 6.28125 L 23.71875 6.28125 L 23.71875 11.71875 L 18.28125 11.71875 L 18.28125 6.28125 z M 24.28125 6.28125 L 29.71875 6.28125 L 29.71875 11.71875 L 24.28125 11.71875 L 24.28125 6.28125 z M 30.28125 6.28125 L 35.71875 6.28125 L 35.71875 11.71875 L 30.28125 11.71875 L 30.28125 6.28125 z M 36.28125 6.28125 L 41.71875 6.28125 L 41.71875 11.71875 L 36.28125 11.71875 L 36.28125 6.28125 z M 6.28125 12.28125 L 11.71875 12.28125 L 11.71875 17.71875 L 6.28125 17.71875 L 6.28125 12.28125 z M 12.28125 12.28125 L 17.71875 12.28125 L 17.71875 17.71875 L 12.28125 17.71875 L 12.28125 12.28125 z M 18.28125 12.28125 L 23.71875 12.28125 L 23.71875 17.71875 L 18.28125 17.71875 L 18.28125 12.28125 z M 24.28125 12.28125 L 29.71875 12.28125 L 29.71875 17.71875 L 24.28125 17.71875 L 24.28125 12.28125 z M 30.28125 12.28125 L 35.71875 12.28125 L 35.71875 17.71875 L 30.28125 17.71875 L 30.28125 12.28125 z M 36.28125 12.28125 L 41.71875 12.28125 L 41.71875 17.71875 L 36.28125 17.71875 L 36.28125 12.28125 z M 6.28125 18.28125 L 11.71875 18.28125 L 11.71875 23.71875 L 6.28125 23.71875 L 6.28125 18.28125 z M 12.28125 18.28125 L 17.71875 18.28125 L 17.71875 23.71875 L 12.28125 23.71875 L 12.28125 18.28125 z M 18.28125 18.28125 L 23.71875 18.28125 L 23.71875 23.71875 L 18.28125 23.71875 L 18.28125 18.28125 z M 24.28125 18.28125 L 29.71875 18.28125 L 29.71875 23.71875 L 24.28125 23.71875 L 24.28125 18.28125 z M 30.28125 18.28125 L 35.71875 18.28125 L 35.71875 23.71875 L 30.28125 23.71875 L 30.28125 18.28125 z M 36.28125 18.28125 L 41.71875 18.28125 L 41.71875 23.71875 L 36.28125 23.71875 L 36.28125 18.28125 z M 6.28125 24.28125 L 11.71875 24.28125 L 11.71875 29.71875 L 6.28125 29.71875 L 6.28125 24.28125 z M 12.28125 24.28125 L 17.71875 24.28125 L 17.71875 29.71875 L 12.28125 29.71875 L 12.28125 24.28125 z M 18.28125 24.28125 L 23.71875 24.28125 L 23.71875 29.71875 L 18.28125 29.71875 L 18.28125 24.28125 z M 24.28125 24.28125 L 29.71875 24.28125 L 29.71875 29.71875 L 24.28125 29.71875 L 24.28125 24.28125 z M 30.28125 24.28125 L 35.71875 24.28125 L 35.71875 29.71875 L 30.28125 29.71875 L 30.28125 24.28125 z M 36.28125 24.28125 L 41.71875 24.28125 L 41.71875 29.71875 L 36.28125 29.71875 L 36.28125 24.28125 z M 6.28125 30.28125 L 11.71875 30.28125 L 11.71875 35.71875 L 6.28125 35.71875 L 6.28125 30.28125 z M 12.28125 30.28125 L 17.71875 30.28125 L 17.71875 35.71875 L 12.28125 35.71875 L 12.28125 30.28125 z M 18.28125 30.28125 L 23.71875 30.28125 L 23.71875 35.71875 L 18.28125 35.71875 L 18.28125 30.28125 z M 24.28125 30.28125 L 29.71875 30.28125 L 29.71875 35.71875 L 24.28125 35.71875 L 24.28125 30.28125 z M 30.28125 30.28125 L 35.71875 30.28125 L 35.71875 35.71875 L 30.28125 35.71875 L 30.28125 30.28125 z M 36.28125 30.28125 L 41.71875 30.28125 L 41.71875 35.71875 L 36.28125 35.71875 L 36.28125 30.28125 z M 6.28125 36.28125 L 11.71875 36.28125 L 11.71875 41.71875 L 6.28125 41.71875 L 6.28125 36.28125 z M 12.28125 36.28125 L 17.71875 36.28125 L 17.71875 41.71875 L 12.28125 41.71875 L 12.28125 36.28125 z M 18.28125 36.28125 L 23.71875 36.28125 L 23.71875 41.71875 L 18.28125 41.71875 L 18.28125 36.28125 z M 24.28125 36.28125 L 29.71875 36.28125 L 29.71875 41.71875 L 24.28125 41.71875 L 24.28125 36.28125 z M 30.28125 36.28125 L 35.71875 36.28125 L 35.71875 41.71875 L 30.28125 41.71875 L 30.28125 36.28125 z M 36.28125 36.28125 L 41.71875 36.28125 L 41.71875 41.71875 L 36.28125 41.71875 L 36.28125 36.28125 z "
       transform="translate(284.57143,514.07647)"
       id="rect916" />
    <path
       inkscape:connector-curvature="0"
       style="fill:#000000;fill-opacity:1;stroke:none"
       d="m 284.57143,559.07647 0,1.0625 c 0,1.0773 0.86022,1.9375 1.9375,1.9375 l 44.125,0 c 1.07728,0 1.9375,-0.8602 1.9375,-1.9375 l 0,-1.0625 c 0,1.0773 -0.86022,1.9375 -1.9375,1.9375 l -44.125,0 C 285.43165,561.01397 284.57143,560.15377 284.57143,559.07647 Z"
       id="rect846-0" />
    <path
       inkscape:connector-curvature="0"
       style="fill:#000000;fill-opacity:0.39215686;stroke:none"
       d="m 286.50893,514.07647 c -1.07728,0 -1.9375,0.8602 -1.9375,1.9375 l 0,43.0625 c 0,0.7934 0.48002,1.449 1.15625,1.75 -0.30934,-0.3333 -0.5,-0.7824 -0.5,-1.2812 l 0,-42.9375 c 0,-1.0482 0.8269,-1.875 1.875,-1.875 l 42.9375,0 c 1.0481,0 1.875,0.8268 1.875,1.875 l 0,42.9375 c 0,0.4988 -0.19066,0.9479 -0.5,1.2812 0.67623,-0.301 1.15625,-0.9566 1.15625,-1.75 l 0,-43.0625 c 0,-1.0773 -0.86022,-1.9375 -1.9375,-1.9375 L 286.50893,514.07647 Z"
       id="rect4280-1" />
    <path
       inkscape:connector-curvature="0"
       style="fill:#ffffff;fill-opacity:0.5372549;stroke:none"
       d="m 287.10268,514.73277 c -0.91709,0 -1.67115,0.6395 -1.84375,1.5 0.33561,-0.2799 0.77451,-0.4375 1.25,-0.4375 l 44.125,0 c 0.47549,0 0.91439,0.1576 1.25,0.4375 -0.1726,-0.8605 -0.92666,-1.5 -1.84375,-1.5 L 287.10268,514.73277 Z"
       id="path7515-3" />
    <path
       inkscape:connector-curvature="0"
       id="path240"
       style="fill:#ffffff;fill-opacity:0.79096043;fill-rule:nonzero;stroke:none"
       d="m 302.40856,549.96447 c 0.55687,-0.16136 1.23334,-0.11171 1.80685,-0.17348 0.86097,-0.0931 1.72223,-0.17971 2.5832,-0.27223 1.81616,-0.1955 3.65602,-0.27166 5.47895,-0.38507 1.81081,-0.11312 3.62217,-0.21044 5.43608,-0.2553 0.92444,-0.0228 1.85058,-0.0564 2.77136,0.0409 0.13145,0.0139 0.41299,-0.0945 0.17716,-0.0948 0.13766,0 0.2742,-0.14218 0.0666,-0.1419 -0.0163,0 -0.0327,0 -0.0488,0 -0.0488,2.3e-4 -0.16136,0.0121 -0.1811,0.0708 -0.005,0.0163 -1.77104,-0.0341 -1.9465,-0.0299 -0.8116,0.0183 -1.62236,0.0364 -2.4334,0.0697 -1.62884,0.0665 -3.25572,0.1735 -4.88231,0.27872 -1.62349,0.10466 -3.25656,0.19691 -4.87272,0.38563 -0.78734,0.092 -1.57581,0.17519 -2.36259,0.27139 -0.51512,0.0632 -1.09342,0.0488 -1.59021,0.20706 -0.0231,0.007 -0.037,0.0384 -0.003,0.0284 l 0,0" />
    <path
       inkscape:connector-curvature="0"
       id="path242"
       style="fill:#ffffff;fill-opacity:0.79096043;fill-rule:nonzero;stroke:none"
       d="m 320.36877,548.88403 c -0.007,-0.0115 -0.0143,-0.0234 -0.0211,-0.0352 -9.1e-4,-0.0102 -0.0181,-0.0133 -0.026,-0.0138 -1.19611,-0.081 -2.50083,0.30354 -3.68875,0.45136 -1.68273,0.20988 -3.35473,0.52554 -5.0228,0.82486 -1.59358,0.2852 -3.10903,0.86097 -4.67074,1.27199 -0.7216,0.18985 -1.45591,0.32046 -2.17809,0.50863 -0.7329,0.1907 -1.48611,0.23583 -2.21816,0.41214 -0.0507,0.0122 -0.11453,0.0888 -0.0228,0.0849 1.25874,-0.0502 2.48193,-0.45108 3.70483,-0.71456 1.51177,-0.32639 2.95049,-0.90555 4.45577,-1.24575 0.81471,-0.18421 9.56265,-1.76708 9.60412,-1.53717 0.002,0.0105 0.0163,0.0125 0.0248,0.0135 0.0141,0.002 0.028,0.004 0.0421,0.005 0.028,0.004 0.0598,-0.0191 0.017,-0.0262 l 0,0" />
    <path
       inkscape:connector-curvature="0"
       id="path244"
       style="fill:#ffffff;fill-opacity:0.79096043;fill-rule:nonzero;stroke:none"
       d="m 301.80092,554.07158 c 1.1236,-0.73093 2.49884,-1.18708 3.71864,-1.73408 1.54197,-0.69142 3.2309,-1.19272 4.84057,-1.7084 1.4435,-0.46292 2.91522,-0.86745 4.38582,-1.23305 0.76167,-0.18957 1.53829,-0.36617 2.30729,-0.52076 0.89933,-0.18083 1.81532,-0.45277 2.73356,-0.48211 0.19634,-0.007 0.19634,-0.14669 -0.002,-0.14049 -1.46043,0.0451 -2.92539,0.52612 -4.34914,0.83192 -1.74508,0.37463 -3.48084,0.88974 -5.18049,1.43278 -1.5383,0.49142 -3.08111,1.02854 -4.57935,1.63252 -1.30809,0.52753 -2.7358,1.11401 -3.90201,1.91292 -0.0239,0.0161 0.0147,0.0163 0.0268,0.009 l 0,0" />
    <path
       inkscape:connector-curvature="0"
       id="path246"
       style="fill:#ffffff;fill-opacity:0.79096043;fill-rule:nonzero;stroke:none"
       d="m 303.70989,550.59638 c 0.63077,-0.21411 1.29202,-0.20959 1.94395,-0.29959 0.71175,-0.0982 1.42151,-0.20988 2.13268,-0.31228 1.33011,-0.1907 2.66444,-0.35432 4.00357,-0.46688 1.35408,-0.11397 2.72453,-0.23471 4.08341,-0.1481 0.60934,0.0389 1.21585,0.1261 1.82265,0.1921 0.52922,0.0581 1.20824,-0.16728 1.69034,0.0895 0.0688,0.037 0.31285,-0.0688 0.24825,-0.1103 -0.26348,-0.16785 -0.5989,-0.13936 -0.90357,-0.13117 -0.82091,0.0228 -1.6122,-0.0832 -2.4286,-0.16053 -1.38314,-0.13117 -2.77643,0.007 -4.1559,0.11708 -1.52701,0.12131 -3.04443,0.32639 -4.55875,0.55207 -0.79016,0.11764 -1.57863,0.26968 -2.37246,0.3577 -0.52132,0.0572 -1.02205,0.10438 -1.51488,0.29536 -0.0329,0.0126 -0.0243,0.0367 0.009,0.0251 l 0,0" />
    <path
       style="fill:#ffffff;fill-opacity:0.79096043;fill-rule:nonzero;stroke:none"
       d="m 309.42357,528.31602 c -0.10416,0.0116 -0.18305,0.0472 -0.14349,0.0987 -0.64313,0.13292 -1.24712,0.34198 -1.9551,0.30493 -1.8604,-0.0979 -3.72051,-0.0804 -5.58729,-0.21524 -0.0466,-0.004 -0.33674,0.0379 -0.26008,0.14349 0.70137,0.96204 0.38247,2.41885 0.46636,3.53353 0.0741,0.99044 -0.042,1.89991 0.21524,2.75328 -0.27844,0.24922 -0.51852,0.52665 -0.6816,0.852 -0.0151,0.0301 -0.003,0.0452 0.0179,0.0627 0.32782,0.28331 0.68387,0.30088 1.10311,0.26904 0.0807,-0.006 0.1545,-0.0163 0.23317,-0.0269 0.11738,0.0711 0.46817,0.033 0.39461,-0.0627 -0.002,-0.002 0.002,-0.007 0,-0.009 0.63937,-0.13303 1.24188,-0.34179 1.94614,-0.30493 1.86039,0.0979 3.7205,0.0894 5.58727,0.2242 0.0466,0.004 0.33674,-0.0379 0.26009,-0.14349 -0.70137,-0.96204 -0.38246,-2.41884 -0.46635,-3.53352 -0.0741,-0.99049 0.042,-1.89988 -0.21525,-2.75329 0.27845,-0.24922 0.52749,-0.52664 0.69057,-0.85199 0.0151,-0.0301 -0.006,-0.0452 -0.0269,-0.0627 -0.32782,-0.2833 -0.67491,-0.30088 -1.09415,-0.26905 -0.0815,0.006 -0.16268,0.0161 -0.24214,0.0269 C 309.61146,528.31906 309.51312,528.30612 309.42357,528.31602 z m 0.67262,0.24215 c 0.28288,-0.0137 0.47083,0.0404 0.42152,0.23317 -0.11437,0.0624 -0.22722,0.11718 -0.3408,0.17937 -0.0208,-0.002 -0.0419,9.1e-4 -0.0627,0 -0.0693,-0.13014 -0.14666,-0.26662 -0.24214,-0.3946 C 309.94768,528.56625 310.02887,528.56143 310.09619,528.55817 z m -0.65468,0.0897 c 9e-4,9e-4 0.008,-9e-4 0.009,0 0.0705,0.10701 0.12419,0.21567 0.17937,0.32286 -0.9105,0.0293 -1.81822,0.0619 -2.72638,0.13452 -0.85245,0.0679 -1.75563,0.0551 -2.65463,-0.0179 -0.10129,-0.0392 -0.199,-0.0854 -0.28699,-0.13453 -0.0602,-0.0334 -0.30006,0.0255 -0.27801,0.0807 -0.32498,-0.0343 -0.64295,-0.071 -0.95962,-0.11659 2.9e-4,-0.006 -5.7e-4,-0.0122 0,-0.0179 0.003,-0.0204 -0.0638,-0.0157 -0.0896,0 -0.1655,-0.0241 -0.3315,-0.0449 -0.49326,-0.0718 -0.0193,-0.003 -0.0432,-0.004 -0.0718,0 -0.0196,-0.0363 -0.0407,-0.073 -0.0627,-0.10762 0.70036,0.0379 1.39877,0.0828 2.09859,0.12556 0.87057,0.0532 1.71198,0.005 2.57392,0.0269 0.64929,0.0171 1.27687,0.10032 1.91922,-0.0269 C 308.77246,528.81071 309.10545,528.71812 309.44151,528.64785 z m -7.29127,0.3408 c 0.14023,0.0215 0.28066,0.047 0.42151,0.0627 -0.14421,0.37647 -0.18982,0.81051 -0.18833,1.24661 0.002,0.43609 0.0445,0.87548 0.0627,1.26453 0.0254,0.54997 0.11607,1.11666 0.16143,1.66811 0.017,0.20114 0.0232,0.86609 0.0986,1.27351 -0.0477,0.0349 -0.0963,0.0718 -0.1435,0.10762 -0.1818,-0.82294 -0.10623,-1.67488 -0.17936,-2.61876 -0.0406,-0.52387 0.014,-1.1156 0,-1.69501 C 302.37232,529.83927 302.32228,529.38782 302.15024,528.98865 z m 0.55604,0.0718 c 0.40641,0.0408 0.81177,0.0701 1.21969,0.0987 0.68485,0.28783 1.65065,0.23867 2.34074,0.3408 0.8301,0.12338 1.64294,0.0844 2.46629,0.0269 -0.45073,0.31453 -0.87749,0.6608 -1.30041,0.97755 -0.79701,0.59705 -1.56984,1.26874 -2.24208,2.0089 -0.006,0.005 -0.0113,0.0126 -0.0179,0.0179 -0.57914,0.46155 -1.11572,0.98475 -1.70399,1.42596 -0.18963,0.14218 -0.39563,0.27486 -0.60088,0.42151 0.0255,-0.83226 -0.0554,-1.75348 -0.20627,-2.52907 C 302.48968,530.96255 302.58912,529.95924 302.70628,529.0604 z m 6.9684,0 c 0.0246,0.0513 0.0502,0.10106 0.0718,0.15246 -0.1165,0.0648 -0.23382,0.13171 -0.34977,0.1973 -0.0343,0.0104 -0.065,0.0227 -0.0987,0.0358 -0.10344,-0.004 -0.20973,-0.008 -0.31389,-0.009 0.18913,-0.13 0.38427,-0.25348 0.57396,-0.3677 C 309.59509,529.06613 309.63643,529.06326 309.67468,529.0604 z m -0.21524,0.0179 c -0.19814,0.10682 -0.39292,0.22184 -0.58294,0.34975 -0.63455,-0.005 -1.27985,0.0231 -1.91026,0.009 -0.63572,-0.0147 -1.51534,-0.0404 -2.25106,-0.21524 0.52386,0.0528 1.05346,0.11578 1.56947,0.0807 1.01949,-0.0691 2.0395,-0.13819 3.0582,-0.21524 C 309.37578,529.08501 309.42395,529.081 309.45944,529.07834 z m 0.8789,0 c -0.0335,0.0401 -0.0642,0.0794 -0.10762,0.12555 -0.006,-0.0156 -0.0199,-0.0293 -0.0269,-0.0449 C 310.24943,529.13223 310.29323,529.10597 310.33834,529.07834 z m -0.62778,0.38563 c 0.0431,-0.003 0.084,-0.005 0.12556,0 0.008,0.0255 0.019,0.0552 0.0269,0.0807 -0.0129,0.0111 -0.0229,0.0248 -0.0358,0.0358 -0.0404,0.008 -0.0859,0.0138 -0.12556,0.0269 -0.002,-0.003 0.002,-0.006 0,-0.009 -0.005,-0.009 -0.0521,-0.0248 -0.0538,-0.009 -5.7e-4,0.0122 5.7e-4,0.0325 0,0.0449 -0.4426,0.16891 -0.82136,0.55508 -1.15691,0.852 -0.36498,0.32315 -0.72398,0.65288 -1.07621,0.98651 -0.01,0.008 -0.0172,0.0187 -0.0269,0.0269 -0.0122,0.0116 -0.0237,0.0243 -0.0358,0.0358 -0.35478,0.30018 -0.72109,0.5918 -1.11208,0.85199 -0.25856,0.17227 -0.68501,0.28126 -0.9058,0.48429 -0.24989,0.23025 -0.48727,0.46669 -0.72644,0.7085 -0.19093,0.19297 -0.49094,0.54235 -0.82508,0.84303 -0.30208,0.19814 -0.60923,0.37622 -0.92374,0.54706 -0.0671,0.011 -0.1336,0.0179 -0.19731,0.009 -0.009,-0.028 -0.009,-0.0616 -0.0179,-0.0896 0.01,-0.008 0.0172,-0.0187 0.0269,-0.0269 0.0426,-0.008 0.0839,-0.0131 0.12555,-0.0269 0.002,0.003 -0.002,0.006 0,0.009 0.005,0.009 0.0521,0.0248 0.0538,0.009 5.8e-4,-0.0122 -5.7e-4,-0.0325 0,-0.0449 0.44261,-0.1689 0.82137,-0.55507 1.15692,-0.85199 0.34116,-0.30205 0.67487,-0.61224 1.00446,-0.92375 0.40195,-0.34225 0.80246,-0.68198 1.24659,-0.97754 0.25856,-0.17226 0.68502,-0.28125 0.90581,-0.48429 0.24989,-0.23025 0.48726,-0.46669 0.72643,-0.7085 0.19467,-0.19675 0.50999,-0.55635 0.852,-0.86096 0.29596,-0.19202 0.60748,-0.3622 0.91477,-0.52913 C 309.67426,529.47046 309.69325,529.46514 309.71056,529.46397 z m -0.52017,0.0269 c -0.14166,0.0669 -0.27702,0.15925 -0.41254,0.25111 -0.075,0.0508 -0.14421,0.10708 -0.21524,0.16143 -0.35297,0.21436 -0.69925,0.42891 -1.04033,0.66366 0.41993,-0.35964 0.87419,-0.71822 1.34525,-1.0493 C 308.97555,529.51011 309.0826,529.49834 309.19039,529.49088 z m 0.74438,0.34976 c 0.17937,0.82028 0.10649,1.66921 0.17936,2.60979 0.0406,0.52387 -0.014,1.11561 0,1.69502 0.0111,0.45876 0.0701,0.9102 0.24214,1.30938 -0.14024,-0.0215 -0.28066,-0.047 -0.4215,-0.0627 0.1442,-0.37646 0.18084,-0.81051 0.17936,-1.24661 -0.002,-0.43608 -0.0445,-0.87547 -0.0627,-1.26453 -0.0254,-0.54997 -0.11607,-1.11667 -0.16144,-1.66811 -0.0169,-0.20103 -0.0143,-0.86603 -0.0896,-1.27351 C 309.84505,529.90646 309.89038,529.87422 309.93477,529.84064 z m -0.30494,0.22422 c -0.0254,0.83223 0.0554,1.75351 0.20629,2.52907 0.17175,0.887 0.0812,1.89031 -0.0358,2.78915 -0.40642,-0.0408 -0.81177,-0.0701 -1.2197,-0.0987 -0.68486,-0.28783 -1.65065,-0.23867 -2.34074,-0.3408 -0.83009,-0.12338 -1.65191,-0.0844 -2.47527,-0.0269 0.45074,-0.31453 0.88648,-0.6608 1.30938,-0.97755 0.79851,-0.59817 1.56,-1.27606 2.23313,-2.01788 0.005,-0.004 0.0128,-0.005 0.0179,-0.009 0.57914,-0.46156 1.12469,-0.98475 1.71295,-1.42597 C 309.22594,530.3454 309.42636,530.21015 309.62983,530.06485 z m -2.19724,0.85199 c -0.31032,0.29246 -0.63308,0.56626 -1.01342,0.78921 C 306.73889,531.42236 307.08454,531.16426 307.43259,530.91684 z m -1.34524,1.8116 c -0.33161,0.29521 -0.67849,0.5686 -1.04033,0.82508 C 305.36599,533.25171 305.6951,532.95746 306.08735,532.72844 z m -1.11208,1.14795 c -0.41993,0.35964 -0.8742,0.71821 -1.34526,1.0493 -0.10482,0.007 -0.20926,0.0107 -0.31389,0.0179 0.14039,-0.0667 0.27817,-0.15107 0.41254,-0.24215 0.0799,-0.0542 0.14879,-0.11228 0.22422,-0.17039 C 304.29998,534.31991 304.6397,534.10734 304.97527,533.8764 z m -1.76676,1.12104 c 0.10051,0.004 0.20372,0.008 0.30492,0.009 -0.18914,0.13 -0.37531,0.25349 -0.56501,0.36771 -0.037,0.004 -0.0784,0.006 -0.11659,0.009 -0.0257,-0.0539 -0.0493,-0.10743 -0.0718,-0.16143 0.11402,-0.0635 0.2273,-0.12412 0.3408,-0.18833 C 303.13567,535.02277 303.17433,535.0108 303.20851,534.99744 z m 1.37215,0.009 c 0.31794,-0.005 0.63544,-0.007 0.95065,0 0.6357,0.0147 1.5243,0.0404 2.26002,0.21524 -0.52385,-0.0528 -1.06243,-0.11579 -1.57843,-0.0807 -1.0195,0.0691 -2.03949,0.13819 -3.0582,0.21525 -0.0329,0.003 -0.0721,0.006 -0.10763,0.009 0.19814,-0.10683 0.39292,-0.22186 0.58294,-0.34977 C 303.94728,535.01773 304.26272,535.01075 304.58066,535.00641 z m -2.31383,0.23317 c 0.006,0.0155 0.02,0.0293 0.0269,0.0449 -0.0449,0.0264 -0.0901,0.0535 -0.13452,0.0807 C 302.19267,535.32501 302.22335,535.28573 302.26683,535.23958 z m 4.64561,0.0538 c 0.44549,0.005 0.89575,0.0263 1.34524,0.0628 0.10129,0.0392 0.19901,0.0854 0.28699,0.13451 0.0602,0.0334 0.29109,-0.0255 0.26905,-0.0807 0.32497,0.0343 0.65192,0.071 0.96858,0.11658 -2.8e-4,0.006 -0.008,0.0122 -0.009,0.0179 -0.003,0.0204 0.0638,0.0157 0.0897,0 0.16549,0.0241 0.33149,0.0449 0.49325,0.0718 0.0193,0.003 0.0523,0.004 0.0807,0 0.0196,0.0363 0.0318,0.0729 0.0538,0.10763 -0.70037,-0.0379 -1.39877,-0.0828 -2.09859,-0.12556 -0.87056,-0.0532 -1.71199,-0.005 -2.57391,-0.0269 -0.64931,-0.0171 -1.27689,-0.10033 -1.91924,0.0269 -0.17393,0.0344 -0.49807,0.12704 -0.83405,0.1973 -9e-4,-9.1e-4 -0.008,9e-4 -0.009,0 -0.0704,-0.10701 -0.1242,-0.21567 -0.17938,-0.32286 0.9075,-0.0293 1.81223,-0.0621 2.71741,-0.13453 C 306.02031,535.3043 306.46693,535.28763 306.91244,535.29339 z m -4.59181,0.17936 c 0.0237,0.003 0.0478,-9e-4 0.0718,0 0.0675,0.12679 0.14087,0.26091 0.23318,0.38564 -0.39267,0.0508 -0.70666,0.0319 -0.64572,-0.20627 C 302.0942,535.58974 302.20705,535.53495 302.32063,535.47276 Z"
       id="path248"
       inkscape:connector-curvature="0" />
    <path
       inkscape:connector-curvature="0"
       id="path300"
       style="fill:#ffffff;fill-opacity:0.79096043;fill-rule:nonzero;stroke:none"
       d="m 299.37266,529.17349 c -0.006,-0.0143 -0.0389,0.0116 -0.0356,0.0237 0.22652,0.76393 0.0438,1.77639 0.053,2.57783 0.0126,1.04265 0.006,2.0585 -0.0694,3.09944 -0.14105,1.93352 -0.26207,3.86788 -0.46942,5.79519 -0.21101,1.96285 -0.40312,3.89412 -0.36362,5.87221 0.02,1.00483 0.10381,2.0077 0.22285,3.00493 0.0514,0.43105 0.002,0.90018 0.005,1.33433 0.002,0.31257 0.13174,1.04068 -0.0206,1.31403 -0.0815,0.14584 0.006,0.29507 0.12695,0.12159 0.33993,-0.4903 0.19522,-1.15041 0.19944,-1.71264 0.009,-1.05449 -0.0931,-2.07626 -0.1653,-3.1268 -0.14952,-2.15694 -9.1e-4,-4.2947 0.23865,-6.43781 0.23555,-2.09912 0.35319,-4.20584 0.48832,-6.31285 0.0609,-0.94898 0.0787,-1.85452 0.017,-2.80351 -0.0544,-0.84376 0.10353,-1.9668 -0.22737,-2.74963" />
    <path
       d="m 298.74854,522.08068 c 0.006,-0.0143 0.0389,0.0116 0.0356,0.0237 -0.22653,0.76393 -0.0438,1.77639 -0.053,2.57783 -0.0126,1.04265 -0.006,2.0585 0.0694,3.09944 0.14105,1.93352 0.26207,3.86788 0.46941,5.7952 0.21101,1.96285 0.40312,3.89411 0.36363,5.8722 -0.02,1.00484 -0.10382,2.0077 -0.22286,3.00493 -0.0514,0.43105 -0.002,0.90019 -0.005,1.33433 -0.002,0.31257 -0.13175,1.04068 0.0206,1.31403 0.0815,0.14584 -0.006,0.29507 -0.12695,0.12159 -0.33993,-0.4903 -0.19522,-1.15041 -0.19944,-1.71264 -0.009,-1.05449 0.0931,-2.07626 0.16531,-3.1268 0.14951,-2.15694 9e-4,-4.29469 -0.23866,-6.43781 -0.23555,-2.09912 -0.35319,-4.20584 -0.48832,-6.31285 -0.0609,-0.94898 -0.0787,-1.85452 -0.017,-2.80351 0.0544,-0.84376 -0.10353,-1.9668 0.22737,-2.74963"
       style="fill:#ffffff;fill-opacity:0.79096043;fill-rule:nonzero;stroke:none"
       id="path969"
       inkscape:connector-curvature="0" />
    <path
       d="m 316.63359,551.57215 c 0.0143,-0.006 -0.0116,-0.0389 -0.0237,-0.0356 -0.76393,0.22653 -1.77639,0.0438 -2.57783,0.053 -1.04264,0.0126 -2.05849,0.006 -3.09944,-0.0694 -1.93352,-0.14105 -3.86788,-0.26207 -5.79519,-0.46941 -1.96285,-0.21101 -3.89412,-0.40312 -5.87221,-0.36363 -1.00483,0.02 -2.0077,0.10381 -3.00493,0.22286 -0.43105,0.0514 -0.90018,0.002 -1.33433,0.005 -0.31257,0.002 -1.04068,0.13175 -1.31403,-0.0206 -0.14584,-0.0815 -0.29507,0.006 -0.12159,0.12695 0.4903,0.33993 1.15041,0.19521 1.71264,0.19944 1.05449,0.009 2.07626,-0.0931 3.1268,-0.16531 2.15694,-0.14952 4.2947,-9e-4 6.43781,0.23865 2.09912,0.23556 4.20584,0.35319 6.31285,0.48832 0.94899,0.0609 1.85452,0.0787 2.80351,0.017 0.84376,-0.0544 1.9668,0.10354 2.74963,-0.22736"
       style="fill:#ffffff;fill-opacity:0.79096043;fill-rule:nonzero;stroke:none"
       id="path971"
       inkscape:connector-curvature="0" />
    <path
       inkscape:connector-curvature="0"
       id="path973"
       style="fill:#ffffff;fill-opacity:0.79096043;fill-rule:nonzero;stroke:none"
       d="m 323.7264,550.94803 c 0.0143,0.006 -0.0116,0.0389 -0.0237,0.0356 -0.76393,-0.22653 -1.77639,-0.0438 -2.57783,-0.053 -1.04265,-0.0126 -2.0585,-0.006 -3.09944,0.0694 -1.93352,0.14105 -3.86788,0.26207 -5.79519,0.46942 -1.96285,0.21101 -3.89412,0.40312 -5.87221,0.36362 -1.00483,-0.02 -2.0077,-0.10381 -3.00493,-0.22285 -0.43105,-0.0514 -0.90019,-0.002 -1.33433,-0.005 -0.31257,-0.002 -1.04068,-0.13174 -1.31403,0.0206 -0.14584,0.0815 -0.29507,-0.006 -0.12159,-0.12695 0.4903,-0.33993 1.15041,-0.19521 1.71264,-0.19943 1.05449,-0.009 2.07626,0.0931 3.1268,0.1653 2.15694,0.14952 4.2947,9e-4 6.43781,-0.23865 2.09912,-0.23556 4.20584,-0.35319 6.31285,-0.48832 0.94898,-0.0609 1.85452,-0.0787 2.80351,-0.017 0.84376,0.0544 1.9668,-0.10353 2.74963,0.22737" />
    <path
       d="m 320.6511,529.17349 c -0.006,-0.0143 -0.0389,0.0116 -0.0356,0.0237 0.22653,0.76393 0.0438,1.77639 0.053,2.57783 0.0126,1.04265 0.006,2.0585 -0.0694,3.09944 -0.14105,1.93352 -0.26207,3.86788 -0.46941,5.79519 -0.21102,1.96285 -0.40312,3.89412 -0.36363,5.87221 0.02,1.00483 0.10381,2.0077 0.22286,3.00493 0.0514,0.43105 0.002,0.90018 0.005,1.33433 0.002,0.31257 0.13174,1.04068 -0.0206,1.31403 -0.0815,0.14584 0.006,0.29507 0.12695,0.12159 0.33993,-0.4903 0.19521,-1.15041 0.19944,-1.71264 0.009,-1.05449 -0.0931,-2.07626 -0.16531,-3.1268 -0.14952,-2.15694 -9e-4,-4.2947 0.23865,-6.43781 0.23556,-2.09912 0.35319,-4.20584 0.48832,-6.31285 0.0609,-0.94898 0.0787,-1.85452 0.017,-2.80351 -0.0544,-0.84376 0.10354,-1.9668 -0.22737,-2.74963"
       style="fill:#ffffff;fill-opacity:0.79096043;fill-rule:nonzero;stroke:none"
       id="path975"
       inkscape:connector-curvature="0" />
    <path
       inkscape:connector-curvature="0"
       id="path977"
       style="fill:#ffffff;fill-opacity:0.79096043;fill-rule:nonzero;stroke:none"
       d="m 320.02697,522.08068 c 0.006,-0.0143 0.0389,0.0116 0.0356,0.0237 -0.22653,0.76393 -0.0438,1.77639 -0.053,2.57783 -0.0126,1.04265 -0.006,2.0585 0.0694,3.09944 0.14105,1.93352 0.26207,3.86788 0.46942,5.7952 0.21101,1.96285 0.40311,3.89411 0.36362,5.8722 -0.02,1.00484 -0.10381,2.0077 -0.22285,3.00493 -0.0514,0.43105 -0.002,0.90019 -0.005,1.33433 -0.002,0.31257 -0.13174,1.04068 0.0206,1.31403 0.0815,0.14584 -0.006,0.29507 -0.12695,0.12159 -0.33993,-0.4903 -0.19521,-1.15041 -0.19944,-1.71264 -0.009,-1.05449 0.0931,-2.07626 0.16531,-3.1268 0.14952,-2.15694 9e-4,-4.29469 -0.23865,-6.43781 -0.23556,-2.09912 -0.35319,-4.20584 -0.48832,-6.31285 -0.0609,-0.94898 -0.0787,-1.85452 -0.017,-2.80351 0.0544,-0.84376 -0.10353,-1.9668 0.22737,-2.74963" />
    <path
       inkscape:connector-curvature="0"
       id="path979"
       style="fill:#ffffff;fill-opacity:0.79096043;fill-rule:nonzero;stroke:none"
       d="m 300.50923,525.29651 c -0.0143,-0.006 0.0116,-0.0389 0.0238,-0.0356 0.76392,0.22653 1.77638,0.0438 2.57783,0.053 1.04264,0.0126 2.05849,0.006 3.09943,-0.0694 1.93353,-0.14105 3.86789,-0.26207 5.7952,-0.46941 1.96285,-0.21101 3.89411,-0.40312 5.8722,-0.36363 1.00484,0.02 2.00771,0.10382 3.00493,0.22286 0.43105,0.0514 0.90019,0.002 1.33433,0.005 0.31257,0.002 1.04068,0.13175 1.31403,-0.0206 0.14585,-0.0815 0.29507,0.006 0.12159,0.12695 -0.4903,0.33993 -1.15041,0.19522 -1.71263,0.19944 -1.0545,0.009 -2.07626,-0.0931 -3.12681,-0.16531 -2.15694,-0.14951 -4.29469,-9e-4 -6.43781,0.23866 -2.09911,0.23555 -4.20584,0.35319 -6.31285,0.48831 -0.94898,0.0609 -1.85452,0.0787 -2.80351,0.017 -0.84376,-0.0544 -1.9668,0.10353 -2.74963,-0.22737" />
    <path
       d="m 293.41643,524.67239 c -0.0144,0.006 0.0115,0.0389 0.0237,0.0356 0.76393,-0.22652 1.77638,-0.0438 2.57783,-0.053 1.04264,-0.0126 2.05849,-0.006 3.09944,0.0694 1.93352,0.14105 3.86788,0.26207 5.79519,0.46942 1.96285,0.21101 3.89411,0.40312 5.8722,0.36362 1.00484,-0.02 2.00771,-0.10381 3.00493,-0.22285 0.43105,-0.0514 0.90019,-0.002 1.33434,-0.005 0.31256,-0.002 1.04067,-0.13174 1.31402,0.0206 0.14585,0.0815 0.29508,-0.006 0.12159,-0.12694 -0.49029,-0.33993 -1.15041,-0.19522 -1.71263,-0.19944 -1.0545,-0.009 -2.07626,0.0931 -3.1268,0.1653 -2.15695,0.14952 -4.2947,9.1e-4 -6.43782,-0.23865 -2.09911,-0.23556 -4.20584,-0.35319 -6.31284,-0.48832 -0.94899,-0.0609 -1.85453,-0.0787 -2.80351,-0.017 -0.84377,0.0544 -1.96681,-0.10353 -2.74964,0.22737"
       style="fill:#ffffff;fill-opacity:0.79096043;fill-rule:nonzero;stroke:none"
       id="path981"
       inkscape:connector-curvature="0" />
    <path
       inkscape:connector-curvature="0"
       id="path94"
       style="fill:#ffffff;fill-opacity:0.79096043;fill-rule:nonzero;stroke:none"
       d="m 300.80124,539.44334 c 0.88313,0.50625 1.81531,0.68906 2.825,0.76656 1.26813,0.0978 2.56313,-0.33406 3.81219,-0.18344 2.4475,0.29438 4.945,0.92282 7.34094,0.0394 0.0184,-0.008 0.0275,-0.0238 0.0275,-0.0441 -0.0531,-0.22094 -0.0991,-0.40031 -0.13907,-0.61344 -0.0169,-0.0859 -0.29187,-0.22968 -0.28437,-0.12968 0.1175,1.67843 -5.86375,0.52281 -6.80688,0.38125 -0.89937,-0.13563 -1.66593,-0.0231 -2.57,0.0562 -1.46937,0.13187 -2.80437,-0.0694 -4.20718,-0.49594 -0.23813,-0.0731 -0.11844,0.15406 0.002,0.22312" />
    <path
       inkscape:connector-curvature="0"
       id="path96"
       style="fill:#ffffff;fill-opacity:0.79096043;fill-rule:nonzero;stroke:none"
       d="m 315.9953,538.80646 c 0.13844,0.2575 0.19844,0.54688 0.3825,0.77782 0.0269,0.0328 0.065,0.0719 0.11,0.11 0,10e-4 0.001,0.002 0.001,0.005 0.0113,0.0512 0.0562,0.10593 0.11563,0.1575 -0.085,0.0469 -0.17469,0.0897 -0.26438,0.13281 -0.0375,-0.0119 -0.0694,-0.0131 -0.0681,0.0175 -0.0159,0.0138 -0.0312,0.0263 -0.0465,0.04 -0.003,2.5e-4 -0.005,10e-4 -0.008,0.003 0.001,0.001 0.001,0.001 0.003,5e-4 -0.007,0.006 -0.0138,0.0116 -0.0213,0.0175 -0.0937,0.0941 0.26593,0.23 0.32406,0.22406 0.43906,-0.035 0.80625,-0.26625 1.19812,-0.44437 0.44313,0.0903 0.905,0.0731 1.39032,-0.0343 0.20406,-0.045 0.0263,-0.21625 -0.17094,-0.33532 0.235,-0.0531 0.47219,-0.10187 0.71406,-0.13593 0.28094,-0.0394 -0.29031,-0.43094 -0.47281,-0.415 -0.43156,0.0381 -0.84438,0.009 -1.26969,-0.0672 -0.47656,-0.0866 -0.85625,0.0447 -1.3275,-0.18375 -0.0497,-0.024 -0.29719,-0.0888 -0.33,0.0153 -0.15969,-0.0403 -0.35156,-0.0556 -0.25906,0.11531" />
    <path
       d="m 300.80124,544.80048 c 0.88313,0.50625 1.81531,0.68906 2.825,0.76656 1.26813,0.0978 2.56313,-0.33406 3.81219,-0.18344 2.4475,0.29438 4.945,0.92282 7.34094,0.0394 0.0184,-0.008 0.0275,-0.0238 0.0275,-0.0441 -0.0531,-0.22094 -0.0991,-0.40031 -0.13907,-0.61344 -0.0169,-0.0859 -0.29187,-0.22968 -0.28437,-0.12968 0.1175,1.67843 -5.86375,0.52281 -6.80688,0.38125 -0.89937,-0.13563 -1.66593,-0.0231 -2.57,0.0562 -1.46937,0.13187 -2.80437,-0.0694 -4.20718,-0.49594 -0.23813,-0.0731 -0.11844,0.15406 0.002,0.22312"
       style="fill:#ffffff;fill-opacity:0.79096043;fill-rule:nonzero;stroke:none"
       id="path995"
       inkscape:connector-curvature="0" />
    <path
       d="m 315.9953,544.1636 c 0.13844,0.2575 0.19844,0.54688 0.3825,0.77782 0.0269,0.0328 0.065,0.0719 0.11,0.11 0,10e-4 0.001,0.002 0.001,0.005 0.0113,0.0512 0.0562,0.10593 0.11563,0.1575 -0.085,0.0469 -0.17469,0.0897 -0.26438,0.13281 -0.0375,-0.0119 -0.0694,-0.0131 -0.0681,0.0175 -0.0159,0.0138 -0.0312,0.0263 -0.0465,0.04 -0.003,2.5e-4 -0.005,10e-4 -0.008,0.003 0.001,10e-4 0.001,10e-4 0.003,5e-4 -0.007,0.006 -0.0138,0.0116 -0.0213,0.0175 -0.0937,0.0941 0.26593,0.23 0.32406,0.22406 0.43906,-0.035 0.80625,-0.26625 1.19812,-0.44437 0.44313,0.0903 0.905,0.0731 1.39032,-0.0343 0.20406,-0.045 0.0263,-0.21625 -0.17094,-0.33532 0.235,-0.0531 0.47219,-0.10187 0.71406,-0.13593 0.28094,-0.0394 -0.29031,-0.43094 -0.47281,-0.415 -0.43156,0.0381 -0.84438,0.009 -1.26969,-0.0672 -0.47656,-0.0866 -0.85625,0.0447 -1.3275,-0.18375 -0.0497,-0.024 -0.29719,-0.0888 -0.33,0.0153 -0.15969,-0.0403 -0.35156,-0.0556 -0.25906,0.11531"
       style="fill:#ffffff;fill-opacity:0.79096043;fill-rule:nonzero;stroke:none"
       id="path997"
       inkscape:connector-curvature="0" />
    <path
       style="opacity:0.6;color:#000000;fill:url(#linearGradient924);fill-opacity:1;fill-rule:nonzero;stroke:none;stroke-width:1;marker:none;visibility:visible;display:inline;overflow:visible;enable-background:accumulate"
       d="m 308.57056,538.07647 0,22.8438 20.0625,0 c 0.10844,-0.2427 0.1875,-0.4974 0.1875,-0.7813 l 0,-21.5625 c -0.64338,-0.3128 -1.36133,-0.5 -2.125,-0.5 L 308.57056,538.07647 Z"
       id="path6270"
       inkscape:connector-curvature="0" />
    <path
       style="opacity:0.6;color:#000000;fill:url(#linearGradient942);fill-opacity:1;fill-rule:nonzero;stroke:none;stroke-width:1;marker:none;visibility:visible;display:inline;overflow:visible;enable-background:accumulate"
       d="m 288.32056,538.07647 0,22.0625 c 0,0.1012 0.0165,0.1843 0.0312,0.2813 0.63718,0.3053 1.33979,0.5 2.09375,0.5 l 18.125,0 0,-22.8438 L 288.32056,538.07647 Z"
       id="path6274"
       inkscape:connector-curvature="0" />
    <path
       style="opacity:0.6;color:#000000;fill:url(#linearGradient6268);fill-opacity:1;fill-rule:nonzero;stroke:none;stroke-width:1;marker:none;visibility:visible;display:inline;overflow:visible;enable-background:accumulate"
       d="m 290.44556,515.23277 c -0.75396,0 -1.45657,0.1946 -2.09375,0.5 -0.0148,0.097 -0.0312,0.18 -0.0312,0.2812 l 0,22.0625 20.25,0 0,-22.8437 L 290.44556,515.23277 Z"
       id="path6249"
       inkscape:connector-curvature="0" />
    <path
       style="opacity:0.6;color:#000000;fill:url(#linearGradient6280);fill-opacity:1;fill-rule:nonzero;stroke:none;stroke-width:1;marker:none;visibility:visible;display:inline;overflow:visible;enable-background:accumulate"
       d="m 308.57056,515.23277 0,22.8437 20.25,0 0,-22.0625 c 0,-0.1012 -0.0165,-0.1843 -0.0312,-0.2812 -0.63718,-0.3054 -1.33979,-0.5 -2.09375,-0.5 L 308.57056,515.23277 Z"
       id="path6276"
       inkscape:connector-curvature="0" />
  </g>
</svg>
