<?xml version="1.0" encoding="UTF-8" standalone="no"?>
<!-- Created with Inkscape (http://www.inkscape.org/) -->

<svg
   xmlns:dc="http://purl.org/dc/elements/1.1/"
   xmlns:cc="http://creativecommons.org/ns#"
   xmlns:rdf="http://www.w3.org/1999/02/22-rdf-syntax-ns#"
   xmlns:svg="http://www.w3.org/2000/svg"
   xmlns="http://www.w3.org/2000/svg"
   xmlns:xlink="http://www.w3.org/1999/xlink"
   xmlns:sodipodi="http://sodipodi.sourceforge.net/DTD/sodipodi-0.dtd"
   xmlns:inkscape="http://www.inkscape.org/namespaces/inkscape"
   width="48"
   height="48"
   id="svg2"
   version="1.1"
   inkscape:version="0.48+devel r12272"
   sodipodi:docname="video-quicktime.svg">
  <defs
     id="defs4">
    <linearGradient
       id="linearGradient943">
      <stop
         style="stop-color:#006dd6;stop-opacity:1"
         offset="0"
         id="stop945" />
      <stop
         style="stop-color:#72cef3;stop-opacity:1"
         offset="1"
         id="stop947" />
    </linearGradient>
    <linearGradient
       y2="13.07393"
       x2="11.579766"
       y1="13.07393"
       x1="23.533073"
       gradientTransform="matrix(-1,0,0,1,47.999427,1027.206)"
       gradientUnits="userSpaceOnUse"
       id="linearGradient924"
       xlink:href="#linearGradient6262"
       inkscape:collect="always" />
    <linearGradient
       inkscape:collect="always"
       id="linearGradient6262">
      <stop
         style="stop-color:#ffffff;stop-opacity:0.25738397"
         offset="0"
         id="stop6264" />
      <stop
         style="stop-color:#ffffff;stop-opacity:0;"
         offset="1"
         id="stop6266" />
    </linearGradient>
    <linearGradient
       y2="13.07393"
       x2="11.019455"
       y1="19.660906"
       x1="17.60643"
       gradientTransform="matrix(1,0,0,-1,-5.73e-4,1052.3623)"
       gradientUnits="userSpaceOnUse"
       id="linearGradient942"
       xlink:href="#linearGradient6282"
       inkscape:collect="always" />
    <linearGradient
       id="linearGradient6282"
       inkscape:collect="always">
      <stop
         id="stop6284"
         offset="0"
         style="stop-color:#000000;stop-opacity:0.10970464" />
      <stop
         id="stop6286"
         offset="1"
         style="stop-color:#ffffff;stop-opacity:0;" />
    </linearGradient>
    <linearGradient
       gradientTransform="translate(-5.73e-4,1004.3623)"
       inkscape:collect="always"
       xlink:href="#linearGradient6262"
       id="linearGradient6268"
       x1="23.533073"
       y1="13.07393"
       x2="11.019455"
       y2="13.07393"
       gradientUnits="userSpaceOnUse" />
    <linearGradient
       inkscape:collect="always"
       xlink:href="#linearGradient6288"
       id="linearGradient6280"
       gradientUnits="userSpaceOnUse"
       gradientTransform="matrix(-1,0,0,1,47.999427,1004.3623)"
       x1="20.395853"
       y1="21.890017"
       x2="11.579766"
       y2="13.07393" />
    <linearGradient
       id="linearGradient6288"
       inkscape:collect="always">
      <stop
         id="stop6290"
         offset="0"
         style="stop-color:#000000;stop-opacity:0.13080169" />
      <stop
         id="stop6292"
         offset="1"
         style="stop-color:#ffffff;stop-opacity:0;" />
    </linearGradient>
    <linearGradient
       inkscape:collect="always"
       xlink:href="#linearGradient943"
       id="linearGradient4117"
       gradientUnits="userSpaceOnUse"
       gradientTransform="translate(-64.893423,-3.27418)"
       x1="92.14286"
       y1="-1049.092"
       x2="92.14286"
       y2="-1001.5571" />
  </defs>
  <sodipodi:namedview
     id="base"
     pagecolor="#ffffff"
     bordercolor="#666666"
     borderopacity="1.0"
     inkscape:pageopacity="0.0"
     inkscape:pageshadow="2"
     inkscape:zoom="11.313708"
     inkscape:cx="23.332145"
     inkscape:cy="32.473715"
     inkscape:document-units="px"
     inkscape:current-layer="layer1"
     showgrid="false"
     inkscape:window-width="1366"
     inkscape:window-height="716"
     inkscape:window-x="0"
     inkscape:window-y="28"
     inkscape:window-maximized="1"
     showguides="true"
     inkscape:guide-bbox="true">
    <inkscape:grid
       type="xygrid"
       id="grid3031" />
  </sodipodi:namedview>
  <metadata
     id="metadata7">
    <rdf:RDF>
      <cc:Work
         rdf:about="">
        <dc:format>image/svg+xml</dc:format>
        <dc:type
           rdf:resource="http://purl.org/dc/dcmitype/StillImage" />
        <dc:title />
      </cc:Work>
    </rdf:RDF>
  </metadata>
  <g
     inkscape:label="Capa 1"
     inkscape:groupmode="layer"
     id="layer1"
     transform="translate(0,-1004.3622)">
    <rect
       transform="scale(1,-1)"
       ry="1.9445436"
       y="-1052.3622"
       x="-9.1198729e-07"
       height="48"
       width="48"
       id="rect2991-1-7-3"
       style="font-size:7.5px;font-style:normal;font-variant:normal;font-weight:bold;font-stretch:normal;line-height:125%;letter-spacing:0px;word-spacing:0px;fill:url(#linearGradient4117);fill-opacity:1;stroke:none;font-family:Impact;-inkscape-font-specification:Impact Bold" />
    <path
       style="fill:#ffffff;fill-opacity:1;stroke:none"
       d="m 23.98084,1012.3622 c -8.836417,0 -15.9808685,7.1442 -15.9808685,15.9808 0,8.8363 7.1444525,16.0192 15.9808685,16.0192 3.066502,0 5.958298,-0.8805 8.392831,-2.3761 l 2.337729,2.3761 0.03832,0 4.713781,-0.5365 0.536527,-4.7521 -2.337729,-2.3377 c 1.497616,-2.4344 2.337729,-5.3251 2.337729,-8.3929 C 39.999873,1019.4958 32.817258,1012.3622 23.98084,1012.3622 z m 0,5.5952 c 2.605767,0 4.997571,0.9829 6.82157,2.5676 l -5.901808,5.0971 c -0.282341,-0.092 -0.606609,-0.1533 -0.919762,-0.1533 -1.594538,0 -2.874257,1.2796 -2.874257,2.8742 0,1.5945 1.279719,2.8743 2.874257,2.8743 1.594541,0 2.91258,-1.2798 2.91258,-2.8743 0,-0.1354 -0.02032,-0.253 -0.03832,-0.3832 l 5.940131,-5.1354 c 1.005738,1.5987 1.609584,3.4902 1.609584,5.5186 0,5.7356 -4.688212,10.3857 -10.423972,10.3857 -5.73576,0 -10.385649,-4.6501 -10.385649,-10.3857 C 13.595197,1022.6072 18.24508,1017.9574 23.98084,1017.9574 z m 9.197623,0.5365 1.992818,2.2995 -2.337729,1.9928 c -0.545546,-0.8657 -1.224289,-1.6303 -1.992819,-2.2994 L 33.178463,1018.4939 z m -9.197623,8.6611 c 0.654948,0 1.188026,0.533 1.188026,1.188 0,0.6549 -0.533078,1.1881 -1.188026,1.1881 -0.654946,0 -1.149703,-0.5332 -1.149703,-1.1881 C 22.831138,1027.688 23.325895,1027.155 23.98084,1027.155 Z"
       id="path917"
       inkscape:connector-curvature="0" />
    <path
       id="rect846-0"
       d="m -3e-6,1049.3622 0,1.0625 c 0,1.0773 0.86022,1.9375 1.9375,1.9375 l 44.125,0 c 1.07728,0 1.9375,-0.8602 1.9375,-1.9375 l 0,-1.0625 c 0,1.0773 -0.86022,1.9375 -1.9375,1.9375 l -44.125,0 C 0.860217,1051.2997 -3e-6,1050.4395 -3e-6,1049.3622 Z"
       style="font-size:7.5px;font-style:normal;font-variant:normal;font-weight:bold;font-stretch:normal;line-height:125%;letter-spacing:0px;word-spacing:0px;fill:#000000;fill-opacity:1;stroke:none;font-family:Impact;-inkscape-font-specification:Impact Bold"
       inkscape:connector-curvature="0" />
    <path
       id="path7515-3"
       d="m 2.531247,1005.0185 c -0.91709,0 -1.67115,0.6395 -1.84375,1.5 0.33561,-0.2799 0.77451,-0.4375 1.25,-0.4375 l 44.125,0 c 0.47549,0 0.91439,0.1576 1.25,0.4375 -0.1726,-0.8605 -0.92666,-1.5 -1.84375,-1.5 L 2.531247,1005.0185 Z"
       style="font-size:7.5px;font-style:normal;font-variant:normal;font-weight:bold;font-stretch:normal;line-height:125%;letter-spacing:0px;word-spacing:0px;fill:#ffffff;fill-opacity:0.5372549;stroke:none;font-family:Impact;-inkscape-font-specification:Impact Bold"
       inkscape:connector-curvature="0" />
    <path
       id="rect4280-1"
       d="m 1.937497,1004.3622 c -1.07728,0 -1.9375,0.8602 -1.9375,1.9375 l 0,43.0625 c 0,0.7934 0.48002,1.449 1.15625,1.75 -0.30934,-0.3333 -0.5,-0.7824 -0.5,-1.2812 l 0,-42.9375 c 0,-1.0482 0.8269,-1.875 1.875,-1.875 l 42.9375,0 c 1.0481,0 1.875,0.8268 1.875,1.875 l 0,42.9375 c 0,0.4988 -0.19066,0.9479 -0.5,1.2812 0.67623,-0.301 1.15625,-0.9566 1.15625,-1.75 l 0,-43.0625 c 0,-1.0773 -0.86022,-1.9375 -1.9375,-1.9375 L 1.937497,1004.3622 Z"
       style="font-size:7.5px;font-style:normal;font-variant:normal;font-weight:bold;font-stretch:normal;line-height:125%;letter-spacing:0px;word-spacing:0px;fill:#000000;fill-opacity:0.39215686;stroke:none;font-family:Impact;-inkscape-font-specification:Impact Bold"
       inkscape:connector-curvature="0" />
    <path
       inkscape:connector-curvature="0"
       id="path6270"
       d="m 23.999127,1028.3622 0,22.8438 20.0625,0 c 0.10844,-0.2427 0.1875,-0.4974 0.1875,-0.7813 l 0,-21.5625 c -0.64338,-0.3128 -1.36133,-0.5 -2.125,-0.5 L 23.999127,1028.3622 Z"
       style="font-size:7.5px;font-style:normal;font-variant:normal;font-weight:bold;font-stretch:normal;line-height:125%;letter-spacing:0px;word-spacing:0px;opacity:0.6;color:#000000;fill:url(#linearGradient924);fill-opacity:1;fill-rule:nonzero;stroke:none;stroke-width:1;marker:none;visibility:visible;display:inline;overflow:visible;enable-background:accumulate;font-family:Impact;-inkscape-font-specification:Impact Bold" />
    <path
       inkscape:connector-curvature="0"
       id="path6274"
       d="m 3.749127,1028.3622 0,22.0625 c 0,0.1012 0.0165,0.1843 0.0312,0.2813 0.63718,0.3053 1.33979,0.5 2.09375,0.5 l 18.125,0 0,-22.8438 L 3.749127,1028.3622 Z"
       style="font-size:7.5px;font-style:normal;font-variant:normal;font-weight:bold;font-stretch:normal;line-height:125%;letter-spacing:0px;word-spacing:0px;opacity:0.6;color:#000000;fill:url(#linearGradient942);fill-opacity:1;fill-rule:nonzero;stroke:none;stroke-width:1;marker:none;visibility:visible;display:inline;overflow:visible;enable-background:accumulate;font-family:Impact;-inkscape-font-specification:Impact Bold" />
    <path
       inkscape:connector-curvature="0"
       id="path6249"
       d="m 5.874127,1005.5185 c -0.75396,0 -1.45657,0.1946 -2.09375,0.5 -0.0148,0.097 -0.0312,0.18 -0.0312,0.2812 l 0,22.0625 20.25,0 0,-22.8437 L 5.874127,1005.5185 Z"
       style="font-size:7.5px;font-style:normal;font-variant:normal;font-weight:bold;font-stretch:normal;line-height:125%;letter-spacing:0px;word-spacing:0px;opacity:0.6;color:#000000;fill:url(#linearGradient6268);fill-opacity:1;fill-rule:nonzero;stroke:none;stroke-width:1;marker:none;visibility:visible;display:inline;overflow:visible;enable-background:accumulate;font-family:Impact;-inkscape-font-specification:Impact Bold" />
    <path
       inkscape:connector-curvature="0"
       id="path6276"
       d="m 23.999127,1005.5185 0,22.8437 20.25,0 0,-22.0625 c 0,-0.1012 -0.0165,-0.1843 -0.0312,-0.2812 -0.63718,-0.3054 -1.33979,-0.5 -2.09375,-0.5 L 23.999127,1005.5185 Z"
       style="font-size:7.5px;font-style:normal;font-variant:normal;font-weight:bold;font-stretch:normal;line-height:125%;letter-spacing:0px;word-spacing:0px;opacity:0.6;color:#000000;fill:url(#linearGradient6280);fill-opacity:1;fill-rule:nonzero;stroke:none;stroke-width:1;marker:none;visibility:visible;display:inline;overflow:visible;enable-background:accumulate;font-family:Impact;-inkscape-font-specification:Impact Bold" />
  </g>
</svg>
