<?xml version="1.0" encoding="UTF-8" standalone="no"?>
<!-- Created with Inkscape (http://www.inkscape.org/) -->

<svg
   xmlns:dc="http://purl.org/dc/elements/1.1/"
   xmlns:cc="http://creativecommons.org/ns#"
   xmlns:rdf="http://www.w3.org/1999/02/22-rdf-syntax-ns#"
   xmlns:svg="http://www.w3.org/2000/svg"
   xmlns="http://www.w3.org/2000/svg"
   xmlns:sodipodi="http://sodipodi.sourceforge.net/DTD/sodipodi-0.dtd"
   xmlns:inkscape="http://www.inkscape.org/namespaces/inkscape"
   version="1.1"
   width="22"
   height="22"
   id="svg2928"
   inkscape:version="0.48+devel r12387"
   sodipodi:docname="color-fill.svg">
  <sodipodi:namedview
     pagecolor="#ffffff"
     bordercolor="#666666"
     borderopacity="1"
     objecttolerance="10"
     gridtolerance="10"
     guidetolerance="10"
     inkscape:pageopacity="0"
     inkscape:pageshadow="2"
     inkscape:window-width="1366"
     inkscape:window-height="714"
     id="namedview37"
     showgrid="false"
     inkscape:zoom="10.727273"
     inkscape:cx="11"
     inkscape:cy="11"
     inkscape:window-x="0"
     inkscape:window-y="30"
     inkscape:window-maximized="1"
     inkscape:current-layer="svg2928" />
  <defs
     id="defs2930" />
  <metadata
     id="metadata2933">
    <rdf:RDF>
      <cc:Work
         rdf:about="">
        <dc:format>image/svg+xml</dc:format>
        <dc:type
           rdf:resource="http://purl.org/dc/dcmitype/StillImage" />
        <dc:title>Fill Tool</dc:title>
        <dc:date>2005-08-19</dc:date>
        <dc:creator>
          <cc:Agent>
            <dc:title>Andreas Nilsson</dc:title>
          </cc:Agent>
        </dc:creator>
        <cc:license
           rdf:resource="http://creativecommons.org/licenses/by-sa/2.0/" />
        <dc:subject>
          <rdf:Bag>
            <rdf:li>fill</rdf:li>
            <rdf:li>bucket</rdf:li>
          </rdf:Bag>
        </dc:subject>
      </cc:Work>
      <cc:License
         rdf:about="http://creativecommons.org/licenses/by-sa/2.0/">
        <cc:permits
           rdf:resource="http://web.resource.org/cc/Reproduction" />
        <cc:permits
           rdf:resource="http://web.resource.org/cc/Distribution" />
        <cc:requires
           rdf:resource="http://web.resource.org/cc/Notice" />
        <cc:requires
           rdf:resource="http://web.resource.org/cc/Attribution" />
        <cc:permits
           rdf:resource="http://web.resource.org/cc/DerivativeWorks" />
        <cc:requires
           rdf:resource="http://web.resource.org/cc/ShareAlike" />
      </cc:License>
    </rdf:RDF>
  </metadata>
  <path
     inkscape:connector-curvature="0"
     id="path546"
     style="fill:#1a1a1a;fill-opacity:1;fill-rule:nonzero;stroke:none"
     d="M 10.870286,9.873716 C 10.309171,14.401323 7.4383105,15.33421 7.4383105,18.479503 7.4383105,20.42225 9.0685045,22 10.999659,22 c 1.931835,0 3.56203,-1.57775 3.56203,-3.520497 0,-3.145293 -2.870861,-4.07818 -3.431975,-8.605787 C 11.112005,9.737523 10.887973,9.737523 10.870286,9.873716 z m 7.037562,-9.771572 c -0.01782,-0.136192 -0.242401,-0.136192 -0.26011,0 -0.561114,4.527607 -3.431975,5.459813 -3.431975,8.605787 0,1.942747 1.630876,3.517769 3.56203,3.517769 1.931154,0 3.561349,-1.575022 3.561349,-3.517769 C 21.339142,5.561957 18.468281,4.629751 17.907849,0.102144 z m -13.5562695,0 c -0.01694,-0.136192 -0.241741,-0.136192 -0.258768,0 -0.561092,4.527607 -3.431953,5.459813 -3.431953,8.605787 0,1.942747 1.630172,3.517769 3.561348,3.517769 1.931836,0 3.561348,-1.575022 3.561348,-3.517769 0,-3.145974 -2.870883,-4.07818 -3.431975,-8.605787" />
</svg>
