<?xml version="1.0" encoding="UTF-8" standalone="no"?>
<!-- Created with Inkscape (http://www.inkscape.org/) -->

<svg
   xmlns:dc="http://purl.org/dc/elements/1.1/"
   xmlns:cc="http://creativecommons.org/ns#"
   xmlns:rdf="http://www.w3.org/1999/02/22-rdf-syntax-ns#"
   xmlns:svg="http://www.w3.org/2000/svg"
   xmlns="http://www.w3.org/2000/svg"
   xmlns:sodipodi="http://sodipodi.sourceforge.net/DTD/sodipodi-0.dtd"
   xmlns:inkscape="http://www.inkscape.org/namespaces/inkscape"
   id="svg3014"
   height="22"
   width="22"
   version="1.1"
   inkscape:version="0.48.4 r9939"
   sodipodi:docname="ibus-keyboard.svg">
  <defs
     id="defs10" />
  <sodipodi:namedview
     pagecolor="#ffffff"
     bordercolor="#666666"
     borderopacity="1"
     objecttolerance="10"
     gridtolerance="10"
     guidetolerance="10"
     inkscape:pageopacity="0"
     inkscape:pageshadow="2"
     inkscape:window-width="640"
     inkscape:window-height="480"
     id="namedview8"
     showgrid="false"
     inkscape:zoom="5.3636364"
     inkscape:cx="-13.928584"
     inkscape:cy="-1.6139285"
     inkscape:window-x="582"
     inkscape:window-y="200"
     inkscape:window-maximized="0"
     inkscape:current-layer="g3951" />
  <metadata
     id="metadata3019">
    <rdf:RDF>
      <cc:Work
         rdf:about="">
        <dc:format>image/svg+xml</dc:format>
        <dc:type
           rdf:resource="http://purl.org/dc/dcmitype/StillImage" />
        <dc:title />
      </cc:Work>
    </rdf:RDF>
  </metadata>
  <g
     id="g3951"
     transform="translate(23,0)">
    <path
       id="path3932"
       style="opacity:0.3;color:#ffffff;fill:none;stroke:#3c3c3c;stroke-width:0.45960385;stroke-linecap:round"
       d="m -20.764483,5.4106521 c -1.030559,0 -1.860215,0.8103244 -1.860215,1.8168708 v 7.2674831 c 0,1.006546 0.829656,1.816871 1.860215,1.816871 h 17.6720477 c 1.0305593,0 1.8602154,-0.810325 1.8602154,-1.816871 V 7.2276137 c 0,-1.0065464 -0.8296561,-1.8168707 -1.8602154,-1.8168707 z m 1.395162,1.5474289 h 0.930108 c 0.25763,0 0.465054,0.2025811 0.465054,0.4542177 V 8.590176 c 0,0.2516366 -0.207424,0.4542177 -0.465054,0.4542177 h -0.930108 c -0.25764,0 -0.465054,-0.2025811 -0.465054,-0.4542177 V 7.4122987 c 0,-0.2516366 0.207414,-0.4542177 0.465054,-0.4542177 z m 2.790323,0 h 0.930108 c 0.25763,0 0.465054,0.2025811 0.465054,0.4542177 V 8.590176 c 0,0.2516366 -0.207424,0.4542177 -0.465054,0.4542177 h -0.930108 c -0.25764,0 -0.465054,-0.2025811 -0.465054,-0.4542177 V 7.4122987 c 0,-0.2516366 0.207414,-0.4542177 0.465054,-0.4542177 z m 2.790323,0 h 0.930108 c 0.257631,0 0.465054,0.2025811 0.465054,0.4542177 V 8.590176 c 0,0.2516366 -0.207423,0.4542177 -0.465054,0.4542177 h -0.930108 c -0.257639,0 -0.465054,-0.2025811 -0.465054,-0.4542177 V 7.4122987 c 0,-0.2516366 0.207415,-0.4542177 0.465054,-0.4542177 z m 2.790324,0 h 0.930107 c 0.2576314,0 0.4650546,0.2025811 0.4650546,0.4542177 V 8.590176 c 0,0.2516366 -0.2074232,0.4542177 -0.4650546,0.4542177 h -0.930107 c -0.257631,0 -0.465054,-0.2025811 -0.465054,-0.4542177 V 7.4122987 c 0,-0.2516366 0.207423,-0.4542177 0.465054,-0.4542177 z m 2.7903231,0 h 0.9301078 c 0.2576305,0 0.4650538,0.2025811 0.4650538,0.4542177 V 8.590176 c 0,0.2516366 -0.2074233,0.4542177 -0.4650538,0.4542177 h -0.9301078 c -0.2576305,0 -0.4650538,-0.2025811 -0.4650538,-0.4542177 V 7.4122987 c 0,-0.2516366 0.2074233,-0.4542177 0.4650538,-0.4542177 z m 2.7903232,0 h 0.9301078 c 0.2576305,0 0.4650538,0.2025811 0.4650538,0.4542177 V 8.590176 c 0,0.2516366 -0.2074233,0.4542177 -0.4650538,0.4542177 h -0.9301078 c -0.2576305,0 -0.4650538,-0.2025811 -0.4650538,-0.4542177 V 7.4122987 c 0,-0.2516366 0.2074233,-0.4542177 0.4650538,-0.4542177 z M -19.369321,9.7199971 h 1.860215 c 0.257631,0 0.465054,0.2025811 0.465054,0.4542179 v 1.141358 c 0,0.251636 -0.207423,0.454218 -0.465054,0.454218 h -1.860215 c -0.257631,0 -0.465054,-0.202582 -0.465054,-0.454218 v -1.141358 c 0,-0.2516368 0.207423,-0.4542179 0.465054,-0.4542179 z m 3.720431,0 h 0.930108 c 0.25763,0 0.465053,0.2025811 0.465053,0.4542179 v 1.141358 c 0,0.251636 -0.207423,0.454218 -0.465053,0.454218 h -0.930108 c -0.25764,0 -0.465054,-0.202582 -0.465054,-0.454218 v -1.141358 c 0,-0.2516368 0.207414,-0.4542179 0.465054,-0.4542179 z m 2.790323,0 h 0.930108 c 0.25763,0 0.465054,0.2025811 0.465054,0.4542179 v 1.141358 c 0,0.251636 -0.207424,0.454218 -0.465054,0.454218 h -0.930108 c -0.25764,0 -0.465054,-0.202582 -0.465054,-0.454218 v -1.141358 c 0,-0.2516368 0.207414,-0.4542179 0.465054,-0.4542179 z m 2.790323,0 h 0.9301084 c 0.2576306,0 0.4650539,0.2025811 0.4650539,0.4542179 v 1.141358 c 0,0.251636 -0.2074233,0.454218 -0.4650539,0.454218 h -0.9301084 c -0.25763,0 -0.465054,-0.202582 -0.465054,-0.454218 v -1.141358 c 0,-0.2516368 0.207424,-0.4542179 0.465054,-0.4542179 z m 2.7903239,0 h 2.7903232 c 0.2576305,0 0.4650538,0.2025811 0.4650538,0.4542179 v 1.141358 c 0,0.251636 -0.2074233,0.454218 -0.4650538,0.454218 h -2.7903232 c -0.2576306,0 -0.4650539,-0.202582 -0.4650539,-0.454218 v -1.141358 c 0,-0.2516368 0.2074233,-0.4542179 0.4650539,-0.4542179 z M -19.369321,12.445303 h 0.930108 c 0.25763,0 0.465054,0.202581 0.465054,0.454218 v 1.141358 c 0,0.251637 -0.207424,0.454218 -0.465054,0.454218 h -0.930108 c -0.25764,0 -0.465054,-0.202581 -0.465054,-0.454218 v -1.141358 c 0,-0.251637 0.207414,-0.454218 0.465054,-0.454218 z m 2.790323,0 h 9.3010779 c 0.2576305,0 0.4650538,0.202581 0.4650538,0.454218 v 1.141358 c 0,0.251637 -0.2074233,0.454218 -0.4650538,0.454218 h -9.3010779 c -0.25764,0 -0.465054,-0.202581 -0.465054,-0.454218 v -1.141358 c 0,-0.251637 0.207414,-0.454218 0.465054,-0.454218 z m 11.1612933,0 h 0.9301078 c 0.2576305,0 0.4650538,0.202581 0.4650538,0.454218 v 1.141358 c 0,0.251637 -0.2074233,0.454218 -0.4650538,0.454218 h -0.9301078 c -0.2576305,0 -0.4650538,-0.202581 -0.4650538,-0.454218 v -1.141358 c 0,-0.251637 0.2074233,-0.454218 0.4650538,-0.454218 z"
       inkscape:connector-curvature="0" />
    <path
       id="path3101"
       style="opacity:0.3;color:#ffffff;fill:#ffffff"
       d="m -20.764483,6.1073312 c -1.030559,0 -1.860215,0.8103244 -1.860215,1.8168708 v 7.267483 c 0,1.006546 0.829656,1.816871 1.860215,1.816871 h 17.6720477 c 1.0305593,0 1.8602154,-0.810325 1.8602154,-1.816871 V 7.924202 c 0,-1.0065464 -0.8296561,-1.8168708 -1.8602154,-1.8168708 z m 1.395162,0 h 0.930108 c 0.25763,0 0.465054,0.2025811 0.465054,0.4542177 v 0.9084354 c 0,0.2516366 -0.207424,0.4542177 -0.465054,0.4542177 h -0.930108 c -0.25764,0 -0.465054,-0.2025811 -0.465054,-0.4542177 V 6.5615489 c 0,-0.2516366 0.207414,-0.4542177 0.465054,-0.4542177 z m 2.790323,0 h 0.930108 c 0.25763,0 0.465054,0.2025811 0.465054,0.4542177 v 0.9084354 c 0,0.2516366 -0.207424,0.4542177 -0.465054,0.4542177 h -0.930108 c -0.25764,0 -0.465054,-0.2025811 -0.465054,-0.4542177 V 6.5615489 c 0,-0.2516366 0.207414,-0.4542177 0.465054,-0.4542177 z m 2.790323,0 h 0.930108 c 0.257631,0 0.465054,0.2025811 0.465054,0.4542177 v 0.9084354 c 0,0.2516366 -0.207423,0.4542177 -0.465054,0.4542177 h -0.930108 c -0.257639,0 -0.465054,-0.2025811 -0.465054,-0.4542177 V 6.5615489 c 0,-0.2516366 0.207415,-0.4542177 0.465054,-0.4542177 z m 2.790324,0 h 0.930107 c 0.2576404,0 0.4650546,0.2025811 0.4650546,0.4542177 v 0.9084354 c 0,0.2516366 -0.2074142,0.4542177 -0.4650546,0.4542177 h -0.930107 c -0.25764,0 -0.465054,-0.2025811 -0.465054,-0.4542177 V 6.5615489 c 0,-0.2516366 0.207414,-0.4542177 0.465054,-0.4542177 z m 2.7903231,0 h 0.9301078 c 0.2576398,0 0.4650538,0.2025811 0.4650538,0.4542177 v 0.9084354 c 0,0.2516366 -0.207414,0.4542177 -0.4650538,0.4542177 h -0.9301078 c -0.2576398,0 -0.4650538,-0.2025811 -0.4650538,-0.4542177 V 6.5615489 c 0,-0.2516366 0.207414,-0.4542177 0.4650538,-0.4542177 z m 2.7903232,0 h 0.9301078 c 0.2576398,0 0.4650538,0.2025811 0.4650538,0.4542177 v 0.9084354 c 0,0.2516366 -0.207414,0.4542177 -0.4650538,0.4542177 h -0.9301078 c -0.2576398,0 -0.4650538,-0.2025811 -0.4650538,-0.4542177 V 6.5615489 c 0,-0.2516366 0.207414,-0.4542177 0.4650538,-0.4542177 z M -19.369321,8.8326374 h 1.860215 c 0.257631,0 0.465054,0.2025811 0.465054,0.4542177 v 0.9084359 c 0,0.251636 -0.207423,0.454217 -0.465054,0.454217 h -1.860215 c -0.257631,0 -0.465054,-0.202581 -0.465054,-0.454217 V 9.2868551 c 0,-0.2516366 0.207414,-0.4542177 0.465054,-0.4542177 z m 3.720431,0 h 0.930108 c 0.25763,0 0.465053,0.2025811 0.465053,0.4542177 v 0.9084359 c 0,0.251636 -0.207423,0.454217 -0.465053,0.454217 h -0.930108 c -0.25764,0 -0.465054,-0.202581 -0.465054,-0.454217 V 9.2868551 c 0,-0.2516366 0.207414,-0.4542177 0.465054,-0.4542177 z m 2.790323,0 h 0.930108 c 0.25763,0 0.465054,0.2025811 0.465054,0.4542177 v 0.9084359 c 0,0.251636 -0.207424,0.454217 -0.465054,0.454217 h -0.930108 c -0.25764,0 -0.465054,-0.202581 -0.465054,-0.454217 V 9.2868551 c 0,-0.2516366 0.207414,-0.4542177 0.465054,-0.4542177 z m 2.790323,0 h 0.9301084 c 0.2576399,0 0.4650539,0.2025811 0.4650539,0.4542177 v 0.9084359 c 0,0.251636 -0.2074233,0.454217 -0.4650539,0.454217 h -0.9301084 c -0.25764,0 -0.465054,-0.202581 -0.465054,-0.454217 V 9.2868551 c 0,-0.2516366 0.207414,-0.4542177 0.465054,-0.4542177 z m 2.7903239,0 h 2.7903232 c 0.2576398,0 0.4650538,0.2025811 0.4650538,0.4542177 v 0.9084359 c 0,0.251636 -0.2074233,0.454217 -0.4650538,0.454217 h -2.7903232 c -0.2576399,0 -0.4650539,-0.202581 -0.4650539,-0.454217 V 9.2868551 c 0,-0.2516366 0.207414,-0.4542177 0.4650539,-0.4542177 z M -19.369321,11.557943 h 0.930108 c 0.25763,0 0.465054,0.202581 0.465054,0.454218 v 0.908435 c 0,0.251637 -0.207424,0.454218 -0.465054,0.454218 h -0.930108 c -0.25764,0 -0.465054,-0.202581 -0.465054,-0.454218 v -0.908435 c 0,-0.251637 0.207414,-0.454218 0.465054,-0.454218 z m 2.790323,0 h 9.3010779 c 0.2576305,0 0.4650538,0.202581 0.4650538,0.454218 v 0.908435 c 0,0.251637 -0.2074233,0.454218 -0.4650538,0.454218 h -9.3010779 c -0.25764,0 -0.465054,-0.202581 -0.465054,-0.454218 v -0.908435 c 0,-0.251637 0.207414,-0.454218 0.465054,-0.454218 z m 11.1612933,0 h 0.9301078 c 0.2576305,0 0.4650538,0.202581 0.4650538,0.454218 v 0.908435 c 0,0.251637 -0.2074233,0.454218 -0.4650538,0.454218 h -0.9301078 c -0.2576398,0 -0.4650538,-0.202581 -0.4650538,-0.454218 v -0.908435 c 0,-0.251637 0.207414,-0.454218 0.4650538,-0.454218 z"
       inkscape:connector-curvature="0" />
    <path
       id="path3081"
       d="m -20.764483,5.1988958 c -1.030559,0 -1.860215,0.8103244 -1.860215,1.8168708 V 14.28325 c 0,1.006546 0.829656,1.81687 1.860215,1.81687 h 17.6720477 c 1.0305593,0 1.8602154,-0.810324 1.8602154,-1.81687 V 7.0157666 c 0,-1.0065464 -0.8296561,-1.8168708 -1.8602154,-1.8168708 H -20.764483 z m 1.395162,1.8168708 h 0.930108 c 0.25763,0 0.465054,0.2025811 0.465054,0.4542177 v 0.9084354 c 0,0.2516366 -0.207424,0.4542177 -0.465054,0.4542177 h -0.930108 c -0.25764,0 -0.465054,-0.2025811 -0.465054,-0.4542177 V 7.4699843 c 0,-0.2516366 0.207414,-0.4542177 0.465054,-0.4542177 z m 2.790323,0 h 0.930108 c 0.25763,0 0.465054,0.2025811 0.465054,0.4542177 v 0.9084354 c 0,0.2516366 -0.207424,0.4542177 -0.465054,0.4542177 h -0.930108 c -0.25764,0 -0.465054,-0.2025811 -0.465054,-0.4542177 V 7.4699843 c 0,-0.2516366 0.207414,-0.4542177 0.465054,-0.4542177 z m 2.790323,0 h 0.930108 c 0.257631,0 0.465054,0.2025811 0.465054,0.4542177 v 0.9084354 c 0,0.2516366 -0.207423,0.4542177 -0.465054,0.4542177 h -0.930108 c -0.257639,0 -0.465054,-0.2025811 -0.465054,-0.4542177 V 7.4699843 c 0,-0.2516366 0.207415,-0.4542177 0.465054,-0.4542177 z m 2.790324,0 h 0.930107 c 0.2576404,0 0.4650546,0.2025811 0.4650546,0.4542177 v 0.9084354 c 0,0.2516366 -0.2074142,0.4542177 -0.4650546,0.4542177 h -0.930107 c -0.25764,0 -0.465054,-0.2025811 -0.465054,-0.4542177 V 7.4699843 c 0,-0.2516366 0.207414,-0.4542177 0.465054,-0.4542177 z m 2.7903231,0 h 0.9301078 c 0.2576398,0 0.4650538,0.2025811 0.4650538,0.4542177 v 0.9084354 c 0,0.2516366 -0.207414,0.4542177 -0.4650538,0.4542177 h -0.9301078 c -0.2576398,0 -0.4650538,-0.2025811 -0.4650538,-0.4542177 V 7.4699843 c 0,-0.2516366 0.207414,-0.4542177 0.4650538,-0.4542177 z m 2.7903232,0 h 0.9301078 c 0.2576398,0 0.4650538,0.2025811 0.4650538,0.4542177 v 0.9084354 c 0,0.2516366 -0.207414,0.4542177 -0.4650538,0.4542177 h -0.9301078 c -0.2576398,0 -0.4650538,-0.2025811 -0.4650538,-0.4542177 V 7.4699843 c 0,-0.2516366 0.207414,-0.4542177 0.4650538,-0.4542177 z M -19.369321,9.7410728 h 1.860215 c 0.257631,0 0.465054,0.2025811 0.465054,0.4542182 v 0.908435 c 0,0.251636 -0.207423,0.454217 -0.465054,0.454217 h -1.860215 c -0.257631,0 -0.465054,-0.202581 -0.465054,-0.454217 v -0.908435 c 0,-0.2516371 0.207423,-0.4542182 0.465054,-0.4542182 z m 3.720431,0 h 0.930108 c 0.25763,0 0.465053,0.2025811 0.465053,0.4542182 v 0.908435 c 0,0.251636 -0.207423,0.454217 -0.465053,0.454217 h -0.930108 c -0.25764,0 -0.465054,-0.202581 -0.465054,-0.454217 v -0.908435 c 0,-0.2516371 0.207414,-0.4542182 0.465054,-0.4542182 z m 2.790323,0 h 0.930108 c 0.25763,0 0.465054,0.2025811 0.465054,0.4542182 v 0.908435 c 0,0.251636 -0.207424,0.454217 -0.465054,0.454217 h -0.930108 c -0.25764,0 -0.465054,-0.202581 -0.465054,-0.454217 v -0.908435 c 0,-0.2516371 0.207414,-0.4542182 0.465054,-0.4542182 z m 2.790323,0 h 0.9301084 c 0.2576306,0 0.4650539,0.2025811 0.4650539,0.4542182 v 0.908435 c 0,0.251636 -0.2074233,0.454217 -0.4650539,0.454217 h -0.9301084 c -0.25764,0 -0.465054,-0.202581 -0.465054,-0.454217 v -0.908435 c 0,-0.2516371 0.207424,-0.4542182 0.465054,-0.4542182 z m 2.7903239,0 h 2.7903232 c 0.2576305,0 0.4650538,0.2025811 0.4650538,0.4542182 v 0.908435 c 0,0.251636 -0.2074233,0.454217 -0.4650538,0.454217 h -2.7903232 c -0.2576399,0 -0.4650539,-0.202581 -0.4650539,-0.454217 v -0.908435 c 0,-0.2516371 0.207414,-0.4542182 0.4650539,-0.4542182 z M -19.369321,12.466379 h 0.930108 c 0.25763,0 0.465054,0.202581 0.465054,0.454217 v 0.908436 c 0,0.251636 -0.207424,0.454218 -0.465054,0.454218 h -0.930108 c -0.25764,0 -0.465054,-0.202582 -0.465054,-0.454218 v -0.908436 c 0,-0.251636 0.207414,-0.454217 0.465054,-0.454217 z m 2.790323,0 h 9.3010779 c 0.2576305,0 0.4650538,0.202581 0.4650538,0.454217 v 0.908436 c 0,0.251636 -0.2074233,0.454218 -0.4650538,0.454218 h -9.3010779 c -0.25764,0 -0.465054,-0.202582 -0.465054,-0.454218 v -0.908436 c 0,-0.251636 0.207414,-0.454217 0.465054,-0.454217 z m 11.1612933,0 h 0.9301078 c 0.2576305,0 0.4650538,0.202581 0.4650538,0.454217 v 0.908436 c 0,0.251636 -0.2074233,0.454218 -0.4650538,0.454218 h -0.9301078 c -0.2576398,0 -0.4650538,-0.202582 -0.4650538,-0.454218 v -0.908436 c 0,-0.251636 0.207414,-0.454217 0.4650538,-0.454217 z"
       style="fill:#3c3c3c"
       inkscape:connector-curvature="0" />
  </g>
</svg>
